<svg id="figzy_rotate_60" xmlns="http://www.w3.org/2000/svg" viewBox="0 0 1070.15 887.24"><path id="figzy-outside-spinner" d="M1111.36,303.24c10.32-28.43,29-57.61,59.56-86,0,0-35.27,32.39-87.91,50.42-.52-29.51,6-62.59,23.3-99.2,0,0-20.89,43.66-63.48,80.11-12.67-27.31-20-61-18.51-102.51,0,0-2.25,54-31.27,107.12-22.68-21.25-42.8-50.75-57.63-91.39,3.21,8.77,18.13,53.06,12.59,104.6-27.48-11-55.68-29.71-83.44-59.29,6.34,6.75,37,41.09,52.29,90-29-.11-61.32-6.84-97.13-23.28,11.21,5.39,50.72,26.16,81.64,64.7C874.56,350,842,356.6,802.23,355.56c11.46.5,50.26,3.58,90.43,22.35-20.34,18.76-47.46,35.48-83.45,48.39,0,0,46.81-14.71,103.27-8.89-11.09,26.87-30,54.71-60,82.53,0,0,35.89-30.75,88.45-47.82-.55,28.65-7.82,61-24.93,97.25,0,0,22.77-43.67,67-79.51,11.28,26.92,17.63,60.16,16.11,101.25,0,0,3.88-50.27,31.28-101.21,21.11,20.5,39.64,48.32,53.09,85.84,0,0-14.39-46.12-7.41-101.41,26.49,10.71,53.39,28.69,79.51,56.81,0,0-30.19-35.37-45.8-87.31,27.73.57,58.32,7.37,91.71,23.13,0,0-42.6-22.31-76.72-66.14,26.35-11.18,58.14-17.51,96.56-16.08,0,0-42.52-3.36-88.07-26.2,19.79-18.51,45.8-34.81,79.89-47C1213.13,291.5,1167.36,307.65,1111.36,303.24Zm34.83,58.88c-32.07-1.18-57,6-76.34,17.54,6.36,44.27,34,76.67,34,76.67-23.25-25-47.47-37.63-70.62-42.55-26.7,37.32-30,81.13-30,81.13,1.31-35.38-6.46-61.73-18.74-81.37-43.71,8.25-75.58,35.58-75.58,35.58,25-23.25,38.14-46.53,43.7-68.42-31.23-21.18-67-24.08-76.05-24.48,33.15.87,58.62-6.56,78.19-18.33-6-41.54-33.2-72-38.08-77.21,24.64,26.25,49.81,39.27,73.57,44.16,27.32-38.1,29.22-83.44,29.22-83.44-1.33,36,7.72,62.81,21.53,82.81,42.66-9.32,72.79-37,72.79-37-24.1,22.39-36.67,45.51-42,67.57C1106.68,359,1146.19,362.12,1146.19,362.12Z" transform="translate(-151.17 -146.03)"/><path id="figzy-inside-spinner" d="M1017,285.64s-3.8,75.34-78.79,71.92c0,0,72.18.73,68.78,75.36,0,0,6.31-74.13,77.65-70.88C1084.66,362,1013.82,355.88,1017,285.64Z" transform="translate(-151.17 -146.03)"/><path id="figzy-body-rotate-60" d="M552.22,261a1.09,1.09,0,0,1-1.27-1.72c10.47-11.12-20.56,6.47-34.12,23.25,0-2.71,10.46-11.07,5.24-10.77C511.63,277.51,488,310.71,495,295c-2.32-7.19-21.89,23.74-23.42,25.6a35.81,35.81,0,0,0-1.2-3.44c.12-.35.25-.71.39-1.09l-.7.34c-.2-.46-.41-.9-.62-1.34-1,10-12.2,36.86-25.55,51.87-.22-.41-.53-.88-1.06-.73-4.06.5-14.51.21-19.3-1.17C399.26,319.9,442.83,253.1,367,246.55c-15.57,3.75,39.47,12.45,34.12,44.92-1,10-1.62,53.56-5.83,50.89-11.2-7.15-41.76-15.06-44.09-31.28.71-6-5.36-5.84-6.07-.32-.05,37.17,70.47,41.11,58.31,76.14-3.48.49,3.12,18.34-7.8,6.85a1.1,1.1,0,0,0-1.92.64c-.23,6.46,11.62,11.35,6.68,18.14-2.7,3.71-13,11.36-22.11,2.63-3.76-3.61,11.73,23,8.66,26.75s-22.48-2.83-27.2-4.48c-10.36-3.61,16.22,13.88,14.35,13.92,5.85,7-25.58,2.18-10.67,14.37a1.09,1.09,0,0,1-.69,1.94c-5,0-11.95,2.1-15.83,4a1.09,1.09,0,0,0,.57,2.06c7.46-.89,14.86,2.69,8,6.81a6.76,6.76,0,0,1,3.45,1c-2.42,1.42-4.35,4.12-6.28,6.6.39.92.73,1.84,1,2.77-11.81.64-23.47-.94-26.89,10.76-9.25,2.65-23.58,2.09-30-.58-6.53-3-54.44-35.63-74.89-20.76-6.45,3.91-3.6,9.95,3,5.77,19.41-6.24,41.63,19.18,54.56,26.29,4.85,2.67-44.63,29.55-56.23,37-24.72,16-48.31,4-67.06-12.37-2.57-1.76-6.14,1.46-4.67,4.25,39.62,80.51,105.2-13,171.4-14.74,2.37,2.15,4.59,9.25,7.84,14.49-.53,1.77-1.11,3.53-1.71,5.27h0c-12.54,36.58-38.79,67.53-48.7,105.11-3.58,8.65-6.51,17.18-2.67,16.9,14-13.5-27.44,70.51-7.41,48.63.69-.75,2.11-.1,1.75.85-4,10.51,1.6,40.94,8.76,47.94a1,1,0,0,0,1.74-.78c-4.39-54.68,6.38,32.41,23.46,21.24,3.65-6,1.24-5.54.6-16.91a1,1,0,0,1,1.84-.66c9.58,13,17.82,18,16.36-4.35,11.87-6.83,55,28.62,33.35-4.53,10.67-13.69,36.06,14.42,30.21,2.8-1.23-23.08,14.65-13,23.88-5a1,1,0,0,0,1.53-.3c3.55-6.76,6.36-16.42-.15-20.51a1,1,0,0,1-.3-1.46c9.5-12.47,17.09,3,20.55,8.62a1,1,0,0,0,1.83-.26c5.8-19.06-1-20.42,1.18-22.4,16.25-14.12,13.26,3.48,16.89,1,12.46-12.71,6.9-26.43,11.64-26.89,8.55-.86,4.16,12,7.8,8.55,7.24-9.27,6.75-14.79,4.87-23.81.73-2.08,3.22-3.55,3.92-5.81,2.72-2,5.23,3.39,6.73,4.72,5.29,2.36-.48-14.4-1.9-18.06a1.14,1.14,0,0,1,.19-.66c.63.24.78-5.59,18.95-4.9,4.44.17,18.76,2.33,22.52.93,1.15-.43-1.9,6.25-.72,5.92,6.28-1.54,18.09-8.72,21.82-6.41,1.71,1.07-4.28,3.86-3,5.19,2.3,0,15.23-8.46,15.82-9.33.78,1.31-1.65,4.83.58,5,1.07.4,17.83-12.79,24.67-14.61.68-.39-7,7.12-6.25,6.78a30,30,0,0,0,7.12-.73c0,2.86.16,7.76,0,9.55a18.26,18.26,0,0,0,.73,6.82,5.38,5.38,0,0,0,.56,1.82A71.3,71.3,0,0,0,598,684.2a1,1,0,0,0,1.78-.3c3.1-10.9,4.46-1.53,4.51,2.41.13,9.58,4.39,14.79,6.83,17a1,1,0,0,0,1.66-.77c-.09-8.48.35-3.94,1.75-2.53,2.33,2.35,5.52,11.35,14.57,15.06a1,1,0,0,0,1.1-1.62c-6.56-7.27,8.57,4,16.44,1.87,2.64-.7-6.66-3.86-1.4-5.26.6-.16,17.17,4,19.33,4.59a.86.86,0,0,0,.39,0l-.11,0c3.91,1.61,16.84,6.21,20.51,8,10.15,5,19.71,11.11,29.59,16.64,4.37,2.44,8.18,4.86,12.7,6.91a76.29,76.29,0,0,1,16.45,10.89l-.05.07a16,16,0,0,1,2,2.54c2.22,3.82,6.87-80-9.4-71.84-2.49,1.25,13.79,3.13,6.63,6-12.16,4.8-25,12.76-26.95,16.4,0,0,14.93,1.43,11.65,2.39-3.85,1.13-23.18,5.86-32,17.94-.32.44,7.56-5.7,12.19,0,2.58,3.16-24.89,14.21-26.42,24.4-.06.38,21.3-4.83,15.51-1.67-8.57,4.69-21.64,8-34.77,21.87,0,0,23-5.16,15.51,2.64-9.64,10.09-27.26,11-34.14,22-.06.1,7.47.43,9.45,4.64-3.4,7.11-5.18,14.7-23.69,13.55,0,0,13.49,9,14.3,10.56,5.52,10.68-9.37,7.4-9.37,7.4-2.38,15.23,12.3,8.16,13.43,10.89,1.47,3.6-37.53,14.07-47.29,14.87-5.89.49-13,2.52-17,6.45a475.26,475.26,0,0,0-38.46,41.45c-13.45,16.64-27.32,38.64-40,55.92-2.33,3.17-4.86,6.45-8,8.76-15.94,11.81-20.45,34.34-19.09,53,.57,7.76,8.53,6,20.69,5,10.11-.8,7.86-14.48,7.16-16.95-1-3.64.93-4.23,2.74.55,2,5.27,2.2,15.8,7.12,16.43,9.35,1.2,11.3,1.28,19.17.16,7.67-1.1,9.31-2.9,3.83-18.24-.31-.86-.4-2.41,1.1-.54,4.38,5.47,5.47,19.17,8.76,19.17,0,0,13.08.65,14.51-3.72,4-12.39,3.06-29.27-1.45-41.8a12.37,12.37,0,0,1,1.19-9.7c7.74-11.56,17.48-27.34,26.5-37.88,9.16-10.71,19.68-20.3,30-29.95,2-1.87,5.79-2.08,8.83-2.55,16.89-2.63,33.89-4.65,50.68-7.75,9.75-1.79,22.36-2.51,30.06-7.65,3.29-2.19-.91,6-.91,6,6.17.94,11.54-1.78,13.53-5.13,6.38,2.81,1.38,9.08,1.38,9.08,8.34-.83,23.29-20.51,30.06-22.54a16.94,16.94,0,0,0-5.5,14.12s26.81-23,30.56-33c1.14-3-6.24,19-6.24,19,13.61-5.67,33-32.57,34.62-35.69,10.4-20.26,15.68-17.59,25.19-32.31,2-5.15,16.15-31.42,19.17-38.34,1.33-3-.41,16.45-14.65,38.91,2,8.13,4.06,22.36,4.06,22.36,2-4.06,7.67-12.66,8.14-12.2,4.06,4.07,0,16.27,0,16.27,4.06-2,10.16-9.16,10.16-8.13,0,6.09,4.07,16.26,4.07,16.26,0-10.17,2.59-8.47,3-7.18,1,3.11,9.17,13.28,9.17,13.28,0-6.1.66-7.87,1.17-6.75,4.93,10.81,15.1,10.81,15.1,10.81-4.07-6.1,1.83-3.47,4.06-4.06,0,0,4.09-1.8,4.69-2.23,6.33-4.5,20.45-12,17.83-10-4.93,3.83-11.43,9.58-18.62,14.24-8.26,6.86-27.82,24.12-33,29.32-6.45,6.42-7.74,14-3.38,22.31,5.15,9.76,10.34,19.49,15.39,29.29,10,19.33,24.77,44.42,33.57,64.26s18.47,31.87,40.38,31.72c8.58-.06,17.64-4.85,25.67-1.94,12.49,4.54,30.37,3.36,32.61-.79,11.5-21.36-12.52-28.51-11.51-28.48,18.63.55,17.89,24,19.17,21.91,3.29-5.48,6-24.1-14.22-40.22-8.45-6.72-18-.77-26.75-3.44-2.77-.85-6.38-1.11-8.07-3q-23.5-26.3-46.35-53.17c-4.27-5-7.55-10.89-11.9-17.27,7.19-3.6,13.52-6.83,19.9-10,15.33-7.52,40.84-7.68,66-19.73,25.73-12.3,24.36-30.88,17.86-46.49-.92-2.22,6.79,1.28,10.86-2.79,0,0-8.13-2-14.23-14.23-1.21-2.42,0-2,8.13-6.1,0,0-10.16-12.2-18.29-20.33-2.55-2.54,4.06,0,10.16,2,0,0-8.13-28.46-46.68-35.57-1.29-.24-1.92-1.73-2.86-2.49-3.93-3.18,6.85-.56,19.05,3.5,0,0-16.27-14.23-43.52-20.34-2.88-.65.82-4,4.89-4a128.24,128.24,0,0,1-26.43-8.13c-1.92-.83,4.07,0,10.17-2,0,0-65.9-76.85-70.21-69.93-2-.49-6.37-1-9.59-3.22-.61-.43,1-1.76,10.1-1.2,0,0-27.52-14.92-31.44-14.71-7,10-26.21,44.87-34.45,52.37-3.84,3.49-14.49,12.9-19.07,15.2a131.81,131.81,0,0,1-12.73,5.52c-4.33,1.62-24.16,8.94-28.73,9.8S697.39,715,687.54,716c-1.94.19-7.3-2-11.49-3.41,40.56-6.54,90-3.47,117.56-43.11l.06-.11c7.06-4.88,58.67-86.22,51.29-98.64,0-.08-.05-.16-.07-.24-5-11-26.06-38.3-29.76-30.88-3.49,6.83,13.59,14.19,9.32,20.69h0a5.44,5.44,0,0,1-1.35.1l.07,0c-19.46-2-38.09-39.43-38.49-26.14,1,7.13,11,19.36,17.46,25.82,1,1,.66.65-.39-.19-6.25-5-18.13-13.88-21.12-17.84-4.44-4.55-9-2-6.08,3.38,5,9.18,11.68,14.4,14.56,18.37,6.26,6.3,13.7,12.56,12.73,12.36-5-3.39-7.05-1.64-15-10.74-8.23-9.37-12.7-3.43-7.72,3.44,4.84,10.09,29.52,24.19,29.52,24.48.13,0-32.64,36.59-40.78,45.66h0c-2.06,2.37-3.84,4.3-4.69,5.24a.93.93,0,0,1-.73.31c-14.58-.37-52,2.65-76.1,12a1,1,0,0,1-.89-1.78c23-14.7,45.79-16.34,69.76-16.89a1,1,0,0,0,.68-.29c8.34-8.4,26.67-30.37,35.12-38.29A1,1,0,0,0,791,598c-7.92-8.45-23.79-21.64-37.62-32.2-1.25-1,1.67,1,3.6-2.37,0,0-8.49-2.48-11-4.13-1.06-.7,2.63-.7,2.9-5,0,0-9.56,1.12-11.23.17-.85-.49,2.9-5,2.2-7.63,0,0-10.53,2.8-14.56.33-.62-.39-1-1.91-.35-1.64,3.68,1.48,10.18-5.88,10.18-5.88-2.63.7-5.09-.89-4.35-1.14a11.82,11.82,0,0,0,7.51-8.16c-3.6,2.37-4.9.84-4.3-.26,3.4-6.24,7.8-12.46,13.18-24,1.3-2.78,2.77-2.75,4.59-3.47,15.74-4.18,22-15.74,38.29-26.17,1.29-.8,4.79-2.23,6.92-3.26a2.77,2.77,0,0,0,1.12-.29c3.48-1.91,5.11-4.68,6-8.18,2.09-7.79,7.23-11.09,4.45-18.24-3.18-8.2-11.35-10.45-14.78-14.23-2.49-2.75-4.92-4.21-8.4-10.12-2.08-3.55-4.89-7.78-5.56-13.11a2.38,2.38,0,0,0-4.4-1.2c-.76,3.07,1.48,11.95,4,16.18,3.76,6.21,6.77,11.39,6.77,11.39-5.39-6.21-7.48-7.81-10.67-13.42-1.86-3.27-1.63-8.18-5.14-15.76-2.67-5.79-6.18-1.61-5.8,2.19a80.68,80.68,0,0,0,4.57,17.45c1.89,4.74,8.78,12.81,11,15.84a.71.71,0,0,1-.39,1.14c-8.18-9.81-10.28-9.88-15.06-23.49-3.45-9.81-9-4.48-7.6,1,1,3.52.88,7.06,4.27,13.67,2,4,14.73,19.78,14.57,21-.48,3.77-5.2,0-5.2,0-2-2.2-8.18-12.6-11-5.62,2.1,11.07,10.57,15.84,21.77,19.86l.68.24c-8.16-1.09-16.47-2.69-19.92-6.75a1,1,0,0,0-.92-.34c-35.73,5.11-33.42,11.62-50.15,28.68-4.62,3.17-8.41,7.48-8.83,12.88a7.14,7.14,0,0,0-.21,2.76,19.41,19.41,0,0,1,.63,2.35c0,.3-.07.6-.1.91a2.43,2.43,0,0,0,.25,1.39c0,1,0,2,.06,3a50.38,50.38,0,0,1-1.48,15.8c-2.88,10.7-8.24,20.75-12.83,30.78-4.88,10.66-9.88,21.58-17.36,30.71-2.72,3.31-6.08,6.15-8.34,9.81a2.62,2.62,0,0,0-1.78,1.45c-2.35,4.52-4.86,9.06-8.61,12.59a20.07,20.07,0,0,1-7.09,4.45c-1.4.5-2.88.61-4.08,1.59-1.44,1.16-1.9,3.13-3.35,4.32-1.87,1.51-4.48,1.66-6.68,2.52-4.94,1.93-9.22,5.26-14.17,7.28a3.19,3.19,0,0,0-2.23,2.91,3.14,3.14,0,0,1-.24,1,3,3,0,0,0-.53.8c-.08.19-.18.37-.27.55-7.7,5.92-17.4,6.79-22.19,6.3,7.25-2,14.84-5.68,17.92-9.29a13.43,13.43,0,0,0,1.62-3.12c1.14-2.25,2.5-3.15,4.76-4.33A125.83,125.83,0,0,1,628,625.35a22.28,22.28,0,0,0,7.78-4.56c2.48-2.47,3.61-5.87,7-7.29,2.48-1,5.15-1.44,7.46-2.93,2.8-1.8,4.2-4.6,5.43-7.57,1.8-4.38,5-6.81,8-10.3A87.86,87.86,0,0,0,671.52,582a215.55,215.55,0,0,0,22-44.91c3.93-11.43,6.56-25.61.37-36.22,2.91-5.38-3.66-11.46-7.56-15.3.85-5.71-5.07-5.51-9.79-5.78-3.41-.8,3.63-5.76.52-6.95-13.58-4.81-9.61,6-9.37-7.9-.5-1.44-4.42-1-8.68-1.37,1.52-1.93,3.08-5.06,1.74-7.42-1.2-2.11-3.31-2.21-5.41-2.48,1.37-1.75-.78-1.9-1.54-7.4-.7-3.14-8.47-.28-12-4.65-1.5-1.76,6.71,1,.82-5.36-2.21-1.61-12-1.75-10.55-6.6.87-.66,3.61-4.42,1.64-4.83-.18-.5-21.63-.46-18.56-4.58.68-.09,19.82-19.85,15.39-23.85-30.32-3.27,15.68-14.35,8.71-25-2.95.46-3.48,3.27-8.2-1.38-6.67-5,14-14.26,8.94-17.85-4.37-.42-11-2.72-10.23-13.17.47-2.83,3.71-.87,7.6-2.23,7-1.76-22-9.39-8.39-15.75,3.44-5.63-8.67-3.44-16.22-16.05a1.09,1.09,0,0,1,1-1.64c.56.23,7.25-3.53,3.49-7-5.59-1.37-13.35-2.93-16.17-10.43a1.08,1.08,0,0,1,1.29-1.39c4.05,1,5.33-.1,4.71-1.12-.46-.76-12.2-9.19-18.63-12.57-3.09-4.46,2.09-5.09,3.78-4.64a1.09,1.09,0,0,0,1-1.84c-9.69-8.59-33.28-3.5-10.29-7.91C588.06,250,559.24,256.57,552.22,261ZM367.58,605.62c2.88,13.52,14.4,15,2,22.3-.88.58,7.71,4.47,13.78.43,2-1.34-.68,11.66,4,15.89,2.34,2.35,6.2-15.5,11.35-9.73,2.54,3.32,8.11,10.88,1.46,15.26-2.15,1.32,3.11,3.86,14.79.21,7.87-2.45,15.68,1,20.59,3.79,3.35,3.09-12.54,2.49-14.1,4.22-7.48,2.16-.8,13.26-4.76,12-4.16-2.68-6.45-9.69-6.87-8.43-.61,3.22-10.35,16.53-11,11.3,2.34-5.63,1.84-9.34,1.26-8.71-2.92,3.6-34.58,30.16-33.3,23.45,4.44-6.16,6.33-10.58,4.48-9.27C359.12,687,353,688.65,348.52,691c-4.36.84,4-9.42,4.2-11.78,1.85-5.13-9.39,6.12-8.39,1.09,2.62-5.59,13.79-14.49,15.18-18.75.79-2.39-14.19,1.75-12,.89,10.63-4.13,17.46-20,18.37-24,.75-3.31-9.17,4.93-9.19,4.58,2.11-12.55,13.24-11.76,11.07-24.61,0-1.54-2.07-1.28-3.47-.93C360.56,617.14,366,600.84,367.58,605.62Zm162.44-66c7.73-38.58-65.08-41.25-70.9-1.52-7.47,29.71,13,52.82,38.63,41.9C427,614.53,431.22,474.35,513,504.82,531.84,509.05,533.86,524.78,530,539.57ZM435.69,456.9c-9.09,3.57-18.39,7.38-26,14.26-7,7.11,4.07-9.05,9.39-12.36,2.92-1.81,3.6-2.94,7.2-4.73,1-.51-15.14-11.49-22.73-13.79,6-2.56,25.24,7,24.92,6.16-4.89-12.67-.53-18.28,2.3-23.15,1.06-1.83-1.5,14,7.23,26.35C439.5,451.73,438.32,455.52,435.69,456.9Zm177.47,30.83c4.25,3,8.23,13.22,1.93,13.62l-1-1.4c.81-1.48-.09-3.9-1.71-5.19-4.73-3.58-6.77,2.95-2.66,5.55,1.22.79,5.32,4.07,8.35,2a1,1,0,0,1,1.4.35c2.21,3.14-.1,8.23,1.13,11.2,3.26,1.49,18.28,6.73,20.19,11.28.59,1.43,7.84-7.25,6.27-15.77,4.17.85,2.57,12.36-6.65,20.08.11,8.63-7.57,21-17.76,26.47-3.12-1,14.7-13.22,14.72-26.86-2.21-5.66-15-9.73-18.37-12.18-1.27,2.54-6.2,7.34-8.4,4.47,0-5.53-5.31-7.84-6.8-8.71-5.38-2.9-9.36,5.05-3.54,7.4a4.36,4.36,0,0,0,5.84-2.19l1.8,0c3.77,7.7-7.75,13.24-14.95,10.09C569.52,521.47,592.7,471.29,613.16,487.73Zm-35.69-70.3c2.38,6.68,3.12,15.7,1.78,25.09,6.32-48-51.44-49.13-61.27-7.53-2.69,28,28.34,61.82,48.58,37.26-26.31,37.83-70.32-21-55-50.83C523,395.06,566.37,383.88,577.47,417.43Zm-24-101.87c-.61,4.21-.75,18.77,2.66,33.53.25,1.09,3.25-5,5.78-7.77a1.09,1.09,0,0,1,1.87.64c.62,6,2.73,24.55,5.57,30.38-1.81-1-.51-2.72-2.36-3.6-1.83.13-15.4-22.51-18.19-15.9,1,3.12,2.53,9.53-1.81,8.53-12.27-11.92-3.69-20.25-13.84-3.35-2-.83-5.24-.8-4.53-3,1.4-.86,6.75-24.63,12.17-19.79.16,2.68.57,7.45,1.36,6.38a63.07,63.07,0,0,0,11.34-26.11S553.49,315.53,553.48,315.56Z" transform="translate(-151.17 -146.03)"/></svg>