<svg id="frackworm" xmlns="http://www.w3.org/2000/svg" viewBox="0 0 2048 2048"><path fill="#000" fill-rule="evenodd" d="M867.5 1838.9 C815.8 1835.8 799.3 1834.7 780.5 1833.0 C753.1 1830.4 721.6 1826.4 694.5 1822.0 C687.9 1820.9 677.9 1819.4 672.2 1818.6 L662.0 1817.1 L658.7 1818.4 C652.7 1821.0 621.2 1823.9 567.3 1827.0 C541.0 1828.5 477.8 1828.3 463.5 1826.6 C456.8 1825.8 450.3 1824.9 449.0 1824.7 C437.2 1822.3 434.7 1821.5 433.3 1819.3 L431.8 1817.0 L433.3 1814.7 C434.3 1813.2 436.4 1812.0 439.1 1811.4 C444.2 1810.3 445.2 1808.4 441.3 1806.9 C439.2 1806.1 431.8 1806.3 411.5 1807.6 C396.6 1808.7 378.9 1809.5 372.0 1809.5 L359.5 1809.5 L355.0 1807.0 C351.6 1805.1 350.4 1803.7 350.0 1801.5 L349.5 1798.5 L346.5 1798.6 C344.8 1798.6 333.6 1799.4 321.5 1800.3 C296.3 1802.2 234.7 1802.6 212.9 1801.0 C170.0 1797.8 156.2 1793.0 162.5 1783.4 C166.6 1777.1 186.1 1772.1 218.7 1768.9 C225.5 1768.2 231.0 1767.6 231.0 1767.5 C231.0 1767.4 229.8 1765.2 228.4 1762.6 L225.8 1758.0 L227.4 1755.5 C231.4 1749.4 237.2 1749.7 255.0 1757.1 C261.9 1759.9 269.9 1763.1 272.9 1764.2 L278.2 1766.2 L280.3 1764.2 L282.3 1762.1 L279.2 1755.1 C274.5 1744.6 275.1 1738.9 281.7 1732.9 C285.9 1728.9 288.3 1728.0 294.4 1728.0 C303.0 1728.0 309.0 1731.2 340.4 1752.7 L356.8 1763.9 L361.6 1762.4 C371.0 1759.6 394.5 1756.9 429.2 1754.8 C444.2 1753.9 449.0 1753.3 449.0 1752.3 C449.0 1751.6 447.8 1750.7 446.2 1750.4 C438.5 1748.5 400.6 1730.5 386.5 1721.9 C357.8 1704.7 336.0 1687.2 319.6 1668.4 C308.4 1655.7 304.7 1646.2 308.4 1640.5 L310.0 1638.0 L307.9 1636.3 C283.8 1616.6 264.2 1592.6 245.0 1559.5 C240.0 1550.8 238.5 1547.7 229.2 1527.0 C218.4 1503.0 210.2 1477.1 207.9 1460.0 C205.8 1444.7 208.5 1432.5 214.7 1429.7 L217.2 1428.6 L219.6 1431.5 C220.9 1433.2 222.0 1435.0 222.0 1435.7 C222.0 1438.1 232.3 1448.0 240.8 1453.7 C256.8 1464.6 275.6 1472.1 301.5 1478.1 L311.5 1480.4 L334.0 1480.4 C356.7 1480.5 363.4 1479.8 383.5 1475.8 C411.5 1470.3 431.2 1461.9 466.0 1440.9 C476.2 1434.8 487.1 1428.2 490.4 1426.3 C498.9 1421.2 519.6 1411.5 528.2 1408.6 C534.6 1406.4 539.3 1405.2 557.7 1401.0 C560.0 1400.4 563.1 1400.0 564.5 1400.0 C567.6 1400.0 568.7 1397.7 567.1 1394.3 L565.9 1391.8 L553.2 1392.3 C525.4 1393.3 507.1 1400.9 447.0 1436.3 C427.4 1447.9 397.6 1458.1 369.0 1463.1 C358.6 1465.0 316.9 1465.0 307.5 1463.1 C298.0 1461.3 283.1 1457.4 274.0 1454.3 C247.4 1445.4 220.9 1424.3 212.5 1405.5 C203.2 1384.7 201.4 1346.2 207.9 1309.0 C209.7 1298.7 210.2 1296.5 212.1 1288.0 C220.5 1252.3 235.4 1213.6 248.3 1194.5 C257.4 1180.9 270.8 1166.4 276.6 1163.8 L279.2 1162.6 L280.3 1164.5 C280.9 1165.6 282.2 1168.7 283.2 1171.4 C285.5 1177.8 293.4 1193.8 298.4 1202.0 C320.0 1237.9 345.0 1262.3 375.3 1277.2 C380.9 1279.9 386.2 1282.5 387.0 1282.9 C387.8 1283.3 392.1 1284.7 396.4 1286.1 C404.9 1288.7 407.7 1290.8 414.5 1299.9 C419.9 1307.0 435.5 1320.9 446.4 1328.3 C462.2 1338.9 482.1 1347.3 499.2 1350.6 C508.5 1352.4 518.9 1352.1 531.0 1349.6 C538.9 1347.9 559.1 1340.3 564.8 1336.8 C566.6 1335.7 568.3 1335.0 568.6 1335.2 C568.8 1335.5 568.6 1339.9 568.1 1345.1 C567.5 1352.2 567.6 1354.8 568.5 1355.8 L569.8 1357.2 L571.9 1354.9 C574.3 1352.3 577.1 1345.1 579.0 1337.0 C579.7 1334.0 580.4 1331.0 580.6 1330.3 C580.8 1329.6 582.6 1328.8 584.7 1328.5 C591.6 1327.4 600.4 1324.8 608.7 1321.5 L616.9 1318.2 L618.1 1319.6 C619.0 1320.7 619.1 1324.0 618.7 1331.4 C617.4 1351.5 611.8 1365.5 598.7 1381.0 L592.4 1388.5 L599.2 1395.3 C606.0 1402.0 614.1 1413.2 617.4 1420.3 C620.8 1427.6 624.0 1437.5 624.0 1440.6 L624.0 1443.7 L639.2 1443.7 L654.5 1443.7 L664.4 1446.4 C686.0 1452.3 699.4 1459.5 711.5 1471.5 C718.2 1478.1 721.0 1483.1 721.8 1489.7 C722.0 1492.1 722.5 1494.0 722.7 1494.0 C723.0 1494.0 726.0 1492.7 729.4 1491.1 C737.5 1487.2 746.2 1484.5 759.5 1481.8 L770.5 1479.5 L797.0 1479.5 C814.7 1479.5 826.0 1479.9 831.0 1480.8 C844.0 1483.1 858.3 1487.0 863.8 1489.7 C873.2 1494.3 880.7 1503.7 882.4 1513.2 C882.8 1515.3 883.4 1517.0 883.8 1517.0 C884.2 1517.0 886.2 1515.9 888.3 1514.4 C903.0 1504.4 931.5 1495.5 966.5 1489.9 C988.4 1486.4 1024.9 1485.0 1036.6 1487.1 C1047.2 1489.0 1054.1 1494.4 1058.4 1504.2 C1059.8 1507.4 1061.2 1510.0 1061.5 1510.0 C1061.9 1510.0 1064.7 1508.3 1067.8 1506.2 C1076.3 1500.4 1096.9 1490.7 1112.0 1485.2 C1141.8 1474.4 1163.5 1469.1 1192.0 1465.5 C1217.6 1462.2 1232.7 1465.0 1238.8 1474.0 C1240.0 1475.8 1241.3 1479.1 1241.7 1481.3 C1242.5 1486.3 1244.2 1486.9 1248.2 1483.5 C1261.3 1472.4 1306.5 1461.0 1360.5 1455.0 C1392.3 1451.5 1439.6 1450.4 1448.1 1452.9 C1457.2 1455.5 1464.0 1463.7 1464.0 1472.1 L1464.0 1476.2 L1466.2 1475.7 C1480.5 1472.5 1485.7 1472.0 1504.8 1472.0 C1516.0 1472.0 1528.4 1472.5 1532.3 1473.0 C1549.8 1475.5 1555.2 1476.4 1567.0 1478.7 C1614.1 1488.2 1635.0 1494.6 1642.7 1501.9 C1647.7 1506.6 1648.8 1511.5 1646.5 1518.7 L1645.8 1520.9 L1648.1 1521.4 C1649.4 1521.6 1653.7 1522.4 1657.5 1523.0 C1683.2 1527.5 1721.5 1540.9 1749.0 1555.1 C1768.4 1565.1 1773.5 1571.2 1768.9 1578.6 C1766.3 1582.8 1767.0 1584.0 1772.3 1584.0 C1778.3 1584.1 1789.0 1588.6 1799.5 1595.5 C1805.9 1599.7 1812.4 1605.5 1822.0 1615.4 C1829.4 1623.0 1840.0 1633.9 1845.5 1639.5 L1855.5 1649.8 L1873.0 1661.3 C1882.6 1667.6 1891.9 1674.3 1893.7 1676.1 C1900.4 1683.1 1902.7 1692.7 1899.3 1699.7 C1896.8 1705.1 1888.3 1713.7 1880.2 1719.2 C1863.6 1730.4 1829.4 1745.0 1803.0 1752.1 C1798.9 1753.2 1793.0 1754.8 1790.0 1755.7 C1787.0 1756.5 1781.2 1758.0 1777.1 1759.0 C1769.4 1761.0 1767.3 1762.1 1768.4 1763.9 C1768.9 1764.6 1773.6 1764.8 1782.3 1764.4 C1797.1 1763.8 1805.4 1762.7 1815.1 1759.9 C1823.5 1757.5 1826.2 1757.5 1828.5 1760.0 L1830.3 1761.9 L1829.0 1764.9 C1828.4 1766.5 1828.1 1768.4 1828.5 1768.9 C1828.9 1769.6 1833.7 1770.0 1840.8 1770.0 C1851.6 1770.1 1874.9 1772.0 1883.0 1773.6 C1891.7 1775.2 1897.6 1777.5 1900.2 1780.1 C1903.8 1783.6 1903.7 1784.4 1899.8 1787.3 C1893.7 1791.8 1872.6 1794.5 1807.5 1799.0 C1799.2 1799.6 1786.9 1800.5 1780.0 1801.0 C1773.1 1801.5 1760.3 1802.4 1751.5 1803.0 C1742.7 1803.6 1729.7 1804.5 1722.5 1805.0 C1647.8 1810.6 1607.7 1812.2 1541.0 1812.3 C1478.5 1812.3 1452.4 1811.2 1408.1 1806.4 L1401.8 1805.7 L1400.8 1802.8 L1399.8 1800.0 L1392.1 1800.0 C1383.2 1800.0 1373.5 1801.7 1370.3 1803.8 C1367.4 1805.6 1368.1 1806.6 1372.7 1807.4 C1379.4 1808.6 1382.1 1810.1 1381.8 1812.4 C1381.0 1817.7 1372.8 1818.6 1314.0 1819.5 C1236.3 1820.7 1187.7 1823.3 1108.5 1830.5 C1078.2 1833.2 1069.1 1833.9 1027.0 1837.0 C1019.0 1837.6 1005.3 1838.5 996.6 1839.0 C978.2 1840.2 886.7 1840.1 867.5 1838.9 Z M855.2 1790.5 C870.6 1767.5 891.5 1719.3 897.9 1692.0 C899.8 1683.6 900.8 1678.2 903.2 1662.5 C905.0 1650.2 904.7 1604.7 902.7 1593.5 C901.8 1588.5 900.6 1582.0 900.1 1579.0 C897.0 1561.1 892.4 1547.7 886.4 1538.4 C884.4 1535.4 883.7 1535.4 880.6 1538.4 C877.4 1541.3 877.4 1541.3 880.5 1553.4 C885.9 1574.8 888.0 1593.1 888.0 1620.0 C888.0 1659.0 883.8 1684.9 872.4 1716.9 C865.1 1737.2 864.1 1739.6 855.0 1758.6 C846.4 1776.6 841.2 1785.3 833.8 1794.1 C831.7 1796.7 830.0 1799.0 830.0 1799.3 C830.0 1800.0 838.6 1800.7 844.5 1800.6 L848.5 1800.5 L855.2 1790.5 Z M1065.8 1788.2 C1069.8 1782.4 1079.9 1759.6 1084.0 1747.0 C1095.1 1713.0 1099.7 1680.3 1098.7 1642.5 C1098.3 1631.0 1097.7 1619.0 1097.1 1616.0 C1096.6 1613.0 1095.7 1607.1 1095.0 1603.0 C1091.2 1579.0 1080.4 1549.3 1069.5 1533.1 C1064.8 1525.9 1063.0 1524.5 1059.9 1525.5 C1057.9 1526.2 1057.2 1530.8 1058.9 1532.6 C1059.9 1533.7 1066.4 1550.1 1069.2 1558.5 C1074.6 1574.8 1077.4 1587.9 1081.2 1614.5 C1082.9 1626.5 1082.9 1675.5 1081.2 1687.5 C1076.5 1720.5 1065.5 1756.7 1053.0 1780.8 C1050.8 1785.0 1049.0 1788.7 1049.0 1789.1 C1049.0 1790.0 1052.8 1790.6 1059.2 1790.9 L1063.9 1791.0 L1065.8 1788.2 Z M1262.2 1771.3 C1263.2 1770.4 1264.0 1769.4 1264.0 1769.0 C1264.0 1768.6 1265.7 1765.2 1267.8 1761.3 C1279.0 1741.0 1286.2 1716.4 1291.2 1681.5 C1293.2 1667.5 1292.9 1618.4 1290.7 1604.5 C1286.2 1576.5 1281.3 1561.4 1266.7 1531.0 C1262.7 1522.8 1252.2 1504.1 1250.1 1501.6 C1246.7 1497.6 1241.0 1497.6 1241.0 1501.6 C1241.0 1502.4 1243.4 1508.1 1246.4 1514.3 C1261.9 1546.7 1269.0 1567.4 1274.4 1596.5 C1278.0 1615.6 1279.0 1652.1 1276.6 1674.0 C1273.1 1705.3 1266.1 1734.5 1257.6 1753.2 C1248.0 1774.4 1248.2 1773.0 1255.2 1773.0 C1258.6 1773.0 1261.0 1772.4 1262.2 1771.3 Z M512.4 1758.5 C532.1 1753.3 555.8 1740.9 576.0 1725.1 C593.7 1711.3 620.9 1682.7 637.1 1660.8 C653.8 1638.2 670.3 1610.7 683.1 1584.5 C699.2 1551.2 707.2 1531.4 710.4 1516.8 C711.1 1513.7 708.1 1509.7 705.8 1510.5 C703.8 1511.3 703.0 1512.7 685.0 1548.5 C675.8 1566.7 666.5 1584.6 664.2 1588.4 C661.9 1592.1 660.0 1595.4 660.0 1595.5 C660.0 1597.6 631.4 1642.9 623.2 1654.0 C608.7 1673.4 583.2 1700.5 567.0 1713.6 C543.6 1732.6 515.5 1746.8 493.0 1751.1 C485.3 1752.6 483.6 1753.7 485.4 1756.2 C488.2 1760.0 492.1 1761.1 499.9 1760.5 C504.0 1760.2 509.6 1759.3 512.4 1758.5 Z M980.5 1755.6 C990.4 1754.7 1001.2 1754.0 1004.5 1754.0 C1014.1 1754.0 1018.3 1749.2 1012.3 1745.3 L1009.6 1743.5 L988.0 1743.5 C974.3 1743.6 964.0 1744.1 959.7 1744.9 C948.4 1747.1 942.9 1752.6 948.2 1756.5 C950.7 1758.3 948.9 1758.3 980.5 1755.6 Z M1484.0 1745.4 C1487.3 1738.4 1490.0 1732.6 1490.0 1732.4 C1490.0 1732.2 1491.1 1729.6 1492.6 1726.5 C1497.4 1716.0 1503.7 1694.0 1506.1 1680.0 C1510.0 1656.6 1510.3 1652.7 1510.4 1629.5 C1510.5 1591.9 1507.3 1575.0 1492.1 1535.5 C1491.4 1533.8 1487.5 1525.6 1483.3 1517.1 C1473.4 1497.2 1464.0 1486.5 1461.6 1492.5 C1460.9 1494.3 1461.5 1496.0 1467.3 1507.7 C1478.1 1529.7 1486.3 1553.5 1492.0 1579.2 C1497.5 1604.3 1497.5 1643.6 1492.1 1675.0 C1488.1 1698.4 1478.1 1728.7 1467.6 1749.8 L1464.5 1756.1 L1466.0 1757.0 C1466.8 1757.5 1469.9 1758.0 1472.8 1758.0 L1478.0 1758.0 L1484.0 1745.4 Z M776.2 1755.3 C779.1 1752.7 778.5 1748.7 774.8 1746.5 C770.7 1744.0 771.9 1744.4 746.6 1737.1 C735.2 1733.8 722.0 1730.4 717.4 1729.5 L709.0 1727.9 L705.0 1729.1 C698.0 1731.2 697.2 1734.5 702.9 1737.5 C705.4 1738.7 722.5 1743.9 748.5 1751.1 C750.7 1751.8 755.0 1753.1 758.0 1754.1 C768.4 1757.4 773.5 1757.8 776.2 1755.3 Z M1633.7 1742.8 C1636.3 1740.0 1647.6 1717.6 1652.0 1706.5 C1658.5 1690.5 1663.4 1670.0 1666.5 1646.5 C1671.1 1612.3 1664.0 1567.5 1649.6 1539.6 C1645.2 1531.1 1642.9 1528.7 1640.9 1530.7 C1640.0 1531.6 1640.5 1534.0 1642.8 1540.7 C1657.7 1583.2 1659.9 1631.7 1648.9 1677.6 C1646.8 1686.4 1640.4 1706.1 1637.5 1712.5 C1631.4 1726.1 1625.8 1737.4 1624.0 1739.9 C1622.9 1741.5 1622.0 1743.0 1622.0 1743.3 C1622.0 1743.6 1623.7 1744.1 1625.8 1744.3 C1627.8 1744.5 1630.0 1744.7 1630.6 1744.8 C1631.2 1744.9 1632.6 1744.0 1633.7 1742.8 Z M1158.4 1740.5 C1161.2 1739.7 1165.9 1738.6 1168.9 1738.0 C1181.2 1735.9 1186.1 1735.0 1199.8 1732.1 C1219.3 1727.9 1222.8 1725.9 1218.0 1721.5 L1216.0 1719.7 L1205.7 1720.9 C1187.0 1723.2 1165.6 1727.7 1156.5 1731.2 C1150.5 1733.5 1148.2 1737.8 1151.2 1740.8 C1152.7 1742.3 1152.5 1742.3 1158.4 1740.5 Z M1761.6 1725.4 C1763.8 1721.0 1767.1 1712.6 1768.9 1706.9 C1773.4 1692.8 1773.6 1692.0 1776.2 1680.0 L1778.5 1669.5 L1778.5 1648.0 C1778.4 1625.8 1777.9 1621.3 1773.2 1605.0 C1769.7 1593.0 1766.4 1587.0 1763.4 1587.0 C1760.7 1587.0 1760.0 1590.5 1761.6 1596.1 C1764.4 1606.0 1765.0 1608.4 1766.6 1618.0 C1768.5 1629.6 1768.8 1655.5 1767.1 1666.0 C1762.8 1692.6 1757.1 1712.6 1749.3 1728.2 C1748.1 1730.8 1747.0 1733.2 1747.0 1733.5 C1747.0 1733.8 1749.4 1734.0 1752.2 1733.8 L1757.5 1733.5 L1761.6 1725.4 Z M1363.0 1724.4 C1367.7 1723.6 1374.0 1722.5 1377.0 1722.0 C1409.1 1716.9 1419.1 1714.6 1423.2 1711.8 C1426.8 1709.3 1426.7 1707.4 1423.0 1705.5 C1419.4 1703.6 1415.8 1703.6 1403.9 1705.5 C1395.1 1706.8 1391.9 1707.4 1377.5 1710.0 C1374.5 1710.5 1369.6 1711.4 1366.8 1711.9 C1359.5 1713.2 1349.0 1716.6 1346.2 1718.5 C1345.0 1719.4 1344.0 1720.9 1344.0 1721.9 C1344.0 1726.4 1348.8 1727.0 1363.0 1724.4 Z M1810.0 1716.7 C1818.5 1713.7 1828.1 1710.1 1831.3 1708.7 C1834.5 1707.2 1837.3 1706.0 1837.5 1706.0 C1837.8 1706.0 1839.8 1704.9 1842.0 1703.5 C1846.4 1700.7 1847.3 1698.0 1843.9 1698.0 C1841.7 1698.0 1831.8 1700.7 1822.0 1704.0 C1815.8 1706.1 1806.6 1708.8 1793.6 1712.5 C1781.1 1716.0 1777.9 1718.4 1781.2 1721.9 C1783.5 1724.2 1793.7 1722.4 1810.0 1716.7 Z M1575.0 1710.0 C1584.1 1709.4 1592.1 1708.7 1592.8 1708.5 C1595.1 1707.7 1594.1 1703.1 1591.3 1701.3 L1588.6 1699.5 L1574.0 1699.5 L1559.5 1699.6 L1555.6 1701.5 C1550.8 1703.9 1547.6 1707.9 1548.6 1710.4 L1549.3 1712.2 L1553.9 1711.6 C1556.4 1711.3 1565.9 1710.6 1575.0 1710.0 Z M386.0 1654.9 C403.1 1651.1 416.1 1647.1 426.8 1642.3 C429.7 1641.1 432.3 1640.0 432.6 1640.0 C432.9 1640.0 437.3 1637.9 442.3 1635.4 C466.7 1623.2 495.4 1602.6 513.7 1584.1 C525.8 1572.0 541.9 1554.3 547.2 1547.4 C558.8 1532.1 588.6 1494.0 599.2 1480.7 C605.7 1472.5 611.0 1465.2 611.0 1464.5 C611.0 1463.7 609.9 1462.3 608.4 1461.4 L605.9 1459.7 L601.8 1462.6 C593.4 1468.5 573.2 1491.6 542.0 1531.0 C530.3 1545.8 528.6 1547.6 513.1 1563.4 C486.7 1590.3 458.7 1611.3 432.1 1624.2 C425.2 1627.5 418.6 1630.6 417.5 1631.1 C409.4 1634.1 406.2 1635.2 397.9 1637.3 C374.6 1643.5 350.5 1645.1 332.5 1641.7 C327.8 1640.8 324.1 1640.6 323.6 1641.1 C322.1 1642.4 324.1 1647.0 327.0 1649.1 C330.6 1651.8 340.5 1655.1 348.0 1656.0 C355.7 1657.0 379.6 1656.3 386.0 1654.9 Z M1734.8 1648.1 C1735.6 1647.7 1736.0 1646.2 1735.8 1645.0 C1735.4 1642.2 1729.8 1639.1 1719.5 1636.0 C1715.7 1634.9 1711.7 1633.5 1710.7 1632.9 C1708.2 1631.5 1706.0 1633.4 1706.0 1637.0 C1706.0 1639.1 1706.7 1640.0 1708.8 1640.8 C1711.0 1641.7 1722.2 1645.6 1730.0 1648.3 C1732.3 1649.1 1733.4 1649.1 1734.8 1648.1 Z M818.5 1642.9 C819.4 1641.5 816.4 1638.3 813.7 1637.7 C812.5 1637.5 807.7 1636.2 803.0 1635.0 C782.1 1629.4 774.0 1628.7 774.0 1632.5 C774.0 1634.7 775.5 1635.2 793.0 1639.7 C809.7 1643.9 817.4 1644.9 818.5 1642.9 Z M1023.0 1637.7 C1025.9 1636.3 1026.7 1632.9 1024.7 1631.1 C1022.8 1629.6 1002.8 1627.7 996.0 1628.5 C988.8 1629.4 985.8 1631.3 986.2 1634.8 C986.4 1636.6 987.3 1637.6 989.0 1638.1 C993.6 1639.4 1020.3 1639.1 1023.0 1637.7 Z M1193.0 1619.1 C1197.7 1618.5 1205.0 1617.8 1209.2 1617.4 C1218.6 1616.7 1220.4 1615.3 1216.5 1611.4 L1213.8 1608.7 L1201.6 1609.4 C1188.1 1610.1 1181.5 1611.8 1178.0 1615.5 L1175.7 1617.9 L1177.0 1619.5 C1177.9 1620.6 1179.4 1621.0 1181.4 1620.6 C1183.1 1620.4 1188.3 1619.7 1193.0 1619.1 Z M1607.4 1614.4 C1608.6 1611.2 1605.3 1608.1 1597.6 1605.6 C1593.1 1604.1 1581.1 1602.0 1576.9 1602.0 L1572.3 1602.0 L1571.0 1604.6 C1569.2 1607.9 1570.6 1610.3 1575.1 1611.3 C1596.1 1615.9 1606.4 1617.0 1607.4 1614.4 Z M1420.5 1599.1 C1422.8 1598.6 1423.6 1597.9 1423.8 1595.8 C1424.3 1591.2 1421.6 1590.5 1402.0 1590.5 C1382.7 1590.5 1379.6 1591.0 1377.9 1594.2 L1376.7 1596.4 L1379.0 1598.2 L1381.2 1600.0 L1399.4 1599.9 C1409.3 1599.8 1418.8 1599.5 1420.5 1599.1 Z M961.6 1548.6 C973.5 1547.0 976.9 1546.0 978.8 1543.7 L980.1 1542.2 L978.8 1540.1 C976.3 1536.0 967.0 1534.9 954.1 1537.1 C949.2 1538.0 946.9 1539.0 944.7 1541.1 L941.9 1543.9 L943.0 1546.0 C944.1 1548.0 947.1 1549.8 949.6 1549.9 C950.1 1550.0 955.6 1549.3 961.6 1548.6 Z M801.8 1542.0 C804.6 1539.4 804.6 1538.9 801.6 1536.1 C797.8 1532.5 788.6 1530.0 777.3 1529.3 L767.2 1528.7 L764.6 1531.3 C761.5 1534.4 761.4 1535.1 763.8 1537.9 C766.1 1540.8 779.9 1543.8 791.1 1543.9 L799.6 1544.0 L801.8 1542.0 Z M1594.8 1540.1 C1596.8 1538.9 1595.8 1535.0 1593.0 1532.9 C1586.7 1528.2 1552.0 1518.6 1547.6 1520.3 C1545.0 1521.3 1544.5 1524.0 1546.6 1526.0 C1548.8 1528.1 1565.2 1533.8 1581.4 1538.0 C1594.4 1541.4 1593.2 1541.2 1594.8 1540.1 Z M1151.1 1532.6 C1158.1 1530.9 1162.0 1529.0 1163.4 1526.7 L1164.5 1524.9 L1161.7 1522.4 L1158.9 1520.0 L1153.2 1520.0 C1143.0 1520.1 1131.0 1524.0 1129.6 1527.6 C1129.2 1528.5 1129.7 1530.3 1130.5 1531.6 L1132.0 1534.0 L1138.8 1534.0 C1142.5 1533.9 1148.0 1533.3 1151.1 1532.6 Z M1381.5 1512.4 C1396.7 1511.8 1401.0 1510.7 1401.0 1507.5 C1401.0 1501.2 1376.8 1498.3 1346.0 1501.0 L1334.6 1502.0 L1332.3 1504.2 C1329.5 1506.8 1329.5 1507.2 1331.8 1510.0 C1333.0 1511.5 1335.3 1512.4 1339.0 1513.0 C1344.3 1513.8 1348.7 1513.7 1381.5 1512.4 Z M260.6 1358.2 C261.2 1357.8 262.2 1352.1 262.9 1345.5 C263.6 1338.9 264.8 1329.7 265.6 1325.1 C267.4 1314.4 267.4 1314.0 265.1 1314.0 C262.4 1314.0 260.6 1317.3 258.0 1327.5 C255.1 1338.6 254.5 1356.4 257.0 1358.0 C258.8 1359.2 259.2 1359.2 260.6 1358.2 Z M497.5 1338.8 C477.3 1333.9 457.3 1323.8 440.5 1310.0 C430.0 1301.4 411.5 1281.8 402.5 1269.8 C391.0 1254.5 374.5 1225.2 363.7 1200.8 C353.2 1177.3 343.3 1146.0 339.1 1123.0 C338.4 1119.4 337.5 1114.5 337.0 1112.0 C332.2 1087.3 330.8 1051.7 333.5 1027.5 C336.9 997.3 342.9 977.8 354.4 960.0 C363.2 946.5 374.6 936.8 387.2 932.1 L393.0 930.0 L428.7 929.0 C448.4 928.4 478.2 927.5 495.0 927.0 C517.5 926.4 525.6 926.4 526.2 927.3 C526.6 927.9 527.2 930.7 527.5 933.5 C529.9 951.0 546.9 1005.2 557.0 1027.5 C558.0 1029.7 560.7 1036.2 563.0 1042.0 C565.3 1047.8 568.3 1055.0 569.7 1058.0 C571.1 1061.0 573.8 1067.1 575.7 1071.5 C577.6 1075.9 581.9 1085.3 585.3 1092.5 C596.4 1115.9 642.3 1206.4 649.0 1218.0 C653.6 1226.0 656.3 1231.0 662.5 1242.5 C665.1 1247.5 668.1 1252.8 669.0 1254.5 C673.6 1262.4 676.0 1267.2 676.0 1268.4 C676.0 1271.0 651.6 1286.4 628.5 1298.6 C614.7 1305.8 599.4 1312.7 590.0 1316.0 C586.4 1317.2 580.8 1319.4 577.5 1321.0 C574.2 1322.5 569.5 1324.5 567.0 1325.3 C564.5 1326.2 557.5 1328.7 551.5 1331.0 C537.5 1336.3 535.9 1336.8 528.0 1338.6 C520.7 1340.2 503.6 1340.3 497.5 1338.8 Z M522.8 1269.8 C534.0 1262.9 535.0 1247.4 524.8 1240.9 L521.5 1238.9 L515.4 1239.3 C508.6 1239.8 505.6 1241.5 502.1 1246.7 C499.1 1251.3 499.2 1260.2 502.2 1264.6 C507.0 1271.7 516.1 1274.0 522.8 1269.8 Z M379.2 1266.5 C344.6 1245.5 320.3 1219.2 303.7 1185.0 C289.2 1155.1 284.0 1133.2 284.0 1102.6 C284.0 1081.3 286.5 1067.8 294.5 1045.3 C299.1 1032.3 305.0 1020.4 312.1 1009.9 C317.6 1001.7 326.7 991.3 327.6 992.2 C327.8 992.5 327.2 996.7 326.1 1001.6 C320.1 1030.5 319.1 1062.1 323.0 1098.5 C326.5 1130.7 338.0 1173.5 350.7 1202.0 C359.6 1221.8 372.6 1246.0 382.2 1260.2 C387.7 1268.5 388.9 1271.0 387.2 1271.0 C386.8 1271.0 383.2 1269.0 379.2 1266.5 Z M684.9 1259.8 C684.2 1258.5 682.9 1256.2 682.0 1254.5 C681.1 1252.8 676.1 1243.8 671.0 1234.5 C665.9 1225.2 660.7 1215.7 659.4 1213.5 C658.2 1211.3 651.8 1198.9 645.2 1186.0 C638.7 1173.1 629.0 1154.2 623.8 1144.0 C618.6 1133.8 613.1 1122.6 611.5 1119.0 C610.0 1115.4 604.1 1103.3 598.5 1092.0 C592.9 1080.7 586.9 1067.7 585.0 1063.0 C581.6 1054.3 579.0 1048.4 573.8 1037.0 C570.6 1029.9 561.2 1007.0 560.0 1003.0 C559.5 1001.6 557.1 994.6 554.6 987.5 C550.5 976.0 546.6 963.9 544.0 954.5 C540.5 941.8 538.1 932.0 537.8 929.5 L537.5 926.5 L549.0 925.8 C567.6 924.6 636.4 923.1 637.1 923.8 C637.5 924.2 638.3 927.4 638.9 931.0 C640.6 939.9 643.3 949.2 648.7 964.0 C651.2 970.9 654.9 981.2 657.0 987.0 C659.1 992.8 663.1 1003.6 666.0 1011.0 C668.8 1018.4 672.4 1027.9 674.0 1032.0 C677.8 1042.2 678.6 1044.3 681.0 1049.5 C682.1 1052.0 684.0 1056.1 685.1 1058.8 C686.3 1061.4 689.7 1068.6 692.6 1074.8 C695.6 1081.0 698.0 1086.3 698.0 1086.5 C698.0 1087.9 728.8 1148.4 737.7 1164.4 C740.0 1168.7 742.0 1172.4 742.0 1172.5 C742.0 1172.7 744.1 1176.6 746.8 1181.2 C749.4 1185.8 753.1 1192.6 754.9 1196.3 L758.4 1203.1 L755.9 1205.3 C754.6 1206.5 751.9 1208.8 750.0 1210.4 C748.1 1212.0 743.6 1215.8 740.0 1219.0 C725.0 1232.3 714.7 1240.7 702.3 1250.2 C695.0 1255.7 688.8 1260.6 688.4 1261.1 C687.5 1262.6 686.1 1262.1 684.9 1259.8 Z M466.0 1233.9 C466.0 1220.0 471.1 1205.7 478.1 1199.6 C485.2 1193.6 490.3 1191.8 500.1 1191.8 L508.7 1191.8 L514.1 1194.5 C517.1 1196.0 521.4 1198.7 523.7 1200.6 C526.0 1202.5 528.3 1204.0 528.9 1204.0 C532.6 1204.0 527.1 1191.4 521.1 1186.2 C505.3 1172.4 477.8 1176.9 465.1 1195.4 C456.0 1208.6 453.9 1220.3 458.6 1232.0 C461.5 1238.9 466.0 1240.1 466.0 1233.9 Z M761.8 1186.2 C759.3 1182.0 752.0 1168.4 745.7 1156.0 C739.5 1143.6 732.8 1131.0 731.0 1128.0 C729.2 1125.0 723.6 1114.0 718.5 1103.5 C690.2 1045.3 686.4 1036.7 683.5 1024.5 C681.4 1015.5 681.6 1015.0 685.0 1019.0 L687.9 1022.5 L688.0 1020.1 C688.0 1017.3 682.4 1007.1 680.4 1006.3 C679.6 1006.0 679.0 1005.2 679.0 1004.5 C679.0 1003.8 678.6 1003.0 678.2 1002.8 C677.5 1002.5 662.3 967.7 657.0 954.0 C653.7 945.6 649.0 930.0 648.7 926.6 L648.5 923.5 L655.0 922.9 C658.6 922.5 667.8 922.2 675.5 922.1 C683.2 922.0 697.8 921.6 708.0 921.1 C718.2 920.5 737.4 919.8 750.7 919.5 L774.8 918.8 L782.2 928.5 C786.2 933.9 794.6 944.3 800.8 951.7 C807.0 959.1 817.1 971.3 823.3 978.8 C854.1 1016.5 867.2 1031.9 889.4 1056.9 C894.9 1063.1 900.0 1068.9 900.5 1069.6 C901.5 1071.0 894.6 1078.2 873.0 1098.5 C868.9 1102.4 855.7 1114.9 843.8 1126.3 C831.8 1137.8 821.6 1146.9 821.1 1146.6 C819.8 1145.8 813.6 1134.8 806.6 1121.0 C803.3 1114.7 795.4 1100.3 789.0 1089.0 C782.6 1077.7 775.6 1065.3 773.5 1061.5 C771.4 1057.7 766.5 1049.3 762.7 1043.0 C758.8 1036.7 753.7 1028.0 751.2 1023.7 C746.9 1016.2 745.4 1014.3 744.4 1015.3 C744.2 1015.5 746.7 1022.1 750.0 1029.9 C753.3 1037.7 756.0 1044.3 756.0 1044.5 C756.0 1046.3 772.5 1080.0 782.0 1097.5 C785.9 1104.7 794.1 1120.6 800.2 1132.9 L811.4 1155.3 L798.5 1167.7 C782.7 1182.9 769.7 1194.0 767.8 1194.0 C767.0 1194.0 764.3 1190.5 761.8 1186.2 Z M1362.0 1159.3 C1351.3 1155.6 1336.0 1144.7 1326.7 1134.3 C1318.0 1124.4 1305.5 1104.1 1304.0 1097.4 C1302.9 1092.4 1303.7 1090.4 1307.8 1088.4 L1311.4 1086.7 L1320.4 1087.3 C1345.1 1088.8 1368.1 1098.9 1384.2 1115.1 C1392.7 1123.7 1396.0 1130.0 1396.0 1137.5 C1396.0 1146.7 1392.0 1153.3 1383.7 1157.9 L1379.9 1160.0 L1371.7 1159.9 C1367.2 1159.9 1362.8 1159.6 1362.0 1159.3 Z M1228.0 1066.4 C1220.6 1065.2 1212.7 1063.4 1196.0 1059.4 C1147.6 1047.6 1132.6 1045.1 1095.3 1042.9 C1074.9 1041.7 1044.9 1042.6 1023.0 1045.1 C998.0 1047.9 990.3 1049.0 973.0 1052.1 C970.0 1052.6 965.0 1053.5 962.0 1054.0 C959.0 1054.5 954.0 1055.6 951.0 1056.4 C937.6 1059.8 927.0 1061.3 924.5 1060.2 C923.1 1059.5 922.3 1058.5 922.6 1057.8 C923.2 1056.2 939.7 1043.2 946.0 1039.2 C954.7 1033.8 972.9 1026.4 987.2 1022.5 C990.4 1021.7 995.4 1020.4 998.2 1019.6 C1030.4 1010.8 1045.4 1007.9 1084.0 1003.0 C1088.7 1002.4 1095.7 1001.5 1099.5 1001.0 C1128.5 997.2 1190.2 996.4 1215.0 999.4 C1239.2 1002.3 1253.1 1007.0 1261.2 1015.2 C1267.3 1021.2 1269.4 1026.0 1269.8 1035.1 L1270.2 1042.7 L1268.0 1047.1 C1263.9 1055.2 1256.9 1061.1 1247.0 1064.7 C1243.2 1066.0 1232.0 1067.1 1228.0 1066.4 Z M900.9 1053.2 C891.4 1043.3 881.5 1032.2 870.5 1019.0 C865.6 1013.2 858.0 1004.2 853.5 999.0 C849.0 993.8 841.6 984.8 837.0 979.0 C832.4 973.2 825.2 964.5 821.0 959.5 C807.8 944.1 788.0 919.6 788.0 918.8 C788.0 918.4 792.4 918.0 797.7 918.0 C803.0 918.0 817.0 917.5 828.8 916.9 C853.4 915.7 854.7 915.9 857.8 922.3 C861.8 930.7 866.0 947.6 866.0 955.5 C866.0 959.3 867.8 960.1 870.1 957.4 C870.9 956.5 876.0 952.7 881.5 949.0 C887.0 945.3 897.2 938.0 904.0 932.8 C910.9 927.7 923.7 918.5 932.5 912.5 C941.3 906.5 953.9 897.8 960.5 893.1 C1024.2 847.9 1131.7 776.5 1189.5 741.0 C1200.5 734.3 1211.1 727.7 1213.0 726.5 C1231.4 714.9 1251.8 703.8 1284.5 687.5 C1308.0 675.9 1325.2 669.1 1343.3 664.2 L1353.5 661.5 L1368.5 661.6 L1383.5 661.6 L1390.5 664.3 C1411.5 672.5 1424.0 690.1 1424.0 711.6 C1424.0 727.5 1414.2 746.5 1400.2 757.5 C1389.6 765.9 1367.0 776.1 1337.0 786.0 C1327.1 789.3 1280.9 805.4 1274.0 808.0 C1269.3 809.7 1262.1 812.4 1258.0 814.0 C1253.9 815.5 1246.0 818.6 1240.5 820.8 C1235.0 823.0 1226.0 826.5 1220.5 828.5 C1215.0 830.6 1210.0 832.6 1209.5 833.0 C1209.0 833.4 1206.7 834.3 1204.5 835.0 C1202.3 835.7 1198.2 837.3 1195.5 838.6 C1192.7 839.8 1188.0 841.8 1185.1 843.0 C1182.1 844.1 1177.6 846.0 1175.1 847.2 C1172.6 848.3 1168.5 850.1 1166.0 851.2 C1163.5 852.3 1159.0 854.4 1156.0 855.7 C1153.0 857.1 1148.7 859.0 1146.5 860.0 C1141.4 862.3 1132.4 866.3 1123.2 870.6 C1119.1 872.5 1115.6 874.0 1115.4 874.0 C1115.2 874.0 1111.1 875.8 1106.4 878.0 C1101.7 880.2 1097.7 882.0 1097.5 882.0 C1097.4 882.0 1090.3 885.3 1081.9 889.4 C1067.4 896.3 1063.4 898.2 1049.2 904.6 C1046.1 906.0 1040.8 908.5 1037.5 910.0 C1034.2 911.5 1029.0 913.9 1026.0 915.3 C1023.0 916.6 1017.5 919.2 1013.8 920.9 C996.4 928.9 993.6 930.2 987.8 932.9 C984.3 934.5 974.4 939.2 965.8 943.4 C957.1 947.5 948.0 951.9 945.5 953.0 C943.0 954.1 939.1 955.9 936.8 956.9 C927.2 961.2 915.5 965.6 897.0 971.7 C877.7 978.1 875.0 979.3 876.3 980.7 C876.7 981.1 890.2 981.3 906.4 981.2 C922.5 981.1 937.7 981.4 940.2 981.8 C947.8 983.3 970.0 1002.0 970.0 1007.0 C970.0 1008.0 966.9 1011.2 963.1 1014.4 C959.2 1017.5 951.3 1024.4 945.3 1029.7 C939.4 1035.1 931.6 1041.9 928.0 1044.9 C924.4 1047.8 918.9 1052.7 915.7 1055.6 C912.5 1058.6 909.6 1061.0 909.1 1061.0 C908.7 1061.0 905.0 1057.5 900.9 1053.2 Z M1477.0 1060.4 C1459.7 1057.2 1418.5 1035.2 1404.9 1021.9 C1399.5 1016.7 1398.8 1013.9 1402.2 1011.6 L1404.4 1010.0 L1421.0 1010.0 C1448.7 1010.1 1470.6 1014.4 1488.9 1023.4 C1500.7 1029.2 1506.0 1035.3 1506.0 1043.2 C1506.0 1049.3 1502.1 1054.3 1494.1 1058.9 C1491.5 1060.3 1481.4 1061.2 1477.0 1060.4 Z M976.4 994.6 C973.6 991.7 968.2 987.3 964.5 984.9 L957.8 980.6 L960.4 978.5 C965.0 974.8 988.0 963.7 1011.0 954.0 C1017.9 951.1 1026.7 947.4 1030.5 945.7 C1053.4 935.8 1106.9 916.6 1140.5 906.2 C1168.6 897.5 1210.9 886.4 1232.0 882.1 C1234.5 881.6 1242.3 880.1 1249.5 878.6 C1256.7 877.2 1265.2 875.5 1268.5 874.9 C1271.8 874.3 1276.5 873.4 1279.0 872.9 C1288.7 871.0 1312.3 868.0 1327.0 866.9 L1342.5 865.7 L1351.4 867.3 C1363.1 869.4 1370.1 873.0 1377.5 880.4 C1382.9 885.9 1385.5 889.9 1388.9 898.3 C1390.8 903.1 1390.3 916.2 1387.8 922.7 C1381.6 939.6 1368.2 951.0 1351.0 954.1 C1346.9 954.8 1321.2 955.6 1281.0 956.1 C1246.1 956.6 1215.7 957.2 1213.5 957.4 C1211.3 957.7 1203.2 958.4 1195.5 959.0 C1181.7 960.1 1155.8 963.0 1141.0 965.1 C1124.0 967.5 1120.1 968.1 1110.5 969.6 C1100.3 971.2 1078.7 975.3 1071.5 977.0 C1069.3 977.5 1064.6 978.6 1061.0 979.4 C1057.4 980.2 1049.8 982.0 1044.0 983.4 C1038.2 984.7 1030.3 986.6 1026.5 987.4 C1014.6 990.1 997.8 994.7 991.5 997.0 C982.0 1000.5 982.0 1000.5 976.4 994.6 Z M1514.5 944.0 C1503.6 941.6 1490.8 936.3 1480.4 930.0 C1456.1 915.2 1449.2 898.3 1463.2 887.6 C1472.2 880.8 1489.3 875.3 1508.7 872.9 L1518.8 871.6 L1525.7 872.9 C1540.4 875.6 1549.3 880.4 1556.1 889.4 C1569.1 906.6 1562.4 930.5 1541.6 940.8 L1535.0 944.1 L1526.7 944.5 C1522.2 944.7 1516.7 944.5 1514.5 944.0 Z M866.0 915.0 C866.0 912.6 858.7 906.0 855.4 905.4 C851.8 904.7 850.1 903.2 851.7 902.1 C852.6 901.5 855.8 897.8 869.6 881.2 C872.7 877.5 878.0 871.6 881.4 868.0 C884.8 864.4 891.8 856.8 897.0 851.0 C902.2 845.2 912.8 834.0 920.5 826.0 C949.3 796.3 961.8 783.1 976.1 767.5 C979.1 764.2 983.7 759.2 986.2 756.5 C992.2 750.0 1045.9 685.1 1064.0 662.5 C1067.5 658.1 1073.1 651.3 1076.5 647.4 C1079.8 643.6 1085.4 636.6 1089.0 632.1 C1125.3 585.7 1171.3 534.1 1191.5 517.0 C1205.0 505.6 1219.5 497.0 1232.5 492.4 C1239.8 489.9 1254.1 489.4 1261.1 491.4 C1274.2 495.2 1286.2 505.6 1292.7 518.7 L1296.2 525.9 L1296.7 534.7 C1297.3 545.3 1295.7 552.5 1290.1 564.5 C1281.4 583.1 1268.3 598.1 1237.7 624.7 C1204.3 653.7 1196.5 660.5 1193.0 663.6 C1191.1 665.3 1183.9 671.6 1177.0 677.6 C1170.2 683.6 1161.4 691.5 1157.5 695.1 C1135.2 715.9 1060.4 778.6 1024.5 806.5 C1016.8 812.5 1006.5 820.6 1001.5 824.5 C979.5 841.9 960.7 855.5 928.5 877.2 C899.0 897.1 897.0 898.4 890.5 902.5 C870.5 915.3 866.0 917.6 866.0 915.0 Z M717.0 865.3 C713.3 863.9 712.0 861.7 712.0 856.6 C712.0 850.2 714.0 842.9 724.0 812.5 C739.7 764.6 743.3 750.5 753.0 700.5 C760.9 659.8 765.9 606.6 766.0 562.5 C766.1 533.2 769.3 520.7 779.0 511.6 C785.3 505.7 789.7 504.0 798.1 504.0 C812.4 504.0 821.8 512.9 826.4 530.7 C829.1 541.1 828.4 572.8 825.0 592.0 C824.5 595.0 823.3 601.8 822.5 607.0 C820.8 616.9 820.6 618.0 817.1 634.8 C814.9 644.8 807.7 673.9 800.5 701.5 C796.6 716.4 787.2 745.3 783.5 753.5 C782.3 756.2 779.4 762.9 777.1 768.4 C772.9 778.3 765.9 793.2 754.9 815.5 C736.4 853.1 724.9 868.1 717.0 865.3 Z M769.7 863.3 C765.9 859.1 767.8 854.0 788.8 811.0 C801.9 784.0 807.5 772.2 812.6 760.3 C815.0 754.7 819.4 744.9 822.4 738.6 C830.0 722.7 834.9 708.6 846.5 669.5 C849.6 659.0 853.4 646.2 855.0 641.0 C856.5 635.8 858.1 630.4 858.4 629.0 C858.8 627.6 860.1 622.5 861.4 617.5 C863.6 609.2 870.4 578.2 872.9 565.0 C873.8 560.3 876.2 543.9 881.1 507.5 C882.9 494.0 886.9 472.7 889.0 465.5 C893.6 449.3 903.8 435.1 914.5 430.0 L919.5 427.6 L928.0 427.6 L936.5 427.6 L941.5 430.0 C952.3 435.2 960.8 447.6 963.0 461.4 C965.0 474.1 961.0 495.1 948.9 535.5 C945.1 548.1 933.6 582.3 930.3 591.0 C928.9 594.6 926.9 600.0 925.7 603.0 C922.0 612.7 910.8 639.0 901.7 659.0 C900.4 662.0 898.0 667.4 896.4 671.0 C890.8 684.0 867.9 728.9 858.5 745.5 C845.2 768.8 837.0 782.0 812.4 819.0 C790.6 852.0 781.0 863.7 775.0 864.6 C772.3 865.1 771.1 864.7 769.7 863.3 Z M831.7 861.2 C830.7 860.2 830.0 858.5 830.0 857.4 C830.0 852.8 838.5 837.9 853.8 815.5 C859.1 807.8 866.7 796.5 870.7 790.5 C874.7 784.5 880.7 775.6 883.9 770.9 C887.2 766.2 895.3 753.4 902.1 742.4 C908.8 731.5 916.4 719.4 919.0 715.5 C923.4 709.0 938.0 684.4 938.0 683.5 C938.0 683.3 940.4 678.9 943.4 673.7 C951.9 659.0 958.7 646.3 963.6 636.0 C966.1 630.8 972.6 617.5 978.0 606.5 C983.4 595.5 991.5 578.2 996.0 568.0 C1015.8 523.2 1025.6 507.8 1038.6 501.4 L1044.1 498.7 L1050.8 499.2 C1066.2 500.3 1075.9 510.9 1076.8 527.7 L1077.2 536.0 L1074.5 544.7 C1073.0 549.6 1068.3 560.7 1064.0 569.5 C1056.1 585.8 1054.2 589.3 1045.3 603.5 C1008.6 662.1 983.1 700.3 961.2 729.5 C947.4 747.9 931.4 768.0 929.0 770.0 C928.7 770.3 920.4 779.5 910.5 790.5 C889.2 814.4 848.5 855.3 841.6 859.8 C835.9 863.5 834.0 863.7 831.7 861.2 Z M646.3 847.5 C641.6 844.2 641.6 837.8 646.4 799.5 C651.9 755.1 651.8 700.1 646.0 655.5 C643.7 637.8 643.0 633.0 641.0 622.0 C638.8 609.4 638.6 608.1 636.3 597.0 C633.9 585.2 633.3 582.4 630.0 567.0 C625.8 547.2 624.1 538.2 621.5 519.0 C617.8 492.6 621.5 477.4 635.1 463.7 C643.9 454.8 650.5 451.8 661.1 451.8 C669.8 451.8 674.7 453.1 680.7 457.1 C697.7 468.8 705.3 492.4 711.2 552.0 C712.9 568.9 712.9 640.2 711.2 658.0 C710.5 665.4 709.5 676.5 708.9 682.5 C707.3 700.9 705.6 712.4 701.4 734.0 C699.3 744.8 698.0 750.7 694.1 765.5 C687.9 788.7 671.1 827.7 661.8 840.2 C657.8 845.6 653.1 849.0 649.8 849.0 C649.1 849.0 647.5 848.3 646.3 847.5 Z M1430.9 825.1 C1427.1 821.2 1427.1 817.2 1430.9 813.1 C1434.8 809.0 1440.1 808.8 1444.2 812.7 C1445.7 814.2 1447.0 816.2 1447.0 817.2 C1447.0 822.3 1441.2 828.0 1436.0 828.0 C1434.8 828.0 1432.5 826.7 1430.9 825.1 Z M1498.7 798.9 C1488.7 797.8 1486.8 795.5 1491.8 790.8 C1503.9 779.3 1547.3 760.2 1579.9 752.0 C1589.5 749.5 1603.2 749.4 1608.6 751.6 C1614.6 754.1 1619.6 758.5 1621.9 763.5 C1625.8 771.7 1624.0 779.0 1616.5 786.5 C1609.6 793.4 1602.8 795.9 1583.6 798.5 C1571.6 800.1 1511.6 800.4 1498.7 798.9 Z M1463.1 620.4 C1438.2 615.0 1435.7 600.3 1455.6 577.6 C1461.9 570.4 1470.5 562.1 1479.5 554.8 C1490.8 545.5 1513.7 532.8 1527.0 528.4 L1535.5 525.5 L1546.0 525.5 L1556.5 525.5 L1562.8 528.9 C1570.5 533.1 1577.0 540.1 1581.1 548.7 L1584.2 555.2 L1584.2 563.4 C1584.3 576.5 1579.6 586.5 1568.2 597.1 C1554.1 610.2 1539.6 616.0 1509.0 620.5 C1496.9 622.3 1471.6 622.3 1463.1 620.4 Z M480.0 594.3 C474.7 593.3 463.0 586.9 457.7 582.1 C454.7 579.3 451.2 574.9 450.0 572.3 L447.8 567.6 L448.2 560.8 C448.6 553.0 450.5 549.7 456.4 546.7 C472.3 538.4 494.8 559.1 496.7 583.6 L497.3 590.7 L495.1 592.9 C493.4 594.6 491.9 595.0 487.8 594.9 C484.9 594.8 481.4 594.5 480.0 594.3 Z M563.1 505.6 C557.2 497.1 549.4 479.8 545.5 466.5 C544.3 462.5 543.7 457.0 543.6 450.0 L543.6 439.5 L545.7 435.5 C549.1 429.0 551.4 427.6 557.7 427.9 C560.7 428.0 566.5 434.0 569.0 439.5 C572.7 447.6 574.0 455.7 574.0 471.0 C573.9 479.0 573.3 489.8 572.6 495.0 C570.2 511.2 568.4 513.3 563.1 505.6 Z M1391.5 499.7 L1388.0 496.2 L1388.0 491.3 L1388.0 486.4 L1391.3 483.2 C1396.9 477.7 1403.5 477.7 1408.9 483.1 L1412.0 486.2 L1412.0 490.4 C1412.0 493.8 1411.3 495.5 1408.7 498.5 L1405.4 502.3 L1400.2 502.8 L1395.0 503.2 L1391.5 499.7 Z M1167.4 438.6 C1166.4 434.5 1167.8 427.7 1172.2 415.6 C1179.3 395.7 1184.3 383.7 1189.9 372.5 L1195.5 361.5 L1203.0 353.9 C1211.9 344.9 1216.4 342.5 1224.2 342.5 C1230.5 342.5 1233.9 344.4 1237.8 350.0 L1240.0 353.3 L1240.0 360.4 L1240.0 367.5 L1235.5 376.5 C1227.8 392.0 1210.4 412.2 1192.5 426.5 C1180.2 436.2 1174.6 439.9 1171.1 440.6 L1168.1 441.2 L1167.4 438.6 Z M1014.7 437.6 C1009.7 435.7 1006.9 433.1 1003.5 426.9 C999.5 419.5 998.1 412.0 998.1 398.5 C998.0 374.0 1005.7 353.0 1019.9 338.4 C1030.0 328.0 1038.5 324.0 1050.2 324.0 L1056.7 324.0 L1062.8 327.1 C1080.2 335.8 1086.9 356.3 1079.9 378.9 C1072.3 403.1 1054.3 426.4 1036.1 435.5 C1029.8 438.7 1020.1 439.6 1014.7 437.6 Z M797.3 429.8 C792.9 424.9 785.9 407.5 783.9 396.5 C782.1 386.2 780.0 367.3 780.0 361.0 C780.0 351.1 782.6 338.3 786.1 331.2 C789.6 324.0 797.7 315.3 803.5 312.5 C805.9 311.3 809.6 310.5 812.7 310.5 L817.8 310.5 L822.1 313.5 C827.9 317.6 832.6 324.0 834.5 330.2 C836.4 336.8 836.5 354.1 834.5 364.0 C829.8 388.3 817.3 417.3 806.6 428.8 C803.1 432.6 800.2 432.9 797.3 429.8 Z M1311.0 426.4 L1309.7 424.9 L1311.3 419.7 C1312.2 416.8 1316.1 408.2 1319.9 400.5 C1330.8 378.7 1334.6 372.2 1349.9 349.0 C1371.5 316.2 1387.9 303.9 1402.6 309.5 C1408.4 311.7 1412.4 315.1 1415.7 320.8 L1418.5 325.4 L1418.4 332.5 L1418.3 339.6 L1415.1 346.1 C1408.6 358.9 1396.9 371.7 1376.0 389.1 C1355.1 406.4 1341.8 415.7 1327.1 423.2 C1317.2 428.2 1313.1 429.0 1311.0 426.4 Z M1054.5 269.6 C1049.5 264.6 1050.5 257.4 1056.5 254.6 C1061.3 252.3 1063.8 252.6 1067.1 255.9 C1071.1 260.0 1071.1 264.8 1066.9 268.9 C1063.0 272.9 1058.0 273.1 1054.5 269.6 Z"/></svg>