<svg id="Layer_3" data-name="Layer 3" xmlns="http://www.w3.org/2000/svg" viewBox="0 0 161.46 210.14"><polygon points="156.43 205.7 150.41 198.54 150.41 118.52 156.43 113.11 156.43 0.98 155.29 0.98 149.96 5.58 109.26 5.58 100.05 0 6.2 0 6.2 16.1 11.17 18.54 11.17 85.3 6.2 87.43 6.2 206.71 156.43 206.71 156.43 205.7" style="fill:#82ffd8;opacity:0.35000000000000003"/><path d="M966.5,2210.29V2090.51l5-2.13V2022l-5-2.44V2003h94.24l9.21,5.58h40.5l5.34-4.61h1.55v112.57l-6,5.42v79.77l6,7.16v1.42Zm.61-119.38v118.77h149.62v-.58l-6-7.17v-80.26l6-5.42V2004.56H1116l-5.34,4.61h-40.9l-.07-.05-9.14-5.53H967.11v15.6l5,2.44v67.15Z" transform="translate(-960.61 -2002.23)" style="fill:#82ffd8"/><polygon points="156.63 2.03 159.43 10.26 159.43 42.78 161.46 49.28 161.46 94.81 156.58 106.39 156.63 2.03" style="fill:#82ffd8"/><polygon points="109.26 6.63 104.56 6.63 98.66 3.56 9.11 3.56 9.11 15.34 13.78 17.78 13.78 45.22 15.81 48.06 15.81 66.56 13.78 69 13.78 78.14 11.14 79.97 11.17 19.59 6.2 17.15 6.2 1.05 100.05 1.05 109.26 6.63" style="fill:#82ffd8"/><polygon points="150.18 175.08 147.24 178.54 147.24 202.32 142.36 205.16 127.52 205.16 123.25 204.15 104.96 204.15 100.69 207.8 156.43 207.76 156.43 206.76 150.41 199.59 150.18 175.08" style="fill:#82ffd8"/><polygon points="6.36 134.64 4.53 137.08 4.53 159.43 5.14 161.47 5.14 184.23 6.16 190.32 6.36 134.64" style="fill:#82ffd8"/><polygon points="156.58 136.91 156.58 130.92 151.91 134.86 151.91 140.85 156.58 136.91" style="fill:#82ffd8;opacity:0.6000000000000001"/><polygon points="156.58 144.49 156.58 138.51 151.91 142.45 151.91 148.44 156.58 144.49" style="fill:#82ffd8;opacity:0.4"/><polygon points="151.91 165.2 151.91 172.34 156.58 168.06 156.58 161.26 151.91 165.2" style="fill:#82ffd8;opacity:0.1"/><polygon points="151.91 127.28 151.91 133.27 156.58 129.33 156.58 123.34 151.91 127.28" style="fill:#82ffd8;opacity:0.8"/><polygon points="156.58 152.08 156.58 146.09 151.91 150.03 151.91 156.02 156.58 152.08" style="fill:#82ffd8;opacity:0.30000000000000004"/><polygon points="156.58 121.74 156.58 116.76 151.91 120.92 151.91 125.68 156.58 121.74" style="fill:#82ffd8"/><polygon points="156.58 159.66 156.58 153.67 151.91 157.61 151.91 163.6 156.58 159.66" style="fill:#82ffd8;opacity:0.2"/><polygon points="4.02 106.38 4.02 101.22 0 104.61 0 109.77 4.02 106.38" style="fill:#82ffd8;opacity:0.6000000000000001"/><polygon points="4.02 112.91 4.02 107.75 0 111.14 0 116.3 4.02 112.91" style="fill:#82ffd8;opacity:0.4"/><polygon points="0 130.73 0 136.88 4.02 133.19 4.02 127.33 0 130.73" style="fill:#82ffd8;opacity:0.1"/><polygon points="0 98.09 0 103.24 4.02 99.85 4.02 94.69 0 98.09" style="fill:#82ffd8;opacity:0.8"/><polygon points="4.02 119.43 4.02 114.28 0 117.67 0 122.83 4.02 119.43" style="fill:#82ffd8;opacity:0.30000000000000004"/><polygon points="4.02 93.32 4.02 89.03 0 92.61 0 96.71 4.02 93.32" style="fill:#82ffd8"/><polygon points="4.02 125.96 4.02 120.81 0 124.2 0 129.35 4.02 125.96" style="fill:#82ffd8;opacity:0.2"/><polygon points="133.88 4.98 138.3 4.98 135.39 1.53 130.98 1.53 133.88 4.98" style="fill:#82ffd8;opacity:0.6000000000000001"/><polygon points="128.29 4.98 132.71 4.98 129.8 1.53 125.39 1.53 128.29 4.98" style="fill:#82ffd8;opacity:0.4"/><polygon points="113.03 1.53 107.76 1.53 110.91 4.98 115.93 4.98 113.03 1.53" style="fill:#82ffd8;opacity:0.1"/><polygon points="140.99 1.53 136.57 1.53 139.47 4.98 143.89 4.98 140.99 1.53" style="fill:#82ffd8;opacity:0.8"/><polygon points="122.7 4.98 127.11 4.98 124.21 1.53 119.79 1.53 122.7 4.98" style="fill:#82ffd8;opacity:0.30000000000000004"/><polygon points="145.07 4.98 148.74 4.98 145.67 1.53 142.16 1.53 145.07 4.98" style="fill:#82ffd8"/><polygon points="117.11 4.98 121.52 4.98 118.62 1.53 114.2 1.53 117.11 4.98" style="fill:#82ffd8;opacity:0.2"/><path d="M972.41,2017v-8.74a.15.15,0,0,1,.15-.15h85.9l.08,0,3.86,2.23a.16.16,0,0,1-.16.27l-3.82-2.22H972.71v8.5l4.49,2.39a.16.16,0,0,1,.08.14v24.39a.15.15,0,0,1-.15.15.15.15,0,0,1-.15-.15v-24.3l-4.49-2.39A.16.16,0,0,1,972.41,2017Z" transform="translate(-960.61 -2002.23)" style="fill:#82ffd8"/><path d="M977.23,2045a1.12,1.12,0,1,1,1.12-1.12A1.12,1.12,0,0,1,977.23,2045Z" transform="translate(-960.61 -2002.23)" style="fill:#82ffd8"/><path d="M962.6,2188.08a1.12,1.12,0,1,1,1.12-1.12A1.12,1.12,0,0,1,962.6,2188.08Z" transform="translate(-960.61 -2002.23)" style="fill:#82ffd8"/><path d="M1107.44,2165.52a1.12,1.12,0,1,1,1.12-1.11A1.12,1.12,0,0,1,1107.44,2165.52Z" transform="translate(-960.61 -2002.23)" style="fill:#82ffd8"/><path d="M1107.29,2164.1v-43.29a.15.15,0,0,1,0-.11l6.87-6.66v-9.49a.15.15,0,0,1,.15-.15.15.15,0,0,1,.15.15v9.56a.12.12,0,0,1,0,.1l-6.86,6.67v43.22a.15.15,0,0,1-.15.15A.15.15,0,0,1,1107.29,2164.1Z" transform="translate(-960.61 -2002.23)" style="fill:#82ffd8"/><path d="M962.7,2187.27a.3.3,0,0,1,.21-.29.31.31,0,0,1,.39.19l1.42,4.06a.38.38,0,0,1,0,.1v20.43h95a.29.29,0,0,1,.3.3.3.3,0,0,1-.3.31H964.43a.3.3,0,0,1-.3-.31v-20.67l-1.41-4A.36.36,0,0,1,962.7,2187.27Z" transform="translate(-960.61 -2002.23)" style="fill:#82ffd8"/><path d="M1080,2011.88a.15.15,0,0,1,.15-.15h30.05l3.84-1.42a.16.16,0,0,1,.21.15v69.91a.16.16,0,0,1-.16.15.15.15,0,0,1-.15-.15v-69.69l-3.66,1.34H1080.1A.15.15,0,0,1,1080,2011.88Z" transform="translate(-960.61 -2002.23)" style="fill:#82ffd8"/><polygon points="156.63 2.03 159.43 10.26 159.43 42.78 161.46 49.28 161.46 94.81 156.58 106.39 156.63 2.03" style="fill:#82ffd8"/><polygon points="109.26 6.63 104.56 6.63 98.66 3.56 9.11 3.56 9.11 15.34 13.78 17.78 13.78 45.22 15.81 48.06 15.81 66.56 13.78 69 13.78 78.14 11.14 79.97 11.17 19.59 6.2 17.15 6.2 1.05 100.05 1.05 109.26 6.63" style="fill:#82ffd8"/><polygon points="150.18 175.08 147.24 178.54 147.24 202.32 142.36 205.16 127.52 205.16 123.25 204.15 104.96 204.15 100.69 207.8 156.43 207.76 156.43 206.76 150.41 199.59 150.18 175.08" style="fill:#82ffd8"/><polygon points="6.36 134.64 4.53 137.08 4.53 159.43 5.14 161.47 5.14 184.23 6.16 190.32 6.36 134.64" style="fill:#82ffd8"/><polygon points="156.58 136.91 156.58 130.92 151.91 134.86 151.91 140.85 156.58 136.91" style="fill:#82ffd8;opacity:0.6000000000000001"/><polygon points="156.58 144.49 156.58 138.51 151.91 142.45 151.91 148.44 156.58 144.49" style="fill:#82ffd8;opacity:0.4"/><polygon points="151.91 165.2 151.91 172.34 156.58 168.06 156.58 161.26 151.91 165.2" style="fill:#82ffd8;opacity:0.1"/><polygon points="151.91 127.28 151.91 133.27 156.58 129.33 156.58 123.34 151.91 127.28" style="fill:#82ffd8;opacity:0.8"/><polygon points="156.58 152.08 156.58 146.09 151.91 150.03 151.91 156.02 156.58 152.08" style="fill:#82ffd8;opacity:0.30000000000000004"/><polygon points="156.58 121.74 156.58 116.76 151.91 120.92 151.91 125.68 156.58 121.74" style="fill:#82ffd8"/><polygon points="156.58 159.66 156.58 153.67 151.91 157.61 151.91 163.6 156.58 159.66" style="fill:#82ffd8;opacity:0.2"/><polygon points="4.02 106.38 4.02 101.22 0 104.61 0 109.77 4.02 106.38" style="fill:#82ffd8;opacity:0.6000000000000001"/><polygon points="4.02 112.91 4.02 107.75 0 111.14 0 116.3 4.02 112.91" style="fill:#82ffd8;opacity:0.4"/><polygon points="0 130.73 0 136.88 4.02 133.19 4.02 127.33 0 130.73" style="fill:#82ffd8;opacity:0.1"/><polygon points="0 98.09 0 103.24 4.02 99.85 4.02 94.69 0 98.09" style="fill:#82ffd8;opacity:0.8"/><polygon points="4.02 119.43 4.02 114.28 0 117.67 0 122.83 4.02 119.43" style="fill:#82ffd8;opacity:0.30000000000000004"/><polygon points="4.02 93.32 4.02 89.03 0 92.61 0 96.71 4.02 93.32" style="fill:#82ffd8"/><polygon points="4.02 125.96 4.02 120.81 0 124.2 0 129.35 4.02 125.96" style="fill:#82ffd8;opacity:0.2"/><polygon points="133.88 4.98 138.3 4.98 135.39 1.53 130.98 1.53 133.88 4.98" style="fill:#82ffd8;opacity:0.6000000000000001"/><polygon points="128.29 4.98 132.71 4.98 129.8 1.53 125.39 1.53 128.29 4.98" style="fill:#82ffd8;opacity:0.4"/><polygon points="113.03 1.53 107.76 1.53 110.91 4.98 115.93 4.98 113.03 1.53" style="fill:#82ffd8;opacity:0.1"/><polygon points="140.99 1.53 136.57 1.53 139.47 4.98 143.89 4.98 140.99 1.53" style="fill:#82ffd8;opacity:0.8"/><polygon points="122.7 4.98 127.11 4.98 124.21 1.53 119.79 1.53 122.7 4.98" style="fill:#82ffd8;opacity:0.30000000000000004"/><polygon points="145.07 4.98 148.74 4.98 145.67 1.53 142.16 1.53 145.07 4.98" style="fill:#82ffd8"/><polygon points="117.11 4.98 121.52 4.98 118.62 1.53 114.2 1.53 117.11 4.98" style="fill:#82ffd8;opacity:0.2"/><path d="M977.23,2045a1.12,1.12,0,1,1,1.12-1.12A1.12,1.12,0,0,1,977.23,2045Z" transform="translate(-960.61 -2002.23)" style="fill:#82ffd8"/><path d="M962.6,2188.08a1.12,1.12,0,1,1,1.12-1.12A1.12,1.12,0,0,1,962.6,2188.08Z" transform="translate(-960.61 -2002.23)" style="fill:#82ffd8"/><path d="M1107.44,2165.52a1.12,1.12,0,1,1,1.12-1.11A1.12,1.12,0,0,1,1107.44,2165.52Z" transform="translate(-960.61 -2002.23)" style="fill:#82ffd8"/></svg>