<svg xmlns="http://www.w3.org/2000/svg" viewBox="0 0 64 64"><path fill="currentColor" fill-rule="evenodd" d="M18.5 62.57C18.16 62.13 18.01 61.66 18.08 61.27C18.15 60.93 18.03 60.3 17.82 59.86C17.34 58.86 17.51 58.12 18.49 56.88C18.91 56.36 19.25 55.72 19.25 55.45C19.25 54.57 20.36 53.75 21.58 53.75C25.08 53.75 25.49 51.16 22.24 49.54C21.15 49 20.74 48.61 20.2 47.62C19.68 46.65 19.23 46.21 18.15 45.63L16.78 44.88L16.08 45.4C15.69 45.69 14.7 46.89 13.88 48.06C11.32 51.72 10.44 52.37 9.03 51.64L8.25 51.24L7.47 51.64C6.09 52.36 4.75 51.44 4.75 49.76C4.75 47.22 7.07 45.02 9.76 45.01C11.43 45 11.9 44.54 12.62 42.17C12.96 41.04 13.44 39.84 13.68 39.5C14.03 38.99 14.1 38.44 14.04 36.49L13.96 34.1L14.89 31.25C16.37 26.66 16.88 22.92 16.13 22.17C15.68 21.72 14.53 21.93 12.06 22.94C9.72 23.89 7.92 23.85 5.85 22.81C0.1 19.89 0.3 12.44 6.21 9.68L7.79 8.93L9.34 9.06C12.52 9.31 15.02 11.37 16.06 14.57L16.62 16.34L18.12 17.49C19.14 18.27 19.83 19.05 20.25 19.88L20.88 21.12L20.85 23.62C20.82 25.68 20.64 26.82 19.79 30.07C18.12 36.5 18.16 37.28 20.2 38.43L21.18 38.98L21.98 38.39C22.42 38.06 23.09 37.67 23.45 37.51C24.15 37.21 25.02 36.04 25.63 34.57L25.99 33.71L25.6 32.96C25.3 32.37 25.27 32.04 25.48 31.44C25.7 30.81 25.66 30.54 25.25 29.87C24.97 29.43 24.75 28.65 24.75 28.15C24.75 27.64 24.45 26.65 24.08 25.93L23.4 24.62L23.45 22.75C23.5 20.45 23.59 19.55 23.85 18.79C23.96 18.46 24.08 17.95 24.11 17.65C24.14 17.35 24.47 16.8 24.83 16.44C25.2 16.07 25.5 15.61 25.5 15.41C25.5 15.21 25.95 14.57 26.5 14C28.68 11.73 28.76 6.5 26.61 6.5C25.94 6.5 24.76 5.76 23.29 4.42C22.51 3.71 20.92 2.62 19.77 2L17.66 0.88L20.77 0.81C23.3 0.75 24.15 0.83 25.34 1.22L26.81 1.7L27.59 1.38C28.63 0.95 30.22 1.22 32.04 2.13L33.46 2.83L35.04 2.26C35.91 1.95 37.19 1.48 37.88 1.23L39.12 0.77L45.62 0.78L52.12 0.8L50.25 1.29C49.22 1.56 47.19 2.35 45.75 3.04C42.44 4.62 41.45 4.92 37.6 5.49C35.88 5.74 34.42 6 34.34 6.07C34.27 6.14 34.04 7.03 33.84 8.04C33.63 9.05 33.07 10.74 32.6 11.8C31.68 13.85 31.49 15.05 31.97 15.94C32.13 16.24 32.19 16.77 32.1 17.12C31.84 18.15 32.17 18.87 33.11 19.32L33.98 19.73L34.37 19.35C34.59 19.12 34.75 18.52 34.75 17.9C34.75 14.05 37.76 9.59 41.6 7.76C43.89 6.67 44.9 6.84 45.58 8.47C45.97 9.39 46.84 15.05 47.15 18.58C47.39 21.46 47.89 21.82 51.13 21.45C53.99 21.13 57.63 21.35 59.86 21.97C62.52 22.72 62.93 23.68 61.22 25.21C60.66 25.71 59.42 27.04 58.47 28.16C56.58 30.39 54.63 31.61 51.21 32.73C49.3 33.36 49.04 33.73 49.75 34.87C50.03 35.33 50.19 35.86 50.11 36.06C49.93 36.55 47.57 38.07 47.28 37.9C47.16 37.82 46.76 38.04 46.39 38.38C45.62 39.1 45.7 39.08 44.92 38.73C43.65 38.15 41.94 39.55 42 41.12C42.01 41.4 42.02 41.91 42.04 42.25C42.05 42.59 41.98 43.16 41.87 43.5C41.62 44.31 41.64 45.17 41.93 46.25C42.07 46.76 42.07 47.34 41.94 47.63C41.5 48.64 43.42 51.9 45.28 53.3C47.36 54.87 49.2 59.77 48.61 62.17L48.38 63.12L46.18 63.2L43.99 63.27L42.88 62.14C41.55 60.79 41.33 60.1 41.72 58.43L42.01 57.18L41.55 56.4C41.31 55.98 40.39 55.16 39.53 54.59C38.66 54.02 37.54 53.16 37.04 52.68C36.54 52.2 35.88 51.68 35.58 51.53C34.96 51.21 34.38 49.72 34.59 48.95C34.74 48.36 33.94 46.61 33.44 46.44C32.84 46.23 31.96 46.85 31.44 47.86C31 48.72 30.91 49.41 30.86 52.3L30.79 55.73L30.24 56.72C29.88 57.35 29.34 57.86 28.72 58.14L27.76 58.57L26.64 58.25C24.87 57.76 23.75 58.39 23.75 59.9C23.75 62.36 19.88 64.33 18.5 62.57Z"/></svg>
