<svg xmlns="http://www.w3.org/2000/svg" viewBox="0 0 1920 520.53">
    <g id="Layer_2" data-name="Layer 2">
        <path id="figzy-outside-spinner"
            d="M517.81,932.31c8.52-1.53,18.42-1.1,29.85,2.39a78.47,78.47,0,0,1-25.1-14.52c7.23-4.37,16.36-7.49,27.9-8.47a78.53,78.53,0,0,1-28.94-4.22c4.94-7.06,12.22-13.72,22.72-19.29a78.2,78.2,0,0,1-31,7.63c2-8.67,6.42-17.88,14.35-27.39a70.84,70.84,0,0,1-24.09,18.13c-1.23-8.38-.64-18.05,2.7-29.17a71.08,71.08,0,0,1-14.77,25.87c-4.13-7.19-7.11-16.17-8.18-27.39a71.09,71.09,0,0,1-4.3,29.5c-6.69-5-13-12.11-18.46-22.1a71.67,71.67,0,0,1,7.45,25.6c-7.56-2.34-15.6-6.66-24-13.72a81.41,81.41,0,0,1,17,24.3c-8.24,1.11-17.85.42-29-3a81.38,81.38,0,0,1,24.54,15c-7.18,4-16.22,6.81-27.66,7.78a81.36,81.36,0,0,1,29.3,5.17c-5.05,6.65-12.37,13-22.76,18.52a81.25,81.25,0,0,1,29.55-6.78c-2.05,8.17-6.28,16.74-13.63,25.46a76,76,0,0,1,24-16.39c1.15,8.1.56,17.34-2.65,27.84a75.93,75.93,0,0,1,15-23.87c3.84,6.95,6.54,15.49,7.44,26a76,76,0,0,1,5.36-28.49c6.55,4.91,12.68,11.88,17.84,21.6a75.94,75.94,0,0,1-6.15-25.57,65,65,0,0,1,23.11,13A78.56,78.56,0,0,1,517.81,932.31Zm-9.57,17.07c-4.31-8.11-9.67-13.25-15.3-16.38a48,48,0,0,0-14.1,19.43c2.86-9.35,2.5-17.16.4-23.59-13.07-1.26-24.4,4.2-24.4,4.2,9-4.75,14.36-10.46,17.45-16.32a51.58,51.58,0,0,0-19.65-13.6c9.35,2.86,17,2.76,23.21,1,.76-10.77-3.65-20-4.85-22.35,4.54,8.34,10,13.58,15.76,16.73,9.41-7.45,13.06-18.56,13.65-20.51-3,9.87-2.58,18-.38,24.56,13.36,1.29,24.85-4.75,24.85-4.75-9.09,4.84-14.44,10.93-17.41,17.22a49.86,49.86,0,0,0,19.61,12.71c-9-2.76-16.53-2.55-22.75-.7A48.16,48.16,0,0,0,508.24,949.38Z"
            transform="translate(0 -559.47)" />
        <path id="figzy-inside-spinner"
            d="M508.63,906.43s-19.2,9.87-29.11-9.19c0,0,10.18,18-8.79,27.84,0,0,19.26-9.07,28.69,9.06C499.42,934.14,490.78,915.71,508.63,906.43Z"
            transform="translate(0 -559.47)" />
        <g id="figzy-body">
            <path
                d="M431.11,951.75s-2.33-.58-4.07-4.07c-.35-.69,0-.58,2.33-1.75,0,0-2.91-3.49-5.24-5.81-.73-.73,1.16,0,2.91.58,0,0-2.33-8.15-13.36-10.18-.37-.07-.55-.5-.82-.72-1.12-.9,2-.16,5.45,1A30.31,30.31,0,0,0,405.86,925c-.83-.19.24-1.16,1.4-1.16a37.25,37.25,0,0,1-7.56-2.33c-.56-.24,1.16,0,2.9-.58,0,0-4.65-2.33-7-2.4a7.78,7.78,0,0,1-.58-2.84c0-.21.58,0,1.75,2.33,0,0-.26-9-.87-9.9-3.48-.28-14.87-.05-17.91-1a40.78,40.78,0,0,1-6.5-2.54,36.61,36.61,0,0,1-3.2-2.36c-1-.84-5.68-4.7-6.55-5.7s-5.3-7.58-7-9.88c-.76-1.06-1.5-2.13-2.29-3.16.17,1.19.23,2.41.31,3.58.21,3.24.08,6.48.13,9.72,0,1.43,0,2.72.11,4.13a21.53,21.53,0,0,1-.34,5.64h0a5.07,5.07,0,0,1-.34.86c-.63,1.1.8,2.47-3.86,4.8-.71.36,3.95.9,1.9,1.7-3.48,1.38-7.17,3.66-7.72,4.7,0,0,4.28.41,3.34.68-1.1.33-6.63,1.68-9.15,5.14-.09.12,2.16-1.63,3.49,0,.73.9-7.13,4.06-7.57,7,0,.11,6.1-1.38,4.44-.48-2.45,1.34-6.19,2.28-10,6.26,0,0,6.57-1.48,4.44.76-2.76,2.88-7.8,3.13-9.77,6.29,0,0,2.14.13,2.71,1.33-1,2-1.49,4.21-6.78,3.88a38.1,38.1,0,0,1,4.09,3c1.58,3.06-2.68,2.12-2.68,2.12-.68,4.36,3.52,2.33,3.84,3.12.42,1-10.74,4-13.53,4.25a8.3,8.3,0,0,0-4.87,1.85,134.08,134.08,0,0,0-11,11.86c-3.85,4.76-7.82,11.06-11.45,16a11.39,11.39,0,0,1-2.28,2.51c-4.56,3.38-5.85,9.83-5.46,15.15.16,2.23,2.44,1.71,5.92,1.43,2.89-.23,2.25-4.14,2.05-4.85-.3-1,.27-1.21.78.16s.63,4.52,2,4.7a15.37,15.37,0,0,0,5.49,0c2.19-.31,2.66-.83,1.09-5.22-.08-.24-.11-.69.32-.15,1.25,1.57,1.56,5.48,2.51,5.48,0,0,3.74.19,4.15-1.06a20,20,0,0,0-.42-12,3.6,3.6,0,0,1,.34-2.78,124.43,124.43,0,0,1,7.59-10.84,110.13,110.13,0,0,1,8.58-8.57,5.12,5.12,0,0,1,2.53-.73c4.83-.75,9.7-1.33,14.5-2.21,2.79-.52,6.4-.73,8.6-2.19.95-.63-.26,1.7-.26,1.7a3.89,3.89,0,0,0,3.88-1.47c1.82.81.39,2.6.39,2.6,2.39-.24,6.67-5.87,8.6-6.45a4.85,4.85,0,0,0-1.57,4s7.67-6.59,8.74-9.44c.33-.87-1.78,5.43-1.78,5.43,3.89-1.62,9.45-9.32,9.9-10.21,3-5.8,4.49-5,7.21-9.25.58-1.47,4.63-9,5.49-11,.38-.87-.12,4.71-4.19,11.14.58,2.33,1.16,6.4,1.16,6.4.58-1.17,2.19-3.63,2.33-3.49,1.16,1.16,0,4.65,0,4.65,1.16-.58,2.91-2.62,2.91-2.33a17,17,0,0,0,1.16,4.66c0-2.91.74-2.43.87-2.06a26.14,26.14,0,0,0,2.62,3.8c0-1.74.19-2.25.34-1.93a5,5,0,0,0,4.31,3.1c-1.16-1.75.53-1,1.17-1.17,0,0,1.17-.51,1.34-.63,1.81-1.29,5.85-3.44,5.1-2.86-1.41,1.1-3.27,2.74-5.33,4.08-2.36,2-8,6.9-9.45,8.39a5,5,0,0,0-1,6.38c1.47,2.8,3,5.58,4.4,8.38,2.85,5.54,7.09,12.72,9.61,18.39s5.28,9.13,11.55,9.08c2.46,0,5.05-1.39,7.35-.55,3.57,1.3,8.69,1,9.33-.23,3.29-6.11-3.58-8.16-3.29-8.15,5.33.16,5.12,6.88,5.49,6.27.94-1.57,1.72-6.9-4.07-11.51-2.42-1.92-5.17-.22-7.66-1-.79-.24-1.82-.31-2.31-.85q-6.72-7.53-13.26-15.22c-1.22-1.44-2.16-3.12-3.41-4.94,2.06-1,3.87-2,5.7-2.85,4.38-2.15,11.68-2.2,18.89-5.65,7.37-3.52,7-8.84,5.11-13.3C427.74,951.91,430,952.91,431.11,951.75Z"
                transform="translate(0 -559.47)" />
            <path
                d="M443.7,864.16a9.08,9.08,0,0,0-3.42,3.32c-1,1.82-1.85,3.31-1.85,3.31a20.53,20.53,0,0,1,1.79-4.56c.54-.93,1.79-1.58,3.16-3.54,1.05-1.49-.49-1.76-1.37-1.12a23.67,23.67,0,0,0-3.67,3.63,29,29,0,0,0-2.34,5,.2.2,0,0,1-.34.07c1.25-3.44,1-4,3.65-7.1,1.94-2.26-.18-2.87-1.34-1.74a14,14,0,0,0-2.77,3c-.69,1.07-2.78,6.48-3.11,6.62-1,.43-.75-1.28-.75-1.28.26-.81,2-3.84-.18-3.53-2.44,2.1-2.41,4.89-1.8,8.23.49,2.65,1,4.31,1.48,4.63a3.48,3.48,0,0,0,2.89.32c2.23-.6,3.78.2,5.16-1.51,1.57-2,.95-4.32,1.4-5.71a12.49,12.49,0,0,1,1.3-3.53,9.74,9.74,0,0,1,2.44-3.26A.68.68,0,0,0,443.7,864.16Z"
                transform="translate(0 -559.47)" />
            <path d="M401.78,895.25l0-.31A2.67,2.67,0,0,0,401.78,895.25Z" transform="translate(0 -559.47)" />
            <path
                d="M346.64,872a.29.29,0,0,0,.56,0c.86-2.67.24,2.69,1.89,4.34.55.55,0-2.21,1.11-1.1.12.12,1.46,4.82,1.63,5.44a.37.37,0,0,0,.07.12c8.43,9.08,14.59,24.09,29.64,25.34h0c2.22,1,29.77,2.15,31.78-1.46l.05,0c2-2.82,5.74-12,3.38-11.8-2.2.12-1.57,5.4-3.79,5.28h0a1.51,1.51,0,0,1-.22-.32v0c-2.3-5.1,4.29-15.08,1-13.28-1.63,1.26-3.22,5.5-3.89,8-.1.38-.06.26,0-.12.34-2.26.84-6.48,1.39-7.79.49-1.75-.8-2.52-1.71-1-1.56,2.55-1.89,5-2.46,6.24-.66,2.45-1.14,5.19-1.23,4.93.12-1.73-.61-2,.5-5.27s-1-3.64-2-1.42c-1.81,2.65-1.75,10.78-1.83,10.83s-13.74-2.83-17.15-3.55h0c-.88-.17-1.62-.34-2-.42a.23.23,0,0,1-.18-.13c-2-3.66-8.12-12.49-13.91-17.11a.29.29,0,0,1,.31-.48c6.95,3.59,10.62,9,14.2,14.85a.28.28,0,0,0,.17.13c3.27.86,11.34,2.24,14.52,3.2a.29.29,0,0,0,.35-.19,104.79,104.79,0,0,0,2.57-13.93c.06-.45,0,.55,1.1.55a19.25,19.25,0,0,1-.55-3.31c0-.36.55.55,1.65,0a12.39,12.39,0,0,1-1.65-2.75c0-.28,1.65,0,2.21-.55,0,0-2.21-2.21-2.18-3.56,0-.21.33-.53.36-.32.16,1.12,2.92,1.67,2.92,1.67-.55-.55-.51-1.38-.34-1.24a3.37,3.37,0,0,0,3.09.69c-1.1-.55-.91-1.09-.55-1.1,2-.05,4.21.14,7.82-.18.88-.07,1.08.29,1.52.64,3.3,3.3,7.05,3.18,12,5.72-.11-.34-.2-.68-.28-1-.62-2.55-1.22-5.28-.32-7.82a.28.28,0,0,0,0-.28c-6.4-8.11-7.68-6.6-14.3-8.3a5.18,5.18,0,0,0-4.46-.34,2.05,2.05,0,0,0-.71.35c-.14.11-.33.41-.49.49l-.24.11a.67.67,0,0,0-.31.26c-.25.14-.49.29-.74.45a14.56,14.56,0,0,1-4.12,1.9,57.91,57.91,0,0,1-9.47,1.24,39.63,39.63,0,0,1-10.09.11,28.38,28.38,0,0,0-3.62-.66.78.78,0,0,0-.62-.23,13,13,0,0,1-4.35-.32,5.77,5.77,0,0,1-2.12-1.12,3.48,3.48,0,0,0-1-.78c-.5-.19-1.05,0-1.55-.21s-1.05-.87-1.58-1.29c-1.19-.95-2.63-1.53-3.84-2.47a.91.91,0,0,0-1-.13,1.15,1.15,0,0,1-.28.08.78.78,0,0,0-.27,0h-.17a11,11,0,0,1-3.69-1.95,22.67,22.67,0,0,0-2.16-1.5l-.21-.21a1.28,1.28,0,0,0-1.73-.26,5.13,5.13,0,0,0-1.59,1.16,1.74,1.74,0,0,0-.37.4,20.36,20.36,0,0,0-3.25,4.61.29.29,0,0,0,.33.4c3.14-.8,1,.88.05,1.46a6.41,6.41,0,0,0-3.23,4.13.29.29,0,0,0,.43.3c2.08-1.24,1-.48.87.07C348,867.16,346.26,869.25,346.64,872Z"
                transform="translate(0 -559.47)" />
            <path
                d="M448,787.82a.32.32,0,0,1,.24-.57c4.26,1-4.55-4.16-10.65-5.11.67-.38,4.24,1,3.42-.24-2.92-1.76-14.53-2.85-9.63-3.37,1.45-1.61-9-2-9.7-2.12.24-.26.47-.52.68-.79l.33-.06-.19-.13c.09-.11.17-.23.25-.35-2.61,1.2-10.88,2.27-16.51,1.12.07-.11.14-.25,0-.36a20.11,20.11,0,0,1-2.48-5c7.68-12.49,30.48-11.29,21.21-31-3.16-3.32,2.58,11.56-6.22,14.89-2.63,1.19-13.5,7.29-13.44,5.87.16-3.81-2.27-12.51,1.42-15.41,1.58-.68.67-2.17-.8-1.55C396.76,749,405.91,767,395.49,769c-.62-.79-4.09,3.41-2.81-.94a.32.32,0,0,0-.44-.39c-1.63.87-1.14,4.51-3.53,4.26-1.31-.14-4.68-1.58-3.82-5.1.35-1.44-4,6.21-5.38,6s-2.53-6-2.8-7.38c-.59-3.08-1.11,6-1.38,5.55-.91,2.46-4.21-6-5.09-.58a.31.31,0,0,1-.58.11,12.3,12.3,0,0,0-3.27-3.35.32.32,0,0,0-.43.44c1.3,1.72,1.47,4.07-.53,3a2,2,0,0,1,.24,1,7.4,7.4,0,0,0-2.54-.6c-.17.22-.35.44-.53.65-1.85-2.83-3.14-5.94-6.53-5.11a16.22,16.22,0,0,1-4.16-7.52c-.19-2,1-18.59-5.61-21.52-1.89-1-3,.54-1,1.58,4.33,3.91,1.22,13.06,1.32,17.28,0,1.59-13.72-6.8-17.24-8.6-7.5-3.83-7.93-11.39-6.56-18.38a1,1,0,0,0-1.72-.55c-14.25,21.37,18.32,24.18,28.25,40.32-.2.9-1.63,2.47-2.47,4-.51.13-1,.23-1.55.34h0c-10.85,2.14-22.28.09-33,3-2.65.35-5.19.85-4.56,1.76,5.35,1.54-21.4,3.33-13.11,5.15.29.06.33.5,0,.55-3.17.52-9.9,6.27-10.61,9a.29.29,0,0,0,.44.32c12.91-8.94-7.1,6.23-1.89,8.85,2,0,1.55-.48,4.28-2.27a.29.29,0,0,1,.42.36c-1.85,4.24-1.91,7,3.43,3.42,3.39,2,.81,17.74,5.91,7.61,4.92.68,1.6,11,3.64,7.88,5.54-3.62,5.31,1.77,4.67,5.19a.3.3,0,0,0,.3.34c2.18-.1,5-.78,5.06-3a.29.29,0,0,1,.31-.28c4.45.56,1.71,4.67.82,6.33a.29.29,0,0,0,.33.41c5.55-1.3,4.91-3.17,5.71-2.92,5.83,2,1,3.78,2.18,4.32,4.93,1.26,7.53-2.08,8.33-1,1.43,2-2.39,2.75-1,3.15,3.33.47,4.63-.45,6.59-2.21.62-.11,1.34.29,2,.14.9.38-.09,1.78-.2,2.34.18,1.65,3.5-2.18,4.2-3.06a.34.34,0,0,1,.19,0c0,.19,1.49-.61,3.93,4,.6,1.13,2.12,5,3,5.71.28.22-1.82.43-1.56.67,1.28,1.33,4.75,3.23,4.71,4.48,0,.58-1.56-.5-1.71,0,.32.57,4.28,2.56,4.58,2.58-.21.38-1.44.29-1.15.86.06.32,5.73,2.58,7.16,4,.19.11-2.77-.71-2.58-.58,1.13,2.15,4.71,5.1,6.75,5.47a3.77,3.77,0,0,0,1,0,2.62,2.62,0,0,1,1.75.56,36.19,36.19,0,0,1,3,2.21,6.47,6.47,0,0,0,2.24,1.27c1,.26,2,.05,2.81.68a12.27,12.27,0,0,0,1.79,1.42,4.33,4.33,0,0,0,2.66.26,11.11,11.11,0,0,1,3.7.51,25.38,25.38,0,0,0,3.78.4,62.1,62.1,0,0,0,14.28-1c3.4-.66,7.28-2,9-5.1,1.75-.06,2.32-2.55,2.71-4.07,1.53-.61.63-2,0-3.26-.29-1,2,.08,1.8-.86-.76-4.06-2.88-1.51.61-3.46.28-.33-.39-1.24-.91-2.34.7.1,1.7,0,2.09-.64s.07-1.14-.17-1.69c.64.08.36-.47,1.62-1.45.67-.62-1.15-2.13-.57-3.62.22-.63.72,1.8,1.44-.57.09-.78-1.29-3.23.13-3.56.28.12,1.61.26,1.43-.29.1-.11-3-5.42-1.53-5.25.12.16,7.76,2.06,8.11.39-3.54-8,5.8,1.82,7.45-1.44-.54-.66-1.31-.39-.84-2.23.28-2.37,5.54,1.43,5.7-.34-.52-1.15-.9-3.11,1.79-4.43.77-.29.75.8,1.65,1.56,1.43,1.47-.84-6.8,2.69-4.33,1.89,0-.39-2.65,1.65-6.32a.32.32,0,0,1,.55,0c0,.17,1.91,1.29,2.24-.15-.46-1.58-1.19-3.72.26-5.5a.31.31,0,0,1,.53.13c.34,1.14.79,1.3.95,1a38.06,38.06,0,0,0,.44-6.42c.66-1.4,1.56-.21,1.69.27a.31.31,0,0,0,.6,0c.74-3.63-3.91-8.74.48-3.68C455.9,795.1,450.12,788.92,448,787.82ZM336.2,791.57c-2.93,2.65-1.64,5.71-5.23,3.7-.27-.13,0,2.55,1.87,3.47.62.31-3,1.51-3.36,3.27-.24.92,4.73-.69,4,1.42-.46,1.1-1.53,3.57-3.57,2.55-.63-.35-.51,1.32,2.07,3.69,1.74,1.6,2,4,2,5.64-.28,1.27-2.42-2.75-3.07-2.88-1.61-1.54-3.4,1.7-3.65.54.06-1.42,1.47-3,1.1-2.91-.88.31-5.58-.19-4.38-1.1,1.73-.23,2.58-.89,2.34-.94-1.31-.21-12.43-4.23-10.58-4.88,2.16.22,3.52.05,2.93-.22a33.55,33.55,0,0,1-6.41-3.82c-.83-1,2.91-.36,3.52-.65,1.53-.27-2.86-1.44-1.48-1.92,1.76-.15,5.57,1.34,6.83,1.07.7-.15-2.47-3.26-1.95-2.84,2.55,2,7.46,1.46,8.58,1.11.92-.29-2.54-1.56-2.46-1.62,3.41-1.28,4.81,1.59,7.68-.79.39-.22,0-.7-.26-1C332.34,791.48,337.16,790.49,336.2,791.57Zm39.67,30.73c10.66-3.62.87-22-9.8-17.77-8.43,2.42-11.21,10.8-4.83,15.58-18.72-12.56,16.59-31.63,20.79-7C383.68,818.37,380.08,821.13,375.87,822.3Zm6.93-35.22a23.29,23.29,0,0,0-7.26-4.38c-2.77-.72,2.82-.29,4.4.55a18.1,18.1,0,0,1,2.21,1.1c.27.18.67-5.4.15-7.6,1.5,1.12,1.9,7.24,2.05,7,2.44-3,4.45-2.75,6.06-2.75.61,0-3.69,1.64-5.48,5.57A1.56,1.56,0,0,1,382.8,787.08Zm17.83,48.37c-.13,1.48-2.09,3.93-3.09,2.43l.21-.44c.48,0,.95-.59,1-1.17.2-1.69-1.7-1.25-1.76.14,0,.41-.24,1.9.7,2.35a.28.28,0,0,1,.11.4c-.46,1-2,1.16-2.61,1.89.1,1,1,5.49.11,6.61-.27.36,2.92.91,4.8-.71.39,1.16-2.69,2.41-5.92,1.24-2.12,1.27-6.3,1.14-9.11-.6-.2-.92,5.39,1.74,8.77-.21,1.08-1.36.26-5.1.38-6.3-.82.06-2.71-.48-2.32-1.43,1.37-.8,1.18-2.44,1.18-2.94a1.18,1.18,0,1,0-2.34.19,1.26,1.26,0,0,0,1.38,1.13l.27.44c-1.36,2-4.39,0-4.64-2.25C386,829.48,401.77,828,400.63,835.45Zm12.29-18.93a15.56,15.56,0,0,1-6,4c12.8-5.33,4.78-19.79-6.93-16.25-7.31,3.35-11.24,15.89-2.25,17.38-13.14-1.09-4.9-20.42,4.69-20.92C410.64,799.83,419.63,809,412.92,816.52ZM434.69,796a32.28,32.28,0,0,0-7.92,5.47c-.23.22,1.71.08,2.76.31a.32.32,0,0,1,.11.56c-1.4,1-5.69,4.2-6.72,5.74,0-.59.6-.52.55-1.1-.3-.44,3.36-7.05,1.32-6.79-.63.7-2,2-2.37.78,1.19-4.75,4.48-3.82-1.16-3.91-.07-.61-.55-1.41.11-1.56.41.23,7.07-1.86,6.64.18-.64.42-1.76,1.21-1.38,1.25a18,18,0,0,0,8.09-.94Z"
                transform="translate(0 -559.47)" />
        </g>
    </g>
    <g id="Layer_3" data-name="Layer 3">
        <path id="voltish-bolt-3"
            d="M1696.45,656.77c-.09-.51-16.86-5.29-17-5.93-1.6-8.46-5.82-27.52-5.35-27.59,1-.15,2.34-.22,2.81-1,3.3-5.3,6.4-10.77,9.57-16.18l-.65-.56c-2.15,3.54-4.58,6.89-6.38,10.66-2.27,4.76-5.15,5.84-9.33,6-5.92.18-12,.12-17.74,2.42.84-10.86,1.68-20.56,2.28-30.29.2-3.31,1.17-4.77,3.46-5.58,10.22-3.59,20.25-7.84,29.33-15a1.88,1.88,0,0,1,.18-.12,1.74,1.74,0,0,0,.11-.18l.07-.13.05-.09c.08-.17.15-.45.06-.1a1.94,1.94,0,0,1,.42-.82c.12-.36.24-.73.35-1.1.36-1.22.68-2.44,1-3.65a48.31,48.31,0,0,1-3.81,3.77c-8.89,7.81-19.27,11.62-29.54,15.46-2.34.87-3.17,2.39-3.29,5.68-.34,9-.9,18-1.58,27a28.65,28.65,0,0,1-1.7,6.34,22.79,22.79,0,0,0-3.51,2.34c-5.15,4.16-10.28,6.35-16.1,5-.22,0-.46,0-.68,0-2-.44-3.38.54-4.62,2.71-2.55,4.5-5.24,8.87-8,13.18-.63,1-2,2.29-2.64,2.08-5.55-1.78-11.49-2.86-16.4-6.09-8.21-5.41-15.74-12.26-23.87-18.75-2.73,5.94-5.61,11.53-7.92,17.44-1.57,4-3.22,4.47-6,2.77-5.64-3.44-11.27-5.52-17.85-.84-3.77,2.68-5,1.6-6.78-2.3,4.41-7.67,8.52-14.92,12.73-22.08a8.46,8.46,0,0,1,2.87-3c6.84-3.89,13.69-7.74,20.63-11.3a4.79,4.79,0,0,1,4.33.38c4.41,2.79,8.61,6,13,8.91.84.56,2.3,1.08,3,.55,4.06-3.2,8-6.71,11.94-10.12-3.8,1.83-7.14,4.64-10.67,7a4.33,4.33,0,0,1-4.18.15c-4.37-2.84-8.49-6.24-12.85-9.11a4.85,4.85,0,0,0-4.33-.45c-7,3.2-13.95,6.83-21,10.12a12.75,12.75,0,0,0-6.38,6.89c-3.18,7.16-7.39,13.24-12.68,17.45-2-1-3.93-3.2-5.35-2.65-5.12,2-13.63,8.34-18.86,11,.52,1.92,2.8,5.72,3.32,7.61,2.2-1.16,5.94-7.64,7.64-9,5.85-4.73,10.55-3.66,14.46,2.61,2.78,4.45,6.2,5.45,10.46,2.11a17.07,17.07,0,0,1,3.59-1.61c.06,9.6,1,18.38,5.22,25.67,1.22,2.11,2.63,4.44,4.44,5.55a22.63,22.63,0,0,1,10,11.77,59.53,59.53,0,0,0,3.27,6.36c-2.43-7.37-4-15.49-10.67-19a8.69,8.69,0,0,1-3.85-3.65,45.7,45.7,0,0,1-4-27.84c2.58,1.07,5.07,2.07,7.53,3.15,6,2.65,6,2.66,10.13-4.39,2.06,8.83,3.85,17,6,25.11.46,1.76,1.94,3.75,3.34,4.23a31,31,0,0,1,14,9.51c3.16,3.69,6.65,6.94,10.2,10.59l10.85-16.18a46,46,0,0,1,2.21,4.84c2,6.45,5.37,10.54,11.48,10.49a17,17,0,0,1,6.26,1.29c1.88.74,30,3.43,31.4,2.69,1-.51-10.85-1.62-17.19-3,0,0-6.21-.51-6.25-.44-6.51.53-5.7.14-9.35-.88a50,50,0,0,0-7.53-1.9c-3.15-.37-4.88-2.38-6.11-5.78s-3-6.76-4.66-10.53l-11.16,16.14c-.75-.73-1.19-1.13-1.6-1.56-6.76-6.93-12.39-15.79-21.73-18.34-.83-.23-1.52-2.15-1.82-3.48-1.8-8-3.2-16.07-5.25-23.89-1.41-5.38.8-9,3.25-13.2,2.34,1.83,4.48,3.45,6.58,5.14,9.55,7.69,18.91,15.77,31.08,17,2.37.24,3.85.14,5.41-2.68,4.48-8.05,4.42-7.38,11.55-4.57,8.74,3.44,15.2,9.63,18.51,20.13,1.24,3.92,17.49,20.51,20,22.38,1,.73-10.61-12.16-9.54-11.58,0,0-3.74-3.8-4.9-5.3-.57-.73,1.26-.73,1.26-.73s21.19,9.67,21.2,9.66c-1.32-1-18.45-10.24-19.67-11.37-4.58-4.28-9-8.67-12.28-14.58a19.66,19.66,0,0,0-5.92-6.53c-4.36-3.05-9-5.47-14.35-8.62,1.9-1.89,3.33-4.42,4.59-4.39,2.36.06,4.75.12,7.11.29a26,26,0,0,0,2.75-.76,17.64,17.64,0,0,0,3.95-2.06c4.62-3.59,8.51-7.14,13.59-7.63,4.85-.47,9.7-1.26,14.56-2,.52-.09,6.19,28.89,6.71,28.81.07,0,11.49,4.71,16.32,5.29.79.09,5,19.16,6.14,20.73C1700.59,679.47,1696.5,657.06,1696.45,656.77Z"
            transform="translate(0 -559.47)" />
        <path id="voltish-bolt-1"
            d="M1436.83,662c-6.55-.9-11.41-5.46-15.84-11.31-1-1.26-2.89-2.58-4-2.41a118.11,118.11,0,0,0-15.6,3.31c-2.75.81-6.89-2-8.95-7.19-1.37-3.44-2.1-7.2-3.8-10.42-3-5.71-6.52-11.12-9.66-16.39l11.64-13.22c-8.91-7.65-13.2-17.25-17.18-27.34-1.88-4.78-5.51-8.89-8.83-13l11.86,24.11c-10.84,0-20.44,0-27.37-12.53,4.07,8.71,10.14,13.41,17.39,14,8.56.73,13.2,4.14,19.69,14.89-2.15,2.33-4.16,5.17-6.73,7.09s-5.53,2.75-8.77,4.26a30.71,30.71,0,0,0,3.16,3.61c7.07,5.56,10.33,13.55,13,22.25,1.53,4.92,4.26,9.53,6.64,14.69-3.84,5.74-10.23,7.48-16.82,3.28-4.52-2.88-8.19-8.71-11.57-13.79-6-9.07-11.58-18.57-17.76-28.61l-8.78,12.53c-.09-.06-3.29,2.74-3.27,2.76l-.36,1.23a66.22,66.22,0,0,1-8.46-2c-3.19-1.18-5-.22-6,3a3.89,3.89,0,0,1-.66,1.3c-2.55,3-1.88,10.45-8.23,8.19-4.16-1.48-8.65-2.77-12.22-5.64-4-3.24-7.39-5-11.49-2.83a12.44,12.44,0,0,1-3.12,1c.08.14.14.29.21.43,0,.3-.08.6-.11.91l-2.92-1.38a15.92,15.92,0,0,1-2.7.17c-.83,0,.52,3.13-.31,3,1.13.56-7.89,10.24-6.75,10.81,1,.48,9.91-11.41,10.89-10.93l5,2.5c.08-1.16.12-2.3.16-3.41a19.89,19.89,0,0,1,2-.41c1.81-.28,4.58,0,5.81,1.38,5.7,6.42,12.43,6.95,19,8.42,1,.22,2.14-.62,3-1.34a5.64,5.64,0,0,0,1.33-2.56c2.34-7.66,6.64-10.42,14.28-7,1.72.77,4.54-.71,6-2.23,2.74-2.81,4.86-6.42,7.78-10.44l13.49,21.58c-.72,1-.88,1.47-1.09,1.47-7.67,0-12.14,4.55-16.1,11.37-1.42,2.43-8,2.59-11.23.75-7.78-4.39-11.4-1.92-15.34,4.92-4.2,7.29-13.26,17.43-15.64,19.14-1,.72-13-7.7-13-7.7s-10.87-7.57-16.55-8.24c.64.16,2.22,2.43,2.85,2.56,1.79.37,5.18,2.77,6.8,3.57,1.35.11,2.86,2.3,4.75,3.32a16.42,16.42,0,0,1,2.61,1.73l.15.07a.86.86,0,0,1,.38.4,8.16,8.16,0,0,1,.71.73c.49.19.74.33.68.4s9.66,6.13,10.45,6.29c1.4.29,2.13-1.68,3-2.74,6.17-7.41,12.24-14.94,18.51-22.23.78-.9,2.53-.92,3.87-.83,1,.06,2.07,1,3.11,1.5,9.63,4.78,14.9,3.47,20.17-5,4-6.44,13.21-6.73,17.87.36,5.27,8,12,8.36,18.69,9.75,1.34.28,2.85-.74,4.07-1.54,4.53-3,8.75-6.57,13.54-9a27.83,27.83,0,0,1,11.21-2.4c3.48-.13,4.92,3.19,3.13,6.59-3.34,6.37-7.39,11.71-13.18,15.14.19.41.38.82.56,1.23a20.4,20.4,0,0,1,2,4.8,9.11,9.11,0,0,1,2.17-3.08c4-4,8.23-7.72,12-12,1.71-1.92,2.9-3,5.73-1.6s6.06,2,9.53,3c.24-2.39,5.86-4.18,6-6C1443,662.72,1437.18,662,1436.83,662Z"
            transform="translate(0 -559.47)" />
        <path id="voltish-bolt-2"
            d="M1489.27,576.89,1469.74,573l2.86-9-5.68,10.12,20.85,4.48-1.46,8.36-2.08,9.47-7,20-5.65-7.2-7-11.74-13.76-4.2-2.16-15.87a11.84,11.84,0,0,1-1.75-.55,1.3,1.3,0,0,1-.49-.36L1432.3,573l-4.6-.3,19,5.32,1.37,13.73-11.34-3,14.77,6.67,12,4.82,5.57,10.68,6,9.58-2.88,11.95,5,1.46,4.57-20.57,5.86-15.09,2.33-17.21Z"
            transform="translate(0 -559.47)" style="stroke:#000;stroke-miterlimit:10" />
        <path id="voltish-body"
            d="M1635.19,846.08c19.77-7.14,38.18,1.77,56.4,13.9-6.09-17.14-19.42-29.81-30.89-41.37,3.19-1.71,7.34,2.36,11-.39-4.28-3.22-8-7.14-12.71-8.92-30.19-20.56-49.63-.89-59.59,1.22h0a4.79,4.79,0,0,1-.78-.4,8.19,8.19,0,0,1-3.61-5,.58.58,0,0,0-1.08-.23,34,34,0,0,1-6.65,9.47c-.57.43-1.15.86-1.73,1.26a17.31,17.31,0,0,0-2.44,2c-.24.24-.47.5-.7.76-13,8.2-26.47,24.31-31.33,42.4-.22-.43-.45-.86-.71-1.28a21.44,21.44,0,0,0-3.52-4,.52.52,0,0,0-.19-.17c-.61-.56-1.24-1.11-1.87-1.65a.48.48,0,0,0-.83.37.5.5,0,0,0,0,.52,16.49,16.49,0,0,1,1.62,6.21,15.37,15.37,0,0,1-.53,3.54.38.38,0,0,0-.28.31c-.09.42-.21.83-.32,1.25a29.69,29.69,0,0,0-1.85,3.8c-.53.86-1.09,1.69-1.67,2.52-.43.52-.86,1.05-1.3,1.56a.45.45,0,0,0-.08.39c-.65.9-1.28,1.8-1.87,2.73a.6.6,0,0,0,0,.57,43.79,43.79,0,0,0-3.4,4.79c-.29.5-.6,1.08-.91,1.71a42.25,42.25,0,0,1,.5-4.22.61.61,0,0,0-.45-.65.53.53,0,0,0-.72.08,20.93,20.93,0,0,0-2.07,3.47,20.41,20.41,0,0,0-3,6.55c-.63,2.51-1,5.13-1.49,7.72-.07.42-.13.85-.19,1.27l-.21-.2c-10.45-6.52-19.8-14.82-31.34-19.54-2.62-1.07-4.17-3.51-5.27-6.06-2-4.57-4-9.13-6.09-13.65a2.84,2.84,0,0,0,.93.17,1.23,1.23,0,0,0,.84-2.09l-3.64-3.25-.47-.39-.22-.24a.86.86,0,0,0-.29-.21l-.2-.41a10,10,0,0,0,1.41.44,1.24,1.24,0,0,0,1.36-1.81c-.35-.71-1-1-1.61-1.44a12.73,12.73,0,0,1-1.82-2.12c-.58-.71-1.27-1.44-1.84-2.23a1,1,0,0,0-.18-.3l-.14-.18a5.86,5.86,0,0,1-.3-.55l.22.11a1.24,1.24,0,0,0,1.57-.34,1.2,1.2,0,0,0-.12-1.6c-1.87-1.48-3.81-2.92-5.6-4.5-.4-.36-.79-.73-1.16-1.12a1.18,1.18,0,0,0,.89-1.15c0-2.06-1.74-3.23-3.39-4.09-.39-.21-.77-.43-1.14-.65l.78.23a1.22,1.22,0,0,0,.91-2.24,14.72,14.72,0,0,1-4.86-4.43c-.48-.63-.92-1.29-1.36-1.94a5.5,5.5,0,0,1,.41-3.06l.45-.31a11.89,11.89,0,0,1,6-1.48c1.33,0,1.68-2.13.29-2.4a10.54,10.54,0,0,0-2.56-.17l1.43-1c1.39-.22,2.84-.26,4.22-.36.94-.06,1.88-.14,2.82-.15a4.64,4.64,0,0,1,1.05.07c.31.17.61.35.91.53a1.53,1.53,0,0,0,1.82-2.42,4.15,4.15,0,0,0-1.28-.8,26.26,26.26,0,0,0-3.69-1.71,26.13,26.13,0,0,1,2.89-1c3.09-.85,6.37-.56,9.52-.25a1.54,1.54,0,0,0,1.45-1.95c-.79-2.5-3.75-3.86-6.14-4.34-.33-.07-.67-.13-1-.17.66-.9,1.28-1.82,1.88-2.76,4.09,0,8,1.87,11.21,4.35a1.52,1.52,0,0,0,2.51-1.47,1.67,1.67,0,0,0-.06-.38,5.14,5.14,0,0,0-.55-1.24,16.49,16.49,0,0,0-3.52-5.39,47.68,47.68,0,0,0-4.89-3.92h0c.94.3,1.88.62,2.78,1a35.75,35.75,0,0,1,6.21,4.64,1.49,1.49,0,0,0,1.32.34,1.62,1.62,0,0,0,2.62-.1,6.65,6.65,0,0,1,1.19-1.18,4.06,4.06,0,0,0,1.24-2.08c0-.1,0-.21.05-.31.22-.25.44-.52.64-.79-.12.46-.23.92-.31,1.39A2.66,2.66,0,0,0,1505,796a2.37,2.37,0,0,0,2.87.06c1.38-.85,1.92-2.57,2.48-4a53.83,53.83,0,0,0,1.82-5.37,3.69,3.69,0,0,0,3.27-1.31,26.6,26.6,0,0,1,11.3-.66,1.6,1.6,0,0,0,1.72-.72,1.53,1.53,0,0,0-.26-1.85,16.88,16.88,0,0,0-9.52-3.36l.15-.21a29.25,29.25,0,0,1,3.57-.93c4.52-.85,9.07-.14,13.54.62a1.54,1.54,0,0,0,1.46-2.57c-2.44-3-6.72-3.54-10.35-3.71-.86,0-1.72,0-2.58,0l.17-.18a48.07,48.07,0,0,1,4.73-1.49,32.37,32.37,0,0,1,7.71-1,24.08,24.08,0,0,1,3.88.25,9.42,9.42,0,0,0,4.09.17,1.54,1.54,0,0,0,.33-2.79,17.57,17.57,0,0,0-5.55-2.1c1.41-.23,2.82-.45,4.23-.64a1.58,1.58,0,0,0,1.39-1,1.51,1.51,0,0,0-.34-1.66,7.29,7.29,0,0,0-4.75-1.41,9,9,0,0,0,1.15-1.16,1.54,1.54,0,0,0-1.51-2.53,28.68,28.68,0,0,1-3.15.72c.18-.09.36-.16.54-.26a1.54,1.54,0,0,0-.39-2.78l-6.66-1-2.4-.37a26.22,26.22,0,0,0,5.84-.78,1.54,1.54,0,0,0,0-2.94,17.16,17.16,0,0,1-5-1.94,6.73,6.73,0,0,0,2,.43c1.53.1,2-2.16.73-2.85a24.72,24.72,0,0,1-5.61-3.71,22.74,22.74,0,0,1-2.11-2.77c-.46-.72-.88-1.46-1.26-2.21a7.17,7.17,0,0,0-1-1.83q-.12-1-.21-1.92c-1.46,0-2.82-1.43-4.19-4.19-7.56-15.21-11.25-30.3,1.12-45.17,3-3.56,5.64-11.7,5.64-11.7.06.94,2.36-11.23-8.12-15.16,0,0,4.38,8.49.17,14h-1.22a21,21,0,0,1-2.95,6.63,5.11,5.11,0,0,1-.88,1.14.81.81,0,0,1-.83.21,5.09,5.09,0,0,1-.33-3.66c.07-.25-.2-.57-.47-.46a1.05,1.05,0,0,0-.21.12c.06-.44.13-.88.21-1.31a.74.74,0,0,0,0-.18.47.47,0,0,0,0-.24s0,0,0,0a2.81,2.81,0,0,0,0-1.44.41.41,0,0,0-.53-.24,11.26,11.26,0,0,0,.06-2.72.38.38,0,0,0-.5-.34v-.4a.3.3,0,0,0-.05-.16c0-1,0-2.05,0-3.08a.38.38,0,0,0-.74-.09c0,.18-.08.36-.12.55,0-.44-.07-.88-.09-1.31,0-.27,0-.54,0-.81l.12-1.36c0-.27-.21-.38-.43-.35,0-.45,0-.9.07-1.35a.36.36,0,0,0-.33-.35,15.79,15.79,0,0,0-.62-3.6c-.11-.34-.21-.69-.31-1,0,.24,0,.48,0,.72a8.62,8.62,0,0,1-.21-1c0-.1,0-.2,0-.3-3-9-8.68-20.87-17.26-19,0,0,7.23,7.12,8.76,24.86-.67.06-1.33.15-2,.24-4.67-8.41-17-28.16-26.67-22.9,0,0,10,6.52,17.36,27.44-.35.27-.7.54-1,.83-4.46-4.67-23.67-23.57-33.68-14.16,0,0,12.13,2.7,24.33,22.51a1.71,1.71,0,0,1-.11.14c-5.14-3.41-25.38-15.53-35.83-2.23,0,0,16-.27,29.94,14.86a35.26,35.26,0,0,0-.32,3.54c.37.42.73.85,1.08,1.28,1.78,2.24,3.84,4,5.67,6.19l.16.2a1.5,1.5,0,0,0-.91,1.82c.74,2.21,2.7,3.65,4.2,5.33.46.51.89,1,1.31,1.56.62,1.34,1.18,2.72,1.68,4.13a1.55,1.55,0,0,0-2.07,2.13,51.88,51.88,0,0,1,4.72,9.57c.06.43.1.86.15,1.29a14,14,0,0,0-2.62-1.92,1.53,1.53,0,0,0-1.82,2.42,18.87,18.87,0,0,1,4.8,8.08c-.33-.26-.66-.51-1-.76a1.26,1.26,0,0,0-1.2-.12,11.52,11.52,0,0,0-1.25-1,1.54,1.54,0,0,0-2.07,2.11,57.27,57.27,0,0,1,5,8.5c0,.19.06.39.09.58-.21-.46-.42-.92-.65-1.37-.77-1.52-3.47-.39-2.78,1.21a31.22,31.22,0,0,1,2.58,10.3c-.31,1.36-.69,2.72-1.13,4.09h0a.63.63,0,0,0-.73.26l-.29.38a1.29,1.29,0,0,0-.55-.42c0-.74-1-.73-1.2-.14l-.13.32-.05,0a18,18,0,0,1-2.14,2,.62.62,0,0,0-.8,0l-.12.1a.93.93,0,0,0-.33-.26.62.62,0,0,0-1-.52c-.9,1-1.84,1.93-2.83,2.83l-.26.08a.61.61,0,0,0-.75-.65l-.07,0a1.21,1.21,0,0,0-2-1.31,5.6,5.6,0,0,1-3.77,2c-3.42-.65-4.8-2.43-8.87.57.54-5-37.56,5.19-42.12,14.18.34-.68-1-1.14-1.48-1.74l-1.24-3.3c-3-8.14-6.22-16.21-7.77-24.81a20.78,20.78,0,0,0-1.91-5.52,2,2,0,0,1,0-2,18.91,18.91,0,0,1,5.9-6.6c4.73-3.33,9.16-6.94,12.3-11.93,2.36-3.75,4.2-7.65,4.63-12.12a19,19,0,0,0,.07-2c-.07-3.18-.62-3.57-3.58-2.55a87.08,87.08,0,0,0-8,3.58c-4,1.82-8.17,3.09-12.09,5-4.48,2.21-7.92,5.3-9.2,10.35a6.69,6.69,0,0,1-1.56,2.81,3.47,3.47,0,0,1-3.66,1.19c-8.86-1.69-17.66-1.74-26.29,1.34-1.6.57-3.24,1-4.84,1.55a2,2,0,0,1-2.72-1c-3-5.35-7.48-8.63-13.68-9.37-1-.12-2-.36-3-.54a63,63,0,0,1-16.63-5.46c-.37-.18-.73-.37-1.11-.53-1.63-.7-2.54-.13-2.47,1.61a16.34,16.34,0,0,0,3.17,9c4.25,5.84,10.22,9.25,16.82,11.71a38.42,38.42,0,0,0,10.46,2.46c1.13.09,1.33.74,1.26,1.69a19.45,19.45,0,0,1-3.25,8.72c-2.5,4-5.91,7.33-9.32,10.59-3,2.87-5.92,5.84-9.14,8.49-3,2.45-3.38,4.46-1.71,8.18,1,2.1,2.38,4,3.14,6.17a4.76,4.76,0,0,0,4.81,3.61c2.18.12,4.23,1.18,6.44,1.47a7.35,7.35,0,0,0,4.62-.77c1.3-.72,2.61-1.45,3.83-2.29a25.76,25.76,0,0,1,9.24-3.54c1.71-.3,5.29.92,6.81.64,4.33-.8,8.11-1.42,12.14-3.09a84.33,84.33,0,0,0,13.27-7.33c3.81-2.58,4.41-8.39,5.9-12.51,1.18-3.23,1.5,8.83-2.22,12.19-3.29,3-9.37,7.56-13.48,9-5,1.74-7.44,3.05-12.49,4.56-1,.31-2.16.35-3.19.59a135.42,135.42,0,0,0,2.66,15.19l-.92-.62c-.69-.09-1.39-.15-2.08-.18-12,1-28.56,5.77-35.2,15.46a23.47,23.47,0,0,0-6.48,6c-1.48,1.94-3.41,4.5-3.66,7a5.08,5.08,0,0,1-.27.43,9.12,9.12,0,0,0-.95,1.9,10.93,10.93,0,0,0-.25,2,2.8,2.8,0,0,0,.16,1.47l-.29.52c-2.83,3.58,2.26,4.6-1.43,7.39l-.8,2.31c-.49,1.45,1.44,2.41,2.45,1.58a1.37,1.37,0,0,0,1.14-.47s0,.1,0,.15a47.34,47.34,0,0,0-2.63,5.29,1.53,1.53,0,1,0,2.65,1.51c.13-.25.28-.48.41-.72a1.73,1.73,0,0,0,.71.63,4.28,4.28,0,0,0,.12.54,15.43,15.43,0,0,0-1.15,5.43,1.54,1.54,0,0,0,2,1.43,10.22,10.22,0,0,0-.47,5.25,1.35,1.35,0,0,0,1,1,12.56,12.56,0,0,0,0,1.37,2,2,0,0,1,.41-.07c-.29,1.71-.56,3.42-.79,5.14a1.63,1.63,0,0,0,.72,1.72,1.53,1.53,0,0,0,1.85-.27l.32-.42a56.76,56.76,0,0,1-.91,7.22,1.48,1.48,0,0,0,.42,1.43,27.51,27.51,0,0,0-1.23,7,1.44,1.44,0,0,0,2,1.35c-.06.3-.13.6-.19.9q-1.46,7.34-2.93,14.68a1.53,1.53,0,0,0,2.8,1.14,33.2,33.2,0,0,0,2.5-5.51c.17.75.34,1.5.49,2.26a102.79,102.79,0,0,1-2.16,15.41,1.53,1.53,0,0,0,3,.78c.21-.8.4-1.59.59-2.39a148,148,0,0,1-1.62,15,1.56,1.56,0,0,0,1.08,1.86,1.54,1.54,0,0,0,1.87-1.09l.87-3.63a1.49,1.49,0,0,0,0,.21c-.05.25-.09.51-.15.76-.48,2.19-1.28,4.25-2,6.38a11.21,11.21,0,0,0-.37,6.89,1.63,1.63,0,0,0,1.69,1.07c-.74,3.26-1.47,6.51-2.21,9.76a1.54,1.54,0,0,0,2.57,1.46,16.07,16.07,0,0,0,2.2-2.47,51.55,51.55,0,0,1-2,9.55,1.54,1.54,0,0,0,2.57,1.46q.51-.6,1-1.23c-3,8-3,14.47-11.89,15.28-7.69.7-9.09,7.34-9.86,13-.46,3.41,6.12,8.67,14,6.48,2.8-.79,6.1-10.06,7.47-10,.63,0-4.48,6.13.11,9.12,1.67,1.08,8.67.65,11.4.62a7.52,7.52,0,0,0,6.77-5.4,56.9,56.9,0,0,1,2.22-5.34s-.38,4,.06,5.32c3,8.84,11.18,4.91,17.66,5.13,2.67.1,2.71-1.71,2.8-3.42a13.16,13.16,0,0,0-5.91-12.16,20.45,20.45,0,0,1-7.12-7.42,16.06,16.06,0,0,1-1.14-10.76c-2.18-1.83-2.81-3.36-4.46-5.78-2.47-3.63-5.48-7.37-7.84-11.08a30.63,30.63,0,0,1-3.64-7.42l0,0a.87.87,0,0,1-.21-.91,14.35,14.35,0,0,1-.39-3.08c-.07-4,1.1-6.51,3.28-9.78s4.11-6.77,6.61-10a93.4,93.4,0,0,1,10.59-10.85s-1.2-.61-1.18-.62a2.88,2.88,0,0,0,.93-1,2.26,2.26,0,0,0,.11-.22,1.48,1.48,0,0,0,.69-2.45,1.55,1.55,0,0,0,1.67-1.53,5.75,5.75,0,0,0-1-2.94,1.23,1.23,0,0,0,.26-.12,1.56,1.56,0,0,0,.53-2.1,10.33,10.33,0,0,0-1.24-1.76c-.36-.58-.7-1.18-1-1.78a1.68,1.68,0,0,0,.34-.15,1.53,1.53,0,0,0,.68-1.73,47.33,47.33,0,0,0-2.28-5.27,1.52,1.52,0,0,0,.47-1.58c-.33-.84-.62-1.68-.91-2.54a1.38,1.38,0,0,0,1.26-1.86c-.21-.6-.42-1.2-.64-1.8a1.37,1.37,0,0,0,.33-1.9c-.24-.33-.46-.67-.66-1a1.6,1.6,0,0,0,.52-2.07l-.52-.88a1.27,1.27,0,0,0-.26-.9l-.18-.24a2,2,0,0,0,.41-.13,1.72,1.72,0,0,0,.83-.64,1.23,1.23,0,0,0,.5.67c3.35,2.3,6.81,4.74,8.67,8.46a1.22,1.22,0,0,0,1.53.49,1.25,1.25,0,0,0,.69-1.45c0-.25-.09-.49-.14-.73l.5.24a10.76,10.76,0,0,1,.79,1l2.31,3.15c.56.76,2,.81,2.23-.32,0-.11,0-.21,0-.32a26.45,26.45,0,0,1,3.24,3.62,1.23,1.23,0,0,0,2.22-1l-.19-1.17c.49.48,1,1,1.43,1.49.75.84,2,.09,2.08-.89a12.52,12.52,0,0,0,0-1.62l.3,0a16,16,0,0,1,1,1.57,24.32,24.32,0,0,0,3.31,5.11,1.23,1.23,0,0,0,1.92-.27,7.13,7.13,0,0,0,.6-2.91,22.75,22.75,0,0,0,3.87,2.41,1.29,1.29,0,0,0,1.66-.5,25.53,25.53,0,0,0,3.45,2,1.24,1.24,0,0,0,1.19,0c.19.21.37.44.56.66a2.68,2.68,0,0,1,1.1.81.67.67,0,0,1,.12.06,12.83,12.83,0,0,1,1.92,1.44.21.21,0,0,0,0,.06,2.38,2.38,0,0,1,1.26.25.92.92,0,0,1-.44,1.71,4.12,4.12,0,0,1-1-.11c-.24,0-.5.12-.66.17-.63.19-1.25.43-1.87.67-1.43.56-2.91.9-4.35,1.41-3.44,1.21-6.68,2.88-10.12,4.11s-6.91,2.25-10.32,3.5c-1.69.62-3.32,1.35-5,2s-3.32,1.3-5,2c-1.44.63-2.81,1.38-4.25,2l-.23.09c-1.34.81-2.72,1.58-4,2.51-1.38,1.36-2.67,2.8-3.93,4.28-1.93,2.26-3.84,4.55-5.7,6.88-.78,1-1.51,2-2.26,3a9.42,9.42,0,0,1-1.76,2,2.58,2.58,0,0,0-.08.26,20.74,20.74,0,0,0-3.07,6c-1,3.48,0,6.87,1.81,10.09.19.58.41,1.15.63,1.72.62,1.11,1.3,2.19,2,3.27.18,0,4.41,6.18,5.42,7.78a18.45,18.45,0,0,0,2.24,3.11c.89.94,1.85,1.81,2.72,2.76a11.4,11.4,0,0,0,6.76,3,4.21,4.21,0,0,0,2.43,1.29,2.07,2.07,0,0,0,2-1.64,2,2,0,0,0,.06-.34l.48.29c.94.55,2.24,1.51,3.4,1.17a1.56,1.56,0,0,0,1-.73l.7.32c1.45.68,3,1.66,4.69,1.2a.83.83,0,0,0,.4-.25,4,4,0,0,0,2.72-.34,13.13,13.13,0,0,0,3.95.77,1,1,0,0,0,.9-.86,8.8,8.8,0,0,0,5.21.22.9.9,0,0,0,.42-1.46c1.42-.2,2.83-.47,4.23-.6a1,1,0,0,0,.78-1.35c1.47-.17,2.94-.42,4.39-.68a.88.88,0,0,0,.51-1.35l.54-.24c.55,0,1.09,0,1.64,0-4.47,6.93-8.68,13.72-18,14.57-7.45.69-15.47,15.24-11,21.31,1.69,2.28,6.86,4.18,10.93,2a9.54,9.54,0,0,1,3.28-1.21c-.32-1.28-1.92-8.61,2.17-13.5,0,0-2.83,11.15-.68,13.59a8.69,8.69,0,0,1,3,1.41c3.82,2.6,9.66.76,13.23-1.59,2.58-1.69,4.37-2.48,5.87-2.41-.47-2.23-1.34-8.52,2.3-12.87,0,0-2.58,10.16-.93,13.2a9.51,9.51,0,0,1,3.41,3.47c.44.65,3.21,1.51,4,1.5,5.27-.06,12.65-10.83,10-15.76a23.54,23.54,0,0,1-2.61-8.18c-.12-.27-.22-.54-.32-.8a11.15,11.15,0,0,1-.54-4,40.23,40.23,0,0,1,.25-4.39,12.59,12.59,0,0,1,.88-3.87c.19-.42.42-.82.65-1.22.36-1.13.79-2.24,1.23-3.35a.79.79,0,0,0,1.26-.28,23.23,23.23,0,0,0,1.7-5.28.94.94,0,0,0,.78-.62,4.37,4.37,0,0,0,.17-.62c.06-.22.11-.44.16-.66.49.37,1.27.34,1.4-.44l0-.24h0a22.88,22.88,0,0,0,.22-2.47c.49.34,1.22.3,1.36-.47a11.84,11.84,0,0,0,.1-4.3c0-.16-.06-.33-.09-.49,1.81,1.9,4,4,6.66,3.75a1.82,1.82,0,0,0,1.46-1.18c.84.45,1.68.93,2.56,1.32a5.86,5.86,0,0,0,4.87.38,1.58,1.58,0,0,0,1.42-1.95,1.45,1.45,0,0,0-.11-.37,1.33,1.33,0,0,0-.33-.46c-.15-.27-.31-.53-.45-.79a14.56,14.56,0,0,0,6.71,3,1.53,1.53,0,0,0,.78-2.95,5.89,5.89,0,0,1-3-2.26,13.91,13.91,0,0,0,2.78,1.46l.21.18a1,1,0,0,0,.85.17,10.7,10.7,0,0,0,1.89.36,1.51,1.51,0,0,0,1.39-1,1.54,1.54,0,0,0-.23-1.52,24.46,24.46,0,0,0,2.45,1.52,1.48,1.48,0,0,0,1.24.1l.15.16,2,4.54c.49,1.12,1,2.23,1.48,3.35a13,13,0,0,0,1.64,3,.92.92,0,0,0,1.12.13,2.43,2.43,0,0,0,1.09-1.24,18.63,18.63,0,0,0,8.09,4.47,1.67,1.67,0,0,0,2-1.65,27,27,0,0,1,4.43,5c.84,1.21,1.74,3.63,3.64,3,1.3-.45,1.14-1.69.65-2.86.59.4,1.18.8,1.79,1.17,1.24.76,2.59,1.66,4.1,1.17a1.51,1.51,0,0,0,.82-.62,16.57,16.57,0,0,0,1.6,1.08,19.07,19.07,0,0,1,4.14,3.57,4.37,4.37,0,0,0,.9.92,1.12,1.12,0,0,0,1.35-.27c.64-.76.11-1.51-.39-2.15a3.56,3.56,0,0,0,2.16.81,2.05,2.05,0,0,0,1.46-.73l.23,0c.55.14,1.11.29,1.66.4.95.2,2.21,0,2.47-1.06,1.16.28,2.32.53,3.49.74a1,1,0,0,0,1.12-1.08,3.32,3.32,0,0,0,1.45.09c.86-.13.77-1.28.2-1.67-.33-.23-.66-.44-1-.66l3.79.37a.76.76,0,0,0,.86-.75,7.47,7.47,0,0,0,2.37-.44l.3-.12c5.34,1.13,9.84,5.38,11.91,11.81a36.34,36.34,0,0,1,2.17,10.9c0,4.2.87,7.3,3.06,9.6a7.68,7.68,0,0,0,1.19,1.86,27,27,0,0,0,5.07,4.35,8,8,0,0,0,6.81.47,5.26,5.26,0,0,0,4-5,4.57,4.57,0,0,0-.7-2.39l.26,0c-1.42-3.64-5.5-7.3-5.5-7.3,5.13,1.15,5.82,5.76,5.88,7.67a13.62,13.62,0,0,0,1.14,1.14c2.24,1.92,4.86,3.75,7.8,4.32,2.4.46,5.12,0,6.26-2.41a5.05,5.05,0,0,0,.42-2.9.3.3,0,0,1,.1-.09c-1-3.93-5.81-8.26-5.81-8.26,5.7,1.27,5.93,6.83,5.89,8.21l.06,0c.84.73,1.73,1.4,2.63,2.05,2.84,2.09,5.62,4.49,9.21,4,3-.43,3.75-3.48,3.36-5.57-1.64-8.76-8.09-12.76-17.13-14.5-12-2.3-13.17-17.81-20.82-26.82a2.91,2.91,0,0,1-.85-2.29c-2.24-3.34-4.26-6.84-6.42-10.26-1-1.56-2-3.14-2.93-4.72.36-.77.71-1.54,1-2.32.42-1,.82-2,1.19-3q1-2.26,1.86-4.61c.75-2.16,1.34-4.35,2.14-6.48.71-1.26,1.44-2.5,2.2-3.73.58-.94,1.18-1.85,1.79-2.77q1.77-1.54,3.58-3c3.56-2.87,7.35-6,11.75-7.55,4.7-1.64,10-1.23,15.1-.87,1.25.1,1.05-1.67.17-2.21a25.48,25.48,0,0,0-15.91-3.64c12.27-8.39,24.34-17.38,39.09-20.68,2.56,0,1.77-3.46-.6-3.89-14.74-2.27,2.61-3,5.94-7,10.87-2.88,21-3.88,33.31-1.6C1648.81,851.93,1643.18,847.66,1635.19,846.08ZM1518.45,659.91c6.78,5.42-1.64,16.51-1.64,16.51C1521,666,1518.45,659.91,1518.45,659.91Zm-10.36,14.91ZM1493.66,638c13.83,12.58,7.22,36.69,7.22,36.69C1501.27,656.05,1493.66,638,1493.66,638Zm-19,1.71c17.47,8.45,19.07,36.92,19.07,36.92C1487.94,656.37,1474.64,639.66,1474.64,639.66Zm-23.78,30.89c21.55-5.15,29.53,19.9,29.53,19.9C1472.5,676.43,1450.86,670.55,1450.86,670.55Zm8.77-18.81c20.75,2.11,27,30.66,27,30.66C1478.74,664,1459.63,651.74,1459.63,651.74ZM1326.21,725.1a39.31,39.31,0,0,1,6.84.68l-13.8-11.23s18.37,11.93,22.18,13.41c0,0-7.6-.67-6.83.08a69.29,69.29,0,0,0,12.2,4.41S1335.4,731.83,1326.21,725.1Zm43,21.46s.62-8.55,10-5C1379.22,741.57,1376.62,747,1369.26,746.56Zm25.48-15c10.89-8,14.17-12.71,14.17-12.71-5.32-.7-6.88-3.72-6.88-3.72,15.11-7,17.59-8,18.26-8.55l.1-.08-.1.08-10.84,9a50.15,50.15,0,0,0,10-2.16C1408.06,728.15,1394.74,731.51,1394.74,731.51Z"
            transform="translate(0 -559.47)" />
        <path id="animation-hill-svg"
            d="M1893.86,1048c-16.36-9.16-51.82-7.07-73.9-12.64-12.44-3.13-23.44-15.14-39.61-14.95-14.44.18-30.64-.71-43-4.1-15.08-4.14-33.88-5.88-44.81-11.63-5.83-3.07-14.24-2.27-24.6-2.39-24-.29-23.6-1.08-47.87-5.33-20.54-3.6-46.83-4.4-71-5.19a499.87,499.87,0,0,0-66.43,1.82c-25.33,2.39-49.13,1.75-76.3,1.71-38.11.13-76.25-.62-114.12-4.66-26.68,2.12-50-3.41-75.78-3.44a66,66,0,0,1-22.8-4c-7.77-2.86-17.53,4.63-29.39,4.31a403.92,403.92,0,0,1-55.94-5c-10.59-1.78-23.64-3-33.87-.39-11.85,3-21.54,1.93-32.56.09-24.16-4.05-48.23-2.27-71.29.82-13.78,1.85-34.68,6.67-43.27,2.78-20.23-9.16-46.87-8.85-76-6.17-15.68,1.45-33,3.18-47.44.69-29.56-5.11-55,6.53-82.44,6.77-1.44,0-2.68.79-4.27,1-9.54,1.06-16.45,4.27-26.86,4.17-20.51-.2-35.36,1.36-46,6.86-2.46,1.27-7,2.83-10.67.51-5.42-3.43-16.85-3.69-23.93-6.48-28.67-11.1-68.15,1.93-106.53,4.22-10.71.55-19,4.38-31.14,2.83-10.53-1.33-20.56,9.25-31.2,9.57-15.49.47-32.64,1.29-44.82-2.64-9.7-3.13-20.52-2-32.54-3.77-23.78-3.52-45.71-2.51-75.16,5.25a16.52,16.52,0,0,1-3.46.2c-34-.23-59.89,1.85-83.33,7.83-30.67,7.82-66.59-3-89.45,7.76-3.86,1.82-10.7,2.19-16.53,3.1-11.91,1.86-38.91,6.27-46.62,9.52-18.08,7.63-49,43-49,43H1920S1902.87,1053.05,1893.86,1048Z"
            transform="translate(0 -559.47)" />
    </g>
</svg>