<svg xmlns="http://www.w3.org/2000/svg" xmlns:xlink="http://www.w3.org/1999/xlink" viewBox="0 0 1999.06 1996.27"><defs><radialGradient id="radial-gradient" cx="-713.49" cy="-531.79" r="591.26" gradientTransform="translate(2492.72 2131.4) scale(2.09 2.09)" gradientUnits="userSpaceOnUse"><stop offset="0" stop-color="#3e4b4b"/><stop offset="1" stop-color="#0c0d11"/></radialGradient></defs><g id="computer-screen-outside"><rect id="computer-screen-background" x="358.44" y="376.26" width="1282.19" height="1283" style="fill:url(#radial-gradient)"/><g style="opacity:0.1"><line x1="338.54" y1="397.37" x2="338.54" y2="1726.35" style="fill:none;stroke:#fff;stroke-miterlimit:10;stroke-width:0.602614123818786px"/><line x1="359.98" y1="397.37" x2="359.98" y2="1726.35" style="fill:none;stroke:#fff;stroke-miterlimit:10;stroke-width:0.602614123818786px"/><line x1="381.42" y1="397.37" x2="381.42" y2="1726.35" style="fill:none;stroke:#fff;stroke-miterlimit:10;stroke-width:0.602614123818786px"/><line x1="402.86" y1="397.37" x2="402.86" y2="1726.35" style="fill:none;stroke:#fff;stroke-miterlimit:10;stroke-width:0.602614123818786px"/><line x1="424.3" y1="397.37" x2="424.3" y2="1726.35" style="fill:none;stroke:#fff;stroke-miterlimit:10;stroke-width:0.602614123818786px"/><line x1="445.74" y1="397.37" x2="445.74" y2="1726.13" style="fill:none;stroke:#fff;stroke-miterlimit:10;stroke-width:0.602614123818786px"/><line x1="467.18" y1="397.37" x2="467.18" y2="1726.13" style="fill:none;stroke:#fff;stroke-miterlimit:10;stroke-width:0.602614123818786px"/><line x1="488.62" y1="397.37" x2="488.62" y2="1726.13" style="fill:none;stroke:#fff;stroke-miterlimit:10;stroke-width:0.602614123818786px"/><line x1="510.06" y1="397.37" x2="510.06" y2="1726.13" style="fill:none;stroke:#fff;stroke-miterlimit:10;stroke-width:0.602614123818786px"/><line x1="531.5" y1="397.37" x2="531.5" y2="1726.13" style="fill:none;stroke:#fff;stroke-miterlimit:10;stroke-width:0.602614123818786px"/><line x1="552.94" y1="397.37" x2="552.94" y2="1726.13" style="fill:none;stroke:#fff;stroke-miterlimit:10;stroke-width:0.602614123818786px"/><line x1="574.38" y1="397.37" x2="574.38" y2="1726.13" style="fill:none;stroke:#fff;stroke-miterlimit:10;stroke-width:0.602614123818786px"/><line x1="595.82" y1="397.37" x2="595.82" y2="1726.13" style="fill:none;stroke:#fff;stroke-miterlimit:10;stroke-width:0.602614123818786px"/><line x1="617.26" y1="397.37" x2="617.26" y2="1726.13" style="fill:none;stroke:#fff;stroke-miterlimit:10;stroke-width:0.602614123818786px"/><line x1="638.7" y1="397.37" x2="638.7" y2="1726.13" style="fill:none;stroke:#fff;stroke-miterlimit:10;stroke-width:0.602614123818786px"/><line x1="660.14" y1="397.37" x2="660.14" y2="1726.13" style="fill:none;stroke:#fff;stroke-miterlimit:10;stroke-width:0.602614123818786px"/><line x1="681.58" y1="397.37" x2="681.58" y2="1726.13" style="fill:none;stroke:#fff;stroke-miterlimit:10;stroke-width:0.602614123818786px"/><line x1="703.02" y1="397.37" x2="703.02" y2="1726.13" style="fill:none;stroke:#fff;stroke-miterlimit:10;stroke-width:0.602614123818786px"/><line x1="724.46" y1="397.37" x2="724.46" y2="1726.13" style="fill:none;stroke:#fff;stroke-miterlimit:10;stroke-width:0.602614123818786px"/><line x1="745.9" y1="397.37" x2="745.9" y2="1726.13" style="fill:none;stroke:#fff;stroke-miterlimit:10;stroke-width:0.602614123818786px"/><line x1="767.34" y1="397.37" x2="767.34" y2="1726.13" style="fill:none;stroke:#fff;stroke-miterlimit:10;stroke-width:0.602614123818786px"/><line x1="788.78" y1="397.37" x2="788.78" y2="1726.13" style="fill:none;stroke:#fff;stroke-miterlimit:10;stroke-width:0.602614123818786px"/><line x1="810.22" y1="397.37" x2="810.22" y2="1726.13" style="fill:none;stroke:#fff;stroke-miterlimit:10;stroke-width:0.602614123818786px"/><line x1="831.66" y1="397.37" x2="831.66" y2="1726.13" style="fill:none;stroke:#fff;stroke-miterlimit:10;stroke-width:0.602614123818786px"/><line x1="853.1" y1="397.37" x2="853.1" y2="1726.13" style="fill:none;stroke:#fff;stroke-miterlimit:10;stroke-width:0.602614123818786px"/><line x1="874.54" y1="397.37" x2="874.54" y2="1726.13" style="fill:none;stroke:#fff;stroke-miterlimit:10;stroke-width:0.602614123818786px"/><line x1="895.98" y1="397.37" x2="895.98" y2="1726.13" style="fill:none;stroke:#fff;stroke-miterlimit:10;stroke-width:0.602614123818786px"/><line x1="917.42" y1="397.37" x2="917.42" y2="1726.13" style="fill:none;stroke:#fff;stroke-miterlimit:10;stroke-width:0.602614123818786px"/><line x1="938.86" y1="397.37" x2="938.86" y2="1726.13" style="fill:none;stroke:#fff;stroke-miterlimit:10;stroke-width:0.602614123818786px"/><line x1="960.3" y1="397.37" x2="960.3" y2="1726.13" style="fill:none;stroke:#fff;stroke-miterlimit:10;stroke-width:0.602614123818786px"/><line x1="981.74" y1="397.37" x2="981.74" y2="1726.13" style="fill:none;stroke:#fff;stroke-miterlimit:10;stroke-width:0.602614123818786px"/><line x1="1003.18" y1="397.37" x2="1003.18" y2="1726.13" style="fill:none;stroke:#fff;stroke-miterlimit:10;stroke-width:0.602614123818786px"/><line x1="1646.59" y1="397.07" x2="338.75" y2="397.07" style="fill:none;stroke:#fff;stroke-miterlimit:10;stroke-width:0.597851230906671px"/><line x1="1646.59" y1="418.51" x2="338.75" y2="418.51" style="fill:none;stroke:#fff;stroke-miterlimit:10;stroke-width:0.597851230906671px"/><line x1="1646.59" y1="439.95" x2="338.75" y2="439.95" style="fill:none;stroke:#fff;stroke-miterlimit:10;stroke-width:0.597851230906671px"/><line x1="1646.59" y1="461.39" x2="338.75" y2="461.39" style="fill:none;stroke:#fff;stroke-miterlimit:10;stroke-width:0.597851230906671px"/><line x1="1646.59" y1="482.83" x2="338.75" y2="482.83" style="fill:none;stroke:#fff;stroke-miterlimit:10;stroke-width:0.597851230906671px"/><line x1="1646.59" y1="504.27" x2="338.75" y2="504.27" style="fill:none;stroke:#fff;stroke-miterlimit:10;stroke-width:0.597851230906671px"/><line x1="1646.59" y1="525.71" x2="338.75" y2="525.71" style="fill:none;stroke:#fff;stroke-miterlimit:10;stroke-width:0.597851230906671px"/><line x1="1646.59" y1="547.15" x2="338.75" y2="547.15" style="fill:none;stroke:#fff;stroke-miterlimit:10;stroke-width:0.597851230906671px"/><line x1="1646.59" y1="568.59" x2="338.75" y2="568.59" style="fill:none;stroke:#fff;stroke-miterlimit:10;stroke-width:0.597851230906671px"/><line x1="1646.59" y1="590.03" x2="338.75" y2="590.03" style="fill:none;stroke:#fff;stroke-miterlimit:10;stroke-width:0.597851230906671px"/><line x1="1646.59" y1="611.47" x2="338.75" y2="611.47" style="fill:none;stroke:#fff;stroke-miterlimit:10;stroke-width:0.597851230906671px"/><line x1="1646.59" y1="632.91" x2="338.75" y2="632.91" style="fill:none;stroke:#fff;stroke-miterlimit:10;stroke-width:0.597851230906671px"/><line x1="1646.59" y1="654.35" x2="338.75" y2="654.35" style="fill:none;stroke:#fff;stroke-miterlimit:10;stroke-width:0.597851230906671px"/><line x1="1646.59" y1="675.79" x2="338.75" y2="675.79" style="fill:none;stroke:#fff;stroke-miterlimit:10;stroke-width:0.597851230906671px"/><line x1="1646.59" y1="697.23" x2="338.75" y2="697.23" style="fill:none;stroke:#fff;stroke-miterlimit:10;stroke-width:0.597851230906671px"/><line x1="1646.59" y1="718.67" x2="338.75" y2="718.67" style="fill:none;stroke:#fff;stroke-miterlimit:10;stroke-width:0.597851230906671px"/><line x1="1646.59" y1="740.11" x2="338.75" y2="740.11" style="fill:none;stroke:#fff;stroke-miterlimit:10;stroke-width:0.597851230906671px"/><line x1="1646.59" y1="761.55" x2="338.75" y2="761.55" style="fill:none;stroke:#fff;stroke-miterlimit:10;stroke-width:0.597851230906671px"/><line x1="1646.59" y1="782.99" x2="338.75" y2="782.99" style="fill:none;stroke:#fff;stroke-miterlimit:10;stroke-width:0.597851230906671px"/><line x1="1646.59" y1="804.43" x2="338.75" y2="804.43" style="fill:none;stroke:#fff;stroke-miterlimit:10;stroke-width:0.597851230906671px"/><line x1="1646.59" y1="825.87" x2="338.75" y2="825.87" style="fill:none;stroke:#fff;stroke-miterlimit:10;stroke-width:0.597851230906671px"/><line x1="1646.59" y1="847.31" x2="338.75" y2="847.31" style="fill:none;stroke:#fff;stroke-miterlimit:10;stroke-width:0.597851230906671px"/><line x1="1646.59" y1="868.75" x2="338.75" y2="868.75" style="fill:none;stroke:#fff;stroke-miterlimit:10;stroke-width:0.597851230906671px"/><line x1="1646.59" y1="890.19" x2="338.75" y2="890.19" style="fill:none;stroke:#fff;stroke-miterlimit:10;stroke-width:0.597851230906671px"/><line x1="1646.59" y1="911.63" x2="338.75" y2="911.63" style="fill:none;stroke:#fff;stroke-miterlimit:10;stroke-width:0.597851230906671px"/><line x1="1646.59" y1="933.07" x2="338.75" y2="933.07" style="fill:none;stroke:#fff;stroke-miterlimit:10;stroke-width:0.597851230906671px"/><line x1="1646.59" y1="954.51" x2="338.75" y2="954.51" style="fill:none;stroke:#fff;stroke-miterlimit:10;stroke-width:0.597851230906671px"/><line x1="1646.59" y1="975.95" x2="338.75" y2="975.95" style="fill:none;stroke:#fff;stroke-miterlimit:10;stroke-width:0.597851230906671px"/><line x1="1646.59" y1="997.39" x2="338.75" y2="997.39" style="fill:none;stroke:#fff;stroke-miterlimit:10;stroke-width:0.597851230906671px"/><line x1="1646.59" y1="1018.83" x2="338.75" y2="1018.83" style="fill:none;stroke:#fff;stroke-miterlimit:10;stroke-width:0.597851230906671px"/><line x1="1646.59" y1="1040.27" x2="338.75" y2="1040.27" style="fill:none;stroke:#fff;stroke-miterlimit:10;stroke-width:0.597851230906671px"/><line x1="1646.59" y1="1061.71" x2="338.75" y2="1061.71" style="fill:none;stroke:#fff;stroke-miterlimit:10;stroke-width:0.597851230906671px"/><line x1="1646.59" y1="1083.15" x2="338.75" y2="1083.15" style="fill:none;stroke:#fff;stroke-miterlimit:10;stroke-width:0.597851230906671px"/><line x1="1646.59" y1="1104.59" x2="338.75" y2="1104.59" style="fill:none;stroke:#fff;stroke-miterlimit:10;stroke-width:0.597851230906671px"/><line x1="1646.59" y1="1126.03" x2="338.75" y2="1126.03" style="fill:none;stroke:#fff;stroke-miterlimit:10;stroke-width:0.597851230906671px"/><line x1="1646.59" y1="1147.47" x2="338.75" y2="1147.47" style="fill:none;stroke:#fff;stroke-miterlimit:10;stroke-width:0.597851230906671px"/><line x1="1646.59" y1="1168.91" x2="338.75" y2="1168.91" style="fill:none;stroke:#fff;stroke-miterlimit:10;stroke-width:0.597851230906671px"/><line x1="1646.59" y1="1190.35" x2="338.75" y2="1190.35" style="fill:none;stroke:#fff;stroke-miterlimit:10;stroke-width:0.597851230906671px"/><line x1="1646.59" y1="1211.79" x2="338.75" y2="1211.79" style="fill:none;stroke:#fff;stroke-miterlimit:10;stroke-width:0.597851230906671px"/><line x1="1646.59" y1="1233.23" x2="338.75" y2="1233.23" style="fill:none;stroke:#fff;stroke-miterlimit:10;stroke-width:0.597851230906671px"/><line x1="1646.59" y1="1254.67" x2="338.75" y2="1254.67" style="fill:none;stroke:#fff;stroke-miterlimit:10;stroke-width:0.597851230906671px"/><line x1="1646.59" y1="1276.11" x2="338.75" y2="1276.11" style="fill:none;stroke:#fff;stroke-miterlimit:10;stroke-width:0.597851230906671px"/><line x1="1646.59" y1="1297.55" x2="338.75" y2="1297.55" style="fill:none;stroke:#fff;stroke-miterlimit:10;stroke-width:0.597851230906671px"/><line x1="1646.59" y1="1318.99" x2="338.75" y2="1318.99" style="fill:none;stroke:#fff;stroke-miterlimit:10;stroke-width:0.597851230906671px"/><line x1="1646.59" y1="1340.43" x2="338.75" y2="1340.43" style="fill:none;stroke:#fff;stroke-miterlimit:10;stroke-width:0.597851230906671px"/><line x1="1646.59" y1="1361.87" x2="338.75" y2="1361.87" style="fill:none;stroke:#fff;stroke-miterlimit:10;stroke-width:0.597851230906671px"/><line x1="1646.59" y1="1383.31" x2="338.75" y2="1383.31" style="fill:none;stroke:#fff;stroke-miterlimit:10;stroke-width:0.597851230906671px"/><line x1="1646.59" y1="1404.75" x2="338.75" y2="1404.75" style="fill:none;stroke:#fff;stroke-miterlimit:10;stroke-width:0.597851230906671px"/><line x1="1646.59" y1="1426.19" x2="338.75" y2="1426.19" style="fill:none;stroke:#fff;stroke-miterlimit:10;stroke-width:0.597851230906671px"/><line x1="1646.59" y1="1447.63" x2="338.75" y2="1447.63" style="fill:none;stroke:#fff;stroke-miterlimit:10;stroke-width:0.597851230906671px"/><line x1="1646.59" y1="1469.07" x2="338.75" y2="1469.07" style="fill:none;stroke:#fff;stroke-miterlimit:10;stroke-width:0.597851230906671px"/><line x1="1646.59" y1="1490.51" x2="338.75" y2="1490.51" style="fill:none;stroke:#fff;stroke-miterlimit:10;stroke-width:0.597851230906671px"/><line x1="1646.59" y1="1511.95" x2="338.75" y2="1511.95" style="fill:none;stroke:#fff;stroke-miterlimit:10;stroke-width:0.597851230906671px"/><line x1="1646.59" y1="1533.39" x2="338.75" y2="1533.39" style="fill:none;stroke:#fff;stroke-miterlimit:10;stroke-width:0.597851230906671px"/><line x1="1646.59" y1="1554.83" x2="338.75" y2="1554.83" style="fill:none;stroke:#fff;stroke-miterlimit:10;stroke-width:0.597851230906671px"/><line x1="1646.59" y1="1576.27" x2="338.75" y2="1576.27" style="fill:none;stroke:#fff;stroke-miterlimit:10;stroke-width:0.597851230906671px"/><line x1="1646.59" y1="1597.71" x2="338.75" y2="1597.71" style="fill:none;stroke:#fff;stroke-miterlimit:10;stroke-width:0.597851230906671px"/><line x1="1646.59" y1="1619.15" x2="338.75" y2="1619.15" style="fill:none;stroke:#fff;stroke-miterlimit:10;stroke-width:0.597851230906671px"/><line x1="1646.59" y1="1640.59" x2="338.75" y2="1640.59" style="fill:none;stroke:#fff;stroke-miterlimit:10;stroke-width:0.597851230906671px"/><line x1="1646.59" y1="1662.03" x2="338.75" y2="1662.03" style="fill:none;stroke:#fff;stroke-miterlimit:10;stroke-width:0.597851230906671px"/><line x1="1646.59" y1="1683.47" x2="338.75" y2="1683.47" style="fill:none;stroke:#fff;stroke-miterlimit:10;stroke-width:0.597851230906671px"/><line x1="1646.59" y1="1704.91" x2="338.75" y2="1704.91" style="fill:none;stroke:#fff;stroke-miterlimit:10;stroke-width:0.597851230906671px"/><line x1="1646.59" y1="1726.35" x2="338.75" y2="1726.35" style="fill:none;stroke:#fff;stroke-miterlimit:10;stroke-width:0.597851230906671px"/><line x1="1024.87" y1="397.28" x2="1024.87" y2="1726.26" style="fill:none;stroke:#fff;stroke-miterlimit:10;stroke-width:0.602614123818786px"/><line x1="1046.31" y1="397.28" x2="1046.31" y2="1726.26" style="fill:none;stroke:#fff;stroke-miterlimit:10;stroke-width:0.602614123818786px"/><line x1="1067.75" y1="397.28" x2="1067.75" y2="1726.26" style="fill:none;stroke:#fff;stroke-miterlimit:10;stroke-width:0.602614123818786px"/><line x1="1089.19" y1="397.28" x2="1089.19" y2="1726.04" style="fill:none;stroke:#fff;stroke-miterlimit:10;stroke-width:0.602614123818786px"/><line x1="1110.63" y1="397.28" x2="1110.63" y2="1726.04" style="fill:none;stroke:#fff;stroke-miterlimit:10;stroke-width:0.602614123818786px"/><line x1="1132.07" y1="397.28" x2="1132.07" y2="1726.04" style="fill:none;stroke:#fff;stroke-miterlimit:10;stroke-width:0.602614123818786px"/><line x1="1153.51" y1="397.28" x2="1153.51" y2="1726.04" style="fill:none;stroke:#fff;stroke-miterlimit:10;stroke-width:0.602614123818786px"/><line x1="1174.95" y1="397.28" x2="1174.95" y2="1726.04" style="fill:none;stroke:#fff;stroke-miterlimit:10;stroke-width:0.602614123818786px"/><line x1="1196.39" y1="397.28" x2="1196.39" y2="1726.04" style="fill:none;stroke:#fff;stroke-miterlimit:10;stroke-width:0.602614123818786px"/><line x1="1217.83" y1="397.28" x2="1217.83" y2="1726.04" style="fill:none;stroke:#fff;stroke-miterlimit:10;stroke-width:0.602614123818786px"/><line x1="1239.27" y1="397.28" x2="1239.27" y2="1726.04" style="fill:none;stroke:#fff;stroke-miterlimit:10;stroke-width:0.602614123818786px"/><line x1="1260.71" y1="397.28" x2="1260.71" y2="1726.04" style="fill:none;stroke:#fff;stroke-miterlimit:10;stroke-width:0.602614123818786px"/><line x1="1282.15" y1="397.28" x2="1282.15" y2="1726.04" style="fill:none;stroke:#fff;stroke-miterlimit:10;stroke-width:0.602614123818786px"/><line x1="1303.59" y1="397.28" x2="1303.59" y2="1726.04" style="fill:none;stroke:#fff;stroke-miterlimit:10;stroke-width:0.602614123818786px"/><line x1="1325.03" y1="397.28" x2="1325.03" y2="1726.04" style="fill:none;stroke:#fff;stroke-miterlimit:10;stroke-width:0.602614123818786px"/><line x1="1346.47" y1="397.28" x2="1346.47" y2="1726.04" style="fill:none;stroke:#fff;stroke-miterlimit:10;stroke-width:0.602614123818786px"/><line x1="1367.91" y1="397.28" x2="1367.91" y2="1726.04" style="fill:none;stroke:#fff;stroke-miterlimit:10;stroke-width:0.602614123818786px"/><line x1="1389.35" y1="397.28" x2="1389.35" y2="1726.04" style="fill:none;stroke:#fff;stroke-miterlimit:10;stroke-width:0.602614123818786px"/><line x1="1410.79" y1="397.28" x2="1410.79" y2="1726.04" style="fill:none;stroke:#fff;stroke-miterlimit:10;stroke-width:0.602614123818786px"/><line x1="1432.23" y1="397.28" x2="1432.23" y2="1726.04" style="fill:none;stroke:#fff;stroke-miterlimit:10;stroke-width:0.602614123818786px"/><line x1="1453.67" y1="397.28" x2="1453.67" y2="1726.04" style="fill:none;stroke:#fff;stroke-miterlimit:10;stroke-width:0.602614123818786px"/><line x1="1475.11" y1="397.28" x2="1475.11" y2="1726.04" style="fill:none;stroke:#fff;stroke-miterlimit:10;stroke-width:0.602614123818786px"/><line x1="1496.55" y1="397.28" x2="1496.55" y2="1726.04" style="fill:none;stroke:#fff;stroke-miterlimit:10;stroke-width:0.602614123818786px"/><line x1="1517.99" y1="397.28" x2="1517.99" y2="1726.04" style="fill:none;stroke:#fff;stroke-miterlimit:10;stroke-width:0.602614123818786px"/><line x1="1539.43" y1="397.28" x2="1539.43" y2="1726.04" style="fill:none;stroke:#fff;stroke-miterlimit:10;stroke-width:0.602614123818786px"/><line x1="1560.87" y1="397.28" x2="1560.87" y2="1726.04" style="fill:none;stroke:#fff;stroke-miterlimit:10;stroke-width:0.602614123818786px"/><line x1="1582.31" y1="397.28" x2="1582.31" y2="1726.04" style="fill:none;stroke:#fff;stroke-miterlimit:10;stroke-width:0.602614123818786px"/><line x1="1603.75" y1="397.28" x2="1603.75" y2="1726.04" style="fill:none;stroke:#fff;stroke-miterlimit:10;stroke-width:0.602614123818786px"/><line x1="1625.19" y1="397.28" x2="1625.19" y2="1726.04" style="fill:none;stroke:#fff;stroke-miterlimit:10;stroke-width:0.602614123818786px"/><line x1="1646.63" y1="397.28" x2="1646.63" y2="1726.04" style="fill:none;stroke:#fff;stroke-miterlimit:10;stroke-width:0.602614123818786px"/></g><path d="M-2170.63-446.62V738.79H-798.24V-446.62Zm1308.29,576L-925,364.63v54.61h22.54V530.55l40.15,29.4v54.6l-44.73,66.69h-216.62L-1136.28,646-1149,633.85h-670.78L-1832.6,646l-12.58,35.25H-2061.8l-44.74-66.69V560l40.16-29.4V419.24h22.54V364.63l-62.7-235.22V-313l45.79-68.26h388.09l33.17,56.7h310.11l33.17-56.7h388.09L-862.34-313Z" transform="translate(2483.47 883.47)" style="fill:#4e8977"/><path d="M-2196.76-475.63V734.57l13,20.34H-782.11l10-12.91V-475.63Zm1358.1,598-65.08,244.18V423.2h23.4V538.74l41.68,30.53V626l-46.43,69.22h-224.86L-1136.27,646H-1832.6l-26.32,49.18h-224.86L-2130.22,626V569.27l41.68-30.53V423.2h23.4V366.51l-65.08-244.18V-336.94l47.53-70.86h402.87l34.42,58.87h321.93L-1289-407.8h402.86l47.53,70.86Z" transform="translate(2483.47 883.47)" style="fill:#2b5249"/><path d="M-2183.76,750.31l-10-14.7V-471H-775.11V750.31Zm1072.39-50.53h227.5l48.21-71.88V566.36l-41.68-26.61V418.59h-23.4V367.42l65.08-244.18V-338.89L-885-412.4h-405.42l-34.42,58.86h-319.25l-34.43-58.86H-2083.9l-49.32,73.51V123.24l65.08,244.18v51.17h-23.4V535.84l-41.68,30.52V627.9l48.22,71.88h227.49l5.5-35.19,15.59-14h704.56l15,14Z" transform="translate(2483.47 883.47)" style="fill:#315f53"/><path d="M-2236.48-422.56V678.15l66,101.44H-788.19l55.79-101.44V-440.58l-65.84-79H-2172.12Zm1433.83,534.3-68.71,257.79v59.85h24.7v122l44,32.22v59.84l-49,73.08h-237.4l-27.79-51.92H-1852l-27.79,51.92h-237.4l-49-73.08V583.59l44-32.22v-122h24.71V369.53l-68.71-257.79V-373.14l50.18-74.81h425.32l36.35,62.15h339.87l36.35-62.15h425.32l50.18,74.81Z" transform="translate(2483.47 883.47)" style="fill:#111f1c"/><path d="M-2483.47,1112.79V-883.47L-484.4-880.4l-1,1993.19Zm1393-391.67h240l50.81-75.74v-64.7l-44-28.16V424.77h-24.7V370.44l68.71-257.79V-375.09l-52-77.46h-427.87l-36.35,62.14H-1653l-36.34-62.14h-427.88l-52,77.46V112.65l68.71,257.79v54.33h-24.71V548.46l-44,32.22v64.7l50.81,75.74h240l2.94-34,19.64-17.9h743l19.35,17.9Z" transform="translate(2483.47 883.47)"/><polygon points="1580.98 1414.02 1603.13 1422.22 1603.13 1306.67 1580.98 1302.71 1580.98 1414.02" style="fill:#2b5c4d"/><polygon points="1558.43 1302.71 1579.73 1306.67 1579.73 1249.99 1558.43 1248.11 1558.43 1302.71" style="fill:#2b5c4d"/><polygon points="1582.73 1250.89 1612.11 1253.01 1612.11 1312.85 1582.39 1307.04 1582.73 1250.89" style="fill:#274b44"/><polygon points="1621.13 1012.88 1644.81 1005.81 1644.81 546.53 1621.13 570.45 1621.13 1012.88" style="fill:#3d6b5b"/><polygon points="1154.09 558.9 1159.99 534.54 1194.42 475.68 1187.25 502.2 1154.09 558.9" style="fill:#2b5c4d"/><polygon points="1575.34 502.2 1597.28 475.68 1644.81 546.53 1621.13 570.45 1575.34 502.2" style="fill:#2b5c4d"/><polygon points="1647.81 1006.72 1680.82 995.21 1680.82 510.33 1647.81 544.59 1647.81 1006.72" style="fill:#2e564d"/><polygon points="1647.81 544.59 1680.82 510.33 1630.64 435.53 1599.59 472.7 1647.81 544.59" style="fill:#204038"/><polygon points="1158.66 529.94 1168.97 497.67 1205.31 435.53 1193.08 471.07 1158.66 529.94" style="fill:#2e564d"/><polygon points="1621.13 1498.03 1644.81 1509.43 1644.81 1452.74 1621.13 1443.43 1621.13 1498.03" style="fill:#3d6b5b"/><polygon points="1580.98 1414.02 1603.13 1422.22 1644.81 1452.74 1621.13 1443.43 1580.98 1414.02" style="fill:#204038"/><polygon points="1615.11 1253.91 1651.18 1256.7 1651.18 1320.36 1615.11 1313.44 1615.11 1253.91" style="fill:#102520"/><polygon points="1683.82 996.12 1724.27 982.48 1724.27 466.69 1683.82 508.38 1683.82 996.12" style="fill:#102520"/><polygon points="1724.27 466.69 1683.82 508.38 1632.97 432.59 1670.89 387.12 1724.27 466.69" style="fill:#081714"/><polygon points="1179.8 453.23 1167.63 493.07 1203.98 430.92 1218.46 387.12 1179.8 453.23" style="fill:#081714"/><polygon points="1636.81 1434.84 1680.82 1467.07 1647.81 1453.74 1606.13 1423.22 1636.81 1434.84" style="fill:#1a3d35"/><polygon points="1677.46 1450.13 1724.27 1484.41 1683.82 1467.69 1639.81 1435.99 1677.46 1450.13" style="fill:#081714"/><polygon points="1680.82 1526.91 1680.82 1467.07 1647.81 1453.74 1647.81 1511.37 1680.82 1526.91" style="fill:#2e564d"/><polygon points="1724.27 1548.07 1724.27 1484.41 1683.82 1467.69 1683.82 1528.86 1724.27 1548.07" style="fill:#102520"/><polygon points="1580.01 1564.68 1598.37 1578.64 1573.51 1570.57 1384.53 1565.48 1383.6 1564.71 1576.39 1564.71 1621.13 1498.03 1580.01 1564.68" style="fill:#64b095"/><polygon points="1618.39 1026.31 1562.89 1243.58 1579.73 1249.98 1560.89 1253.91 1558.43 1302.71 1558.43 1248.11 1621.13 1012.88 1621.13 570.46 1623.84 1009.09 1644.81 1005.81 1618.39 1026.31" style="fill:#64b095"/><polygon points="417.08 1414.02 394.93 1422.22 394.93 1306.67 417.08 1302.71 417.08 1414.02" style="fill:#2b5c4d"/><polygon points="439.62 1302.71 418.32 1306.67 418.32 1249.99 439.62 1248.11 439.62 1302.71" style="fill:#2b5c4d"/><polygon points="415.32 1250.89 385.95 1253.01 385.95 1312.85 415.67 1307.04 415.32 1250.89" style="fill:#274b44"/><polygon points="376.93 1012.88 353.24 1005.81 353.24 546.53 376.93 570.45 376.93 1012.88" style="fill:#3d6b5b"/><polygon points="843.97 558.9 838.06 534.54 803.64 475.68 810.8 502.2 843.97 558.9" style="fill:#2b5c4d"/><polygon points="422.71 502.2 400.77 475.68 353.24 546.53 376.93 570.45 422.71 502.2" style="fill:#2b5c4d"/><polygon points="350.24 1006.72 317.24 995.21 317.24 510.33 350.24 544.59 350.24 1006.72" style="fill:#2e564d"/><polygon points="350.24 544.59 317.24 510.33 367.42 435.53 398.47 472.7 350.24 544.59" style="fill:#204038"/><polygon points="839.4 529.94 829.09 497.67 792.74 435.53 804.98 471.07 839.4 529.94" style="fill:#2e564d"/><polygon points="376.93 1498.03 353.24 1509.43 353.24 1452.74 376.93 1443.43 376.93 1498.03" style="fill:#3d6b5b"/><polygon points="417.08 1414.02 394.93 1422.22 353.24 1452.74 376.93 1443.43 417.08 1414.02" style="fill:#204038"/><polygon points="382.95 1253.91 346.87 1256.7 346.87 1320.36 382.95 1313.44 382.95 1253.91" style="fill:#102520"/><polygon points="314.24 996.12 273.78 982.48 273.78 466.69 314.24 508.38 314.24 996.12" style="fill:#102520"/><polygon points="273.78 466.69 314.24 508.38 365.09 432.59 327.16 387.12 273.78 466.69" style="fill:#081714"/><polygon points="818.25 453.23 830.42 493.07 794.08 430.92 779.6 387.12 818.25 453.23" style="fill:#081714"/><polygon points="361.25 1434.84 317.24 1467.07 350.24 1453.74 391.93 1423.22 361.25 1434.84" style="fill:#1a3d35"/><polygon points="320.59 1450.13 273.78 1484.41 314.24 1467.69 358.25 1435.99 320.59 1450.13" style="fill:#081714"/><polygon points="317.24 1526.91 317.24 1467.07 350.24 1453.74 350.24 1511.37 317.24 1526.91" style="fill:#2e564d"/><polygon points="273.78 1548.07 273.78 1484.41 314.24 1467.69 314.24 1528.86 273.78 1548.07" style="fill:#102520"/><polygon points="418.04 1564.68 399.68 1578.64 424.54 1570.57 613.54 1565.55 614.48 1564.71 421.66 1564.71 376.92 1498.03 418.04 1564.68" style="fill:#64b095"/><polygon points="379.66 1026.31 435.16 1243.58 418.32 1249.98 437.16 1253.91 439.62 1302.71 439.62 1248.11 376.92 1012.88 376.92 570.46 374.21 1009.09 353.25 1005.81 379.66 1026.31" style="fill:#64b095"/><polygon points="1347.19 1529.46 1328.64 1521.37 666.62 1521.37 650.87 1529.46 663.64 1517.33 1334.42 1517.33 1347.19 1529.46" style="fill:#64b095"/><polygon points="631.46 1548.06 647.04 1534.07 1351.6 1534.07 1366.61 1548.06 1347.94 1537.56 650.87 1538.34 631.46 1548.06" style="fill:#4e8977"/><polygon points="628.29 1558.67 608.03 1570.57 627.67 1552.67 1370.69 1552.67 1390.04 1570.57 1368.69 1557.9 628.29 1558.67" style="fill:#4e8977"/><rect x="831.61" y="399.83" width="26.61" height="16.04" style="fill:#01080c"/><rect x="835.19" y="403.28" width="19.44" height="9.13" style="fill:#226e4a"/><rect x="836.44" y="404.96" width="16.94" height="3.76" style="fill:#3a654a"/><rect x="865.86" y="399.83" width="26.61" height="16.04" style="fill:#01080c"/><rect x="869.44" y="403.28" width="19.44" height="9.13" style="fill:#226e4a"/><rect x="870.69" y="404.96" width="16.94" height="3.76" style="fill:#3a654a"/><rect x="900.11" y="399.83" width="26.61" height="16.04" style="fill:#01080c"/><rect x="903.69" y="403.28" width="19.44" height="9.13" style="fill:#226e4a"/><rect x="904.94" y="404.96" width="16.94" height="3.76" style="fill:#3a654a"/><rect x="934.35" y="399.83" width="26.61" height="16.04" style="fill:#01080c"/><rect x="937.94" y="403.28" width="19.44" height="9.13" style="fill:#226e4a"/><rect x="939.19" y="404.96" width="16.94" height="3.76" style="fill:#3a654a"/><rect x="968.6" y="399.83" width="26.61" height="16.04" style="fill:#01080c"/><rect x="972.19" y="403.28" width="19.44" height="9.13" style="fill:#226e4a"/><rect x="973.44" y="404.96" width="16.94" height="3.76" style="fill:#3a654a"/><rect x="1002.85" y="399.83" width="26.61" height="16.04" style="fill:#01080c"/><rect x="1006.44" y="403.28" width="19.44" height="9.13" style="fill:#226e4a"/><rect x="1007.69" y="404.96" width="16.94" height="3.76" style="fill:#3a654a"/><rect x="1037.1" y="399.83" width="26.61" height="16.04" style="fill:#01080c"/><rect x="1040.68" y="403.28" width="19.44" height="9.13" style="fill:#226e4a"/><rect x="1041.93" y="404.96" width="16.94" height="3.76" style="fill:#3a654a"/><rect x="1071.35" y="399.83" width="26.61" height="16.04" style="fill:#01080c"/><rect x="1074.93" y="403.28" width="19.44" height="9.13" style="fill:#226e4a"/><rect x="1076.18" y="404.96" width="16.94" height="3.76" style="fill:#3a654a"/><rect x="1105.6" y="399.83" width="26.61" height="16.04" style="fill:#01080c"/><rect x="1109.18" y="403.28" width="19.44" height="9.13" style="fill:#226e4a"/><rect x="1110.43" y="404.96" width="16.94" height="3.76" style="fill:#3a654a"/><rect x="1139.85" y="399.83" width="26.61" height="16.04" style="fill:#01080c"/><rect x="1143.43" y="403.28" width="19.44" height="9.13" style="fill:#226e4a"/><rect x="1144.68" y="404.96" width="16.94" height="3.76" style="fill:#3a654a"/><rect x="653.3" y="1600.21" width="9.32" height="44.11" style="fill:#01080c"/><rect x="654.56" y="1609.71" width="6.81" height="25.11" style="fill:#226e4a"/><rect x="655" y="1614.33" width="5.94" height="10.33" style="fill:#3a654a"/><rect x="665.64" y="1600.21" width="9.32" height="44.11" style="fill:#01080c"/><rect x="666.89" y="1609.71" width="6.81" height="25.11" style="fill:#226e4a"/><rect x="667.33" y="1614.33" width="5.94" height="10.33" style="fill:#3a654a"/><rect x="677.97" y="1600.21" width="9.32" height="44.11" style="fill:#01080c"/><rect x="679.23" y="1609.71" width="6.81" height="25.11" style="fill:#226e4a"/><rect x="679.66" y="1614.33" width="5.94" height="10.33" style="fill:#3a654a"/><rect x="690.3" y="1600.21" width="9.32" height="44.11" style="fill:#01080c"/><rect x="691.56" y="1609.71" width="6.81" height="25.11" style="fill:#226e4a"/><rect x="692" y="1614.33" width="5.94" height="10.33" style="fill:#3a654a"/><rect x="717.72" y="1600.21" width="9.32" height="44.11" style="fill:#01080c"/><rect x="718.98" y="1609.71" width="6.81" height="25.11" style="fill:#226e4a"/><rect x="719.42" y="1614.33" width="5.94" height="10.33" style="fill:#3a654a"/><rect x="730.06" y="1600.21" width="9.32" height="44.11" style="fill:#01080c"/><rect x="731.31" y="1609.71" width="6.81" height="25.11" style="fill:#226e4a"/><rect x="731.75" y="1614.33" width="5.94" height="10.33" style="fill:#3a654a"/><rect x="742.39" y="1600.21" width="9.32" height="44.11" style="fill:#01080c"/><rect x="743.65" y="1609.71" width="6.81" height="25.11" style="fill:#226e4a"/><rect x="744.08" y="1614.33" width="5.94" height="10.33" style="fill:#3a654a"/><rect x="754.72" y="1600.21" width="9.32" height="44.11" style="fill:#01080c"/><rect x="755.98" y="1609.71" width="6.81" height="25.11" style="fill:#226e4a"/><rect x="756.42" y="1614.33" width="5.94" height="10.33" style="fill:#3a654a"/><rect x="1234.02" y="1600.21" width="9.32" height="44.11" style="fill:#01080c"/><rect x="1235.27" y="1609.71" width="6.81" height="25.11" style="fill:#226e4a"/><rect x="1235.71" y="1614.33" width="5.94" height="10.33" style="fill:#3a654a"/><rect x="1246.35" y="1600.21" width="9.32" height="44.11" style="fill:#01080c"/><rect x="1247.6" y="1609.71" width="6.81" height="25.11" style="fill:#226e4a"/><rect x="1248.04" y="1614.33" width="5.94" height="10.33" style="fill:#3a654a"/><rect x="1258.68" y="1600.21" width="9.32" height="44.11" style="fill:#01080c"/><rect x="1259.94" y="1609.71" width="6.81" height="25.11" style="fill:#226e4a"/><rect x="1260.38" y="1614.33" width="5.94" height="10.33" style="fill:#3a654a"/><rect x="1271.01" y="1600.21" width="9.32" height="44.11" style="fill:#01080c"/><rect x="1272.27" y="1609.71" width="6.81" height="25.11" style="fill:#226e4a"/><rect x="1272.71" y="1614.33" width="5.94" height="10.33" style="fill:#3a654a"/><rect x="1298.44" y="1600.21" width="9.32" height="44.11" style="fill:#01080c"/><rect x="1299.69" y="1609.71" width="6.81" height="25.11" style="fill:#226e4a"/><rect x="1300.13" y="1614.33" width="5.94" height="10.33" style="fill:#3a654a"/><rect x="1310.77" y="1600.21" width="9.32" height="44.11" style="fill:#01080c"/><rect x="1312.02" y="1609.71" width="6.81" height="25.11" style="fill:#226e4a"/><rect x="1312.46" y="1614.33" width="5.94" height="10.33" style="fill:#3a654a"/><rect x="1323.1" y="1600.21" width="9.32" height="44.11" style="fill:#01080c"/><rect x="1324.36" y="1609.71" width="6.81" height="25.11" style="fill:#226e4a"/><rect x="1324.8" y="1614.33" width="5.94" height="10.33" style="fill:#3a654a"/><rect x="1335.44" y="1600.21" width="9.32" height="44.11" style="fill:#01080c"/><rect x="1336.69" y="1609.71" width="6.81" height="25.11" style="fill:#226e4a"/><rect x="1337.13" y="1614.33" width="5.94" height="10.33" style="fill:#3a654a"/></g></svg>