<svg id="xalians-logo-dna" xmlns="http://www.w3.org/2000/svg" viewBox="0 0 132.07 161.22"><g id="xalians-logo-dna-x"><path id="xalians-logo-dna-x-top" d="M-653.6,842.22c-1.65-1.59-12.81-6.83-17.46-9,23.9-17.4,17.56-64.41,17.56-64.41H-628C-628,807.81-640.29,829.71-653.6,842.22Z" transform="translate(758.03 -766.78)" style="stroke:#86ffb5;stroke-linecap:round;stroke-linejoin:round;stroke-width:4px"/><path id="xalians-logo-dna-x-bottom" d="M-732.58,856.85a50.41,50.41,0,0,0,16.92,7.91C-731.89,883-730.5,926-730.5,926H-756S-750.6,883.43-732.58,856.85Z" transform="translate(758.03 -766.78)" style="stroke:#86ffb5;stroke-linecap:round;stroke-linejoin:round;stroke-width:4px"/><path id="xalians-logo-dna-x-long" d="M-730.5,768.78C-741.25,880.57-643,790.18-628,926H-653.5c-9-115.36-102-19.15-102.53-157.22Z" transform="translate(758.03 -766.78)" style="stroke:#86ffb5;stroke-linecap:round;stroke-linejoin:round;stroke-width:4px"/></g><line id="xalians-logo-dna-line" x1="45.18" y1="48.73" x2="86.61" y2="48.73" style="stroke:#86ffb5;stroke-linecap:round;stroke-linejoin:round;stroke-width:7.533274412155151px"/><line id="xalians-logo-dna-line-2" data-name="xalians-logo-dna-line" x1="37.16" y1="29.9" x2="93.65" y2="29.9" style="stroke:#86ffb5;stroke-linecap:round;stroke-linejoin:round;stroke-width:7.533274412155151px"/><line id="xalians-logo-dna-line-3" data-name="xalians-logo-dna-line" x1="45.22" y1="115.28" x2="78.03" y2="115.28" style="stroke:#86ffb5;stroke-linecap:round;stroke-linejoin:round;stroke-width:8px"/><path id="xalians-logo-dna-line-4" data-name="xalians-logo-dna-line" d="M-697,900.89h26.41" transform="translate(758.03 -766.78)" style="stroke:#86ffb5;stroke-linecap:round;stroke-linejoin:round;stroke-width:8px"/><path id="xalians-logo-dna-line-5" data-name="xalians-logo-dna-line" d="M-716.83,900.89H-709" transform="translate(758.03 -766.78)" style="stroke:#86ffb5;stroke-linecap:round;stroke-linejoin:round;stroke-width:8px"/><line id="xalians-logo-dna-line-6" data-name="xalians-logo-dna-line" x1="39.41" y1="152.87" x2="91.03" y2="153.01" style="stroke:#86ffb5;stroke-linecap:round;stroke-linejoin:round;stroke-width:8px"/><path id="xalians-logo-dna-line-7" data-name="xalians-logo-dna-line" d="M-671,777.85h8.39" transform="translate(758.03 -766.78)" style="stroke:#86ffb5;stroke-linecap:round;stroke-linejoin:round;stroke-width:8px"/><path id="xalians-logo-dna-line-8" data-name="xalians-logo-dna-line" d="M-722,777.85h38.87" transform="translate(758.03 -766.78)" style="stroke:#86ffb5;stroke-linecap:round;stroke-linejoin:round;stroke-width:8px"/></svg>