<svg xmlns="http://www.w3.org/2000/svg" viewBox="0 0 569.26 104.48"><g id="xalians-logo"><path id="xalians-logo-a1" d="M-823.59,804.67q.21,0,3.28,8.94,19.2,54.12,19.55,55.37h-19.55q-.21-.35-3.7-10.47l-8.8-24.65h-.07q-1.53,4.47-25.41,70.8c0,.19-.08.28-.21.28h-19.35a.13.13,0,0,1-.14-.14l28-77.71q7.75-21.51,8.1-22.42ZM-814,886.3h19.34c.14,0,.54,1,1.19,3.14l5.52,15.43-.14.07h-19.41c-.1-.05-.86-2.12-2.31-6.21l-4.33-12.36Z" transform="translate(973.18 -802.46)" style="stroke:#86ffb5;stroke-linecap:round;stroke-linejoin:round;stroke-width:4px"/><path id="xalians-logo-l" d="M-777.68,804.74h18.78a.12.12,0,0,1,.14.14v60.61a.12.12,0,0,1-.14.14h-18.78a.13.13,0,0,1-.14-.14V804.88A.13.13,0,0,1-777.68,804.74Zm0,82H-731s.07,0,.07.14V904.8c0,.09,0,.14-.07.14h-46.64a.13.13,0,0,1-.14-.14V886.93A.12.12,0,0,1-777.68,886.79Z" transform="translate(973.18 -802.46)" style="stroke:#86ffb5;stroke-linecap:round;stroke-linejoin:round;stroke-width:4px"/><path id="xalians-logo-i" d="M-719.9,804.88h55a.13.13,0,0,1,.14.14v18.16a.13.13,0,0,1-.14.14h-55a.13.13,0,0,1-.14-.14V805A.13.13,0,0,1-719.9,804.88Zm18.16,39.52h18.64a.12.12,0,0,1,.14.14v42h18.09a.12.12,0,0,1,.14.14V904.8a.13.13,0,0,1-.14.14h-55a.13.13,0,0,1-.14-.14V886.65a.12.12,0,0,1,.14-.14h18v-42A.13.13,0,0,1-701.74,844.4Z" transform="translate(973.18 -802.46)" style="stroke:#86ffb5;stroke-linecap:round;stroke-linejoin:round;stroke-width:4px"/><path id="xalians-logo-a2" d="M-601.57,804.67q.21,0,3.28,8.94,19.2,54.12,19.55,55.37h-19.55q-.21-.35-3.7-10.47l-8.8-24.65h-.07q-1.53,4.47-25.42,70.8c0,.19-.07.28-.21.28h-19.34a.13.13,0,0,1-.14-.14l28-77.71q7.76-21.51,8.1-22.42ZM-592,886.3h19.34c.14,0,.54,1,1.19,3.14l5.52,15.43-.14.07h-19.41q-.15-.08-2.31-6.21l-4.33-12.36Z" transform="translate(973.18 -802.46)" style="stroke:#86ffb5;stroke-linecap:round;stroke-linejoin:round;stroke-width:4px"/><path id="xalians-logo-n" d="M-555.66,804.46h18.15q.71,1,37.71,57.82,5.24,8,5.31,8.24h.07V844.61a.12.12,0,0,1,.14-.14h18.85c.09,0,.14.1.14.14V904.8a.13.13,0,0,1-.14.14h-18.16q-1.95-2.79-31.91-48.81-10.18-15.5-11.1-17h-.07v65.7a.12.12,0,0,1-.14.14h-18.85a.13.13,0,0,1-.14-.14V804.6A.13.13,0,0,1-555.66,804.46Zm61.38,0h18.85a.13.13,0,0,1,.14.14v18.51a.13.13,0,0,1-.14.14h-18.85a.12.12,0,0,1-.14-.14V804.6A.12.12,0,0,1-494.28,804.46Z" transform="translate(973.18 -802.46)" style="stroke:#86ffb5;stroke-linecap:round;stroke-linejoin:round;stroke-width:4px"/><path id="xalians-logo-s" d="M-435.1,805q12.28,0,22.27,9.78,3.13,3.07,5.24,5.58L-421,832.11l-2.93-3.63q-5.73-6.13-11.45-6.14-5.31,0-7.61,4.12a4.55,4.55,0,0,0-.42,1.95v.28c0,2.28,1.32,4.59,4,6.91q7.6,7.13,19.06,16.55a63.9,63.9,0,0,1,8,8.17,27.2,27.2,0,0,1,6.42,17.6q0,14.87-12.92,23a32.57,32.57,0,0,1-16.4,4q-20.4,0-30.45-20.67,14.88-9.07,15.22-9.14,6.86,12.55,15.71,12.56A11.1,11.1,0,0,0-424.49,882a8.09,8.09,0,0,0,.77-3.21q0-5.44-7.33-11.52-2.65-2.52-10.76-9.08-4.11-3.49-10.33-9.78-9.08-9.55-9.08-19.06v-.63q0-11.87,11.45-19.69A26.91,26.91,0,0,1-435.1,805Z" transform="translate(973.18 -802.46)" style="stroke:#86ffb5;stroke-linecap:round;stroke-linejoin:round;stroke-width:4px"/></g><g id="xalians-logo-x"><path id="xalians-logo-x-long" d="M-971,805h20.27c0,.06,48.36,77.3,62.32,100h-20.33Z" transform="translate(973.18 -802.46)" style="stroke:#86ffb5;stroke-linecap:round;stroke-linejoin:round;stroke-width:4px"/><path id="xalians-logo-x-top" d="M-909,805c.15.14,20.29-.27,20.26.14-1.81,2.71-20.57,32.94-24.38,39l-10.48-15.92C-920,822.53-910.47,806.94-909,805Z" transform="translate(973.18 -802.46)" style="stroke:#86ffb5;stroke-linecap:round;stroke-linejoin:round;stroke-width:4px"/><path id="xalians-logo-x-bottom" d="M-950.92,904.56c-.15-.14-20.29.27-20.26-.14,1.81-2.71,20.57-32.95,24.37-39l10.49,15.91C-939.93,887-949.45,902.61-950.92,904.56Z" transform="translate(973.18 -802.46)" style="stroke:#86ffb5;stroke-linecap:round;stroke-linejoin:round;stroke-width:4px"/></g></svg>