<svg id="unique-letter" xmlns="http://www.w3.org/2000/svg" viewBox="0 0 90.96 102.06"><path class="xalians-logo-x-svg" d="M-712.91,797h21.3q.35.36,16.82,25.63c2.14,3.26,3.57,5.4,4.26,6.42h21.37v.07l-10.68,16.34,33.72,51.46v.14h-21.36q-22.9-34.69-23-35.12h-.14q-.9,1.47-22.9,35.12h-21.36a.12.12,0,0,1-.14-.14q1.11-1.53,33.79-51.46Q-711.79,798.88-712.91,797Zm63.54,0h21.16a.13.13,0,0,1,.14.14q-.42.55-9.5,14.39l-.14.07H-659v-.07Q-651.39,799.79-649.37,797Z" transform="translate(716.07 -795.99)" style="stroke:#86ffb5;stroke-linecap:round;stroke-linejoin:round;stroke-width:2px"/></svg>