<svg id="air" xmlns="http://www.w3.org/2000/svg" viewBox="0 0 439.03 459.41"><path d="M27.54,401.19c68.57-77.76,162.39-117.44,259.88-134.46,45.71-10.62,102.75-9,138.87-43.18,86.34-81.83,20.33-242.38-87.43-194.07-83.25,37.33-23.22,169.46,36.48,132.09-43.4,11.94-69.5-58.84-29.57-77,50.81-20.29,89.09,65.05,52.3,103.88-30.53,35.82-78.68,41.85-120.38,54.58C180.67,266.09,87.46,312.87,27,400.6Z" transform="translate(-26.97 -20.59)"/><path d="M68.82,325.41c26.57-51,81.18-65.74,127.65-84.22,26.75-10.25,62.07-19.33,81.15-52.87,27.57-48.47-11.24-97.73-47-98.33-65.24-1.1-70.73,67.4-36.9,93.2,10.06,7.08,23.92,5.82,30.46-4.82-30.95,18-47.84-36.37-16.81-47.13,11.89-4.64,22.75-2,32,8.33,20.22,20.54,8.44,53.68-11,67.35C174.65,244,95.5,252.15,68.82,325.41Z" transform="translate(-26.97 -20.59)"/><path d="M45.4,398.25c79.66-36.66,165.43-74.58,250.78-69.15,38,2.25,79.59,33.21,59.75,79-9.61,22.74-34.92,37-56.51,32.5-36.65-9.33-26.72-64.5,10.21-71.92-72.4,1.72-53.86,122.75,27.26,110.48,58.2-8.81,95.89-57,84.53-116.46-27.8-145.52-296.25-21.24-376.26,35.08Z" transform="translate(-26.97 -20.59)"/></svg>