<svg id="chemical" xmlns="http://www.w3.org/2000/svg" viewBox="0 0 500 454.06"><path d="M285.2,238.59a73.18,73.18,0,0,1,38,64.21c0,.85,0,1.69,0,2.54l40.14,23.17a116.3,116.3,0,0,0-78.1-136.43Z" transform="translate(0 -22.97)"/><path d="M176.86,306c-.05-1.06-.07-2.13-.07-3.2a73.18,73.18,0,0,1,38-64.21V192.08A116.31,116.31,0,0,0,136.8,329Z" transform="translate(0 -22.97)"/><path d="M250,376a72.88,72.88,0,0,1-36.61-9.8l-40.67,23.3a116.15,116.15,0,0,0,154.91-.31L287.2,365.86A72.82,72.82,0,0,1,250,376Z" transform="translate(0 -22.97)"/><path d="M228.88,160.64v82.45a62.93,62.93,0,0,1,42.24,0V160.44a70.38,70.38,0,1,0-42.24.2Z" transform="translate(0 -22.97)"/><path d="M429.6,336.24a70.14,70.14,0,0,0-47.33,18.28l-70.69-40.81a62.63,62.63,0,0,1-21.37,36.43L361,391a70.41,70.41,0,1,0,68.65-54.75Z" transform="translate(0 -22.97)"/><circle cx="250" cy="278.42" r="47.87"/><path d="M209.79,350.14a62.63,62.63,0,0,1-21.37-36.43l-70.69,40.81A70.16,70.16,0,1,0,139.05,391Z" transform="translate(0 -22.97)"/></svg>