<svg id="dark" xmlns="http://www.w3.org/2000/svg" viewBox="0 0 442.71 498.6"><path d="M260.16-.24c2.19.93,3,2.58,3,4.94a191.81,191.81,0,0,0,5.69,47.35c8.29,33.87,30,63.86,60.41,81.2a171.2,171.2,0,0,0,75.62,22.5c2.69-.05,6.25.42,6.54,3.7.43,4.4-4,5.09-7.34,4.75a149.46,149.46,0,0,0-45.16,7.16c-52.47,16.08-82.62,68.57-91.73,120a239.88,239.88,0,0,0-3.56,25.86c-1.12,4.52,1.84,13.27-4.46,14.07a4.05,4.05,0,0,1-4.28-4.19c-.06-22.78-2.79-45.26-10.4-66.84C227.62,208,177.82,173.4,124.82,165.5A164,164,0,0,0,103,163.26c-4.32-.38-4.7-7.32-.33-8a33.71,33.71,0,0,1,6.11-.23c38.78-.44,78.43-13.4,104.89-42.79,20-21.68,31.86-49.6,37.62-78.27a182.69,182.69,0,0,0,3.06-21.21C255.34,8.05,252.76-1,260.16-.24Z" transform="translate(-28.23 0.29)"/><path d="M28.32,360c.87-2.17,2.48-3,4.8-3,36.21.44,73.48-13.38,94.31-44.22,14.51-20.75,21.91-45.53,23.77-70.62-1.34-9.06,7.22-11.37,8.45-4.08q0,6.72.51,13.41c1.77,61,53.09,104.61,112.47,106.08,5.33-.48,6.3,8.09.65,8.24-68.85-2.4-108.5,55.23-113.08,118.61-1.29,4.48,1.6,11.43-3.48,13.81-3.07.49-5.58-1.48-5.36-4.72A177.48,177.48,0,0,0,149.72,469c-4-32.07-19.71-62.74-46.93-81a125,125,0,0,0-36-16.95A133.26,133.26,0,0,0,33,365.33,4.42,4.42,0,0,1,28.32,360Z" transform="translate(-28.23 0.29)"/><path d="M470.88,323c-.84,2.24-2.48,3.15-4.84,3.15-27.24-.68-54,12.71-67.51,36.73-10.65,17.93-15.51,38.66-16.38,59.36,0,4.65-7.42,5.14-8.06.65a45.15,45.15,0,0,1-.24-6.58c.43-46.84-33-85.27-79.88-89.93-4.11-1.33-10.68,1.21-12.76-3.55a4.16,4.16,0,0,1,4.45-5.44c46,2.22,82.53-32.29,87.24-77.38,1.77-4.75-1.46-13.72,4.42-15.52a4,4,0,0,1,4.82,3.76c.15,21.82,4.91,43.34,19.51,60.28,14.41,16.87,36,25.91,57.63,28.68C463.57,318.14,471.75,316.32,470.88,323Z" transform="translate(-28.23 0.29)"/></svg>