<svg id="fire" xmlns="http://www.w3.org/2000/svg" viewBox="0 0 416.83 500"><path d="M269,498.49c130.89-1.15,243.47-115.81,161.61-222.21,6.61,26.58-8.6,55.74-33.73,76C442.5,184,240.18,147.25,270.2,0c-33.56,36.68-70.85,93.26-76.63,154.54-5.73-12.37-18.31-46.57-12.88-86.29C134.55,106.41,98.8,220.36,101.36,272.1,85,259.55,78,245.6,70.63,230.11-2.12,357,68.39,500.2,208.79,500c-40.5.06-42.8-49-51-86.46,21,21.5,40.23,38.65,70.24,49.23C165.57,395.36,174,325,209.72,250.86c-1.51,43.71,15.58,60.67,45,93.45,24.58,31.65,11.78,69.75,13.42,70.77,4.1,2.56,45.83-38.32,52.61-64.16C354.47,404.69,332.48,470.05,269,498.49Z" transform="translate(-41.59 0)"/></svg>