<svg id="ghost" xmlns="http://www.w3.org/2000/svg" viewBox="0 0 344.99 418.08"><path d="M396.05,303.85c2.82-11.74,6.13-22.8,9.48-33.52q2.37-7,5-13.91c8.41-23,13.16-48,12.74-72.78,0-1.07,0-2.16-.09-3.24,0-.63-.05-1.26-.07-1.88,0-.8-.09-1.6-.14-2.41A149.68,149.68,0,0,0,408.9,120C397,96.88,377.64,78.81,354.08,65.82L353,65.25c-1.25-.68-2.51-1.35-3.78-2-1-.52-2-1-3.05-1.52-.65-.31-1.28-.63-1.93-.93q-2.4-1.14-4.84-2.2l-.3-.13c-22.6-9.86-48-15.53-73.94-17l-.35,0c-1.8-.1-3.61-.18-5.41-.24l-1.59-.06c-1.38,0-2.76-.06-4.15-.08l-2.87,0L248,41c-1.39,0-2.78,0-4.16.08l-1.57.06q-2.72.09-5.43.24l-.33,0c-25.9,1.52-51.35,7.19-74,17l-.3.13c-1.63.71-3.25,1.44-4.84,2.2-.65.3-1.29.62-1.93.93-1,.5-2.05,1-3.06,1.52-1.27.65-2.52,1.32-3.77,2l-1.06.58c-23.57,13-43,31.06-54.82,54.19a149.74,149.74,0,0,0-14.09,56.1c0,.81-.09,1.61-.13,2.4,0,.63-.05,1.26-.07,1.89,0,1.09-.08,2.17-.09,3.24-.42,24.78,4.33,49.82,12.74,72.78q2.63,6.91,5,13.91c3.34,10.72,6.66,21.78,9.47,33.52.46,2.08.91,4.16,1.32,6.26,5.19,19.71-15.79,42-1.72,59.66A11.73,11.73,0,0,0,106.3,371a107,107,0,0,0,26.94,18.12c.17.12.35.22.52.33a29.31,29.31,0,0,0,7.55,3.36c3.43,1.47,6.9,2.85,10.38,4.15a10.69,10.69,0,0,1,3.6,2.14,8.23,8.23,0,0,1,2.25,4,7.82,7.82,0,0,1,0,2.69,165.47,165.47,0,0,0-1.35,19,11.72,11.72,0,0,0,1,5,11.59,11.59,0,0,0,4.9,6l12,7.25a11.59,11.59,0,0,0,17.38-7.87c.69-3.7,1.85-7,3.85-8.67,3.72-1.88,8.9-.47,10.64,3.7a14.68,14.68,0,0,1,.57,2.81,10,10,0,0,1-.07,1.62c-.24,2.73-.57,6.51-.87,10.13a11.56,11.56,0,0,0,7,11.63,11.37,11.37,0,0,0,3.79,1.08l14,1.48A11.55,11.55,0,0,0,243.2,447l0-.66c0-2.58,0-5.18,0-7.5.42-6.12,2.21-11.09,7.65-11.24,5.44.15,7.24,5.12,7.66,11.23,0,2.33,0,4.93,0,7.51l0,.66A11.55,11.55,0,0,0,271.19,459l14.05-1.48a11.37,11.37,0,0,0,3.79-1.08,11.58,11.58,0,0,0,7-11.63c-.3-3.62-.63-7.4-.88-10.13a11.28,11.28,0,0,1-.07-1.62,14.66,14.66,0,0,1,.58-2.81c1.74-4.17,6.91-5.58,10.63-3.7,2,1.68,3.16,5,3.86,8.67a11.59,11.59,0,0,0,17.38,7.87l12-7.25a11.52,11.52,0,0,0,4.9-6.05,11.35,11.35,0,0,0,1-5,165.53,165.53,0,0,0-1.34-19,7.82,7.82,0,0,1,0-2.69,8.23,8.23,0,0,1,2.25-4,10.59,10.59,0,0,1,3.6-2.14c3.47-1.3,6.94-2.68,10.38-4.15a29.08,29.08,0,0,0,7.54-3.36c.17-.11.35-.21.52-.33A107,107,0,0,0,395.33,371a11.63,11.63,0,0,0,1.12-1.21c14.07-17.66-6.91-39.95-1.71-59.66Q395.35,307,396.05,303.85ZM275.26,322.07c-16.17-17.25-.9-51.95,16.94-62.44,10-5.77,24.28-10.71,37.18-10.57,8.47.73,16.16,4.13,21.46,11.84.23.34.45.7.65,1.06,19.77,35.39-8.67,75.29-42.39,76.55C296.55,337.3,284.08,331,275.26,322.07ZM150.14,262c.2-.36.42-.72.65-1.06,5.3-7.71,13-11.11,21.46-11.84,12.9-.14,27.17,4.8,37.17,10.57,17.84,10.49,33.12,45.19,17,62.44-8.82,8.9-21.3,15.23-33.84,16.44C158.8,337.25,130.37,297.35,150.14,262Z" transform="translate(-78.32 -41)"/></svg>