<svg id="ice" xmlns="http://www.w3.org/2000/svg" viewBox="0 0 420.62 482.53"><path d="M248.88,9.36c.68,44.25,0,88.55.25,132.82,9.19-4.73,77.34-90.27,68.36-46.18-22,22.74-44.63,44.85-67.09,67.12-3.88,23.09-.43,49.1-1.3,72.89,19.53-13.89,45.63-23.89,61.6-41.29,6.68-30,13.56-60,20.44-90,1.71-10.43,17.24-7.37,15.11,2.69-1.44,7.7-3.24,15.32-5,23-4,18.47-9,37.2-12.48,55.55,31.07-18.94,62-39,93.08-58.28,16.3-7.52,16.61-20.21,26.91-.15-32.89,26-75.94,47.32-111.68,72.28,26.8,6.65,54.11,11.61,80.7,18.85,7.27,3.67,3.14,16.16-5.28,14.17-32-5.59-64.14-16.8-95.87-20.56-75.64,50.78-76,25.87,1.39,74,30.73-5,61.6-16.5,92.42-23.37,8.39-4.3,16.7,7.43,8.75,13.15-26.47,8.68-53.88,14.26-80.78,21.95,17.55,16.95,134.87,61.3,107.89,79.55C408.7,359.58,370,333.17,332,312.45c2.33,22.27,14.66,53,19.28,78.3-14.56,43.58-33.47-78.16-38.86-87.55-17.55-16.24-43.06-25.36-63.35-39,.92,24.21-2.2,49.92,1.15,73.45,22.58,22.81,45.93,45,68,68.25,5.8,41.19-58-40.32-67.56-46-4.54,36.71.48,89.75-1.71,131.84-4.5-1.26-12.83,1.85-15.6-1.43-.34-42.92,1.55-90.18-.71-131Q208.33,383.75,183.91,408c-5.17,7.26-19.18,16.3-21,1.81,18.33-26.11,46.37-47,68.26-71,6-22.92.47-49.84,2.19-74.05-19.87,13.54-43.52,24.42-61.22,40q-10,45.12-20.42,90.14c-.32,10.7-17.18,10.29-15.62-.84,4.22-25.12,15.17-56.86,16.67-78.64q-55.2,34.71-110.4,69.43c-4.1-.26-5.75-8.6-8.83-11.66,33.79-25.31,75.79-47.27,111.78-71.91-26.15-6-52.43-11.55-78.46-18.06-10.24-2.18-5.93-18,4-14.84,31.78,5.38,64.29,18.29,95.81,19.8,74-50.41,75.59-24.64-1-72.56-31.81,2-64.25,16.87-96.24,23.1C59.84,241.34,56.39,226,66,223.83c25.71-7.41,51.78-13.57,77.56-20.75C106.07,180.61,67.83,158.77,30,136.8c-1.58-3.73,4.87-9,6.1-13.19,38.19,17.82,77.12,44.89,115.58,65.68.53-10.46-39.15-111.41-5.77-82.82,8.9,30.69,16.4,61.81,24.61,92.7,18.63,14.3,41.87,24.43,62,37.32,2.77-19.85,0-46.7,1-68.88-3-10.24-15.24-16.25-21.75-24.68-15.53-15.58-31.11-31.11-46.58-46.75-7.87-15.16,10-16.52,17.79-4.12,16.79,16.55,33.25,33.6,50.15,49.95.77-44.06.38-88.49.21-132.65Z" transform="translate(-29.71 -9.36)"/><path d="M119,112.7c8.77.42,7.81,12.51,10.37,18.71,2.12,14.37,12,33.25,10.25,45.56-30.94-18-39.9-15.09-46.27-53.34-.74-2.83-.78-2.87-3.55-2.14-12.13,2.73-21.42,9.9-26.33-6.18-.48-1.3-.82-2.47.92-2.75,7.67-.06,38.64-15.1,40-6.38,5,12.31,4.35,30.52,12.77,39.87C118,136.33,102.1,115,119,112.7Z" transform="translate(-29.71 -9.36)"/><path d="M123.42,392.48c-16.11-1.94-1.72-23.61-2.52-33.19-6.18,3.27-4.48,15.18-7.28,21.51-3,5.65-.9,22.44-8.62,21.95-7.13-3.23-36.12-4.9-36.84-10.78,4.38-16.88,14.65-9.18,27.14-7,17.68-44.71-4.07-25.86,45.23-56.51,7.86-5.69-4.14,26.65-3.76,30.68C132.23,369,135.72,389.55,123.42,392.48Z" transform="translate(-29.71 -9.36)"/><path d="M67.85,291.23c20.51,4.14,42,8.06,61.32,14.24C95.4,328.14,99.42,333.9,59.61,322.55c-2-.45-2.5-.13-3,1.85-3.21,12.44-1.4,24.22-18.43,20.48-1.45-.18-1.61-.46-1.26-2,11.22-49.94,1.54-39.22,49.67-29.65,14.22-1.38-16.22-5.7-19.59-7.25C58.61,304.31,60,291.57,67.85,291.23Z" transform="translate(-29.71 -9.36)"/><path d="M41.23,162.88c11.67-2.39,9.57,12.22,12.83,19.68.67,2.53,1.12,2.82,3.6,2.15,34.65-12.79,37.26-5.24,66.8,12.21,12.07,5-26.32,9.55-30,12-10.33.38-28.63,14.07-34.58,1.28-7.12-12.5,42.63-14.67,24.56-17-7.5.14-40,15-41.25,7.25q-4.64-17.57-9.25-35.13C32.75,161.73,39.16,163.28,41.23,162.88Z" transform="translate(-29.71 -9.36)"/><path d="M228.8,393.59c3,27.81-4.14,30.64-22.72,48.44-2.15,2.14-2.2,2.45-.06,4.59,8.63,9,18.91,13.54,7.27,25.67-5.29,2.28-22.26-21.45-28.81-25.82-3.6-8.06,27.14-25.41,29-35-2.56-5-25.4,35.24-30.86,10.42,10.59-17.86,30.3-30.74,44-46.83C231.6,373.14,227.63,391.1,228.8,393.59Z" transform="translate(-29.71 -9.36)"/><path d="M182.56,78.6c5.77-19.12,22.83,5.24,29.67,12,5.19-4.27-24.23-25.87-28.29-32.43,3.05-11,19.15-19.67,26.65-29.64,1.24-1.23,1.47-1.25,2.52.08,11.95,12.27,1.51,17-7.42,26.15-1.7,1.64-1.71,2.19-.07,3.82,30.78,25.9,22.26,29.5,23.3,66.21a1.37,1.37,0,0,1-2.44,1.14C212.8,109.68,192.46,97,182.56,78.6Z" transform="translate(-29.71 -9.36)"/><path d="M441.76,338.48c-12.29,2.45-10.24-12.75-13.64-20.71-.49-1.86-.84-2.07-2.71-1.57-36.06,13.06-37.74,5.31-68.48-12.64-8.61-5,48.84-14.28,54.87-17.67,4.91-1.89,10.45.44,10.87,6.4,3,11.85-31.21,10.09-28.15,15.49,8.7,2.46,42.38-16.08,44.9-6.8q4.54,17.46,9.15,34.91C449.67,339.51,444.07,338.13,441.76,338.48Z" transform="translate(-29.71 -9.36)"/><path d="M413.57,209.8c-7-2.81-65.33-10.83-58.83-16.14,30.34-19.07,31.59-27,68.3-15.16,1.87.43,2.24.18,2.66-1.67,3.33-12.29,1.1-24.4,18.11-21.05,4.79,3.35-6.17,30-6.36,37.83-2.18,9.54-40.26-11-46.09-4.51,8.51,3.77,19.78,2.75,27.79,8.08C423.41,201.25,420.35,210.3,413.57,209.8Z" transform="translate(-29.71 -9.36)"/><path d="M359.48,108.4c14.76,2.45,2.74,23,1.72,32.38,7.22,4.44,7.83-42.9,15-42.73,11.78,3.89,29,3.87,38.1,10.13-4.08,17.09-13.51,10.57-26.32,8-2.2-.5-2.69-.17-3.18,2-6.71,40.63-11.26,34.84-45.43,55.18C341.14,164.21,349.43,104.52,359.48,108.4Z" transform="translate(-29.71 -9.36)"/><path d="M253.5,104.52c-4-24.38,8.15-31,23.83-46.5.91-6.71-13-11.48-14.37-18.39,1.74-3.35,4.32-13.21,8.6-11.39,8.88,8.88,17.81,17.72,26.65,26.62C298.15,64.27,277,77.09,270.66,86c-4.92,7.44.46,4.2,3.58.22,5.83-4.73,10-12.63,17.38-14.83,11.16.19,9.1,12.9,1.4,17.4-12.58,12.46-24.94,25.19-37.66,37.5-4.42-1.57-.5-16.55-1.76-21.78Z" transform="translate(-29.71 -9.36)"/><path d="M364.05,388.56c-13.25-1.8-16-49.69-22.51-62.62,1.13-6,29.95,16.52,36,18.15,8.53,8.18,7.33,23.16,11.74,33.91,3.6,6.21,18.12-6.1,23.57-2.07,1.81,3.14,8.49,10.05,5,12.69C379,395.51,381,412.49,372.19,372.25c-1.87-3.49-2.47-19.32-7.25-16.17C366.24,365.54,379.17,385.66,364.05,388.56Z" transform="translate(-29.71 -9.36)"/><path d="M299.86,422.1c-6.45,20.54-22.43-6.92-30.71-11.75-1.64,8.85,34.09,28.79,28.62,36.32-8.72,6.48-19.91,24.36-28.69,26C257,460,268.15,455.43,277,446c1.53-1.53,1.44-2-.09-3.49-29.73-25-23-29.71-23.25-65.64-.54-2.23,1.53-3.31,2.79-1.18C269.94,391.56,289.8,404.24,299.86,422.1Z" transform="translate(-29.71 -9.36)"/></svg>