<svg id="light" xmlns="http://www.w3.org/2000/svg" viewBox="0 0 497.28 497.28"><path d="M499.2,248.16v7.68a15.77,15.77,0,0,1-1.59,4c-3.17,5.15-7.85,7.57-13.82,7.65-10.47.14-21,.15-31.43.25-22.07.22-44.15.16-66.23.11-15.75,0-31.51-.22-47.26-.32-2.2,0-2.75.31-3,1.57s.09,1.75,2.16,2.61q7.86,3.29,15.74,6.52c21.39,8.76,42.86,17.31,64.13,26.35,3.68,1.57,7.4,3.07,11,4.8a15.29,15.29,0,0,1-12.37,27.94c-3.13-1.22-6.18-2.64-9.27-3.95-26.78-11.42-53.9-22-80.76-33.25-.51-.21-1-.4-1.57-.6a1.52,1.52,0,0,0-1.89.59,1.67,1.67,0,0,0,.15,2.54c1.77,1.73,3.52,3.48,5.28,5.24L435.59,415.18c2.2,2.2,4.5,4.33,6.6,6.63A15.29,15.29,0,0,1,427.63,447a16.06,16.06,0,0,1-8.06-4.51c-5-5-10.12-10-15.15-15q-50.19-50.26-100.36-100.55c-.85-.84-1.69-1.71-2.58-2.51-1.1-1-1.86-.91-2.88.07-.86.82-.34,1.61,0,2.41,1.62,3.91,3.3,7.81,4.89,11.73,8.74,21.57,16.88,43.38,26.44,64.62,2.2,4.88,4.29,9.82,6.18,14.83a15.28,15.28,0,0,1-28.27,11.59c-.54-1.16-1-2.35-1.49-3.54-6.49-15.74-13.7-31.19-19.82-47.1-4.94-12.83-10-25.63-15.37-38.29-.38-.88-.76-1.76-1.2-2.62a2,2,0,0,0-2.48-.89,1.61,1.61,0,0,0-1.32,1.75c0,.8,0,1.6,0,2.4V476.9c0,1.12,0,2.25.08,3.36a32.2,32.2,0,0,1-.11,6.94,15,15,0,0,1-9.23,12.5c-.8.36-1.64.63-2.46.94h-7.2c-.36-.16-.72-.33-1.09-.47-6.92-2.74-10.51-7.94-10.54-15.3q0-5.16,0-10.32V341.6c0-1,0-1.92,0-2.88s-.7-1.5-1.68-1.68c-1.75-.31-1.93,1.08-2.37,2.14-9.85,23.88-20,47.63-30.18,71.38a26.36,26.36,0,0,0-1.57,4.27,64.36,64.36,0,0,1-6.06,15.33c-2.83,5.32-7.27,8.34-13.26,8.52a14.53,14.53,0,0,1-13.48-7.27c-3.27-5.32-3.1-10.91-.31-16.26a58.57,58.57,0,0,0,4.26-10.89,40.56,40.56,0,0,1,1.7-4.49c9.93-23.24,19.89-46.47,29.54-69.82.49-1.19.94-2.38,1.44-3.56a1.69,1.69,0,0,0-.71-2.27c-1.09-.76-1.55-.77-2.69.35-3,2.91-5.92,5.84-8.86,8.79q-32.67,32.67-65.2,65.46C114,411,101.76,423.06,89.59,435.21c-2.72,2.72-5.42,5.45-8.26,8a15.29,15.29,0,0,1-21.44-21.78c2-2.24,4.33-4.27,6.48-6.41q22.5-22.49,44.92-45,33-33.3,66.3-66.39c.45-.45.9-.92,1.3-1.41a1.63,1.63,0,0,0-.16-2.19,1.51,1.51,0,0,0-1.88-.63c-.45.17-.9.34-1.34.53q-42,17.37-84,34.74c-2.43,1-4.85,2.11-7.35,2.93a15.27,15.27,0,0,1-12.28-27.76A32.31,32.31,0,0,1,75.75,308q42.9-17.76,85.81-35.49c1-.43,2.05-.89,3.08-1.32a2,2,0,0,0,1.23-2.55,2,2,0,0,0-2-1.76c-2-.23-4-.3-6-.35-7.28-.15-14.55.36-21.83.39-3.36,0-6.73-.05-10.08.18-7.18.5-14.38.53-21.58.66-16.07.29-32.15,0-48.22-.24-12.64-.17-25.28-.08-37.92-.08-7.43,0-12.91-3.74-15.49-10.63-.25-.67-.6-1.3-.9-1.95v-5.76a8.85,8.85,0,0,0,1.22-2.58,15,15,0,0,1,12.71-9.62,40.24,40.24,0,0,1,4.79-.26c10.79,0,21.59,0,32.39.2q26.5.44,53,.18c8.56-.07,17.1-.67,25.65-.83,10.47-.2,21-.13,31.43-.17.32,0,.64,0,1,0,.75,0,1.5-.12,1.71-1s-.38-1.5-1.15-1.85a20.25,20.25,0,0,0-3.1-1.28c-6.53-1.81-12.51-4.86-18.46-8A44.12,44.12,0,0,0,139,222q-29.82-11.7-59.31-24.2c-2.29-1-4.6-1.87-6.82-3a15.29,15.29,0,0,1,6.44-29,18.84,18.84,0,0,1,7.87,1.84Q116,180,145.09,191.43c4.54,1.79,9.18,3.38,13.36,5.92,5.67,3.45,12.13,4.94,18.14,7.53a1.58,1.58,0,0,0,2.09-.57c1-1.26,1-1.72-.34-3-3.34-3.34-6.71-6.64-10-10L68.62,91.43c-2.88-2.89-5.85-5.7-8.66-8.65A15.29,15.29,0,0,1,81.47,61.07c4,3.71,7.77,7.61,11.61,11.46l100,100.2c2.37,2.38,4.74,4.76,7.16,7.09a2,2,0,0,0,3.23-.41c.53-.8.14-1.55-.14-2.28-1.5-3.79-3-7.58-4.53-11.37-9-22.25-18.62-44.22-27.79-66.39-1.83-4.44-3.78-8.83-5.4-13.34A15.28,15.28,0,0,1,194,74.74c2.59,6,5,12.12,7.53,18.18,10,24,20.43,47.8,30,72,.14.37.31.74.46,1.1.34.82.84,1.36,1.83,1.15s1.66-.61,1.69-1.7c0-.88,0-1.76,0-2.63V27.72c0-3,0-5.92,0-8.88A15.31,15.31,0,0,1,246.35,4l1.81-.62h5.76c.59.24,1.18.49,1.77.71,6.3,2.38,9.78,6.88,10.48,13.61.34,3.29-.07,6.55-.07,9.83q0,66.84,0,133.68c0,1,0,1.92,0,2.88a9.25,9.25,0,0,0,.24,1.65,2,2,0,0,0,1.94,1.51c.87.13,1.32-.43,1.64-1.11s.72-1.61,1.06-2.42c12.07-28.5,23.76-57.17,35.51-85.81a47.41,47.41,0,0,1,1.94-4.38,15.27,15.27,0,0,1,28.69,7.16,18.66,18.66,0,0,1-1.68,7.43C323.37,117.54,311.39,147,299,176.34c-.25.59-.5,1.18-.73,1.77a1.44,1.44,0,0,0,.62,1.86c1.28.93,1.73.86,3.42-.82q21.83-21.79,43.56-43.67Q382.28,98.79,419,62.32a21.7,21.7,0,0,1,3.48-2.93,15.25,15.25,0,0,1,18.48,1.37c6.85,6.14,6.94,16.07.19,22.76Q400.75,123.6,360.75,164c-11.92,12.06-24,24-36,36-.62.62-1.26,1.22-1.88,1.85a1.36,1.36,0,0,0-.19,1.75c.69,1.41,1.32,1.65,3.15.88Q339.47,198.8,353,193c20.52-8.77,41-17.64,61.9-25.48a32,32,0,0,1,3.88-1.27,15.27,15.27,0,0,1,18.29,18.34,15,15,0,0,1-9.77,11c-7.63,2.9-15.24,5.85-22.79,8.93-22.29,9.09-44.27,18.93-66.53,28.12-.44.18-.88.38-1.3.6a1.61,1.61,0,0,0-.85,2c.22.84.62,1.49,1.57,1.57.63.06,1.28.06,1.91.06q58,.26,115.92.06c9.28,0,18.56-.08,27.83-.23C491.38,236.61,496.51,240.46,499.2,248.16ZM251,191.57a60.55,60.55,0,0,0-.35,121.09c35.64.13,60.84-28.91,60.81-60.38A60.5,60.5,0,0,0,251,191.57Z" transform="translate(-1.92 -3.36)"/></svg>