<svg id="metal" xmlns="http://www.w3.org/2000/svg" viewBox="0 0 483.96 404"><path d="M474,298.53a12.88,12.88,0,0,0-4-6.33c-13-10.45-26.16-20.54-39.17-31-7.07-9.06-7.91-27.16-12.27-39.25a13.49,13.49,0,0,0-3.78-6.45c-14.4-11.55-29-22.68-43.36-34.28-7.89-9.36-8.36-26.7-12.81-39.36C316.91,102.31,269.34,71.74,225.71,35.2c-5-4-10.16-1.44-15.18-1.14C191,35.34,171.4,37.15,151.85,39a3.33,3.33,0,0,0-2.29,2.1c-6.63,22.45-13.17,45-19.79,67.67l7.36,7.66c-10.71.91-20.55,1.77-30.4,2.59C101.08,120.8,92,116.21,88.91,125,83,144.83,77.38,164.86,71.42,184.69c-2.68,7.35,1.79,8.43,5.27,12.95-14.88,1.94-28.48,2.39-43.15,4-1.19.13-2.74,2.46-3.29,4.28-6.3,22-13.44,44.17-19.25,66.17C55.82,326.19,99.93,381.58,144,437c38.09-5.33,76.1-12,114.24-17.93-.58-2.74-1-4.81-1.66-7.79,3.45,3.19,5.76,6.51,9.66,6.36,36.92-5.48,73.5-11.47,110.46-17.45-.55-2.66-1-5-1.43-6.83,3.15,1.83,6.37,5.53,9.3,5.12,36.84-5.1,73.54-12.11,110.42-16.62C489,354.07,480.59,326.39,474,298.53ZM353,152.24c5.17,21.51,10.53,41.78,15.92,63.43l-97.61,10.17c2.43-22.35,5.8-43.67,8.26-65.92.54-4.69,1.87-5.8,4.79-6,7.79-.54,15.57-1.36,23.36-2.11,13.59-1.3,27.18-2.57,40.76-4C351,147.56,352.18,148.71,353,152.24ZM228.32,94.38l.4-.31q-7.82-24.15-15.66-48.36c6.28-2.27,7.58-2.54,10.69,1,4,4.52,10.8,7.73,12,12.44,1.76,7.18,6.8,20,8.76,26,8.76,27.14,10.44,31.35,26.64,44l-23.47-62.7.6-.72q45.33,35.52,90.68,71l-.24,1c-19.22,1.35-38.41,4-57.63,5.57-3.43.31-6.78,1-10.31-1.92-37.87-31.19-74.58-60.63-112.85-91.73C213.23,46.09,193.27,34.58,228.32,94.38Zm-84,32.66c1-.08,2.55,1.63,3.13,3.09,5.3,13.23,10.35,26.65,15.68,39.86,19.34,26.39,45.31,42.57,66.56,66.23-7.21.34-13.2,3.56-19.05-3.23-20-18.12-40-36-60-54-17.43-15.68-34.84-31.41-53.16-47.94C113.7,129.61,129,128.19,144.31,127ZM98,252.56c9.06,16.68,23.85,26,35.2,39.52,13.67,14.13,27.33,28.28,41.69,43.14-10.32.08-19.41,6.39-27.54-4.66C129.16,310.41,110.7,290.8,92.37,271c-17.79-19.24-35.56-38.5-54.12-58.6C93.33,211.12,76.25,190.91,98,252.56Zm53.45,172.09c3.31-26.22,6.48-51.32,9.66-76.41,22.16-2.89,43.89-5.69,65.62-8.62,2.65-.36,3.65,1.26,4.46,4.56,5.38,22,11,43.39,16.37,65.44Zm60.34-101.38c3.66-24.59,7.18-48.44,10.87-72.23a4.5,4.5,0,0,1,2.87-3.14q32.06-3.78,64.13-7c1-.1,2.69,1.47,3,2.8,5.65,21.85,11.13,43.79,16.8,66.29ZM270.11,406c3.15-26.15,6.17-51.27,9.22-76.67,22.13-3.68,44.29-5.18,66.46-8.24,2.51-.31,3.13,1.47,3.8,4.15,5.49,22.05,10.9,43.19,16.41,65.45Zm61.08-98.08c2.93-25,5.71-48.89,8.67-72.77.15-1.16,2-2.57,3.11-2.72,10.93-1.46,21.89-2.74,32.84-4,11.47-1.27,22.94-2.41,34.68-3.64,6.06,23.2,12.06,46.19,18.24,69.83Zm62.93,15.36c.11-10.42,1.51-12.1,8.76-11.67,18.72-2.14,37.44-4.36,56.17-6.25,8.12-.82,8.17-.51,10.94,10.36,4.72,18.5,9.38,37,14.17,56L387.36,387C389.67,365.2,391.88,344.24,394.12,323.29Z" transform="translate(-11 -33)"/></svg>