<svg id="plant" xmlns="http://www.w3.org/2000/svg" viewBox="0 0 467.01 444.39"><path d="M272.63,335.65a6.49,6.49,0,0,1-4.32-10.44c39.85-50.92,71.62-83.65,125.82-122.12-3.22,1.66-6.46,3.28-9.64,5s-6.48,3.51-9.62,5.43a553.26,553.26,0,0,0-123,101.8c-6.77,7.5-7.53,7.29-12-2-15.37-31.93-8.13-60.55,13.56-86.42,27.13-32.37,63-50.11,103.5-59.48,37.19-8.61,74.59-8.55,112-1.6,16.43,3,17,3.4,12.88,19.4-10.68,41.66-25.5,81.42-56.31,113.08-26.17,26.89-59.31,37.93-95.63,41.53C320.16,340.79,289.43,337.71,272.63,335.65Z" transform="translate(-16.98 -28)"/><path d="M84.73,239.45c33.3,11.75,66.28,23.3,99.1,35.35,7,2.58,11,5.4,9.84,13.91a63,63,0,0,0,1.52,23.52c1.43,5.86-1,8-6.33,9.24-25.92,5.82-50.88,1.91-74.85-8.2-35.15-14.84-62.27-39.68-84.26-70.45-3.82-5.34-7.58-10.73-11.22-16.2-2.88-4.34-1.75-7.19,3.36-8.81,50.05-15.85,100.28-20.87,151-3,20.17,7.13,29.78,27.18,23,47.79-1.3,3.92-3.28,3.94-6.53,3.05-17.24-4.76-34.46-9.64-51.8-14C120,247.32,102.34,243.52,84.73,239.45Z" transform="translate(-16.98 -28)"/><path d="M236.44,105.42c-2.49,10.1-5.21,20.14-7.41,30.3-4.95,22.87-10,45.74-12.53,69-.75,7-3.68,6.69-7.87,2.93-12.91-11.58-18.29-26.77-19.59-43.47-4-50.8,19.24-89.66,54.81-122.88,4.41-4.12,9.35-7.65,14-11.57,3.32-2.83,5.6-2.29,7.07,1.79,16,44.27,25.73,89.12,10.44,135.68-5.06,15.41-13.46,29.19-26,39.82-5.15,4.36-11.87,10-18.17,6.43-5.32-3-2.05-11.09-1.83-17C230.39,166.11,233.22,135.83,236.44,105.42Z" transform="translate(-16.98 -28)"/><path d="M226.87,221.89c.47-3.22-4.22-4.4-5.66-1.48-9.69,19.68-29.94,78.45-12.56,110,22.81,41.48,37.91,85.31,24.71,136.45-1.44,5.58,7,7.76,9.29,2.48,27.61-63.1,15-102.59-5.57-137.35C225.1,311.75,219.71,270.42,226.87,221.89Z" transform="translate(-16.98 -28)"/></svg>