<svg id="psychic" xmlns="http://www.w3.org/2000/svg" viewBox="0 0 457.58 382.34"><path d="M23.21,249.06c247,247,457.58,0,457.58,0C245.18,13.45,23.21,249.06,23.21,249.06Zm43.46.48s179.81-190.86,370.66,0C437.33,249.54,266.73,449.6,66.67,249.54Z" transform="translate(-23.21 -60.66)"/><path d="M243.89,154.58c5.59-.36,11.21-.5,16.83-.49V60.66h-19v94.07Z" transform="translate(-23.21 -60.66)"/><path d="M241.76,345.89V443h19V346.58C254.39,346.58,248.05,346.36,241.76,345.89Z" transform="translate(-23.21 -60.66)"/><path d="M366.78,180.26l76.13-76.13L429.5,90.72,346.83,173.4A65.44,65.44,0,0,1,366.78,180.26Z" transform="translate(-23.21 -60.66)"/><path d="M144.63,317.66a12.85,12.85,0,0,1-1.62-1.05L59.57,400,73,413.45l89.78-89.77A58.5,58.5,0,0,1,144.63,317.66Z" transform="translate(-23.21 -60.66)"/><path d="M358,315.08c-2.82,1.37-5.64,2.72-8.46,4-3.36,1.53-6.77,2.89-10.23,4.12l90.24,90.24L442.91,400Z" transform="translate(-23.21 -60.66)"/><path d="M157.4,182.75c1.9-.64,3.81-1.26,5.73-1.88L73,90.72,59.57,104.13,143.43,188C148,186.07,152.66,184.33,157.4,182.75Z" transform="translate(-23.21 -60.66)"/><circle cx="228.79" cy="191.43" r="71.21"/></svg>