<svg id="rock" xmlns="http://www.w3.org/2000/svg" viewBox="0 0 484.46 500"><polygon points="410.73 315.27 469.35 323.86 322.88 476.44 282.07 486.88 410.73 315.27"/><polygon points="384.91 245.07 409.33 298.22 477.13 214.38 384.91 245.07"/><polygon points="484.46 222.62 475.28 315.05 416.67 306.46 484.46 222.62"/><path d="M409.26,309.34l-24.43-53.16L336.65,345c-.47,4.27-15.48,59.3-18.57,78.05-.24,1.45-2.39,9.3-.94,9.5Z" transform="translate(-7.27)"/><path d="M172.34,291.85l-10.4-25.72-48.52,77.16L215.28,477.87S174.47,302.55,172.34,291.85Z" transform="translate(-7.27)"/><polygon points="12.04 357.2 90.69 341.41 0 218.6 12.04 357.2"/><polygon points="9.83 209.06 148.23 255.43 99.83 335.1 9.83 209.06"/><polygon points="19.28 364.71 168.87 481.22 208.77 489.68 97.06 349.41 19.28 364.71"/><polygon points="254.06 238.75 155.63 192.42 220.04 478.96 254.84 500 254.06 238.75"/><polygon points="349.23 172.41 266.75 223.06 262.41 2.39 349.23 172.41"/><polygon points="246.76 0 153.92 174.48 254.01 223.8 246.76 0"/><polygon points="347.96 187.39 294.44 452.36 264.21 497 266.62 237.84 347.96 187.39"/></svg>