<svg id="sand" xmlns="http://www.w3.org/2000/svg" viewBox="0 0 488.14 278.71"><path d="M476.37,317.87c-54.09-46.61-54.61-157.4-102.57-192.8-51.57-38.23-70.54-.84-108.29,34.81-24.93-31.45-58.47-69-95.74-33.78-55.7,52.69-75,98.69-135.42,171.24C8.82,328,3.7,345.23,5.06,354.77c6,42.16,154.7,25.6,163.18,26.26,197.74,15.33,242,.06,286.05-4.29C504,371.83,499.4,337.71,476.37,317.87ZM117.5,319C53,278,197,238,197.2,233.8,194.35,236.93,117,319.54,117.5,319Zm80.25-85.8c11.47-11-17.41-71.06-23.11-82.23-2.78-5.44-2.78-11.18-1.28-16.7,48-28.1,56.63-6.65,86.5,31.31C241.48,184.19,217.43,211.52,197.75,233.19Zm265.47,83.7c15.36,15.69,38.54,45.13-28.33,53.73-45.82,5.89-120.2,7.45-234.41,1.87-9.92-.48,224.6-60.48,170-108.14-40.61-35.41-55.74-51.93-29.51-80,30.79-33-10.38-33.58-18-66.09C349.48,113,353,118.14,365.1,127,417.92,163.24,403.22,255.59,463.22,316.89Z" transform="translate(-4.86 -108.99)"/><ellipse cx="362.58" cy="109.68" rx="5.47" ry="6.11"/><ellipse cx="361.95" cy="132.06" rx="2.97" ry="3.32"/><ellipse cx="344.05" cy="94.23" rx="2.97" ry="3.32"/><ellipse cx="361.95" cy="215.91" rx="2.97" ry="3.32"/><ellipse cx="402.58" cy="201.94" rx="2.97" ry="3.32"/><ellipse cx="443.2" cy="231.64" rx="2.97" ry="3.32"/><ellipse cx="313.51" cy="243.87" rx="2.97" ry="3.32"/><ellipse cx="386.8" cy="232.84" rx="4.69" ry="5.24"/><ellipse cx="365.71" cy="46.79" rx="5.47" ry="6.11"/><ellipse cx="397.3" cy="138.57" rx="1.5" ry="1.68"/><ellipse cx="391.05" cy="168.27" rx="1.5" ry="1.68"/><ellipse cx="280.95" cy="250.79" rx="1.5" ry="1.68"/><ellipse cx="418.45" cy="247.3" rx="1.5" ry="1.68"/><ellipse cx="374.7" cy="79.59" rx="1.5" ry="1.68"/><ellipse cx="118.51" cy="195.34" rx="1.5" ry="1.68"/><ellipse cx="152.82" cy="156.46" rx="1.5" ry="1.68"/><ellipse cx="203.99" cy="70.37" rx="4.69" ry="5.24"/><ellipse cx="207.34" cy="37.62" rx="2.97" ry="3.32"/><ellipse cx="132.34" cy="170.39" rx="2.97" ry="3.32"/><ellipse cx="228.99" cy="54.8" rx="1.5" ry="1.68"/><ellipse cx="257.11" cy="253.8" rx="4.69" ry="5.24"/><ellipse cx="411.8" cy="166.45" rx="4.69" ry="5.24"/><ellipse cx="182.11" cy="37.18" rx="4.69" ry="5.24"/></svg>