<svg id="Layer_1" data-name="Layer 1" xmlns="http://www.w3.org/2000/svg" viewBox="0 0 1907.48 458.64">
    <defs>
        <style>
            .cls-1 {
                fill: #3f0101;
            }
        </style>
    </defs>
    <path d="M258.87,792.15a.36.36,0,0,1,0,.09S258.86,792.21,258.87,792.15Z" transform="translate(-5.83 -624.17)" />
    <path d="M159,934.51l-.1-.12,0,0Z" transform="translate(-5.83 -624.17)" />
    <path
        d="M212.6,1060.53c-3.32-2.65-7.1-.31-10.52-1.36-1.09-.33-2.5-.43-3.17-1.18q-9.24-10.34-18.23-20.9a82.28,82.28,0,0,1-4.68-6.8c2.83-1.41,5.32-2.68,7.83-3.91,6-3,16.06-3,26-7.76,10.11-4.84,9.57-12.15,7-18.28-.36-.88,2.67.5,4.27-1.1,0,0-3.2-.8-5.6-5.6-.47-.95,0-.8,3.2-2.4,0,0-4-4.79-7.19-8-1-1,1.59,0,4,.8,0,0-3.19-11.19-18.35-14-.51-.09-.76-.68-1.13-1-1.54-1.25,2.69-.22,7.49,1.38a41.77,41.77,0,0,0-17.11-8c-1.14-.26.32-1.59,1.92-1.59a50.56,50.56,0,0,1-10.39-3.2c-.76-.33,1.6,0,4-.8,0,0-6.4-3.2-9.6-3.3a10.74,10.74,0,0,1-.8-3.9c0-.29.8,0,2.4,3.2,0,0-.35-12.3-1.19-13.59-4.78-.4-20.44-.07-24.61-1.4-2-.61-7.25-2.38-8.94-3.49a51.17,51.17,0,0,1-4.39-3.24c-1.4-1.15-7.8-6.46-9-7.84s-7.28-10.42-9.56-13.57c-1-1.45-2.06-2.93-3.15-4.35.23,1.65.32,3.32.42,4.93.29,4.45.11,8.9.18,13.35,0,2,0,3.74.15,5.68a29.72,29.72,0,0,1-.46,7.75h0a7.11,7.11,0,0,1-.47,1.19c-.86,1.51,1.09,3.4-5.3,6.6-1,.49,5.42,1.23,2.6,2.34-4.78,1.89-9.85,5-10.6,6.45,0,0,5.88.56,4.59.94-1.52.45-9.12,2.3-12.58,7-.13.18,3-2.24,4.8,0,1,1.25-9.79,5.59-10.4,9.6,0,.15,8.38-1.9,6.1-.66-3.37,1.85-8.5,3.13-13.67,8.6,0,0,9-2,6.1,1-3.79,4-10.72,4.31-13.42,8.65,0,0,2.93.18,3.71,1.83-1.34,2.8-2,5.78-9.31,5.33,0,0,5.3,3.53,5.62,4.15,2.17,4.2-3.68,2.91-3.68,2.91-.94,6,4.83,3.21,5.27,4.29.58,1.41-14.75,5.53-18.59,5.84-2.32.19-5.11,1-6.7,2.54a184.9,184.9,0,0,0-15.12,16.3c-5.29,6.54-10.75,15.19-15.73,22a15.82,15.82,0,0,1-3.13,3.44c-6.27,4.65-8,13.51-7.51,20.83.22,3.05,3.36,2.34,8.13,2,4-.32,3.1-5.69,2.82-6.67-.41-1.43.37-1.66,1.08.22.78,2.07.86,6.21,2.8,6.46a21,21,0,0,0,7.54.06c3-.43,3.66-1.14,1.5-7.17-.12-.34-.15-1,.44-.21,1.72,2.15,2.15,7.54,3.44,7.54,0,0,5.15.25,5.71-1.46,1.58-4.88,1.2-11.52-.57-16.44a4.86,4.86,0,0,1,.46-3.82c3-4.54,6.88-10.75,10.43-14.89a147.25,147.25,0,0,1,11.79-11.78c.79-.74,2.28-.82,3.48-1,6.64-1,13.32-1.82,19.93-3,3.83-.71,8.79-1,11.82-3,1.29-.86-.36,2.34-.36,2.34a5.34,5.34,0,0,0,5.32-2c2.51,1.1.54,3.57.54,3.57,3.28-.33,9.16-8.07,11.82-8.87a6.66,6.66,0,0,0-2.16,5.55s10.54-9.05,12-13c.45-1.19-2.46,7.47-2.46,7.47,5.36-2.23,13-12.81,13.62-14,4.09-8,6.17-6.92,9.9-12.71.79-2,6.35-12.36,7.54-15.08.52-1.19-.16,6.47-5.76,15.3.8,3.2,1.6,8.8,1.6,8.8.8-1.6,3-5,3.2-4.8,1.6,1.6,0,6.4,0,6.4,1.6-.8,4-3.6,4-3.2,0,2.4,1.6,6.39,1.6,6.39,0-4,1-3.33,1.19-2.82.41,1.22,3.61,5.22,3.61,5.22,0-2.4.26-3.09.46-2.65a6.92,6.92,0,0,0,5.94,4.25c-1.6-2.4.71-1.36,1.59-1.6,0,0,1.61-.71,1.85-.88,2.49-1.76,8-4.72,7-3.92-1.94,1.51-4.5,3.77-7.32,5.6-3.25,2.7-10.94,9.49-13,11.54a6.89,6.89,0,0,0-1.33,8.77c2,3.84,4.07,7.66,6.05,11.52,3.92,7.6,9.74,17.46,13.21,25.27s7.26,12.53,15.87,12.47c3.38,0,6.94-1.91,10.1-.76,4.91,1.78,11.94,1.32,12.82-.31,4.52-8.4-4.92-11.22-4.52-11.2,7.32.21,7,9.46,7.54,8.61C219.49,1074.19,220.57,1066.87,212.6,1060.53Z"
        transform="translate(-5.83 -624.17)" />
    <path
        d="M232.36,877.5c2.66-3.11-.25-4-1.84-2.39a19,19,0,0,0-3.81,4.15c-1,1.47-3.82,8.91-4.28,9.1-1.38.58-1-1.77-1-1.77.35-1.11,2.67-5.27-.26-4.85-3.35,2.9-3.3,6.72-2.46,11.32.66,3.64,1.3,5.92,2,6.35a4.76,4.76,0,0,0,4,.45c3.06-.83,5.2.27,7.08-2.08,2.17-2.71,1.32-5.93,1.93-7.84a17.28,17.28,0,0,1,1.79-4.85,13.34,13.34,0,0,1,3.36-4.48.94.94,0,0,0-.46-1.74c-1.19.35-3.77,2.87-4.71,4.57-1.37,2.5-2.54,4.55-2.54,4.55,1.05-3.06,1.19-4.08,2.46-6.28.75-1.27,2.46-2.17,4.35-4.85,1.44-2.05-.67-2.42-1.89-1.55a32.06,32.06,0,0,0-5,5c-1.24,1.58-2.63,5.52-3.23,6.86-.15.34-.47.1-.47.09C229.06,882.54,228.67,881.81,232.36,877.5Z"
        transform="translate(-5.83 -624.17)" />
    <path class="cls-1" d="M180.83,921.18a2.8,2.8,0,0,0-.05.41C180.8,921.45,180.81,921.31,180.83,921.18Z"
        transform="translate(-5.83 -624.17)" />
    <path
        d="M201.4,918c-3,.16-2.14,7.42-5.2,7.25h0a2,2,0,0,1-.3-.44v0c-3.16-7,5.9-20.74,1.3-18.25-2.24,1.73-4.42,7.55-5.34,11-.14.51-.09.35,0-.17.46-3.11,1.14-8.91,1.9-10.71.67-2.4-1.09-3.46-2.35-1.4-2.14,3.51-2.59,6.82-3.38,8.58-.9,3.37-1.57,7.14-1.69,6.77.16-2.38-.83-2.72.69-7.24s-1.34-5-2.7-1.94c-2.47,3.63-2.4,14.81-2.5,14.87s-18.89-3.89-23.58-4.87h0c-1.21-.23-2.22-.46-2.71-.57a.35.35,0,0,1-.25-.18c-2.75-5-11.15-17.16-19.11-23.51a.4.4,0,0,1,.43-.66c9.55,4.94,14.59,12.36,19.51,20.4a.38.38,0,0,0,.23.18c4.51,1.18,15.59,3.08,19.95,4.39a.38.38,0,0,0,.49-.25,142.17,142.17,0,0,0,3.53-19.15c.08-.61,0,.76,1.52.76a26.24,26.24,0,0,1-.76-4.54c0-.5.76.75,2.27,0,0,0-2.26-3-2.27-3.79,0-.38,2.27,0,3-.76,0,0-3-3-3-4.88,0-.29.44-.73.48-.45.23,1.55,4,2.31,4,2.31-.75-.76-.7-1.91-.47-1.71a4.64,4.64,0,0,0,4.26,1c-1.52-.76-1.26-1.5-.76-1.52,2.79-.07,5.78.2,10.75-.24,1.2-.11,1.48.4,2.09.88,4.52,4.53,9.68,4.36,16.45,7.86-.14-.47-.27-.94-.38-1.4-.86-3.49-1.67-7.24-.43-10.74a.4.4,0,0,0-.07-.38c-10.09-12.81-10.91-8.16-24.24-12.79a.39.39,0,0,0-.15,0h-.11a13.48,13.48,0,0,1-3.19,2.92,21.5,21.5,0,0,1-4.4,2.56,17.93,17.93,0,0,1-1.74.61,12.39,12.39,0,0,1-1.74.48c-.34.07-.67.21-1,.31a1.16,1.16,0,0,1-.17.46l0,0v0a1.5,1.5,0,0,1-.62,1.89,12.73,12.73,0,0,1-9.29.13c-.49-.17-1-.3-1.45-.46-.68-.19-1.34-.4-2-.61a.37.37,0,0,0-.35.06,6.1,6.1,0,0,1-2.63.87,12.1,12.1,0,0,1-1.39.49,18.73,18.73,0,0,1-3.93.63c-1.2.07-2.38,0-3.57-.09a1.44,1.44,0,0,1-.3.24,1.51,1.51,0,0,1-2.06-.54,31,31,0,0,0-1.86-3.15l-.48-.15a15.27,15.27,0,0,1-2,.63,6.58,6.58,0,0,1-1.92.21h-.06a11.71,11.71,0,0,1-2.83.16l-.08,0a1.54,1.54,0,0,1-1.86-1c-.2-1-.53-1.92-.76-2.88a.39.39,0,0,0-.7-.13,7.16,7.16,0,0,1-1.71,1.72c-.69.69-1.22.75-1.61.46a3.43,3.43,0,0,1-.34.06,1.51,1.51,0,0,1-1.51-1.5s0-.08,0-.15,0-.12,0-.14-.09-.32-.14-.48a8.41,8.41,0,0,1-.31-1,14.88,14.88,0,0,1-.19-2.41c0-.09,0-.19,0-.29v0c0-.16-.05-.31-.08-.46s-.06-.2-.09-.31a53.83,53.83,0,0,1-6,2.66.71.71,0,0,1-.14.1l-.8.4a3.75,3.75,0,0,1-2.38.92,2.85,2.85,0,0,1-.42,0,1.53,1.53,0,0,1-1.51-1.51,7.86,7.86,0,0,1,.66-2.86q.34-1,.63-2c-1.79,2.24-4.34,4.91-6,3.2a2.39,2.39,0,0,1-1-1.54,24.36,24.36,0,0,1-.28-3.31c-.07-.83-.14-1.55-.25-2.28a.39.39,0,0,0-.6-.27c-3,2-5.82,6.48-6.67,8.23a.4.4,0,0,0,.46.55c4.32-1.1,1.4,1.21.07,2a8.84,8.84,0,0,0-4.44,5.67.39.39,0,0,0,.59.41c2.87-1.7,1.41-.65,1.21.1-.34,1.26-2.78,4.12-2.25,7.93a.4.4,0,0,0,.77.05c1.18-3.66.34,3.7,2.6,6,.76.75,0-3,1.52-1.52.17.18,2,6.64,2.24,7.48a.37.37,0,0,0,.1.17c11.59,12.48,20,33.1,40.74,34.82H153c3.05,1.44,40.9,3,43.67-2l.07-.08C199.52,930.31,204.66,917.75,201.4,918Z"
        transform="translate(-5.83 -624.17)" />
    <path
        d="M244.33,775.15a.43.43,0,0,1,.33-.78c5.85,1.37-6.26-5.71-14.64-7a14.61,14.61,0,0,1,4.39.45.43.43,0,0,0,.31-.79c-4-2.42-20-3.91-13.23-4.62a.43.43,0,0,0,.13-.82c-3.4-1.59-10.23-1.83-13.46-2.1.33-.35.64-.72.93-1.09l.45-.08-.25-.17a17.06,17.06,0,0,0,1.55-2.59.45.45,0,0,0-.08-.49c-1.61-1.74-3.71-7-5.14-9.65a.42.42,0,0,1,0-.49,42,42,0,0,1,4.79-4.78.38.38,0,0,0,.09-.09c15.44-22.16,57.2-19.88,38.61-58.74a.51.51,0,0,0-.09-.13c-6.29-6.31,5.32,23.82-12.67,30.68-5.39,2.43-27.67,14.95-27.56,12,.32-7.78-4.57-25.5,2.8-31.54a.24.24,0,0,1,.11-.06c3.25-1.41,1.39-4.45-1.63-3.18l-.09,0c-16.85,11.2-3.63,39.8-16.57,51.16a.43.43,0,0,1-.38.09c-6.56-1.42-12.64,9.16-13.5,11.8a.43.43,0,0,1-.35.28c-1.08.14-4.79.23-6.1.4a.42.42,0,0,1-.47-.4,26.32,26.32,0,0,0-.48-3,.43.43,0,0,0-.66-.27c-2.41,1.59-4.55,3-3.25-1.14a.43.43,0,0,0-.59-.53c-2.25,1.2-1.57,6.19-4.85,5.85-1.8-.19-6.43-2.18-5.26-7,.48-2-5.51,8.52-7.4,8.22s-3.46-8.21-3.84-10.14c-.81-4.24-1.52,8.26-1.9,7.63-1.25,3.38-5.79-8.27-7-.8a.43.43,0,0,1-.8.15,16.81,16.81,0,0,0-4.49-4.59.43.43,0,0,0-.58.6c1.43,2.17,1.49,2.84,1.1,4.21a.44.44,0,0,1-.53.31,11.22,11.22,0,0,1-1.31-.45,2.58,2.58,0,0,1,.33,1.37c-1.75-1-4.63-.6-6.12-1.56l-.09-.07c-6.42-6.11-8.18-17.45-17.17-15.25a.42.42,0,0,1-.44-.14c-3.61-4.62-7.71-11.06-8.1-15.27s2.06-38.14-11.51-44.14c-3.77-2.09-6.16,1-2.12,3.18l.09.06c8.88,8,2.51,26.79,2.71,35.44.07,3.25-28.15-14-35.36-17.65-14.26-7.3-16.1-21.09-14-34.62.16-1,.46-2,.54-3.07a2,2,0,0,0-3.53-1.12c-27.9,43,31.28,47.71,49.86,74.2A.26.26,0,0,0,86,733a60.53,60.53,0,0,1,8,8.4.44.44,0,0,1,0,.52c-1.42,1.84-5.65,8.81-6.93,10.65a.43.43,0,0,1-.64.08c-.46-.41-.92-.85-1.39-1.27a.42.42,0,0,0-.69.19,28.83,28.83,0,0,0-.87,3,.44.44,0,0,1-.42.33c-5.33,0-9,.28-12,1.43a.43.43,0,0,0,0,.8c5.06,2-20.21,1.89-23.82,4.82a.43.43,0,0,0,.15.75c8,2.29-31.76,4.94-19.45,7.64a.43.43,0,0,1,.06.83c-12,4.27-18.65,9.31-19.69,13.43A.43.43,0,0,0,9,785c18.23-12.3-4.51,6.76.4,13.22a.43.43,0,0,0,.73-.07,21.69,21.69,0,0,1,7.92-8.89.43.43,0,0,1,.63.53c-2.75,6.3-6.82,22.18,3.51,10.6a.43.43,0,0,1,.68,0c3.55,5.23,1.19,25.33,8.09,11.26a.44.44,0,0,1,.6-.2c6.75,3.8,1.73,15.83,4.81,11.9l.12-.11c8.27-5.09,9.27,6,8.4,11a.42.42,0,0,0,.43.49c3.25-.13,4.64-1.55,4.76-4.82a.43.43,0,0,1,.47-.42c6.61.84,3.32,8.11,2,10.57a.43.43,0,0,0,.49.62c8.24-1.93,7.69-8.64,8.87-8.27,6.75,2.09,2.36,6.88.68,8.44a.43.43,0,0,0,.2.73c7.32,1.87,13.54-5.85,14.72-4.2,1.49,2.06-3.15,5.35-5.18,6.65a.43.43,0,0,0,.16.79c5,.68,10.42-3.43,13.33-6a.44.44,0,0,1,.41-.08,6.79,6.79,0,0,0,2.56.29.43.43,0,0,1,.45.51,17.71,17.71,0,0,1-1.54,4.14.44.44,0,0,0,.62.56,27.76,27.76,0,0,0,6.41-6.28.42.42,0,0,1,.7,0c.95,1.58,1.71,5.9,2.32,6.62-.08.26-.14.4-.14.4a2,2,0,0,0,.59.15c3.9,5.15-.19,7.07-2.4,7.7a.44.44,0,0,0,0,.82,15.42,15.42,0,0,0,10,.9.42.42,0,0,1,.51.23,9.87,9.87,0,0,1,0,6.74.43.43,0,0,0,.39.56c4.56.35,8.82-2.08,9.27-1.59,2.76,3,4.43,3.42,4.26,7.22a.42.42,0,0,0,.72.32c1.77-1.74,3.35-1.3,4.11-3.75,2,2.91,3,3.78,2.48,5.53a.42.42,0,0,0,.57.53c2.1-1,4.5-1.32,6.22-3,1.28-1.61,3.76,1.73,3.94,4.53a.43.43,0,0,0,.78.2c.86-1.26,2.05-.77,2.81-1.78a.42.42,0,0,1,.76.18c.32,1.93,1.07,4,1.3,5.47a.42.42,0,0,0,.47.36c1.78-.21,4.53,0,6.83-1.26a.42.42,0,0,1,.56.12c.69,1,2.66,4.14,2.8,4.23.45.3,9.27.73,11.19-2.69a.45.45,0,0,1,.57-.16c6.52,2.83,9,2.47,10.2,2.09.94-.3-3.79-.75-1.52-3,.15-.11,6.52.79,11-2.06a14.54,14.54,0,0,0,2.44-2.06c-.32-.67-3.11-2.11-1.36-2.69,0,0,5.82.52,5.3,0-2.28-2.27,2.52-3.62,3-4.54s-.41-2.6-1-3.67a.43.43,0,0,1,.46-.63,3.43,3.43,0,0,0,1.73-.07.44.44,0,0,0,.28-.49c-1-5.57-4-2.08.84-4.75a.43.43,0,0,0,.14-.62c-.9-1.28-3.57-5.57-.92-7.94.6-.54-.18,4.28,6.28,1a.43.43,0,0,0,.11-.68c-1-1-3.38-3.59-2.61-4.89.47-.79,3.58,3.23,5.19.23a.43.43,0,0,0,0-.44c-.69-1.05-1.41-2.07-2-2.94a.43.43,0,0,1,.53-.63,1.61,1.61,0,0,0,1.2.15.45.45,0,0,0,.32-.52,46.21,46.21,0,0,1-1.34-8.16.42.42,0,0,1,.68-.33c2.08,1.55,5.88,4.08,9.74,5a.43.43,0,0,0,.5-.59c-4.3-10,4.81-1,9-3.22a.44.44,0,0,0,.14-.66c-.74-.92-2.48-3.43-1.83-5.95s5.63,1.32,8.38,1.68a.42.42,0,0,0,.44-.6c-.71-1.57-2.22-5.82,1.48-7.64a.44.44,0,0,1,.62.32,12.72,12.72,0,0,0,1.63,5,.43.43,0,0,0,.79-.27c-.31-3.88-.36-11.37,2.92-8.83,3.6,8.69-.54-3.63,2.26-8.68a.43.43,0,0,1,.75,0,7.8,7.8,0,0,0,2.85,3.05.44.44,0,0,0,.63-.5c-.64-2.17-2-7.87,0-10.31a.43.43,0,0,1,.73.17c.47,1.57,1.59,5.3,1.54,4.83-.54-4.72.49-9.41.37-12.27a.43.43,0,0,1,.75-.31,12.53,12.53,0,0,1,2.36,4.62.43.43,0,0,0,.83,0c1-5-6.16-15.95-.13-9a.43.43,0,0,0,.74-.41C251.8,781.61,248.54,778.09,244.33,775.15ZM89.65,782.3a19.86,19.86,0,0,0-3.87,5.9c-.28.64-.87,1.11-3.89-.4-.4-.2,0,3.78,2.78,5.15.92.45-4.44,2.24-5,4.86a.42.42,0,0,0,.47.51c1.65-.21,6.44-.63,5.52,1.59-.68,1.64-2.27,5.3-5.3,3.78-.94-.51-.75,2,3.08,5.49,2.58,2.36,3,6,3,8.37a.43.43,0,0,1-.77.26,28.37,28.37,0,0,0-3.78-4.54c-1.65-1.46-3.7.14-4.7,1.12a.43.43,0,0,1-.73-.31c.1-2.11,2.19-4.44,1.64-4.33a13.2,13.2,0,0,1-6.6-.8.43.43,0,0,1,.1-.83c2.57-.34,3.83-1.32,3.47-1.4-5-1.1-12.32-4.61-16-6.43a.43.43,0,0,1,.24-.81c3.22.32,5.24.07,4.37-.33a51.78,51.78,0,0,1-9.53-5.66.43.43,0,0,1,.24-.79,38.84,38.84,0,0,0,5-.18c1.47-.13-.93-1.37-2.34-2a.43.43,0,0,1,.15-.82c2.61-.23,8.27,2,10.13,1.59,1-.22-3.67-4.85-2.89-4.22,3.79,3,11.07,2.16,12.73,1.64,1.38-.43-3.77-2.32-3.64-2.4,2.27-1.51,7.75.79,8.54.38,1-.53,2-1.06,2.86-1.56.57-.32,0-1-.39-1.47a.43.43,0,0,1,.09-.67,9.7,9.7,0,0,1,4.71-1.39A.43.43,0,0,1,89.65,782.3ZM143.92,824h0a28,28,0,0,1-3.09.69l-.78.33,1.95,0-1.95,0c-.69.3-1.37.64-2.05,1,.68-.34,1.36-.68,2.05-1-5.37.08-11.14.31-16.06-2.68-20.06-8.87-8.45-31.51,11.57-30.58,9.94.59,16,10,17.57,18.32C155.62,818,150.25,822.2,143.92,824Zm10.78-49.86c-1.75-1.11-2.11-2-3.92-3-1.55-.89-4.16-2.54-6.06-3-3.8-1,3.88-.4,6.06.76a24.33,24.33,0,0,1,3,1.51c.37.25.92-7.41.2-10.45,2.06,1.54,2.61,10,2.82,9.7,3.35-4.17,6.12-3.79,8.33-3.79.84,0-5.07,2.26-7.54,7.66A2.14,2.14,0,0,1,154.7,774.14Zm25.51,64.42c-.2,2.3-3.25,6.11-4.81,3.78l.33-.69c.75,0,1.48-.9,1.61-1.81.32-2.63-2.64-2-2.73.21,0,.65-.38,3,1.08,3.67a.42.42,0,0,1,.18.61,7.62,7.62,0,0,1-3.77,2.5.43.43,0,0,0-.29.44c.16,1.59,1.49,7.68.17,9.43-.42.55,4.54,2.26,7.47-.25.07-.05.1.14.1.24,0,1.25-4.45,4.48-9.64,2.35a.4.4,0,0,0-.38,0c-4.55,2.86-10.82,2.8-13.45-1.63-.31-1.43,8.24,4.57,13.62-.76,1.52-1.5.58-7.21.59-8.43v-.18a6.53,6.53,0,0,0,0-.76,4.27,4.27,0,0,1-3.7-1.61.44.44,0,0,1,.11-.62c2.12-1.24,1.83-3.79,1.83-4.56a1.84,1.84,0,1,0-3.63.29,1.94,1.94,0,0,0,2.14,1.76l.42.68c-2.12,3.17-6.83,0-7.22-3.5C157.48,829.29,182,827,180.21,838.56ZM200,815.27a23.79,23.79,0,0,1-9.05,6.14,20.79,20.79,0,0,0,4.76-2.71,26.12,26.12,0,0,1-22.57,3.06,12.27,12.27,0,0,0,3.88,1.35c-6.72-1.1-12.62-4.85-9.9-13.35v0c1.68-8.25,7.71-17.63,17-18.36C196.56,789.93,210.21,803.79,200,815.27Zm26-28.93a44.19,44.19,0,0,0-10.88,7.51c-.32.3,2.35.12,3.78.43a.43.43,0,0,1,.15.77c-1.92,1.39-7.81,5.77-9.23,7.89,0-.81.82-.71.76-1.52,0-1.71,3.12-6.55,2.56-9.13a.43.43,0,0,0-.74-.19c-.87.95-2.74,2.74-3.26,1.07a12.62,12.62,0,0,1,2.95-5.37c.22-.22-4.47.27-4.54,0a9.4,9.4,0,0,1-.31-1.66.44.44,0,0,1,.45-.49c1.94.14,6.27-1.89,9.09-.5a.43.43,0,0,1,0,.74c-.88.59-2.42,1.66-1.9,1.72a24.81,24.81,0,0,0,11.12-1.29Z"
        transform="translate(-5.83 -624.17)" />
    <path
        d="M182.46,796.73c-.24.08-.44.39-.27.58,2.38,2.6-2.92,7.9-5.66,4.71a.42.42,0,0,0-.66,0c-5.05,7.09-7.11,16-.71,19.7a26.12,26.12,0,0,0,22.57-3.06C210,809.25,198.38,791.43,182.46,796.73Z"
        transform="translate(-5.83 -624.17)" />
    <path d="M142.8,824.12a10.2,10.2,0,0,0-1.46.39C141.83,824.39,142.32,824.27,142.8,824.12Z"
        transform="translate(-5.83 -624.17)" />
    <path
        d="M143.34,824.51a10.2,10.2,0,0,1,1.46-.39c5.36-1.62,9.74-5.19,7.65-12-1.28-9.68-11.15-18.83-21.55-15.1-.25.09-.41.41-.24.61,2.43,3-4.38,7.53-6.65,3-.13-.26-.72.4-1,.57-8,6.1-5.47,16.17,2.23,20.66A16,16,0,0,1,123,820a16,16,0,0,0,2.29,1.9,16.53,16.53,0,0,0,1.88,1c-.42-.17-.79-.34-1.18-.51,4.92,3,10.69,2.76,16.06,2.68l.78-.33c-.52.09-1,.16-1.55.22C142,824.81,142.66,824.67,143.34,824.51Z"
        transform="translate(-5.83 -624.17)" />
    <path
        d="M354.91,960c13.33-2.39,28.82-1.73,46.7,3.75A122.86,122.86,0,0,1,362.33,941c11.32-6.84,25.61-11.73,43.67-13.26a122.87,122.87,0,0,1-45.3-6.6c7.74-11,19.13-21.46,35.56-30.19a122.33,122.33,0,0,1-48.52,11.94c3.14-13.56,10.05-28,22.46-42.85a110.93,110.93,0,0,1-37.7,28.37c-1.91-13.12-1-28.25,4.23-45.65a111.24,111.24,0,0,1-23.11,40.47c-6.47-11.24-11.13-25.29-12.8-42.85.43,5.55,1.25,25.52-6.73,46.15-10.47-7.8-20.37-18.94-28.89-34.57A112.27,112.27,0,0,1,276.85,892c-11.83-3.67-24.4-10.42-37.49-21.47a127.41,127.41,0,0,1,26.64,38c-12.9,1.74-27.94.65-45.44-4.7A127.32,127.32,0,0,1,259,927.38c-11.23,6.22-25.39,10.66-43.28,12.18a127.31,127.31,0,0,1,45.85,8.08c-7.9,10.42-19.35,20.35-35.61,29A127.39,127.39,0,0,1,272.15,966c-3.2,12.79-9.82,26.21-21.34,39.85a119,119,0,0,1,37.63-25.65c1.8,12.67.88,27.13-4.15,43.57a118.8,118.8,0,0,1,23.54-37.36c6,10.87,10.24,24.25,11.63,40.73a118.77,118.77,0,0,1,8.4-44.58c10.25,7.69,19.84,18.59,27.92,33.8a118.69,118.69,0,0,1-9.64-40c11.62,3.51,23.78,9.93,36.17,20.39A122.85,122.85,0,0,1,354.91,960Zm-15,26.72C333.17,974,324.8,965.94,316,961c-15.72,12.41-22.05,30.4-22.05,30.4,4.47-14.63,3.91-26.84.62-36.91-20.46-2-38.18,6.58-38.18,6.58,14-7.44,22.46-16.37,27.31-25.54-13-15.08-30.76-21.29-30.76-21.29,14.63,4.47,26.59,4.32,36.32,1.56,1.19-16.86-5.71-31.35-7.59-35,7.11,13,15.71,21.24,24.66,26.18,14.74-11.67,20.45-29,21.36-32.1-4.63,15.44-4,28.12-.58,38.42C348,915.41,366,906,366,906c-14.24,7.57-22.6,17.1-27.25,26.94,13.19,14.44,30.69,19.89,30.69,19.89-14.09-4.31-25.87-4-35.61-1.1C332.24,970.67,339.92,986.68,339.92,986.68Z"
        transform="translate(-5.83 -624.17)" id="outside-spinner"/>
    <path
        d="M340.53,919.46s-30,15.45-45.56-14.38c0,0,15.93,28.13-13.74,43.57,0,0,30.13-14.2,44.9,14.17C326.13,962.82,312.6,934,340.53,919.46Z"
        transform="translate(-5.83 -624.17)" id="inside-spinner"/>
    <path
        d="M1842,891.82c25-9,48.27,2.25,71.3,17.58-7.7-21.66-24.55-37.68-39-52.29,4-2.17,9.28,3,13.86-.5-5.41-4.06-10.06-9-16.06-11.27-38.17-26-62.74-1.12-75.32,1.53h0a9.18,9.18,0,0,1-1-.5,10.29,10.29,0,0,1-4.55-6.3c-.18-.77-1.08-.92-1.37-.29a43.07,43.07,0,0,1-8.41,12c-.72.55-1.45,1.08-2.18,1.59a22.75,22.75,0,0,0-3.1,2.52c-.3.31-.59.64-.87,1-16.44,10.36-33.47,30.72-39.62,53.6a18.32,18.32,0,0,0-.89-1.62,26.32,26.32,0,0,0-4.45-5.09.8.8,0,0,0-.23-.22c-.78-.71-1.58-1.4-2.37-2.09-.54-.47-1-.06-1.06.47a.62.62,0,0,0,0,.65,20.94,20.94,0,0,1,2.06,7.86,19.47,19.47,0,0,1-.68,4.47.47.47,0,0,0-.35.4c-.12.53-.26,1-.41,1.57a36.85,36.85,0,0,0-2.33,4.81c-.67,1.09-1.38,2.14-2.11,3.18q-.83,1-1.65,2a.61.61,0,0,0-.11.49c-.81,1.13-1.61,2.28-2.36,3.45a.76.76,0,0,0,0,.72,54.94,54.94,0,0,0-4.3,6.06c-.37.63-.75,1.37-1.15,2.16a52.91,52.91,0,0,1,.63-5.34.77.77,0,0,0-.56-.82.69.69,0,0,0-.92.1,26.61,26.61,0,0,0-2.61,4.39,25.36,25.36,0,0,0-3.75,8.27c-.81,3.19-1.33,6.5-1.89,9.76q-.13.81-.24,1.62l-.26-.25c-13.22-8.25-25-18.74-39.63-24.71-3.31-1.36-5.27-4.44-6.66-7.66q-3.75-8.67-7.69-17.25a4,4,0,0,0,1.17.21,1.56,1.56,0,0,0,1.06-2.65l-4.6-4.11-.59-.48-.28-.31a1.08,1.08,0,0,0-.37-.26c-.08-.18-.17-.35-.25-.52a13.62,13.62,0,0,0,1.78.56,1.57,1.57,0,0,0,1.72-2.29c-.45-.91-1.28-1.24-2-1.82a16.08,16.08,0,0,1-2.31-2.69c-.73-.89-1.6-1.81-2.31-2.81a2.22,2.22,0,0,0-.23-.39l-.18-.22a5.76,5.76,0,0,1-.38-.69l.27.13a1.58,1.58,0,0,0,2-.42,1.54,1.54,0,0,0-.15-2c-2.37-1.87-4.82-3.69-7.08-5.69q-.77-.67-1.47-1.41a1.5,1.5,0,0,0,1.13-1.46c0-2.61-2.21-4.08-4.29-5.17-.5-.26-1-.53-1.44-.82l1,.29a1.55,1.55,0,0,0,1.16-2.83,18.5,18.5,0,0,1-6.15-5.59c-.6-.81-1.17-1.63-1.72-2.47a6.86,6.86,0,0,1,.52-3.86c.19-.13.37-.27.57-.39a15,15,0,0,1,7.61-1.87c1.68,0,2.13-2.69.37-3a13.16,13.16,0,0,0-3.24-.22c.61-.42,1.22-.84,1.81-1.28,1.76-.28,3.59-.33,5.34-.45,1.18-.08,2.37-.18,3.56-.19a4.9,4.9,0,0,1,1.32.09c.39.21.78.43,1.16.67a1.94,1.94,0,0,0,2.3-3.06,5.27,5.27,0,0,0-1.62-1,33.53,33.53,0,0,0-4.67-2.17,36,36,0,0,1,3.65-1.31c3.91-1.08,8.06-.71,12-.32a2,2,0,0,0,1.83-2.47c-1-3.16-4.74-4.87-7.75-5.48-.42-.09-.85-.16-1.28-.21.82-1.14,1.61-2.3,2.38-3.49,5.17,0,10.13,2.36,14.17,5.49a1.91,1.91,0,0,0,3.16-1.85,2,2,0,0,0-.06-.48,6.76,6.76,0,0,0-.7-1.57,20.73,20.73,0,0,0-4.46-6.81,59.36,59.36,0,0,0-6.18-5h0c1.2.38,2.38.79,3.52,1.25a45.19,45.19,0,0,1,7.86,5.87,1.86,1.86,0,0,0,1.65.43,2.06,2.06,0,0,0,3.32-.13,8.87,8.87,0,0,1,1.5-1.5,5,5,0,0,0,1.57-2.62,2.63,2.63,0,0,0,.06-.39c.29-.32.56-.66.82-1a15.54,15.54,0,0,0-.39,1.77,3.35,3.35,0,0,0,.69,3.19,3,3,0,0,0,3.63.08c1.75-1.08,2.42-3.25,3.13-5a71.4,71.4,0,0,0,2.31-6.79,4.68,4.68,0,0,0,4.12-1.65,33.51,33.51,0,0,1,14.3-.85,2,2,0,0,0,2.17-.91,1.94,1.94,0,0,0-.33-2.33,21.31,21.31,0,0,0-12-4.25l.19-.26a36.59,36.59,0,0,1,4.52-1.18c5.71-1.08,11.46-.18,17.11.78a1.94,1.94,0,0,0,1.84-3.24c-3.08-3.86-8.49-4.49-13.08-4.69-1.09,0-2.18-.06-3.26,0l.21-.24a58.56,58.56,0,0,1,6-1.87,41.08,41.08,0,0,1,9.74-1.3,30.87,30.87,0,0,1,4.9.32c1.75.28,3.42.7,5.18.22a2,2,0,0,0,.42-3.53,22.21,22.21,0,0,0-7-2.65q2.67-.45,5.36-.82a2,2,0,0,0,1.75-1.2,1.92,1.92,0,0,0-.43-2.11,9.31,9.31,0,0,0-6-1.78,11.12,11.12,0,0,0,1.45-1.46c1.15-1.42.07-3.78-1.91-3.21a34.71,34.71,0,0,1-4,.92l.69-.33c1.38-.73,1.15-3.27-.5-3.52l-8.42-1.27-3-.46a32.92,32.92,0,0,0,7.38-1,2,2,0,0,0,0-3.73,21.47,21.47,0,0,1-6.36-2.45,8.28,8.28,0,0,0,2.48.55c1.93.12,2.56-2.74.93-3.61a30.59,30.59,0,0,1-7.09-4.68,26.83,26.83,0,0,1-2.67-3.51,29.5,29.5,0,0,1-1.59-2.79,9.09,9.09,0,0,0-1.33-2.31c-.1-.81-.18-1.62-.25-2.43-1.86,0-3.57-1.8-5.31-5.29-9.55-19.23-14.21-38.31,1.43-57.1,3.74-4.5,7.13-14.79,7.13-14.79.07,1.18,3-14.2-10.27-19.17,0,0,5.53,10.74.21,17.75l-1.54,0h0a26.49,26.49,0,0,1-3.73,8.38,6.69,6.69,0,0,1-1.11,1.43,1,1,0,0,1-1,.27,6.43,6.43,0,0,1-.42-4.62.48.48,0,0,0-.6-.58,1.3,1.3,0,0,0-.26.14c.07-.56.16-1.11.27-1.66,0-.09,0-.17,0-.22a.6.6,0,0,0-.06-.3s0,0,0,0a3.41,3.41,0,0,0,0-1.82.49.49,0,0,0-.66-.3,15.32,15.32,0,0,0,.08-3.45.49.49,0,0,0-.64-.43v-.51a.42.42,0,0,0-.06-.19c0-1.3,0-2.6,0-3.9a.49.49,0,0,0-.95-.11c-.05.23-.09.46-.15.69,0-.55-.08-1.1-.11-1.65,0-.34,0-.68-.05-1l.15-1.73c0-.34-.27-.48-.54-.44,0-.57.06-1.13.08-1.7a.45.45,0,0,0-.4-.45,21.28,21.28,0,0,0-.79-4.54c-.14-.44-.27-.88-.39-1.31,0,.3,0,.6,0,.91a9.4,9.4,0,0,1-.27-1.28c0-.13,0-.25,0-.38-3.81-11.34-11-26.37-21.82-24.06,0,0,9.14,9,11.07,31.42-.84.08-1.68.19-2.52.31-5.91-10.64-21.43-35.6-33.72-28.95,0,0,12.66,8.24,22,34.68-.45.35-.89.69-1.33,1-5.64-5.9-29.93-29.79-42.58-17.9,0,0,15.33,3.41,30.76,28.46l-.14.18c-6.49-4.32-32.09-19.64-45.29-2.82,0,0,20.27-.34,37.85,18.79a41.71,41.71,0,0,0-.41,4.47c.47.53.93,1.08,1.36,1.62,2.26,2.82,4.86,5.09,7.17,7.82l.2.25a1.9,1.9,0,0,0-1.14,2.3c.93,2.8,3.4,4.62,5.31,6.74.57.64,1.12,1.3,1.65,2,.79,1.7,1.49,3.44,2.12,5.23a2,2,0,0,0-2.62,2.68,65.22,65.22,0,0,1,6,12.11l.18,1.63a17.43,17.43,0,0,0-3.31-2.43,1.94,1.94,0,0,0-2.3,3.06,23.65,23.65,0,0,1,6.06,10.21c-.41-.32-.83-.65-1.27-.95a1.6,1.6,0,0,0-1.52-.17A15.71,15.71,0,0,0,1648,745c-1.59-1-3.72,1.11-2.61,2.67a73.61,73.61,0,0,1,6.37,10.75c0,.24.08.49.11.73-.27-.58-.53-1.16-.82-1.73-1-1.92-4.39-.49-3.51,1.53a39.45,39.45,0,0,1,3.25,13q-.58,2.58-1.43,5.16v0a.8.8,0,0,0-.92.33l-.36.49a1.64,1.64,0,0,0-.7-.54c.06-.94-1.23-.92-1.52-.18l-.16.41s0,0-.06,0a23.43,23.43,0,0,1-2.71,2.48.78.78,0,0,0-1,.05l-.15.12a1.5,1.5,0,0,0-.42-.33.78.78,0,0,0-1.32-.65,50.1,50.1,0,0,1-3.57,3.57l-.34.11a.76.76,0,0,0-.94-.83l-.08,0a1.54,1.54,0,0,0-2.51-1.67,7,7,0,0,1-4.77,2.54c-4.32-.82-6.06-3.08-11.21.72.69-6.29-47.48,6.55-53.24,17.92.43-.86-1.28-1.44-1.88-2.2l-1.56-4.18c-3.82-10.28-7.86-20.48-9.82-31.35a26.31,26.31,0,0,0-2.41-7,2.52,2.52,0,0,1,.06-2.57,23.68,23.68,0,0,1,7.46-8.35c6-4.21,11.57-8.78,15.54-15.09,3-4.73,5.31-9.67,5.85-15.31a21.32,21.32,0,0,0,.09-2.53c-.09-4-.78-4.51-4.53-3.22a107.8,107.8,0,0,0-10.13,4.52c-5,2.3-10.32,3.91-15.28,6.36-5.66,2.8-10,6.7-11.63,13.08a8.56,8.56,0,0,1-2,3.55,4.38,4.38,0,0,1-4.63,1.51c-11.19-2.14-22.32-2.2-33.23,1.69-2,.72-4.1,1.25-6.12,2a2.49,2.49,0,0,1-3.43-1.21c-3.83-6.76-9.46-10.91-17.29-11.85-1.29-.15-2.56-.45-3.84-.68a79.63,79.63,0,0,1-21-6.9c-.47-.23-.93-.47-1.4-.68-2.06-.87-3.22-.15-3.12,2a20.62,20.62,0,0,0,4,11.41c5.38,7.39,12.92,11.69,21.27,14.8a48.53,48.53,0,0,0,13.22,3.12c1.43.11,1.68.93,1.59,2.12-.31,4.08-2,7.63-4.11,11-3.16,5.13-7.46,9.27-11.78,13.39-3.8,3.63-7.49,7.38-11.55,10.73-3.75,3.1-4.28,5.65-2.16,10.34,1.19,2.66,3,5.08,4,7.8,1.08,3.09,2.86,4.37,6.08,4.56,2.76.16,5.35,1.5,8.14,1.87a9.31,9.31,0,0,0,5.84-1,56.46,56.46,0,0,0,4.85-2.9,32.58,32.58,0,0,1,11.68-4.47c2.15-.38,6.69,1.16,8.6.81,5.48-1,10.26-1.79,15.35-3.9a105.88,105.88,0,0,0,16.78-9.28c4.81-3.25,5.58-10.6,7.46-15.8,1.48-4.09,1.9,11.15-2.81,15.4-4.16,3.75-11.85,9.55-17,11.36-6.31,2.2-9.4,3.86-15.8,5.77-1.31.4-2.72.45-4,.75a173.63,173.63,0,0,0,3.37,19.2c-.38-.27-.77-.53-1.16-.79-.88-.1-1.76-.18-2.64-.23-15.13,1.24-36.1,7.3-44.49,19.55a29.59,29.59,0,0,0-8.19,7.55c-1.88,2.45-4.31,5.68-4.62,8.91-.11.18-.23.36-.34.55a11,11,0,0,0-1.21,2.39,14.22,14.22,0,0,0-.32,2.57,3.73,3.73,0,0,0,.2,1.86l-.36.65c-3.58,4.53,2.86,5.83-1.81,9.35l-1,2.93c-.63,1.82,1.81,3,3.09,2a1.75,1.75,0,0,0,1.44-.59c0,.06,0,.12,0,.19a60.24,60.24,0,0,0-3.33,6.68,2,2,0,0,0,.72,2.63,2,2,0,0,0,2.63-.72c.17-.31.35-.61.53-.91a2.15,2.15,0,0,0,.89.8c0,.23.09.46.15.68a19.32,19.32,0,0,0-1.45,6.86,2,2,0,0,0,2.49,1.81,12.93,12.93,0,0,0-.6,6.64,1.72,1.72,0,0,0,1.33,1.3,14.29,14.29,0,0,0,0,1.73,3,3,0,0,1,.51-.09c-.36,2.16-.7,4.33-1,6.5a2,2,0,0,0,.91,2.17,1.94,1.94,0,0,0,2.33-.33l.41-.54a70.34,70.34,0,0,1-1.16,9.13,1.91,1.91,0,0,0,.53,1.81,35.12,35.12,0,0,0-1.55,8.89,1.82,1.82,0,0,0,2.59,1.71c-.08.38-.16.76-.23,1.14q-1.86,9.28-3.71,18.56c-.42,2.09,2.42,3.41,3.54,1.44a43.13,43.13,0,0,0,3.16-7c.22.95.42,1.9.62,2.86a130.84,130.84,0,0,1-2.73,19.48c-.52,2.42,3.09,3.39,3.74,1,.27-1,.51-2,.75-3a188.16,188.16,0,0,1-2.06,19,2,2,0,0,0,1.38,2.36,2,2,0,0,0,2.36-1.37c.36-1.54.73-3.07,1.09-4.6l0,.26c-.06.32-.11.65-.18,1-.61,2.76-1.63,5.37-2.48,8.06a14.2,14.2,0,0,0-.47,8.71,2.07,2.07,0,0,0,2.13,1.36q-1.4,6.16-2.78,12.34a1.94,1.94,0,0,0,3.24,1.84,21.11,21.11,0,0,0,2.79-3.12,65.19,65.19,0,0,1-2.56,12.07,1.94,1.94,0,0,0,3.25,1.84c.43-.5.83-1,1.21-1.55-3.85,10.15-3.84,18.29-15,19.31-9.72.89-11.49,9.28-12.46,16.49-.58,4.31,7.73,11,17.64,8.19,3.54-1,7.71-12.72,9.45-12.6.79.06-5.67,7.75.14,11.52,2.1,1.37,11,.83,14.41.79a9.52,9.52,0,0,0,8.56-6.82,71.84,71.84,0,0,1,2.79-6.76s-.47,5.06.09,6.72c3.74,11.19,14.13,6.21,22.33,6.5,3.37.12,3.42-2.17,3.52-4.33.32-6.45-2.18-11.84-7.46-15.36a25.9,25.9,0,0,1-9-9.39,20.31,20.31,0,0,1-1.44-13.6c-2.76-2.32-3.55-4.25-5.64-7.31-3.13-4.59-6.93-9.32-9.91-14a38,38,0,0,1-4.6-9.38l-.06-.06a1.06,1.06,0,0,1-.27-1.14,18.11,18.11,0,0,1-.5-3.9c-.09-5.08,1.39-8.23,4.15-12.37,2.87-4.3,5.2-8.56,8.36-12.64a118.45,118.45,0,0,1,13.38-13.71s-1.51-.78-1.49-.79a3.72,3.72,0,0,0,1.18-1.22,2.59,2.59,0,0,0,.14-.29,1.85,1.85,0,0,0,.86-3.09,2,2,0,0,0,2.11-1.94,7.15,7.15,0,0,0-1.21-3.71l.33-.15a2,2,0,0,0,.66-2.65,14.47,14.47,0,0,0-1.56-2.24c-.46-.73-.89-1.48-1.29-2.24a1.89,1.89,0,0,0,.44-.19,1.94,1.94,0,0,0,.86-2.19,59.46,59.46,0,0,0-2.88-6.66,1.9,1.9,0,0,0,.59-2c-.41-1.06-.79-2.14-1.15-3.21a1.76,1.76,0,0,0,1.59-2.36c-.27-.75-.53-1.51-.8-2.27a1.74,1.74,0,0,0,.42-2.4A14,14,0,0,1,1496,922a2,2,0,0,0,.65-2.62l-.66-1.11a1.59,1.59,0,0,0-.33-1.14l-.22-.3a3.13,3.13,0,0,0,.52-.16,2.22,2.22,0,0,0,1-.82,1.51,1.51,0,0,0,.63.85c4.23,2.91,8.61,6,11,10.7a1.54,1.54,0,0,0,1.94.61,1.59,1.59,0,0,0,.87-1.83q-.08-.46-.18-.93l.63.31a14.63,14.63,0,0,1,1,1.22l2.93,4c.71,1,2.57,1,2.82-.4,0-.14,0-.27,0-.4a32.26,32.26,0,0,1,4.09,4.57,1.55,1.55,0,0,0,2.81-1.22l-.24-1.49c.62.61,1.23,1.23,1.81,1.88,1,1.07,2.57.12,2.62-1.12a17.54,17.54,0,0,0,0-2l.38,0a21.46,21.46,0,0,1,1.27,2,31,31,0,0,0,4.19,6.46,1.55,1.55,0,0,0,2.42-.34,8.9,8.9,0,0,0,.76-3.68,28.46,28.46,0,0,0,4.9,3,1.65,1.65,0,0,0,2.1-.64,31.1,31.1,0,0,0,4.35,2.48,1.58,1.58,0,0,0,1.5,0c.25.27.47.56.71.84a3.24,3.24,0,0,1,1.39,1,.8.8,0,0,1,.16.08,15.32,15.32,0,0,1,2.42,1.82l0,.08a2.9,2.9,0,0,1,1.59.31,1.17,1.17,0,0,1-.55,2.16,5,5,0,0,1-1.27-.13,6.88,6.88,0,0,0-.82.21c-.81.23-1.59.54-2.38.85-1.79.7-3.67,1.14-5.49,1.78-4.35,1.53-8.45,3.64-12.79,5.19s-8.74,2.84-13,4.43c-2.13.78-4.2,1.7-6.3,2.57s-4.19,1.64-6.25,2.54c-1.82.8-3.56,1.75-5.38,2.53l-.28.12c-1.7,1-3.44,2-5,3.18-1.74,1.71-3.37,3.53-5,5.4-2.44,2.86-4.85,5.76-7.2,8.7-1,1.25-1.91,2.52-2.85,3.8a12,12,0,0,1-2.23,2.49,1.91,1.91,0,0,0-.1.34,25.82,25.82,0,0,0-3.88,7.56c-1.26,4.4.06,8.69,2.28,12.76.25.74.53,1.46.8,2.18.79,1.4,1.64,2.76,2.49,4.12.22,0,5.58,7.81,6.85,9.84a23.33,23.33,0,0,0,2.83,3.93c1.13,1.19,2.34,2.29,3.45,3.5a14.38,14.38,0,0,0,8.54,3.83,5.27,5.27,0,0,0,3.07,1.63,2.62,2.62,0,0,0,2.56-2.06,3.32,3.32,0,0,0,.06-.44l.62.37c1.19.7,2.83,1.9,4.29,1.48a2,2,0,0,0,1.2-.92l.89.4c1.84.86,3.83,2.1,5.93,1.52a1,1,0,0,0,.5-.32,5.08,5.08,0,0,0,3.44-.43,16.49,16.49,0,0,0,5,1A1.21,1.21,0,0,0,1533,1039a11.16,11.16,0,0,0,6.58.28,1.14,1.14,0,0,0,.54-1.84c1.78-.27,3.57-.61,5.34-.76a1.21,1.21,0,0,0,1-1.71c1.85-.22,3.71-.54,5.55-.86a1.12,1.12,0,0,0,.64-1.71l.68-.3c.69,0,1.38,0,2.08,0-5.65,8.76-11,17.35-22.7,18.43-9.42.86-19.55,19.26-13.86,26.93,2.14,2.88,8.67,5.28,13.81,2.58a12.13,12.13,0,0,1,4.15-1.53c-.41-1.62-2.43-10.89,2.74-17.07,0,0-3.58,14.1-.85,17.18a10.9,10.9,0,0,1,3.75,1.79c4.83,3.29,12.21,1,16.73-2,3.25-2.14,5.52-3.14,7.41-3.05-.59-2.82-1.69-10.78,2.91-16.28,0,0-3.26,12.85-1.18,16.7,1.46.67,2.78,2.14,4.32,4.39.55.81,4,1.91,5,1.89,6.67-.08,16-13.69,12.65-19.92a29.46,29.46,0,0,1-3.29-10.35c-.15-.34-.29-.68-.4-1a14,14,0,0,1-.7-5c0-1.85.1-3.69.32-5.54a16,16,0,0,1,1.12-4.89,14.3,14.3,0,0,1,.82-1.55c.46-1.43,1-2.83,1.55-4.24a1,1,0,0,0,1.6-.35,30,30,0,0,0,2.15-6.67,1.2,1.2,0,0,0,1-.78,5.64,5.64,0,0,0,.21-.78q.12-.42.21-.84c.62.47,1.61.42,1.77-.56l0-.31h0a29.45,29.45,0,0,0,.28-3.11,1,1,0,0,0,1.72-.6,16.24,16.24,0,0,0,.3-3.68,14.77,14.77,0,0,0-.17-1.76c0-.2-.07-.41-.12-.61,2.29,2.4,5.1,5,8.43,4.73a2.29,2.29,0,0,0,1.84-1.49c1.06.58,2.13,1.18,3.23,1.67,2,.91,4.21,1.38,6.16.49a2,2,0,0,0,1.79-2.47,1.71,1.71,0,0,0-.13-.47,1.85,1.85,0,0,0-.42-.59l-.57-1a18.31,18.31,0,0,0,8.49,3.83,1.93,1.93,0,0,0,1-3.73,7.43,7.43,0,0,1-3.79-2.86,17.87,17.87,0,0,0,3.51,1.86l.27.22a1.26,1.26,0,0,0,1.07.22,14.22,14.22,0,0,0,2.39.45,1.89,1.89,0,0,0,1.75-1.2,1.94,1.94,0,0,0-.28-1.93,28.18,28.18,0,0,0,3.1,1.93,1.92,1.92,0,0,0,1.56.13l.19.2c.85,1.91,1.69,3.83,2.54,5.74l1.87,4.23a16.71,16.71,0,0,0,2.08,3.8,1.17,1.17,0,0,0,1.41.16,3,3,0,0,0,1.38-1.58,23.56,23.56,0,0,0,10.23,5.66,2.1,2.1,0,0,0,2.47-2.08,34,34,0,0,1,5.61,6.31c1,1.54,2.2,4.6,4.59,3.78,1.65-.56,1.44-2.14.83-3.61.74.51,1.5,1,2.26,1.48,1.57,1,3.27,2.1,5.18,1.48a1.89,1.89,0,0,0,1-.78,23.14,23.14,0,0,0,2,1.36A24,24,0,0,1,1687,1040a5.51,5.51,0,0,0,1.14,1.17,1.42,1.42,0,0,0,1.71-.35c.8-1,.13-1.91-.51-2.72a4.5,4.5,0,0,0,2.74,1,2.59,2.59,0,0,0,1.84-.92l.3,0c.7.18,1.4.36,2.1.51,1.19.25,2.78,0,3.12-1.34,1.46.35,2.93.67,4.41.93a1.21,1.21,0,0,0,1.42-1.37,4.24,4.24,0,0,0,1.83.13c1.08-.18,1-1.63.25-2.12-.42-.29-.84-.56-1.26-.83l4.79.46a1,1,0,0,0,1.09-.94,9.64,9.64,0,0,0,3-.56l.39-.15c6.73,1.43,12.43,6.8,15,14.93,1.43,4.45,2.76,9.18,2.75,13.78,0,5.31,1.1,9.23,3.86,12.14a9.43,9.43,0,0,0,1.52,2.34,34,34,0,0,0,6.4,5.51c2.55,1.64,5.81,1.49,8.61.59s5-3.19,5-6.29a5.8,5.8,0,0,0-.88-3,1.77,1.77,0,0,1,.32,0c-1.79-4.61-7-9.23-7-9.23,6.49,1.45,7.36,7.27,7.44,9.7a19.29,19.29,0,0,0,1.43,1.43c2.83,2.43,6.15,4.75,9.87,5.46,3,.59,6.47,0,7.91-3a6.37,6.37,0,0,0,.53-3.67.32.32,0,0,1,.12-.11c-1.22-5-7.33-10.44-7.33-10.44,7.2,1.61,7.48,8.63,7.44,10.38l.07,0c1.07.92,2.2,1.76,3.33,2.6,3.59,2.63,7.1,5.66,11.64,5,3.83-.55,4.75-4.4,4.25-7-2.07-11.07-10.22-16.13-21.65-18.33-15.11-2.91-16.65-22.52-26.33-33.9a3.71,3.71,0,0,1-1.07-2.9c-2.82-4.22-5.39-8.65-8.12-13-1.25-2-2.48-4-3.7-6,.46-1,.9-2,1.31-3,.53-1.27,1-2.54,1.5-3.82.87-1.91,1.66-3.85,2.35-5.83.94-2.72,1.69-5.5,2.7-8.19q1.35-2.38,2.79-4.72c.73-1.18,1.49-2.34,2.26-3.5,1.48-1.3,3-2.56,4.52-3.79,4.51-3.63,9.29-7.59,14.86-9.54,5.94-2.08,12.65-1.56,19.09-1.1,1.58.12,1.33-2.11.21-2.79a32.1,32.1,0,0,0-20.11-4.6c15.51-10.61,30.77-22,49.41-26.15,3.24,0,2.24-4.38-.76-4.92-18.63-2.86,3.3-3.79,7.51-8.9,13.74-3.64,26.49-4.9,42.11-2C1859.22,899.23,1852.11,893.83,1842,891.82ZM1694.43,656.49c8.58,6.84-2.06,20.87-2.06,20.87C1697.61,664.17,1694.43,656.49,1694.43,656.49Zm-13.1,18.84h0Zm-18.23-46.61c17.48,15.91,9.13,46.39,9.13,46.39C1672.72,651.61,1663.1,628.72,1663.1,628.72Zm-24,2.18c22.09,10.67,24.11,46.66,24.11,46.66C1655.87,652,1639.05,630.9,1639.05,630.9ZM1609,670c27.25-6.52,37.33,25.15,37.33,25.15C1636.35,677.37,1609,670,1609,670Zm11.09-23.79c26.23,2.67,34.17,38.76,34.17,38.76C1644.23,661.61,1620.08,646.16,1620.08,646.16ZM1451.42,738.9a48.36,48.36,0,0,1,8.65.86l-17.45-14.2s23.22,15.09,28,17c0,0-9.61-.85-8.63.1a87,87,0,0,0,15.42,5.58S1463,747.4,1451.42,738.9ZM1505.85,766s.78-10.81,12.58-6.3C1518.43,759.72,1515.14,766.61,1505.85,766Zm32.2-19c13.77-10.07,17.92-16.07,17.92-16.07-6.73-.88-8.7-4.7-8.7-4.7,19.1-8.87,22.23-10.13,23.08-10.81l.12-.1-.12.1-13.7,11.35a63.59,63.59,0,0,0,12.68-2.72C1554.88,742.75,1538.05,747,1538.05,747Z"
        transform="translate(-5.83 -624.17)" />
</svg>