<?xml version="1.0" standalone="no"?>
<!DOCTYPE svg PUBLIC "-//W3C//DTD SVG 20010904//EN"
 "http://www.w3.org/TR/2001/REC-SVG-20010904/DTD/svg10.dtd">
<svg version="1.0" xmlns="http://www.w3.org/2000/svg"
 width="576.000000pt" height="576.000000pt" viewBox="0 0 576.000000 576.000000"
 preserveAspectRatio="xMidYMid meet">
<metadata>
Created by potrace 1.14, written by Peter Selinger 2001-2017
</metadata>
<g transform="translate(0.000000,576.000000) scale(0.100000,-0.100000)"
fill="#000000" stroke="none">
<path d="M3113 5005 c-56 -17 -121 -56 -156 -93 l-29 -30 69 -90 c37 -50 71
-91 75 -91 4 -1 29 12 55 28 27 16 68 35 92 42 39 11 44 11 53 -5 7 -13 17
-16 39 -11 23 5 29 3 29 -10 0 -13 6 -16 25 -13 21 4 25 1 25 -18 0 -17 6 -24
19 -24 14 0 18 -5 14 -19 -3 -12 2 -20 16 -24 12 -3 21 -13 21 -25 0 -12 9
-22 21 -25 15 -4 19 -11 15 -25 -5 -15 -1 -21 18 -26 17 -4 23 -11 19 -25 -3
-12 2 -20 16 -24 13 -3 21 -13 21 -25 0 -12 9 -23 20 -27 15 -5 19 -12 15 -25
-4 -14 0 -19 17 -22 15 -2 24 -11 26 -25 3 -18 10 -23 31 -23 16 0 43 -5 60
-11 45 -16 97 1 139 44 l33 34 -53 -5 c-44 -3 -59 0 -88 20 -27 19 -34 30 -32
51 2 20 -2 27 -14 27 -12 0 -15 6 -10 24 5 19 1 26 -15 31 -14 5 -19 13 -16
26 3 12 -2 20 -14 24 -14 5 -18 12 -13 29 4 18 1 25 -15 29 -14 3 -18 10 -14
26 3 14 0 23 -11 27 -11 4 -14 13 -11 25 4 12 -1 22 -15 29 -14 8 -19 17 -15
30 4 13 0 20 -15 25 -15 5 -19 12 -15 25 5 15 0 21 -20 26 -20 5 -25 11 -22
25 4 14 0 19 -14 19 -10 0 -23 8 -28 19 -6 10 -25 21 -43 24 -18 3 -58 14 -88
26 -63 24 -154 26 -217 6z"/>
<path d="M2453 4965 c-24 -7 -59 -22 -78 -34 -20 -11 -47 -21 -61 -21 -17 0
-24 -5 -24 -20 0 -15 -7 -20 -25 -20 -20 0 -25 -5 -25 -25 0 -16 -6 -25 -16
-25 -12 0 -15 -7 -12 -24 4 -18 0 -26 -14 -30 -14 -3 -18 -10 -14 -24 5 -15 1
-21 -19 -26 -22 -6 -24 -9 -14 -27 9 -17 7 -21 -11 -26 -17 -4 -20 -11 -16
-29 5 -17 1 -24 -14 -29 -15 -5 -19 -12 -15 -27 5 -14 1 -21 -14 -25 -16 -4
-19 -11 -15 -29 5 -20 2 -24 -16 -24 -18 0 -21 -4 -17 -21 5 -17 2 -20 -13
-16 -13 3 -20 -2 -24 -19 -8 -29 -41 -39 -99 -30 l-42 6 39 -35 c49 -43 105
-61 148 -46 17 6 42 11 54 11 17 0 24 6 24 20 0 14 7 20 21 20 12 0 23 8 26
19 3 11 13 21 24 24 11 3 19 14 19 25 0 12 9 23 21 27 14 5 19 13 16 26 -4 14
1 21 19 25 18 5 23 11 19 24 -4 13 1 20 15 25 11 3 20 15 20 25 0 10 9 22 21
25 14 5 19 13 16 26 -4 14 0 19 14 19 12 0 19 7 19 20 0 15 7 20 25 20 16 0
25 6 25 16 0 12 7 14 30 9 22 -5 32 -3 36 9 8 21 56 21 97 0 58 -30 106 -74
167 -156 166 -220 245 -532 182 -716 -27 -77 -27 -124 -1 -182 26 -57 189
-272 203 -267 35 11 115 238 135 381 61 435 -182 921 -554 1109 -109 54 -200
68 -282 42z"/>
<path d="M1400 4680 c-8 -5 -30 -7 -47 -4 -29 5 -33 3 -33 -15 0 -17 -6 -21
-30 -21 -25 0 -30 -4 -30 -25 0 -20 -5 -25 -25 -25 -18 0 -26 -7 -31 -25 -4
-17 -12 -24 -27 -22 -16 1 -23 -4 -25 -20 -2 -13 -12 -23 -25 -25 -16 -2 -21
-9 -20 -26 2 -16 -2 -22 -17 -22 -15 0 -20 -7 -20 -25 0 -20 -5 -25 -25 -25
-21 0 -25 -5 -25 -29 0 -20 -6 -30 -20 -34 -12 -3 -20 -14 -20 -25 0 -12 -9
-23 -20 -27 -13 -4 -20 -15 -20 -30 0 -15 -7 -26 -20 -30 -15 -5 -19 -12 -14
-30 3 -14 -4 -51 -17 -87 -14 -41 -24 -94 -26 -153 -8 -160 38 -256 199 -411
153 -147 222 -177 468 -199 184 -16 257 -33 365 -86 209 -102 348 -265 401
-469 14 -54 14 -77 5 -150 -15 -117 -13 -268 4 -365 23 -127 24 -123 -37 -114
-34 6 -111 3 -218 -7 -241 -22 -445 -21 -543 5 -95 25 -248 102 -282 143 -31
37 -33 84 -5 138 17 33 26 40 50 40 23 0 30 4 30 20 0 14 7 20 21 20 12 0 23
8 26 20 3 11 14 20 25 20 11 0 22 9 25 20 3 11 13 20 23 20 10 0 20 9 23 21 4
16 11 19 27 14 16 -5 23 -2 27 14 3 12 13 21 23 21 10 0 21 7 24 16 4 10 13
13 25 9 14 -4 21 0 26 15 5 15 12 19 30 14 17 -4 25 -1 29 14 5 14 13 18 31
14 20 -3 25 0 25 17 0 15 6 21 24 21 16 0 26 7 30 23 3 12 22 32 41 45 45 29
37 42 -24 42 -26 0 -52 5 -59 12 -9 9 -15 8 -26 -7 -12 -17 -16 -18 -31 -5
-15 12 -19 12 -31 -4 -8 -12 -19 -16 -30 -12 -9 3 -22 1 -30 -5 -9 -7 -18 -7
-33 0 -16 9 -22 8 -30 -8 -8 -13 -17 -17 -32 -14 -14 4 -25 0 -31 -11 -7 -13
-13 -14 -29 -6 -15 9 -21 7 -26 -5 -4 -11 -13 -15 -28 -11 -15 4 -25 1 -29 -9
-3 -8 -17 -15 -31 -15 -14 0 -25 -4 -25 -10 0 -5 -11 -10 -24 -10 -15 0 -26
-7 -29 -19 -3 -14 -11 -18 -25 -15 -14 4 -21 0 -25 -18 -4 -14 -40 -47 -88
-83 -45 -33 -105 -87 -132 -120 -153 -183 -120 -328 112 -484 140 -96 276
-141 489 -166 76 -9 193 -23 261 -31 139 -16 282 -59 363 -108 37 -23 59 -46
82 -86 28 -50 31 -65 34 -162 7 -176 -31 -321 -104 -407 -49 -57 -62 -52 -17
6 20 27 42 62 49 78 10 24 64 277 64 300 0 13 -79 3 -116 -15 -124 -61 -213
-253 -184 -396 10 -46 9 -61 -6 -99 -23 -62 -15 -118 35 -221 33 -69 39 -89
30 -105 -18 -35 -51 -20 -83 40 l-29 54 -29 -57 c-38 -74 -61 -74 -102 3 l-29
54 -26 -54 c-37 -77 -61 -78 -99 -3 l-29 57 -29 -54 c-41 -77 -64 -78 -102 -2
l-29 57 -27 -51 c-14 -28 -30 -54 -36 -58 -22 -14 -49 8 -70 58 l-22 52 -26
-52 c-25 -51 -51 -71 -72 -58 -6 4 -22 30 -36 58 l-27 51 -29 -57 c-38 -76
-61 -75 -102 2 l-29 54 -29 -56 c-38 -76 -58 -76 -96 0 l-29 56 -29 -54 c-41
-77 -64 -78 -102 -2 l-29 57 -27 -51 c-14 -28 -30 -54 -36 -58 -21 -13 -47 7
-71 56 l-25 51 -23 -51 c-23 -49 -49 -69 -71 -56 -6 4 -22 30 -37 58 l-26 52
-25 -52 c-14 -29 -32 -55 -40 -58 -31 -12 -59 7 -84 58 l-25 52 -26 -52 c-15
-28 -31 -54 -37 -58 -22 -13 -46 7 -68 58 l-23 52 -14 -25 c-11 -20 -14 -92
-15 -362 l0 -338 2880 0 2880 0 0 358 0 357 -28 -50 c-39 -73 -63 -72 -100 2
l-29 57 -27 -51 c-14 -28 -30 -54 -36 -58 -22 -14 -49 8 -70 58 l-22 52 -26
-52 c-14 -29 -32 -55 -40 -58 -31 -12 -59 7 -84 58 l-25 52 -26 -52 c-15 -28
-31 -54 -37 -58 -21 -13 -47 7 -71 57 l-26 52 -29 -55 c-39 -72 -59 -72 -98 0
l-29 54 -29 -57 c-38 -75 -61 -74 -102 3 l-29 54 -29 -57 c-37 -73 -61 -74
-98 -4 -14 27 -27 48 -30 48 -3 0 -16 -21 -30 -48 -37 -70 -61 -69 -98 4 l-29
57 -29 -54 c-41 -77 -64 -78 -102 -2 l-29 57 -27 -51 c-14 -28 -30 -54 -36
-58 -21 -13 -46 7 -68 58 l-24 52 -29 -58 c-39 -76 -62 -75 -103 2 l-29 54
-29 -57 c-38 -74 -61 -74 -102 3 l-29 54 -26 -54 c-33 -69 -63 -77 -88 -25
-16 35 -16 36 17 107 41 90 48 145 26 204 -15 38 -16 53 -6 99 30 144 -60 335
-186 396 -74 36 -75 33 -43 -127 30 -152 34 -163 87 -237 28 -38 31 -46 15
-37 -49 26 -104 136 -129 260 -33 169 -3 340 74 420 50 51 185 95 353 115 68
8 185 22 261 31 75 9 169 25 209 36 214 59 433 215 474 338 41 123 -31 259
-207 391 -46 35 -87 74 -92 87 -6 17 -14 23 -27 20 -12 -3 -20 2 -24 14 -4 12
-16 19 -31 19 -13 0 -24 5 -24 10 0 6 -11 10 -24 10 -13 0 -26 7 -30 15 -4 11
-13 14 -31 9 -19 -5 -25 -2 -25 10 0 12 -5 14 -25 6 -20 -8 -27 -6 -32 6 -4
10 -13 14 -27 10 -15 -4 -26 1 -34 14 -10 17 -15 18 -32 8 -17 -11 -22 -10
-29 1 -5 8 -16 11 -26 7 -11 -4 -25 0 -36 10 -16 14 -21 15 -35 3 -13 -11 -17
-10 -26 4 -7 13 -13 15 -28 7 -10 -5 -39 -10 -64 -10 -25 0 -47 -4 -51 -10 -3
-5 12 -21 35 -36 23 -15 40 -35 40 -45 0 -13 7 -19 24 -19 16 0 26 -7 29 -21
4 -16 11 -20 28 -16 16 4 23 1 26 -14 4 -16 11 -19 29 -15 17 5 24 1 29 -14 5
-15 12 -19 31 -14 18 5 24 2 24 -10 0 -9 8 -16 19 -16 11 0 23 -9 26 -20 5
-15 12 -19 31 -14 20 5 24 2 24 -15 0 -16 6 -21 25 -21 18 0 25 -5 25 -20 0
-15 7 -20 25 -20 18 0 25 -5 25 -20 0 -13 7 -20 20 -20 13 0 20 -7 20 -20 0
-16 7 -20 30 -20 24 0 33 -7 50 -40 28 -54 26 -101 -5 -138 -34 -41 -187 -118
-282 -143 -98 -26 -302 -27 -543 -5 -125 12 -182 13 -230 5 -35 -5 -67 -12
-72 -15 -15 -9 -8 42 17 142 34 130 57 324 54 454 -3 103 -2 107 33 180 71
146 189 259 353 339 108 53 181 70 365 86 246 22 315 52 468 199 161 155 207
251 199 411 -2 58 -12 111 -26 150 -13 36 -19 71 -16 87 5 21 2 28 -15 33 -16
5 -21 13 -17 30 3 19 -1 25 -21 30 -18 4 -23 11 -19 25 4 15 -1 22 -19 26 -20
5 -24 12 -22 33 3 22 -1 26 -25 29 -24 3 -28 7 -24 24 4 14 0 22 -13 25 -10 3
-20 15 -22 27 -2 13 -11 22 -25 24 -14 2 -23 11 -25 25 -2 16 -9 21 -26 20
-17 -2 -22 2 -22 22 0 21 -5 25 -30 25 -25 0 -30 4 -30 25 0 20 -5 25 -24 25
-16 0 -27 7 -31 20 -5 16 -10 17 -29 9 -18 -9 -29 -7 -50 6 -30 20 -36 4 -11
-29 8 -11 12 -29 9 -43 -4 -16 -1 -25 10 -29 10 -4 16 -18 16 -35 0 -25 4 -29
26 -29 23 0 25 -3 20 -24 -5 -20 -2 -25 16 -28 18 -2 23 -9 21 -30 -1 -20 4
-28 24 -33 21 -5 24 -10 19 -30 -5 -20 -2 -26 19 -31 21 -5 23 -9 14 -26 -12
-22 -13 -21 19 -37 19 -10 21 -15 11 -27 -9 -11 -8 -18 4 -32 13 -14 14 -21 5
-30 -8 -8 -6 -16 11 -30 21 -16 22 -19 7 -31 -15 -13 -15 -15 0 -32 13 -15 14
-22 5 -33 -10 -12 -9 -20 4 -40 14 -22 15 -31 5 -63 -24 -71 -58 -129 -103
-170 -89 -82 -131 -93 -392 -103 -168 -6 -226 -12 -290 -30 -224 -61 -411
-180 -535 -339 -30 -39 -57 -71 -60 -71 -10 1 -175 212 -250 318 -89 127 -147
235 -166 306 -20 76 -17 227 6 316 30 115 22 197 -28 296 -24 46 -83 114 -100
114 -15 0 -81 -98 -124 -185 -109 -216 -135 -462 -73 -699 31 -120 67 -199
219 -486 167 -315 293 -574 316 -649 56 -179 22 -373 -76 -428 -94 -54 -195
-7 -233 107 -27 79 -24 168 7 291 16 63 44 149 62 190 51 115 51 148 -1 245
-24 45 -75 140 -114 213 -38 72 -72 131 -75 131 -3 0 -20 -23 -39 -50 -19 -28
-37 -50 -40 -50 -3 0 -22 24 -41 52 -49 72 -159 179 -238 232 -192 126 -365
176 -615 176 -157 0 -258 15 -317 45 -81 42 -150 130 -180 232 -11 36 -11 46
3 67 16 23 16 26 0 35 -17 9 -16 11 1 30 15 16 16 24 7 34 -9 11 -8 17 4 27 9
7 13 20 10 28 -3 8 2 23 11 33 14 15 14 21 4 34 -10 12 -8 17 15 27 20 9 25
17 21 34 -5 17 -1 24 15 29 16 5 20 13 16 31 -3 19 1 26 20 30 18 5 23 12 21
33 -2 20 2 27 20 29 16 2 22 10 22 27 0 15 7 26 21 30 15 5 19 13 16 27 -4 13
2 22 18 30 19 9 22 15 15 33 -6 16 -4 29 6 44 19 26 15 44 -6 31z"/>
</g>
</svg>
