<svg id="move_icon" data-name="move icon" xmlns="http://www.w3.org/2000/svg" viewBox="0 0 839.89 839"><path d="M186.36,477.55v83.94L11.11,432.57,185.74,303.7v82.58H296.65a45.63,45.63,0,0,1,45.63,45.63h0a45.63,45.63,0,0,1-45.63,45.64Z" transform="translate(-11.11 -13)"/><path d="M851,432.44,676.57,561V479.78H566.77a46.43,46.43,0,0,1-46.42-46.42h0a46.42,46.42,0,0,1,46.42-46.42H675.6V303.23Z" transform="translate(-11.11 -13)"/><path d="M477.1,189V297.56a45.65,45.65,0,0,1-45.66,45.65h0a45.65,45.65,0,0,1-45.65-45.65V188.92H301.25C345.69,128.64,387.17,72.36,430.92,13L561.13,189Z" transform="translate(-11.11 -13)"/><path d="M431.06,852c-43.68-59.15-84.94-115-128.71-174.29H384.6V567a45.72,45.72,0,0,1,45.73-45.72h0A45.73,45.73,0,0,1,476.06,567V675.88H561Z" transform="translate(-11.11 -13)"/></svg>