<svg id="attack_range_icon" data-name="attack range icon" xmlns="http://www.w3.org/2000/svg" viewBox="0 0 830.85 830.85"><path d="M435,126.6c-168.12,0-304.4,136.28-304.4,304.4S266.83,735.4,435,735.4,739.35,599.12,739.35,431,603.07,126.6,435,126.6Zm0,562.09c-142.32,0-257.69-115.37-257.69-257.69S292.63,173.31,435,173.31,692.64,288.68,692.64,431,577.27,688.69,435,688.69Z" transform="translate(-18.15 -15.58)"/><rect x="559.59" y="392.07" width="271.26" height="46.71" rx="23.35"/><rect x="559.59" y="392.07" width="271.26" height="46.71" rx="23.35"/><rect y="392.07" width="271.26" height="46.71" rx="23.35"/><rect x="297.95" y="687.44" width="271.26" height="46.71" rx="23.35" transform="translate(1126.22 261.64) rotate(90)"/><rect x="297.95" y="127.85" width="271.26" height="46.71" rx="23.35" transform="translate(566.63 -297.95) rotate(90)"/></svg>