<svg xmlns="http://www.w3.org/2000/svg" viewBox="0 0 744 845.19"><g id="defend_icon" data-name="defend icon"><path d="M61.3,141.45c144.26,1.71,269.16-31.54,369.93-134,99.5,100.74,224.35,136.31,364.94,133.85,11,70.48,10,138.83-.42,206.73-33.43,217.54-144,385.91-342.55,497.65-15.18,8.54-26.24,9.73-42.26.66C191,721.68,80.82,532.55,61.85,290.55,58,242,61.3,193,61.3,141.45Zm38.08,37.27c0,36.29-2.17,70.9.35,105.2,16.24,220.8,112.16,397.42,309,517.87,17.17,10.5,29.37,10.14,46.72-.47C633.15,692.66,730.9,535.35,758,336c7-51.47,5.86-104,8.53-157.44-130-4-241.64-39-335.17-118.6C336.27,141,224.85,174.21,99.38,178.72Z" transform="translate(-60 -7.41)"/><path d="M431.61,105.42c84.95,67.25,182.88,98.92,298,105.3-3.56,49.28-3.61,98-11.13,145.58C691.19,529.22,604,666.07,450.17,761.24c-11.65,7.21-20.59,10.26-34.46,2C187.42,627.27,123.25,388.48,139,210.73,246.47,204.53,345.69,173.7,431.61,105.42Z" transform="translate(-60 -7.41)"/></g></svg>