<svg id="Layer_6" data-name="Layer 6" xmlns="http://www.w3.org/2000/svg" viewBox="0 0 860.95 822.84"><path d="M1.37,734.43,168.48,845.61V790.27l437.14-2.76-365-29.19,401.7-3L404.47,734.22l207.8-7-302.2-18.72,317.4-16.39-458.9-14.41V622.77Z" transform="translate(-1.37 -22.77)"/><path d="M862.32,534.43,695.2,645.61V590.27l-437.13-2.76,365-29.19-401.69-3,237.84-21.06-207.79-7,302.19-18.72L236.22,492.09l458.89-14.41V422.77Z" transform="translate(-1.37 -22.77)"/><path d="M1.37,334.43,168.48,445.61V390.27l437.14-2.76-365-29.19,401.7-3L404.47,334.22l207.8-7-302.2-18.72,317.4-16.39-458.9-14.41V222.77Z" transform="translate(-1.37 -22.77)"/><path d="M862.32,134.43,695.2,245.61V190.27l-437.13-2.76,365-29.19-401.69-3,237.84-21.06-207.79-7,302.19-18.72L236.22,92.09,695.11,77.68V22.77Z" transform="translate(-1.37 -22.77)"/></svg>