<svg xmlns="http://www.w3.org/2000/svg" viewBox="0 0 735.75 854.11"><g id="flag"><path d="M316.56,414.9,167.83,84c53.54-32.37,104.25-69,167.77-77.82,38.8-5.41,69.52,5.57,88.61,41.87,18.58,35.32,61.29,47.73,101.61,31.1,20.56-8.47,40.07-19.54,60.75-27.63a198,198,0,0,1,46-12.17c24.75-3.21,47,5.18,62.74,24.5,35.11,43.15,69,87.31,104.46,132.52-5.72-1-10.08-2.2-14.52-2.6-15.12-1.37-30.27-3.41-45.41-3.43-20.75,0-36.33,8.7-46.94,28-17,31-37.57,59.75-63.74,83.92-25,23.09-53,40.6-88.69,36.26-19.39-2.35-38.34-8.4-57.48-12.8-3.62-.83-7.25-1.59-10.82-2.61-30.84-8.78-56.9-.64-79.4,21.66-19.77,19.59-39.9,38.82-60.09,58C328.18,407,322.78,410.25,316.56,414.9Z" transform="translate(-64 -4.89)"/><path d="M104.26,25.11c27.32.12,46.56,27.2,36.7,52.79-2.6,6.76-1.84,11.57,1,17.53Q316.86,459.62,491.51,823.91c6.33,13.22,5.45,21.85-2.75,29.37-11.33,10.39-26.72,6.28-34.34-9.5q-29.52-61.14-58.76-122.42Q249.82,417.31,104.08,113.2c-2.94-6.15-6.68-9.51-13.25-11.73C71.92,95.09,61.06,76.14,64.69,57.66A40,40,0,0,1,104.26,25.11Z" transform="translate(-64 -4.89)"/></g></svg>