<svg id="attack_icon" data-name="attack icon" xmlns="http://www.w3.org/2000/svg" viewBox="0 0 850.72 742.92"><path d="M55.65,734.46C45.49,735.68,42.3,747.87,31,747.59c4.27-7.44,2.15-16.64,7.63-23.91-3.23,1.67-4.65,4.85-6.66,7.52-1.31,1.75-2.93,4.37-5.35,2.67s.06-3.65,1.05-5.24c2.37-3.84,5.25-7.39,6.67-11.77.35-1.08.81-2.23-.26-3.13s-2.12-.41-3.14.11a40.16,40.16,0,0,0-10.58,8.43c-1.89-3,.18-4.76,1.12-6.56,2.22-4.27,6-8,2.44-13.54-.64-1,.57-3.44,1.3-5,1.59-3.5,3.45-6.88,5.13-10.34,4.48-9.24,3.14-11.75-7.07-11.9-4.42-.06-4.81-2.51-4.78-5.64.08-8,3.1-14.8,7.83-21.22a666,666,0,0,1,61.47-71.44q66.61-67.8,137.88-130.69c10.95-9.7,22-19.3,33.37-28.5,4.59-3.72,3.89-5.95,0-9.38-16-14-32.1-27.88-47.66-42.34C190,345.82,169.09,325.51,148,305.33c-20.42-19.57-39.76-40.2-58.46-61.37-27.48-31.11-52.15-64.33-70.11-102-9.27-19.4-13.19-39.71-7.6-61.31C17.51,58.86,46.4,47.25,64.67,60.21A99.93,99.93,0,0,0,84.17,71c15.12,6.34,26.23,17.7,35.48,30.72C157.82,155.52,203,203,250.74,248.11c30.38,28.76,61.73,56.51,92.71,84.63,7.22,6.56,7.2,6.22,14.7-.19,28.54-24.39,57.29-48.54,85.79-73q42.22-36.21,84.12-72.83c32-28,64.58-55.34,99.19-80.12C642.11,96,658.17,87.77,677,86.94c2.24-.1,4.66-.54,6.7.11,11,3.53,21.82,7.67,31.81,13.38,6.12,3.5,9.17,9.78,8.39,17.32-.3,2.92-.88,6-.4,8.78,3.51,20.6-6.25,35.74-19.8,49.46-15.11,15.29-31,29.78-47,44.13-24.41,21.88-48.43,44.2-73,65.93-36.07,31.92-72.42,63.53-108.73,95.19-10.55,9.2-21.28,18.19-32.1,27.08-4,3.32-4.83,5.61-.13,9.3,10.13,7.95,19.27,17.27,29.88,24.46,8.46,5.74,14.76,13.6,22.83,19.61,8.52,6.34,16.63,13.22,24.9,19.89q12.67,10.2,25.31,20.46t25.35,20.45c8.26,6.69,16.48,13.43,24.74,20.11,8.44,6.83,16.85,13.7,25.39,20.41C668,599.75,715,636.19,761.48,673.26c25.46,20.29,50.93,40.68,73.37,64.41,9.58,10.13,16.57,22.26,25.15,34.5-7.87-.18-11.89-9.15-19.62-5.61,2,4,6.23,5.76,9,9.2-8.26,3-14.34-1.89-21.82-6.18,2.38,5.79,3.65,10.71,8.32,13.65s3.28,8.39,6.06,13.06c-5.31-.9-8.5-3.72-12-6-4.29-2.76-6.09-1.58-6.78,3.19-.56,3.89-3.1,2.09-4.8.84-4.39-3.19-8.57-6.67-13-9.82-1.93-1.38-4.47-3.78-6.62-1.68-2.36,2.3.67,4.49,1.88,6.42,1.62,2.58,3.69,4.88,6.45,8.44-6.65-1.5-10.09-5.61-14.51-7.91-2.58-1.35-4.92-6.55-8.95-1.22-.94,1.25-3.72-.84-5.46-1.81-6.33-3.51-12.48-7.37-18.94-10.61-6.13-3.07-9.31-1.47-10.36,5.42-.67,4.41-3,4.08-6.19,3.93-13-.61-22.7-8.29-32.76-15.17-40.92-28-79.91-58.5-119.08-88.82-53.66-41.52-107-83.4-159.56-126.35-25.39-20.75-50.35-42-75.46-63.1-3.35-2.81-6-3.84-9.89-.32-36.87,33.38-74,66.44-110.82,99.89-29.48,26.8-57.22,55.4-85,84-18.26,18.81-35.42,38.68-54.27,56.94-8.34,8.09-18.16,14.18-27.58,20.82-1.17.83-2.56,2.46-4.16,1-1.19-1.1-.08-2.51.24-3.78a21.67,21.67,0,0,0,1-4.57c0-1.29-.38-3-1.86-3.21-.79-.12-1.78,1.06-2.67,1.66-1.84,1.24-2.55,5.67-5,3.87s-4.35-5.46-2-9.25A27.62,27.62,0,0,0,55.65,734.46Z" transform="translate(-9.28 -54.78)"/></svg>