<svg id="attack_icon" data-name="attack icon" xmlns="http://www.w3.org/2000/svg" viewBox="0 0 814.98 848"><path d="M87.36,857c-21-12.71-37.08-30.79-53-48.9-11.26-12.77-11.74-21.74-2-35.54a182.06,182.06,0,0,1,19.07-22.7q55.46-56.07,111.34-111.72c7.78-7.8,7.77-8,.13-15.69-3.89-3.9-7.67-7.92-11.73-11.63-4.27-3.9-4.88-7.3-.36-11.66q16.65-16.06,32.75-32.65c3.95-4,7-4.09,11,0q60.63,60.82,121.49,121.43c3.9,3.88,4.39,7.05.25,11.09-11,10.77-22,21.63-32.7,32.69-4.32,4.45-7.75,4.07-11.73-.26s-8.82-8.35-12.76-12.92c-4.8-5.55-8.54-5-13.51.09-21.22,21.59-42.7,42.94-64.21,64.26-19,18.79-37.78,37.74-57.29,55.95-7.52,7-16.75,12.2-25.2,18.21ZM193.09,739.87c3.73-3.25,9-5.66,9.8-9.1,1-4.27-.3-10.69-3.17-13.89C189.08,705,177.5,694,166,682.89c-6.1-5.91-13.49-6-18.28-1s-4.24,12.06,1.88,18.31c10.77,11,21.65,21.92,32.73,32.62C185,735.4,188.58,737,193.09,739.87Zm-40,39.9c-1.34-3.62-1.57-6.48-3.12-8.06-12.86-13.18-25.74-26.35-39.11-39-4.58-4.33-10.46-3.26-14.9,1.14s-5.56,10.36-1.27,14.9c12.63,13.39,25.64,26.46,39.18,38.92,2.38,2.18,8.59,2,12.09.64C149.05,787.05,150.87,782.55,153.05,779.77Z" transform="translate(-25.42 -9)"/><path d="M767,857c-19.31-10.13-34-25.89-49.13-40.94q-48.37-48-96.46-96.26c-7.67-7.66-8.12-7.65-15.71-.12l-1.17,1.17c-16.49,16.46-16.5,16.46-33.28-.31-7-7-13.89-14.14-21.07-21-4.2-4-4.85-7.3-.41-11.72q60.91-60.57,121.56-121.39c4-4,7.09-4.06,11.05,0Q698.5,583,715.1,599.14c4.5,4.35,3.93,7.74-.34,11.67-4.65,4.29-8.82,9.11-13.53,13.33s-4.47,7.86.06,12.31q29.15,28.68,57.91,57.74c22.44,22.7,44.7,45.59,67,68.43a51.23,51.23,0,0,1,4.27,5c13.47,17.91,13.47,26.9-1.56,43.57-15.23,16.9-30.51,33.88-50.37,45.77ZM672.55,739.39c4-2.09,7.15-2.93,9.18-4.9,12.23-11.88,24.39-23.84,36.18-36.15,4.75-5,4.77-11.05.15-16.41-4.21-4.89-11.44-5-17-.08-5.34,4.74-10.27,9.95-15.33,15-7,7-14.58,13.55-20.64,21.3-2.47,3.16-3,9.38-1.8,13.37C664.34,734.79,669.34,736.83,672.55,739.39Zm51.5,51.69c3.6-1.36,6.46-1.61,8.06-3.17,13.21-12.83,26.42-25.67,39.08-39,4.3-4.53,3.32-10.47-1.09-14.92s-10.29-5.65-14.89-1.33c-13.4,12.62-26.5,25.59-39,39.11-2.2,2.38-2.1,8.58-.71,12.08C716.78,787,721.27,788.86,724.05,791.08Z" transform="translate(-25.42 -9)"/><path d="M115.34,9c98.18,111.23,184.39,232.74,288.84,338.83,8.39,8.7,8.25,8.91-.13,17.94-23.39,25.24-46.94,50.33-70.13,75.75-5,5.52-8.7,5.9-14.28.82C195.46,330.46,51,192.21,115.34,9Z" transform="translate(-25.42 -9)"/><path d="M749.58,9c-99.3,114.45-190.55,237-295,346.92C389.5,426.77,323.32,496.65,258,567.3c-3.51,3.9-3.71,7.69.19,11.57q23.71,23.6,47.32,47.32c3.58,3.61,7,3.72,10.95.84,85.77-62.58,168.67-129,247-200.67l-.3-.25C682.79,317.14,810.82,183.45,749.58,9Z" transform="translate(-25.42 -9)"/><path d="M457.39,558.1c3.34-3.18,5.17-5.14,7.21-6.84,21.76-18.18,43.67-36.17,65.23-54.56,5.21-4.45,8.4-5,13.39.54,20.65,22.88,41.68,45.43,62.82,67.86,5.49,5.83,5.66,10.2-.27,15.91-15.08,14.5-29.74,29.42-44.46,44.29-3.49,3.52-6.88,5.41-11.47,2C519.49,604.55,489.13,581.85,457.39,558.1Z" transform="translate(-25.42 -9)"/></svg>