<svg xmlns="http://www.w3.org/2000/svg" viewBox="0 0 1002 2130"><defs><style>.cls-1{fill:none;stroke:#000;stroke-miterlimit:10;stroke-width:2px;}</style></defs><g id="base"><rect class="cls-1" x="1" y="1" width="1000" height="1000"/></g><g id="avilily"><path d="M810.18,466.44c-15.74-8.33-31.75-16.86-48.67-23.49-20.51-8-42-14.52-63.66-21.06-10-3-19.84-6.46-31.34-.49-8.24,4.28-18.82,3.54-28.57,5.07-.09.24-.58.85-.45,1.25,4,12.87-.13,19.36-13.45,20.49-8.33.7-16.75.62-25.11.9-2.66,11.71-8.71,17.15-20.44,18.37-4.67.48-9.39.63-14.07,1.14-1.85.2-13,15.44-30.11,9.05-.77-.09-1.59.26-3.64.64.2,4.92.42,9.88.6,14.83.24,6.45.68,12.89.62,19.3-.07,7.51,18.56,18,32.47,11.64l-13.29-16.76c13.25,7.23,22,22.23,38.86,21.22l1.28-2.17L563,503.93c.44-.61,15,7.62,22.12,11.79A162.12,162.12,0,0,0,607.15,527c3.11,1.23,7.34-.32,11.06-.61-1.76-3.17-2.87-7.06-5.39-9.41-8.07-7.49-16.72-14.45-25.23-21.7l1.87-2.25c7.6,5.89,14.71,12.5,22.78,17.38a191.48,191.48,0,0,0,28.36,13.66c2.56,1,6.51-1.36,9.81-2.18-1.62-2.54-2.72-5.81-5-7.48-9-6.66-18.41-12.85-27.77-19.28.37-.58,25.11,12.1,37.15,18.54A55.55,55.55,0,0,0,670,519.38c3.12.62,8.85-.24,9.81-2.2,2.51-5.09,1.34-10.58-3.87-13.91-7.63-4.88-15.36-9.71-23-14.72a15.71,15.71,0,0,1-5.92-6.43c11.87,6.49,23.44,13.33,35.37,19.14,8,3.91,16.58,6.58,24.94,9.47a12.31,12.31,0,0,0,6.81.21c2-.51,3.77-2.24,5.64-3.44-1.2-1.68-2.05-4-3.68-4.95-7.95-4.47-16.19-8.51-24.31-12.88a14.19,14.19,0,0,1-5.36-5.08c15.76,6.07,31.3,12.22,46.82,17.92A32.71,32.71,0,0,0,745,504.35c1.93,0,5.36-2.18,5.6-3.67.35-2.23-.85-6-2.54-6.91-8.52-4.69-17.54-8.56-26.33-13-6.7-3.42-13.22-7.3-19.87-11,.3-.62,24.33,9,36.2,13.5,12.11,4.64,24.42,8.53,36.68,12.1,4,1.16,9.67,2.58,11.65-3.62,1.79-5.61-1.25-9.19-5.86-11.15l-.28,0a29,29,0,0,1-6.05-1.65,101.18,101.18,0,0,1-12-4.87c-4.18-2-8.35-4.09-12.46-6.27-1.47-.78,9.58,2,13.76,4a68.4,68.4,0,0,0,6.41,2.91c2,.74,4.06,1.36,6.09,2.07a29.14,29.14,0,0,0,6.87,1.42,19.7,19.7,0,0,1,2.32.39c11,1.43,21.89,3.61,33,1.16.55-.83,1.09-1.66,1.63-2.49C816.61,473.58,814.14,468.54,810.18,466.44Z" transform="translate(0.69 1140.69)"/><path d="M90.7,267.23c-.15-.3-.08-.15,0,0Z" transform="translate(0.69 1140.69)"/><path d="M90.7,267.23Z" transform="translate(0.69 1140.69)"/><path d="M95,208.59c7.29,2.65,14.74,4.91,22.21,4.52-14.33-7.32-27-19-38.76-34.1,11.53,11.32,23.63,21.26,36.87,26.82-9.72-9.87-19.14-20.36-26.17-35,10.26,15.24,35.51,30.71,35.62,30.84-35-39-39.63-144.59-91.92-110.61-5.62,3.66-11.15,18.79-10.39,33.17.52,9.77,7.09,31.13,14.17,46,23.81,57.09,46.84,57.73,78.23,48.13A70.91,70.91,0,0,1,95,208.59Z" transform="translate(0.69 1140.69)"/><path d="M130.7,242.61a2,2,0,0,0-.28-2.25c-9.08,5.78-16,14-20.82,24.77,2-8.08,6.7-16.65,10.7-23.13-11.11,7-19.79,20-26.62,31.52,6.15-12.94,14.87-27.54,24.95-37.29a43.63,43.63,0,0,0-19.46,13.92c8-10.82,16.79-24.61,20.55-24.61-47.67,0-65.54,20.91-51.67,91.35,1.78,9.06,15.77,22,22.2,25.39,3.53,1.86,11,5.42,14.2,2.23,7.94-7.85,9.56-24.06,11.19-38.58C117.85,283.51,121.5,261.75,130.7,242.61Z" transform="translate(0.69 1140.69)"/><path d="M991.76,198.22c-155.23-64.57-324.77,26-488.41,95.63-38.15,19.64-35.19-10.56-76.46-23.38-6.59-16.58-50.6-88.05-93.73-108.52a12.09,12.09,0,0,0,4.66-3c-4.5.29-9.56-3.27-13.45-4.84,11.24,2.87,21.4.56,31-5.61,6.35-1.42,12.64-1.73,17.65-5.69-5.38-.5-9.66-4.63-14.41-6.87,13.21,5.17,32.42,7.43,43.23-3.29-5.5,1.26-12.22-1-17.69-1.87,12.95-.24,26.38-1.25,38.19-7-1.94-.57-41.08-13.46-56,.47,3-3.45,4.78-7.63,8.84-9.81-7.34.33-10.76,6.11-16,10.74,2.53-3.83,4.92-7.79,8.66-10-6.67-.62-13,1.25-19.27,3.46-.5.18-6.36,10.22-6.86,10.4s4.08-9.4,3.44-9.17c-2.47.9-4.94,1.79-7.43,2.54-9.33,4-10.17,16-17,22.81,4.93-6.47,2.75-15,9.31-20.25-12.84,2-17.57,15.87-28.11,21.7-8.28,2-15.16,7.49-23.71,8.24,1.76-.72,16.62-14.92,19.55-19.6,0,0-14.74,4.56-18.28,6.72,4.15-4.82,26.82-24.27,29.57-33.06-6.81,3.78-18.28,1.21-25.76,2.41,9.27-3.67,21.38-3.85,27.78-12.44,9.74-5.57,18.32-11.62,19.3-22.58-5.52,6-13.66,4.64-20.88,8,15.22-10.85,30.38-23,39.74-39.5-1.26-.2-2.36,1.25-3.27-.21-.92-3,4.38-3.82,5.07-6.08-3.2-.86-6.41.76-9.33,2.08,2.95-5.61-11,2.25-13,3C304.67,56.24,289.41,62.32,283.05,91c.79-6.57-.53-13,2.53-18.89-8.46,6.38-7.83,16-10.34,25.86-.11-6.61-.5-13.28,2.12-19-13.32,7.41-20.56,21.46-30,33.17-7.88,12.32.95,27.37-1.58,41,.6-11.72-9-20.1-5.43-31.7-12.08,10.16-8.24,27.62-5.54,41.38-1.68,5.87-1.8,12.66-6.14,17.36-1,.94-2.79,1.9-2.18,3.47l-.26.24c5.47,5.7,36.7,56.25,12.57,94.46,3.8-26.47,3.21-44,2.54-44-81.66,4.33-72.43-.08,0-5-13.67-51.27-15.66-42.7-60.2-38.88,4,8.93-7.58,21.25-3.76,30.1-5-6.27-1.36-14.13,0-20.07,3.05-27.61-9.8-48.09-25.09-77.76-7.53-14-21.16-67.69-31.74-61.56-67.34,39,26,182.34,5,125.91,1.33,2.56,9.17,25.5,10.69,20.36-.5-3.16-10.21-28.91-5.69-26,1.71,4.09,10.35,35.83,13,32.18-.05-1.56-2.09-11.57.8-7.89a49.65,49.65,0,0,0,16.73,31.16c-8.78,1.25-16,17.66-12.93,29.8-2.39,4.12-5-13-4.58-16.25-4.46-6.44-9.21,43.06-7,46.32-4.92-6.09,3.27-55.18-4.45-29.46,1-6.46-3.64-11.52-1.1-17.87-12.54,31.35-29.65,108.59,24.9,130.14,4.31,2.09,10.07,1.32,10.33-4.38.95-63.13,30.44-77.05,21.22-103.19-1.26-2.5-2.52-7.52,0-10,.46-.46,0,3.76,2.51,8.78,1.64,3.28,3.37,4.23,3.76,11.29,0,.37,27.64,12.54,27.45,12.64,0,0,35.48,34.42,63,48.34,60.24,105.52-7.87,157.35,117.22,312.52,4.79,5.94,5.92,17,6,17.27-16.14,32-91,52.41-124.44,55.79-8.88,2.49-37.47,10.36-33.87,22.54,2.56.75,26.24-9.79,18.94-1.31-8.34,2.8-17.51,3.19-24.22,8.11-6,4.59-15.58,9.5-15.2,18.51a1.49,1.49,0,0,1,.54.52c3.44.63,6.7-.33,9.92-1.06,4.34-1.17,24.91-4.47,23.11-3.86a260.93,260.93,0,0,1-33.3,7.77A17.83,17.83,0,0,0,224,782c-3.62,2-5,3.49-6.93,7.37-2.46,4.47-.3,10.11,4.32,9.17,6.9-1.66,22.69-7.34,28.89-4.31-3.88-.18-7.09,1.7-10.58,2.46-7.06,1.5-13.58,3.83-20.13,5.54-5.64,2.15-13.85,14-3.58,15.52,3.89-1.74,24.51-6.84,27.19-5.59-2.77-.51-5.21,1.22-7.45,2.06-4.71,1.77-14.64,2.89-18.65,5.23-6.13,3.57-4.06,13.82-.15,14.92,2.25.64,19.76-8.73,24.73-6.94A56.75,56.75,0,0,0,222,836.11c-16,16.35,7.76,10.46,16.25,4.5,1.33-.53-3.86,5.1-6.6,6.4-1.51.71-4.13,2.61-3.91,2.92-2.87,2.76-4.54,9.17-3.46,10.71,3.06,3.12,14,2.46,16.13-1.48,4.49-3.82,7.82-9.48,14.16-11.77-.26,2.09-6.35,8-8.54,10.06,5,11.78,18,1.57,23.53-1.78,6.19-4.68,10.05-12.1,15.08-18.57,2.85,4.2-5.91,12.59-8.52,16.1,2.2,13.55,19,3.82,23.18-2.22,4.37-7.56,12.33-13,15-22.32,6,7.38-8.22,16-11.33,22,2.92,3.69,8.82,3.87,12.91,3.17,15.34-2.44,19.74-17.84,29-28.46,1.24,2.75-8.64,19.09-12.69,23.12-2.51,8.8,22.9-.23,24.9-1.82,10.29-15.24,54.39-42.38,75.23-57.35,0-2-12-34-15-34-13.57,8.9-51.14,51.84-58.4,57.1-10-.18,26.44-39.24,31.4-44,11.37-19.45-108.86,39.6-120.4,48.2-1,.71-2.58-.62-1.74-1.51,16.1-16.92,69.89-46.57,99.32-62.51,1.75-1,.66-3.15-1.24-2.47-77,27.51-88.38,11.37-88,11.36,50.14-5.21,75.47-9.9,125.05-48.18,0,0,10-27.59,12.58-29.42-15.57,42.84,17.34,81.08,19.89,108.55-1.79,15.91-7.52,40.26-9.52,55.23-1.11,10.67-15.13,38.79,3.84,38.88,2.59-5.58,11.15-25.13,11.36-23.88-1.38,7.4-4.41,14.33-7.26,21.25-10.63,25.56,4.38,41.86,15.41,11.55.23-.18.46-.35.68-.54a63.71,63.71,0,0,1-12,25.45c-.51,6.86,2.78,33.17,13.9,22.66,2.09-8.14,13.68-31.61,17.49-33.68-4.08,13.1-11.46,25-14.79,38.29.32,5.68,3.49,19.12,6,20.37,1.58.8,10.39-.64,15.17-4.3,4.19-7.22,5.45-30.55,8.84-33.94,0,9.51.4,19.26-2.93,28.32-.62,1.86,0,19.62,2.72,24,3.89,6.61,11.38,1.7,13.08-4,5.09-11.3,1.75-25,6.36-36.77,3,8.45-.09,17.87-.55,26.66.51,1,5,21.33,8.79,21.3s10.88-8.42,11.08-18.9c3.38-10.6.38-21.86,0-32.58,1.21,1.72,5.12,21,5.24,22.37,2,4.3,8.45,12.37,12.27,12.4,2.71-.81,8.37-15.11,8-21.41-4.23-12.4-10.35-24.31-13.95-36.78,3.37-.12,10.92,16.67,12.3,22,1.36,7.43,9.34,20.21,16.47,19,2.51-1.25,4.22-18.29,3.2-24.15-4.45-11.26-7.47-23.29-14.21-33.48.14-1.44,15.9,22.3,16.87,29.82,24.26-2.44,5-39.57-3.42-50.53-.42-1.92,16.94,17.12,17.17,24.7,18.33,7.81,13.36-22.83,8.17-31.81a94,94,0,0,0-26-28.93c4.52.08,16.86,8.15,22,16.67C615.7,841,497.65,722.65,486.53,687c-6.31-22.2,10.05-11.18,26.22-108.47,9.66-52,31.15-96-18.29-170.67A1.56,1.56,0,1,1,497,406c12.62,16.43,23.35,39.91,31,60.46,3.32,9.49,13.64,6.82,21.55,7.07,5.47-3,19.86-11.09,32.61-10,32.72-20.48-13.42-25.23-32.34-38.65-.38-.3.7-.83,1.36-1.23,29.09,5.93,54.62,29.15,80.93,14.9-1.78-8.45-2.78-16.92-10.7-17.41-4.64-.91-22.94-2.18-27.59-7.52,9.33.88,76.76,11.3,76.13-1.35.38.09-8.4-3.67-14.67-7.43-.68-.41-19.82-7.84-19.64-8.65,21.93-2.62,72.25,23.68,84.86-.58-2.39-12-54-19.41-41.39-25.89,31.87,12.55,46.41,21.86,79.66,12.54,26.31-20.6-48.61-18.21-37.69-26.11,28.7,5,92.17,14.32,98.47-13.81-20.37-5.48-43.23-1.55-63.89-9.95.55-2.42.37-1.61.92-4,32.56,4.49,84.44,14.17,106.35-11.11-23.24-9-51-3-75.11-11.61-1.59-.57-1.07-3.25.61-3.07,39.2,2.55,84.12,14.4,119.3-1.42-4.71-13.26-9.94-15.2-21.14-16.12-21.2-3.31-43.92-3.26-65.16-9.53-1.66-.49-1.12-3.33.59-3.1,40.73,5.64,80.49,12,120.3-7.33-8.64-26.75-54.43-1.34-85.41-20.59-1.45-.82-.65-3.39.94-3,37.81,9.38,74.93,4,111.81-5.78a1.7,1.7,0,0,0,.61-2.77c-7.14-6.41-13-14.52-24.48-13-15.42,2-30.73.43-45.95-3.27-1.63-.39-1.22-3.25.44-3.14,30.84,1.88,61.14,1.39,91.41-12.38A1.7,1.7,0,0,0,991.76,198.22Zm-720,12.94a2.07,2.07,0,0,1-1.47-2.29c5.3-28.53,25.82-9.74,28.16-3.58C295.28,217,277.48,212.82,271.75,211.16ZM491.4,743.28c3.19,6.3,73.85,97.49,63,108.7-12.83-22.67-34.21-50.28-52.55-71.47-1-1.15-3.07,0-2.46,1.44,15.94,36.4,13.73,95.34,1.75,124.14-.65,1.54-3.1,1-2.63-.55,15.5-52.22-14.9-102.44-17.2-94.94a58.76,58.76,0,0,1-22.41,30.81c23.18-58.37-13.12-106.69-2.44-156.51C463.79,707.17,478.64,724.32,491.4,743.28ZM645,289.92c27.07.34,100.31-12.82,99.92-12.67-42.2,15.93-79.59,25.57-113.5,28.82-29,2.77-35,14.56-33.79,14.88,22.94,6,69.59.26,64.4,2.4-30.89,12.79-97.82,12.68-100,12.54,2.46,20.16,44.34,15.54,43.24,16.2-36.62,27.4-98.11-25.87-69.18,17.68,3.76,5,33.36,21.47,33.36,21.47,3.06,3.86-38-1.65-54-23.81-1.72-2.38,10.56,50.63,8.23,49.07-2.89-1.93-22.53-32.43-24.87-34.46-4-3.5-37.59-59.64-33.21-59.57,110,1.8,237.75-116.83,363.15-108.69C790.92,211.32,693.11,265.45,645,289.92Z" transform="translate(0.69 1140.69)"/></g></svg>