<svg xmlns="http://www.w3.org/2000/svg" viewBox="0 0 1002 2135"><defs><style>.cls-1{fill:none;stroke:#000;stroke-miterlimit:10;stroke-width:2px;}</style></defs><g id="base"><rect class="cls-1" x="1" y="1" width="1000" height="1000"/></g><g id="codazzo"><path d="M400.66,171.38c-3.6-29.13-17.48-62.29-44.11-81.87a1.39,1.39,0,0,0-.93,1.82c1.21,6-.81,14.61-6.13,19.73-.44.41-1.23.11-1.15-.43,4.72-31.14-5.94-61.33-31.62-84.54-6.54-6.71-13.28-13.31-17.07-21.57C294.87-2.76,283.48,24.93,282,28v0a114.47,114.47,0,0,0-6.64,63.21c.1.61-.88.89-1.23.35-3.49-5.4-5-11.57-6.07-17.61-.17-1.05-.32-1.91-2.17-1.63a96.9,96.9,0,0,0-15,3.17c-1.35.39,4.17-11.15,2.86-10.7-12.47,4.27-28.51,14.63-40.12,28.7-.43.52-1.39.14-1.16-.46,1.43-3.81,2.72-8.43,2-9.71a.58.58,0,0,0-.33-.26c-1.81-.64-4.15,2.1-5.78,2.71-17.41,12.3-26.24,36-39.84,50.87-17.58,20.42-44.2,33.89-73,40.23-3,.7-3.64,1.71-2.39,4.15,2.91,5.67,8.92,7.69,15.18,10.63,11.08,5.22,20.41-11.47,19.26-14.3-.32-.78-2,17-10.58,18.26-3.47,1.19,2,3.86,3,5.19,30.95,24.23,74.76,8.82,111.65,6.67,28-2.48,57.06,2.63,79.9,16.84,1.15.68,2,1.29,3-.16,13.46-15.63,7.85-29-1.17-44.28-.31-.54.48-1.07,1-.68,7.21,5.18,12.19,14.88,15.87,22.13.88,1.94,1.58,2,3.3.36,11.34-10,19.16-29.9,8.19-38.14,21.92,16.47-3.84,41.13-11.67,44.58-3,1.31-2.53,11.63-15,23.28a2.92,2.92,0,0,1-3.94,0c-27-24.65-83.61-21.83-111.63-14.7-11.85,3,37.77,6,40.34,33.76a.64.64,0,0,0,.92.45c24.49-10.43,62.58-11.13,87.31-1.27a.59.59,0,0,1,.35.34c1.91,5.41.81,20.38,1.17,23.14a1.64,1.64,0,0,0,2.59.39c10.08-10.56,12.77-22.05,14.58-34.42A.69.69,0,0,1,348,239c5.71,11.17,5.46,25,1.35,36.7-.23.61-.49,1.36.45,1.71s1.2-.39,1.61-.84a106.67,106.67,0,0,0,10.16-12.38c6-8.84,6.31-26.49,5.47-37.73-.11-1.47,10.72,15.5,13.59,20a.72.72,0,0,0,1.2-.07c6.33-15.27-2.5-43.46-7.27-57.21-.2-.56.67-.95,1.12-.51,10.75,10.42,15.07,24.27,16,37.8,0,.72-.19,1.75,1,1.87C401.73,211.47,402.09,190.15,400.66,171.38ZM225.32,141.62c.26.34,0,.78-.52.83-7.84.81-11.43,3.61-17.73,8a19.8,19.8,0,0,1-15.53,2.6c-2.8-.61-3.75-1.93-3.12-4.33,1.67-6.39,7.76-11.32,15.46-12.5C210.59,135.05,221.37,136.65,225.32,141.62Zm109-44.22c-.26,1.21-2.17,2.3-2.27.87C329.78,68.42,319.71,56.46,311,50.34a.7.7,0,0,0-1.08.38c-.51,2.34-5.28,19.34-6.13,19.53-7.23-7.42-3.81-26.89-3.78-36.41-3-13.17-12.36,37.54-15.11,50.53a.69.69,0,0,1-1.3,0c-3.41-19.76.44-41.44,14.61-58,.67-.79,1.4-1.52,2.34-.21C321.58,49.77,342.44,64.75,334.31,97.4Z" transform="translate(0.69 1140.69)"/><path d="M270.57,29.19c-6.75-6.7-13.64-13.38-17.57-21.72a2.47,2.47,0,0,0-4.29-.34,38.26,38.26,0,0,0-2.7,3.59A108.89,108.89,0,0,0,227.76,68.8c0,1.54,0,3.07,0,4.6,0,.57-.31,1.35.33,1.66s1.53-.15,2.07-.58c5-4,11.72-8.92,27.68-13.84,1.68,0-2.06,9.27-2.52,9.83,3.17-.72,10.17-1.66,13.43-2.1,1.6-.22,1.5-6.59,1.61-8.13.51-7.18,1.09-14.42,3.42-21.33C275.21,34.74,273.56,32.16,270.57,29.19Z" transform="translate(0.69 1140.69)"/><path d="M234.35,614.26c1-4.23-1.43-20.42-.53-30.75,4.2-39.42-4.07-78.44-3-117.64a48,48,0,0,0-5,14.87c-1.49,10-6.44,19.6-6,29.9a42.28,42.28,0,0,1-4,20.21c-7.8,17.69-2.79,35.56-7.45,53.9-.84,10.54-3.75,17.53-3.36,27.4-.78,1.11-3.26,15.23,5.34,22.25,0,0-.3,15.69,14.68,39.93,0,0-13.3-32-7.16-39.32a3.4,3.4,0,0,0,.92-2.22c.22.13-.4.26-.15.37,0,0,2.83,28,13.14,42.11,0,0-10.94-29.84-5.35-43.48a3.24,3.24,0,0,0,.32.17,66.76,66.76,0,0,0,8.69,37.17s-8.6-26.77-2.16-39.42C235,626.15,233.57,617.63,234.35,614.26Z" transform="translate(0.69 1140.69)"/><path d="M566.81,361.86c-6.48-15.45-38.64-64.41-38.64-64.41l-1.63-9.68-3.16.45s0-4-5-3.25-3.75,4.49-3.75,4.49l-3.16.44,1.63,9.67s-14.52,55.2-15.71,71.92C509,371.58,539.65,370.84,566.81,361.86Z" transform="translate(0.69 1140.69)"/><path d="M582,493.65c-5.76-5.31-17.3-13-18.92-18.94-4.71-17.31,10.26-67.45,9.77-79.48-27.65,9.24-59,9.88-70.39,9.77,3.26,11.37,34.24,55.38,35.44,73.26.41,6.11-8.08,16.62-11.83,23.27-1.11,2,.91,4,3.62,3.63l20-2.82,2.8,16.68a6,6,0,0,1,1,.08,29.59,29.59,0,0,0,4.2.33l.7,0,.72-.11c1.19-.19,2.4-.44,3.62-.52l-3-17.84,20-2.81C582.45,497.73,583.72,495.23,582,493.65Z" transform="translate(0.69 1140.69)"/><path d="M497.62,376.4a3.18,3.18,0,0,0,0,.34L501.73,401c11.28,0,42.72-1,70.53-9.8l-4.09-24.34c0-.06,0-.14,0-.21C540.34,375.38,508.92,376.36,497.62,376.4Z" transform="translate(0.69 1140.69)"/><path d="M668.24,331.89c1.44-19.56-4.62-86-4.62-86l3.13-11.31-3.1-.72a3.87,3.87,0,0,0-3.06-5.52,4.23,4.23,0,0,0-5.56,3.52l-3.1-.71-3.13,11.31s-39.56,55.44-48.61,73.45C610.82,320.51,639.15,331.41,668.24,331.89Z" transform="translate(0.69 1140.69)"/><path d="M578,532.28h0s0,0,0,0a1,1,0,0,1-.32-.13c-.46-.11-.9-.24-1.36-.34a19.65,19.65,0,0,1-2.83-.75,5.84,5.84,0,0,1-1.47-.83l-1.9,6.89,4.94,1.14,4.94,1.15,1.75-6.34A5.11,5.11,0,0,1,578,532.28Z" transform="translate(0.69 1140.69)"/><path d="M611.08,455.17c3.95-20.93,41.51-70.61,46.8-84.09-29.67-.37-58.65-11.68-69-16.15-2.43,13.81,4.91,74.3-2.52,94.52-2,5.58-10.77,12.11-17.53,17.53.25.39.47.79.74,1.16l.32.42a2.69,2.69,0,0,1,.21.26c.07.08.45.49.66.7.53.54,1.13,1,1.65,1.55s1,1.09,1.43,1.63c1.63,1.85,3.38,3.63,5.1,5.42.53.41,1.07.81,1.56,1.26l5.15,1.19L574.2,522.1a3.27,3.27,0,0,1,1.64.19,27.44,27.44,0,0,0,3.46.89,10.91,10.91,0,0,1,4.5,2.21l11.75-42.53,1.64.38c.31-.85.42-1.87,1.17-2.46,3-2.33,17-5.87,17.63-6C613.15,467.83,610.15,460.13,611.08,455.17Z" transform="translate(0.69 1140.69)"/><path d="M619.35,483.34c-.43-1.25-1-2.62-1.53-4.07l-.25,0c-2.43.54-4.83.95-7.23,1.63-.79.22-1.6.39-2.4.58a2.64,2.64,0,0,1-1.59.51h-.17a10.15,10.15,0,0,0-1,.55,2.87,2.87,0,0,0-1.52,2.15l11.54,2.67C617.81,488,620.15,485.73,619.35,483.34Z" transform="translate(0.69 1140.69)"/><path d="M598.09,321.47c0,.14-.09.27-.12.39l-7.82,28.31c10.33,4.28,39.53,15.23,69.12,16.17l7.86-28.46.06-.24C637.61,336.69,608.44,325.75,598.09,321.47Z" transform="translate(0.69 1140.69)"/><path d="M915.64,438.89c-1.56-4.44-6.22-2.44-6.22-2.44l-1-2.79-12.12,3.57s-72.31-1.31-93.79,1.21c1.32,10,5.76,35.15,18.71,57.09,2.18.52,4.36,1.05,6.58,1.43.3.05.61.11.94.19C851.18,484.69,901,450.56,901,450.56L913.13,447l-1-2.79S917.2,443.33,915.64,438.89Z" transform="translate(0.69 1140.69)"/><path d="M666.65,528.21a2.65,2.65,0,0,1-3.11,1.62c-1.62-.21-3.27-.16-4.9-.22a21.41,21.41,0,0,1-3.08.68,2.63,2.63,0,0,1-3.11-1.62,1.84,1.84,0,0,1-.05-.25l-1.85-.6c-1.28-.41-2.59-.89-3.91-1.31L651.73,541a3.63,3.63,0,0,0,6,1.1c4.43-4.7,10.08-12.52,15.7-17.44-2.2,1.07-4.42,2.1-6.69,3.06A1.61,1.61,0,0,1,666.65,528.21Z" transform="translate(0.69 1140.69)"/><path d="M742.87,488.88a27.81,27.81,0,0,1,3-.79,64.45,64.45,0,0,1,9.24-1,87.62,87.62,0,0,1,8.86-.69c1.73-.17,3.43-.31,5.13-.39a174.65,174.65,0,0,1-8.63-35.69c-14.08,5.44-66.19,43.22-88.84,48.17-7.75,1.7-22.26-3.77-31.23-5.76-2.66-.59-5,1.7-4.16,4.09l6.2,17.63-2.27.66.14.08a52.68,52.68,0,0,0,5.67,3c4.11,1.93,7.45,4.68,12.31,4.69a62.07,62.07,0,0,0,6.23-.87c.55-.14,1.09-.31,1.63-.47s1-.64,1.5-1a13.83,13.83,0,0,1,2.5-1.15c1.81-.72,3.58-1.53,5.4-2.23,4-1.54,8.12-2.76,12-4.48,6.92-3,13.56-6.66,20.37-9.89,7-3.33,14-6.81,21.2-9.83a54.17,54.17,0,0,1,10.42-3.6C740.64,489.18,741.75,489,742.87,488.88Z" transform="translate(0.69 1140.69)"/><path d="M803,496.45a155.24,155.24,0,0,0-19.42-3.39,43.59,43.59,0,0,1-6.27-1.23,129.85,129.85,0,0,0,9.86,19.22l30.52-9L818,502c-.57-.89-1.11-1.79-1.65-2.7C811.9,498.32,807.46,497.41,803,496.45Z" transform="translate(0.69 1140.69)"/><path d="M781.15,488c3,.71,6.2.68,9.27,1.19s6.22,1.15,9.32,1.81c4.5,1,9,1.87,13.54,2.81-11.28-21.53-15.63-44.9-17-54l-.43.11-30.36,8.95a191.74,191.74,0,0,0,9.78,37.84C777.31,487,779.29,487.53,781.15,488Z" transform="translate(0.69 1140.69)"/><path d="M781.47,554.2c16.21-5.91,67.46-35.28,67.46-35.28l10.17-1.47-.5-2.89s4.17,0,3.37-4.61-4.76-3.44-4.76-3.44l-.5-2.89-10.17,1.48s-58.28-13.35-75.9-14.46C770.66,501.33,771.74,529.34,781.47,554.2Z" transform="translate(0.69 1140.69)"/><path d="M735.4,495.29c-11.95,3-58,31.26-76.81,32.33-6.44.37-17.59-7.41-24.64-10.85-2.08-1-4.21.84-3.78,3.31l3.16,18.29-36.26,5.26-.06.47c-.07.57-.15,1.14-.23,1.71.09.36.18.71.24,1.07a17.32,17.32,0,0,0,1.59,5.29,4.48,4.48,0,0,1,.27.65l36-5.23,3.16,18.29c.43,2.47,3.07,3.63,4.71,2.08,5.54-5.27,13.53-15.82,19.77-17.29,18.18-4.29,71.15,9.46,83.81,9C736.37,534.39,735.39,505.68,735.4,495.29Z" transform="translate(0.69 1140.69)"/><path d="M765.47,490.88l-.36,0-25.46,3.69c.16,10.33,1.5,39.09,11,64.55l25.59-3.71.22-.05C767,530,765.62,501.22,765.47,490.88Z" transform="translate(0.69 1140.69)"/><path d="M840.87,377.94c-3-3.78-6.23-.9-6.23-.9l-1.87-2.38-9.07,6s-30.52,7.18-54.86,13.91c-.23.32-.47.62-.7.88-1.88,2.28-4,4.41-5.92,6.65-3.43,4-6.69,8-10,12.09l-.85,1.26a196.08,196.08,0,0,0,19.81,26.13l1.67-.44c7.31-1.79,14.58-3.57,21.84-5.51,2.43-.65,4.87-1.27,7.31-1.88C816.45,415,832.64,392,832.64,392l9.07-6-1.87-2.38S843.85,381.73,840.87,377.94Z" transform="translate(0.69 1140.69)"/><path d="M593,536.76c.51.32,1,.63,1.58.91l.66.32.24.09a4.67,4.67,0,0,1,3.2,5.45l28.59-18.87c0-.19,0-.38,0-.57,0-.38-.08-.76-.13-1.14,0-.17,0-.34-.07-.52a1.39,1.39,0,0,1,0-.17,48.43,48.43,0,0,1-1-8.29l-33.77,22.28Z" transform="translate(0.69 1140.69)"/><path d="M596.15,537.87a18.84,18.84,0,0,1,1.45,1.23,4.59,4.59,0,0,1,.14,6.24L629,536.05c-.14-.57-.28-1.13-.4-1.7-.4-1.81-.66-3.65-.94-5.49-.11-.71-.19-1.43-.29-2.14l-32.86,9.78C595.09,536.91,595.77,537.57,596.15,537.87Z" transform="translate(0.69 1140.69)"/><path d="M716,446.43l-5.47,2.84c-1.45,1-2.91,2-4.38,3-7,4.71-14.09,9.37-21.32,13.81-6.85,4.2-13.38,8.23-19.29,13.53a97.94,97.94,0,0,0-8.42,8.12,26.09,26.09,0,0,0-2.82,3.71c2.38.79,4.57,2,7,2.72a19.16,19.16,0,0,0,8.59.32c4.81-.8,9.18-2.92,13.41-5.07q6.9-3.51,13.73-7.16c9.5-5.07,18.86-10.38,27.84-16.2,3.9-2.53,7.64-5.2,11.45-7.77a195.54,195.54,0,0,1-12.43-16.37C721.24,443.5,718.64,445,716,446.43Z" transform="translate(0.69 1140.69)"/><path d="M765.74,443.28A218.53,218.53,0,0,1,748,419.9c-1,1.19-2.07,2.36-3.24,3.52-.49.48-.94,1-1.39,1.48-.59.66-1.18,1.32-1.78,2a67,67,0,0,1-5,5.4,84.93,84.93,0,0,1-8.76,7c3.66,5.29,8,11.07,12.87,16.83C748.55,451.07,756.8,446.43,765.74,443.28Z" transform="translate(0.69 1140.69)"/><path d="M866.72,571.19l.33-2.91-10.48-1s-25.36-12.59-46.81-22.18c-3.57,2.07-7,4.48-10.41,6.59a52.57,52.57,0,0,1-15.79,6.61c-1.11.25-2.22.49-3.34.71-2,11.89-3.34,26.21-2,40.27C796,597.43,855,581.22,855,581.22l10.49,1,.32-2.92s4.13,1,4.65-3.65S866.72,571.19,866.72,571.19Z" transform="translate(0.69 1140.69)"/><path d="M630.52,551.41c-1.07.17-2.14.38-3.2.52-1.94.25-3.88.36-5.83.44-1.23.25-2.46.49-3.72.67a88.83,88.83,0,0,0-9.33,1.81c-.8.21-1.62.38-2.45.53l24.81,2.34c.05-.31.13-.62.16-.93.16-1.44.12-2.89.19-4.33A2.37,2.37,0,0,1,630.52,551.41Z" transform="translate(0.69 1140.69)"/><path d="M742.88,562.47c-2.89-.35-5.77-.77-8.64-1.09-5.54-.62-43.24-8.13-63.16-8.13-10,0-13.8,5.87-14.32,6.34a2.7,2.7,0,0,1-.4.29,33.58,33.58,0,0,0-4.44,5.17,22,22,0,0,1-6,5.88c-1.93,1.24-4.44,2.29-6.84,1.71-2.9-.71-4-3.29-4.74-5.68,0-.09,0-.19-.08-.28l-1.11,9.88c-.28,2.49,2,4.24,4.07,3.12,7-3.77,17.87-12.07,24.47-12,19.2.17,67.68,26,80.32,28.61A148.28,148.28,0,0,1,742.88,562.47Z" transform="translate(0.69 1140.69)"/><path d="M774.91,560c-2.46.44-4.92.86-7.36,1.32a82.65,82.65,0,0,1-16,1.8c-1.34,0-2.68-.1-4-.21a163.93,163.93,0,0,0-1.15,33.83l26.37,2.49H773C771.87,585.67,773.08,571.76,774.91,560Z" transform="translate(0.69 1140.69)"/><path d="M761.36,397.32c10.46-17.11,36-79.49,36-79.49l8.12-9L803.06,307s3.75-3.22-.18-6.19-6.67,1-6.67,1l-2.47-1.86-8.11,9s-61.69,34.57-78.3,47.29C714.8,364.51,735.3,385.47,761.36,397.32Z" transform="translate(0.69 1140.69)"/><path d="M678.89,387c-8.66,11.53-30.33,69.07-46.5,84.42-5.53,5.25-21,7.8-29.7,10.55a3.09,3.09,0,0,0-1.1,5.49l15.59,11.8-26.19,29a4.56,4.56,0,0,1,.71,1.43c.84,2.81,2.58,5.25,3.76,7.93l.14.18L625,505.2l13,9.87c-.64-2.67-1.26-5.34-2.09-8-1.18-3.77-4-7.52-3.72-11.56.22-3.72,3-6.48,7.18-6.47,3.53,0,6.89,1.26,10.37,1.72a15.42,15.42,0,0,1,2.21-4.51c13.36-17.36,70.55-47.51,81.63-57.61C707,416.69,686.13,395.1,678.89,387Z" transform="translate(0.69 1140.69)"/><path d="M702.85,360.38c-.1.11-.21.21-.29.31L682.25,383.2c7.33,7.91,28.59,29.27,54.89,41.73l20.41-22.63a1.63,1.63,0,0,0,.17-.2C731.44,389.64,710.2,368.31,702.85,360.38Z" transform="translate(0.69 1140.69)"/><path d="M730.89,269.61s2.61-3.68-1.67-5.57a4.1,4.1,0,0,0-5.81,2.27l-2.69-1.19-5.17,9.81s-21.59,20-39.32,37.54a160.46,160.46,0,0,1-2.28,32,174.3,174.3,0,0,0,24.84,11,89.92,89.92,0,0,1,12.84-9.5c.32-.19.63-.36,1-.51,2.23-1.92,4.5-3.81,6.86-5.63,4.49-24.79,9-59.21,9-59.21l5.17-9.81Z" transform="translate(0.69 1140.69)"/><path d="M605.61,495.09c-.84-.57-1.73-1.09-2.56-1.68L583.29,530.9l2.16,1a3.73,3.73,0,0,1,.35-.16,4.68,4.68,0,0,1,3.51.46,4.6,4.6,0,0,1,1.87,2.23l.68.3L611,498.46C609.24,497.24,607.36,496.27,605.61,495.09Z" transform="translate(0.69 1140.69)"/><path d="M660.67,380.88a49.93,49.93,0,0,1-4.48,5.73l-.15.32c-5.74,11.27-12.06,22.75-19.94,32.9A114.93,114.93,0,0,1,623.57,434a95.62,95.62,0,0,1-5.65,16.29,47.88,47.88,0,0,0-1,7.84,58.85,58.85,0,0,0,2.52,15.48c3.63-1.66,7.34-3.51,10-6.37,2.48-2.63,4.11-6,6.37-8.84a113.19,113.19,0,0,0,6.78-9.23,206.48,206.48,0,0,1,9.68-22.28,103.39,103.39,0,0,1,4.59-12c3.52-8.54,6.88-16.68,12.38-24.39,1-1.42,2-2.85,3.08-4.28C668.21,384.52,664.31,382.7,660.67,380.88Z" transform="translate(0.69 1140.69)"/><path d="M672.83,350a111.59,111.59,0,0,1-8.61,24.67c-.33.69-.69,1.33-1,2,3.79,1.87,7.84,3.74,12.15,5.51a186.43,186.43,0,0,1,19.07-22.59A192.9,192.9,0,0,1,672.83,350Z" transform="translate(0.69 1140.69)"/><path d="M493.5,378.68c-.4-3.88-.28-7.77-.34-11.65a2.26,2.26,0,0,1,.16-.85c.19-4.8,1.68-9.45,2.37-14.17-15.38-11.05-32-22.13-32-22.13l-4.43-7.44-2.81,1.4s-1.2-3.26-5.68-1-2.13,4.92-2.13,4.92l-2.81,1.41,4.43,7.44s3.15,50.27,7.08,64.44a291.83,291.83,0,0,0,37.13-15.83C494.08,383,493.72,380.86,493.5,378.68Z" transform="translate(0.69 1140.69)"/><path d="M524.21,495.58c1.77-3.05,3.58-6.07,5.48-9,1.43-2.24,2.86-4.62,3.12-7.25s-2.19-11-2.49-11.8c-2.64-6.61-6.91-12.61-10.38-18.86-3.56-6.41-6.75-13-10.14-19.44-2.51-4.77-6.6-8.92-8.9-13.79A300.65,300.65,0,0,1,472.26,427c6.46,8.31,48.58,34.46,55.09,48.81C529.24,480,526.1,488.88,524.21,495.58Z" transform="translate(0.69 1140.69)"/><path d="M498.42,407.12c-.57-4-1.58-8-2.3-12-.34-1.87-.6-3.75-.84-5.64A324.86,324.86,0,0,1,459.11,405l.14.26,11.09,18.64c5.66-2,16.68-6.17,29.27-12.13A17,17,0,0,1,498.42,407.12Z" transform="translate(0.69 1140.69)"/><path d="M572.29,245.18l-.2-10.7-3.2.05s.57-4.29-4.52-4.22-4.37,4.36-4.37,4.36l-3.2.05.2,10.7s-12.75,32.87-20.58,56.74a51.67,51.67,0,0,1,3.11,5.73,69.24,69.24,0,0,0,6.76,10.59c1.08,1.52,2.1,3.08,3.09,4.64,12.4.84,28.32,1,44.16-1.48.31-.79.62-1.58.91-2.38a56.71,56.71,0,0,0,2-6.83,33.59,33.59,0,0,1,1-4.21C589.28,284.67,572.29,245.18,572.29,245.18Z" transform="translate(0.69 1140.69)"/><path d="M585.41,411c0-.67-.33-12.33-.58-15.69-.35-4.64-.41-9.28-.37-13.93s.18-9.59-.16-14.36c-.13-1.83-.82-6.44-.88-7.11-4,.34-7.95.53-11.82.63,1.86,10.32,6.46,33.15,5.84,35.86s-1.46,8.77-1.88,11.4a2.42,2.42,0,0,1,0,.25,25.81,25.81,0,0,1-.17,3,49,49,0,0,1-1.12,6.55c-1,4.31-1.26,8.6-2.57,12.87a108.3,108.3,0,0,0-3,11q-.36,2.52-.66,5a58.78,58.78,0,0,1-.83,9.53,2.14,2.14,0,0,1-.37.82c-.37,3.2-.72,6.41-1,9.6,0,.85,0,1.69.07,2.54a7.61,7.61,0,0,0,.25,3,15.43,15.43,0,0,0,3.9,4.78c.89.77,1.66,1.65,2.53,2.45.49.45,1,.91,1.46,1.37l0-1.18c-.31-.51-.61-1-.94-1.53-1.26-1.92-3.15-3.27-4.75-4.91a5.65,5.65,0,0,1-1.46-3.66,10.77,10.77,0,0,1,0-3.4,8.1,8.1,0,0,1,1.84-3.48,2.74,2.74,0,0,1,.66-1.33c1.21-1.35,2.61-2.53,3.95-3.77s2.61-2.53,3.83-3.88,2.41-2.67,3.45-4c.68-.89,1.35-1.78,2-2.66A13.61,13.61,0,0,1,581,442C580.25,434.91,581.88,423.38,585.41,411Z" transform="translate(0.69 1140.69)"/><path d="M566.87,518q.81,0,1.62-.06a14.68,14.68,0,0,1,4.58.26,3.87,3.87,0,0,1,1.75.94l-.29-17.42c-.37,0-.74.06-1.12.07a5.62,5.62,0,0,0-1.54.06c-1,.32-5.11.59-7.1,1.13a1.94,1.94,0,0,1-.41.27l.23,13.55A4.31,4.31,0,0,1,566.87,518Z" transform="translate(0.69 1140.69)"/><path d="M565.42,499.86a13.86,13.86,0,0,1,2.24-.28l1-.08.45,0h.09a15.14,15.14,0,0,1,1.76-.33c1.15-.16,2.31-.15,3.46-.23l-.2-11.08-.28-.29a24.16,24.16,0,0,1-2.76-3,22.4,22.4,0,0,0-2.6-2.55c-.88-.84-1.7-1.7-2.63-2.49a12.92,12.92,0,0,1-2.12-2.33l.42,23Z" transform="translate(0.69 1140.69)"/><path d="M552.66,328.52c2.37,4,4.67,8.08,7.25,12,3.28,5,6.69,10.11,9.5,15.42,4.51-.07,9.16-.25,13.9-.63.13-.81,4.23-19.84,7.91-28A225.42,225.42,0,0,1,552.66,328.52Z" transform="translate(0.69 1140.69)"/><path d="M345.22,760.92" transform="translate(0.69 1140.69)"/><path d="M553.54,516.76c-17.93,7.3,21.19,44.94-53.8,102.17-13,9.93-56.24,38.31-72.86,67.84,4.62-9.67,23-33.66,27.2-38.29-4.18-9-22.92-9.89-26.77-33.9,3.57,3.57,16.06,0,16.06,0-5.9-4.75-29.63-43.91-23.2-37.48,3.57,3.57,18.2,3.92,16.06,1.78-7.14-7.13-22.24-42.38-18.37-37.08,2.31,3.18,15.82,8.58,14.8,6.75-8.92-16.07-25-67.82-20.38-61.91,4,5.09,13.15,4.34,11.46,1.23C413,468.24,400.54,429,406.2,436c2.49,3.09,11.05,5,10.4,3.68-10.71-21.41-11.2-39.3-12.89-54.95-3.85-28.63,16-32.54,8.46-66.23-6.09-22.77-18.35-51.23-39.28-68.17,1.67,5.62-16,33.72-25.19,32.32-5.48-.84,1.68-21.78,0-26-1.68,4.92-14.29,22.74-19.31,21.08-5.07-3.63-2-18.6-4.68-24.41-8.67-4.94-66-12.76-88.52,8.25C211,281.33,218,304.94,214,329.3c-2.56,20.14,1.32,40.89-5.3,60.54-8.63,16.31-16.85,32.77-25,49.26-11.2,27.72-33,57-31.79,86.66,2.82,22.83,1.31,36.79,1.77,59.69.09.81-.36,9.58-.84,13.35-.52,4.1-4.93,10.48,4.06,17.47,0,0,.62,18.38,10.79,42.94,0,0-8-35.65-3.5-42.42,0,0,.53-2.69.8-5.93.5-.17.52,2.66,2.55,3.47,0,0-.45,31.63,9.69,45.92,0,0-10.21-34.83-1.29-48.38a4.65,4.65,0,0,0,1.4.52s-3.85,20,6.3,39.45c0,0-5.69-26.2,2.1-41.9,0,0,7.27-4.62,2.75-13.25,0,0-1.22-4.21-1.22-14.05,0-16.16,1-33.47.4-49.52.13-21.33,16.58-40.07,28.48-58.21,15.51-17.35,23.08-38.56,38.95-55.76,17.13-16.83,15.22-39.95,24.58-59.37-3.41,15-2.94,32.61-7.45,47.59a124.71,124.71,0,0,0-18.11,23.9c-5.87,10.1-13.92,19.37-19.19,29.68,1,2.73.46,28.41,4,39.7,1.88,7.88,3.89,15.77,4.23,23.82,1.38,29.56-4.7,55.13,1.71,84.31,1.51,23.34-3.43,46.2-6.23,69.33-2.46,15.34-1.18,70.54-.64,83a263.61,263.61,0,0,0,5,30.91,223.79,223.79,0,0,0,9.49,31.37c5.81,15.37,12.11,30.55,23.57,43.85,6.08,7,12.62,14,13,23.42,4.57,24.17-12.8,40.68-28.55,59-5.17,3.81-11.77,5.77-24.27,7.55-2.15.31-25.06,7.33-26.78,8.63-3.83,2.69-6.92,5.76-7,8.14l-.12.2a20.34,20.34,0,0,0-2.08,12.58,6,6,0,0,0,2.55,4.44c1.43.85,6.67,1.38,8.44,1.71-1.67-4.95-3.57-14.28,1.78-19.63,0,0-3.57,7.13,0,19.63.28,0,7.32,1.62,12.33,1.36a45.65,45.65,0,0,0,7-.83,73.24,73.24,0,0,0,7.33-2.31,53.69,53.69,0,0,1,29.18-.9c5.35,1.31,10.25,1.63,15.21-1.2a22.17,22.17,0,0,0,7.62-7.57,24.1,24.1,0,0,0,6.83-11.07c2-4,3.18-8.78,6.06-12.37,16.42-21.79,25.47-46,33.05-70.71,4-10-13.43-26.23-14.11-39.51-1.86-9.66-3.86-16.39-3.42-26.22,0-1.06,1.79,3.57,7.14,1.79-7.14-8.93-9.58-26.3-7.14-21.42,1.79,3.57,8.88,5,8.92,3.57,0-1-8.92-14.28-3.86-27.42.91-2.38,3.86,7.79,3.86,6,0-17.94,5.36-26,5.36-23.2v12.49c21.41-21.42,39.95-15.5,51.82-11.39,14.93,5.17,29,12.89,44.15,17.19,36.09,10.26,67.56-10,71.78-16.51,58.89-91,1.79-123.14,95.11-194.85C622.6,548.45,577,507.22,553.54,516.76Zm-1.31,10.37c7.14,3.57,10.71-1.78,10.71-1.78C559.37,534.27,552.23,527.13,552.23,527.13Zm12-9.55c5.66,5.63,10.73,1.67,10.73,1.67C568.8,526.6,564.26,517.58,564.26,517.58Zm8.84,6.57c4.47,6.61,10.2,3.7,10.2,3.7C575.82,533.87,573.1,524.15,573.1,524.15Zm15.24,19.61c-3.51,7.17,1.87,10.69,1.87,10.69C581.26,551,588.34,543.76,588.34,543.76Zm-4.94-10.47c2.74,7.5,9,6.06,9,6.06C583.69,543.38,583.4,533.29,583.4,533.29Z" transform="translate(0.69 1140.69)"/><path d="M434.45,835.87a9,9,0,0,0,8.92-1.79c-7.14-3.56-13.91-15.06-12.49-14.27,5.45,3,8.92-3.57,8.92-3.57a69.7,69.7,0,0,1-10.63-14.16c1.71,3,8.85,1.67,8.85,1.67-5.36-8.93-5.29-12.94-5.09-18.27a92.18,92.18,0,0,1-26.73-10.25c-25.29-14.31-47.18-12.46-49.4-11.65,1.81,16.52,3.91,35.53,6.32,42.6,5.81,17.4,12.12,34.57,23.58,49.62,6.07,8,15.27,21.17,15.62,31.82,2.75,16.42-20.89,45.13-24.57,49.42-5.18,3.8-11.78,5.77-24.27,7.55-2.16.31-25.07,7.33-26.78,8.63-3.83,2.69-6.92,5.75-7,8.14a1.28,1.28,0,0,0-.11.2,20.31,20.31,0,0,0-2.09,12.57,6,6,0,0,0,2.56,4.45c1.42.85,6.67,1.38,8.43,1.7-1.63-4.82-2.83-10.29,2.09-15.53-.94,1.19-3.21,5.35-.3,15.53.27.05,7.31,1.63,12.33,1.37a47.08,47.08,0,0,0,7-.83,72.25,72.25,0,0,0,7.32-2.31,53.6,53.6,0,0,1,29.18-.9c5.36,1.31,10.25,1.63,15.21-1.2a22.17,22.17,0,0,0,7.62-7.57,24,24,0,0,0,6.83-11.08l.15-.31A186,186,0,0,0,427,938.08a9.06,9.06,0,0,0,1.2-2.44c8.76-18.27,14.8-37.55,20.1-57.11C452.24,867.22,434.45,835.87,434.45,835.87Z" transform="translate(0.69 1140.69)"/></g></svg>