<svg id="crystorn" xmlns="http://www.w3.org/2000/svg" viewBox="0 0 916.97 985"><defs><style>.cls-1{fill:none;}</style></defs><path d="M584.89,138.57l10.64,6.49c.51.3,1.05.87,1.71.35s.4-1.16.43-1.76q.58-11.15,1.15-22.29c.18-3.52-.84-4.38-4-3-5.77,2.54-11.13,6.16-16.75,9.09-1.2.63-2.35,1.39-3.51,2.11-1.76,1.09-1.81,1.51-.25,2.47C577.8,134.25,581.35,136.4,584.89,138.57Z" transform="translate(-37.46 -6.31)"/><path d="M614.4,127.86c-3-2.23-6.55-3.58-9.69-5.65-1.07-.72-1.66-.48-1.79,1-.21,2.41-.5,4.83-.63,7.24-.26,4.95-.43,9.88-.66,14.83-.09,2,.13,2.18,2,1.5,4.33-1.62,8.36-4.12,12.5-6.29,2.51-1.31,5-2.61,7.51-4,.56-.3,1.45-.37,1.49-1.22s-.7-1-1.21-1.32C620.68,132,617.8,129.57,614.4,127.86Z" transform="translate(-37.46 -6.31)"/><path d="M588.64,112c-5.63-2.73-10.86-6.34-16.31-9.55-1.39-.81-1.86-.56-2.3,1.24-.75,3.11-.4,6.18-.61,9.27-.3,4.14-.34,8.28-.55,12.42-.08,1.49.23,2,1.77,1.34a168.31,168.31,0,0,0,20.57-10.91c1-.61,1.3-1.15.27-1.83S589.64,112.68,588.64,112Z" transform="translate(-37.46 -6.31)"/><path d="M644.8,53.31l-.38.65,0,0c-9.69,12.5-21.34,27.73-31.69,39.75,7-15.62,13-31.2,20.94-46.32h0c.28-.43.54-.86.8-1.3h0c9.85-13.92,21-26.43,31.67-39.75-6,14.68-14.22,32-20.92,46.32l.05,0C645.08,52.88,644.94,53.1,644.8,53.31Z" transform="translate(-37.46 -6.31)"/><path d="M564,97a59.87,59.87,0,0,1-7.36-4.16c-.36-.22-.77-.66-1.24-.17s-.09.82,0,1.23c1.83,9.31,3.74,18.58,5.45,27.93.41,2.28,1.77,3.12,3.52,3.67,1.32.42,1.11-.78,1.14-1.49.18-4.27.3-8.54.47-12.81.13-3.27.27-6.55.45-9.83C566.55,98.54,566.57,98.54,564,97Z" transform="translate(-37.46 -6.31)"/><path d="M632.71,138.77c-1.54-1.55-4-1.21-6.42.3-6.1,3.73-12.42,6.92-18.59,10.47-.64.37-1.67.66-1.55,1.66.1.84,1,1,1.7,1.22a6.2,6.2,0,0,0,3.44-.07c8.68-2.74,17.46-4.72,26.11-7.63.6-.21,1.49-.18,1.67-.94s-.73-.88-1.2-1.23C636.35,141.41,634.8,140.29,632.71,138.77Z" transform="translate(-37.46 -6.31)"/><path d="M622.31,52.36c-.55-.16-45.91,37.47-48.91,40-1.82,1.53-2.19,2.66-1.48,3.38,2.14,2.18,23.73,13.82,25.31,14.9,1,.68,1.93,0,3.38-3.11,7.48-16.19,13.62-35.76,20.74-51.89C621.88,54.42,623,52.56,622.31,52.36Z" transform="translate(-37.46 -6.31)"/><path d="M645,65.15c.4.41-11,58.25-11.72,62.07-.47,2.33-1.29,3.2-2.26,2.92-2.93-.84-23.48-14.23-25.19-15.11-1.07-.55-.93-1.68,1.12-4.45,10.64-14.31,24.89-29.06,35.65-43C643.37,66.52,644.44,64.61,645,65.15Z" transform="translate(-37.46 -6.31)"/><path d="M592.51,59.68c-.25-.46-.85.11-1.36.49Q575.46,72,559.77,83.83a4.26,4.26,0,0,0-1.9,2.16c-.36,1,.16,1.07.49,1.27,1.71,1.07,4.82,2.93,6.52,4,.66.41,1.47.2,2.74-1.31,8-9.56,14.81-18.53,22.89-27.5A6.89,6.89,0,0,0,592.51,59.68Z" transform="translate(-37.46 -6.31)"/><path d="M653.62,94.61c.51,0,.29.8.18,1.43q-3.36,19.35-6.75,38.72a4.24,4.24,0,0,1-1,2.67c-.73.78-1,.34-1.36.14-1.73-1-4.8-2.95-6.53-4-.67-.4-.85-1.21-.08-3,4.86-11.47,9.73-21.63,14-32.91A6.94,6.94,0,0,1,653.62,94.61Z" transform="translate(-37.46 -6.31)"/><polygon points="553.75 61.29 592.88 32.16 610.27 11.18 570.26 39.61 553.75 61.29"/><polygon points="608.6 94.01 616.12 45.81 626.55 20.64 620.08 69.29 608.6 94.01"/><path d="M465.78,429.63c16.08-3,33.18-5.16,49.75-4.69,16.94,2.63,40.45,10.37,44.57-14.19,1.22-33.33-36-26.5-58.13-28.8-14.71-1.53-19.5,4.44-30.72,4.85C443.77,383.21,436.06,430.46,465.78,429.63Zm64.36-35.4c12.91-6.59,7.12,22.67-4.86,20.41C514.1,412.73,526.82,399,530.14,394.23Zm-43.21,14.33c-1.93,12.46-19.93.52-18.59-9.41C468.74,386,484.47,404,486.93,408.56Z" transform="translate(-37.46 -6.31)"/><path d="M458.12,435.07c20.21-.22,75.11-6.09,94.22,1.73-3.28,10.18-41.05,12.63-52.19,12.66C491.82,451.19,453.23,444.67,458.12,435.07Z" transform="translate(-37.46 -6.31)"/><path d="M670,192.56c-2-1.48-4.71-1.43-7-2.26-4-1-6.42-4.83-10.4-5.68-4-.62-8,2.84-12,.66a12.18,12.18,0,0,0-9.54-1.95c-5.48-2.46-7-8.88-11.33-12.52-1.65-4.81-2.5-13.42-6.35-14.84-20.19-3.95-39.69-19.9-56.39-32-3.28-10.17-13.24,2.58-18.87,4-11.63,2.9-23.92.41-32.37,10.12A48.07,48.07,0,0,0,471,126.84c-5.25-2.81-10.89-3.79-16.8-4.61-9.31,7.25-19,17.2-30.64,23.3C396,169.75,387,151.77,385.9,162.23c-2.73,3-2.72,8.59-6.77,10-4.64,5-8.18,11.84-14.47,15-3.2-.58-6.38.49-7.75,3.67-2.14,5.43-12.92-1.41-19.61,3.17-1.44-.15-2.89-.31-4.4-.54-26.91,15.82-2.69,103.33-1.54,50,0-6.55,4.49,4.83,3.63,10.94.32,16.7,9.7,20.68,21.38,32.15-.23-6-7.8-14.79-3.35-19.5,4.85,8.11,7.22,33.55,19.57,36.59-4.23-3.73.6-34.44,5.4-45.65-2.71,10.08-3.59,46.63-2.7,46.89,10,2.91,20.34-11.27,19.59-29.67-.77-7.07,3,6.06,3.27,10.13-.93,4.4-6.6,16.8-6.65,20.79-.09,3.7-4.39,27.72-5.82,30.76-2.52,6.77-7.48,15.79,2.49,12.47,0,.35,8.39-2.71,8.38-2.34.92-.87,1.81-1.77,2.66-2.72a27,27,0,0,0,4.49-6.73c1.21-2.67,1.92-5.55,3.08-8.25.85-2,.91,7.74-.51,10.6a30,30,0,0,1-4.27,6.26,50.73,50.73,0,0,1-5.71,5.55c0,.07,0,.16,0,.26a5.23,5.23,0,0,0-.8,4.14,27.64,27.64,0,0,1,.18,9.34c-1,5.74-3.74,10.95-6.53,16-1,1.78-1.83,3.23-2.23,4-2.17,3.61,9.2.91,12.1-2.19l4.23-5c.44,7.22.29,8-5.11,21.74-.38,1,9.15,2.08,10.39-1.25,2.95,3.62-.41,15.8-.41,15.8-.48.07,4.32,2.81,10.23-.27a26.88,26.88,0,0,0,7.49-10.13c.79-1.95.79,2.05.15,4.16-1.64,5.39-1.81,7.82-6.84,10.7l-.46.25C424,431.66,408,451,425.05,439c4.63,6.1.69,14-2.35,19.86-1.18,5.84,8.48,1,11.3,0,.89,2.89.95,5.61-.92,7.94-3.54,5.67,10.36,1.56,12.54.18,7.05-.79,6.32,7.08,18.16-1,6.6,8.49,4.12,8.95,14.85,4.39,6.11,3.57,5.84,8.23,12.4,2,8.72,2,17.58.6,26.2,2.57,3.14-.27,4.42-4.1,7.27-4.88,4.06,1,7.63-.73,11.29-2.31,8.12,4.3,7.78,2.73,14.59-1.24,14.86,8.19,10.89.2,19.57-9.27.58,4.37,15.29,9.4,8.8,1.75-1.79-5.45-2-17.93-2.32-18.37-3.7-10.44-5.79-9.94-5.92-11.73,3.37.49,8.27,12.38,15.1,10.44.79-.11-3.82-7.92-3.32-12.89.41-4.15-1.74-5.41-2.16-7.67,4.51,6.3,5-2.76,4.5-8.14,4-1.05-.51-6.46.3-9,1.33,2.8,10,10.3,10.74,4.2q-2.58-10-4.18-20.3c5.94,8.92,5.86-6.12,4.39-9.89,3.27,3.28,6.12,9.4,11.53,8.56,3.58-1.09-4.56-19.36-4.85-23.42,2.08-1.81,1.77-5,1.19-8.07a13.37,13.37,0,0,1-1.84-2.49c-.83-1.49-1.53-3-2.46-4.43a15.33,15.33,0,0,1-2.1-4.13c-.57-2.08,8.83,9.41,9,9.59,6,4.81,15.44,6.25,20,3.74a60.38,60.38,0,0,1-8.47-10.65c-7.47-10.9-1.85-24.77-.5-36.92,6.14-7.65,13.14-11.29,20.13-37.3,1.66-8.49-1.53,18.62-3.89,25.71,3.78,2.54,9.82-8,14.08-17.59,3.89-8.72-.77-51,2.37-44.38,7.27,7.77,2.63,44.08,5.31,42.3,27.91-18.52,27.5-32.11,37.47-55C697.31,210.85,683.27,196.78,670,192.56ZM350.77,226.9c-3.59,3.71,2.49,30.53-2.68,22.1C334.36,216.44,373,191.65,350.77,226.9Zm227-34.49c1.21-9.43,1.72-12.9-3.72-21-1.38-4.53,12.44,4.85,12,9.55-.47,49.15-11.47,16.59-27.32-2.85-6.42-6.55-14.37-11.78-15.21-21.77C549.65,154.08,573.36,184.33,577.72,192.41Zm-47.39,56.52c4.16-6.24,17.57-13.93,25.16-25.77,4.44-12.33-8.84-22.28-17.07-32.27,60.86,27.13-9.34,54.71-7.67,71.75-22.86-18.29,11.11-17.41-12.47-51.12-3-4.29-.83-11.23-.83-11.23,8.69,15.94,18.7,17.05,16.91,32.59C526.52,251.59,528.45,251.75,530.33,248.93Zm6.59,90.52c-11.46,17.42-20.62-15.6-20.52-25.32-.46-4.71,9.27,15.11,14,22.07,20.13-11.25,20.17-50.57,20.83-55.7C552.21,300.9,565.36,307.56,536.92,339.45Zm-31.27-184c2.45,4.57,5.87,15.63,23.77,19.27C526,181.42,502.39,171.83,505.65,155.45ZM495.1,272.78c1.85.47-.57,14.56-.84,19.76-1.9,14.78,4.48,26.22,5.17,43.45-12.53,7.94-39.61-33.26-37-31.42,1.86-1.14,20.76,19.52,31.24,24.45C488.72,309.17,483.41,287.44,495.1,272.78Zm-35.43,8.51c-13.61,2.11,12.43-53.78,12.59-49.06-.95,12.54-6.92,29.46-10.93,40,11.95-8.07,23.28-17.87,24.9-41.44C492.49,249.12,480,266.91,459.67,281.29Zm9.19-116.63c5.78,5.2-9.49,25.54-14.44,29.09,13.09-2.63,22.05-11,31.37-26.57,4.4,16-27.39,42.08-44.92,29.84C452.45,189,463.91,179.5,468.86,164.66Zm-83.72,63.56c-7.1-9.51,12.09-46.53,24.63-48.12,2.45,2.57-1.28,5-2.92,6.72C392.22,196.5,392,213.83,385.14,228.22Zm10.8,23.28c-1.39-28.64,14.26-54.12,36.31-62.05C413.32,207.42,398.6,225.56,395.94,251.5Zm20.92,4.91c.05,14.41-9.08,46.17,2.91,48.63,14.13-22.86,23.27-91,34.07-85.81.16.08-26.69,82.67-26.69,82.65C407.3,338.71,407.49,268.11,416.86,256.41Zm14.79,108.83c.07,7.29-2.69,14-3.62,21.22-6.25-25.29.46-49.27,12.39-68.52.85-4.82,2.05,14.42-1.4,20.42a48.93,48.93,0,0,0-2.21,6.09C433,355.17,431.52,353.71,431.65,365.24ZM568.82,408c-1.55,4.53-3.1,9-4.48,13.62-4.51,7.65-1,20.8-6.52,25.66-7,6.12-23.43,3.28-34.2,6.82-11.37,3.73-29,1.43-43.3-1.24-10.08-1.89-25.82,3.82-30.78-6.16-2.34-3.83-1.25-9-5.07-12.28-6.13-6.22-6.66-15.25-7.13-23.6,2.81-17.46,16-42.86,15.86-66.26,6.65,12.05-1.3,29.38-2.49,41.56-.28,2.84,10.41-5.61,11.22-5.81,1.66-.42,11.65-20.42,14.49-27.18,3,6-11.92,27.06-5.23,26.93.38,0,18.26-8.72,52.95-3.24,2.32.36,4.4-1.42,2.83-3.42a48,48,0,0,1-7.66-22.09c9.61,4.49,10.43,17.49,19.42,26.24,1.79-16-2.81-18.52-1.46-27.86,7.3,4.56,7,17.34,9.34,25.26,1.31,4.44,3.36,5.27,6.51,6.51.87.45,4.09,2.37,6.77,3.55C565,391.79,570.33,399,568.82,408Zm12.64-28.11c-.75,2.78-15.37-7.72-20.14-14.87-2.8-4.21,12.09,3.94,15,7.71,5.15-5.73-3.06-43.53-.78-43.53,2,0,6.13,12.26,6.34,16.61C582.47,358.41,584.75,367.12,581.46,379.86Zm-4.66-85.7c-4.15-15.87-6.95-33.07-4.33-49.33,3.74,6.63,2.49,32.57,6.08,42.75,3.22,9.15,7.06,21.62,16.51,35.11C583.12,314.6,584.05,315.81,576.8,294.16ZM623,250.27c-1.1,10.88-3,22.35-8.15,32.06-7.77-11.13-9.7-25.3-15.55-37.66,9.38,1.24,11.37,17,17,24.16,9.73-18.49-5-38.92-10.24-54.75C619.49,213.06,623.11,239.58,623,250.27Zm43.55-13c2.75-5,5-5.9,4.29-11.73-5.63-18.22,2.46-23.14,5.29-.21C676.06,235.5,665.59,239,666.55,237.28Z" transform="translate(-37.46 -6.31)"/><path d="M422.25,141.3c-3.46,2.3-6.91,4.61-10.38,6.89-.49.33-1,.91-1.7.42s-.44-1.14-.49-1.75q-1-11.1-2-22.22c-.32-3.51.68-4.41,3.92-3.13,5.86,2.32,11.36,5.73,17.09,8.45,1.22.58,2.4,1.3,3.59,2,1.79,1,1.86,1.43.35,2.46C429.18,136.72,425.71,139,422.25,141.3Z" transform="translate(-37.46 -6.31)"/><path d="M392.36,131.73c2.91-2.35,6.41-3.83,9.46-6,1.05-.76,1.65-.54,1.84.94.3,2.41.68,4.81.9,7.21.45,4.93.81,9.86,1.22,14.79.17,2,0,2.2-1.88,1.58-4.4-1.46-8.51-3.8-12.74-5.81-2.55-1.22-5.11-2.42-7.66-3.67-.56-.28-1.46-.32-1.53-1.16s.66-1,1.16-1.37C386.24,136.13,389,133.57,392.36,131.73Z" transform="translate(-37.46 -6.31)"/><path d="M417.5,114.87c5.52-2.93,10.6-6.74,15.94-10.15,1.35-.87,1.83-.64,2.33,1.15.88,3.08.64,6.16,1,9.23.45,4.14.65,8.26,1,12.4.13,1.48-.16,2-1.73,1.4a167.44,167.44,0,0,1-21-10.12c-1-.57-1.35-1.1-.34-1.82S416.53,115.61,417.5,114.87Z" transform="translate(-37.46 -6.31)"/><path d="M359.15,58.38c.13.21.26.43.41.64l0,0C369.76,71.11,382,85.89,392.78,97.5,385.22,82.16,378.57,66.82,370.1,52l0,0c-.29-.41-.57-.84-.85-1.27l0,0c-10.37-13.54-21.93-25.62-33.15-38.52,6.52,14.44,15.42,31.44,22.66,45.49l-.05,0C358.86,58,359,58.18,359.15,58.38Z" transform="translate(-37.46 -6.31)"/><path d="M441.57,99a58.82,58.82,0,0,0,7.2-4.43c.35-.24.74-.69,1.23-.22s.13.82.06,1.23c-1.48,9.36-3,18.71-4.38,28.11-.33,2.3-1.66,3.19-3.39,3.81-1.29.46-1.14-.75-1.19-1.46-.34-4.26-.63-8.51-1-12.77q-.37-4.91-.82-9.82C439.06,100.61,439,100.61,441.57,99Z" transform="translate(-37.46 -6.31)"/><path d="M374.48,143.32c1.48-1.6,3.9-1.36,6.43.06,6.23,3.49,12.67,6.44,19,9.76.66.35,1.69.59,1.61,1.59s-.94,1.08-1.65,1.28a6.21,6.21,0,0,1-3.45.07c-8.76-2.41-17.62-4.05-26.37-6.64-.61-.18-1.49-.12-1.7-.87s.69-.91,1.14-1.27C370.94,146.1,372.45,144.93,374.48,143.32Z" transform="translate(-37.46 -6.31)"/><path d="M381.58,56.58c.55-.18,47.31,35.7,50.4,38.09,1.87,1.45,2.29,2.57,1.61,3.32-2.06,2.25-23.19,14.7-24.73,15.84-1,.72-1.92.1-3.49-3-8.09-15.89-15-35.21-22.7-51.06C382.1,58.63,380.87,56.81,381.58,56.58Z" transform="translate(-37.46 -6.31)"/><path d="M359.43,70.23c-.39.42,13.16,57.78,14.07,61.57.56,2.31,1.41,3.15,2.37,2.84,2.9-.95,22.92-15.12,24.59-16.06,1.06-.59.88-1.72-1.28-4.4-11.18-13.9-26-28.1-37.27-41.65C361.08,71.54,359.93,69.67,359.43,70.23Z" transform="translate(-37.46 -6.31)"/><path d="M411.64,62.76c.23-.47.86.08,1.38.44q16.13,11.2,32.26,22.45a4.36,4.36,0,0,1,2,2.08c.39,1-.13,1.08-.45,1.3-1.66,1.13-4.7,3.1-6.36,4.24-.64.43-1.46.26-2.78-1.21-8.35-9.25-15.51-18-23.93-26.6A7.1,7.1,0,0,1,411.64,62.76Z" transform="translate(-37.46 -6.31)"/><path d="M351.91,100c-.52,0-.26.81-.13,1.44q4.1,19.2,8.22,38.43a4.3,4.3,0,0,0,1.15,2.63c.75.75,1,.3,1.37.09,1.68-1.09,4.68-3.13,6.37-4.23.65-.42.8-1.23,0-3-5.3-11.27-10.54-21.25-15.27-32.35A6.9,6.9,0,0,0,351.91,100Z" transform="translate(-37.46 -6.31)"/><polygon points="375.77 64.32 335.57 36.69 317.39 16.39 358.45 43.28 375.77 64.32"/><polygon points="322.21 99.1 312.87 51.22 301.49 26.46 309.8 74.84 322.21 99.1"/><path d="M433.57,923.54a411.71,411.71,0,0,0-47-20.36c-9.7-3.58-42.71-15.75-52.24-19.73-6.2-2.62-12.8-3.53-19.39-4.54-6.93-1.45-13.63-4-20.53-5.58-6.14-1.73-12.62-1.48-18.77-3-8.84-3.11-16.82-11-18.57-20.4-1.26-6.56-1.09-17.08,5.85-20.23.08-.85.16-1.7.27-2.55-15.34,7.74-26,21.92-41,30.14-14.62,7.31-32.15,11.52-41.85,25.8-9.28,14.29-7.55,33.45-.33,48.26,21.18,40.08,66.77,41.77,106.73,41.22,36.47,3.94,73.23,5.14,109.89,5.16,29.62-.8,58.12-9.75,86.71-16.74,1-.24,5.49-.7,4.61-1.24C477.2,953.14,447.46,930.64,433.57,923.54Z" transform="translate(-37.46 -6.31)"/><path class="cls-1" d="M281.24,843.65c-16.3-7-12.19,11.68,0,13,11.37,2.05,22.89,3.8,34.16,6.18a1.28,1.28,0,0,0,.55-.64c.87-2.44,3.22-5.11,4.15-7.67C305.85,858.86,293,850.47,281.24,843.65Z" transform="translate(-37.46 -6.31)"/><path class="cls-1" d="M333.86,793c-12.73-2.91-34.71,17.1-45,25-34.81,29.25,19.68,12.07,31.72,29.17,8.93,2.65,23.73-51.92,24.47-50C347.26,795.05,335.36,793.41,333.86,793Z" transform="translate(-37.46 -6.31)"/><path d="M712.55,826.11l-1.62-.83c-.39-.17-.79-.33-1.21-.47s-.87-.13-1-.65a1.12,1.12,0,0,1,0-.33c.31-5-2.18-8.68-5.7-11.75A118.86,118.86,0,0,0,684.47,799a282.82,282.82,0,0,0-27.38-13.67,24.8,24.8,0,0,0-11-2.23,52.35,52.35,0,0,0-11.48,1.6,59.63,59.63,0,0,0-16.59,7.14c-7.89,4.86-13,11.64-14.7,20.88-.6,3.29-1.33,6.55-2,9.82a20.47,20.47,0,0,1-1,3.41l.27-.71a27,27,0,0,1-7.61,8.51c-3.93,3-8.52,4.8-12.88,7-2.65,1.35-5.31,2.69-8,4.05.32-1.41-.12-6.51-4.05-7.71-2.36-.73-6.84,2.11-9,4.11-1.06,1-7.53,11.71-9.14,12.47,7.34.49,19,1.64,26.23,2.7,23.36,3.42,46.15,10,67.46,20.73l1.44-.18a27.78,27.78,0,0,0,12.17-4.38,68.25,68.25,0,0,1,14.22-6.51,29.07,29.07,0,0,1,5.26-2c.27-.11.53-.25.81-.34l25.5-8.82a21.52,21.52,0,0,0,12.27-10.53,18.54,18.54,0,0,0,2.3-8C717.84,831.82,716.05,828.26,712.55,826.11Zm-116.48,6.13.5-.51Zm-2.94,2.39.26-.18Zm.77-.55.3-.22Zm.74-.57.3-.25Zm.71-.6.29-.26Zm4.89-6.83c-.09.22-.19.44-.29.66C600.05,826.52,600.15,826.3,600.24,826.08Zm-.34.77a19,19,0,0,1-1.48,2.6A19,19,0,0,0,599.9,826.85Zm-1.6,2.77-.35.48Zm-.53.72c-.11.14-.23.28-.34.43C597.54,830.62,597.66,830.48,597.77,830.34Zm-.57.69c-.11.13-.22.27-.34.39C597,831.3,597.09,831.16,597.2,831Zm60.42,13.54c-9.87-11.62-29.52-41.15-28.77-47.31.12-1-.55-1.14.42-1.58,2.63-1.2,5.26-2.39,8-3.35.7-.25,1.41-.49,2.13-.71a21.19,21.19,0,0,1,15.82,1.47c7.66,3.63,15.36,7.19,22.77,11.34a8.59,8.59,0,0,1,1,.75,61.81,61.81,0,0,1,8.4,5,84,84,0,0,1,10.81,8.17c.34.31.65.63.93.94,3,3.37,2.13,6.46-2.54,8.43a22.74,22.74,0,0,1-6.45,1.53,52.27,52.27,0,0,0-21.8,7,34.09,34.09,0,0,0-8.36,7.15C659.41,844.08,658.17,845.22,657.62,844.57Zm51.79-6.48a12.67,12.67,0,0,1-9.13,9.41c-10.45,3.3-20.86,6.74-31.28,10.14a4.26,4.26,0,0,0-1.71.69h0a1.25,1.25,0,0,1-.63-.57c-1.2-2.29-4-5-5.3-7.37,3.49.46,8.46.58,11.76-.3,6.72-1.8,12.49-5.36,17.88-9.61,2.49-2,4.72-4.26,7.49-5.89a17.92,17.92,0,0,1,5.51-2.35C708.12,831.4,710.48,834,709.41,838.09Z" transform="translate(-37.46 -6.31)"/><path d="M771.09,871.59c-9.84-8.16-17.46-22.45-32.42-31.59-3-1.69-8.29-4.55-14.93-8,0,.27.07.55.09.82l.12.29c.6,1.39-1.25,11.71-3.23,15.35a29,29,0,0,1-14.85,13.21,66,66,0,0,1-9.56,2.73,81.55,81.55,0,0,0-9.65,3c-6.7,2.49-30.82,11.67-32.37,12.14,1.48.85,6,10.33,7.48,11.23-2.22-.68-25.93-10.59-28.26-11.23-18.48-5-34.71-10.06-53.48-12.94-39.16-6-78.21-6.47-114,2.56-7.38,1.72-32.6-10-33.4-10.6-1.38-1.58-12.11-12.32-14.54-16.38-1.52-2.54-7.34-13.76-16.52-13.59-5.17.1-2.41,12.45-2.53,13.5-2.52-1.28-10.32-4.11-14.9-8.07-15.4-14-2.94-50.17-58.07-48.51-13,1.93-60.83,34.56-56.42,48.94.17.84-.39.88-.85,1.11-8.25,3.59-7.79,13.92-2.85,20.15a21.55,21.55,0,0,0,13.59,8.75C321.29,869.33,387,895,431.56,913.71A126.16,126.16,0,0,1,449,924.35c82.68,68.55,293.31,95.33,338.15,27.92C798.29,920.21,803.27,892.85,771.09,871.59ZM316,862.22a1.28,1.28,0,0,1-.55.64h0c-11.27-2.38-22.79-4.13-34.16-6.18-12.19-1.35-16.3-20.08,0-13,11.75,6.82,24.61,15.21,38.86,10.9C319.17,857.11,316.82,859.78,316,862.22Zm29.13-65.12c-.74-1.92-15.54,52.65-24.47,50-12-17.1-66.53.08-31.72-29.17,10.26-7.88,32.24-27.89,45-25C335.36,793.41,347.26,795.05,345.08,797.1Z" transform="translate(-37.46 -6.31)"/><path d="M239.06,549.84c.39-1.67.35-1.65.24-1.19s-.15.78-.23,1.17Z" transform="translate(-37.46 -6.31)"/><path d="M238.54,587h0c.13.44.23.88.32,1.33C239,588.59,239,588.39,238.54,587Z" transform="translate(-37.46 -6.31)"/><path d="M770.93,710c-2.65-3.31-6.46-5.12-10.14-7a26.27,26.27,0,0,1-10.1-8.69c-5.64-8.47-6.79-19.16-8.58-28.95,0-.15-2-.75-2.59-1.22-2.56-1.47-12-7.27-15.59-16.57-1,8.5-.11,11.41-3.35,19.53-2,4.9-5.41,9-7.88,13.67-1.87,3.48-5.54,14.77-6.23,13.35-1.24-2.54-5.6-11.57-6.23-14.34a151,151,0,0,1-2.87-22c-1.11-14.83-2.1-29.66-9.7-42.85-1.07-1.87,15.89,12.7,13,38.53-.88,7.65,1.09,15.52,3,23a35.22,35.22,0,0,0,3,7.28,38.81,38.81,0,0,1,2.27-5.77c2.33-4.82,5.87-9,8.1-13.83,4.27-9.29,1.52-17.18,3.63-27,.28-1.3,2.56-1.9,2.79-.74,5.92,29.41,42.85,31.75,43.67,29.74,1-2.39-1.85-4.88-3.3-6.41-2.08-2.21-4.44-4.29-5.9-7a76.14,76.14,0,0,1-5.69-12.7c-.63-2.18-2.91-20.78-1.21-27a51.94,51.94,0,0,0,11,4.36c1.22.31,6.64.93,6-.18a136.74,136.74,0,0,1-12.47-29.09c-2.23-8-10.16-19.93-10-21.2.21-1.46-1.16-4-1.24-3.33-.47,3.66-3.31,9.24-4.16,10.81-.66,1.22-6.56,16.1-8.24,15.16-1.28-.72-2.53-2.57-3.53-3.65s-2.13-2.35-3.11-3.58c-.21-.26-.41-.53-.61-.79l-1.95-3.66A34.57,34.57,0,0,0,718,566.13c-6.67-10.07-20.35-12.8-25.35-24.24-.86-1.95,9.34,6.84,14,9.9a52.94,52.94,0,0,1,13.77,10.88,47.89,47.89,0,0,1,4.44,8.2c.7,1.92,2,3.48,2.72,5.35a21.51,21.51,0,0,0,1.83,4.47,1.49,1.49,0,0,0,2.49,1c1.33-1.29,8.93-19.41,9.09-20.16.75-2.31,4.57-12,1.66-19.12a32.29,32.29,0,0,0-4-5.71,16.16,16.16,0,0,0-4.59-3.34c-2.17-1.21-4.35-2.42-6.59-3.51a28.44,28.44,0,0,1-3.07-1.39c-.63-.4-.87-1.09-1.46-1.54l-.17-.12a1.77,1.77,0,0,1,2.47-1.09c4.58,2.14,14.45,4.6,14.54,4.25,2.16.54,13.43-2.54,8-5.12-8.92-.4-8.9-12.25-24.58-18-1.07-.49-2.13-.94-3-1.37s-9.64-6.41-10.81-7.48-3.57-8.88-2.55-7c1.3,2.42,7.51,9.38,10.45,10.73,2.73,1.25,8.87.7,11.89.38a13.81,13.81,0,0,0,5.17-1.57l.12-.08a29.35,29.35,0,0,0-2.4-2.46,43.21,43.21,0,0,0-3.27-3.36c-1.46-1.16-3.1-2.13-4.6-3.26s-3.08-2.17-4.7-3.19c-1.4-.88-2.59-2-3.91-3s-2.21-2.56-3.59-3.27a5.1,5.1,0,0,1-2.45-2l0-.08a44.71,44.71,0,0,1-10.65.34c-10.24-1.26-22.63-10.67-20.53-10.36,3.21.48,6,2,8.87,3.48a28.48,28.48,0,0,0,10.18,3.39,48.65,48.65,0,0,0,11.12-.07c1.26-.14,2.52-.3,3.78-.43L713,476c-1.71-1.82-3.44-3.61-5.25-5.33-1.27-1.22-2.57-2.39-3.92-3.52l-.46-.37-.27-.19a28.63,28.63,0,0,0-11.87-8,73.51,73.51,0,0,0-17.49-4.11c-8.26-2.39-17.57-5.06-18.79-5.66.26.27-.08,5.33,4.16,11.64.56.83-8.3,1.14-17.46,0-10-1.25-18.29-6.65-21.75-8.29-10.78-5.13,11.83,1.83,15.51,3.3,4.54,1.81,16.61,3.67,19.31,3-1.45-5.27-3.23-8.7-6.18-11.94-.08-.22-.18-.43-.28-.64a16.11,16.11,0,0,0-3.72-4.26,31.77,31.77,0,0,0-8.91-6.05,35.53,35.53,0,0,0-11.42-2.22c-11.34.55-26.08-6.28-36.53-6.71.5,5.22,3.46,9.86,4.21,14.93-.42,5-6.71,7.32-9.68,4.17.66,11.26,10.86,33-10.61,19.45a18.35,18.35,0,0,1-2.85,2.41c-6.44,13.35-3.18,12.62-15.87,6.1-4.54,6-12,5.1-18.08,2.12a14.56,14.56,0,0,1-9.51,1.75c-3.69,5.51-9.58,5.74-15.12,2.37a32.71,32.71,0,0,1-18.46-.86c-3.9,4.05-9.45,2.28-12.81-1.67-5.7,2.78-12.27,3.47-15.2-3.28-5,1.78-10.51,2.85-15.15-.58-5.21,2.57-24.25,5.07-19.08-5.68-19.46,1.76-10.27-9.49-7.06-20.26-23.87,10.67-3.76-14-8.81-24.7-6.27.4-4.58,3.27-10.84,3.86-3.82,0-27.78-2.9-33.79-2.9-44.47,0-43.23,17.46-43.23,17.46,24.53-5.82,30.94-.48,30.76-.42-2.4,1.27-15.52-.14-17.92,1.15a27.86,27.86,0,0,0-5.33,1.38c-5.3,2-10,5.07-15.36,6.62a64.69,64.69,0,0,1-10,1.92,57.26,57.26,0,0,0-13.24,6A96.7,96.7,0,0,0,281,469.24a5.18,5.18,0,0,0-.58,2.48c0,.46,9.56,3.33,17.6-.13a79.56,79.56,0,0,1,13.39-4.9c4.64-1.06,9.47-.89,14.07-2.17s-8.92,4.56-13.89,6c-4.67,1.31-27.78,8.82-28.68,8.73-1,1-8.62,6.73-11.22,7.9-5.5,2.47-14.13,5.82-17.88,16.21-.75,2.09,13.28-.36,14.14-.83.4-.22.45-.14.26.13,4.93-1.59,18.16-5.14,16.48-3.8-6.23,4.94-14,5.67-20.92,9.05a22.1,22.1,0,0,0-3.68,2.29,29.72,29.72,0,0,0-5.68,13.22c-.08.46-.14.91-.2,1.37-.3,1-.58,2-.81,3-.71,3.12-1,6.32-1.44,9.48a.07.07,0,0,0,0,0s0,0,0,.08a36,36,0,0,1-.88,4.2c-1.31,4.69-2.87,9.32-4.32,14a4.81,4.81,0,0,0-.2,1.13q-.54,1.11-1.23,2.34a30.18,30.18,0,0,1-3.7,5.24c-1.72,1.95-5.36,5.76-4,8.09.77,1.3,1.82,3.29,2.91,3.74,2.52,1,8.53-.59,10.81-1.25a139.22,139.22,0,0,0,22.45-9.14c4.12-2.31-10.58,10.65-16.26,12.37-1.44.44-2.85.83-4.28,1.14.07.79-.4,21.6-2.32,28.47-2.78,9.94-17.25,34.9-18.29,37-1.4,2.81,22.32-6.23,22.85-6.76,1-1,2-2,2.94-3a18.35,18.35,0,0,0,2.71-4.32c2.55,7.72,6.29,21,10.57,25.76,1.05,1.18,3.55-12.18,2.91-16.21-.62-3.85-1.68-10.66-2.08-14.54-.51-5,1.13-9.58,2.08-14.55,1.91-10,15.39-25.86,16.91-24.35,1.3,1.3-13.66,24-13.81,35.55-.05,4.48.8,8.69,1.56,13.07a112.69,112.69,0,0,1,1.62,13.07c.25,4.36-6.58,22.73-11.2,19.4-1.86-1.35-2.64-3.74-3.22-5.87a64.13,64.13,0,0,0-2.48-7.35c-.42-1-4-11.72-4.35-12.76.11,3-20.18,4-18.7,8.31,1.54,4.5,7,22.26,5,26.6-3.91,8.53-9.56,16.63-15,21.62-3.9,3.6,9.52,5.74,21,6.89-.08.21-.17.43-.27.63-.73,1.49-2.44,2.63-3.66,3.69-1.51,1.31-3.05,2.59-4.63,3.82a115.2,115.2,0,0,1-11.07,7.52c-3.8,2.28-1.81,7.3,2.1,7.74a47.1,47.1,0,0,0,13.26-.41l.72-.29c5.32-2.18,11.67-2.78,16.54-6v0l.61-.38h0a3.13,3.13,0,0,1,.34-.21,52,52,0,0,0,6.31-4.55c-.49,2.3-1.8,9.44-2.11,21.84l.73-.09a15.6,15.6,0,0,0,5.57-1.93c3.92-2.31,6-6.54,7.42-10.69,1.59-4.65,2.77-9.52,5.28-13.8,2.63-4.48,6.95-6.84,10.67-10.23,3-2.72-2.6,11-2.76,14.78-.3,7.19-.83,16.21,6.31,28.12,7.41-6.51,10.45-7.51,15.09-10.95,7.74-5.75,16.67-9.56,26.19-8.62,3.93.39,11.44,10.57,21.83,8.49,1.66-9.56,1.21-13.7,0-22.45a54.2,54.2,0,0,0-4.79-16.28c-2.46-5.31-4.62-10.65-5.34-16.5-.26-2.14,13.2,21.12,14.91,32.7.73,5,.56,10.05.76,15.06s.49,10.16,3.05,14.43c.59,1-.15,2.68-1.44,2.52a37.8,37.8,0,0,1-7.76-2.06,64.09,64.09,0,0,0-6.9-1.9,23.6,23.6,0,0,1-11.2-5.94c-1.05,2.64-1.71,5.82-3.53,8.28-.11.12-5.94,6.92-8.1,10-3.43,4.9-9.56,13.3-7.07,15.38,0,0,20.37,5.82,32.84-5.4-.59,1-5,6.32-5.74,7.24a19.29,19.29,0,0,1-4.57,3.88c-1.8,1.24-3.88,2.38-5.16,4.18-1.51,2.12-2.64,6.71,0,7a49.74,49.74,0,0,1,10.27,2.11c.81-.35,4.95,2.11,5.95,2.69l.56.12a34.9,34.9,0,0,0,5.3.56A15,15,0,0,0,376.2,788c1.74-.94,9.33-2.18,7.7-1.3a3.25,3.25,0,0,1-.56.24c-1.69.73-2.92,2.24-4.4,3.29a12.77,12.77,0,0,1-4.53,1.95,22.8,22.8,0,0,1-5.59.47c9.07,7.17,10.55,27.18,19.67,37.82,1,1.16,4.16,3.32,5.4,3.32.42-3.32-.41-8.31,3.33-10.39,4.74-2.63,13.72.42,16.62,2.49,4.61,3.29,10.81,13.31,21.62,26.61.44.54,16.65,8,22.49,8.76a405.52,405.52,0,0,1,74.29-7.77c.75-.78,4.71.42,7.55-.58,5-5,14.44-17.49,15.75-18.73,3.15-3,8.84-5.43,12.11-5.12,6.22.58,7.15,3.49,9.13,4.32.48.19,11.37-5.46,14.12-8.25a20.12,20.12,0,0,0,4.73-8.49c.69-2.3,1.1-4.65,1.91-6.92a59.28,59.28,0,0,1,3.06-7c2.07-4.07,3.63-8.44,6.73-11.9S615,785.27,619.2,783a62,62,0,0,1,8.46-3.06c2.58-.52,5.16-1.06,7.75-1.51,4.45-.77,16.19-2,16.53-2,.88,0,3.27-.55,3-1.27-2.74-7-11.15-10.56-18-11.2a55.64,55.64,0,0,1-5.92-.54,47,47,0,0,0-4.83-1.14c-2.34-.22-14-7.09-14.58-7.6s-1.38-1.24-2.11-1.81c-.07-.06-.44-.35-.85-.7-.17-1.4,16.47,7.1,20.06,7.2.94,0,5.8.61,6.65.83,3.44.41,4.33-.62,7.78-.6a1.47,1.47,0,0,0,.74-2.71,39.5,39.5,0,0,1-4.55-3.46,4.8,4.8,0,0,0-.36-.52,11.89,11.89,0,0,0-1.49-2.37,30.22,30.22,0,0,1-3.6-5.56c-2-4.2-3.84-8.51-5.45-12.89q-2.28-6.2-4-12.58c-.5-1.82-.76-4.11-1.41-6.14a5.68,5.68,0,0,0-.64-1.81,58.45,58.45,0,0,1-3.75-8.38,7.79,7.79,0,0,0,0-1.19c.74,1.14,1.52,2.27,2.33,3.39q2,2.7,4,5.34a38.72,38.72,0,0,1,2.87,6c.08.5,4.4,13.16,4.61,13.56.57,1.8,5.65,15,6.17,14.44a24,24,0,0,0,4.9-7.37l0-.08.62-.94a1.46,1.46,0,0,0,.46-.65.42.42,0,0,0,0-.1h0a55.35,55.35,0,0,0,6.11,14.52,1.47,1.47,0,0,0,2.72-.73c.1-1.46,1.67-2.7,2.21-4.05a.36.36,0,0,1,0-.11c.7-.76,1.38-1.53,2-2.35a20.41,20.41,0,0,0,4-10.72,51.71,51.71,0,0,0,0-10c0-.13,0-.26,0-.39-1.29-3-2.49-6-4-8.74-.75-1.39.83-3.28,2.29-2.29,3,2.05,4.21,5.72,4.77,9.18.07.39.12.79.17,1.18,2,4.56,4.42,8.9,8.59,11.6,6.47,4.19,13.86,6.51,19.09,12.19,5.73-11.51,2.73-33.15,3.83-32,3.83,4,3.4,2.15,7.91,5.36,4.22,3,9.62,3.53,14.26,5.67,5.07,2.35,9.09,6.31,13.57,9.55,2.64,1.9,10.47,5.85,11.65,4.78a1.23,1.23,0,0,1,0-.2,1.24,1.24,0,0,0,.95-1,33.22,33.22,0,0,0-1-17c-.39-1.21-.82-2.41-1.26-3.62,3,1.3,6.52,2.38,6.65,2.12a25.49,25.49,0,0,0,8.42.29,24.35,24.35,0,0,0,13.27-6.7A1.49,1.49,0,0,0,770.93,710ZM543.76,619.13c.36-8.76,5.9-24,7.78-28.93-7.4,21.17,4.75,63.85-21.52,83.09-13.09,9.59-20.21,5.49-20.57,4.18-3.74-13.3-1.67-19.53-3.74-30.76-.39-2.1,2.55-13.34,2.91-11.22,1.92,22.83,1.66,30.76,5.81,39.49,1.45,3,12.89-3.33,14.22-5C543,656.05,543,637.56,543.76,619.13ZM502,532.82s9.15,23.7,18.61,30.6c11.93-6.29,13.82-19,15.22-35.8,11.48,14.76-6.81,36-13.87,44.28C521.92,571.9,498.64,554,502,532.82Zm-42.11,94.93c.28-2.53.76-13.55-.62-17.6-2.7-7.93,2.17-23.81,1.91-21.68a48.22,48.22,0,0,0-.07,13,65.41,65.41,0,0,0,3.14,11.74c2.75,8,0,15.93-.1,24.1a1.69,1.69,0,0,1-3.12.84,98.38,98.38,0,0,1-6.62-9.54,51.22,51.22,0,0,0-7.08-9.3c-5.21-5.56-10.54-11-13.65-18-5.82-13.23.54-26.19,6.55-38.24,1-1.93-3.15,13.92-4.46,20.58A27.58,27.58,0,0,0,438.56,602C442.08,608.62,457.06,623.25,459.85,627.75ZM420.74,470.33c-5.23,24.67.31,35.18,12.23,47.53,5.79-1,12.88-16.89,11.87-12.74-1.2,7-12,21.2-11.87,19.39C416.75,515,406.77,481.88,420.74,470.33Zm-83.2,134.08c-1.49,5.55-1.49,11.35-1.55,17.06s.05,13.58.38,19.33c.28,4.91,1.22,9.66.42,14.58a34.76,34.76,0,0,1-4.64,11.88c-2.94,5-11.81,18.81-13.91,17.7s-5.66-6.67-7.11-8.5c-1.72-2.16-3.46-4.35-5-6.64-2.65-3.94-4.4-8.4-6.19-12.77-.82-2,7.19,8.55,10.28,12.72,1.53,2.07,3.09,4.13,4.73,6.11.79,1,2.45,2.46,3.3,2.42,1.23,0,3.29-3,4.72-5.21s2.55-4.19,3.83-6.29a53.11,53.11,0,0,0,5.14-9.68,26.82,26.82,0,0,0,1.26-12.19,116.32,116.32,0,0,1-.73-14.81C332.59,621.35,338.1,602.32,337.54,604.41Zm9-61.12c-3.38,7.27-10.71,12-18.08,14.43a42.2,42.2,0,0,1-24.4.95c-1.31-.36,6.62-10.71,9.6-15,8.31-12,13.79-33.25,18-36.41,1.73-1.3-4.27,19.79-6.8,26-2.45,6-10.37,20.44-13.3,22.44,29.93.84,36.22-27.93,36.57-25.81A22.57,22.57,0,0,1,346.55,543.29Zm-7.42-59.76c-2.1.44,11.16-11.79,16.88-16,7.28-5.34,28.3-5.53,26.21-5-8.67,2.13-18.35,5.8-25.54,11.61C351.19,478.56,346.39,482,339.13,483.53Zm43.69,172.18c-.48,4.53-2.52,10.78-3.89,15.11-.41,1.29-6.23-7.09-8.9-9.61-2.4-2.26-5.36-3.7-6.64-6.92-.79-2,12.87,4.74,14.29,6.56,1.11-3.63,1.05-15.46-.13-19.74-2.29-8.26-3.17-27-2.91-24.84,1.12,9,4.48,17.4,6.71,26.11C382.49,646.81,383.31,651.11,382.82,655.71Zm11.9-44.63c-.23.2-3.35-3.37-5.82-5.93-3.71-3.86-9-7.1-11.78-11.68-.52.19-4.79-7.83-7-11.37-1-1.6,22,18.29,23.34,21,2.08,4.16,5-61.49,5.62-59.43,2.2,7.68,3.35,45.55,1.7,53.61a51.61,51.61,0,0,1-2.54,8.7A11.19,11.19,0,0,1,394.72,611.08Zm29.55,102.59c-1.33,7.1-5.14,14.07-6,21.25a1.71,1.71,0,0,1-2.12,1.62c-9.36-2.56-12-12.89-15.43-20.72-.86-2,7.8,10,14.51,13.14,1-6.43,2.6-9.05,3.84-15.43,1.27-6.55,1-13.37,2.91-19.78,3.35-11,20-31.27,19.15-29.27-4.18,10.41-10.46,18.87-13.9,29.59C425.19,700.39,425.49,707.17,424.27,713.67ZM467.8,836.34C465,841.69,453.54,849.76,453,848.9a49.37,49.37,0,0,1-4.33-10.75,38.19,38.19,0,0,0-4.91-10.58c-4.38-6.37-11.31-36.41-10.41-44.1.25-2.12,9.77,33.69,14.13,40.24,3.68,5.52,4.49,12.27,7.33,18.16,3.31-3.3,7.43-5.94,9.78-10,3.25-5.64,4-16.53,3.94-14.37-.1,3.28.69,6.41,1,9.65A16.47,16.47,0,0,1,467.8,836.34ZM485,736c-3.89,6.8-4.44,15-6.71,22.38A26.52,26.52,0,0,1,462,775.17a4.21,4.21,0,0,1-2.56-.6c-4.74-3.58-6.72-8.32-6.78-14.18,0-2.16,5.34,7.57,9.08,10.4.07.05,6.9-3.39,9-7.27,3.76-6.91,4.3-15.09,6.65-22.5,2.41-7.59,6.88-13.7,14.71-16.2C494.19,724.16,487.21,732.1,485,736Zm47.19,63.79c-1.31,5.15,0,10.45-.35,15.68a25,25,0,0,1-5.14,13.09,45,45,0,0,1-9.26,9.49c-3.57,2.72-7.33,5.29-9.62,9.26-.58,1-10-11.47-10.53-22.71-.1-2.15,7.08,9.79,10.46,15a37.92,37.92,0,0,1,7.31-6.7,46.64,46.64,0,0,0,9.61-9.21c3.08-4.09,3.84-4.73,3.88-9.92C528.56,808.76,532.71,797.7,532.18,799.79Zm46.48-68.67c-1.53,5.23-3.87,9.63-3.93,15.21,0,2.71.27,5.43-.26,8.11-.39,2-5.07,9.43-6.2,11.12-4.52,6.74-15.82,10.24-15.82,8.42,0-14.06-.28-23.24-7.73-35.87-6.25-10.59-13.93-19-18.1-30.76-.72-2,17.78,19.68,23.8,30.78,5.52,10.18,7.09,15.82,6.91,27.14,3.68-1.83,6.13-1.83,9.28-6.07a13.73,13.73,0,0,0,2.86-6.1c.38-2.7-.08-5.43.12-8.14C570,739.54,579.27,729.05,578.66,731.12Zm-9.29-216.37c-6.26-18-9.65-18.65,5.34,1.45,4.18-3.54,3.55-26.56,7.44-26.94C582.87,489.19,582.25,543.33,569.37,514.75ZM587.72,620a1.72,1.72,0,0,1-.6-2.29c3.63-8.44,9.15-20.19,10.18-29.37s.6-30.63,1.1-28.54c2.29,9.56,3.37,19.39,2.17,29.19a97.41,97.41,0,0,1-7.36,25.84c4.93,1.94,9.29-1.66,12.77-5.26,3.64-3.77,15.21-9.4,13.3-8.4-2.47,1.3-4.38,3.53-6.23,5.58-2.18,2.42-4.28,4.93-6.68,7.13C601.73,618.1,593.57,623.41,587.72,620Zm31.84,55.84c-1.59,1.21-3.37,2.14-5,3.24a25.53,25.53,0,0,0-5.73,5.25,1.69,1.69,0,0,1-2.8-.74,84.08,84.08,0,0,1-4-22.49c-.18-7.75,6.46-24.18,6-22.08a93.39,93.39,0,0,0-2.64,22.08c.15,6.38,1.37,11,3.08,17.08,2.39-2.28,5.11-2.33,8-4.18,3.86-2.49,5-6.14,5.5-10.6C622.07,661.27,623.56,672.78,619.56,675.83Zm14.17-149.24c-10,0-12.18-25.81-11.64-29.51,4.57,7.48,3.33,19.12,10.81,25.35,8.73-6.65,8.73-19.12,11.56-26.92C647.57,498.62,641.21,526.59,633.73,526.59Zm25.55,73.89c-2.42,10.83-11.55,22.35-6,33.41,1,1.93-2.81-2.29-3.79-4.22-5.42-10.75-.65-15.65,2.57-26.19a37.53,37.53,0,0,0,1.38-17.54c-1-5.83-2-11.31-4.64-16.58C647.88,567.44,661.86,589,659.28,600.48Z" transform="translate(-37.46 -6.31)"/><path d="M952.49,854.36c-2.58-2.81-6-3.72-9.68-3.91-8.73-.46-17.6.45-25.3,4s-15,1.11-23.89,2.51c3.55-4.58,6-8,8.65-11.11a19,19,0,0,0,4.65-10.77c1.06-10.47,3.55-20.71,6.29-30.81,2.13-7.85,2.95-14.78-2.46-21.79-2.62-3.39-5.16-5.29-9.37-4.86a22.29,22.29,0,0,0-11,4.42,115.37,115.37,0,0,1-21.3,12.19c-8.68,3.86-17.53,6.3-27.45,4.72-9.38-1.49-18.84-1.2-26.75,5.89-3.94,3.52-8.36,2-12.16-.8-4.75-3.46-9.16-7.4-14-10.73-19.3-13.3-32.41-28.61-45.29-48.12-3.46-1-18.22-10-21.19-12.06-4.74-3.27-14.55-7.06-19.54-7.06-2.53,0-1.48,15.27-7.51,25a1.69,1.69,0,0,1-2.89,0c-5.3-7.36-14.61-8.9-21.36-14.35a22.25,22.25,0,0,1-4.81-5.5c0,1-.08,2-.16,2.94a24.13,24.13,0,0,1-4.17,12.4,36.66,36.66,0,0,1-3.49,4.08l.24.24c.43,1.63,8.4,8.45,10.59,10.25a408.45,408.45,0,0,0,62.32,47.52c2.66,1.67,78.72,53,85.06,56,4.5,2.11,6.45,5,8.16,9.39,2.75,7.1,3.51,15.35,10,20.6,5.56,4.46,11.14,8.93,17,13,3.88,2.74,8.57,8,12.92,2,3.87-5.24-1.21-9.19-4.92-12.58s-8.07-6.25-11-11.47c2.25.3,3.87.13,5.09.74,10.7,5.35,21.86,9.36,33.18,13.27,11,3.82,22.74,3.8,33.62,7.75a4.24,4.24,0,0,0,5-1.83,4.82,4.82,0,0,0-.49-5.88,14.76,14.76,0,0,0-4.72-4c-6.46-3-12.76-6.39-19.77-8.16A65,65,0,0,1,884.5,881c1.78-2,3.36-1.74,4.76-2,9.29-1.56,18.65-2.35,27.69-5.64,10.49-3.81,20.34-9.93,32.51-8.52C954.34,865.46,956.17,858.37,952.49,854.36ZM882.28,837c-.12.12-5.2,7.52-5.49,8a5.68,5.68,0,0,1-5.24,3c-2.7-.19-1.92-2.76-2.26-4.48-1.35-6.68-3.67-13,1-19.84,6.36-9.28,15.15-14.67,26.14-20.08C893.18,816.45,895.6,823,882.28,837Z" transform="translate(-37.46 -6.31)"/><path d="M331.3,732.33a44.2,44.2,0,0,0-10.82,6.48c-7.3,5.68-10,9.56-19.7,10.16-3,.18-4-8.71-6.23-17.46-.92-3.66-.37-8.32-1-12.61a15.51,15.51,0,0,0-3,4.07c-2.15,4.31-5.75,14.62-10.4,17.35a22.76,22.76,0,0,1-6.47,2.51c-2.24.49-4.84.1-6.76,1.46-1.39,1-1.91-7.82-2-16.63-4.27,1.78-9,2.56-13.26,4.24l-3.23,1.24c-15.51,23.81-37,40.76-59.3,57.17-3.81,2.81-8.38,3.85-12.22.35-7.29-6.63-16.15-7.43-24.87-6-11.73,1.94-21.86-1.3-32.09-6.21-8-3.84-15-9.19-22.82-13.32-4.18-2.23-9.72-4.1-12.85,0-3.53,4.63-9.46,9-7.46,16.31a358.12,358.12,0,0,1,8.48,40.65c.61,4.06,2.8,7.36,5.31,10.56,2.22,2.85,5.18,5.35,6.17,9.72-8.15-.62-15.53.39-23.23-2.65-9.06-3.58-19.06-5.47-29-3-4.47,1.11-7.76,3.88-6.9,9,.82,4.93,4.84,5.27,8.82,4.82,5.66-.64,10.76.94,15.83,3.21,11.16,5,22.5,9.29,34.92,10a19.25,19.25,0,0,1,10,2.85c-5.83,2.83-10.72,5.4-16.17,6.63-7.68,1.73-14.59,5.31-21.42,9-3.11,1.67-5.42,4.72-3.77,8.38s5.41,2.71,8.33,1.72c5.44-1.85,11.16-2.06,16.62-3.39,12.37-3,24.69-6.22,36.35-11.65,4.72-2.2,9-6.28,15.63-5.22-3.6,6-9.49,8.85-13.56,13.48-2.66,3-5.31,6.73-1.78,10.61s7.09,1.25,10.13-.94c5.62-4,10.8-8.72,16.53-12.59a21.8,21.8,0,0,0,9.09-12.28c3-9.5,5.9-19.13,17.31-22.66,4.74-1.47,8.16-6,14-8.33,17.75-15,82.37-55.92,95.78-64.89,19-12.68,35.44-27.83,50.57-44.32A35.25,35.25,0,0,0,331.3,732.33ZM121.88,832.18c-.78,3.44-4.49.79-5.88-.87-9.45-11.22-17.6-23.18-20-38.14-.26-1.62-.81-4.31,1.93-2.91,10.9,5.58,21.42,11.77,26,24.22C126.45,820.7,123.18,826.47,121.88,832.18Z" transform="translate(-37.46 -6.31)"/></svg>