<svg xmlns="http://www.w3.org/2000/svg" viewBox="0 0 1002 2135"><defs><style>.cls-1{fill:none;stroke:#000;stroke-miterlimit:10;stroke-width:2px;}.cls-2{fill-rule:evenodd;}</style></defs><g id="base"><rect class="cls-1" x="1" y="1" width="1000" height="1000"/></g><g id="Dromeus"><path class="cls-2" d="M995.88,320.17c-1.17-1.19-2.41-2.33-3.67-3.44.29-3.84-1-10.68-9.17-21a50,50,0,0,1-.74,10.72,62.94,62.94,0,0,0-4.91-7.36,47.89,47.89,0,0,1-.2,6l-1.25-.95a53.11,53.11,0,0,0-7.11-11.39,50,50,0,0,1-.69,10.52,62.07,62.07,0,0,0-4.91-7.35,49.31,49.31,0,0,1-1.13,11.89c-.86-4-3.23-9.39-8.8-16.46a50.06,50.06,0,0,1-.66,10.32,62.35,62.35,0,0,0-4.92-7.37,49.85,49.85,0,0,1-1.06,11.54c-.87-4.74-3.61-11.4-10.56-20.23a59.33,59.33,0,0,1-.46,10.1,76.47,76.47,0,0,0-5-7.38,58.38,58.38,0,0,1-1.39,14.27c-1.11-5.15-4.2-12.2-11.43-21.38a64.23,64.23,0,0,1-.35,9.83,86.17,86.17,0,0,0-5.08-7.37s.6,13.18-3.9,22.57c.58-4.85-.75-13.93-11.86-28a64.53,64.53,0,0,1-.31,9.52,87.68,87.68,0,0,0-5.08-7.35s.71,15.53-5.16,24.88c.68-5.76-.91-16.52-14.07-33.23a74.74,74.74,0,0,1-.17,9.12c-1.47-2.29-3.17-4.72-5.14-7.29,0,0,.75,16.44-5,27.61.39-6.7-2-18.39-15.86-36a82.17,82.17,0,0,1-.09,8.69c-1.5-2.29-3.19-4.69-5.12-7.22a86.63,86.63,0,0,1-.76,13.92c-2.25-12.15-1.95-23.78,2.13-34.93a84.55,84.55,0,0,1,15.15,14.76c-.56-12-2.49-20.51-4.88-26.61,15,3,29.3,21.57,29.3,21.57-1.11-23.67-7.58-34-12.37-38.36-.4-1.2-.81-2.31-1.24-3.34,14.44.45,29.15,19.61,29.15,19.61-1.16-24.78-8.92-33.14-13.1-35.87.06-.4.12-.81.19-1.21a11.21,11.21,0,0,1,1.73-.22l2.12,2.3c.87-.75,1.84-1.55,1.14-.71.3-.33.59-.65.87-1,0,0,.08-.12.12-.2,11.1,2.58,21.49,16.13,21.49,16.13-1-21.36-7.8-28.25-11.26-30.39l.6-.77c.39-.49.79-1,1.2-1.45a19.94,19.94,0,0,1,6.2,1.8,55.13,55.13,0,0,1,3.87,4.39c0-.8-.08-1.58-.14-2.33a61.64,61.64,0,0,1,13.59,12.61c-.88-18.89-6.31-26.46-9.95-29.44l.63-.71a14.83,14.83,0,0,1,1.69.41,48.37,48.37,0,0,1,3.44,3.87c-.05-.9-.11-1.76-.17-2.59,8.36,4.06,15.33,13.14,15.33,13.14-.89-19-6.83-25.43-10-27.53a1.07,1.07,0,0,1,.14-.16,50.11,50.11,0,0,1,5.56,5.91c-.1-2-.25-3.75-.46-5.4,7.54,3.12,14,11.59,14,11.59-.48-10.18-2.67-16.08-4.91-19.49-.1-1.44-.23-2.78-.4-4,8.39,2.21,16.13,12.3,16.13,12.3-1-22.17-10.21-24.08-10.21-24.08l-.17.16,0-.34c9.44.08,19.15,12.72,19.15,12.72-.41-8.76-2.1-14.35-4-17.92h.09c1.46-9.38,4.11-18.2,3.73-26.88a25.53,25.53,0,0,0-7.92-16.27c-10.85-9.56-30.25-7.2-46.24,2.42-28.52,17.17-57.23,34.09-86.46,50-21.34,11.63-43.39,21.16-67.93,25.9a77.37,77.37,0,0,0-33.21,15.7c-.37-.47-.75-.94-1.19-1.4l.55,1.93-1.2,1.06c-4.91-9.25-11.08-17.79-24.48-23l5,6.7-18.84-12.13-.49.3c2.06,1.68,4.06,3.42,6.22,5a41.26,41.26,0,0,1,6.45,5.2L668.07,146l4.17,7.52c-7.82-6.67-16-11.06-23.36-11.84l11.84,12.86-.6.5-6.61-2.74c3.39,3.39,7.33,6.83,10.48,10.65a56.59,56.59,0,0,1,7.5,12.3c-7.53-13.65-23.55-18-38-23.94l8.16,4.82c-8.9-.93-17.27-1.52-25.56-2.78-5.27-.8-10.4-2.83-15.67-3.9-5.66-1.15-11.41-1.86-17.12-2.66a1,1,0,0,0-1,1.32L569,151.21c.1.31.19.62.29.94,9.09-.93,18.11-.77,27.53,3l-7.27,3.49.33.57c2.43-.57,4.78-1.45,7.3-1.6,2.24-.13,5,0,6.94,1,7.28,3.66,13.28,8.48,17.44,14.82A47,47,0,0,0,589,164.47c3,.32,6,.53,9,1a54.3,54.3,0,0,1,8.65,2L563.92,165l10.72,4.57c-11.89.74-24.24-4.1-34.43-1.1l31.21,5.79c0,.33-.08.66-.11,1-9.78,1.2-20.39-2.56-29.78,1l7.56-.35c-8.92,2.58-16.68,7.16-27.07,7.09-5,0-9.77,1.67-14.64,2.58L525,183.67c-5.42,2.42-11.12,3.8-17.62,1.94l-8.28-2.68c3.21,4.27,4.71,5.43,17.55,7.13-9.64,6.47-29.32,6.3-39.16-.33.69,4.68,5.64,7.66,15,9-7.49,2.9-22.14-1-32.36-8.62.4,9.47,12.41,18,31.34,21.77l-4.25.21.11.77c4.39,0,8.84.16,13.14-.2s8.62-1.27,13.41-1.23l-12.29,4.85.18.65,15.53-2.44c-12.68,8.41-27.26,9-44.15,5.07,7.51,7.41,16.43,9.54,26,10.33l0,.91-17.52-.46c8.53,2.32,17,1.76,25.49.53,6.72-1,13.44-2,19.08-2.81-7.6,6.86-21,13.15-32.05,15.19l7.15.2.53.67L486,250.84l1.63.73c-13.27,6.14-27,8.78-42.85,3.08,4.34,6.32,17.05,9.52,36.66,9.81l-9,1.46.12.57,13.83-1.31c-4.17,3.81-8.86,6.38-15.89,6.32a21.29,21.29,0,0,0,19.25-3.09c4.35-3,8.51-6.21,12.8-9.28a9.32,9.32,0,0,1,3.46-1.52c-10.16,8.59-12.36,22.24-27.43,28.66,9.86-.74,14.4-5.86,19.48-10.46-4.12,9.66-6.23,20.53-21.07,23.66a14.85,14.85,0,0,0,12.2-1c2.87-1.41,5.25-3.42,7.94-5.07a38,38,0,0,1,4.36-1.86L500,299.62l1,.3c.92-3,1.61-6,2.81-8.9a41.76,41.76,0,0,1,4.72-8.87,29.93,29.93,0,0,1,7.6-6.65C501.27,294.72,498.88,315,514,337.25c-1.63-5.06-3.7-10.08-4.76-15.17a59.84,59.84,0,0,1-.89-15.56c.56,4.28.69,8.61,1.82,12.85a57,57,0,0,0,5.12,13A61.71,61.71,0,0,0,523.81,344a82.11,82.11,0,0,0,12,10.17c-4-9.62-8.21-19.06-7.29-29.7.93,1.95,1.5,3.17,2.08,4.39q-.63-12,8-19l.39.23,3.91-3.09a40.13,40.13,0,0,1,5.63-2.55c-3.19,3.35-6,6.83-4.85,12,3-11.12,12.71-16.52,29.21-16.42.72,0,1.44.07,2.16.09-.61,1.39-1.23,2.77-1.82,4.16a17.49,17.49,0,0,0-7.09,5.85c1.73-.36,3.42-.68,5.12-1-1.71,4.23-3.37,8.48-4.88,12.78-5.76,16.4-11.68,32.9-15.25,49.83-2,9.59-4.83,16.12-16.4,19.29-4.9-6.22-10.75-12.87-15.37-20-27.4-42.18-113.43-26.78-125-27.78-11.25-1-22.26-5.61-33.46-6a36.89,36.89,0,0,1-11.18-1.91c1,2.43,2,4.87,2.89,7.36,2.62,7.46,3.38,6.84,3.7,14.78.3,7.36-7-7.66-9.68-14.92-1.45-3.95-3.15-7.81-4.81-11.68a34.69,34.69,0,0,1-6.17-6.71c-16.66-23.2-35-23.45-59.13-17.36-15.14,3.82-28.78,14-42.77,21.92-20.87,11.81-41.38,24.26-62.22,36.11-3.64,2.07-8.09,2.95-12.29,3.73-7.73,1.43-15.53,3.16-23.33,3.35-17.82.44-35.69.66-53.46-.31-9.09-.5-14.25-7.05-12.61-16.57,2-30.93,15.38-57.17,33.31-81.85,75.12-97.33,181.3-130.2,293.55-181,.88-1.29,2.68-3.93,2.7-4,3.26-7.12-41.13,1.69-68.08,10.82-91.59,31-126,23.39-273.46,158.58C31.49,281.75,6.53,328.84,5.78,371c-.72,40.61,18,82.61,53.17,100.75,17.94,9.24,37.27,13.51,57.61,14,8.42.19,16.85,1.69,26.79,3.15.88-.92,1.76-1.84,2.61-2.77,4.19-4.58,7.44-9.64,11-14.66a125.13,125.13,0,0,1,11.39-13.27c2.49-2.61-5.21,13.94-9,19.69a96.79,96.79,0,0,1-9.29,11.95l.33,0c-9.1,19.22-16.73,36.13-25.23,52.59-1.69,3.27-6.43,5.68-10.27,7-10.43,3.65-16.56,10.76-19.88,21-2.11,6.48-4.94,12.71-7.15,19.16-3.31,9.62-10,12.93-19.34,9.91-6.06-2-9.3.08-12,5.32-8.49,16.27-10.74,33.14-8,50.87,6.19-.23,16.68,3.89,14.16,3.43-8.42-1.52-13,2.47-14.16,2.3-1.33,12.69-1.32,26.45,4.89,41.27,0,0,1.95-23.76,18.18-44.19,10.12-.9,18.63-5.94,23-15.08C99.94,632,109.15,628.05,118.68,620c-.79,4.08-1.2,6.1-1.57,8.12-3.22,17.5-6.82,34.95-9.36,52.55-.53,3.68,1.41,10.35,3.8,11.85a32.79,32.79,0,0,1,4.25-1.62,26,26,0,0,1,8-1.3c2.73,0,10.59,5,8,4.74-2.2-.21-4.37-.7-6.58-.75a25.28,25.28,0,0,0-6.55.61c-.83.21-1.67.48-2.49.77,1,13.74,5.34,36.2,21.1,53.65,0,0-8.39-18.53-5.15-39.74,17-28.7,26.21-59.58,31.59-89.63a50.64,50.64,0,0,1,6.91-2.45c22.36,29.4,7.78,66.82,7.78,66.82,13.49-16.67,20-43.85,21.14-58.5,0-1.91-17.2-9.56-17.2-9.56,1.91,0,16,2.32,17.2,3.83.08-.33.12-9.3.57-17.5.36-6.65,1-13.3,1.76-19.92,1.81-15.16,4.27-30.27,5.55-45.47.6-7.15,18.94-28.84,19.43-29.16,5.43-3.54,10.55-7.55,15.75-11.42,10.17-7.56,19.68-15.78,29.35-24s19.42-16.13,29-24.32c8.37-7.14,17.14-13.25,28.32-14.72,5.74-.75,11.56,0,17.28-.8s19.3,4.79,15.78,4.13c-6.27-1.18-12.52,1.46-18.76,1.77s-12.51-.27-18.72,1.46c-10.34,2.88-18.22,10.7-26.22,17.41-9.23,7.74-18.52,15.41-27.68,23.23s-18.41,15.35-28.1,22.52c-3.74,2.78-7.44,5.61-11.29,8.24-4.82,7.67-9.7,13.4-11.75,20-2.18,7-3.45,15.63-1.34,22.35,4.62,14.67,11.32,28.67,25.47,37.46,2.87,1.78,4.82,5,6.34,7.28,1.17.71,2.32,1.46,3.44,2.26,3.27,2.34,5.53,5.34,7.94,8.52,5.09,6.71,12.16,11.6,17.21,18.34,2.69,3.59,5.51,7.18,6.89,11.5.29.93,5.34,11.27,7.11,15.43a42.73,42.73,0,0,1,3.28,15.08,64.23,64.23,0,0,1,.15,8.32c-.14,1.71-.68,4.93-.54,4.88,0,7.17-1.51,13.64.23,19.07,3.51,10.94,8.78,21.32,13.33,31.93l-2.6,1.93,11.2,1.61c-1.59,7.49-4,15.46,8.33,12-.21,11.13,24.21,28.92,42.79,31.83.48,19,1,38.15,1.49,58.8l8.43-5.58c1.65,9.71,3.22,18.87,5.11,30l6.95-5.72c6,12,11.29,24.22,18,35.53,8.33,14.06,17.86,27.4,26.88,41.05.79,1.19,1.42,2.81,2.56,3.41,3.55,1.89,7.32,3.37,12.95,5.89l6.05,11,3.74-.57c10.2-48.52,6.86-98.2,9.77-148L489.19,823c12.35-77.52-7.87-100.78-12.92-105.69-9-8.81-19.44-17.12-25.63-27.75-8.24-14.13-13.56-30.1-19-45.66-3-8.66-3.84-18.1-5.79-27.91,24.86,2.52,24.86,2.52,30.35,24.22.53,2.09.61,4.42,1.63,6.24,6.21,11.1,10.18,25.38,19.55,32.37,15.12,11.27,36.16,30.73,54.77,39.9-3.83-19.11,1.64-24.68,2.93-28.51,2.8,15.13,4.71,28.51,17.8,36.77.29-12.08,4.11-15.9,9.15-18.16-3.13,15.63,22.17,33.65,21.72,30.92-1.91-11.46.33-20.61,1.91-19.11,5.31,5.07,12.79,14.09,18.29,18.94a47.79,47.79,0,0,0,16.76,9.17c16.28,5.15,32.59,11,49.36,13.65,27.62,4.29,48.63,18.08,66,39,2.17,2.6,5.55,4.21,10.86,8.12-1.79-5.53-2.08-7.76-3.15-9.51-21.12-34.21-43.16-67.65-72.89-95.38-6.37-5.94-12.62-22.17-22.18-26-11.09-4.43-34.4-3.82-19.11-13.37,2.43-1.52-36.31-15.29-36.31-15.29,3.82-5.74,22.93,0,22.93,0-5.73-9.56-17.2-15.29-26.76-19.12-7.12-2.85-14.43-4.5-20.56-9.1-10-7.53-20.79-14.13-32.67-22.08,5.5-5.42,9.46-8.15,11.85-11.89,8.18-12.79,16-25.84,23.6-39,3.64-6.26,5.16-14.45,10.13-19.16,33.6-31.91,64.1-65.79,79.91-110.54,2-5.67,5.44-11,8.91-16,17.24-24.87,39-41.82,71.28-40.83A187.23,187.23,0,0,0,773,360.16c33-4.56,65.88-11.4,99-13.88,28.43-2.12,57.23.45,85.86,1.16,14.93.37,27.76-4.12,36.85-16.21C996.74,328.57,997.61,321.93,995.88,320.17ZM731,213.45s-1.56-15.43,10-16.59l34.71-3.49S758,210.73,731,213.45Z" transform="translate(0.69 1140.69)"/><path class="cls-2" d="M288.08,656.83c-.21-.52-14-31.75-29-42.43-2.78-2-4-5.59-6.46-8a28.2,28.2,0,0,0-5.44-4c-10.32,7.37-21.33,13.23-27,22.39-9.59,15.54-13.79,34.31-21.26,51.29-7.13,16.21-13.94,32.93-23.85,47.41-6.9,10.09-18.52,17.1-28.48,24.91a41.22,41.22,0,0,0-14.46,45c8.16,26.2-23.71,66.58-25.63,77.53-1.83,10.43-6.73,17.15-15.18,23.17-8.94,6.37-10.63,24-4.08,32.53l6.61-11.76c2.11,13.14,1.73,25.5,1.56,37.85-.13,9.91,2,20.13,12.49,22.54,6.23,1.44,13.82-3,22.21-5.2,1.11,1.34,3.64,5.41,7.1,8.42,9.36,8.13,14,17,31.17,15.44,6-.53,52.61,1.13,56.7-.21,8-2.63,8.69-25.18,1.81-37l20.38,12.48c.22-3.22,1-5.17.36-6.53-5.69-13-14.78-23.31-28.1-28-4.4-1.54-12.27,1-16,4.44-12,11-23.61,8.53-28.41-7.07-3.48-11.32-8.51-22.34-10.51-33.89-2.26-13.18-4.44-27.27-2.06-40.1,2.83-15.25,10.38-29.65,16.29-44.26,1.12-2.74,4-6.6,6.28-6.76,16.66-1.14,17-14,18.84-25.51,2.7-16.88,4.08-33.17,20.37-44.94,21.9-15.81,41.82-34.34,62.8-51.44a8.2,8.2,0,0,1,2.28-1.27c.26-1.91.82-3.74,1.15-5.66a35.79,35.79,0,0,0,.06-7.88A41.14,41.14,0,0,0,288.08,656.83Z" transform="translate(0.69 1140.69)"/><path d="M391.85,71.39c1.18-7,.08-15.47-.94-16-7.76,10.89-13,21.09-20.3,31.4-8.24-21.37,22.43-72.38,51.6-75.43l-5.09,11.6c14.33-2.82,28.68-7.27,43.24-8.06s29.19,2.11,44.83,6.58L473.3,30.58c20.36,12.43,49.4,11,67.87-3.32-5.37,38.13-42.36,58.05-99,53.3,9.25,13.8,23.42,17,44.43,10.19-13.13,36.42-79,40-104,15,13.14-1.14,33.79-.78,44.58-9.07-13.42-8.88-17.21-5.14-23.69-12.3,7.2-14.52,18-22.73,28.68-25.86C405.17,51.28,406.18,54.84,391.85,71.39Z" transform="translate(0.69 1140.69)"/></g></svg>