<svg id="foromeer" xmlns="http://www.w3.org/2000/svg" viewBox="0 0 871.03 985.86"><path d="M428.38,642.37c-15.84-35-9.79-102.16-51.12-115l.32.3c-48,25.94-90.36,62.62-126.72,113.57A80.6,80.6,0,0,0,242,662.85c-2.38,10.5-2.43,21.14-1.68,31.78,15.86,89,51.45,199.88-55.12,247.92-23.33,7.77-58.43,19.58-59.68,48.38.4-.13,25.34-.81,25.34-.82,62.25-1.84,121.33-6.79,177.32-13.28,8.79-.92,11.09-4,11.44-14.24,1.17-25-8.48-65.13-.35-90.08C399.14,672.06,254.18,752.71,428.38,642.37Zm-24.94-82.91c-4.84,35.64-73.44,43.92-43.74,106,3.75,1.14,46.13-42.25,45.4-61.72.66-2,1.48-11.46,5.59-8.55,7.55,50.92,19.59,39.83-19.89,64.51-.47.3-19.69,11.51-19.55,11.71l-26.13,16.15-2.64-3.87c-8.36,7.7-13.76,8.33-17.81,2.18,5.8,1,11.39,2.68,14.48-3.37,2.36-4.21,3.92-8.7-.63-13.76,0-15,3.33-30,4.85-44.38,2.75-23.18,39.31-38,23.94-63.11-4.43-5.68-10.5-5.66-16.81-5.73-.23-.53-.45-1.07-.68-1.61C375,536.07,389.76,520,403.44,559.46Zm-65.92,133c-1.24,4.75-2.13,8.19-3.42,13.14-2.67-5.33-4.51-9-6.78-13.55ZM331.2,569.9c6.31-5.17,22.85,3.34,18.36,11.53-6,9.77-12.69,19.25-19.45,29.38l-25.46-17.2C314,585.17,322.34,577.13,331.2,569.9ZM300.59,599c3.48-4.5,31.53,17.86,38,20.59-3.48,10.67.77,48.68-8.76,50.53-6.42,2.21-7.78,9.51-13.89,11.06-3.32,1.9-7,.69-9.29-2-2.55-1.43-2.63-2.07-.24-1.94a7.08,7.08,0,0,1-3.49-.73c-1.74-1.48-3.22-2.58-3.95-4.82-1.7-5.2,1.71-12.54,3.6-17.25,2.91-7.24,4.26-10.19,5.78-17.88.67-3.43-11.58-9.42-14.54-10.73-2.68-1.18-30.57,25.1-33,26C264.27,647.18,296.94,602.63,300.59,599Zm-7.17,103.15a1.63,1.63,0,0,0-.11-.23c10.86,4.41,10.79-15.72,20.53-18.33-3.1,4.76-7.1,22.34-14.35,26a2.37,2.37,0,0,1-.25,1.54c14.69,12.77-2.49,26.92-9.38,39.25C290.17,743.05,277.84,690.28,293.42,702.14Zm-47.58-15.4c9.18,9.19,14.67,35.9,19.57,50.34,2,7.28,3.27,22.42,11.61,26.71-4.69-.68-13.72-4.56-14.92-9.66C257.59,735.09,250.14,705.15,245.84,686.74ZM263.42,973c-4.22,8.81-18.45,4.11-22.49,6.94-6.41.14-41.1,6.75-39.65-4.59C205,961.72,279.43,939.54,263.42,973Zm1.81-19.48c-15.84-17.91-38.9-1.73-38.9-1.71-17.37,10.5-50.58,9.14-52.2,30.91-4.83.34-30.2.45-34.94.92,7.95-31.47,53-32.5,75.14-51,19.94-23.2,30.12-20.87,48.79-13,6.46,3,15.47,1.3,17.75,10.45C284.83,947.43,286.87,964.42,265.23,953.48Zm18.69-51.63c-2.29,9.69-1.22,6.3-7.3,14.3-4.4,5.8-23.86-3.45-27.21-5.74-.56-.39,0-3.41.87-5.91a3.22,3.22,0,0,1,.3-2.41c2.68-4.1,5.55-8.28,7-13,.83-2.81,1.75-5.6,2.35-8.47.36-1.68.62-3.37,1-5,.68-10.77,6.91-80.79,4.61-113.65,23.17,14.18,20.26-4.71,34-19.94.39.36,4.52,4,4.91,4.31-7.14,15.08-19.7,27.65-21.68,46.45-2.75,28.5-7,55.74-12.39,85.16,5.42,2.37,14.06,5,18.7,7.45.44.08,17.67-76.93,17.49-74.68-.09,1-2,59.61-2.15,59.72-4,13-5.47,18.81-8.29,20.35.05,1-1.88,6-2.42,6.73C293.54,897.55,285.52,895.11,283.92,901.85Zm53.65,51.3c-1.35,4.72,1.39,8.5-1.55,13.25-5.34,7.73-46.3,9.24-46.65,4.23-3-18.84-6.7-37.67,4.58-58.27a43.24,43.24,0,0,0,2.19-4.35c-1.09,10.89-8.3,26.16-1.24,49.13.59.68,19.09,6.27,27.46,5.19,0-.21,0-.43,0-.64-.09,0-3.71-16.16,3.51-21.39a3.67,3.67,0,0,1,6.37.77C333.07,945.78,338.78,947.94,337.57,953.15ZM335,940.06c-17.15-54.78-6-168.32-4.9-172.55,4.53-19.18,13.56-42-8.06-54.54,6.26-3.09,14,7.85,17.06,12.69,25.05,48.26,4.31,98.64-6.54,150.06C328.1,892.93,337.89,922.41,335,940.06Z" transform="translate(-57.77 -8.83)"/><path d="M241.68,272a24.4,24.4,0,0,0-1.22-3.9,63.53,63.53,0,0,0-7.28-9.78,21.39,21.39,0,0,0-12.38-7c-7.35-1.49-13.93,2.24-21.32,6.12-.86-1.39-1.44-2.33-2-3.27l1.87-.33c1.16-2.45,3.9-5.72,3-7.09s-5.37-1.15-8.56-.53c-10.61,2-21.36,4.6-32.06,7-4.45,1-7.88,2.85-8.56,6.16-.63,3.05,2.16,3.46,6.22,2.9,1.85-.26,4.48-.42,5,.32,2,2.81,3.24,6,4.93,9.38-7.3,3.36-17.27,9.47-15.43,23.17,15.28,51,39.59,97.17,72.65,139.88l-.36.14c41.46,6.13,47.59-56.26,71.78-80C266.4,307.35,245.84,283.56,241.68,272ZM221,287.32c7.4,4.87-5.37,35.34-5.11,45.88-6.13-.08-35.38,8.71-37,3.46a118.15,118.15,0,0,1-5.31-14.48c8.62,8.39,31,4.71,27.85-9.72,1.07-7.92,2.35-15.57,3.73-23.27l12.72-6.12A12.59,12.59,0,0,0,221,287.32Zm-24.26,87.34c-5.6-10.16-10.5-20.69-16-31.75l25.77-5.29c3.12,11.54,6.42,22.68,9.06,34C217.42,381,200.83,382,196.78,374.66Zm76.46,9.48c-4.39,1-2.94-8.24-3.09-10.32,5.07-17.58-21.92-71.63-25.35-72-10.36,9.25-12.63,23-15,35.89.73,20.69,36.3,64.49,28.37,77.57-4.77,8-18.07,22-27.64,14.14-7-10.75-16.47-20.75-21.9-32.11l1-1.23c5.57,2.62,10.93,5.24,16.33,1.74,19.94-17.16-8.31-45.45-4.85-66.94,2.25-12.93,3.09-26.93,6.72-39.35,5-2.57,4.71-6.8,3.76-11.05a8.24,8.24,0,0,0-1.36-3.34l1.67-.81c.88,1.22,3.28,3.12,4.65,2.29l16,24c-.17.11,12.25,17.8,12.54,18.26C291.39,360.31,291.32,340.55,273.24,384.14Z" transform="translate(-57.77 -8.83)"/><path d="M185.35,233.84l3.92,7.82c-9.74,2.16-18.9,4.32-27.93,6-1.5.29-3.05-1.07-3.61-2.14-1.63-3.11-1.64-7.22-10.51-4.31-1.55.51-4.88-1.36-4.49-2.62.51-1.67,4.05-5.09,6-5.57,13.07-3.28,26.1-6.12,39.05-8.73,1.83-.36,4.74,1,4.4,2.06-.71,2.16-3.23,4.61-5,6.94Z" transform="translate(-57.77 -8.83)"/><path d="M172.8,212.84l4.11,8.21c-8.6,1.94-16.9,4-25,5.44-1.62.28-3.19-1.75-3.52-3.2-.8-3.6-2.74-5.5-9.87-3.2-4.09,1.33-7.09.65-6.66-2.4.45-3.23,3.74-5.29,8.27-6.31,10.94-2.46,21.85-4.85,32.78-7.31,4.26-1,8.69-1.88,8.84,1.48S178.1,211.35,172.8,212.84Z" transform="translate(-57.77 -8.83)"/><path d="M160.55,192.47l4,8c-7.58,1.7-14.56,3.49-21.34,4.63-1.57.26-3.28-1.38-3.48-2.67-.66-4.22-3.4-5.92-11.06-3.5-4.64,1.47-8.21,1.06-7.44-2.51s4.73-5.28,9.32-6.28c10.25-2.23,20.51-4.55,30.77-6.81,4.48-1,9.52-2.49,9.8,1.44C171.34,187.61,168.58,189.56,160.55,192.47Z" transform="translate(-57.77 -8.83)"/><path d="M148.32,171.81l4,8.06c-6.44,1.47-12.34,3-18,4a3.22,3.22,0,0,1-3.25-2.38c-.68-4.58-3.81-6.3-12-3.6-4.72,1.54-9,1.58-8.41-2.16.65-4.08,5.4-5.61,10.31-6.68q15.37-3.31,30.77-6.81c4.83-1.1,9.46-1.86,8.68,2.34-.72,3.89-5.14,5.45-9.82,6.45A22,22,0,0,0,148.32,171.81Z" transform="translate(-57.77 -8.83)"/><path d="M135.57,151.16l4.15,8.3c-4.83,1.07-9.37,2.35-13.62,2.89-1.65.22-3.68-.86-3.78-2-.54-5.42-5-6.4-13.62-3.51-1.46.5-3.53,1.08-4.32.75-1.8-.76-4.35-1.76-4-3.2s4-4.68,5.85-5.15c13.09-3.25,26.16-6.15,39.12-8.68,1.85-.36,4.41,1.54,4.16,3s-3.37,3.91-5.77,5.26C141.59,150,138.72,150.31,135.57,151.16Z" transform="translate(-57.77 -8.83)"/><path d="M124,131.1l4.16,8.3c-4.15.74-8,1.7-11.71,2-1.43.1-3.27-1.07-3.43-2.14-.82-5.29-4.81-6.51-12.11-4.23-1.25.39-3,.82-3.73.46-1.62-.84-3.91-2-3.71-3.34s3.15-4.31,4.77-4.65c11.23-2.34,22.46-4.36,33.61-6,1.6-.24,3.95,1.77,3.83,3.14s-2.7,3.59-4.7,4.75C129.2,130.38,126.71,130.47,124,131.1Z" transform="translate(-57.77 -8.83)"/><path d="M113.18,110.69l4.16,8.3a106.66,106.66,0,0,1-11,1.61c-1.33.06-3.1-1.15-3.28-2.21-.93-5.23-4.72-6.56-11.51-4.52-1.16.35-2.81.73-3.48.35-1.55-.88-3.74-2.06-3.59-3.41s2.82-4.14,4.34-4.43c10.48-2,21-3.64,31.39-5,1.5-.19,3.77,1.86,3.69,3.21s-2.42,3.46-4.27,4.54C118,110.14,115.7,110.15,113.18,110.69Z" transform="translate(-57.77 -8.83)"/><path d="M102.11,90.4l4.15,8.3a83,83,0,0,1-9.79,1,3.71,3.71,0,0,1-3.07-2.31c-1.09-5.15-4.58-6.62-10.6-5-1,.28-2.5.57-3.13.17-1.43-.93-3.46-2.18-3.4-3.49S78.62,85.25,80,85C89.32,83.6,98.7,82.47,108,81.68c1.34-.11,3.49,2,3.48,3.31s-2,3.26-3.63,4.23C106.45,90.09,104.35,90,102.11,90.4Z" transform="translate(-57.77 -8.83)"/><path d="M90.13,68.57l4,8.06c-3.91.25-7.44.67-11,.56-.9,0-2.21-1.63-2.53-2.74-1.25-4.31-3.58-6.41-8.43-5.34-2.78.61-5.54-.08-5.82-3.4-.3-3.62,2.5-4.22,5.49-4.36q9.35-.42,18.68-1c2.93-.18,5.79-.09,6,3.62.22,3.44-2.36,4.11-5.21,4.23A6.85,6.85,0,0,0,90.13,68.57Z" transform="translate(-57.77 -8.83)"/><path d="M77.61,47.8l4.16,8.3A49.26,49.26,0,0,1,74.44,56a4.36,4.36,0,0,1-2.62-2.52c-1.45-5-4.28-6.78-8.67-5.89a3.14,3.14,0,0,1-2.36-.2c-1.2-1-2.9-2.46-3-3.68s1.32-3.42,2.33-3.46c7-.29,14-.28,21,.05,1,0,2.9,2.27,3,3.51S83,46.63,81.88,47.36,79.27,47.68,77.61,47.8Z" transform="translate(-57.77 -8.83)"/><path d="M70.84,34.86a24.86,24.86,0,0,1-4.78.26,17.48,17.48,0,0,1-3.75-1.42c.6-1.15,1-3,1.87-3.29a6.26,6.26,0,0,1,4.4.74C69.53,31.69,69.9,33.22,70.84,34.86Z" transform="translate(-57.77 -8.83)"/><path d="M689.65,443.59c32.34,9.26,62.17,44.41,102,29.94l-.4,0c24.64-33.61,41.4-70.22,48.53-111.81-.62-11.32-13.87-12.95-23.42-13.27,1.24-3.29,2-6.33,3.75-9.31.47-.79,3.72-1.53,6-1.94,5.08-.88,8.39-2.15,7-4.5-1.57-2.57-6.22-3-11.93-2.33-13.81,1.6-27.81,3.07-41.58,4.93-4.15.56-9.84,2-10.47,3.36s3.7,3.28,5.86,4.93l2.39-.35c-.44,1-.88,2-1.53,3.39-10.25-.73-19.55-1.61-28.14,2.12-5.91,2.56-9.58,5.35-12.84,9.88a50.17,50.17,0,0,0-5.47,10.22,14.14,14.14,0,0,0-.94,3.16C726.12,382.33,713.94,402.47,689.65,443.59Zm71.62-70.46,16.82.57c3.75,5.35,7.28,10.61,10.6,16,.15,11.17,26.17,6.88,34-1.69a67.41,67.41,0,0,1-2.84,11.78c-.71,4.1-35.35,7-42.18,8.9-2.54-7.34-26.1-25.29-18.88-31.33A10.14,10.14,0,0,0,761.27,373.13Zm26.51,60.51c.09-7.91.94-16.12,1.51-24.76l29.84-4.21c-3.65,9-6.68,17.34-10.49,25.41C806,435.81,788.14,440,787.78,433.64Zm-75.71-18.58c.24-.4,10.58-16.44,10.35-16.47L736.17,376c1.85.3,5.57-2.26,6.22-3.49l2.26.08a5,5,0,0,0-.54,3c.24,3.54,1.31,6.81,7.95,7.14,8,8,13,17.73,19.15,26,9.53,13.27-13.39,39.25,11.95,43.75,6.43.52,11.39-2.52,16.6-5.65l1.34.44c-3.09,8.17-10.53,16.48-15.15,24.36-7.76,6.86-24.57,2.91-31.51-.18-11.73-5.14,13.88-41.75,9-55.48-6.3-8-13-16.93-27.83-20.29-3.84,1.37-16.44,45.88-5.45,55.19.48,1.29,4.79,6.37-.15,7C696.17,436.41,692.11,448.26,712.07,415.06Z" transform="translate(-57.77 -8.83)"/><path d="M786.58,321.73l-2.67,8.18c12.78-1.47,24.76-2.72,36.43-4.31a5.59,5.59,0,0,0,4-3.09c1.3-3.27.34-6.9,12.16-7.37,2.06-.08,5.83-2.88,5.07-3.87-1-1.32-6.23-3.17-8.81-2.93-17.38,1.58-34.73,3.56-52,5.73-2.45.31-5.75,2.6-5,3.4,1.57,1.68,5.51,3,8.45,4.43Z" transform="translate(-57.77 -8.83)"/><path d="M796.68,298.19l-3,9.07c11.58-1.24,22.76-2.24,33.47-3.78a5,5,0,0,0,3.75-4.19c.19-3.63,2.25-6.1,12-6.46,5.56-.2,9.28-1.9,8.1-4.62-1.27-2.91-6-3.71-12.13-3.08-14.87,1.55-29.79,3.18-44.84,4.75-5.89.61-12,1.33-11.18,4.6S789.35,298.67,796.68,298.19Z" transform="translate(-57.77 -8.83)"/><path d="M807.14,274,804,283.41c10.48-1.08,20.14-1.87,29.35-3.2,2.12-.31,4-2.53,4-3.87-.11-4.42,3.14-7.11,13.86-7.49,6.46-.22,11.11-1.93,9.38-5.24s-7.42-3.62-13.81-2.95c-14.31,1.49-28.74,2.92-43.23,4.41-6.36.66-13.66,1-12.84,5.11C791.25,273.08,795.54,274,807.14,274Z" transform="translate(-57.77 -8.83)"/><path d="M818.1,248.09l-3.36,10c9.15-.88,17.55-1.45,25.5-2.6,2-.29,3.9-2.41,3.87-3.7-.12-5.1,3.78-8.1,15.65-8.32,6.76-.13,12.62-1.69,11.09-5.47-1.7-4.17-8.56-4-15.59-3.34q-22.07,2.24-44.49,4.31c-7.07.66-13.76,1.61-11.42,5.88,2.16,3.91,8.71,3.9,15.45,3.2C815.66,248,816.63,248.07,818.1,248.09Z" transform="translate(-57.77 -8.83)"/><path d="M830.49,220.4l-3.71,10.95c7.05-.66,13.71-1,19.79-2,2.35-.4,4.94-2.38,4.85-3.65-.47-6.31,5.68-9.18,18.39-9.21,2.16,0,5.19-.15,6.23-.83,2.4-1.56,5.81-3.7,5.08-5.22s-6.49-3.88-9.29-3.68c-19.4,1.36-38.86,3.13-58.2,5.31-2.78.31-5.9,3.55-5.12,5.11s6,3.18,9.75,3.79C821.63,221.48,825.78,220.67,830.49,220.4Z" transform="translate(-57.77 -8.83)"/><path d="M842,192.17l-4,11.64c6.18-.77,12-1.17,17.38-2.31,2.08-.44,4.47-2.57,4.48-3.91,0-6.7,5.58-9.8,16.7-9.94,1.89,0,4.56-.21,5.51-.94,2.21-1.68,5.35-4,4.81-5.59s-5.42-4.07-7.89-3.83c-17.06,1.63-34.15,3.7-51.13,6.18-2.44.36-5.37,3.81-4.79,5.46s5,3.32,8.22,3.92C834.26,193.39,837.93,192.49,842,192.17Z" transform="translate(-57.77 -8.83)"/><path d="M853.15,162l-4.23,12.4c5.93-.82,11.51-1.24,16.68-2.46,2-.47,4.37-2.73,4.43-4.16.28-7.14,5.72-10.44,16.35-10.6,1.81,0,4.36-.22,5.31-1,2.17-1.79,5.27-4.25,4.82-6s-5-4.34-7.39-4.08c-16.38,1.75-32.79,4-49.09,6.6-2.34.38-5.26,4.07-4.78,5.82s4.61,3.54,7.69,4.18C845.68,163.3,849.22,162.35,853.15,162Z" transform="translate(-57.77 -8.83)"/><path d="M865.41,129.89l-4.54,13.23c5.44-.91,10.54-1.4,15.31-2.73,1.85-.52,4.13-2.94,4.26-4.47.66-7.61,5.8-11.17,15.5-11.42,1.65,0,4-.27,4.9-1.11,2.08-1.93,5-4.58,4.74-6.41s-4.35-4.59-6.52-4.3c-15,2-30.1,4.49-45.07,7.44-2.14.42-5,4.37-4.66,6.23s4,3.73,6.76,4.39C858.55,131.33,861.81,130.29,865.41,129.89Z" transform="translate(-57.77 -8.83)"/><path d="M879.63,92.86l-4.75,13.81c6.28-1.36,12-2.29,17.61-4,1.44-.44,3.23-3.4,3.54-5.18,1.23-7,4.62-11.27,12.66-11.82,4.59-.31,9-2.61,8.91-7.84-.05-5.77-4.73-5.43-9.66-4.29q-15.41,3.59-30.86,6.93c-4.85,1.06-9.52,2.5-9,8.32.44,5.33,4.77,5.19,9.41,4.1A10.9,10.9,0,0,1,879.63,92.86Z" transform="translate(-57.77 -8.83)"/><path d="M896.06,54.48l-5.31,15.28c4.29-1.2,8.26-1.91,12.11-3.57,1.49-.64,3.59-3.49,3.9-5.25,1.56-8.75,6-13,13.54-13.6,1.28-.1,3.12-.43,3.94-1.42,1.88-2.29,4.55-5.44,4.57-7.54s-2.72-5.14-4.45-4.73c-11.88,2.79-23.81,6.13-35.69,10-1.7.55-4.43,5.15-4.43,7.28s2.53,4.14,4.56,4.81C890.6,56.34,893.24,55.05,896.06,54.48Z" transform="translate(-57.77 -8.83)"/><path d="M905.14,29.61c3.45-.72,6-.84,8.26-1.83s4.15-2.79,6.22-4.24c-1.22-1.72-2.18-4.8-3.76-4.84-2.31-.05-5.46,1.58-7.48,3.41C906.83,23.52,906.47,26.33,905.14,29.61Z" transform="translate(-57.77 -8.83)"/><path d="M758.16,943.87C752.3,941,750,938,746.59,935.94l-.12-.12,0,0c-2.37-1.39-4.73-2.8-7-4.28a74.22,74.22,0,0,1-14.95-12.82,123.34,123.34,0,0,0-13.83-12.89,88.15,88.15,0,0,0-11.33-8.12,4.52,4.52,0,0,1,.52,0l-.31-.26c-1.51-1.41-1.85-3.28-2.17-5.12a59.66,59.66,0,0,1-.76-6.9c-.08-1.16-64.64-123.42-59-162.82,4.6-32.36-48.62-123.73-88.78-156l.4-.12c-44.5-3.31-61.38,48.28-89.74,70.1C601,781.2,445.53,735.43,604.52,884.5c17.6,13.31,17.74,46.64,19.12,62.59s3.37,20,9.08,19.25c20.61,5.31,41.71,4.79,62.59,11.72,21.76,11.61,68.81,28.54,88.33,4.17C799.7,962.18,773.05,951.78,758.16,943.87Zm-134.92-243c3.38,14.62,8.56,39.14,12.17,55.07,1,4.32-6.68,10.31-11.29,12.41C634.52,756.75,613.65,716,623.24,700.9Zm12.08,62.17c11,24,32.34,74.24,40.52,90.85.23,0,3.54,6,4.5,9.27,0,0,10.23,21,10.08,21.86-.5,2.89-.34,7.11-2.23,9.7-1.23.24-2.48.38-3.72.56a131.62,131.62,0,0,0-13.55,2.75c-.86.14-1.73.27-2.59.43-5.21,1-10.74,3.85-16.18,3.08-2.26-.32-4.67-.84-6.95-1.36-.9-.53-1.82-1-2.73-1.55,0-.07,0-.15,0-.22s0-.14,0-.21a66.66,66.66,0,0,0-4.86-6.24c-1.49-1.58-2.78-3.29-4.25-4.88a12,12,0,0,1-2.85-3.86,2,2,0,0,1,0-.24q-.93-.79-1.89-1.68c-.19,0-31.45-51.61-32-52.4-1.21-1.82,49.86,60.05,50.3,59.78,3.86-4.12,13.11-4,17.71-8.33-19.49-22.79-46.08-57.66-61.62-80-10.28-14.44-1.45-27.12-15.74-36.7.28-.42,3.23-4.64,3.5-5.05C610.48,765.43,617.7,782.1,635.32,763.07Zm-58.39-29.61c-9.42-.58-13.4-23.56-15-28.37,9.09,5.16,8.55,27.31,18.46,20.62l0,.21c11.7-13.46,20.55,29.85,24.29,36.19-12.71-7.42-37.52-12.93-26.81-27.54A2,2,0,0,1,576.93,733.46ZM602.12,643a89.32,89.32,0,0,1,6.7,12.62c-10.57-7.2-37.47-3.34-33.85,9.57-2.46,12.85-5.69,25.28-9.35,39-11.57-1.8-8.42-10.18-15.54-14.81-9.08-4.46,7.75-33,7.72-42.29C565.14,646.89,600.05,638.46,602.12,643Zm-21.24-31.28c6.48,8.1,12.26,16.71,18.87,25.94l-30.67,5.27c-3.51-9.81-7.14-19-9.94-28.23C557.32,607.16,576.28,605.9,580.88,611.67Zm-52.33,86.79-21.19-21.15c.21-.11-15.49-15-15.86-15.4-31.33-31.58-23.11-19.23,2.37-55.77,5.09-.92,2.65,6.49,2.64,8.17C489.05,628.9,517,676,521.2,676.22c50.95-39.37-16.13-67.62-8.06-94.39,26.83-25.65,37.56-5.77,54.45,12.33l-1.17,1c-6.21-1.87-12.16-3.74-18.32-.91-23.39,14,8.11,36.38,3.34,55-3.18,11.59-4.74,24.45-9.78,36.27-6.33,2.61-6.26,6.68-5.27,10.8,1.12,5.84,7.43,6.23,13.69,7.26-6.21,3.7-11.54,1.49-17.51-7.35Zm6.12,6.39,10.61,2.88-11.57,8.87C534.07,712.16,534.32,709.08,534.67,704.85Zm76.44,168.89c-41-29-78.72-69.93-71.58-114.8,1.51-4.93,5.71-16.17,14-15.75-38.15,58.33,19.76,55.81,54.37,128.28C604.51,869.53,614.53,875.69,611.11,873.74Zm24,74.36a7.22,7.22,0,0,1-4.39-.1,4.14,4.14,0,0,0-2.22-1.31c-9.65-10.86,12.49-21.11,12.07-4.83,2,.4,3.9.69,5.82,1.12,1.62-5.59,7-17.2,9.78-23a5.21,5.21,0,0,0,1.19.75c-.73,7.48-2.88,21.52-3.43,25.25C653,955.75,641.41,948.83,635.08,948.1Zm26.63,5.08c-8.26-5.35,3.18-27.44-.89-29.86,27.11,16.13,22.84,22.86,16.6,36.33C677.42,959.65,668.14,958.22,661.71,953.18ZM683,958.3a5.26,5.26,0,0,1,6-4.14,4.72,4.72,0,0,0,3.56,1.28C703.66,964.32,679.5,972.86,683,958.3ZM708.5,973c-3.37-7.18-8.7-18.06-14.33-25.48a3.36,3.36,0,0,1-.5-.26c-1.5-1.2-2.24-2.8-3.24-4.31s-2.31-2.93-3.3-4.5a19.29,19.29,0,0,0-1.66-2.07,5.94,5.94,0,0,1-.52-.75,209.32,209.32,0,0,0-18.57-18.57c-.13-.19-.23-.38-.35-.57a20.12,20.12,0,0,1-3.13-1.27c-2.18-1.08-4.14-2.45-6.22-3.65a4.72,4.72,0,0,1-.45-1.5c.09-.24.17-.48.25-.73,6.23-4.39,14-6.69,22-7.86.73,0,1.47-.08,2.2-.1a27,27,0,0,0,6.56-.79c2.68-.17,5.33-.24,7.91-.27a1.8,1.8,0,0,0,.66.34c4.76,2.53,8.87,5.94,13,9.3a150.87,150.87,0,0,1,14.42,14c8.72,9.25,20.43,15.28,31.69,21.83.7.41,9.82,4.41,15.37,7.66,6.52,3.81,15.77,11.69,14.8,18.89C778.33,999.57,723.56,985.59,708.5,973Z" transform="translate(-57.77 -8.83)"/><path d="M700.54,907.13c-6.19,2.14-10.91,7.17-15.9,11.12-2.26,2.23-3,4.53-2,4.62s18.52-18.16,24.67-13.3C709.33,911.05,703.6,906.36,700.54,907.13Z" transform="translate(-57.77 -8.83)"/><path d="M721.19,923.78c-8.72,2.72-15.64,8.39-22.85,12.94-3.3,2.53-4.58,5-3.17,5s27-20.6,35.14-15.89C733,927.31,725.47,922.74,721.19,923.78Z" transform="translate(-57.77 -8.83)"/><path d="M222.13,931.13c-9.5-8.46-12.3-2.72-7.31-2.86a107.29,107.29,0,0,1,9.76,7.84c.44,1.06-.76,3.57.95,3.53C230.92,938.1,224.84,932.47,222.13,931.13Z" transform="translate(-57.77 -8.83)"/><path d="M190.18,946.84c-9.74-7.3-12.55-2.39-7.47-2.49a112.76,112.76,0,0,1,10,6.77c.46.92-.75,3.06,1,3C199.18,952.86,193,948,190.18,946.84Z" transform="translate(-57.77 -8.83)"/><path d="M601.44,37.53a51.06,51.06,0,0,1-11.21-5.19c-1.29,0-17.13.26-19.65.69h0c6.39,2.78,18.19,9.39,24.57,11.81a70.39,70.39,0,0,0,29.07,4c9.42-.54,18.76-2.3,28-4.07-.71-.2-1.41-.37-2.11-.55-2.2-.58-10.68-3.33-12.78-4A39.75,39.75,0,0,0,632.68,39c-1,.14-2,.3-3,.42C620.2,40.55,610.57,40.45,601.44,37.53Z" transform="translate(-57.77 -8.83)"/><path d="M693.23,51.57c32.85,10,84.32-1.22,80.66-4.88-.65-.65-28.49,1.81-45.5,2.4-22.32.78-36.91-7.92-57.44-14.94C684.8,28.24,709,21.59,714.52,11.3,698.62,18.12,672.32,25,654.33,29c-26.16-6.82-54.76-13.12-82-10.67C529-9.74,483.86,32.18,442.13,43.14c-12.72,2.43-25.53,3.1-41.05,3.51-19.73-2.32-23.3,9.63-37.81,12.92-13-1-14.13,9.9-23.27,14.66-15.88,10.88-76.05,6.31-68.16,31,9.68,19.14-5.08,15,18.72,25.88,7.66-2.33,12.4-24.44,6.37-27.58,7.76,4.41,5.35,25.67-1.71,28.69-.28,2.45,5.42,4.38,6.74,6.38,6.51-5.85,21.2.91,32.73,1.14,22.13.94,27.68-4.94,51.14-6-11.52,1.35-21.75,5-32.31,7.44-23.45,6.94-37.45-6.37-48.08.62,33.52,37.92,124.24,29.33,123.21,92.33-2.82,2.52-8.4,5.4-21.14,8.38C328.28,256,325,277,282.51,323.62c2.55,3.47,17.17,25.45,19.37,29.44-18.64,29-32.91,86.16-74.88,87.21C263,514.1,321,418.7,342.33,396.6c-4.6-6.69-14.09-24-14.09-24,16.45,10.57,30.61,46.94,32.91,56.13,2.1,8.34-11.58,33.31,16.71,94.78,45.27,14.25,39,95.21,55.2,117.08,0,0,12.43-11,24.27-7.35,27.82-16.48,36.47-64.77,82.28-70.76,3.39-.44,4.14-3.51,4.77-6.68C562,466.7,606.22,421.28,606.22,421.28s-15.37-29.6-18.85-42.21c-.32-1.18,29.91,44.14,30.27,44.08,11.36,20.23,16.69,37,32.7,53s36.52,37.2,39.32,41.68c30.33,42,77.26-11.28,97.92-38.17-35.82,12.6-69.44-26.63-103.92-33.36-3.36-1.49,1.57-5,3.22-8,17-34.1,57.34-64,10.88-93.79C694.4,309,661.47,259,616.64,255.78c-12-12.11-45.27-18.63-57.86-26.47C555,209.7,559.9,190,557.49,170.37c-5.46-22.46-4.2-48.9-13.6-69.91-4.58,7.38-4.95,16.24-11.13,23.35-5.83,11.35-28.67,23.59-33.41,5.58,5.67,8.58,18.4,5.89,25.65-1.63,13-13.48,13.88-22.08,16.3-40.43,1.75-22-24.21-31.49-38.62-16.9,3.84-7.55,6.59-8.57,15.32-10.47-8.63-5.65-9.41-6.14-16.94-8.86C559.84,16.5,609.94,26.34,693.23,51.57ZM394.58,94c-6.49-1.2-12.88-2.88-19.79-4.45,19.53-3.86,26.58,11.14,44.35-8.8C413.72,91.94,405.78,96.06,394.58,94ZM382.09,76.57c2.21-11.25,30.44-17.39,31.63-1.91C414.71,87.52,382.61,88,382.09,76.57Zm-7.48,2.48c6.22-25.71,34.16-30.51,45.37-9.8C404.94,53,386.07,57,374.61,79.05Zm133,1c3.82-2.35,5-2.7,10.28-2.92-22.07,12.51,10.4,13.28.32,24.73C521,91.53,493.38,90.52,507.58,80Zm-2-45.53c-10.21,3.43-20.34,5.07-32.59,8.42,9.92-6.24,60.59-29.12,80.34-21.46C534.67,23.61,524.71,27.83,505.56,34.47Z" transform="translate(-57.77 -8.83)"/><path d="M472.38,43.23l.41-.23C472.91,43.11,473.22,43.28,472.38,43.23Z" transform="translate(-57.77 -8.83)"/></svg>