<svg xmlns="http://www.w3.org/2000/svg" viewBox="0 0 1002 2129"><defs><style>.cls-1{fill:none;stroke-miterlimit:10;stroke-width:2px;}.cls-1,.cls-2{stroke:#000;}.cls-2{stroke-linecap:round;stroke-linejoin:round;}</style></defs><g id="base"><rect class="cls-1" x="1" y="1" width="1000" height="1000"/></g><g id="hypnox"><path class="cls-2" d="M561.93,351.7c7.17-.72,14.35-1.36,21.52-2.06a2,2,0,0,1,2,.85c2,2.75,4.14,5.47,6.21,8.2l2.21,2.89c-2.24-4.21-4.66-8.29-7.06-12.38a1.51,1.51,0,0,0-1.49-.68c-4.87-.11-9.74-.27-14.61-.33a50.54,50.54,0,0,0-6.51,0,3.18,3.18,0,0,1-3.52-1.75c-1.21-2.38-2.76-4.6-4.1-6.91s-2.56-4.43-3.85-6.64c-.91,1.57-1.77,3.17-2.55,4.82l9.9,13.1A1.83,1.83,0,0,0,561.93,351.7Z" transform="translate(0.69 1140.69)"/><path class="cls-2" d="M561.15,380.68a2.3,2.3,0,0,0,2.48-.71c4.76-4.88,9.6-9.67,14.32-14.59a3.1,3.1,0,0,1,3.58-1c1.74.54,3.55.86,5.34,1.26l7.37,1.64a.91.91,0,0,0-.55-.42c-4.08-1.44-8.17-2.83-12.23-4.33a2.19,2.19,0,0,0-2.44.39c-5.66,4.58-11.37,9.11-17,13.7a2.39,2.39,0,0,1-2.64.47c-5.18-1.86-10.37-3.68-15.55-5.51.12,1.78.35,3.54.6,5.3C550,378.13,555.57,379.38,561.15,380.68Z" transform="translate(0.69 1140.69)"/><path class="cls-2" d="M561.09,365.68c5.91-2.89,11.91-5.62,17.81-8.54a3.35,3.35,0,0,1,3.82.29c3.84,2.53,7.79,4.91,11.16,7-3.17-2.61-6.87-5.59-10.48-8.67a2.73,2.73,0,0,0-3-.51c-6.8,2.37-13.63,4.66-20.45,7a2,2,0,0,1-2.16-.25c-4.13-3.43-8.28-6.82-12.4-10.25-.39,1.74-.72,3.48-1,5.23,4.37,2.81,8.75,5.6,13.09,8.46A3.22,3.22,0,0,0,561.09,365.68Z" transform="translate(0.69 1140.69)"/><path class="cls-2" d="M643.16,362c-6.25,3-12.53,5.93-18.77,8.95a2.71,2.71,0,0,1-3-.19c-4-2.59-8.1-5.1-11.55-7.25,3.12,2.57,6.85,5.57,10.48,8.67a2.62,2.62,0,0,0,2.94.49c6.81-2.37,13.64-4.66,20.46-7a2,2,0,0,1,2.26.26q4.35,3.61,8.74,7.21c.28-1.58.53-3.15.69-4.73q-4.83-3.11-9.67-6.24A2.33,2.33,0,0,0,643.16,362Z" transform="translate(0.69 1140.69)"/><path class="cls-2" d="M624,398.54c-5.7-3.88-11.35-7.83-17.05-11.71a2.3,2.3,0,0,1-1.16-2.3c.24-4.28.44-8.56.64-12.84,0-.26.2-.58-.19-.78-.73,4.43-1.43,8.85-2.22,13.26a2.4,2.4,0,0,0,.88,2.54c5.47,4.75,10.89,9.55,16.38,14.28a2.4,2.4,0,0,1,.9,2.53c-1.12,6.56-2.18,13.13-3.32,19.69,1.89-1.13,3.77-2.36,5.61-3.68.31-6,.57-12.07.93-18.1A2.87,2.87,0,0,0,624,398.54Z" transform="translate(0.69 1140.69)"/><path class="cls-2" d="M636.83,391.26a3.14,3.14,0,0,0-2.56-2.42c-6.66-1.63-13.27-3.42-19.91-5.11a2.23,2.23,0,0,1-1.8-1.72c-.7-2.47-1.5-4.92-2.26-7.37-.58-1.88-1.17-3.75-1.76-5.63.66,4.72,1.53,9.37,2.4,14a1.42,1.42,0,0,0,1.07,1.1c2.76,1.05,5.52,2.13,8.28,3.19,4.21,1.63,8.43,3.25,12.64,4.89.69.26,1.29.56,1.44,1.48.49,3,1.12,5.92,1.59,8.89.3,1.9,1,3.71,1.14,5.66q1.88-2.06,3.62-4.27l-.48-1.56C639.1,398.71,637.94,395,636.83,391.26Z" transform="translate(0.69 1140.69)"/><path class="cls-2" d="M649.66,385.13c-2-2.67-4.06-5.32-6-8a2.07,2.07,0,0,0-2.09-.91c-7,.71-14.11,1.35-21.16,2.05a2.14,2.14,0,0,1-2.2-.91c-1.58-2.17-3.23-4.29-4.86-6.43l-3.5-4.6a1,1,0,0,0,.17.7c2,3.42,4.13,6.79,6,10.29a3.74,3.74,0,0,0,3.76,2.19c7.39.08,14.79.31,22.18.53.46,0,.76,1.05,1.19,1.77,1.89,3.18,3.76,6.37,5.64,9.55.68-1.38,1.34-2.76,1.93-4.19a.88.88,0,0,1-.24-.49A3.42,3.42,0,0,0,649.66,385.13Z" transform="translate(0.69 1140.69)"/><path class="cls-2" d="M622,358.33a1.73,1.73,0,0,0,1.54-1.05c3.86-6.36,7.74-12.7,11.57-19.08a1.92,1.92,0,0,1,1.85-1.08l14.78-.14c-.53-1.57-1.14-3.09-1.76-4.61l-13.57,1.73c-3.69.46-3.65.46-5.18,3.86-2.55,5.68-5.18,11.33-7.74,17a2.3,2.3,0,0,1-2.16,1.58c-1.59.1-3.17.38-4.75.58l-8.34,1.06c.13.27.3.23.45.23C613.15,358.39,617.59,358.34,622,358.33Z" transform="translate(0.69 1140.69)"/><path class="cls-2" d="M622.38,304.57c-4.85,5.17-9.62,10.41-14.48,15.56a2.91,2.91,0,0,0-.72,3.23c1.79,6.25,3.43,12.54,5.25,18.78a3.91,3.91,0,0,1-1.09,4.36c-3,3.07-5.88,6.3-8.8,9.47a34.93,34.93,0,0,0,3.17-2.51l7.37-6.3a2.67,2.67,0,0,0,1-2.9c-.66-3-1.09-6.05-1.53-9.08-.59-4.05-1.21-8.09-1.82-12.13a2.34,2.34,0,0,1,.9-2.42c5.38-4.55,10.71-9.16,16.08-13.72a2.13,2.13,0,0,0,.85-2.22c-.11-.69-.21-1.38-.32-2.07a40.74,40.74,0,0,0-6-3.68c.25.9.49,1.8.75,2.7A2.71,2.71,0,0,1,622.38,304.57Z" transform="translate(0.69 1140.69)"/><path class="cls-2" d="M568.54,330.16c0-.2-1.87-10.35-2.57-14.15-1.41,1.36-2.78,2.8-4.11,4.29a17.3,17.3,0,0,1,.56,2.08,68.81,68.81,0,0,0,2.44,7.75c.7,1.95,1.22,4,1.86,5.93.38,1.19.45,2.67,2.16,2.8a16.56,16.56,0,0,1,3,.8c5.76,1.5,11.52,3,17.29,4.48a2.35,2.35,0,0,1,2,1.81c.69,2.48,1.49,4.92,2.26,7.37.54,1.76,1.1,3.52,1.65,5.28l.17-.05a1.22,1.22,0,0,0,0-.33c-.82-4.4-1.65-8.79-2.45-13.2-.14-.77-.63-1.06-1.29-1.31-7-2.68-14-5.4-21-8.08a1.58,1.58,0,0,1-1.1-1.34C569.12,332.91,568.81,331.54,568.54,330.16Z" transform="translate(0.69 1140.69)"/><path class="cls-2" d="M578.31,326.52a2.8,2.8,0,0,0,1.36,2.81c5.73,3.91,11.41,7.88,17.14,11.78a2.23,2.23,0,0,1,1.13,2.21c-.2,3.23-.34,6.46-.5,9.69-.06,1.33-.1,2.66-.15,4,.92-4.39,1.61-8.81,2.41-13.21a2.51,2.51,0,0,0-.93-2.64c-5.47-4.74-10.89-9.55-16.38-14.28a2.31,2.31,0,0,1-.85-2.43c1.16-6.8,2.23-13.61,3.44-20.4a3.18,3.18,0,0,0-.09-1.62q-2.76,1.43-5.51,3.13C579,312.54,578.72,319.53,578.31,326.52Z" transform="translate(0.69 1140.69)"/><path class="cls-2" d="M636.43,317.83c-5,2.36-9.89,5.09-14.87,7.56a1.09,1.09,0,0,0-.65,1c-.51,6.33-1,12.65-1.57,19,0,.28-.07,1.78-.07,1.94s-.48,2.44-1.42,2.91q-4.47,2.27-8.92,4.57l-3.08,1.58c.23.07.3.13.35.11l12.67-4.73a1.22,1.22,0,0,0,.9-.84c.24-1.18.43-2.37.61-3.56,0-.13.38-1.45.45-1.77.34-1.48.67-3,.95-4.45.8-4.16,1.56-8.32,2.38-12.48a2.24,2.24,0,0,1,1.34-1.91c3.71-1.37,7.38-2.87,11.09-4.24,2.35-.88,4.71-1.75,7.09-2.57-.95-1.52-1.95-2.95-3-4.35C639.3,316.35,637.89,317.14,636.43,317.83Z" transform="translate(0.69 1140.69)"/><path class="cls-2" d="M581.45,369.6c-.78,0-1.06.57-1.38,1.1-2.67,4.39-5.32,8.8-8,13.19-1.15,1.9-2.38,3.76-3.45,5.7a2.06,2.06,0,0,1-2,1.21c-6.3,0-12.59.14-18.89.16.59,1.74,1.25,3.42,1.94,5.09,6.42-.8,12.84-1.65,19.27-2.41a2.71,2.71,0,0,0,2.67-1.95c.4-1.17,1-2.27,1.54-3.4l7.11-15.5c.3-.63.55-1.25,1.43-1.34,2.44-.26,4.87-.6,7.31-.91l6.37-.82C590.7,369.51,586.08,369.56,581.45,369.6Z" transform="translate(0.69 1140.69)"/><path class="cls-2" d="M603,372.9c-2,3.57-3.94,7.17-6,10.7a2.55,2.55,0,0,0,0,2.89c3.51,6.29,6.93,12.63,10.44,18.93a2.4,2.4,0,0,1,0,2.69c-3.47,6.09-6.88,12.21-10.37,18.29a2.24,2.24,0,0,0,0,2.48l1.37,2.49q2.49-.5,5.06-1.27l-.19-.27a2.94,2.94,0,0,1-.29-3.3c2.8-6.51,5.51-13.06,8.3-19.57a2.49,2.49,0,0,0-.35-2.77c-4.1-5.69-8.13-11.43-12.21-17.12a2.14,2.14,0,0,1-.25-2.37c1.94-4.5,3.82-9,5.84-13.83C603.73,371.73,603.34,372.3,603,372.9Z" transform="translate(0.69 1140.69)"/><path class="cls-2" d="M600.63,372.48a2.26,2.26,0,0,0-1.23.75c-3.08,2.62-6.12,5.28-9.24,7.86a1.87,1.87,0,0,0-.62,2.15c.05.23.53,3.46.59,3.8q.58,3.69,1.19,7.38c0,.15.24,2,.36,2.78.38,2.54.74,5.09,1.2,7.62a2.38,2.38,0,0,1-1,2.51c-5.36,4.53-10.66,9.12-16,13.65a2.24,2.24,0,0,0-.86,2.33c.27,1.69.53,3.37.79,5.05a30.81,30.81,0,0,0,6,2.61q-.64-2.36-1.3-4.7a2.7,2.7,0,0,1,.7-2.93c4.85-5.17,9.63-10.4,14.48-15.57a2.59,2.59,0,0,0,.73-3.12,16.36,16.36,0,0,1-.62-2.13q-2.17-7.9-4.35-15.83a33.13,33.13,0,0,0-.72-3.42c2-2.54,4.38-4.82,6.55-7.25C598.4,374.87,599.46,373.75,600.63,372.48Z" transform="translate(0.69 1140.69)"/><path class="cls-2" d="M584.82,376.16a1.57,1.57,0,0,0-1.05,1.28c-.27,1.49-.58,3-.88,4.46-.14.72-.32,1.44-.44,2.17,0,.25-.44,2.23-.48,2.48-.7,4-1.73,7.91-2.31,11.92-.21,1.44-.66,2.62-2.41,3.07a58.86,58.86,0,0,0-6,2.19c-4.48,1.68-9,3.38-13.45,5a2,2,0,0,0-1,.76c1.22,1.86,2.51,3.61,3.84,5.28a1.84,1.84,0,0,1,.93-1.72c2.57-1.37,5.14-2.79,7.75-4,4.28-2.06,8.43-4.35,12.69-6.45a1.38,1.38,0,0,0,.84-1.27q.42-6,.89-12c.07-.86.21-1.7.23-2.56,0-.31.19-2.05.23-2.41a19.46,19.46,0,0,0,.22-3.13c-.13-2.19.7-3.63,2.84-4.28a8.08,8.08,0,0,0,1.35-.67l9.1-4.69-.12-.25Z" transform="translate(0.69 1140.69)"/><path class="cls-2" d="M642.35,347.2a2.06,2.06,0,0,0-2.18.63c-4.82,4.93-9.71,9.79-14.49,14.75a3.05,3.05,0,0,1-3.37,1c-3.35-.88-6.75-1.59-10.13-2.36-.9-.2-1.82-.38-2.72-.57,4.14,1.67,8.34,3.09,12.49,4.65a2.61,2.61,0,0,0,2.95-.49c5.56-4.52,11.18-9,16.74-13.49a2.47,2.47,0,0,1,2.74-.47q5.57,2,11.14,3.95c-.14-1.59-.31-3.17-.55-4.73C650.76,349.13,646.55,348.18,642.35,347.2Z" transform="translate(0.69 1140.69)"/><path class="cls-2" d="M592.74,323.66c4.09,5.69,8.12,11.43,12.21,17.12a2.29,2.29,0,0,1,.23,2.57c-1.92,4.45-3.77,8.93-5.65,13.4,2.49-4.19,4.84-8.45,7.27-12.66a2.2,2.2,0,0,0,0-2.47c-3.55-6.4-7.05-12.84-10.6-19.23a2.2,2.2,0,0,1,0-2.48c3.49-6.12,6.92-12.27,10.42-18.39a2.2,2.2,0,0,0,0-2.47c-.57-1-1.12-2.05-1.69-3.07a47.37,47.37,0,0,0-5.4.93l.8,1.11a3,3,0,0,1,.32,3.41c-2.8,6.5-5.51,13.05-8.3,19.56A2.42,2.42,0,0,0,592.74,323.66Z" transform="translate(0.69 1140.69)"/><path class="cls-2" d="M606,366.49a4.88,4.88,0,1,0-6.7,1.63A4.81,4.81,0,0,0,606,366.49Z" transform="translate(0.69 1140.69)"/><path class="cls-2" d="M679.17,412.16c4.92,5.27,9.78,10.59,14.68,15.87a2,2,0,0,1,.53,2.11c-1,3.29-1.84,6.6-2.75,9.91l-1,3.51c2-4.33,3.77-8.73,5.57-13.12a1.52,1.52,0,0,0-.37-1.61c-2.86-3.93-5.68-7.9-8.59-11.81a50,50,0,0,0-4-5.16,3.16,3.16,0,0,1-.74-3.85c1.17-2.41,2-5,3-7.45s2-4.73,2.94-7.09c-1.8.23-3.59.52-5.38.89q-2.21,7.9-4.42,15.82A1.8,1.8,0,0,0,679.17,412.16Z" transform="translate(0.69 1140.69)"/><path class="cls-2" d="M655.64,429.11a2.32,2.32,0,0,0,2.07,1.54c6.77.83,13.52,1.78,20.29,2.54a3.12,3.12,0,0,1,3,2.23c.63,1.72,1.47,3.35,2.23,5q1.57,3.44,3.17,6.86a.91.91,0,0,0,0-.69c-1.32-4.12-2.69-8.22-4-12.35a2.2,2.2,0,0,0-1.79-1.71c-7.07-1.72-14.13-3.52-21.21-5.23a2.41,2.41,0,0,1-2-1.81c-1.65-5.25-3.36-10.48-5-15.72-1.35,1.18-2.61,2.43-3.85,3.69C650.91,418.68,653.3,423.89,655.64,429.11Z" transform="translate(0.69 1140.69)"/><path class="cls-2" d="M667.54,420c5.88,2.95,11.68,6.06,17.58,9a3.34,3.34,0,0,1,2.09,3.21c.32,4.59.81,9.17,1.18,13.13.15-4.1.28-8.85.55-13.59a2.72,2.72,0,0,0-1.45-2.73c-6-4-12-8-18-12a2,2,0,0,1-1.11-1.87c.23-5.35.41-10.71.64-16.07q-2.44,1.11-4.75,2.4c.42,5.18.84,10.36,1.2,15.54A3.23,3.23,0,0,0,667.54,420Z" transform="translate(0.69 1140.69)"/><path class="cls-2" d="M720.22,483c-6.18-3.15-12.31-6.38-18.5-9.51a2.67,2.67,0,0,1-1.66-2.5c-.38-4.77-.86-9.53-1.24-13.58-.15,4-.27,8.82-.54,13.6a2.6,2.6,0,0,0,1.4,2.63c6,4,12,8,18,12a2,2,0,0,1,1.16,2c-.16,3.77-.29,7.54-.43,11.32,1.42-.74,2.83-1.49,4.18-2.31q-.46-5.75-.9-11.48A2.34,2.34,0,0,0,720.22,483Z" transform="translate(0.69 1140.69)"/><path class="cls-2" d="M679.5,489.88c-.37-6.88-.64-13.77-1-20.65a2.32,2.32,0,0,1,1.13-2.33c3.55-2.39,7.07-4.84,10.6-7.27.21-.14.58-.19.51-.62-4,2.1-7.91,4.23-11.9,6.27a2.41,2.41,0,0,0-1.49,2.24c-.46,7.23-1,14.45-1.43,21.68a2.41,2.41,0,0,1-1.46,2.26c-5.9,3.08-11.77,6.22-17.67,9.29,2,.82,4.16,1.56,6.33,2.23,5-3.42,9.94-6.86,14.95-10.23A2.85,2.85,0,0,0,679.5,489.88Z" transform="translate(0.69 1140.69)"/><path class="cls-2" d="M693.1,495.71a3.14,3.14,0,0,0,.37-3.5c-2.74-6.28-5.32-12.63-8-18.94a2.2,2.2,0,0,1,.28-2.46c1.54-2.06,3-4.18,4.49-6.27l3.41-4.81c-3.35,3.38-6.53,6.9-9.71,10.41a1.41,1.41,0,0,0-.22,1.51c.84,2.84,1.65,5.69,2.48,8.53l3.78,13a1.85,1.85,0,0,1-.31,2.05c-2.07,2.18-4,4.47-6.11,6.65-1.33,1.39-2.36,3-3.81,4.34,1.85.16,3.71.26,5.59.29l.95-1.32C688.55,502,690.8,498.86,693.1,495.71Z" transform="translate(0.69 1140.69)"/><path class="cls-2" d="M705.76,502.2c.89-3.22,1.77-6.45,2.7-9.67a2.05,2.05,0,0,0-.55-2.2c-4.83-5.19-9.62-10.41-14.45-15.6a2.12,2.12,0,0,1-.61-2.3c.77-2.57,1.45-5.17,2.17-7.76l1.53-5.57a1,1,0,0,0-.45.56c-1.5,3.68-2.9,7.4-4.54,11a3.75,3.75,0,0,0,.54,4.32c4.41,5.93,8.71,12,13,18,.27.37-.38,1.24-.69,2q-2.07,5.14-4.18,10.27c1.51-.28,3-.6,4.51-1a.84.84,0,0,1,.24-.49A3.51,3.51,0,0,0,705.76,502.2Z" transform="translate(0.69 1140.69)"/><path class="cls-2" d="M710.33,464a1.67,1.67,0,0,0,1.76.59c7.4-.78,14.8-1.54,22.19-2.36a1.9,1.9,0,0,1,2,.82l9.06,11.67c.93-1.38,1.77-2.78,2.61-4.19q-4.8-4.87-9.6-9.76c-2.6-2.64-2.58-2.61-6.21-1.77-6.07,1.41-12.15,2.74-18.22,4.15a2.28,2.28,0,0,1-2.57-.76c-1-1.21-2.22-2.29-3.34-3.43-2-2-3.91-4-5.89-6a.38.38,0,0,0,.08.5C704.9,457,707.63,460.46,710.33,464Z" transform="translate(0.69 1140.69)"/><path class="cls-2" d="M753.29,431.67c-7-.72-14.11-1.34-21.15-2.08a2.92,2.92,0,0,0-3,1.38c-3.88,5.22-7.89,10.34-11.75,15.57a3.9,3.9,0,0,1-4.13,1.76c-4.27-.54-8.58-.85-12.87-1.25a36.33,36.33,0,0,0,3.92,1c3.16.68,6.32,1.37,9.48,2a2.67,2.67,0,0,0,3-.92c2-2.34,4.15-4.53,6.29-6.72q4.29-4.38,8.54-8.8a2.34,2.34,0,0,1,2.47-.74c6.88,1.52,13.78,3,20.67,4.47a2.17,2.17,0,0,0,2.28-.67l1.44-1.51a39.72,39.72,0,0,0-.68-7c-.57.75-1.14,1.49-1.7,2.24A2.68,2.68,0,0,1,753.29,431.67Z" transform="translate(0.69 1140.69)"/><path class="cls-2" d="M700.3,404.37,710,393.75c-2-.3-3.92-.52-5.91-.68a15.86,15.86,0,0,1-1.32,1.71,69.17,69.17,0,0,0-4.68,6.63c-1.12,1.75-2.41,3.38-3.59,5.08-.71,1-1.85,2-.92,3.42a17.14,17.14,0,0,1,1.18,2.85c2.29,5.5,4.57,11,6.91,16.47a2.38,2.38,0,0,1-.24,2.68c-1.56,2-3,4.16-4.5,6.26l-3.19,4.5.14.11a1.27,1.27,0,0,0,.27-.18c3-3.32,6-6.64,9-10a1.67,1.67,0,0,0,.26-1.82c-2.12-7.21-4.2-14.42-6.32-21.63a1.57,1.57,0,0,1,.4-1.68C698.47,406.49,699.38,405.42,700.3,404.37Z" transform="translate(0.69 1140.69)"/><path class="cls-2" d="M709.12,409.93a2.82,2.82,0,0,0-1.41,2.79c.37,6.92.65,13.85,1,20.77a2.2,2.2,0,0,1-1.07,2.23c-2.69,1.8-5.35,3.65-8,5.48-1.1.76-2.18,1.53-3.27,2.3,4.06-1.93,8-4.06,12-6.09a2.49,2.49,0,0,0,1.54-2.34c.45-7.23,1-14.45,1.43-21.68a2.32,2.32,0,0,1,1.42-2.16c6.1-3.2,12.17-6.47,18.3-9.62a3.21,3.21,0,0,0,1.24-1.05c-1.87-.89-3.82-1.73-5.83-2.49C720.67,402,714.93,406,709.12,409.93Z" transform="translate(0.69 1140.69)"/><path class="cls-2" d="M751.26,450.89c-4.93-2.58-10-4.78-15-7.25a1.06,1.06,0,0,0-1.18.1q-8,5.13-16,10.24c-.24.15-1.46,1-1.59,1.12s-2.23,1.1-3.18.64c-3-1.46-6-2.89-9-4.33l-3.12-1.49c.08.23.09.32.13.35l11.44,7.21a1.25,1.25,0,0,0,1.21.21c1.08-.53,2.14-1.1,3.2-1.68l1.69-.71c1.38-.63,2.75-1.27,4.11-1.94,3.79-1.89,7.57-3.81,11.37-5.68a2.22,2.22,0,0,1,2.32-.09c3.35,2.12,6.76,4.13,10.1,6.25,2.12,1.34,4.25,2.68,6.35,4.08.62-1.67,1.16-3.34,1.66-5C754.18,452.27,752.69,451.63,751.26,450.89Z" transform="translate(0.69 1140.69)"/><path class="cls-2" d="M676.76,438.54c-.48-.62-1.09-.5-1.71-.44l-15.33,1.65c-2.21.23-4.43.39-6.63.7a2,2,0,0,1-2.19-.87c-3.85-5-7.74-9.93-11.57-14.92-1,1.52-2,3.07-2.87,4.63,4.52,4.62,9.09,9.21,13.59,13.86a2.72,2.72,0,0,0,3.17,1,37,37,0,0,1,3.64-.84l16.64-3.74c.68-.15,1.32-.33,1.93.32,1.69,1.79,3.43,3.52,5.15,5.26l4.52,4.57C682.45,445.84,679.59,442.19,676.76,438.54Z" transform="translate(0.69 1140.69)"/><path class="cls-2" d="M687.2,457.68c-4.05.57-8.09,1.21-12.15,1.71a2.57,2.57,0,0,0-2.33,1.71c-2.88,6.61-5.84,13.18-8.72,19.78a2.44,2.44,0,0,1-2.15,1.62c-7,.92-13.89,1.92-20.84,2.84a2.21,2.21,0,0,0-2,1.49c-.38.87-.77,1.73-1.15,2.6q1.9,1.68,4.08,3.25c0-.1.06-.21.1-.31a2.94,2.94,0,0,1,2.45-2.24c6.87-1.71,13.72-3.53,20.6-5.25a2.48,2.48,0,0,0,2-2c2-6.71,4.16-13.39,6.21-20.09A2.12,2.12,0,0,1,675,461.2c4.75-1.19,9.5-2.44,14.54-3.74C688.58,457.55,687.88,457.59,687.2,457.68Z" transform="translate(0.69 1140.69)"/><path class="cls-2" d="M686.1,455.55a2.22,2.22,0,0,0-1.34-.53c-4-.87-7.92-1.67-11.86-2.6a1.86,1.86,0,0,0-2.08.83c-.15.17-2.43,2.51-2.67,2.76-1.72,1.8-3.43,3.61-5.15,5.42-.1.11-1.45,1.41-2,2-1.79,1.85-3.6,3.67-5.33,5.57a2.38,2.38,0,0,1-2.58.77c-6.84-1.52-13.71-2.95-20.55-4.45a2.25,2.25,0,0,0-2.38.73c-1.17,1.24-2.35,2.46-3.53,3.69a31.29,31.29,0,0,0,1.59,6.39c1-1.3,2-2.59,2.94-3.89a2.7,2.7,0,0,1,2.76-1.22c7.05.73,14.11,1.36,21.16,2.08a2.59,2.59,0,0,0,2.92-1.3,16.17,16.17,0,0,1,1.32-1.79l9.95-13.05a34.08,34.08,0,0,0,2.29-2.65c3.26.08,6.49.55,9.73.81C682.84,455.22,684.38,455.38,686.1,455.55Z" transform="translate(0.69 1140.69)"/><path class="cls-2" d="M673.59,445.2a1.56,1.56,0,0,0-1.65-.07c-1.35.69-2.72,1.34-4.08,2-.67.32-1.34.62-2,1l-2.27,1.12c-3.59,1.87-7.33,3.43-10.88,5.39-1.27.71-2.48,1.07-3.89-.05a60.51,60.51,0,0,0-5.4-3.47c-4.06-2.55-8.12-5.08-12.17-7.64a2,2,0,0,0-1.2-.32c-.73,2.1-1.34,4.18-1.87,6.25a1.83,1.83,0,0,1,1.93-.3c2.65,1.22,5.33,2.39,7.92,3.71,4.24,2.15,8.58,4.07,12.83,6.18a1.35,1.35,0,0,0,1.51-.1c3.35-2.2,6.71-4.37,10.07-6.55.71-.46,1.48-.86,2.17-1.36.25-.19,1.75-1.1,2-1.29a19.51,19.51,0,0,0,2.63-1.72c1.66-1.43,3.31-1.64,5.12-.33a9.54,9.54,0,0,0,1.36.67l9.25,4.39.12-.25Z" transform="translate(0.69 1140.69)"/><path class="cls-2" d="M731.49,473.4a2.07,2.07,0,0,0-1.82-1.36c-6.84-.84-13.67-1.78-20.52-2.58a3,3,0,0,1-2.85-2.06c-1.33-3.2-2.83-6.33-4.27-9.48-.38-.85-.79-1.68-1.19-2.52,1.18,4.31,2.6,8.51,3.87,12.75a2.65,2.65,0,0,0,2.18,2.06c7,1.68,13.91,3.46,20.88,5.13a2.49,2.49,0,0,1,2,1.9c1.18,3.75,2.39,7.5,3.6,11.25,1.18-1.07,2.34-2.17,3.43-3.3Q734.16,479.29,731.49,473.4Z" transform="translate(0.69 1140.69)"/><path class="cls-2" d="M720.14,419.67c-2,6.71-4.17,13.39-6.21,20.09a2.28,2.28,0,0,1-1.9,1.74c-4.71,1.17-9.4,2.41-14.09,3.63,4.84-.56,9.65-1.27,14.48-1.89a2.2,2.2,0,0,0,2-1.48c2.94-6.7,5.94-13.38,8.87-20.09a2.23,2.23,0,0,1,2-1.49c7-.93,14-1.93,20.94-2.86a2.21,2.21,0,0,0,2-1.47l1.41-3.2a48.2,48.2,0,0,0-4-3.74c-.13.44-.27.88-.4,1.31a3,3,0,0,1-2.51,2.32c-6.88,1.72-13.73,3.53-20.6,5.26A2.41,2.41,0,0,0,720.14,419.67Z" transform="translate(0.69 1140.69)"/><path class="cls-2" d="M694.12,456.18a4.88,4.88,0,1,0-5.37-4.34A4.82,4.82,0,0,0,694.12,456.18Z" transform="translate(0.69 1140.69)"/><path d="M290.94,433c9.84-41,17.06-82.23,2.31-123.54-10.19-28.54-60.78-38.13-63.35-66.26A101.36,101.36,0,0,0,28,261.59c5.08,55.74,54.24,94.58,110.14,91.73,41.52-2.12,131.47-77.06,118.23,26.65-3.81,29.85-8.23,57.82-18.31,85.09-15.33,41.46-28.52,82.67-16.12,127a16.85,16.85,0,0,1,6.17.33c3-2.12,6.45.21,9.65.05,1-.16,2-.31,3-.38,2-2.39,4.85-5.06,8.25-3.85a5.39,5.39,0,0,1,5.37.57,11.33,11.33,0,0,1,3.36.31,2.91,2.91,0,0,1,.82-.62c.35-4.43,4.93-2.39,7.5-1.34a5.76,5.76,0,0,1,3.4-1.38,107.38,107.38,0,0,1-3-52.26C272.9,499.52,282.89,466.51,290.94,433Zm-246-209.06a70.54,70.54,0,0,1,2.72-9.48,91.22,91.22,0,0,1,16.06-23.09c-11.54,14.92-17.31,32-18,50.82a86.32,86.32,0,0,0,2.83,25.38c.1.37.24.73.36,1.1l.28-.05c-.06-5.1-.19-10.2-.18-15.3a108.77,108.77,0,0,1,3.65-29c2.65-9.56,8.63-16.83,15.67-23.42,11.39-10.67,24.31-18.85,39.78-21.71,28.24-5.2,53.32,1,73.19,22.76,11.42,12.49,16,27.63,15.39,44.52-.53,13.94-3.69,27.11-12.38,38.17-20.26,25.79-52.67,31.82-79.27,12.81a54.92,54.92,0,0,1-20.5-27c-8-22.84,5.38-48.88,28.28-56.59,16.77-5.64,31-1.49,42.78,11.16,6.84,7.31,8.21,16.42,6.85,26a33.37,33.37,0,0,1-4.6,13,23.68,23.68,0,0,1-40.12.16c-4.14-6.54-2.64-15.5,3.46-19.32-3.07,4.39-2.67,9-1.13,13.7a16.59,16.59,0,0,0,22,10.39c16.21-6.47,20.8-28.12,8.67-40.87s-31-13.95-45.68-3c-10.83,8.12-15.29,19.34-15.56,32.23-.4,19.14,10,31.75,26.35,40,26.32,13.24,60.8.29,70.29-29.93,2.73-8.69,4.78-17.41,4.57-26.57-.29-12.74-4.47-24.13-13.25-33.27-16.32-17-36.36-25.61-60.1-23.89-16.19,1.17-29.83,8.4-40.87,20.19-16.31,17.4-24,38.17-22.49,62,1.36,21.41,11.86,37.83,29.2,50.1a42.05,42.05,0,0,1,5.66,4.33c-2.15-1.25-4.37-2.4-6.43-3.78C62.72,303.4,50.36,285.2,45,262.2A87.56,87.56,0,0,1,44.93,223.91Zm154.22,81.77c-13,19.19-31,27.95-53.57,32.77a103.59,103.59,0,0,1-24.51,2.32c-38.34-3.44-70.65-27.41-79.88-65A110.2,110.2,0,0,0,51.6,296.36c10.8,16.85,26.29,28.4,45.17,34.92,30.64,10.59,59,5.66,84.92-13.65A8.53,8.53,0,0,0,185,313.7c-1.51.84-3,1.65-4.54,2.52A114.51,114.51,0,0,1,141,330.54c-9,1.44-17.68.27-26.24-2.49-10.58-3.41-20.8-7.56-29.63-14.58C73,303.81,65.67,291.12,62,276.23c-3-11.91-3.87-23.93-1.15-36,4.29-19.13,15-33.17,32.7-42,12.47-6.23,25.57-9.89,39.39-7.82,27,4,49.19,22.5,50.89,52.88.79,14.16-2.4,27.33-11.89,38.45a27.45,27.45,0,0,1-6.18,5.12c-11.5,7.41-23.82,11.87-37.68,9-13.44-2.79-24-10.36-30-22.54-6.16-12.55-5.62-25.7,2.53-37.58,7.09-10.32,27.3-17.16,40.38-8.4,9.88,6.61,13.44,21.34,7.24,31.43a14.53,14.53,0,0,1-16.68,6.19c5-.39,8-3.12,10.9-6.13,3.11-3.2,4.24-7,4.38-11.3.2-6.13-2.61-10.7-7.54-13.93-8.71-5.72-17.86-5.7-26.9-1-8.56,4.48-11.89,12.26-13.12,21.54-3,22.75,22.94,42.82,47,35.89,19.65-5.68,32.12-21.63,31.95-42.11-.17-20-9-35-25.94-45.18-10.67-6.4-22.36-8-34.63-5.69-8.47,1.58-16.65,3.81-24.23,8-14.59,8.08-23.06,20.6-26.91,36.61-4.79,19.87.13,37.64,11.26,54.21,7.69,11.46,17.34,20.5,30.48,25.27,18.89,6.87,37.82,6.48,56.68-.21,15.25-5.4,27.85-14.4,37.05-27.82,8.39-12.23,11.79-25.94,11.68-40.6C214.73,271.85,210.05,289.62,199.15,305.68Zm-7.22-113a84.26,84.26,0,0,0-36.59-20.23,2.93,2.93,0,0,0-2.39,0,159.84,159.84,0,0,1,16.27,8.64c10.94,6.81,20.84,14.81,28.34,25.43,4.17,5.89,6.1,12.74,7.95,19.58,4.12,15.23,5,30.66-1.24,45.34-12.32,29.06-33.76,46.76-66,49.34-11.15.9-21.53-2.2-31.31-7.69-15.33-8.62-26-21.65-33.12-37.15-8-17.47-5.14-34.74,5.71-50.47a55.82,55.82,0,0,1,30.91-22.65,54.58,54.58,0,0,1,30.38-.28c6,1.67,10.87,5.5,15.65,9.28,14.14,11.15,18.57,26,15.88,43.31-1.54,9.92-7.81,17-15.52,22.85-7.46,5.69-15.76,8.74-25.28,7.67-12-1.36-27.5-14.9-27.44-29.54,0-12.38,12-24.06,24.36-23.21,5.31.36,13.23,5.92,13.13,12.73-2.62-3.38-6.09-4.65-9.3-6.4a11.61,11.61,0,0,0-8.93-1.16c-8.56,2.28-13.49,9.12-13,18,1,18.54,19.74,29.76,36.85,22.13,14.05-6.26,19.76-18.44,19.89-32.49.21-23-24.26-41.21-44.36-39.31a50.93,50.93,0,0,0-45.87,47.62A47.6,47.6,0,0,0,85,284.16c7.16,10.65,16,19.48,27.56,25.33a50.11,50.11,0,0,0,40.07,2.7c16.5-5.61,30.09-15.45,39.61-30.25,11.06-17.2,13-35.82,6.65-55-7.93-24-23.69-41.39-47.1-51.13-18.63-7.74-37.39-6.59-55.79,1.41A98.92,98.92,0,0,0,74.1,190.47a7.59,7.59,0,0,1-3,1.83,70.24,70.24,0,0,1,11.83-10.78c16.67-11.9,33.81-14.27,51.33-14.43,39.44,2.11,73.1,26.15,82.89,64.32C212.59,217.15,204.21,204.21,191.93,192.72Z" transform="translate(0.69 1140.69)"/><path d="M939-283.82c5.36-9.57,19.11-8.5,28.26-13.63-6.6-1.43-12.2-.95-17.77,1.6-2.06,1-4.55,2.89-6.75.94-1.66-8.16,3.41-18.11,3.64-26.9,3.25-22.7,12.71-25.5,30.51-34.45-4.49.05-10-1.59-12.38.45-27.38,15.2-21.86,49.25-34.77,73.94.51-28.08,8.44-57.19,7.37-86.2-.48-14.08,11.1-20.94,16.63-31.66-6.6,3.17-12.51,6.33-15.81,13.37-3.32-17.76-5.43-35.18-2.49-52.14a24.75,24.75,0,0,1-1.34-5l-1.09-.16a87.25,87.25,0,0,0-3.22,12.38c-5-3.89-5-11.92-12.27-12.13C940.67-400.91,932.8-351.92,924-307c-4.11-9.85-12.61-17.7-11.72-29.93-9.19,9.42-11.73-6.25-19.35-3.69,60,44.49,9.87,98.29-20.47,142.93a15.77,15.77,0,0,1-.78-1.53,12.18,12.18,0,0,1-4.06,4.39C864.16-174,854-148.64,851.83-127.3a33.21,33.21,0,0,1-5.51,14.22c-12.91,16-25.14,36.48-41.64,47.85-2.49-.63-2.49-3.41-2.75-5.42-1.7-13.35-5.47-27.14,8.22-38-3.75-1.24-5.18,2.45-8.27,1.86,1.17-18.76,10-40.2,18.41-56.51-10.06,6.46-13.59,24-18.93,33.86-3.91-1-3.61-10.5-8.21-11.41,7.74,11.7,2.37,28.24.83,39.36C788.31-85,801.39-61,790.69-49.79,767.9-30.26,744.47-8.13,716.22,2.5c-49.61,3.34-98.59,14.63-144.83,29.37-23.53,8.22-46.8,23.08-72.21,22.88q-2.4-1.72-4.8-3.4a28.78,28.78,0,0,0-4.75-3.88A7.1,7.1,0,0,0,487,46.39c-13.67-8.88-27.68-15.58-42.92-14.81-11-3.87-24-3.3-31.61,3.41a5.27,5.27,0,0,0-.51.55,33.8,33.8,0,0,0-4.16,3.63c-.12.13-.2.27-.32.4-2.91-.93-5.77-1.92-8.58-3C377.05,28,349.76,24.7,333.51,6.67c-10.4-14-21.08-27.75-31.67-41.56-7.67-5.45-18.06-12.12-18.65-21.84-19.92-18.62-41.1-35.11-66.33-45.87a20.67,20.67,0,0,1-10-9.06,246.64,246.64,0,0,0-97.52-95.62c-5.75-3.24-18.95-13.67-19.22-.85,1.2,15.49,1,39,18.4,45.09,20.55,9.7,43,23.71,57.7,41.92C150.73-124.7,135.89-133.62,121-137c-11.75-2.69-14.15,5-12.66,17.08,3.51,28.5,4,28.88,31.8,32.25,24.15,5.78,64.78-.89,70.12,31.46a90.8,90.8,0,0,1,18.19,21.77C258.82,4.92,304.76,21.44,345.43,45.9c14.49,16.8,29.51,33.76,50.65,40.88,4.47,1.5,9.44,2.91,14.4,4a19.93,19.93,0,0,0,5,2.89c1.64.62,5.61.73,6.74,1.84,1.68,1.64,4.76,2.84,7.08,1.87L437.46,94c-.69,4.3-3.89,6.42-5.13,10.48-1.32,4.31,0,8.35,2,12.21,2.46,18.51,6.89,39.14.83,55.19l-1.87,5a47.82,47.82,0,0,1-5.66,22.22c-3.9,7.11-9.53,13.16-13.76,20.08-1,1.62-1.94,3.25-2.87,4.9-3.64,3.1-8,5.28-12.26,7.45a4.15,4.15,0,1,0,4.12,7.21l.06,0q-2.34,3.21-4.77,6.35a52.88,52.88,0,0,0-7.11,7.16,3.46,3.46,0,0,0-.73,2.21A84.32,84.32,0,0,1,374.78,268c-4.32,2.87-.86,9.31,3.74,7.37-1.12,1.26-2.25,2.52-3.35,3.8-1.55,1.81-1.87,5.35.79,6.54a8.67,8.67,0,0,0,2.33.68l-10.62,12.09c-1.45,1.66-2.06,3.82-.69,5.77a4.48,4.48,0,0,0,5.19,1.68c-.75.77-1.5,1.55-2.29,2.3a4.39,4.39,0,0,0,.41,6.75l-.33.24a50.77,50.77,0,0,0-6,6.71c-2.1,2.83-4.33,6.36-2.35,9.89a5.84,5.84,0,0,0,4,2.9l-.27.81L363.76,340a4.49,4.49,0,0,0,.25,3.39,74.47,74.47,0,0,0,12.38,58.69c1.74,2.44,3.35,4.91,4.86,7.4,1.69,2.78,3.25,5.59,4.71,8.42-.11,1.7-.23,3.38-.3,5-.21,5-.44,10-.64,15-.19,4.54-.28,9.15,1,13.55a4.57,4.57,0,0,0,5.23,3.41c4.44-.47,6.2-4.14,7-8.1l.18.46a27.84,27.84,0,0,1,.77,2.77c1.35,6.24,1.51,12.74,2,19.08,0,.46.07.93.1,1.39a183.43,183.43,0,0,1-9.15,25.35c-.89,10,7.93,2.43,11.7-2.35a5,5,0,0,0,1.22,0c-.75,6.59-6.25,20.83,1.47,20.32-2.31,5.56-17.07,32.73-5.18,32-5.47,10.73-17.32,15.56-24.45,24.71-2.06,2.66,1.85,6.3,4.51,4.58,1.65-1.07,3.35-2.07,5-3.1a9.49,9.49,0,0,1-.81,1.22A95.1,95.1,0,0,1,343,595.27c-3.95.9-4,7.15,0,8a21.08,21.08,0,0,0,3.34.44c-2.32.82-4.68,1.53-7,2.18-8.32,2.28-16.87,4.1-24.7,7.72-1.52-1.67-3.14-3.34-5.8-3-5,1.29-5.26-6.88-12.84-7.92a4,4,0,0,0-.84-1.28l-1.4.08c-2.59-2.42-8.34-7.36-9.89-1.59-5.71-1-12.88-2.11-17-6.38-3-3.46-7.77,2.24-5.07,5l-2-.33c-2.93-3.59-10.51-4.61-8.51,1.94-4.57-1.41-26.73-4.59-19.26,5-45,12.52-21.39,54.13-59.25,97.37-9.6,12-25.18,3.09-38,4.13-34.45,2.81-57.91,27.17-59.74,62.72-.36,7.11.13,13.52,7,17.18,30.76,15.83,34.13-35.47,67.24-31.33C141,768.08,125.87,775.2,135,788.75c29.46,13.94,67.56-74.89,88.57-92.44,2.47-.72,4.51-3.15,6.29-4.88,7.81-2.88,9.42-13.42,16.45-17.63a47.7,47.7,0,0,0,9,.28c-3.66,7.4,10.17,7.07,14.62,8.59-4.76.07-7.69,6.17-1.88,7.37,6.55.51,13.11,1,19.66,1.5-4.52.35-12.14,7-4.38,8.9,6.22-.16,12.46-.17,18.68-.45,6,37.18,23.76,60.86,64,59.49,1.78,6.92,2.87,14,2.11,21.19-.34,3.2,4.85,4.61,6.18,1.69,1-2.14,1.87-4.3,2.72-6.47,2,6.59-6.1,30.07,7.73,19.54.93,5.28-11.3,31.37,1.51,24.94-1.95,4.1-8.45,7-8.23,11.67-2,.62-4.1,1.38-5.45,3.05-16.46,3-32.61,7.9-49.69,7.18-9.63-.4-19.41,1-22.48,12.2-5.29,33.42-40.5,44.62-24.62,64.61,11.65,12.26,15.75-12.27,26.89-7.58,2.35,21.63-36.08,24.47-18.63,49.61,6.15,4.35,10.75,6.66,17.41,7.87,43.09-9.87,45.76-42.52,46.06-76.76.11-6.62.8-12.84,9.32-11.66,12.36,1.7,24.95-.63,37.19,4.48,37.91,16.47,61.31-7.48,59.36-46.15,2.16-9.65,5.55-23.09-.28-31.43,1.71-9-2.13-18.62.89-27.43,3.16.84,4.7-3.43,2.91-5.63-4.25-4.83-.3-12.89-3.22-17.95,1.49-2.08,1.63-5,1.91-7.56.19-1.75.37-3.5.56-5.25a5.58,5.58,0,0,0,4.14-1.07c3.39-2.57,2.9-7.31,2.66-11.06-.12-2-.32-4-.58-6a4.11,4.11,0,0,0,5.89-3.67q.16-6.78.9-13.49a16.89,16.89,0,0,0,6.83,4.21c3.23.89,5.65-2.07,5.1-5.09l-1.72-9.55c1.76,4.29,3.61,8.37,7.85,11,2.15,1.35,5.63.16,6.13-2.48.07-.39.11-.77.17-1.16a4.22,4.22,0,0,0,.9-2.36,164.26,164.26,0,0,1,3.81-28c3.24,3.71,7.32,6.58,12.23,7.26,2.45.35,5.47-1,5.25-4-.5-7,1.76-14,3.3-20.73.29-1.28.6-2.56.9-3.83a21,21,0,0,0,6.33,6.93,3.55,3.55,0,0,0,2.05.64,4.39,4.39,0,0,0-.58,1.37l-4.26,19.2c-.66,3,2.08,5.88,4.94,5.17a5,5,0,0,0,.61,1.38,179.31,179.31,0,0,0-.77,36.91c.38,4.52,6.82,5.81,8.17,1.08.24-.87.55-1.72.82-2.58.34,1.6.69,3.21,1,4.81.09,2.1.18,4.2.22,6.3a84,84,0,0,1-.91,15.93c-1,5.9-2.48,11.71-2.7,17.72a3.92,3.92,0,0,0,3.8,4,17.93,17.93,0,0,0,.82,8.74,6.6,6.6,0,0,0,6.06,4.35c2.81,0,5-2.12,6.46-4.29,13.66,25.46,37.22,42.61,61.67,56.1,31.83,17.57,44.92,38.41,29.95,73.29-1.72,4-1.38,9.39-.6,13.9,1.75,10.14,4.5,22.43,16,23.26,13.06.94,10.23-13,13.08-21.19,1-2.79,1.44-5.75,2.52-10.13,10.39,15.45,1.76,28.94-.59,42.06-3.33,18.6,11.34,24.21,22,28.45s22.53-3,28.36-14.08c17.64-33.7-7.48-119.74-40.76-140.62q-10.39-6.52-20.11-13.46a12.17,12.17,0,0,0-1.45-2.14c-2.26-2.67-4.76-5.18-7.3-7.66,2.46-.92,4-4.54,1.55-6.64l-31.8-27.41c2.42-1.08,4.83-2.19,7.21-3.36a3.87,3.87,0,0,0,1.75-3.92,3.93,3.93,0,0,0-2.9-3.21c-.63-.16-1.24-.34-1.85-.54l-.68-.26-.71-.31a24.34,24.34,0,0,1-3.51-2l-.13-.09-.94-.75c-.53-.44-1-.9-1.56-1.35l-.15-.13c1.14-1.58,1.27-4-.36-5.32l-1.1-.89a5,5,0,0,0,1.24-2.91,15.82,15.82,0,0,0-.25-4.65,4.19,4.19,0,0,0,3.23-3.94,45.62,45.62,0,0,0-.69-8.37,4.11,4.11,0,0,0,4.58-.81,4.26,4.26,0,0,0,.06-5.87l-.41-.53-.37-.51c-.39-.54-.77-1.09-1.13-1.65-.63-1-1.21-2-1.76-3a4.11,4.11,0,0,0,.83-.78,4.62,4.62,0,0,0,.35-.55,4.46,4.46,0,0,0,1.93-2.5c.91-2.76-.14-5.06-1.8-7a4.13,4.13,0,0,0-.42-1.24,143.78,143.78,0,0,0-7.85-12.34l-2.09-5.83c-.36-1-.7-2.09-1-3.19a4.31,4.31,0,0,0,.67-.21,4.16,4.16,0,0,0,2.59-3.82,6.16,6.16,0,0,0-3-5l-.36-.24a5.35,5.35,0,0,0-2.42-1.9c-.22-.22-.45-.43-.66-.66l-.65-.75a.22.22,0,0,0-.06-.07h0a25.69,25.69,0,0,1-1.53-2.63,48.38,48.38,0,0,0,11.25,5c3.33,1,6.7-3,4.7-6.07-3-4.64-6-9.39-8.72-14.21a4,4,0,0,0,.36-1.54l.32.12c2.05.62,4.2,1,6.27,1.67a11.26,11.26,0,0,0,5,1.67c4,.4,5.69-6,2.11-7.73a31.24,31.24,0,0,0-3.76-1.49,19.4,19.4,0,0,1-1.81-2.1,43.6,43.6,0,0,0-4.59-5.1,31.93,31.93,0,0,1-4.77-4.37,16.8,16.8,0,0,1-2.22-4.71c3.5,2.07,7.09,3.89,11.35,3.86a4.25,4.25,0,0,0,4-3.07,4.32,4.32,0,0,0-1.88-4.66c.45.33-.06-.13-.28-.33s-.24-.29-.31-.4a22.06,22.06,0,0,1-1.1-2,24.3,24.3,0,0,0-2.55-4.19c-2-2.49-4.93-4.27-7.32-6.06A35.83,35.83,0,0,0,627.74,618a4.22,4.22,0,0,0,3-7.07,203.41,203.41,0,0,1-18-24.25c-1-2.2-2.13-4.37-3.24-6.53a70.94,70.94,0,0,0,11.64,1.33,3.83,3.83,0,0,0,3.86-2.92,11.34,11.34,0,0,0,.67,1.78,7.07,7.07,0,0,0,11.56.68c3.57-4.38,6-9.75,9.18-14.45,3,22.19,15.22,36.08,24.4,6.71,6.31,7.06,12.6,15.35,23,15.4,4.29,0,6.82-4.88,4.75-8.47a64.6,64.6,0,0,1-5.84-13.64l2-6c15,11.38,51.47,24.24,25.27-7.13,8.8,3.29,42.83,13.41,31.75-6.77C740.55,541.15,731,533,724.76,522c7.5-17.23,30.22-18.85,45.94-25.27,29.2-10.23,62-19.9,86.08-39.75,19.21-15.84,52.76-65.5,78.16-81.12,10.52-6.47,7.06-16.19-4.75-19.89-63.16-22.05-131.63-16-196.44-6.82-.9-3.67-3.63-6.25-6.56-8.33a7.46,7.46,0,0,0-7.66-6.64c-2.42-1.75-5.37-8.37-11.61-8.13a7.18,7.18,0,0,0-1.34-1.51c.8-63.16-9.26-105.8-17.55-168.25.19-14-6.75-38.2-24.48-36.59-83,23.09-128.75,96.71-126.72,178.37-3.12,8-5.91,16.22-9.74,23.92-7.4-.09-13,.09-19.05-4.11-5.66-3.95-16.3-15.1-18.66-13.7-5.18,3.06.85,25.42,7.46,32-9.08,2.52-6.58,2.72-16.64,1.7-2.53-.25-10.53-5.8-10.78-4.66-1.09,4.95,13.71,24.47,22.08,24.81-8.09-.33-7.76,8-24.85-8.34-10.79-10.29-2.45,34.62,13.67,31.12-14.4,3.13-26.64-8.82-26.64-8.82-6.43,7.83,6.7,25.94,24.1,32.62-4.43-1.7-10.45-5-15.45-4.29l-.55-.45a26.49,26.49,0,0,0-7.92-4.1c-.05-.18-.11-.36-.17-.53-.35-1-.7-2.1-1-3.15-4.61-14.07-8.07-27.77-4.31-43.28a5.11,5.11,0,0,1,3.9,1.35c3.36,3.19,8,.56,7.62-3.84a141.18,141.18,0,0,1,1.05-32c.06.18.16.36.23.54a22.61,22.61,0,0,1,1.26-8.5.63.63,0,0,0-.11.12c.29-1.44.6-2.87.93-4.3a5.3,5.3,0,0,0,5.63-1.06c2.42-2.22,3.07-6.22,3.33-9.32.37-4.49-.6-8.93-1.54-13.35a127.85,127.85,0,0,0-1.16-16.77c2.81.81,6.15-1.26,5.21-4.89a18.64,18.64,0,0,0-4.74-8.4,53.88,53.88,0,0,1-4.38-13c-.26-1.3-.49-2.61-.7-3.92C466.2,210.9,475.94,192,484.49,173a4.77,4.77,0,0,1,2.88-2.73c2.6-8,5.28-16,8-24,1.81-5.37,8-34.62,8.88-43.39.78-8,1.42-17.43.45-26.42a115.22,115.22,0,0,1,28-1.17c25.94.55,54.12-4.76,79.05-9.61C628,62.82,648,57.3,659.32,52.39c26.23-11.34,75.95-41,105.49-44.06C786,4.05,806.05-2.82,823.18-16.55c13.74-9.64,30.5-5.34,45-.85-4.71-7.62-7.65-8.47-34.51-9.84,17.95-24,15.64-53.81,26.32-80.13,11.41-28.09,55-59.56,83.75-45.45-5.53-5.91-5.53-5.91-26.15-9.37a58.74,58.74,0,0,0,15.85-20,18.78,18.78,0,0,1-2.18-4.67c-10.17,18.12-28.81,31-49.76,37.66,14.64-31.65,27.72-62.46,37.39-95.86C923.19-259.08,932.31-270.9,939-283.82ZM241.14-59.64C259-51.77,292.9-21,299.19-7.11,277.32-21.88,257.73-37.69,241.14-59.64ZM377.25,53.53c6.2,2,12.34,3.76,18.46,5.44a39.68,39.68,0,0,0,1.45,8.87C389.24,64.21,382.28,59.39,377.25,53.53ZM624.52,575.05a3.92,3.92,0,0,0-1.31-1.28c-3.6-2.11-6.11-5.5-8.66-8.73a42.75,42.75,0,0,0-9.68-9.4c-1.07-.72-2.26-1.39-3.5-2.06,8.51,1.79,16.13,4.46,24.35,6.8-1.15-.4.11-.24,1.95,0C627,565.17,624.59,570.2,624.52,575.05ZM900.45,375.11c-19.13,20.83-37,28.26-51,45.49-23.66,29.12-60,29.12-60,29.12,36.39-27.3,38.4-28.58,47.31-40,12.74-16.38,38.21-27.3,38.21-27.3-27.29-9.1-111-12.73-111-12.73C875,351.46,900.45,375.11,900.45,375.11ZM671.72,400.18c34-14.4,74.06,3.62,82.42,23.34S747.56,484.59,713.6,499s-74.06-3.63-82.41-23.35S637.77,414.57,671.72,400.18ZM653,155s14.56,98.25,9.1,136.46c0,0-20-61.86-23.65-111,0,0-23.66,9.1-54.59,91C583.84,271.4,578.38,185.88,653,155ZM546.76,354.61c6.77-36.25,44-59.72,65-55.79S659,338.05,652.25,374.3s-43.94,59.72-65,55.79S540,390.86,546.76,354.61Zm23.12-303C603.68,37.51,638.56,27.42,675,23.28,641.56,38.62,606.27,47.16,569.88,51.63ZM773.22-8.54C799.6-29.79,821.42-53.46,841.7-80,837.55-42.55,810-13.63,773.22-8.54ZM864.73-152c5.5-27.63,19-50.53,36.87-73.66C895-202.16,872.06-156.11,864.73-152Z" transform="translate(0.69 1140.69)"/></g></svg>