<svg xmlns="http://www.w3.org/2000/svg" viewBox="0 0 1002 2132"><defs><style>.cls-1{fill:none;stroke:#000;stroke-miterlimit:10;stroke-width:2px;}</style></defs><g id="base"><rect class="cls-1" x="1" y="1" width="1000" height="1000"/></g><g id="imprit"><path d="M779.24,183.57l.94.68c6.77,4.86,13.08,9.64,18.5,15.53-.74-7.28-1.49-13.08-2.69-15.3-6.37-16.39-4.67-34.34.87-50.71.29-.9.79-2,0-2.71s-1.49.16-2,.73c-10.82,12-18,25.72-15.85,42.4A43.16,43.16,0,0,1,779.24,183.57Z" transform="translate(0.69 1140.69)"/><path d="M803.17,322.17c5.38-3,9.86-7.41,14.08-11.9s5.47-9.5,8.08-14.81a46.4,46.4,0,0,1,4.31-7.06,10.5,10.5,0,0,1,.86-1.27c3.48-4.4,6.88-8.73,11.28-12.22a47.37,47.37,0,0,1,15.1-7.59c5.58-1.8,6.68-27-2.12-42.77-1.23-7.68,7-34.7-8.52-44.76-2,1.87.1,11.7-.9,15.26.7,14.59-20,36-26.19,13.12-5.53-29.91,9.91-34.69,17.08-56.8,1.74-13.9-4.85-27.13-15.21-35.64C833.8,157.66,798,165.75,805,203a22.85,22.85,0,0,0,1.56,7.4A77.28,77.28,0,0,1,812.8,224c4.64,9.34,8.88,18.57,4.75,24.08a92.53,92.53,0,0,1-2.7,28.79c-1.68,6.58-3.29,13.41-5.47,19.84-2,6-5.37,11.43-7.4,17.42.34,2.23.85,4.54,1.12,7.25C803.13,321.66,803.15,321.92,803.17,322.17Z" transform="translate(0.69 1140.69)"/><path d="M564.71,169.21c14.3-8,30.3-12.26,46.78-14.56,2.12-13.36,13.45-23.88,24.41-30.77C642,120,646.55,114.79,647,107.16c.8-9.62-4.83-24.64-12.43-29,11.09,31.32-24.62,24.06-18.18-19,.11-1.42.87-2.89-.28-4.36-1.09.23-1.51,1.14-1.93,2-3.9,7.39-7.33,15-9.2,23.21-5.87,18.27,12.58,27.26,2.77,45.07-3.62,7.27-10,8.27-15.92,2.78-8.5-8.34-9.14-21.58-7.57-32.81,1.07-3.22-1.39-4.35-2.88-1.36-8.91,13.34-5.12,30.58-6.62,45.74-1.12,10.11-10.57,2.65-9.77-4.3a62.36,62.36,0,0,1,.42-11.51c.16-.91.67-2-.22-2.7-8.36.62-13.15,12.24-11.62,20.89C555.18,151.66,560.57,160.18,564.71,169.21Z" transform="translate(0.69 1140.69)"/><path d="M642.61,199.89c-2-4.26-2.4-25.22,2.4-47.18-24-11.39-15.26,69.14-24.77,62.63-2.09-1.31-4.77-19-6.68-33.92-6.2,5.2-11.92,11-15.42,18.46a44,44,0,0,0-3.89,16c-.19,3.12-.43,6.19-.85,9.29a52.94,52.94,0,0,0-.33,9.07c0,.18,0,.36,0,.53.57,3.14,1.15,6.27,1.41,9.46a25.16,25.16,0,0,0,.71,4.62c.41.75.82,1.49,1.22,2.24,9-3.91,19.46-4.53,29-5.07,13-.74,25.69-1.35,38.71-.62,14.81.84,29.77,1.57,44.16,5.58,7,2,13.94,4.57,20.9,6.8,4.3,1.38,8.56,2.87,12.74,4.54.7-1.24,1.46-2.45,2.29-3.63,2-2.9,4.38-5.61,4.86-9.24.59-4.45.14-9.08.51-13.56.4-4.69,2.1-10.13,1.5-14.79-.51-3.9-2.49-7.69-3.89-11.31C746,206.54,745,203.22,744,200a76,76,0,0,0-3.51-9.19,34.48,34.48,0,0,0-2.53-4.57l-.06-.09q.81,2,1.7,4.35c3,11.25-13.24.53-12.63-10.54-2.88-22.91,15.25-28,23.53-44.73,4.92-12.72.59-29.08-10.33-37.91-6.36-4.69-8.54-10.5-8.56-18.24-1.09-.3-1.58.45-2.13,1-11.78,12.13,4.25,21.63,6.29,34,1.31,7.5-2.27,12.16-9.67,11.23-16.92-2.14-21.15-9.47-15.81-24.38,6.47-16.31,22.5-37.06,4.62-52,4,13.19-.83,24.72-10.29,33.47-12.89,12.36-27.69,33.72-13.32,50.43,9.53,9.29,18.76,19.1,20.34,33.13,1,9.62,4,41.88-13.32,31.63-12.71-9.81,4.1-23-1.48-36.11-3.8-20.16-26-20.61-25.95-39.76,0-.81.43-2-1.27-2.3-8.75,17.34,2.57,25.49,8.25,40.71,4.15,13.24-19.32,65.52-31.23,68.27C653.16,210.12,648.28,220.87,642.61,199.89Z" transform="translate(0.69 1140.69)"/><path d="M746.81,153.47c-12.28,8.13-15,12.84-13.42,20a7.62,7.62,0,0,1,7-4.94c5.29-.22,10.4-.19,15.37,1.14,5.8-11.29,13.35-11.69,1.6-41.59-1.45,1.63-.94,3-.85,4.3C757.15,141.31,753.4,148.08,746.81,153.47Z" transform="translate(0.69 1140.69)"/><path d="M540.82,188.73c.76-1,1.53-1.9,2.35-2.81a8.1,8.1,0,0,1-1.22-1.57C541.58,183.77,541.2,185.55,540.82,188.73Z" transform="translate(0.69 1140.69)"/><path d="M554.11,176.1l-.3-1.38c-.16-.75.08-1.81-1-2-2.86,1.3-4.67,6.1-6.11,9.58A92.41,92.41,0,0,1,554.11,176.1Z" transform="translate(0.69 1140.69)"/><path d="M484.45,236.2a14.93,14.93,0,0,1-.48,4,51.45,51.45,0,0,1,4.21,5.17c1.67,2.35,3,4.95,4.61,7.32s3.45,4.36,5,6.65a28.18,28.18,0,0,1,4,8.33,32.81,32.81,0,0,1,.81,3.82,7.84,7.84,0,0,0,.2.91,2.88,2.88,0,0,0,.17.31A121.14,121.14,0,0,0,523.19,295c.45-1.17.87-2.35,1.3-3.49s.88-2.37,1.35-3.55c-.17-4-1.54-8.68-2.11-12.49-1.12-7.48-.92-15-.86-22.56.14-18.13,3-38.56,11.88-55-1.11-2.68-2.85-3.76-5.21-.69-12.78,8.86-21.07,25.78-12.63,42,3.86,7.17-2.47,18.06-10.18,17.21-5.51-.1-7.58-8.42-7.65-14.19-1.71-19.08,2.38-36,17.42-48.92,20.08-16.38,3.36-42.3-11.39-55.76-8.05-8.42-12.95-17.92-8.9-30.12.08-.24-.29-.63-.64-1.31-17.64,16.83,1.58,37.87,6.66,55.7,2.73,10.11-.25,15.67-10,18.94-8.88,3.71-19.46,1.08-16.5-10.76,2.77-12.31,17.81-21.09,5.78-33.54-.94-1.53-2.83-1.07-2.27.78,1.07,7.25-2.31,12.23-7.67,16.5-15.15,12.08-17.16,34.29-4.43,48.08C477.2,210.66,486.15,221.75,484.45,236.2Z" transform="translate(0.69 1140.69)"/><path d="M454.07,184.69c-11,26.48-5.27,31.26,0,39.36a57.67,57.67,0,0,1,22.79,9.8c2.06-6.06,2.65-12.07-3.25-16.34-9.42-7.17-20.58-14.77-18.74-28.42A5.62,5.62,0,0,0,454.07,184.69Z" transform="translate(0.69 1140.69)"/><path d="M389.4,103.16c-4.45.84-10.08,11.94-12.34,16.33C364.34,145.39,391,155,392,179.55c2,9.56-1.34,31.73-15.22,23.95-11-6.6-13-21.42-12-33.31.12-1.19.82-2.88-.34-3.42-12.82,6.74-2.62,57.15.46,69.09,2.93,10.51,6.27,24.25-3.18,32.42-1.42,1.18,1.29,37,1.82,55.59,9.62-3.44,19.25-5.23,29.48-6.63a159.49,159.49,0,0,1,20.13-1.62,70.19,70.19,0,0,1-4.09-8.48,24,24,0,0,1-.58-14.89c1.27-4.27,4-7.54,5.87-11.49,1.05-2.26.49-3.06-1.7-5.25a19.32,19.32,0,0,0-8.05-4.8,52.93,52.93,0,0,0-6.34-1.46c-2-.36-4.1-.7-5.09-.79-3.63-.36-7.85-.18-11-2.23a7.75,7.75,0,0,1-3.57-5.09,7.7,7.7,0,0,1-2.34-2.49c-2.33-4.06-.62-8.52,2.85-11.1,2.86-2.13,5.1-5.13,7.62-7.65a51.22,51.22,0,0,1,6.11-5.17c-5.45-7.79,3.36-19.13,6.66-26.6C424,156,375.58,152.05,389.4,103.16Z" transform="translate(0.69 1140.69)"/><path d="M417.35,224.74A104,104,0,0,1,433,222.66a21.29,21.29,0,0,1-1.19-11.33c3.1-18.6-3.48-37.56-17.94-48.55,6.27,20.51,9.23,46-3.87,63.76C412.39,225.84,414.85,225.26,417.35,224.74Z" transform="translate(0.69 1140.69)"/><path d="M296.94,339.6c6-.08,12-.65,18-.62a53.94,53.94,0,0,0,14.77-2c10.26-2.78,19.86-7.5,29.69-11.49-.09-9.2,1.22-23.27-14.77-35.58,1,5,1.87,9.67,1.11,14.43-1.65,10.31-6.82,19-12.25,27.55-1.77,2.77-2.27.08-2.77-1-10.52-20.68.11-43.18,3.81-64.22,3-16.19-4.84-30.29-20-36-.74-.28-1.6-1.23-2.51.15,21.77,13.56,4.35,43.86-3.46,29.48-2.14-4-3-8.51-4.07-12.89-.21-.87.12-2.18-1.1-2.39-4.14,2.23-4.92,13.4-2.87,17.85,7.5,14.88,23.77,42.27,1.62,52-1.15.68-3.79-1.09-.6-10-10.38-5.69-8.33,21.84-12.78,16.27-.6-.76-11.38-12.43-12.78-12.2,5.29,10.65,9.88,21.66,11.17,29.45A45.25,45.25,0,0,0,296.94,339.6Z" transform="translate(0.69 1140.69)"/><path d="M664.14,110.52c.67,1.27,1,3.21,2.74,3.2s2.21-1.82,2.89-3.1c7.16-13.38,5.63-26.56-1-39.6-1.46-2.88-2.8-2.34-4.25,0-3.66,6-5.68,12.35-5.32,19C659.21,98.19,660.54,103.7,664.14,110.52Z" transform="translate(0.69 1140.69)"/><path d="M774,124.28c2.86-3.93,3.37-8.56,3.79-13.19a66.79,66.79,0,0,0-4.75-20.73c-.49-1.19-.92-3-2.68-1-6.56,7.4-7.08,26.91-1,35C771.14,126.8,772.51,126.36,774,124.28Z" transform="translate(0.69 1140.69)"/><path d="M543.65,171.71c6.41-10.84,3.58-23.89-1.56-33.32-1.26-2.33-2.27-1.34-2.92.44-2.43,6.7-4.68,13.45-4.38,20.95a20.27,20.27,0,0,0,2.63,12.05C539.82,175.74,541.28,175.72,543.65,171.71Z" transform="translate(0.69 1140.69)"/><path d="M443.12,183.82A24.06,24.06,0,0,0,447,169.27c.26-6.75-1.72-12.67-4.49-18.37-.44-.91-.7-2.3-2.07-2.14-1.06.13-1.26,1.33-1.61,2.19a59.78,59.78,0,0,0-4.32,17.85c-.42,5.26.08,10.43,3.11,15C439.82,187.13,441,187.13,443.12,183.82Z" transform="translate(0.69 1140.69)"/><path d="M343.21,224.75c3-4.31,4.09-9.17,4.42-14.6a43.2,43.2,0,0,0-4.72-16.58c-1.32-2.57-2.48-2-3.58.16a36.24,36.24,0,0,0-4.45,18.51,21.89,21.89,0,0,0,4.3,12.59C340.64,226.8,341.82,226.76,343.21,224.75Z" transform="translate(0.69 1140.69)"/><path d="M811.88,140.29a21.94,21.94,0,0,0,3.77-13.6,24.72,24.72,0,0,0-1.66-10c-1.1-3-1.9-8.08-4.48-8-3.22,0-3.63,5.08-4.72,8.17-2.8,8-2.44,15.88,2,23.28C808.76,143.47,809.72,143.44,811.88,140.29Z" transform="translate(0.69 1140.69)"/><path d="M565.35,89.23c3.48-5.64,3.18-14.6-.71-20.32-1.32-1.94-2.41-1.84-3.72-.11-2.34,3.11-4.14,6.42-4,10.85-.3,3.6,1.36,6.82,3.59,9.86C562.27,92,563.74,91.85,565.35,89.23Z" transform="translate(0.69 1140.69)"/><path d="M698.63,73.92a19.35,19.35,0,0,0,2-19.09c-.85-1.9-1.87-2-3.32-.51-4.24,4.47-5.31,13.94-2.2,19.31C696.22,75.6,697.27,75.89,698.63,73.92Z" transform="translate(0.69 1140.69)"/><path d="M452,131.73c3.64-.38,3.22-5.49,3.48-8.95a15.44,15.44,0,0,0-3.06-10.38c-.68-1-1.23-2.43-2.64-2.14s-1.61,1.73-2,2.88a19.22,19.22,0,0,0-.6,10.51C447.84,126.92,449,132,452,131.73Z" transform="translate(0.69 1140.69)"/><path d="M381.57,191.82c2.92-.55,1.74-5.17,2.45-7.6a26.8,26.8,0,0,0-2.21-10.35c-1.5-3.35-2.95-3.46-5-.32a11.61,11.61,0,0,0-1,11.74C377.11,188.05,378.56,192.4,381.57,191.82Z" transform="translate(0.69 1140.69)"/><path d="M255.84,340.48c2.18-.18,4.29-.37,6.23-.49,4.83-.28,9.59-.89,14.34-1.28,0-.08,0-.15,0-.22a71.31,71.31,0,0,0-7.2-24.32,22.13,22.13,0,0,1-.63-19.25c.92-2.21,1.93-4.37,2.93-6.55a37.2,37.2,0,0,0,3.88-15.16c.17-11-4.24-20.1-11.35-28-.34-.37-.64-.9-1.4-.66a8.86,8.86,0,0,0,.82,3.27c2.63,8.52,4,17.18,2.56,26.09-1.36,8.64-4.94,16.07-11.85,21.54-3.1,2.45-5.92,1.26-6.52-2.73-.36-2.41-14.72-24-16.12-27.64a34.4,34.4,0,0,1-1.84-13.47c0-1.51,0-3,0-4.53-.86.05-1.06.63-1.35,1-4.33,6-5.23,12.73-4.54,19.87.76,7.89,3,15.46,5,23.1,1.53,6,3.61,12,3.07,18.44a13,13,0,0,1-3.91,8.65,4.27,4.27,0,0,1-4.62,1.18,4.16,4.16,0,0,1-2.63-4,17.21,17.21,0,0,1,.16-3.93,19.84,19.84,0,0,0-1.57-12c-1.75-3.91-4.4-7.22-6.62-10.81-.26-.42-.57-1.16-1.46-.78a30.14,30.14,0,0,1,1.07,5c.53,7.82-2.47,14.51-6.31,21-.36.6-.68,1.2-1,1.8l.28.5c1.7,3.1,2.6,5.45,5.9,6.83a50.36,50.36,0,0,1,13.11,7.57c3.38,2.73,6.57,5.67,10.38,7.77l.15.07a28.92,28.92,0,0,0-.72-5.57c-.69-3.09-1.32-6.19-.6-9.39a6.9,6.9,0,0,1,3.67-5.1,30.73,30.73,0,0,0-.7,3c-.22,1.87,0,3.67,2,4.52s3.38-.22,4.54-1.69c2.42-3.07,2.22-6.63,1.67-10.2a57.39,57.39,0,0,0-2.22-8c4.73,5,8.79,10.21,7.73,17.77-.37,2.65-1.83,4.69-3.43,6.7-2.65,3.35-2.89,7.5-.79,10.45,1.62.07,3.27.05,4.9,0l-.06-.58c-.17-2.7.06-5.26,2.46-7.68C252.85,335.84,254.45,338.13,255.84,340.48Z" transform="translate(0.69 1140.69)"/><path d="M292.16,277.24a116.3,116.3,0,0,0-2.27-11.59c-.15-.58-.21-1.36-.89-1.47s-1,.63-1.32,1.11a9,9,0,0,0-.62,1c-6.9,11.83-7.68,24-2,36.56.34.74.43,1.86,1.44,1.87s1.31-1,1.72-1.68a32,32,0,0,0,4.45-18A43.14,43.14,0,0,0,292.16,277.24Z" transform="translate(0.69 1140.69)"/><path d="M169,400c-2.72-.2,12,24.4,27.61,28.38,10.12,2.57,6.74,18.8,6.74,18.8-2.7-3-13.58,5.69-14.38-3.26-.78-8.74-20-15.45-20-15.45,12.24,6.92,0,56.12,28,74.83.34.23,8.15-39.14,8.2-39.32,9.37-30.63,23.75-44.46,23.75-44.46-9.59-3.25-53.52-30.9-53.52-30.9C173.78,392.42,191.33,401.6,169,400Z" transform="translate(0.69 1140.69)"/><path d="M993.66,923.4c-3.37-5.29-6.92-10.71-11.43-14.94-5.21-4.88-11.47-8.64-17.4-12.68-3.48-2.37-7.08-4.81-11.38-5.28-14.41-1.57-28.89-2.65-43.25-4.59-11.57-1.56-23.64.44-34.7-4.88-11.48-5.51-24.16-8.87-31.9-20.64-12.42-18.87-27.93-35.28-41.74-53C790.12,792.25,778.69,777,770.3,759.5c-13.2-27.49-28.57-46-43.72-72.61-3.23-5.68,2.11-2,2.65-8.83,1.28-16.34,5.71-32,10-47.6,5.81-20.92,9.7-42.28,8.7-63.91-.1-2.27-.18-4.52-.22-6.77a123,123,0,0,0-19.07,9.1c-19.77,12-29.9,34.76-47.9,48.94-15.1,11.89-36.85,16.11-54.56,8.75a235.28,235.28,0,0,1,1.68,25c-.07,19.86-.65,39.86-10.7,57.91-.82,1.49-1.89,3.21-.59,4.75s3.14.5,4.61-.22c5.47-2.67,5.64.15,4.71,4.5-.52,2.42-1.64,5.69,1.8,6.49,4.06.95,4,3.67,4,6.73.06,9,18.93,36.88,24.87,43.79,1.73,2,3,5.3,6.16,4.73,2.89-.51.78-4.31,3.2-6.34,11.65,14,24.74,26.21,38.81,37.78,31.4,25.81,59.15,55.7,87.19,85.27,13.83,14.59,24.48,29.25,25,50.12.24,9.33,6.21,14.15,14.3,17.52,19,7.94,38.7,14.4,57,24.25a22.38,22.38,0,0,0,12.87,2.36c8.49-.76,12.42-9,7.92-16.41a35.73,35.73,0,0,0-14.73-13.65c-5.27-2.66-10.71-5-16-7.61-1.75-.88-4.6-1.66-3.92-4.25.63-2.43,3.51-2.17,5.47-2,21.05,1.34,42.61-.55,62.28,9.86a26.44,26.44,0,0,0,4.09,1.68c6.78,2.24,13.33,5.42,20.64,5.52,6.2.09,11.94-3.82,10.71-8.14-1.81-6.33,1-6.86,5.72-7.18a10.3,10.3,0,0,0,5.07-2.35C991.55,944.21,995.8,926.76,993.66,923.4Z" transform="translate(0.69 1140.69)"/><path d="M625.83,625.06c-18.13-8.07-27.11-26.67-40.35-43.92-26.84-25.51-50.89-23.85-73.65-60.35-12.45-15.18-8.74-37.32-13.53-55.46-4.74-23.34-27.77-3.25-43.35-11.28a100,100,0,0,1-53.17-42.45c-11.69-32.5-1.08-54.77,27-73a201.19,201.19,0,0,0-87.82,15.23c-9.73,9.38-58.17,2.46-65.16,2C204.3,371.9,131.53,264.38,167.32,219.71c11.23-24.61,58.31-47.66,83.11-58.87,28.84-14.7,89.12-38.08,112.41-59.27,23.58-21.46,34.1-48,28.31-61.26C377,7.88,301,8.83,239.59,26.54c-20.42,5.88-111.5,42.37-119.07,58.66,2.69-2.91,82.91-38.31,137.93-48.49,38.92-7.21,68.82-10.52,99.87-3.78C365,34.76,375,39.56,375.81,44.85c1.18,8.07-2.83,30-32.1,46.86-51.65,29.68-105.23,44-114.84,50.43C213,151.77,147.4,180.36,133,212.9,96.55,295.42,156.8,399.16,258.17,410.05c-45.28,24.08-45,88.65-45.89,90.66-2,4.47-4,8.93-5.88,13.46-1.55,3.79-3.22,7.06.23,11.48,3,3.8-.54,9-.83,13.56-.27,4.32-3,9.07,3.93,11.45,3,1,.48,5,0,7.61-.89,4.65-1.69,8.78-1.11,14,.64,5.82-1.92,10.05,6.08,10.6.19,0,.32,1.27.45,2,3.81,20.47,15.41,34.93-3.59,43.17a301.18,301.18,0,0,1-35.06,12.58c-33.44,9.8-43,28.33-68.43,52-1.86,1.72-3.41,3.16-4.73,4.32a58.55,58.55,0,0,1-6.23,6.66,132.42,132.42,0,0,1-21.26,15.37,99.38,99.38,0,0,1-13.59,7,9.05,9.05,0,0,1-2.67,1.72c-5.65,2.58-11.14,5.55-16.78,8.16a109.28,109.28,0,0,0-27.41,18C.11,767,9.53,790,17,801.77c3.4,5.37,47.88,17.35,62.76,29.5,9.85,8.05,28.57,21.94,41.07,25,20,4.88,46.53,15.52,52.7,11,6.52-4.75,1.26-7.49-5.18-9,8.72.5,12.76-1.5,14-5.39,1.42-4.35-8.64-7.54-12.6-8.61,4.17,1,15.48,3.31,17.9-.4,3.54-5.4-8.84-9-8.84-9,3.75-.72,13.82,1,19.46-1.81,6-3.05,7.32-10.75,0-12.61-28.77-7.32-37.16-19.82-54.85-30.63-2.84-1.74-28.34-8.92-22.7-10.3,3.67-.9,6.89-3.14,10.25-4.82a137,137,0,0,0,12.12-7.05c7.67-4.84,15.43-9.86,23.93-13.08,4.61-1.75,9.41-2.9,14.05-4.55.93-.33,1.84-.68,2.75-1,18.27-7.21,18.74-11.82,37.59-17.24a543.09,543.09,0,0,1,59.1-13.69c15.82-2.69,40.22-14.89,40.22-16.79,0-9.3-8-14.65-3.73-22.81-.92-1.91-8.3-13.83-8.7-15.83-1.5-7.41,1.12-15.09,4.93-21.33,5.3-8.67,12.35-16,19.82-22.91q6.58-17.26,11.66-35.21c-6.12-5-9-14-16.16-18.64l-.87-.54a152.73,152.73,0,0,0-.33-18.13c11.72,31.4,30.42,34.26,42.87,50.92,12.45-7,30.4-19.2,45.22-24,10.64-4-28.61,23.61-57,43-9.57,8.3-22,14.88-30.2,24.73l-.07.1c-.28.34-.56.69-.83,1-.42.55-.82,1.1-1.22,1.66a34.33,34.33,0,0,0-5.63,13.16c-.42,7.83,9.42,12.51,9.17,21.6-1.25,10,2.85,17.8,6.64,26.58,1.76,6,3.59,14.47,2.23,21.54,1.06,3.52,2.12,6.62,3.39,8.12C354.35,766.44,386.5,839.87,391.4,844a5,5,0,0,1,1.68,2.93c1.37,11.28,7,20.9,11.12,31.15a45.12,45.12,0,0,0,17.69,22c14.9,9.74,31.2,16.71,46.85,25,4.63,2.43,7,5.55,8,10.92,2.11,11.3,5.18,22.45,10.46,32.71,2.85,5.54,7.88,8.86,14.09,7,5.92-1.81,5.81-7.62,5.57-12.75-.25-5.5-.92-11-1.41-16.46,2.06,4.35,2.91,8.84,3.88,13.31s1.78,9.05,3.14,13.43c3.29,10.59,11.2,14,20.64,9.13,2.22-1.15,4.26-2.56,6.88-2.73,5.37-.35,7.92-3.83,9-8.78.82-3.58,1.42-7.21,4.14-10,4.22-4.38,5.46-10,5.59-15.86.24-10.36.07-20.73.63-31.07.59-10.85-2.73-19.22-12.06-25.15-18.61-11.83-36.52-24.76-54.22-38-15.37-11.44-30.47-23.39-38.49-41.75-.26-.6-17-81.68-34.8-113.71,4.73-16.23,96.81-41.47,104.51-26.88,5.69-.9,15.12-.74,23.69-1.21a163.66,163.66,0,0,0,50.36-18c2.54-5.25,18.21-19.67,16.16-13.52-.29.87-.54,1.79-.76,2.75C618.3,634.59,621.13,629,625.83,625.06Z" transform="translate(0.69 1140.69)"/><path d="M592.72,736.3c-4.81-6.69-10.92-9-18.68-7.62-2,.35-4,.81-6.09,1.07-8,1-16.07,2.16-24.13,3-5,.48-5.88-1-3.68-5.4A115.27,115.27,0,0,1,549.47,711c1.16-1.62,2.41-3.15,3.69-4.65,5.13-6,11-11.28,15.88-17.48,3.48-4.41,16.06-18.87,16.86-22.12-8,1.62-20.82,9.38-28.34,7.83-3.36.48-6.72,1-10.08,1.5-5,.8-9.89,2-14.92,2.38A54.49,54.49,0,0,1,519,677.35c-3.12-.56-6.57-1.54-10.09-2.28a10,10,0,0,1-.46.93c-1.42,2.48-3.64,4.47-5.6,6.5-1.19,1.24-2.35,2.53-3.48,3.85-3.18,4.53-6.1,9.26-9.26,13.78-2.19,3.12-4,6.53-6.37,9.49a5.72,5.72,0,0,1-.6,1.26c-.5.66-1,1.34-1.48,2-.85,1.18-1.69,2.37-2.49,3.58A59.17,59.17,0,0,1,472.32,728c-2.91,5.46-5.53,11.09-8.07,16.77-2.47,5.52-4.18,11.19-3.74,17.43.56,8,4.05,11.66,12,11.56,4.23-.06,8.46-.92,12.7-1.27,10.49-.88,20.9-3.25,31.48,0,7.47,2.32,15.22,3.71,22.86,5.47,6.76,1.56,13.37,1.27,19.71-1.87,2-1,3.47-2.34,3.5-4.76s-1.56-3.39-3.32-4.37a34.09,34.09,0,0,0-8.09-3.05c-3.71-1-7.52-1.75-10.91-3.71-1.13-.65-3.08-.87-2.86-2.57.24-1.94,2.19-1.82,3.65-1.91,9.35-.55,18.64.73,28,1.17,2.25.1,4,1.58,5.56,3.3,4.43,5,9,9.79,13.38,14.84a14.24,14.24,0,0,0,7.7,4.54c5.49,1.34,8.64-1.61,7.58-7.22-.43-2.27-.22-3.86,1.58-5.57,3.6-3.43,3.76-6.39,1.15-10.87C602.12,749.05,597.35,742.73,592.72,736.3Z" transform="translate(0.69 1140.69)"/><path d="M408,253.62h0c12.72-1.31,19,8.27,26.28,16.48,2,1.93,1.49,4.78-.31,6.71-4.13,4.29.86,11.34-3.36,15.84a2,2,0,0,0-.25.33c-7.77,13.23,9.51,11.75,11.72,41.21.3,15-37.15,21.68-35.81,46.79a2.26,2.26,0,0,1,0,.26c-1.68,14.53,4.28,28.21,13.18,40.56,2.26,3.12,6.77,5,10.42,7.18C436,432.67,441,438,448.15,440.06a2.43,2.43,0,0,1,.92.5c15.07,13.37,37.72-3.74,52.15,9.9,16.61,15.35-5.52,43.32,33.86,83.31,10.5,10.67,46.53,25.22,56.22,38.17,16.38,21.92,23.78,48.22,54.91,48.27,30.57.06,41.47-25.61,60.08-46.48,10.88-12.19,45.57-24.62,56.32-34.19,39-34.77,24-62,40-74.7,13.74-11.14,25.21,2.09,39-8.6a1.72,1.72,0,0,1,.79-.36c5.88-1.2,7.27-1.44,12.51-4.16,3.09-1.6,6.8-2.84,8.93-5.36,8.3-9.94,14.47-21.23,15-34l0-.23c4-21.55-15.79-31.83-13.71-45,5.36-25.51,18.42-21.79,14.11-34.39a1.87,1.87,0,0,0-.15-.32c-2.68-4.54,2-9.92-.63-14.29-1.15-1.95-1.17-4.51.58-5.88,6.56-6,12.47-13.26,21.84-10.09h0a2.09,2.09,0,0,0,2-2.93c-5.72-12.73-37.63-18.31-48.11-7.1l-.08.07c-14.49,13-14.76,20.71-15.12,21.42-2.18,4.42-5.79,7.5-9.1,10.72-10.05,9.8-20.53,18.66-34.8,19.5-5.18.3-6.56-.82-6.65-6.57.15-4.44-1.21-11.27-4.51-18.61a48.74,48.74,0,0,0-4.19-6.15C796,277.7,816,237.51,759.46,195.71c0,0,28.46,38-8.38,91.37-.29-.12-3.88,2.77-7.3,5-4,2.61-19,7.66-17.22,6.86,9.37-4.13,17.67-12.59,16.81-14.08-1.16-.25-2.53,0-3.54-.68C718.59,268.87,641.9,257.4,601,270.4c-1.24.39-2.61-.07-3.88,0-1.16,1.35,6.37,11.73,15.64,17.81,1.8,1.18-13.34-7-17.22-10.48-3.33-3-6.74-6.71-7.08-6.65-32-64.06,5.41-96.12,5.41-96.12-70,28.91-53.74,76.49-41.71,116.66a49.4,49.4,0,0,0-5.73,5.65c-4.94,7.09-7.62,14.07-8.17,18.8-1,6.07-2.81,7-8.69,5.73C513.16,318.19,502.34,306.62,492,294c-3.41-4.2-7.23-8.31-9.1-13.59-.31-.85.68-9.3-14.71-26.85l-.08-.1c-11-14.86-52.45-16.58-62.22-3.61C404.86,251.26,406.07,253.5,408,253.62ZM818.75,378.74c11.59-8.13,21.6-19.81,29-29.95,3.76-5.17-8.16,33.91,8.57,47.6,12.34,10.09,4.35,36.12-11.37,38.91-16.06,2.85-18.27-9.4-22.89-16.55a7,7,0,0,1,1.68-9l1.85-1.52c5.94-4.89,6.18-14,.44-18.28C822.47,387.24,814.84,381.48,818.75,378.74Zm-44.48-22.22s-36.48-4.08-55.4,44.44C718.87,401,737.42,330.69,774.27,356.52ZM668.38,460s42.37-21.71,54.14-32.18c9.59-8.54,31.45-41.1,31.45-41.1a2,2,0,0,1,2.8.17c8,9.56,47.36,61.23-36.45,73.58,0,0,.14.25-.08.46-5.75,5.75-1.73,50.78-2.17,50.84s-18-37-11-49.91a.56.56,0,0,0-.28-.75c-1.26.16-5.49.39-6.78.54a.82.82,0,0,1-.07.63c-8.62,14.16-2.68,77.27-3.12,77.33-.69.09-19.08-59.92-11.28-76.49a.46.46,0,0,0-.22-.62c-.88.1-4.56.13-5.45.22-.54.06-5.71.42-10.08.74A2,2,0,0,1,668.38,460ZM605,393.56c-12.55-52.65-53.23-54.63-53.23-54.63C596.28,318.6,605,393.56,605,393.56Zm-38.68-20a2.27,2.27,0,0,1,3.11.25s18.6,36.8,27.52,46.77C607.8,432.72,648,459,648,459a2,2,0,0,1-1.94,3.32c-4.36-.72-9.55-1.58-10.1-1.69-.89-.18-4.64-.56-5.52-.74-.06,0-.8.47-.4,1.1,12.53,19.48-24.65,71.86-25.34,71.73-.44-.08,24.29-57.95,10.73-74a1,1,0,0,1,0-1.14c-1.33-.28-5.71-.94-7-1.22a.94.94,0,0,0-.41,1.18c7.44,18.82-20,47.13-20.47,47s14.33-33.1,6.83-48.57a2.41,2.41,0,0,1-.15-1.66C502.3,432.21,555.88,382.41,566.34,373.59Zm-99.43-56.44c7.26,12.53,17.36,27.1,29.84,37.92,4.17,3.62,3.61,9.91-1.05,12.22-7.58,3.76-8.85,13.69-2.58,19.9l1.94,1.92a7.14,7.14,0,0,1,.46,10c-6.72,7.13-20.86,18.43-40.26,13.89-28-6.57-30.9-33.32-7.3-44.83S463.19,310.72,466.91,317.15Z" transform="translate(0.69 1140.69)"/></g></svg>