<svg xmlns="http://www.w3.org/2000/svg" viewBox="0 0 1002 2137"><defs><style>.cls-1{fill:none;stroke:#000;stroke-miterlimit:10;stroke-width:2px;}</style></defs><g id="base"><rect class="cls-1" x="1" y="1" width="1000" height="1000"/></g><g id="Newtapede"><ellipse cx="749.27" cy="367.85" rx="4.21" ry="2.5" transform="translate(93.75 2024.4) rotate(-64.32)"/><ellipse cx="688.15" cy="368.81" rx="2.32" ry="3.9" transform="translate(-91.53 1485.24) rotate(-26.41)"/><path d="M836.77,207.75s-3.78,14.8-3,27.27A87.12,87.12,0,0,0,840,261.77a81.25,81.25,0,0,0-3.18-54Z" transform="translate(0.69 1140.69)"/><path d="M586.45,213.14s-4,14.74-3.49,27.21a86.85,86.85,0,0,0,5.78,26.85,81,81,0,0,0-2.29-54.06Z" transform="translate(0.69 1140.69)"/><path d="M186.5,686.11v0a.07.07,0,0,1,0,.05Z" transform="translate(0.69 1140.69)"/><path d="M991.15,607c-1.24-4.59-5-6.77-10.64-6.13-10.21,1.13-11.27,12.4-20.12,16.24-27.5,10.19-23.47-28.55-2.51-34.8,17-9.75-4.56-28.79-14.59-13.6-3.93,14-5.44,28-20.94,35.87-11.61,6.54-16.39-5.94-14.18-15-.85-21.63-40.2-9-21.33,7.49,39.42,16.5,15.72,39.74-8.38,56-31.1,18.6-1.39-41.63-.34-52,1.07-5.79-3.1-9.87-9.75-10.43-23.1-2.91-36.51,23.61-57.79,24-.62-1.11-1.37-2.15-2.05-3.22l0,0c-16.88-11.49-8.83-32-3.32-49.22-10,6.61-22.72,7.31-34.1,4,1.17-3.6,44.32,3.75,35.43-23.22-10.22,9.81-25.64,9.65-38.63,6-3.57-3.56,28.1,3.23,38.16-10.44a47.68,47.68,0,0,0-2.83-11.81C794,539.56,773,542.37,759.8,534c10.85-.88,32.33,5.32,41.84-11.13-5.09-10.67-8.86-25.61-4.66-36.95-6.18-5.31-14.26-7.43-20.65-12.36-12.88-12.55-16.56-16.79,3.84-2,10.82,6.84,23.78,11.73,34.44,17.93,15.43,11,32.74,28.84,52.52,15.4,27-16.62,31.62-50.65,54.23-71.05a265,265,0,0,1,55-34.67c8-6.84-4.86-17.1-11.52-10-7.59,11.11-12.71,22.94-29.07,23.7-6.53.79-10.88-2.14-11.3-7.89-2.25-23.54,19.48-29.7,16.13-43-4.16-13.23-24.11-1.82-19.88,9.11,7.2,14.47-11.06,55.17-23.42,26.11-1.74-4.87.2-9.49,1.89-14.12C903,374.58,888.74,367,882.55,373c-3.86,3.25-3.18,9.3.73,13.15,9.37,9,20.39,35.84,4.62,41.93-9.51,6.23-22.38-14.51-28.1-.84-1.78,8.45,9.31,7.13,14.83,6.33,37.82-1.31,7.76,40.53-8.45,50.72-21.52,12-34-20.2-51.77-27.61-17.32-7.6-20.81-27.45-39.19-31.14,2.4-2.24,8.56-4.94,10.31-7.92,54.45-8,65.66-55.1,83.38-97A86.54,86.54,0,0,0,878.75,276c2.64-36.61,7.72-85.4-46.65-81.08-55.19-2.35-87.68,58-30.12,83.45-31.75-4.17-42.42-41.07-25.34-63.78-8.29-1.22-12-2.52-20.22-3.1,2.75-5.54,14.17-33.72,16.41-41.76,130.64-232,36.4-100.08-24.64,42a329.33,329.33,0,0,0-66.81,2.87c-22-63.28-65.71-117.27-95.3-176.75,1.53,25.86,20.17,47.31,31.59,70.23,20.87,33.7,40.88,70.36,54.65,108-7.13,1.22-14.25,2.7-21.36,4.36,12.72,15.76,7,41.19-11,52.56,32-26.35,6.39-72-31.49-72.53-19.08-.09-44-2.24-55.34,15.47-11,13.92-7.44,29.06-5.12,44.61-4.47,30.38,6.27,59.22,23.32,84.58,2.24,3.71,18,44.55,40.63,58.73,23.22,21,33.74,13.53,60.68,22.44-24-2.3-30.58,10.72-37.13,31.11-12.3,9.17-25.92,17.28-36,28.64-11.71,14.76-27.51,11.5-38.12-2.42-12.45-13.93-29.76-41.85,2.51-41.16,5.52.81,16.6,2.13,14.82-6.32-1.24-7.1-10.79-4.81-14.71-1.2-28.5,14.68-23.73-28.26-8.77-39.9,14.5-17-20.27-21.35-15.93-3,7.1,9.56-2.5,32.71-14.9,21.09-16.94-19.45,3-39.66-14.53-47.47-11.8-4.59-16.62,11.48-8.34,17.67,9.85,8,22.64,39.08,1.19,38.5-16.33-.75-21.5-12.61-29.07-23.71-6.62-7.08-19.6,3.14-11.51,10,24.4,12.72,51.84,26.23,67.31,49.49,57.42,103.47,61.21,51.66,141.68,14.7-5.95,9.72-18,14.28-27.9,19.66-1.51.76,1.75.32.19,1.11,6.57,12,4,10.62,12.12,23,2.49,7.26,1.94,7.38.52,12.5,7.75,7.07,25.17,6.5,35.23,7.56,4.25-.22-.48,3.46-11.78,3.46-5.71-.36-20.49-2-24.69-7.09-1,2.81-3.26,10.85-3.36,11.36,5.66,4.9,13.37,6.38,20.55,8,3.46.68,18.52.48,16.79,2.16-10.74,4.62-28,.18-37.88-5.83a27.77,27.77,0,0,0,2.94,13.9c10.32,3.09,21,7.34,32,6.74,3-.38-2.6,5-13.57,2.33-5.42-1.33-10.83-2.71-16.14-4.42,8.33,17.17,6.16,38.1-7.95,51.71-20.78-3.11-34.49-25.49-57-22.65-6.62.78-10.61,5-9.29,10.75,3.48,17.61,17.79,33.15,15.19,51.67-1.81,15.14-44.65-21.13-43.66-28.85-8.53-22.56,39.26-24.26,19.14-43.49-6.72-5.24-22.86.22-21.2,10.14,2.61,9-1.64,21.63-13.52,15.48-15.81-7.29-17.94-21.25-22.46-35.15-10.57-14.79-31.45,4.83-14,14.07,21.2,5.53,26.92,44.13-1,34.87-9-3.55-10.55-14.77-20.81-15.57-5.61-.45-9.32,1.85-10.37,6.48-3,14.11,15.16,10,23.61,12.63,12.69,4.26,25.26,8.82,37.75,13.5,16.41,5.13,123.8,105.43,124.82,58.23-4-8.85-43.39-71.48-9-44.87A83.34,83.34,0,0,1,662.4,669h0c7.24,7.85,14.43,15.68,21.48,23.66,1.64,1.91-31.82-24.65-36.39-29.58-.65,1-6.06,0,2.89,15.36,30,35.11-3.27,35.4,3.17,80.27-9.95,3.74-59.45,28-81.74,53.25-36.44-8.66-51.75-18.07-92,5.19-12.76-10.5-44.4-27.05-75.1-24.71l-38.07-22c-5-38.25-52.55-49.72-60.57-87.92-4.4-40.4.49-42.31-30-75.24-33.76-64.69,10.15-58.55-48.34-130.74-5.76-10.5,2-38,1.56-52.57-.66-22.62-12.15-36.8-14.93-52.13-2.57-14.21-2.8-43.49.62-57.57,2.93-9.32,6.38-15.41,6.57-24.07,1.46-11.8-7.84-30.47-12.39-47.25-6.55-19.59,3.74-48.3,3.94-65.63-1.5-11.58-11.84-43.49-23.29-63.41C160.14,76,196.4,34,169.79,12.62l-1.15.48c2.72,5.57,7.87,11.48,5.17,17.31-9.33,21-6,47.71-16.59,67.66-3.59-1.86-6.92-4.4-5.93-8.78,2.4-26.67-13-55.52,3-80-21.41,3.67-14.71,45.37-20,61.9-5,23.26-5.45,48.09-17.21,69,5.15,4.37,18,10.89,14.83,18.12-48.06-45.41-56.68-30.19-82,21-14.22,23.9-29.3,9.82-35.84,12.87-7.68-.9-10.71,13.28-1.9,12.83,1.88-.36,4.16-.45,5.22-2.28,7.35-5,17.46-7.64,20.4,4.58l.12-.08c.27,1.73-19,17.92-21.89,19-3.87,1.2-3.56,9.74-3.3,13.39-2.9,4.71-3.33,16-1,20.24-1.4,13.57,8.45.69,13.13-1.82.55.11,11.59-4.76,13.06-5.74a13.38,13.38,0,0,1-.28,5.21l-.17.16c-2.46,8.86-11,20.91-19.36,23.64-5.66.8-11.33,17.75-5,20.17,8.54,3.24,12.51-25.51,29.57-34.34,32.13-18.91,33.06-91.29,70.19-47.82-10.13,43.13,21.2,68.2,19.38,82.41-5.23,9.17-4,24.8-4,37.19,14.8,2.89,31.13,8.84,42.6,18.51h0c3.33,2.51,13.7,12,7.27,9.62-19.85-13.84-40.91-27-66.14-24.87-11.47,2.14-16.77,15.46-24.86,22.77-25.56,28.8-20.59,57.9-70,45.12-6.75.33-10,21.91-.52,19.56,9.93-6,19.91-17.72,29.83-6.41-9.5,12.3-36.33,6.79-37.39,16.64-1.16,13.69-.64,16.64,12.43,5.82,8-5.76,20.22-14.26,27.81-16.9.85,4.77-1,10.07-4,14l.7-.47c-12.85,25.51-28.6,19.16-34.41,35.5-6.33,16.88,10.4,20.19,15.88,3.72,11-30.63,34.48-27.67,46.26-56.3,19.27-16.26,24.66-58.86,55.31-57,.17,13.73,5,40.65,8.42,57.8C93,410.62,88.06,436.4,70.34,467.72,65.45,484.62,49,489,44,505.16c-8.5,12.9-37.42,3.7-33.54,20.16,1.27,9.73,14.29-6.4,18.2-7.29.76.14,16.14-6.16,18.19-7.43-1.16,25.13-38.68,16-35,30.92C10,555,15,551.16,22.23,542.24a113.69,113.69,0,0,1,21.36-18.09c-12.76,25.58-28.25,19.16-34,35.49-6.25,16.82,10.22,20.25,15.67,3.72,7.26-19.56,21.09-28.5,34.38-38,3.83-2.92,10.46-16.45,17.29-30.4A225.38,225.38,0,0,0,94.21,473c11.69-18.74,26.19-33.59,46.8-14.14,1.16,6.76-4.22,59.43,9.15,78.9,18.57,27.06,14.52,73.82,14.86,74,13.81,3.84,37.67,7,41.95,20.82-12-9.3-25.57-13.06-40.21-16.52-14.17-9.6-31.41-17.75-49.24-15.69C76.37,624.14,76.19,676,17.47,661c-3.85.75-6.52,4.94-6.71,9.55,1.54,20.51,25-14.84,36.83,1.08,11.47,12.24-4.33,13.74-14.23,16.24-8.31,4.53-25-1.37-25.35,10.55-.68,3-.84,7.14,1.29,7.48,2.52.4,5.23-3.66,9.62-6.88,6.82-6.58,20.47-7.38,28.55-11.39-12.53,20.33-29.2,15.63-35.75,29.29-6.51,15,11.61,15.77,16.49,3.07,7.58-16.2,22.82-23.87,36.19-31.38C79,670,102.5,643,125.34,629.52c16.9.49,28.83,13.5,43.39,20.39,11.29,6.55,18.72,30.15,17.76,36.24v0l0,.09a.07.07,0,0,0,0-.05c0,.11-.05.23-.06.34-24.17-9.47-60.64-26.68-77.52,2.18-33.37,33.18-41.17,67.79-93.28,70.92-3.13.75-3.36,3.3-4,7.87-1.05,6.39,6.08,2.07,9.21,0,2.45-1.66,11.58-3.76,13.18-4.26.56.27,13.42-2.5,15.21-3.26A17.43,17.43,0,0,1,47.75,766c-8.41,5.94-23.55,8.53-33,9.65.23.34-3.49-1-3.9.2-1.14,3.23-2,11.77,1.86,9,8.86-8,16.25-5.42,27.86-9-5.44,5.49-12.59,12.92-19,13-9.2.19-14.88,21.82-8.73,26.69,3.05,2.4,7.36-5.28,10.69-11.59,7.18-13.57,18.6-20.85,27.44-25.21,1-.5,6.12-1.05,8.92-6.36C70.36,760,99.35,732.85,113,723.07c8.87-8.3,17-19.3,30.28-20.44,107,29.12,35.78,83,167,141.06,4.92-4.29,9.43-12,13.33-17.39,2.22-3.07,13.7-6.06,10.79-4.13-5.39,3.79-12.73,17.39-14.53,21.13-12.31,14-73.2,35.17-61.46,64.54,14.27,25,37.11,37.74,32.21,76.6-4.51,6.61,8,11.59,11.36,6.9,3.8-4-1.1-7.45-3-10.77-.75-3.74-1.17-9.14-1.36-10.35.36-.49-.4-13.26-.88-15.1a18.57,18.57,0,0,1,5.94,2.39c4.2,8.93,3.27,28.34,2.82,29.12h0c-3.71,6.2,7.48,10.79,9.45,4.91,1.26-2.57-1.08-17.63-7.07-29.89,6.32,6.51,14.75,16.78,13.79,24.62-1.26,8.88,14,12.91,19.91,7.81,4.76-5.5-21.14-13.82-25.47-37.61-1.56-12.4-10.89-9.82-24.43-25.83C264.39,901.69,328.5,884.79,343,872c3.59,2.83,15.49,7,19.82,8.75-7.18,14.46-3.52,43.87-.17,49.64,7.89,23.32-26.95,42.19-18.19,60.21,4.79,3.12,15.63,1,16.17-1.77.35-1.78-3.13-6.38-4-8.85-3.21-8.65,12.39-31.17,12.73-28.95.29,1.9,1.42,18.3,1.41,18.32-1.88,8.85-11.69,28.53,9.25,22.3,10.87-.18-.54-10-1.17-13.44.44-.34.2-21.24,0-23,13.78,6.48,15.54,22.08,12.12,33.65-2.62,4.13,11.08,4.59,14.14,1.77,3.38-1.44-5.42-7-4-14.17,3.07-45.93-44.11-34.09-25.89-95.32,1.68-7.41,2.14-15.27,8-21,4.91-5.14,26.66-24.23,28.4-23.5-14.93,23.78-27.23,20.39-32.63,50.41h0c-1.74,10.68-5.17,25.22-.13,32.71,4.56,6.46,14.14,23,34.34,31.87,3.88,1.7,4,7.51,7.15,10.12,2.29,9.12,0,16.15-3.68,24.27-.46,7.89,21.62,4.51,20.77,2.8-.76-10.81-18.89-15.21-4.47-23.92,6.22,2.84,10.18,12.93,10.9,19.11-3.31,7.19,8.76,10.29,13.93,8.12,4.16-2.17-10.07-14.39-10.73-16,.17-.52-6.48-11.52-7.84-13,13.08.2,24.15,9.42,29.95,20.47.72,2.63,3.34,7.15,7.95,8.67,5.38,1.77,14.72,1.91,15.76-1.81.9-3.17-6.56-7.61-9.19-9.69-8.89-7-17.16-15.46-27.78-26.26-4.36-3.83-36.66-11.68-52.82-36.47-1.82-2.79,3.92-11.27,4.06-19.9,27.85,10.26,56,23.74,80.61,36.74,13.12,8,11.06,34.45,13.78,46.18.66,2.83,3.95,8.45,7,9.4,2.65.83,18.15-1.65,7-8.35-8.21-5.55-8-10.36-1-14.56.32-.19,3.21,2.37,4.92,4,5.06,5.62,3.7,10.16,6.3,16.26,1.64,2.49,4.53,2.32,9.75,2.21,10.1-.75-6.3-9.38-7.45-12.13.15-.5-6.29-10.76-7.6-12.14,1.81-.18,22.06,5.57,24.73,7,6.92,3.71,13.16,7.49,14.53,11.85,1.5,5.6,23.72,10.34,27.18,5.37a26.35,26.35,0,0,0,8.71,1.74c28.71-1.51-19-17,2.45-29.44,16,9.89,4.07,31.74,22.79,28.41,11-1.09-6.89-11.82-8.09-15.33.17-.63-6.81-13.59-8.24-15.33,15.57.08,36.83,11.4,42.75,23.74.9,3.35,6.16,6.18,13.14,8.23,17.8,5.55,24.7-7.45,4.56-13-51.45-14.52-50.63-60.43-83.51-75.44h0c-32.12-17.9,11.31-41.69,24.83-56,2.37-2.49-3.82,11-5.34,12.24-51.86,39.81-12.3,30.2,11.56,63.06,63.82,5.26,135.54-14,154.2-73.94,1.17-1-48.32-14.65-18.54-11.85,25.93,4.59,49.78,38.09,69.91,49.59,24.54,15.51,10,26.68-10.28,34.62-27.77,23.9-35.57,49.56-75.45,59.6-8.58,2.05-14.28,6.43-12.25,9.55,3.09,6,28.37.72,29.94-5.47,3.75-11.1,32-18.89,42.81-20.57-1.43,1.51-8.45,12.69-8.28,13.24-1.3,3.1-19.1,12.33-8.13,13.23,18.54,2.92,7.09-16.3,22.87-24.54,21.39,10.85-26.35,24,2.36,25.38,17-1.64,14.3-5,9.42-15.89.37-4.19,3.45-38.4,17.43-45.12,18.22-8.33,41.55-30.09,22.18-48.46-14.7-9.91-60.17-53.54-59.51-83.56.84-15.67,17-20.3,17.94-41.83.83-19.55-6.06-31.88-8.08-42.5-3.33-17.56,6.06-26.57,4-46-7.85,8.49-27,32.72-37.6,32.35,11.81-5.15,76.06-90.54,58.62-38.26-5.16,11.89-12.52,23-17.35,35.05,5.24,46,103.94-54.73,122.22-62.31,12.3-5.1,24.66-10.07,37.16-14.75C976.48,617.44,994.74,621,991.15,607Zm-161.3-337.3c-18.88-13.65-28.17-44.08-13.34-63-14.58,26.13,1.82,66.89,34.9,68.34C843.16,276.82,836.15,274.14,829.85,269.72Zm28.87-68.42c33.54,16.92,22.25,84-20,69C798.84,254.33,808.07,175.42,858.72,201.3Zm-39.94-1.88c-25.62,20.42-13.64,69.51,20.42,78.6C804.11,279,788.76,211.69,818.78,199.42ZM566.56,276.6c-25.69-14-26.33-66.31,9.62-73C631.32,195.48,616.56,300.61,566.56,276.6Zm47.22-38.52c-.59-10.75-3.5-20.76-11-29.65,23.61,21.11,14.74,72.71-20.94,74.27C604.68,279,614.84,257.15,613.78,238.08Zm9.55,7.54c-2,22.86-17.26,37.43-28.16,38,32.35-16,34.56-60.82,5.1-80.33C613.87,206.74,624.9,227.89,623.33,245.62ZM17.43,237.8a94.47,94.47,0,0,1,18.24-19.07C32.08,226,26.35,235.06,20,238.39,19.13,238.18,18.29,237.94,17.43,237.8Zm14.24,13.89c-4,2.11-7.12,3.25-10.36,3.44,1.42-3.12,2.24-6.86,3.78-9.84C29,243.41,32.64,244.46,36,248,36.19,248.26,33.45,250.42,31.67,251.69Zm79.82-60.31c-36.74-36.33-50.37,30.56-72.63,47.81-3.68.4-7.36.68-11,.95,5.86-9.57,12.3-14.34,19.39-20.4,5.53-5,19.14-46.22,25.81-53.73,13.87-15.49,20.8-15.34,34.52-.66,4.33,6.16,5.64,24.87,6.65,28.36C113.31,192.92,112.4,192.15,111.49,191.38Zm474.72,782c-.06,3.36-3.21,6.39-3.8,9.84-37-9.41-47.08-27.42-71.12-53.18,14-.18,31-1.93,43.27-8.45-10.15-10.64-21.18-24.16-20.4-39.53h0c-.63-14.13,18.29-45.77,32.48-43.28-13.88,12.93-30.21,29.67-26.24,49.93C552.54,932.36,599.18,910.65,586.21,973.37ZM691.36,374.76c-5,2.47-11.46-10.93-6.3-13.07C690.06,359.22,696.52,372.62,691.36,374.76Zm62.1-4.8c-3.91,8.57-12,5-7.9-3.47C749.46,357.92,757.51,361.46,753.46,370Z" transform="translate(0.69 1140.69)"/><path d="M33.14,218.53" transform="translate(0.69 1140.69)"/></g></svg>