<svg xmlns="http://www.w3.org/2000/svg" viewBox="0 0 1002 2137"><defs><style>.cls-1{fill:none;stroke:#000;stroke-miterlimit:10;stroke-width:2px;}</style></defs><g id="base"><rect class="cls-1" x="1" y="1" width="1000" height="1000"/></g><g id="Scalatto"><path d="M370.17,27.62c-1.11-.59-2.24-1.14-3.37-1.68a6.18,6.18,0,0,0-.88-1.45c-5.67-7-14.91-10.46-23.29-12.92-1.86-.54-3.75-1-5.64-1.44C315,2.7,290.66,2.2,267.76,5c-9.14,1.1-18,3.69-26.78,6.52q-5.16,1.15-10.22,2.66c-14.14,4.23-26,10.39-40.9,10.62a190.41,190.41,0,0,1-23.47-.94c-6.49-.65-27.55-6.62-27.4-3.84-1.7,5.72,17.92,15.89,21,17,7.55,2.72,16,3.75,24,4.41a120,120,0,0,0,15.52.27c-14.63,7.86-28.6,16.85-42.85,25.39-25,15-62.54,16.16-73.39,15-.4-.15-24.4-3.79-7,8.4A36.85,36.85,0,0,0,80.44,93a125.64,125.64,0,0,0,94.36-3.54c16-7.22,30.75-16.8,46.92-23.74a280.26,280.26,0,0,1,32.61-11.62c-32.67,23.38-59,55.35-71,78.61-2.49,4.81-9.39,11.27-5.63,19.72,1.66,3.74,4,6.3,9.39,4.69-12.3,12.78-37.55,53.51-5.63,46.42-.11.27-.19.55-.29.82C157.4,221,155.3,255.88,175.78,251c-.94,5.63-4.69,9.39-10.33,15-12.68,12.68-16.89,34.73,3.76,36.61-.47,1.52-39.43,34.73-22.53,47.88-6,4.54-37.94,34.91-17.87,30,42.41-2.28,62.11-49.33,69.13-86.11,22.37-91,45.68-203.47,144.18-239.54A256.81,256.81,0,0,0,369,37.75a11.23,11.23,0,0,0,3.26-2.87A5.05,5.05,0,0,0,370.17,27.62Z" transform="translate(0.69 1140.69)"/><path d="M341.21,709c-2.87-28.87-13.95-59.15-35.48-79.32-3.48,15.9-16.36,32.07-19.27,49.25,4.2-2.28,15-2.07,19.8-3.58,5.64-1.88-19.37,18.38-23.86,19.47-5,19.54-10.14,40-11.29,59.94,12.6,3.31,28,1,38.38-3.8,8.2-3.81-23.13,21.13-38.47,18.18.79,16,4.82,31.44,14.22,45.69,4.63,3.9,5.92,5.14,6.49,5.47.22.14,12.32-10.56,24.28-29.46C327.46,772.71,346,741,341.21,709Z" transform="translate(0.69 1140.69)"/><path d="M433.6,666.45c13.6-27.09,24-46,25-66.14-.57-3.27-.52-6.55-.77-9.9a58.87,58.87,0,0,0-2.52-11.72c-1-3.61-2.07-7.22-3.16-10.82A154.37,154.37,0,0,0,439.06,544c-7.5-11.85-14.19-25.08-22.49-36.78-.9-2.8-2.64-5.49-3.9-8-2.11-4.14-4.19-8.4-7.11-12-1.9-2.37-4.28-6.39-7-7.84-3.17-1.71-8.51,1.61-11.7,2.37a3.89,3.89,0,0,0-1.35.59c-30.73,9.9-70.89,4.06-95.79,25.37a6.12,6.12,0,0,1,.1.86,19.05,19.05,0,0,1-.44,4.63,4.34,4.34,0,0,1-.38,2.71c-1.27,8.7-.09,17.52.86,26.19a163,163,0,0,0,4.56,25.39c2.32,8.47,6,16.48,8.77,24.79a157.4,157.4,0,0,1,6.37,25c2.67,2.75,5.87,5.27,8.23,8.08a87.4,87.4,0,0,1,13.87,18.89C351.48,679,361.89,724.53,344.07,762c-6.36,13.25-20.66,37.1-23.9,42-8.28,11.53-11.3,20.4-23.16,28.57,4.94,4.16,5.42,11.81,8,18.28,0,19.86,4.34,43.41-14.95,54.29-11.22,7-26.27,9.45-32.72,22.4-3.49,6.62-8.88,14.86-7.06,22.7,1.39,7.45,4.33,9.84,12.08,10-1.78,7.12,1.5,12.1,8.75,13.55,8.42,2.51,15.14-2.47,23.16-.92,4.53,10.55,21.5,6.75,30,3.64a84.88,84.88,0,0,0,20.95-13.1,76.55,76.55,0,0,0,17.79-9.55c19.47-13.77,7.22-30,14.69-45.4l-.17-.32c22.05-17.85,20.59-48.76,41.31-66.89-6.35-25.28-14.92-57.26-16-76.86C401.43,738.75,416.09,702.53,433.6,666.45Z" transform="translate(0.69 1140.69)"/><path d="M393.55,468.73c-9.93-14.37-32.14-46.13-34.12-49.19a28.8,28.8,0,0,1-7,2.95c-13.5,4.83-28.17.31-41.92,3.23-28.68,3.15-61.38,21.88-82.25,46.85l-2,.85c-12.45,5.3-23.3,12-32.53,22C183.43,506.62,174.29,521.15,179,537c0,.13.08.25.12.38,0,3.57-7.07,34.72,9.16,49.46,1.36,1.23,7.41,2.85,7.23,1.22-1.87-17.84-1.87-30,3.76-35.68.9,7.25-.84,23.3,9.39,32.86,1.66,1.55,9.5,6.68,9.38,4.69-.94-16-.33-15.68.94-26.28,1.36-11.33,4.7-11.27,6.57-17.84.13,0,.07-13.83.94-14.08.34-.1,3.28,13.39,3.68,13.27a47.31,47.31,0,0,0,6.29-2.33c7.14-3.16,14.36-6.71,20.42-11.68s9.43-11.43,13.95-17.74a8.7,8.7,0,0,1,.75-.93A62.52,62.52,0,0,1,280.67,501a4.69,4.69,0,0,1,3.76-1.5c24.05-19,73.91-19.59,104.32-27.74a31,31,0,0,1,5.5-2C393.85,469.74,393.79,469.08,393.55,468.73Z" transform="translate(0.69 1140.69)"/><path d="M535.94,889.74c-12.34-6.66-26-6-39.62-5.81-17.33.28-33.6-3.55-49.52-10.37,2.55,15.92-9.21,24.19-20.54,31.82C419,911,412.59,916.57,404,920c-15.56,7.15-15.31,32.61-15.56,47.52-1.73,15.21,13.65,25.05,25.79,14.72.18-.16,3.57-10.16,3.75-10.33,0,.3-2.17,10.4-2.12,10.69,1,6.52,7.73,11.2,13.08,11.11,9.95,4.66,19.44-2.15,27.27-8.94h.68c5.14,18.35,30.4,12.32,38-1,3.2-3.44,9.56-20.17,13.17-23.08C532.5,941,520.91,939.19,525,927.82c3.44-9.59,9-22.72,19.39-33.71C541.47,892.61,538.6,891.18,535.94,889.74Z" transform="translate(0.69 1140.69)"/><path d="M689.09,717.27l-.05-.14c-35.28,5.47-112.16,5.24-148-28,40.83,15,103.12,21.26,151,15.33,16-3.76,20.65-21.59,20.37-36.85-.59-32.4-3.87-52.95-19.39-81.66-2.27-6.92-10.59-.08-15.16.64-43.21,14.48-81.53,28.64-126.6,14.24,15.81,1.72,32.34-3.53,47.79-6a399.07,399.07,0,0,0,73.28-19c47.87-17.83,27.62-54.59,1.48-95.32-16.21-31.71-36.5,26.72-132.45,17,29.12-3,59-15.87,86.72-26.53,9.71-3.56,18-7.82,28.35-14.15C682.33,441.06,628,372,611.09,366.4c-4-4.5-9.85-6.08-14.76-2.2-22.22,15.12-108.8,43.16-111.71,43.63,34.47-14.09,69.81-31.82,99.51-54.51-.08-.08,16-11.26,1.87-28.16s-31.11-32-51.3-40.09c-29.46,19.12-107,33.81-98.41,30.84,25.8-9,50.7-19.38,74.25-32.72,15.39-8.72,18.2-16.23,3.6-25.91-8.22-5.45-53.65-34.57-61.7-27.33-16.33,9.52-49.94,18-65.83,21.74,16.82-5.54,32.31-14.62,47.21-24.07,8-4.62,25.15-14.71,10.88-21.4-25.11-11.78-30.87-14.74-58.82-15.35a18.08,18.08,0,0,0-2.54-1.25c-13.36,5.95-24.55,15.73-36,24.64-30.12,19-31.24,53.91-23.82,85.46,6.64,24.23,11.82,49.39,22.45,72.2,4.72,8.13,71.18,118.43,71.18,118.43,21.08,35.44,54,70.85,50.52,114.65l-.29.26c-6.38,56.61-49.41,102-51.76,149.6-1,20.88,1.65,49.29,12.26,82.72.11,0,4.46,14.33,11.68,19.84,8.26,6.29,14.74,8.84,23.47,11.9,31.36,10.94,60.23-3.17,90,18.66,30,24.56,47.49,27.87,79.8,4.78,7.42-2,46.07-55.13,31.63-56.16C589.93,844,547.74,829.1,509.31,788c49.58,41.77,97,39.34,158.36,37.53,31.92-.94,36.94-43.57,38.61-58.4.38-15.67.89-33.32-4.2-48.34C699.67,713.65,693.23,716.68,689.09,717.27Z" transform="translate(0.69 1140.69)"/><path d="M519.81,114.31c0-1.89-1.57-5.22-3-7-4.21-5.35-10.61-8.87-16.65-12-12.39-5.52-28.65-28.4-114-55.95-1-.31-1.83-.62-2.61-.84-25.93,23.09-60.15,33-87.42,53.8-93.6,68.55-59.7,295.13-171,297.69-1.81,1.05-3.48,2-5.06,2.85-1.32,1.72-2.72,3.36-4.19,4.94q-8.07,6.6-16.12,13.22c-4.39,3.62-8.54,7.7-12.93,11.4-2.48.14-5.23,1.31-7.37,1.93-7.23,2.07-14.38,4.82-20.43,9.39-7.75,5.87-14.82,16.09-13.66,25.81a21.89,21.89,0,0,0,.14,5.06,60.92,60.92,0,0,0-3,23.79c.74,8.44,1.51,19.53,6.57,26.28C51.87,518.54,56.82,499,57.5,496c4.77-20.66,10-19.72,10.33-19.71S64.84,491.59,65,496c.34,9,1.45,14.5,6.57,22.53.81,1.26,4.25-14.77,6.57-21.59,2.59-7.61,16.57-37.08,17.45-33.16,1.33,5.94-5.25,15-5.24,15.32,2.72-1,18.5-6.8,21.23-7.59,9.56-5.91,19.61-15.58,21.17-26.44h-.06c.11-.53.2-1.07.27-1.61a4.69,4.69,0,0,0-.22-2.3c.58-.23,1.16-.46,1.76-.68a32.47,32.47,0,0,1,4.86-2.45c2.35-1.08,4.58-2.29,7-3.14,9.69-5,25.42-10.78,28-12,14.43-6.92,27.81-15.79,41.91-23,8.93-9.3,20.54-6.25,24.64,5.74,6.93,9.28,13.43,18.47,16.08,29.8a177.16,177.16,0,0,1,57.49-20.23c11.36-1.31,24,1.83,35-1.89l.3-.13.05,0a32.54,32.54,0,0,1,3.07-1.7l.25-.11-.52-.8c-2.79-4.63-4-9.82-5.5-14.92-3.32-10.93-11.32-19.84-15.4-30.51s-6.36-22-9.59-32.85c-3.32-11.11-6.9-22.34-8.95-33.77-3.09-17.2-5-36.06-1-53.26,4.16-17.93,17.72-30.08,31.84-40.7,7.16-5.39,14.12-11.39,21.55-16.35a65.84,65.84,0,0,1,6.67-3.84c-6.17-7.29-17.35-11.29-15.71-22.55,1.29-11.53,12.62-11.77,21.68-11.45,21.3,4,42.13-.91,62.61-6.63,16.49-3.1,31,8.3,47.09,8,8.16-1,17.89-6.22,19.64-14.68C514,131.39,519.69,120.77,519.81,114.31ZM368.72,74.7s6.3-24.81,28.47-1.2C397.19,73.5,384.51,91.12,368.72,74.7Z" transform="translate(0.69 1140.69)"/><path d="M923.68,358.23C886.84,263,748.77,207.47,718.31,334c-5.45,20.28,2,22.17,8.5,23.1s13.45-8.42,16.9-20.65c5.5-19.49,37.55-62.9,84.49-39.43,62.07,31,75.74,108,50.69,188.68a.61.61,0,0,0,.68.49c7.77-.49,16.35,7.52,16.21,8-.08.27-11.26-4.69-16.83-3.67a2.28,2.28,0,0,1-1.27-.17Q874,502,869.5,513.85a.81.81,0,0,0,.86.49c8.53-.49,19.93,10.41,19.79,10.77s-14.08-6.57-22-6.16a2.41,2.41,0,0,1-.74-.13c-3.72,9.79-7.76,19.56-12,29.25a.53.53,0,0,0,.53.35c16.37.16,26.84,15.77,26.69,16.12s-17.83-11.27-28.42-11.36a1.72,1.72,0,0,1-.67-.19c-5,11.36-10.37,22.57-15.83,33.5a.7.7,0,0,0,.68.83c17-.25,32.56,23.13,32,24.15-.44.86-23.47-19.71-35-18.55-.57.06-.86-.2-.93-.11-11,13-18.54,24.3-19.89,37.15,0,.2-.25,1.42.87,1.78,22.07,7,27.49,33.83,26.77,35.12-.93,1.63-16.85-27.46-32-26.64-6.53.35-25.31,27.58-23.43,32.27.08.2,1.2,3.21,2.11,4,29.81,26,11.1,58.56,10.1,59.83s9.38-46.93-19.72-55.38c-14.33-4.16-42.38,20.59-41.82,21,24,17.5,4.41,88.38,3.33,88.84-2.56,1.09,11.7-73.73-12.08-85.41-5.75-2.83-12.28,1.86-12.32,1.86-7.51.94-3.13,9.58-.94,17.84,8.45,31.92,0,103.26-29.1,110.77-4.06,1-14.08,33.79-35.67,53.51-.79.71,16-4.25,17.36-4.72,191-64.75,246.71-218.75,261.32-296.61C943.65,512.39,951.89,431.21,923.68,358.23Z" transform="translate(0.69 1140.69)"/></g></svg>