<svg xmlns="http://www.w3.org/2000/svg" viewBox="0 0 1002 2138"><defs><style>.cls-1{fill:none;stroke:#000;stroke-miterlimit:10;stroke-width:2px;}</style></defs><g id="base"><rect class="cls-1" x="1" y="1" width="1000" height="1000"/></g><g id="Smokat"><path d="M384.28,691.43c.22-.1.49,0,0,0Z" transform="translate(0.69 1140.69)"/><path d="M789.45,746.47c-20,22.26-27.77,17.68-37,10-14.14-11.83-22.58,17.28-40.61,19.71-38.94,5.26-67.75-9-87.37-42.31,7.6-6.83,15.34-13.48,22.73-20.49,18.21-17.27,36.36-34.59,49.31-56.37,9.54-16.06,8.87-25.91-3.45-40.24-13.24-15.39-31.09-22.68-50-29a72.47,72.47,0,0,0-9.6-2.46c-18.38-.79-35.47,5.72-50.28,17.46-7.39,5.87-14.39,12.2-21.72,18.14q-5.18,5.29-10.38,10.55c-1,1.36-2,2.73-3,4.13s-2,2.69-2.94,4c-.19,2.07.72,4.13,2.55,6.47,11.13,14.25,23,27.56,39.34,34.63-3,7.56-5.58,14.68-8.57,21.62-4.84,11.22-8.83,23-15.19,33.32-10.06,16.35-9.34,27.91,7.6,36.93,18,9.57,37.28,16.78,56.2,24.55,11.58,4.76,22.48,8.92,28.35,21.86,4.48,9.89,15,13.82,26.2,12,8.58-1.43,16.84-4.68,25.42-6.15,6.31-1.08,13.32-2.06,19.23-.39,5.62,1.58,27.41,3,32.91,6.84,3.65-7.86,14.77-7.24,14.4-29.7-.27-16.34-13.88-12.31-19.61-17.92C767.84,777.88,803.09,760.79,789.45,746.47Z" transform="translate(0.69 1140.69)"/><path d="M187.94,460.49l-.3.33-.11-.18Z" transform="translate(0.69 1140.69)"/><path d="M828.33,321.4c-12.41,19-12.76,48.71-41.78,50.13-5,.31-13.85-9.14-9.08-16.11,13.49-11.92,15.21-49.71-7.81-21.95-20.52,20.46-55.38,16.56-70.12,43-1,3.57-10.63-1.37-10.8-1.46-34.33-49.25-71.2-46.28-94.37-55.79C563,303.94,541.23,263.15,559,230.14c-3.82,28.28-5.14,56.71,39.26,81.45,2.19-3-5.59-23.46,4-29,11.07-6.35,13.39,6.32,22.9,15.81,17.39,21.55,51.15,27,58.67-6.06-8-1.23-22.58-6.79-33.48-21.11,18.16-14.32,23.08-12.53,41.78-12.53,12.62-.43,23.42-8.74,16.82-22.6l13.48-5.45c-4-16.82-29.34-24.24-30.15-42.56-3.49-33.77-30.91-51.79-58-66.61-33.73-10-5.35-70.82-49.5-101,22.94,54.59-18.24,65.77-1.93,116.07C567.57,130.3,571.84,104.45,573,91c-35.26,30.86-38.21,64.15-38.49,108.33,0-20.54-15.44-34.25,1.93-72.31-37.23,31.37-24.85,44.52-44.4,100.85-3.86,11.41-40.54,55.18-40.54,97l38.61-47.57c2.84-3.5-3.86,20.93-27,49.47-24.27,29.9-16.39,72,5.79,140.8,5.19,15.65,12.78,11.52,4,37.35-4.42,10.36-12,19.07-23.08,26.47-51,30.46-69.2,84.14-89.89,136.16-30.17,54.92-120.84,30.15-150.23-14.73-13.86-18.64-24.62-57.76-26.55-78.69h0c-.59-36.23,1.87-67,40.91-51.84,21.07,6.07,37.75-14.78,37.85-46.49,2.15-21.6-27.2,4.71-45.71-20.31,2.38-5.51,4.75-1.38,6.8-.55,35.08,20.72,88.88-40.13,49.1-86.78-13.78-15.56-36.28-15-49.49,1.08-3.59,4.38-5.9,8-1.43,14.68,3.89,6.26,11.14,24,6.37,31-6.32-37.94-37.18-55.13-62.84-56.61,25.46-20.12,42,23.72,55,1.06,7.26-11.52,30.79-12.62,42.55-9.81-11.5-59.39-77.65-94.76-106.72-50.45,30.56,4.73,50.69,12.06,41.08,33.33-16.85-12-43.59-35.9-57.92-15.22-1.17-6.65,16.19-32.65,18.59-35.34,21-23.48,34.86-6.08,50.69-8.61-48.94-55.58-139.84,17.22-69.28,123.86-13.17-8.32-30.33-18.86-36.29-37.83-6.55-33.11-19.63.31-24.68,16.48-9.44,65.33,46.06,108,96.08,86.52-7,8-76.28,57.11-17.25,93.83,6.15,3.35,9.26,17.86,9.17,23.66h0c1.51,69.85,38.13,127.63,107.87,143,41.85,9.53,81.33,6.55,110.08-30.94,3.05,19.43,5.74,38.67,9.18,57.77,16.07,77.68-38.09,64.47-38.66,116.48.81,26.76-.61,53-6.37,79.7a63.58,63.58,0,0,0-1.79,10.33,3.85,3.85,0,0,0-1.08,2.9c.35,8.51,1.61,17.45,6.81,24.48a24.59,24.59,0,0,0,9.46,7.94,66,66,0,0,0,12.16,3.73c4.62,1.13,9,2.24,13.85,2,2.16-.13,12.25-.44,14.42-.59s7.5-23.08-3.48-38.29c5.67.47,13,34.12,15.66,36.55s11.59,1.39,14.79,1.31a29.63,29.63,0,0,0,10.52-2.16,22,22,0,0,0,6-4.37c-.06-.18,1.74-26.11-10.44-38.3C449.69,966.3,448.15,986.79,450,989a7.27,7.27,0,0,0,2.78,3.51c1.77,1.22,3.84,1.29,5.89,1.5,1.58.28,3.1.73,4.7.92a14.13,14.13,0,0,0,5.34-.36,5,5,0,0,0,3.5-3.54,6.35,6.35,0,0,0,.12-2c11.24-58.46-25.09-61.26-57.3-67.39-22.82-.9-5.1-40.14-5.57-54.47,13.13-56.94,98.18-40.4,115.79-189.93,5.06-36.66,23.83-67.38,56.63-83,51-27.82,113.62-67.54,116.87-131.54-37.08-9.79-77.59-12.88-106.1-40.69l1.58-.88C625,438.77,660,445.35,694.75,450.32h0c49.53-10.23,125.71-58.22,131.76-109.23C826.94,337.47,837.41,330.35,828.33,321.4ZM674.76,183.76c2.8,7.18,4.08,7.44,6.32,13.17-3.62.65-9.82-5.19-13.31-4.56-3.21-4.16-16.69-15.1-21-20.67C651.62,169.48,670.18,185.86,674.76,183.76Z" transform="translate(0.69 1140.69)"/><path d="M147,478.69s-18.41,27.92-42.09,11-35.23.91-35.8,6.6c0,0,1-49.23,29.09-37.18S99.72,482.75,147,478.69Z" transform="translate(0.69 1140.69)"/><path d="M193.64,548.66s-4.57-18.08,17.43-23.38C211.07,525.28,220.44,540.38,193.64,548.66Z" transform="translate(0.69 1140.69)"/><path d="M262,464.86s2-21.2,23.34-20.14C285.31,444.72,288.58,464.14,262,464.86Z" transform="translate(0.69 1140.69)"/><path d="M69.32,428.18c-18.55-19.16-4.93-90.46,20-101.24,0,0,27.47-22.75-3.79-50.18,0,0,6,28.08-5.85,29.17C46.45,315.86,30.63,411.58,69.32,428.18Z" transform="translate(0.69 1140.69)"/><path d="M573.37,78.67s9.82-31,4-41.08c-7.72-13.32-7.49-31.28-7.49-31.28s-12.6,24.58-8.74,37.9S571.44,55.83,573.37,78.67Z" transform="translate(0.69 1140.69)"/><path d="M843.54,295.59a47.7,47.7,0,0,0-3.86-30.45c-7.73-15.22-19.31-22.83,9.65-43.76,0,0-7.72,17.12-1.93,24.74S859,282.27,843.54,295.59Z" transform="translate(0.69 1140.69)"/><path d="M772,273.06s14.45-8,18.16-1.79c3.17,5.31,7.27,19.7,14.53,21.49,2.72.67-7.26-30.44-5.45-35.81,1.72-5.08,3.27-10.38,7.27-14.32,8.74-8.62-5.12-19.12,10.32-38.15,0,0-23.17,3.81-25.1,20.93C790,240.66,792,242.63,766.57,257c-13.57,7.64-9.35,34.81-9.09,35.81S768.38,276.64,772,273.06Z" transform="translate(0.69 1140.69)"/><path d="M822.42,231.12s7.72-13.32,15.44-17.13,19.31-36.15-11.58-47.56c0,0,5.79,19,3.86,26.63S820.49,208.29,822.42,231.12Z" transform="translate(0.69 1140.69)"/><path d="M841.79,153.11s-14.46-6.1-8.26-22.39C833.53,130.72,843.86,136.83,841.79,153.11Z" transform="translate(0.69 1140.69)"/><path d="M108.64,288.62s.69-37.55,50.44-46.28c0,0-48-17.8-57.69-6.9S108.64,288.62,108.64,288.62Z" transform="translate(0.69 1140.69)"/><path d="M768.38,555.93c-3.63-43,25.46-33.38,36.09-50.93,4.73-7.81,4.18-24-7.76-24.12,0,0-1.07,19-21.65,24.59-12.55,3.42-20.36,18.06-22.61,33.26L703,502.7c-1.09,1.69-2.14,3.36-3,5-3.87,7.23-9.23,13.69-14.28,20.12a172,172,0,0,1-16.94,19.24c-3.38,3.18-7,6-10.7,8.87,23.45,18.13,50,32.84,77.69,45.66C757.54,598.16,773.08,583.69,768.38,555.93Z" transform="translate(0.69 1140.69)"/><path d="M781.1,561.3c-1.82,32.22-5.43,37.7-27.25,41.18,2.54,1.17,36.25,3.6,42.17-20.1.74-3,1.56-5.91,2.1-8.91,2.7-15,5.66-29.73,27.29-31.11C802.94,530,781.79,549,781.1,561.3Z" transform="translate(0.69 1140.69)"/><path d="M797.52,520.46s13,13.68,32.62,9.69,21.05-25.82,28.73-34.18c0,0-21.11,7.92-26.8,17C820.91,530.81,797.52,520.46,797.52,520.46Z" transform="translate(0.69 1140.69)"/><path d="M816.51,506.54s9.3-30.85,31.8-22S877.21,455,877.21,455s-20.94,19.35-26.5,15.15-15.24-7.68-23.3-4.09C813.9,472.09,816.51,506.54,816.51,506.54Z" transform="translate(0.69 1140.69)"/><path d="M820.07,559.66c5.84-7.08,18.7-.41,47.85-6.25,0,0-9.86,15.85-30.17,15.43-12.27-.25-16.41,7.67-28.76,15.42C806.72,585.68,813.47,567.67,820.07,559.66Z" transform="translate(0.69 1140.69)"/><path d="M838.11,541.55s33.32-.32,38.18-28.31c4.23-24.37,7.12-22.85,20.59-29.41S906.8,445,906.8,445s23.44,23-.86,45.73S887.31,507,885,530.92,838.11,541.55,838.11,541.55Z" transform="translate(0.69 1140.69)"/><path d="M347.46,848.14A68.54,68.54,0,0,0,358.78,812c.42-21.31-32.49-8.57-31.15-33.62,0,0-18.24,21.8,2.32,33.06S347.46,848.14,347.46,848.14Z" transform="translate(0.69 1140.69)"/><path d="M314.52,771.11s-10.49-10.34,0-19C314.52,752.16,323.26,759.05,314.52,771.11Z" transform="translate(0.69 1140.69)"/><path d="M774.6,833.58s11.09-11.27,12.14-28.25-5.09-29.3,30.61-33.11c0,0-15.39,11-14.25,20.45S794.74,829.68,774.6,833.58Z" transform="translate(0.69 1140.69)"/><path d="M703.75,833.74s26.79-9.27,45.47,5C749.22,838.75,729.42,850.53,703.75,833.74Z" transform="translate(0.69 1140.69)"/><path d="M328.2,889s-2.86-23.21-16.08-43.57-26.74-28.63-9.5-66.37c0,0,.19,27,8.53,36.65S336.5,865.68,328.2,889Z" transform="translate(0.69 1140.69)"/><path d="M441.33,916.29a44.16,44.16,0,0,0,2.38-23.95c-2.41-13.46-20.84-2-23.15-17.87,0,0-8.38,15.66,5.54,20.57S441.33,916.29,441.33,916.29Z" transform="translate(0.69 1140.69)"/><path d="M346.12,926.3s-1.75-12.06-17.48-22.4-15.73-41.35-15.73-41.35-17.48,32.74-3.5,43.07a89,89,0,0,1,14.31,12.73c2.88,3.29,13.09,43.5,15.41,47.57C341.21,969.6,339.13,933.19,346.12,926.3Z" transform="translate(0.69 1140.69)"/><path d="M809.7,764.27s16.56-5.38,15-19c-2.17-19.35-10.33-13.81-11.85-26.44-.42-3.47,0-25.07-1.82-30.44,0,0-11.74,38.35-2.67,49.86S809.7,764.27,809.7,764.27Z" transform="translate(0.69 1140.69)"/><path d="M756.7,753.67a40.82,40.82,0,0,0,20.11-7.2c10-6.94-5.73-16.85,6.28-24.64,0,0-15.54-.57-14.62,12S756.7,753.67,756.7,753.67Z" transform="translate(0.69 1140.69)"/><path d="M831.28,710.35s-1.23-17.45-10.63-33.05-19.55-22.14-4.56-49.95c0,0-1,20.18,5.06,27.67S838.72,693.14,831.28,710.35Z" transform="translate(0.69 1140.69)"/><path d="M870.74,248.91s-10.49-13.78-7-24.12-.93-18.73,3.5-36.18c3.49-13.78-12.24-29.28-12.24-29.28s32-6.1,24.47,25.84c-5.24,22.4,8.74,15.5,5.25,29.29S867.25,226.52,870.74,248.91Z" transform="translate(0.69 1140.69)"/><path d="M165.17,238.8a68.49,68.49,0,0,0,11.32-36.14c.42-21.31-32.48-8.56-31.14-33.61,0,0-18.24,21.8,2.31,33.06S165.17,238.8,165.17,238.8Z" transform="translate(0.69 1140.69)"/><path d="M125.66,183.5s-6.68-18.53,6.55-30C132.21,153.52,138.37,166.23,125.66,183.5Z" transform="translate(0.69 1140.69)"/><path d="M153.28,225.31s-24.36,2.84-31.69-18.56C121.59,206.75,141.88,199.09,153.28,225.31Z" transform="translate(0.69 1140.69)"/><path d="M232.49,283.68s-1.74-31-26.22-29.28c-21.56,1.51-31.46-15.51-19.23-39.63,0,0,10.52,25.16,21,25.84C234.24,242.34,250,263,232.49,283.68Z" transform="translate(0.69 1140.69)"/><path d="M538.41,120s10.49-15.51,14-19c5.5-5.41,9.1-8.22,10.7-19.07,3.29-22.27-22.56-32.09-9-53.28,0,0-28.24,19.15-15.91,38.88S538.41,120,538.41,120Z" transform="translate(0.69 1140.69)"/><path d="M666.79,263.41l8.73-2.66s3.42,6.21-.45,10.29C675.07,271,674.08,265.54,666.79,263.41Z" transform="translate(0.69 1140.69)"/><path d="M679.07,260.53l9.61-.1s1.56,7.27-3.59,10.24C685.09,270.67,685.77,264.83,679.07,260.53Z" transform="translate(0.69 1140.69)"/><path d="M690.18,260.53l11-1.79s.17,9-5,11.93C696.2,270.67,696.88,264.83,690.18,260.53Z" transform="translate(0.69 1140.69)"/><path d="M656.33,274.67l5.78,5.15s4.91-3.58,3.41-8.1C665.52,271.72,662.74,275.61,656.33,274.67Z" transform="translate(0.69 1140.69)"/><path d="M664.45,281.43l7.88,4.37s4.26-5.73,1.23-10.64C673.56,275.16,671.73,280.62,664.45,281.43Z" transform="translate(0.69 1140.69)"/><path d="M674.72,287.54l9.39,2.6s-.66-8.21-5.24-11.38A8.79,8.79,0,0,1,674.72,287.54Z" transform="translate(0.69 1140.69)"/><path d="M770.9,714.9s12.36-5,23.3-18.83-10.21-19.81,3-35.7c0,0-19.16,6.38-15.65,22.76S770.9,714.9,770.9,714.9Z" transform="translate(0.69 1140.69)"/><path d="M790,193.4s16.47-21.92-2.84-32.2S791.37,127,791.37,127s-1.6,23.7,4.59,25.22,14.25,6.12,16.36,13.27C815.87,177.5,790,193.4,790,193.4Z" transform="translate(0.69 1140.69)"/><path d="M806.14,81.13s-3,15.07,7.76,25.47,10.21,11.72,1.71,39.35c0,0-.36-23.79-7.61-28.5S794.09,95.8,806.14,81.13Z" transform="translate(0.69 1140.69)"/><path d="M864.88,370.11s-7.26,17.12-14.85,22.15-18,46.41,13.22,60.09c0,0-6.44-24-4.78-33.72S867.6,399.05,864.88,370.11Z" transform="translate(0.69 1140.69)"/><path d="M884,393.55s-9.09,12.49-11.74,33.31,21.24,14.55,17.54,38.86c0,0,14.88-17.92,2.09-32.86S884,393.55,884,393.55Z" transform="translate(0.69 1140.69)"/><path d="M810.14,470.33s-2.9-7.48,12.28-13.2c6.08-2.29,11.91-21.25,12.07-29.41a60.07,60.07,0,0,1-14.62,18.37c-4.27,3.62-7.24,2.58-11.56,6.07C804.34,455.37,805.07,466.23,810.14,470.33Z" transform="translate(0.69 1140.69)"/><path d="M844.06,382.21s-6.68-18.53,6.55-30C850.61,352.23,856.77,365,844.06,382.21Z" transform="translate(0.69 1140.69)"/><path d="M786.55,353.63s21.8-34,7.27-41.18c-22.75-11.21-3.64-23.28-3.64-23.28s-1.64,12.27,10.9,14.33c10.9,1.79,26.16,33.53-7.26,55.5C788.37,362.58,782.92,357.21,786.55,353.63Z" transform="translate(0.69 1140.69)"/><path d="M822.78,258.15s-7.18,14.23-6.39,35.91,24.12,11.4,24.43,36.82c0,0,12.18-20.72-3.39-33.89S822.78,258.15,822.78,258.15Z" transform="translate(0.69 1140.69)"/><path d="M757.63,332.31s5.84-8.26,10.45-10.08S783,299.66,768,288.88c0,0,.64,13.46-1.37,18.42S759.55,316.65,757.63,332.31Z" transform="translate(0.69 1140.69)"/><path d="M772.13,98.92c-5.59-7.27,4-18,5.23-47.29,0,0,13.26,13.21,8,32.55-3.17,11.69,3.65,17.54,8.35,31.21C794.6,117.89,778.46,107.15,772.13,98.92Z" transform="translate(0.69 1140.69)"/></g></svg>