<svg id="tetrahive" xmlns="http://www.w3.org/2000/svg" viewBox="0 0 975.46 908.56"><defs><style>.cls-1{fill-rule:evenodd;}</style></defs><path class="cls-1" d="M363.13,135.31c-8.71,4.7-14.38,10.52-13.31,20.75-15.76,2.87-23.92,13.17-27.13,28.47-6.61-1.73-11.63,1.37-16.25,5.23-5.43,4.53-11.32,8.64-14,15.75-.93,2.47-2.64,4.79-6.19,2.89-.69-.37-2.3.36-3.16,1a41.63,41.63,0,0,0-6,5.28c-2,2.26-3.85,3.21-6.84,1.53-1.21-.68-3.26-.39-4.75.07-2.65.83-5.15,2.12-8,3.35-3.54-6.73-1.83-13.73-.8-21l-3.76.81c0-.31-.08-.56-.08-.8,0-1.45.51-3.17-.07-4.33-3-6-7.78-9.86-14.41-10.74-3.43-.45-4.53-1.73-4.5-5.09.08-8.79-3.34-15.55-12.41-18.91,4.87-8.5,2-14.86-6-19.81,4.14-5.23,9.29-6.56,15-5.7a47.64,47.64,0,0,1,24.14,10.6c7.31,6.18,14.76,12.2,21.67,17.89l-6-.78c4.7,16,2.55,16,.54,23.91l6.8-3.62c3.84,5.6,9.58,1.61,14.79,1.52.79,0,2-1.25,2.26-2.13,2.33-8.69,4.5-17.43,6.79-26.45l-3.39-.39c.24.29.47.58.71.86,5.37-4.21,10.71-8.46,16.11-12.64,8.36-6.48,17.42-11.27,28.28-11.87C350,130.58,356.32,132,363.13,135.31Z" transform="translate(-9.31 -44.91)"/><path class="cls-1" d="M657.06,192.1l9.62-3c.68-4.85,1.26-10.7,2.34-16.46,2.25-11.93,4.4-23.9,7.33-35.66,1.36-5.51,5.38-9.78,10.8-13.07-.47,4.5-1.13,8.45-1.24,12.42-.14,5.09.9,9.77,6,12.48a3.31,3.31,0,0,1,1.38,2.77C690,166,694.28,177.71,706.42,187c-12.81,11.92-8.24,23.88-.94,36.35-1.83-1.31-3.62-2.69-5.5-3.93-1.49-1-3.06-2.37-4.66-2.47-2.48-.16-5,.62-7.53,1,.35,2.31.65,4.62,1.08,6.91a6.82,6.82,0,0,0,.92,1.78c-4.54-2.16-9-4.42-13.57-6.43a43.35,43.35,0,0,0-26.05-2.64c-6.62,1.27-11.92,1.16-16.49-4.9-4.9-6.51-12.32-8.39-20.27-8-3,.14-6,.56-9.55.89-3.26-11.23-11.07-17-23.85-16.4a31.21,31.21,0,0,1,20.29-15.35c12.75-3.23,25.55-1.71,37.79,2.08,4.74,1.47,8.45,6.36,12.51,9.84C653,187.79,655.06,190.12,657.06,192.1Z" transform="translate(-9.31 -44.91)"/><path class="cls-1" d="M96.34,193.28c-.88,2.7-1.73,5.31-2.56,7.88,7.27,3.71,17.69.06,25.81-9.19l-1.81-2.36c8.17.59,16.87.83,25.46,1.95a27.92,27.92,0,0,1,19.48,11.31c-2.7.55-5,.9-7.19,1.49-4.51,1.19-8.24,3.68-10.23,8-1.1,2.35-2.51,2.83-4.83,2.69-7.83-.47-13.68,3-18.12,9.29-.77,1.09-2.78,2.43-3.69,2.12-11.94-4.07-22.11.45-32.16,6.09a9,9,0,0,1-4,.72c-3.28.1-6.58,0-8.38,0-5.17-1.91-9.28-3.38-13.33-5a3.62,3.62,0,0,1-1.86-1.55c-3.85-8-10.09-11.41-19.31-9.78-2.2-11.75-7.85-20.86-19.77-25.85,5.67-5.26,11.55-9.17,18.62-9.43,6.69-.25,13.45,1.14,20.22,1.81-1.4,8.21,7.06,15.73,15.93,14.73.17-1.94.35-3.94.55-6.19,4.32-.17,5,6.75,9.95,4.87C88.54,195.6,92.1,194.63,96.34,193.28Z" transform="translate(-9.31 -44.91)"/><path class="cls-1" d="M302.9,84.45c-6.79-1.78-13.69-3.24-20.34-5.44-7.17-2.37-14.2-5.13-21.91-3.72A88.61,88.61,0,0,0,251.38,78c-4.93-3.94-9.94-8.4-15.44-12.16-3.23-2.21-7.16-3.53-10.91-4.79-2.09-.7-4.7-1.46-6.15,1.63a2.66,2.66,0,0,1-2.23,1.13,86.93,86.93,0,0,1-11.38-2.6c-9.7-3.28-17.24.19-20.68,10.11-3,8.69-7.09,16.65-14,22.9-6.67,6-15.12,7.8-23,9.88.57-1.79,1-3.67,1.78-5.45a4.23,4.23,0,0,1,1.78-2,12.47,12.47,0,0,0,7.23-11.86c0-2.88,1-4.34,3.82-5.57,9.36-4.1,15.86-11.27,20.37-20.37a24.69,24.69,0,0,1,25.26-13.69C211,45.53,213.94,47,217,48a20.68,20.68,0,0,0,3,.4c-.08,1.08-.18,2.35-.33,4.14,13.17-.72,21.89,9.23,33.1,13.12C268.85,71.19,285,76.56,301.09,82c.68.23,1.38.43,2.07.65C303.08,83.26,303,83.85,302.9,84.45Z" transform="translate(-9.31 -44.91)"/><path class="cls-1" d="M451.11,247c.48-4.85.5-8.64,1.31-12.24.88-3.88,2.57-7.56,3.79-11.37,1.94-6.11,1.08-7.38-5.19-7.94-.86-.08-1.72,0-2.91,0,.91-10.26-5.19-14.92-13.41-18.28a21.87,21.87,0,0,1-7.7-5.44,30.73,30.73,0,0,0-24.86-10.81c1.62-9.78,10.54-14.17,18.58-14.61,12.3-.67,23.61,3.62,35,7.52,2.22.76,4.43,1.57,7.1,2.51,3.88-14.8-5.17-23.15-15.07-31.44,21.13.45,35.87,9.85,41.54,23.85.69,1.69,1,4.27.17,5.72-5.56,10-4.39,19.33,2,28.4,1.19,1.7,2.12,3.71,3.65,5a8.22,8.22,0,0,0,4.74,1.61c3.06.14,6.25-.74,9.2-.2,3.35.62,6.49,2.3,8.66-3.15.68,2.36,1.6,3.8,1.35,5-.8,4,.53,6.62,3.68,9.06.93.72.82,3.31.48,4.89-.14.69-2.06,1.14-3.24,1.4a6,6,0,0,1-3.09-.1c-8.28-3-15.34-.28-22.25,4.21a84.06,84.06,0,0,1-13.62,7.5c-3.72,1.53-7.95,1.78-11.94,2.66a54.6,54.6,0,0,0-6.34,1.64C459.35,243.54,456.09,245,451.11,247Z" transform="translate(-9.31 -44.91)"/><path class="cls-1" d="M315.11,805.53c6.45,6.71,11.74,2.86,17.46.27-.76-4.56-1.36-9.24-2.39-13.84A16.45,16.45,0,0,0,320,779.76c-3.43-1.37-4.62-3.77-5.4-6.89-2.35-9.3.42-17.94,3-27.17,3.3,5.47,5.68,10.89,9.39,15.16,4.21,4.82,9.64,8.56,14.46,12.86a8.09,8.09,0,0,1,2.7,3.59c1.62,6.75,6.33,10,12.39,12,4.66-23.39,20.79-36.45,41.1-47.67-3.76,6.71-6.42,12.47-4,19.29-9.25,5.93-11.78,14.92-11.2,25.13.16,2.86-.53,4.65-3,6.27-10.75,7-12.55,17.57-10.48,29,.41,2.31,4.41,4,6.18,5.44-1.81-.16-4.86-.45-7.91-.68-5.55-.41-11.11-.69-16.64-1.21-3.64-.33-7.25-1.41-10.87-1.39a38.69,38.69,0,0,0-11.6,1.58c-5.49,1.79-7.72,1.47-9-4.07-.81-3.54-1.26-7-3.44-10.06C315.09,810.06,315.4,808.46,315.11,805.53Z" transform="translate(-9.31 -44.91)"/><path class="cls-1" d="M160.64,279.53c-2.7,1.93-5,3.48-7.15,5.1a21.86,21.86,0,0,0-9.17,14.7,11.29,11.29,0,0,1-3.33,6c-6.42,6-9.89,12.77-7.14,21.81.27.88-1.16,3-2.26,3.46C116,337.11,111,350.8,107.75,365.69a11.29,11.29,0,0,0,.21,3c-.25.32-.47.75-.58.72-7.62-1.59-12.22,4.48-18.07,7.24-3.57,1.68-11.14.64-13.49-2.6-2.45-3.4-5.17-6.7-7-10.41-4.59-9.12-12.23-14.68-20.84-19.43a12.15,12.15,0,0,1-4.89-5.13c-4-8.54-10.34-14.75-18-19.92a21.11,21.11,0,0,1-4.79-5c-3.69-4.92-7.22-10-10.93-15.12,24.44,13.7,42.37,34.11,58.42,56.53l.88-.67V349c.3-.19.6-.36.89-.55A44.76,44.76,0,0,1,73.17,353c1.94,3.1,4,3.35,6.52.69,1.78-1.89,3.72-3.6,5.58-5.4l1,.57c-.12,2-.25,3.93-.46,7.19,2-2,3.53-3.12,4.52-4.58,7.75-11.42,15.51-22.83,23-34.39,11.24-17.21,26.5-29.49,45.29-37.53A7.13,7.13,0,0,1,160.64,279.53Z" transform="translate(-9.31 -44.91)"/><path class="cls-1" d="M808.84,697l9.61-3c.68-4.85,1.26-10.7,2.35-16.45,2.24-11.94,4.39-23.91,7.32-35.68,1.37-5.5,5.38-9.77,10.81-13.06-.48,4.51-1.14,8.45-1.25,12.42-.14,5.09.91,9.76,6,12.48a3.26,3.26,0,0,1,1.38,2.77c-3.36,14.47.95,26.18,13.09,35.51-12.81,11.92-8.24,23.87-.94,36.35-1.83-1.32-3.61-2.7-5.51-3.93-1.48-1-3-2.37-4.65-2.47-2.48-.16-5,.62-7.53,1,.35,2.31.65,4.62,1.09,6.92a7.22,7.22,0,0,0,.91,1.77c-4.54-2.16-9-4.42-13.57-6.43a43.43,43.43,0,0,0-26-2.65c-6.62,1.28-11.92,1.17-16.49-4.89-4.91-6.51-12.32-8.39-20.26-8-3,.15-6.06.56-9.57.9-3.26-11.23-11.06-17-23.84-16.41a31.21,31.21,0,0,1,20.29-15.34c12.75-3.23,25.55-1.71,37.79,2.08,4.73,1.46,8.45,6.35,12.51,9.84C804.72,692.67,806.83,695,808.84,697Z" transform="translate(-9.31 -44.91)"/><path class="cls-1" d="M892.13,826l2.39-1.1c1.55,1.26,2.73,3,3.93,3s2.51-1.63,4.33-3l2.76,3.68c3.41-5.77,3.09-11.81,1.78-17.74-.73-3.29-.14-5.18,2.71-7,10.35-6.51,20.7-12.87,33.4-13.57a25.2,25.2,0,0,1,19,6.81c-2.64.8-5.11,1.48-7.54,2.28-9.13,3-12.93,10.29-15.08,18.91-.23.95-.74,2.31-1.46,2.59-10.44,4-16.43,11.33-17.34,23.11-12.31-4.47-14,8.05-21.06,12.23,1.35,2.81,2.54,5.29,3.87,8l-3.67.85c-1.51-2.48-2.9-4.78-4.28-7.08l-4.55,7-4.07-.7c6-5.62,2-10.29-.37-15.19-1.65-3.47-3.07-7.06-4.67-10.56-2.39-5.2-5.81-9-12.63-8.33.18-3.76.59-7.26.48-10.74-.2-5.77-1.78-10.85-7.78-13.43-.8-.35-1.36-2-1.49-3.06-.28-2.5-.12-5-.33-7.56-.56-6.88-4.76-10.89-11-13.09,3.56-6.59,12.91-9.41,20.42-5.8,12.16,5.85,18.51,16.74,23.56,28.55.37.88-.37,2.23-.54,3.36q-1.26,8.47-2.48,17Z" transform="translate(-9.31 -44.91)"/><path class="cls-1" d="M725,878.54c-6,3.58-7.71,20.13-5,27.53,3.93,10.69,11.75,17.16,21.39,17.26,1.27-2.54,2.51-5,3.74-7.45l1.54.48c-.12,2.08-.23,4.17-.36,6.52a57.3,57.3,0,0,1,6.19,1.51c4.9,1.72,5.62,4.77,1.28,7.33-3.25,1.9-7.41,2.25-11.18,3.22-2.44.62-5.25.53-7.29,1.76-7.28,4.34-14.18,10-23.18,9.08-4.87-.49-8.19.57-11.73,3.81-4.26,3.91-7.4,4.37-13.1,3.53,1.74-.69,3.13-.83,3.81-1.61a8.81,8.81,0,0,0,2.4-4.41c.09-.85-1.61-2.44-2.78-2.79-5.92-1.8-11.93-3.3-19-5.2l29.75-1.63c.26-5.77.75-11.71.7-17.64a51.25,51.25,0,0,0-1.44-11.21,17,17,0,0,0-9.91-11.94c9.62-13.85,8.13-27.64-.15-41.24,9.74-7.62,3.09-16,1.12-24.55a26.25,26.25,0,0,1,15.44,13.45,158.83,158.83,0,0,1,9,23.59C717.71,872.79,717.74,878.07,725,878.54Z" transform="translate(-9.31 -44.91)"/><path class="cls-1" d="M889.45,348.36c.49-4.85.51-8.64,1.33-12.24.88-3.88,2.57-7.56,3.77-11.37,2-6.11,1.09-7.38-5.19-7.94-.85-.07-1.71,0-2.9,0,.91-10.26-5.2-14.92-13.41-18.28a21.77,21.77,0,0,1-7.7-5.45,30.76,30.76,0,0,0-24.87-10.8c1.62-9.78,10.55-14.16,18.59-14.6,12.3-.68,23.61,3.62,35,7.51,2.22.76,4.42,1.57,7.09,2.51,3.88-14.8-5.17-23.15-15.07-31.44,21.13.45,35.87,9.85,41.54,23.85.69,1.69,1,4.27.17,5.72-5.56,10-4.39,19.33,2,28.4,1.19,1.7,2.12,3.71,3.65,5a8.22,8.22,0,0,0,4.74,1.61c3.06.15,6.25-.74,9.21-.2,3.34.62,6.48,2.3,8.65-3.15.68,2.37,1.6,3.8,1.35,5-.8,4,.53,6.62,3.68,9.06.93.71.83,3.31.48,4.89-.15.69-2.06,1.14-3.24,1.4a6.13,6.13,0,0,1-3.1-.09c-8.27-3-15.34-.29-22.24,4.2a84.11,84.11,0,0,1-13.62,7.51c-3.71,1.52-7.95,1.77-11.93,2.65a55.58,55.58,0,0,0-6.34,1.64C897.7,345,894.44,346.36,889.45,348.36Z" transform="translate(-9.31 -44.91)"/><path class="cls-1" d="M902.2,575.45c6.45,6.71,11.75,2.87,17.47.28-.77-4.56-1.36-9.25-2.39-13.84a16.47,16.47,0,0,0-10.15-12.21c-3.42-1.37-4.61-3.76-5.4-6.88-2.35-9.3.43-17.95,3-27.17,3.3,5.46,5.67,10.89,9.39,15.15,4.2,4.83,9.64,8.56,14.46,12.87a8.09,8.09,0,0,1,2.7,3.59c1.62,6.75,6.33,10,12.39,12,4.66-23.4,20.78-36.46,41.09-47.68-3.75,6.72-6.42,12.48-4,19.3-9.25,5.93-11.77,14.92-11.19,25.12.16,2.87-.54,4.66-3,6.27-10.74,7-12.54,17.58-10.48,29,.42,2.3,4.41,4,6.19,5.44-1.82-.16-4.86-.45-7.91-.68-5.55-.41-11.11-.69-16.65-1.2-3.63-.35-7.24-1.42-10.86-1.4a38.33,38.33,0,0,0-11.6,1.58c-5.49,1.79-7.72,1.46-9-4.07-.82-3.54-1.26-7-3.44-10.06C902.18,580,902.5,578.38,902.2,575.45Z" transform="translate(-9.31 -44.91)"/><path class="cls-1" d="M542.52,96.09,544.9,95c1.55,1.26,2.74,3,3.94,3s2.5-1.64,4.33-3l2.75,3.68C559.33,92.92,559,86.88,557.7,81c-.73-3.3-.13-5.18,2.71-7,10.35-6.51,20.7-12.87,33.4-13.58a25.3,25.3,0,0,1,19,6.81c-2.64.8-5.12,1.48-7.55,2.29-9.12,3-12.93,10.29-15.07,18.9-.24.95-.74,2.32-1.47,2.6-10.43,4-16.42,11.33-17.33,23.11-12.31-4.47-14,8-21.07,12.23l3.87,8-3.67.85-4.28-7.08-4.55,7-4.07-.71c6-5.61,2-10.29-.37-15.17-1.64-3.49-3.06-7.07-4.67-10.57-2.39-5.21-5.81-9-12.63-8.33.19-3.76.6-7.26.48-10.74-.19-5.77-1.77-10.85-7.77-13.44-.81-.35-1.37-2-1.5-3.05-.28-2.5-.12-5.06-.32-7.57-.57-6.87-4.76-10.88-10.95-13.08,3.55-6.6,12.9-9.41,20.41-5.8,12.16,5.84,18.52,16.74,23.56,28.55.38.88-.37,2.23-.53,3.36q-1.26,8.47-2.49,17Z" transform="translate(-9.31 -44.91)"/><path class="cls-1" d="M789.3,125c6.45,6.71,11.75,2.87,17.47.27-.77-4.55-1.36-9.24-2.38-13.84a16.45,16.45,0,0,0-10.16-12.2c-3.42-1.37-4.61-3.77-5.4-6.89-2.34-9.3.44-17.95,3-27.17,3.3,5.47,5.67,10.9,9.39,15.16,4.2,4.82,9.64,8.56,14.46,12.86a8.24,8.24,0,0,1,2.71,3.59c1.61,6.75,6.32,10,12.38,12,4.66-23.39,20.79-36.46,41.09-47.68-3.75,6.72-6.41,12.48-4,19.3-9.25,5.93-11.77,14.92-11.19,25.13.16,2.86-.53,4.66-3,6.26-10.74,7-12.54,17.59-10.47,29,.41,2.3,4.4,3.95,6.18,5.44-1.81-.16-4.86-.45-7.91-.68-5.55-.41-11.11-.69-16.64-1.21-3.64-.33-7.25-1.41-10.87-1.39a38.65,38.65,0,0,0-11.6,1.58c-5.49,1.79-7.71,1.47-9-4.07-.82-3.54-1.26-7-3.44-10C789.29,129.57,789.6,128,789.3,125Z" transform="translate(-9.31 -44.91)"/><path class="cls-1" d="M380,904l-2.55,7.87c7.27,3.7,17.68.06,25.81-9.19-.75-1-1.55-2-1.82-2.35,8.18.58,16.87.82,25.47,1.94a27.92,27.92,0,0,1,19.48,11.31c-2.71.55-5,.91-7.19,1.49-4.52,1.19-8.24,3.68-10.24,8-1.1,2.36-2.5,2.83-4.82,2.69-7.83-.48-13.67,3-18.12,9.29-.77,1.09-2.78,2.44-3.69,2.12-11.95-4.07-22.12.45-32.17,6.08a8.88,8.88,0,0,1-4,.73c-3.28.1-6.57,0-8.38,0-5.16-1.92-9.27-3.39-13.33-5a3.6,3.6,0,0,1-1.85-1.55c-3.85-8-10.1-11.41-19.31-9.79-2.2-11.74-7.85-20.85-19.77-25.84,5.67-5.27,11.55-9.17,18.62-9.43,6.69-.25,13.44,1.14,20.22,1.81-1.4,8.21,7.06,15.73,15.92,14.73.18-1.94.36-3.94.55-6.19,4.33-.17,5,6.75,9.95,4.87C372.25,906.31,375.8,905.34,380,904Z" transform="translate(-9.31 -44.91)"/><path class="cls-1" d="M153,885.64l2.39-1.09c1.55,1.25,2.73,3,3.93,3s2.51-1.63,4.34-3l2.75,3.67c3.41-5.77,3.09-11.81,1.78-17.73-.73-3.3-.14-5.18,2.72-7C181.25,857,191.6,850.67,204.3,850a25.26,25.26,0,0,1,19,6.81c-2.64.8-5.12,1.48-7.54,2.29-9.13,3-12.93,10.28-15.08,18.91-.24.94-.74,2.31-1.46,2.59-10.44,4-16.44,11.33-17.34,23.1-12.31-4.46-14,8.06-21.07,12.23,1.35,2.82,2.55,5.29,3.87,8.05l-3.67.84c-1.5-2.48-2.89-4.77-4.27-7.07l-4.56,7-4.07-.71c6-5.62,2-10.29-.36-15.18-1.65-3.48-3.07-7.06-4.68-10.56-2.38-5.21-5.81-9-12.63-8.33.18-3.76.6-7.26.48-10.75-.2-5.77-1.77-10.85-7.77-13.43-.81-.35-1.37-2-1.5-3.06-.28-2.5-.12-5-.33-7.56-.55-6.88-4.75-10.88-11-13.08,3.56-6.6,12.91-9.42,20.43-5.8,12.15,5.84,18.51,16.73,23.55,28.55.38.88-.37,2.22-.53,3.36q-1.26,8.48-2.49,17Z" transform="translate(-9.31 -44.91)"/><path class="cls-1" d="M244.46,742c-6.79-1.78-13.69-3.23-20.34-5.43-7.17-2.37-14.21-5.14-21.92-3.72a88.44,88.44,0,0,0-9.26,2.71c-4.93-3.94-9.94-8.41-15.44-12.16-3.23-2.22-7.16-3.53-10.92-4.8-2.08-.69-4.7-1.45-6.14,1.64a2.65,2.65,0,0,1-2.23,1.12,85.32,85.32,0,0,1-11.38-2.59c-9.71-3.28-17.24.19-20.68,10.11-3,8.68-7.09,16.65-14,22.9-6.66,6-15.12,7.8-23,9.88.57-1.79,1-3.67,1.78-5.45a4.21,4.21,0,0,1,1.77-2A12.47,12.47,0,0,0,100,742.26c0-2.89,1-4.35,3.81-5.58,9.37-4.09,15.87-11.27,20.37-20.37a24.71,24.71,0,0,1,25.27-13.68c3.12.41,6.09,1.92,9.16,2.83a19.36,19.36,0,0,0,3,.41c-.08,1.07-.19,2.35-.33,4.14,13.17-.72,21.88,9.23,33.1,13.12,16.05,5.57,32.19,10.93,48.29,16.39.69.23,1.39.43,2.08.65C244.64,740.77,244.55,741.36,244.46,742Z" transform="translate(-9.31 -44.91)"/><path class="cls-1" d="M521.54,892c.48-4.85.51-8.63,1.32-12.24.88-3.88,2.57-7.56,3.78-11.37,1.94-6.1,1.08-7.38-5.19-7.94-.85-.07-1.71,0-2.91,0,.91-10.26-5.19-14.91-13.4-18.28a21.78,21.78,0,0,1-7.7-5.44,30.71,30.71,0,0,0-24.87-10.8c1.62-9.79,10.55-14.18,18.58-14.62,12.31-.67,23.61,3.63,35,7.52,2.22.76,4.42,1.57,7.09,2.52,3.89-14.8-5.17-23.15-15.07-31.44,21.13.44,35.87,9.84,41.55,23.84.68,1.69,1,4.27.16,5.72-5.56,10-4.39,19.33,2,28.4,1.19,1.7,2.12,3.71,3.65,5a8.32,8.32,0,0,0,4.74,1.62c3.06.13,6.26-.75,9.21-.2,3.34.61,6.48,2.3,8.66-3.16.67,2.36,1.59,3.8,1.35,5-.81,4,.53,6.63,3.68,9.06.92.72.82,3.32.47,4.89-.14.69-2.06,1.15-3.24,1.4a5.78,5.78,0,0,1-3.09-.1c-8.27-3-15.34-.28-22.25,4.21a84.11,84.11,0,0,1-13.62,7.51c-3.71,1.52-7.94,1.77-11.93,2.65a52.21,52.21,0,0,0-6.34,1.65C529.78,888.59,526.53,890,521.54,892Z" transform="translate(-9.31 -44.91)"/><path class="cls-1" d="M88.35,600.2,98,597.15c.68-4.85,1.26-10.7,2.35-16.45,2.24-11.93,4.39-23.9,7.32-35.67,1.37-5.51,5.38-9.78,10.81-13.06-.48,4.5-1.14,8.45-1.25,12.42-.14,5.08.9,9.76,6,12.48a3.25,3.25,0,0,1,1.38,2.76c-3.37,14.47,1,26.18,13.09,35.51-12.81,11.92-8.24,23.88-.95,36.36-1.82-1.32-3.6-2.7-5.5-3.93-1.48-1-3.05-2.37-4.65-2.48-2.48-.16-5,.63-7.53,1,.35,2.3.65,4.61,1.09,6.91a7.12,7.12,0,0,0,.91,1.78c-4.54-2.17-9-4.43-13.57-6.44a43.43,43.43,0,0,0-26-2.64c-6.62,1.27-11.92,1.16-16.49-4.9-4.91-6.51-12.32-8.39-20.26-8-3,.14-6.06.56-9.57.89-3.26-11.23-11.06-17-23.84-16.4A31.18,31.18,0,0,1,31.58,582c12.75-3.23,25.55-1.72,37.79,2.07,4.74,1.47,8.45,6.36,12.51,9.84C84.24,595.89,86.34,598.22,88.35,600.2Z" transform="translate(-9.31 -44.91)"/><path class="cls-1" d="M475.43,666.19c20.27-13.63,51.2-1.92,55.6,20.48-7.76-4.49-15.13-10-23.41-13.25-12.33-4.79-26.53.42-34.44,10.93a30.42,30.42,0,0,0-.27,35.53c8.35,12,19.52,20.14,34.16,22.77,15,2.69,29.87,2.36,44.51-1.92,30-8.75,44-28.71,41.44-59.83-1.91-22.85-39.32-94.91-55.18-108.68,12.77-10.22,10.21-23,10.21-30.64,2.87,2.58,39.07,75.78,40.86,79.15,23,43.41,32.57,88.73,0,115.9-28.61,23.83-61.83,28.63-97,15.64-11-4-19.72-11.6-26.63-21.12C449.34,709.2,453.8,680.72,475.43,666.19Z" transform="translate(-9.31 -44.91)"/><path class="cls-1" d="M884.94,444.07c-18.71-25.22-36.12-51.58-56.54-75.34-46.25-53.83-103.15-89.93-175.27-98.36-17-2-34-4.28-51-6.38-.16.09-.34.15-.49.24a9.23,9.23,0,0,0-2.25,2.23,8,8,0,0,0-.09,5.06c2.25,9.28,11.59,31.52,11.69,34.1,21.8,47-1.32,103.81-47.26,130.87-.26.15-.52.26-.77.4a11.28,11.28,0,0,1-3.07-1.27c-4.09-2.45-7.21-6.55-10.38-10-1.18-1.29-7.87-7.82-9.08-9.13L530.18,375.6l-20.43,33.19c-7.08-1.36-6.48-1.52-13.81-.4a30,30,0,0,0-3.67-.49,35.14,35.14,0,0,0-8,.4l-12.31-32.7-19.84,46a36.09,36.09,0,0,0-6.3,3.6c-.27.2-.54.43-.81.65-28.11-16.38-50.25-37.51-54.68-72.36-1.53-12.06-2-24.13,1.43-36.29a51.77,51.77,0,0,1,3-12c2.73-7.59,7.45-12.29,13.43-17.42,2.1-1.8,3.75-2.5,3.19-5.29-.29-1.51-1.68-2.47-3-3.67a29.09,29.09,0,0,1-6-1.84,65.66,65.66,0,0,0-15.78-4.35c-24-3.23-47,2.43-70.18,7.93C225.45,302.19,160,358,109.57,433.73c-5.44,8.16-6.65,19.13-10,29.47,2.6-.12,3.24,0,3.64-.21,1.4-.87,25.81-10.08,34.18-7.53s16.74,17,19.08,28.75c5.19,26.16,11.76,52,17.79,78,.55,2.34,1.28,4.64,1.92,7,2.08-15.79,10.08-32.83,23.64-32.45,4.85.13,36,14.55,44,25.44,12.66,17.24,24.51,35.07,37.26,52.23,7.78,10.48,19,16.76,30.71,22.3-.92-2.84-2.79-4.77-4-7-8.39-15.08-19.53-29.37-24.4-45.53C269.51,538.63,263.44,491.54,261.8,444c-.3-8.72,3-12.69,11.48-10.55,12.28,3.09,24.84,7.26,35.57,13.8,15.39,9.38,27.16,23.2,36.43,38.89,1.84,3.11,4.32,5.84,7.37,9.91,2.31-5.72,3.21-10.3,5.74-13.67,4.32-5.76,8.71-12.74,14.78-15.69,13.65-6.63,28-5.08,41.06,2.91,3.31,2,5.62,5.67,8.39,8.58-3,2.05-5.88,4.53-9.16,6.09-12.15,5.79-25,12.28-18.62,24.14,1.37-1.87,5.38-9.73,9.45-9.73.61,6-4.07,8.14-1.78,14.84,3,1.46,5.29-.19,7.66-2.56,2.55-2.55,5.6-5.69,10.21-5.1,2.23,5-7.95,8.06-7.95,13.17,2.56,2.55,12-.85,13.06-3,3-5.76,7.8-14,10.49-19.92,1.17-2.58,3-6.39,5-6.72,4.29-.7,9.82-.9,13.15,1.27,5.09,3.33,8.93,8.7,13,13.47,9,10.54,9.21,16.91,2.73,29-7.19,13.25-25.48,36.72,3.28,34.66-6.18,5.87-12.59,11.53-13.91,18.39-1.57,8.13,2.5,17.59,1.1,25.88-.4.66-.15,2.5.44,3.92-1.14,3.95.49,8.87.49,8.87a12.68,12.68,0,0,0,6-4.34,20,20,0,0,0,2.07,6.16,13.14,13.14,0,0,0,5.78-7h.51a19.67,19.67,0,0,0,2.84,6.45,13.12,13.12,0,0,0,4.94-7.3l.27-.12c1.62-1,2-4.57,2-6.11,0-1.38,1.25-3.64,1-5.52-.59-4.11-1-6.69-1.69-10.9-.59-3.48-1.94-6.18-.58-9.48,3.06-7.38,9.69-12.8,14.75-18.75,5.51-6.47-1.7,7.85-5.68,14.07-1,1.58-2.25,7.43-2,9.4a33.9,33.9,0,0,0,2.39,7c1.35,2.84,6,14.22,6.09,14.15a3,3,0,0,0,2.67,1.57c1.51,3.73,5.53,6.6,5.53,6.6a12.58,12.58,0,0,0,2.28-7,20.07,20.07,0,0,0,5.3,3.76,12.62,12.62,0,0,0,.93-7.35,19.55,19.55,0,0,0,6.15,3.59,13.35,13.35,0,0,0-.76-9.85c3.54-4,.15-6.46-1.08-14.61,11.32-22.48,29.64-24.74,22-55.39.46,1.85-.2-2.27-1.66-1.81-13.66,4.37-5.12-4.08-7.8-18.3-7.09-9.47.28-9.53,5.82-11.5,6.16-2.19,11.28-1.66,14.8,4.73,1,1.75,2.94,2.93,4.33,4.26,1.09-.72,1.73-.91,1.95-1.31a20.38,20.38,0,0,0,1.59-3.77c3.8-12.94,11.7-23,22-31.28,23-18.44,40.29-17.8,61.17,2.86,4.9,4.84,7.89,4.31,11.9-.62,7.13-8.77,14.07-17.84,22.18-25.65a95.66,95.66,0,0,1,22.49-16.34c10.7-5.45,16.26-1.84,19,9.9,8.41,36.15,5.79,71.63-5.67,106.78-10,30.56-16,62.59-34.32,89.95-.79,1.18-.83,2.87-1.68,6.05,3.26-1.94,5.32-2.67,6.72-4.07C702.2,627.4,718,610.62,729.5,590.11a141.92,141.92,0,0,1,21.09-28.41c22.84-23.79,62.93-15.84,76.12,14.49,1.09,2.53,2.41,5,4.5,9.24a68.38,68.38,0,0,0,7.84-32.83c-.16-14.33-1.17-28.64-1.52-43-.52-21.41,7-39.45,23.76-53.06,8.59-7,14.39-6.63,23.11-.2,4.5,3.32,9.14,6.44,13.72,9.65l1.42-1.52C894.68,457.69,889.93,450.79,884.94,444.07ZM486.77,442s-17.87,0-17.87-12.77c0,0,7.66,7.66,17.87,5.11Zm20.43,0v-7.66c10.21,2.55,17.87-5.11,17.87-5.11C525.07,442,507.2,442,507.2,442Z" transform="translate(-9.31 -44.91)"/></svg>