<svg xmlns="http://www.w3.org/2000/svg" viewBox="0 0 1002 2137"><defs><style>.cls-1{fill:none;stroke-width:2px;}.cls-1,.cls-2{stroke:#000;stroke-miterlimit:10;}</style></defs><g id="base"><rect class="cls-1" x="1" y="1" width="1000" height="1000"/></g><g id="voltish"><path d="M630,155.31c-8.83,17.16-20,31.29-33.39,40.41-4.54-3.18-8.89-9.13-12.4-8.14-12.62,3.54-34.13,17.21-47.14,22.43.94,5,5.78,15.18,6.7,20.07,5.49-2.31,15.56-17.58,19.87-20.57,14.84-10.26,25.94-6.27,34.28,10.58,5.92,11.95,14,15.42,24.77,8.19,2.32-1.55,5.12-1.8,8.88-3.05-1.47,24.18-.76,46.5,8.2,66,2.6,5.65,5.58,11.89,9.75,15.18,10.09,7.95,17.82,17.82,22,32.39,1.69,5.94,4.48,11.29,6.78,16.9-4.6-19.23-7.06-40.1-22.42-50.8-3.4-2.37-7.06-5.93-8.62-10.25-7.92-21.87-11.07-45-5-71.18,6,3.41,11.81,6.62,17.55,10,14,8.32,14,8.36,25.06-8.25,3.47,22.79,6.37,44,10.12,64.83.83,4.56,4,10,7.31,11.55,12.58,6,23.13,15,31.93,27.82,7,10.14,14.81,19.28,22.71,29.45,9.72-12.75,18.87-24.73,28.77-37.7,1.92,5.37,3.62,8.89,4.49,12.77,3.78,16.81,11.13,28,25.81,29.58a40.47,40.47,0,0,1,14.81,5c4.4,2.38,71.35,16.91,75,15.44,2.47-1-25.8-7.08-40.78-12.36,0,0-14.83-3-14.92-2.83-15.73-.45-13.72-1.21-22.33-4.79-5.87-2.45-11.66-5.41-17.73-6.87-7.52-1.8-11.34-7.32-13.71-16.22-2.45-9.19-6-17.83-9.42-27.79l-29.52,37.52c-1.69-2-2.66-3.17-3.58-4.36-15.06-19.31-27.09-43.15-49.08-52.16-2-.81-3.3-5.84-3.8-9.27-3-20.48-5-41.3-8.58-61.54-2.48-13.94,3.44-22.36,10-32.32,5.33,5.26,10.19,9.93,14.94,14.77,21.63,22,42.75,44.88,71.76,51.33,5.66,1.26,9.24,1.42,13.47-5.24,12.09-19,11.84-17.35,28.5-8.32C851.33,254.61,865.8,272,872,299.31c2.31,10.2,38.54,56.45,44.12,61.82,2.21,2.12-23.42-33.53-21-31.75,0,0-8.35-10.6-10.88-14.69-1.25-2,3.16-1.51,3.16-1.51s49.25,30.2,49.28,30.18c-3-3-42.59-30.87-45.32-34.06-10.28-12-20.26-24.31-27-40.08a52.65,52.65,0,0,0-13.11-18.06c-10-8.87-20.79-16.27-33-25.64,4.88-4.25,8.75-10.21,11.77-9.79,5.66.8,11.38,1.62,17,2.71a61.28,61.28,0,0,0,6.72-1.16c3.61-.86,10.07-3.89,9.82-4.09,11.72-7.76,21.66-15.61,33.92-15.44,11.74.16,23.52-.49,35.31-1.1,1.27-.06,10,74.41,11.28,74.35.15,0,26.78,15,38.28,17.82,1.88.45,8.66,49.58,11.27,53.86,1.43,2.36-4.61-55.16-4.69-55.91-.12-1.3-39.59-18-39.78-19.62-2.42-21.72-9.34-70.84-8.21-70.89,2.35-.11,5.67.1,6.94-1.69,8.8-12.41,17.18-25.32,25.69-38.07l-1.47-1.58C966.37,163.23,960,171,955,180c-6.25,11.34-13.35,13.27-23.39,12.44-14.25-1.19-28.86-3-43,1.18,3.86-27.08,7.51-51.25,10.57-75.59,1-8.25,3.62-11.66,9.27-13.06,25.14-6.21,49.92-14.14,72.94-29.6.14-.1.31-.16.46-.25s.2-.27.29-.42.13-.2.2-.29a1.07,1.07,0,0,1,.12-.21c.22-.42.43-1.09.16-.25A4.71,4.71,0,0,1,983.76,72c.35-.88.7-1.77,1-2.67,1.08-3,2.05-5.95,3.12-8.9a112.57,112.57,0,0,1-9.78,8.45C955.46,86,929.89,92.76,904.57,99.58c-5.76,1.55-8,5.13-8.86,13.38-2.34,22.64-5.2,45.14-8.35,67.52-.6,4.27-2.83,10-5.13,15.47a53,53,0,0,0-8.84,4.93c-13,9-25.75,13.12-39.5,8.11-.51-.18-1.09-.12-1.61-.3-4.72-1.65-8.21.41-11.55,5.55-6.88,10.59-14.09,20.87-21.45,30.93-1.68,2.31-5.15,5.22-6.71,4.5-13-6-27.1-10.36-38.35-19.86-18.79-15.87-35.73-35.18-54.15-53.76-7.56,14.18-15.43,27.46-22,41.69-4.45,9.69-8.51,10.36-15,5.28-12.95-10.21-26.13-17-42.7-7-9.51,5.71-12.19,2.66-15.9-7.66,11.87-18.08,23-35.19,34.29-52a19.56,19.56,0,0,1,7.39-6.62c17.07-7.9,34.17-15.7,51.43-22.74,3.1-1.26,7.61-.05,10.35,2.17,10.1,8.22,19.65,17.48,29.61,26,1.93,1.65,5.35,3.35,7,2.21,10.29-6.94,20.28-14.7,30.37-22.18-9.44,3.55-17.93,9.7-26.8,14.54-2.89,1.58-7.57,1.27-10-.78-10-8.35-19.33-18-29.33-26.47-2.69-2.27-7.13-3.44-10.31-2.33-17.43,6.12-34.67,13.33-52.07,19.68C639.37,142.37,634.13,147.29,630,155.31Z" transform="translate(0.69 1140.69)"/><path d="M12.81,275.48c3.93,1,10.71,7.11,14.1,9.15,3,.33,5.61,5.88,9.52,8.51a29.61,29.61,0,0,1,5.27,4.42l.3.18a1.81,1.81,0,0,1,.72,1c.47.59.91,1.22,1.33,1.87,1,.5,1.55.85,1.4,1,0,0,19.59,15.69,21.32,16.12,3.09.77,5.52-4.19,8-6.85,17-18.58,33.74-37.47,50.89-55.75,2.13-2.27,6.12-2.28,9.14-2,2.26.19,4.33,2.52,6.51,3.85,20.06,12.28,32.58,9.1,47.89-12.16,11.67-16.18,32.75-16.71,40.58,1.29,8.86,20.37,24.09,21.38,38.75,25,2.95.74,6.78-1.8,9.88-3.79,11.49-7.38,22.52-16.42,34.37-22.36,8.28-4.15,17.65-5.53,26.49-5.81,8-.26,9.94,8.17,4.55,16.71-10.12,16-21.43,29.43-36,37.95.26,1,.54,2.08.78,3.12a48.34,48.34,0,0,1,2.74,12.16,28.57,28.57,0,0,1,6.17-7.72c10.62-10.13,21.77-19.34,32.06-30,4.65-4.81,7.8-7.59,13.67-3.93,6,3.77,13,5.11,20.54,7.86,1.47-6,15-10.42,16.14-15.13-.88-1.21-13.83-3.12-14.62-3.25-14.57-2.41-23.86-14-31.64-28.9-1.67-3.18-5.58-6.56-8.26-6.16a267.25,267.25,0,0,0-36.84,8c-6.58,2-14.89-5.24-17.56-18.36-1.77-8.71-2-18.23-4.56-26.39-4.61-14.5-10.5-28.23-15.59-41.6l31.7-33.16C285.23,90.9,279.22,66.56,274.12,41,271.7,28.88,265,18.43,259.07,8.11c5.68,19.75,11.35,39.51,17.57,61.14-24.71-.19-46.55-.5-57.45-32.22C225.05,59.1,237,71.1,253.31,72.82c19.21,2,28.45,10.74,39,38-5.83,5.84-11.51,13-18.12,17.76-6.37,4.61-13.69,6.81-21.66,10.57,2.45,3.95,3.78,7.12,5.79,9.18,13.91,14.2,18.21,34.44,20.95,56.47,1.56,12.47,6,24.17,9.36,37.25-11,14.42-26.23,18.67-39.61,7.91-9.15-7.36-15.24-22.17-20.94-35.05-10.21-23.06-19.09-47.17-29.24-72.65L174,173.76c-.17-.17-8.57,6.85-8.54,6.88l-1.29,3.12c-6.18-1.7-12.58-2.64-18.47-5.29-6.82-3.06-11.4-.66-14.93,7.45a12.26,12.26,0,0,1-2,3.27c-7,7.55-8.38,26.35-22,20.5-8.89-3.83-18.62-7.18-25.64-14.49-8-8.28-14.88-12.75-25.07-7.4a31.27,31.27,0,0,1-7.5,2.55c.11.37.2.74.3,1.1-.21.75-.42,1.5-.62,2.3l-6.1-3.55a34.66,34.66,0,0,1-6.21.36c-1.9-.07,0,7.92-1.89,7.59,2.35,1.44-22,25.71-19.62,27.17,2,1.22,27.05-28.61,29.09-27.37L54,204.36c.64-2.92,1.18-5.79,1.72-8.61,1.58-.4,3.15-.74,4.73-1,4.23-.67,10.45.08,12.7,3.6,10.46,16.34,25.6,17.84,40,21.69,2.15.57,5.13-1.53,7.3-3.32,1.7-1.4,3-4,4-6.45,8.33-19.29,19.21-26.16,35.27-17.34,3.63,2,10.62-1.69,14.58-5.49,7.35-7,13.61-16.11,21.84-26.2L218.45,216c-2,2.52-2.57,3.7-3,3.69-17.46-.23-29.44,11.23-41.16,28.37-4.18,6.12-19.15,6.37-25.86,1.65-16-11.25-25.22-5.1-36.89,12.1-12.43,18.33-37,43.73-43.15,48-2.57,1.8-26.54-19.71-26.54-19.71S20,270.77,7.32,269C8.73,269.37,11.43,275.14,12.81,275.48Z" transform="translate(0.69 1140.69)"/><path class="cls-2" d="M425,94.92l-25.45-8.54,32.75,17.47L459,116.68l11.25,25.57,12.43,23.08-8.36,30.46,10,5,14.47-51.25,15.41-34.29,7.64-39.72L521,65.88,477,54.15l7.73-20.46L470.44,56.46l46.9,13.2L512.88,88.9l-6,21.74L488.17,156.2l-11.91-17.49L462,110.48l-30.78-11.6-2.76-37.21a26,26,0,0,1-3.91-1.49,3.4,3.4,0,0,1-1.07-.91l-31.78-10L381.27,47.9l42.51,14.91Z" transform="translate(0.69 1140.69)"/><path d="M825.56,663.45c43.56-15.72,84.13,3.92,124.28,30.63C936.42,656.34,907,628.42,881.78,603c7-3.78,16.16,5.19,24.15-.87-9.43-7.08-17.53-15.73-28-19.65-66.52-45.29-109.34-1.95-131.28,2.68h-.08a13.1,13.1,0,0,1-1.71-.87,17.94,17.94,0,0,1-7.94-11,1.28,1.28,0,0,0-2.4-.5,74.67,74.67,0,0,1-14.65,20.86c-1.25.95-2.53,1.88-3.8,2.78a38.43,38.43,0,0,0-5.39,4.39c-.53.54-1,1.11-1.53,1.68-28.64,18-58.33,53.55-69,93.42a27.86,27.86,0,0,0-1.56-2.82,46.49,46.49,0,0,0-7.75-8.88,1.27,1.27,0,0,0-.4-.37c-1.36-1.25-2.75-2.46-4.13-3.65a1.06,1.06,0,0,0-1.84.82,1.09,1.09,0,0,0-.05,1.14A35.78,35.78,0,0,1,628,695.81a33.48,33.48,0,0,1-1.18,7.79.83.83,0,0,0-.61.7c-.2.92-.46,1.83-.7,2.73a63.82,63.82,0,0,0-4.08,8.39c-1.16,1.89-2.4,3.73-3.68,5.54-1,1.16-1.91,2.31-2.86,3.45a1,1,0,0,0-.19.84c-1.42,2-2.82,4-4.12,6a1.29,1.29,0,0,0,0,1.25,98.1,98.1,0,0,0-7.5,10.56c-.65,1.11-1.32,2.39-2,3.78a87.57,87.57,0,0,1,1.1-9.31,1.35,1.35,0,0,0-1-1.43,1.18,1.18,0,0,0-1.6.18A45.32,45.32,0,0,0,595,744a44.68,44.68,0,0,0-6.54,14.42c-1.4,5.54-2.31,11.31-3.28,17-.16.94-.29,1.88-.42,2.82l-.46-.44c-23-14.37-43.62-32.66-69-43.06-5.78-2.36-9.2-7.74-11.62-13.35-4.36-10.08-8.79-20.12-13.4-30.07a6.37,6.37,0,0,0,2,.37,2.72,2.72,0,0,0,1.85-4.61l-8-7.16c-.18-.17-.57-.47-1-.85l-.48-.54a2.27,2.27,0,0,0-.64-.46l-.44-.89a25.48,25.48,0,0,0,3.11,1,2.73,2.73,0,0,0,3-4c-.77-1.58-2.22-2.17-3.54-3.17-1.58-1.21-2.77-3.16-4-4.69s-2.79-3.16-4-4.9a2.85,2.85,0,0,0-.39-.67l-.32-.39a11.71,11.71,0,0,1-.66-1.2l.47.22a2.73,2.73,0,0,0,3.47-.73,2.66,2.66,0,0,0-.26-3.53c-4.13-3.27-8.4-6.43-12.34-9.93-.88-.78-1.75-1.59-2.56-2.44a2.62,2.62,0,0,0,2-2.55c0-4.55-3.85-7.11-7.47-9-.87-.46-1.7-.94-2.51-1.44l1.71.51c2.9.87,4.73-3.52,2-4.94a32.36,32.36,0,0,1-10.72-9.74c-1-1.4-2-2.84-3-4.29a12,12,0,0,1,.92-6.73c.32-.24.65-.47,1-.68,4-2.45,8.68-3.16,13.25-3.26,2.94-.06,3.71-4.69.65-5.29a23.94,23.94,0,0,0-5.65-.39c1.07-.72,2.13-1.46,3.17-2.21,3.06-.5,6.26-.58,9.29-.79,2.07-.15,4.14-.31,6.21-.34a10,10,0,0,1,2.31.15c.68.38,1.35.77,2,1.18,3.24,2,6.84-2.75,4-5.33a9.49,9.49,0,0,0-2.83-1.77A59.33,59.33,0,0,0,473.6,582,58,58,0,0,1,480,579.7c6.81-1.88,14-1.23,21-.56,2.18.21,3.8-2.38,3.19-4.3-1.73-5.5-8.26-8.49-13.51-9.56q-1.1-.22-2.22-.36,2.14-3,4.14-6.09c9,0,17.65,4.12,24.7,9.58a3.33,3.33,0,0,0,5.51-3.23,3,3,0,0,0-.11-.84,12.45,12.45,0,0,0-1.21-2.73c-2-4.35-4.23-8.53-7.77-11.86a104.8,104.8,0,0,0-10.77-8.65v0c2.08.66,4.14,1.37,6.14,2.19a78.62,78.62,0,0,1,13.68,10.22,3.27,3.27,0,0,0,2.89.75,3.59,3.59,0,0,0,5.79-.23A15.05,15.05,0,0,1,534,551.4a8.92,8.92,0,0,0,2.73-4.57c0-.23.08-.46.1-.68.5-.56,1-1.14,1.43-1.75-.27,1-.52,2-.69,3.07-.33,2-.37,4,1.22,5.56,1.73,1.68,4.42,1.31,6.31.14,3-1.87,4.23-5.65,5.47-8.78a123.93,123.93,0,0,0,4-11.84,8.16,8.16,0,0,0,7.19-2.87,58.54,58.54,0,0,1,24.92-1.47,3.49,3.49,0,0,0,3.77-1.59,3.37,3.37,0,0,0-.57-4.07c-6.22-4.82-13.48-6.95-21-7.4l.34-.46a63.59,63.59,0,0,1,7.87-2.05c10-1.88,20-.31,29.82,1.37,3.48.59,5.31-3,3.21-5.66-5.36-6.73-14.79-7.82-22.8-8.18-1.89-.09-3.79-.09-5.69-.07l.38-.4a101.86,101.86,0,0,1,10.44-3.27,71.48,71.48,0,0,1,17-2.27,53.06,53.06,0,0,1,8.54.57c3.06.48,6,1.21,9,.38a3.4,3.4,0,0,0,.73-6.16,38.75,38.75,0,0,0-12.24-4.62c3.11-.51,6.22-1,9.34-1.42a3.43,3.43,0,0,0,3-2.1,3.36,3.36,0,0,0-.74-3.67c-3.11-2.46-6.73-3.09-10.47-3.1a19.74,19.74,0,0,0,2.54-2.55c2-2.48.11-6.59-3.34-5.59a62.19,62.19,0,0,1-6.94,1.6c.41-.2.81-.37,1.21-.58,2.41-1.27,2-5.7-.88-6.13l-14.67-2.21c-1.76-.26-3.52-.52-5.28-.8a57.18,57.18,0,0,0,12.87-1.72c3.14-.8,3.19-5.83-.08-6.49A37.75,37.75,0,0,1,591,445.3a14.83,14.83,0,0,0,4.32,1c3.37.21,4.46-4.77,1.62-6.29-4.39-2.34-8.79-4.74-12.36-8.16a48.8,48.8,0,0,1-4.65-6.12,53.19,53.19,0,0,1-2.78-4.87,16.2,16.2,0,0,0-2.3-4c-.17-1.4-.32-2.81-.45-4.22-3.23-.08-6.22-3.14-9.24-9.23-16.66-33.5-24.77-66.75,2.48-99.51,6.52-7.84,12.43-25.77,12.43-25.77.13,2.06,5.2-24.75-17.89-33.42,0,0,9.64,18.72.37,30.94l-2.69,0h0c0,1.26-3,9.89-6.5,14.61a12.06,12.06,0,0,1-1.94,2.5,1.81,1.81,0,0,1-1.83.47,11.24,11.24,0,0,1-.73-8.06c.16-.57-.44-1.26-1-1a2.49,2.49,0,0,0-.46.25c.12-1,.29-1.93.47-2.89,0-.15,0-.29.07-.37a.91.91,0,0,0-.11-.53s0-.06.06-.09a6.09,6.09,0,0,0,0-3.17.88.88,0,0,0-1.16-.53,25.65,25.65,0,0,0,.14-6,.86.86,0,0,0-1.12-.75v-.89a.65.65,0,0,0-.1-.34q0-3.41,0-6.79a.84.84,0,0,0-1.64-.2c-.1.4-.17.8-.26,1.2-.07-1-.15-1.92-.2-2.88q-.06-.88-.09-1.77l.26-3c.05-.6-.46-.84-.94-.77,0-1,.11-2,.14-3a.78.78,0,0,0-.7-.79,36.42,36.42,0,0,0-1.38-7.92c-.23-.76-.47-1.52-.68-2.28,0,.53,0,1.06,0,1.59a18.36,18.36,0,0,1-.46-2.23c0-.22,0-.44,0-.66-6.63-19.76-19.12-46-38-41.94,0,0,15.93,15.69,19.3,54.76-1.47.15-2.94.34-4.4.54-10.3-18.54-37.35-62-58.76-50.45,0,0,22.06,14.36,38.24,60.44l-2.31,1.83c-9.83-10.28-52.16-51.91-74.21-31.19,0,0,26.73,6,53.61,49.6-.09.1-.16.21-.25.3-11.31-7.51-55.92-34.21-78.93-4.9,0,0,35.34-.6,66,32.74a75.14,75.14,0,0,0-.71,7.79c.83.93,1.62,1.88,2.38,2.83,3.93,4.92,8.47,8.86,12.49,13.62.12.14.23.29.35.44a3.33,3.33,0,0,0-2,4c1.62,4.87,5.94,8.06,9.25,11.76,1,1.11,1.95,2.26,2.89,3.42q2,4.44,3.68,9.11c-2.65-1.63-6.42,1.72-4.55,4.68A114,114,0,0,1,494,389.82c.11.94.22,1.89.32,2.84a30.64,30.64,0,0,0-5.76-4.23,3.38,3.38,0,0,0-4,5.33,41.54,41.54,0,0,1,10.56,17.8c-.72-.57-1.45-1.13-2.21-1.67a2.83,2.83,0,0,0-2.66-.28,26.12,26.12,0,0,0-2.76-2.11c-2.76-1.81-6.47,1.92-4.54,4.65a127.84,127.84,0,0,1,11.1,18.73c.08.42.13.85.2,1.28-.47-1-.93-2-1.44-3-1.7-3.34-7.64-.85-6.11,2.66a69.15,69.15,0,0,1,5.67,22.7c-.69,3-1.53,6-2.49,9l0,0a1.41,1.41,0,0,0-1.61.58l-.63.85a3,3,0,0,0-1.23-.94c.12-1.63-2.13-1.6-2.64-.32l-.29.72-.1.09a40.9,40.9,0,0,1-4.72,4.32,1.35,1.35,0,0,0-1.76.09l-.25.21a2.57,2.57,0,0,0-.74-.57,1.36,1.36,0,0,0-2.29-1.14q-3,3.27-6.23,6.23l-.59.18a1.34,1.34,0,0,0-1.65-1.44l-.14-.08a2.62,2.62,0,0,0-.84-3.14,2.66,2.66,0,0,0-3.53.25c-2.21,2.83-4.9,3.77-8.31,4.41-7.53-1.43-10.56-5.36-19.54,1.26C434,464.13,350,486.5,340,506.32c.76-1.5-2.23-2.52-3.27-3.83q-1.35-3.64-2.72-7.29c-6.66-17.92-13.7-35.7-17.12-54.64a45.2,45.2,0,0,0-4.2-12.16,4.46,4.46,0,0,1,.1-4.48,41.51,41.51,0,0,1,13-14.55c10.43-7.34,20.18-15.29,27.1-26.28,5.19-8.26,9.25-16.86,10.2-26.69a36,36,0,0,0,.15-4.41c-.15-7-1.36-7.87-7.89-5.62-6.12,2.1-11.81,5.18-17.67,7.88-8.74,4-18,6.82-26.63,11.09-9.86,4.87-17.46,11.67-20.26,22.8a15,15,0,0,1-3.44,6.18c-2.18,2.47-4.53,3.31-8.08,2.64-19.5-3.73-38.9-3.84-57.91,2.94-3.52,1.26-7.15,2.18-10.67,3.42-2.66.94-4.55.4-6-2.12-6.68-11.78-16.49-19-30.14-20.64-2.24-.27-4.45-.8-6.68-1.19a138.6,138.6,0,0,1-36.63-12c-.82-.4-1.62-.82-2.45-1.18-3.58-1.52-5.61-.27-5.44,3.57a36,36,0,0,0,7,19.89c9.37,12.87,22.52,20.37,37.06,25.79a85,85,0,0,0,23.05,5.43c2.48.19,2.93,1.62,2.77,3.7-.54,7.1-3.52,13.29-7.17,19.22-5.51,8.94-13,16.17-20.52,23.34-6.63,6.32-13,12.85-20.14,18.7-6.53,5.4-7.46,9.84-3.77,18,2.09,4.64,5.24,8.85,6.91,13.6,1.89,5.38,5,7.62,10.6,7.94,4.81.28,9.32,2.61,14.19,3.25a16.1,16.1,0,0,0,10.17-1.7,93.31,93.31,0,0,0,8.45-5c6.15-4.27,15.11-6.87,20.36-7.8,3.75-.66,11.66,2,15,1.42,9.55-1.76,17.89-3.12,26.75-6.8a184.21,184.21,0,0,0,29.25-16.17c8.39-5.67,9.71-18.48,13-27.54,2.58-7.13,3.3,19.44-4.91,26.84-7.24,6.53-20.64,16.65-29.68,19.8-11,3.84-16.39,6.72-27.54,10.06-2.28.69-4.74.77-7,1.3,1,10.92,3.5,22.48,5.87,33.46-.67-.46-1.34-.92-2-1.37-1.54-.18-3.08-.31-4.6-.39-26.38,2.15-62.92,12.72-77.54,34.07a51.57,51.57,0,0,0-14.29,13.15c-3.26,4.27-7.51,9.9-8,15.52l-.6,1a19.76,19.76,0,0,0-2.11,4.18c-.5,1.49-.33,3-.55,4.47a6.34,6.34,0,0,0,.36,3.25L123,631.4c-6.24,7.89,5,10.15-3.15,16.28l-1.75,5.11c-1.09,3.19,3.16,5.3,5.4,3.47a3,3,0,0,0,2.5-1c0,.11,0,.22,0,.33a108.07,108.07,0,0,0-5.81,11.65,3.47,3.47,0,0,0,1.26,4.58,3.41,3.41,0,0,0,4.59-1.26c.29-.54.61-1,.91-1.58a3.88,3.88,0,0,0,1.55,1.4,10.24,10.24,0,0,0,.28,1.19,33.25,33.25,0,0,0-2.54,12,3.39,3.39,0,0,0,4.34,3.14,22.63,22.63,0,0,0-1,11.58,3,3,0,0,0,2.3,2.27c-.06,1-.08,2,0,3a4.69,4.69,0,0,1,.91-.16c-.64,3.77-1.23,7.54-1.74,11.32a3.52,3.52,0,0,0,1.59,3.78,3.37,3.37,0,0,0,4.07-.57c.24-.31.47-.63.7-1a122.33,122.33,0,0,1-2,15.93,3.33,3.33,0,0,0,.92,3.15,60.57,60.57,0,0,0-2.7,15.5c-.11,2.69,2.49,3.7,4.51,3-.13.66-.27,1.33-.4,2q-3.24,16.17-6.47,32.34c-.73,3.64,4.22,6,6.18,2.52a74.87,74.87,0,0,0,5.5-12.16c.38,1.66.74,3.33,1.08,5a228.85,228.85,0,0,1-4.75,34c-.92,4.22,5.39,5.91,6.51,1.71.47-1.74.89-3.5,1.3-5.26-.45,11.1-2,22.22-3.58,33.13a3.48,3.48,0,0,0,2.4,4.11,3.4,3.4,0,0,0,4.11-2.4c.64-2.67,1.27-5.34,1.91-8l.06.46c-.11.56-.21,1.13-.33,1.68-1.06,4.82-2.83,9.37-4.32,14.06-1.56,4.91-2.44,10.16-.81,15.18a3.59,3.59,0,0,0,3.71,2.37q-2.43,10.75-4.85,21.5a3.39,3.39,0,0,0,5.65,3.21,35.29,35.29,0,0,0,4.85-5.45,113,113,0,0,1-4.45,21.05c-1,3.15,3.47,5.73,5.65,3.2a33.84,33.84,0,0,0,2.11-2.7c-6.7,17.68-6.69,31.88-26.18,33.66-16.94,1.55-20,16.18-21.72,28.74-1,7.51,13.48,19.1,30.75,14.26,6.17-1.73,13.43-22.16,16.46-21.94,1.38.09-9.87,13.5.24,20.07,3.67,2.38,19.11,1.45,25.12,1.37,5-.06,12.81-4,14.91-11.89.8-3,4.88-11.77,4.88-11.77s-.83,8.82.14,11.71c6.54,19.5,24.64,10.83,38.92,11.32,5.88.21,6-3.77,6.15-7.55.54-11.23-3.8-20.63-13-26.77-6.61-4.41-12.18-9.62-15.68-16.35a35.47,35.47,0,0,1-2.52-23.72c-4.8-4-6.19-7.4-9.82-12.73-5.45-8-12.08-16.24-17.28-24.41-3.22-5.08-6.29-10.53-8-16.34a.52.52,0,0,0-.1-.11,1.88,1.88,0,0,1-.47-2,32,32,0,0,1-.87-6.79c-.15-8.86,2.43-14.34,7.24-21.56,5-7.49,9.05-14.91,14.57-22,6.13-7.92,15.7-17,23.32-23.9,0,0-2.63-1.34-2.6-1.37a6.49,6.49,0,0,0,2-2.12,4.66,4.66,0,0,0,.25-.5c2.18-.74,3.41-3.32,1.5-5.4a3.4,3.4,0,0,0,3.68-3.37,12.55,12.55,0,0,0-2.12-6.47,2.94,2.94,0,0,0,.57-.27,3.4,3.4,0,0,0,1.15-4.61,24.47,24.47,0,0,0-2.71-3.9c-.81-1.27-1.56-2.58-2.24-3.91a3.33,3.33,0,0,0,2.26-4.14,105.74,105.74,0,0,0-5-11.62,3.32,3.32,0,0,0,1-3.47c-.72-1.85-1.38-3.71-2-5.59,1.9-.25,3.57-1.84,2.77-4.1l-1.41-4a3,3,0,0,0,.74-4.2,22.45,22.45,0,0,1-1.46-2.23,3.49,3.49,0,0,0,1.13-4.55l-1.14-1.94a2.79,2.79,0,0,0-.58-2l-.39-.53a6.89,6.89,0,0,0,.91-.29,3.83,3.83,0,0,0,1.83-1.42,2.65,2.65,0,0,0,1.09,1.49c7.38,5.06,15,10.43,19.11,18.64a2.66,2.66,0,0,0,3.37,1.06,2.74,2.74,0,0,0,1.52-3.19c-.08-.54-.19-1.08-.31-1.61l1.1.53a26.05,26.05,0,0,1,1.73,2.14q2.56,3.46,5.11,6.94c1.23,1.68,4.46,1.79,4.91-.7,0-.23,0-.46.07-.69a56.86,56.86,0,0,1,7.13,8,2.71,2.71,0,0,0,4.89-2.14l-.42-2.59c1.09,1.06,2.15,2.15,3.16,3.29,1.65,1.86,4.47.2,4.57-2a28.33,28.33,0,0,0-.08-3.57l.67.08a36.09,36.09,0,0,1,2.21,3.47c2.22,3.93,4.14,8,7.3,11.26,1.11,1.15,3.53,1,4.22-.59a15.68,15.68,0,0,0,1.33-6.41,49,49,0,0,0,8.53,5.3,2.87,2.87,0,0,0,3.66-1.11,52.54,52.54,0,0,0,7.58,4.32,2.74,2.74,0,0,0,2.62-.06c.43.47.82,1,1.24,1.45a5.85,5.85,0,0,1,2.43,1.79c.08,0,.17.07.26.13a26.81,26.81,0,0,1,4.22,3.18,1,1,0,0,1,.09.13,5.14,5.14,0,0,1,2.78.55,2,2,0,0,1-1,3.76,8.49,8.49,0,0,1-2.2-.23c-.52.1-1.09.26-1.44.36-1.41.41-2.78,1-4.14,1.49-3.13,1.22-6.41,2-9.58,3.1-7.57,2.67-14.72,6.35-22.28,9.06s-15.23,5-22.75,7.71c-3.72,1.36-7.32,3-11,4.47s-7.31,2.86-10.9,4.44c-3.17,1.4-6.2,3-9.38,4.4l-.49.21c-3,1.78-6,3.48-8.77,5.54-3,3-5.88,6.15-8.67,9.41-4.25,5-8.46,10-12.55,15.18-1.72,2.16-3.33,4.38-5,6.61a21.09,21.09,0,0,1-3.88,4.34,3.32,3.32,0,0,0-.18.59A45.26,45.26,0,0,0,189.53,848c-2.19,7.67.11,15.15,4,22.24.43,1.28.91,2.54,1.4,3.79,1.37,2.44,2.85,4.82,4.32,7.19.4,0,9.73,13.62,11.94,17.15a41.75,41.75,0,0,0,4.94,6.86c2,2.06,4.08,4,6,6.08,2.24,2.45,7.78,5.93,14.88,6.68,1.5,1.32,3.34,2.79,5.36,2.84a4.54,4.54,0,0,0,4.46-3.59,5.16,5.16,0,0,0,.11-.76l1.07.64c2.07,1.21,4.94,3.32,7.48,2.59a3.48,3.48,0,0,0,2.09-1.61c.52.23,1.05.46,1.55.7,3.21,1.5,6.68,3.65,10.35,2.64a1.85,1.85,0,0,0,.86-.55,8.91,8.91,0,0,0,6-.75,29.07,29.07,0,0,0,8.7,1.69,2.1,2.1,0,0,0,2-1.89c3.72,1.1,7.51,1.69,11.48.49a2,2,0,0,0,.93-3.21c3.11-.46,6.22-1.06,9.3-1.33a2.09,2.09,0,0,0,1.73-3c3.24-.39,6.46-.94,9.67-1.5a2,2,0,0,0,1.13-3l1.18-.53c1.21,0,2.41,0,3.61.07-9.84,15.26-19.13,30.23-39.55,32.11-16.41,1.5-34.08,33.57-24.16,46.93,3.73,5,15.12,9.21,24.08,4.51a20.83,20.83,0,0,1,7.23-2.68c-.71-2.81-4.24-19,4.77-29.74,0,0-6.23,24.57-1.48,29.93a19.38,19.38,0,0,1,6.53,3.12c8.43,5.74,21.29,1.67,29.16-3.5,5.66-3.73,9.62-5.46,12.91-5.32-1-4.91-2.93-18.77,5.09-28.36,0,0-5.68,22.39-2.07,29.09,2.55,1.18,4.84,3.73,7.53,7.65,1,1.42,7.06,3.33,8.72,3.31,11.62-.14,27.87-23.87,22.05-34.73a51.5,51.5,0,0,1-5.75-18c-.26-.59-.49-1.18-.7-1.75a24.71,24.71,0,0,1-1.2-8.75,94.29,94.29,0,0,1,.55-9.66,28.53,28.53,0,0,1,1.94-8.53,30.25,30.25,0,0,1,1.43-2.7c.81-2.49,1.74-4.94,2.71-7.39a1.74,1.74,0,0,0,2.79-.61,51.32,51.32,0,0,0,3.74-11.62,2.09,2.09,0,0,0,1.71-1.36,8.46,8.46,0,0,0,.38-1.37c.13-.48.25-1,.35-1.46,1.09.82,2.81.74,3.08-1,0-.18,0-.36.07-.54h0c.26-1.8.41-3.61.49-5.43,1.08.75,2.68.65,3-1a26.52,26.52,0,0,0,.23-9.49c-.05-.35-.13-.71-.21-1.07,4,4.19,8.89,8.81,14.68,8.26a4,4,0,0,0,3.21-2.6c1.86,1,3.71,2,5.64,2.91,3.56,1.58,7.34,2.4,10.73.85,2.12-.34,3.8-2.22,3.13-4.31a3.12,3.12,0,0,0-.24-.82,3.23,3.23,0,0,0-.72-1c-.34-.57-.68-1.15-1-1.73a31.88,31.88,0,0,0,14.79,6.68c4.22.68,5.9-5.18,1.71-6.51a12.9,12.9,0,0,1-6.61-5,30.43,30.43,0,0,0,6.13,3.23l.47.39a2.09,2.09,0,0,0,1.87.38,23.37,23.37,0,0,0,4.16.8,3.31,3.31,0,0,0,3-2.1,3.39,3.39,0,0,0-.49-3.35,51.27,51.27,0,0,0,5.4,3.35,3.27,3.27,0,0,0,2.71.22l.34.36q2.22,5,4.43,10c1.09,2.46,2.17,4.92,3.26,7.37a28,28,0,0,0,3.63,6.62,2,2,0,0,0,2.45.29,5.33,5.33,0,0,0,2.4-2.75,41.14,41.14,0,0,0,17.84,9.86c2.21.59,4.39-1.59,4.3-3.63a59.13,59.13,0,0,1,9.77,11c1.84,2.67,3.83,8,8,6.58,2.87-1,2.51-3.72,1.43-6.28,1.31.88,2.62,1.74,3.95,2.57,2.73,1.69,5.7,3.66,9,2.58a3.34,3.34,0,0,0,1.81-1.36,37.68,37.68,0,0,0,3.54,2.38,41.92,41.92,0,0,1,9.11,7.86,9.79,9.79,0,0,0,2,2,2.47,2.47,0,0,0,3-.61c1.41-1.67.23-3.33-.87-4.73a7.88,7.88,0,0,0,4.76,1.79,4.55,4.55,0,0,0,3.21-1.61l.52,0c1.22.32,2.44.64,3.67.89,2.08.43,4.84,0,5.44-2.33,2.54.61,5.1,1.16,7.69,1.61a2.08,2.08,0,0,0,2.45-2.37,7.52,7.52,0,0,0,3.2.21c1.89-.3,1.69-2.83.43-3.69-.72-.5-1.45-1-2.19-1.45l8.35.8a1.67,1.67,0,0,0,1.9-1.64,16.62,16.62,0,0,0,5.22-1l.66-.25c11.75,2.49,21.67,11.84,26.23,26,2.49,7.75,4.8,16,4.79,24,0,9.25,1.91,16.08,6.73,21.15a16.9,16.9,0,0,0,2.63,4.08,59.43,59.43,0,0,0,11.16,9.6c4.45,2.87,10.12,2.6,15,1s8.76-5.56,8.69-10.95a9.93,9.93,0,0,0-1.53-5.26,2.69,2.69,0,0,1,.56,0c-3.12-8-12.11-16.08-12.11-16.08,11.3,2.52,12.83,12.67,13,16.9a34.8,34.8,0,0,0,2.51,2.5c4.93,4.23,10.71,8.27,17.19,9.52,5.28,1,11.27.07,13.78-5.31a11.07,11.07,0,0,0,.93-6.39.68.68,0,0,1,.21-.2c-2.13-8.67-12.78-18.2-12.78-18.2,12.55,2.8,13,15,13,18.09l.13-.07c1.85,1.6,3.82,3.08,5.79,4.53,6.27,4.59,12.38,9.87,20.29,8.74,6.68-1,8.28-7.67,7.41-12.27-3.62-19.29-17.82-28.12-37.74-32-26.33-5.07-29-39.24-45.87-59.08-1.59-1.87-2.07-3.53-1.88-5-4.92-7.37-9.38-15.08-14.14-22.61-2.18-3.44-4.33-6.92-6.46-10.4.81-1.7,1.58-3.41,2.29-5.13.92-2.21,1.8-4.43,2.62-6.66,1.51-3.32,2.89-6.71,4.08-10.16,1.65-4.75,3-9.59,4.71-14.28,1.58-2.77,3.19-5.51,4.87-8.22,1.27-2.06,2.6-4.08,3.93-6.1q3.88-3.39,7.89-6.61c7.85-6.32,16.19-13.22,25.89-16.62,10.34-3.63,22.05-2.72,33.27-1.91,2.76.2,2.32-3.7.36-4.87a55.9,55.9,0,0,0-35-8c27-18.49,53.62-38.31,86.11-45.58,5.64-.07,3.9-7.62-1.32-8.57-32.48-5,5.75-6.6,13.08-15.51,24-6.34,46.17-8.54,73.39-3.51C855.57,676.36,843.17,667,825.56,663.45ZM568.37,253.31c15,11.93-3.6,36.37-3.6,36.37C573.92,266.7,568.37,253.31,568.37,253.31Zm-22.83,32.84h0Zm-31.78-81.23c30.48,27.72,15.92,80.84,15.92,80.84C530.53,244.8,513.76,204.92,513.76,204.92Zm-41.91,3.78c38.5,18.6,42,81.32,42,81.32C501.17,245.51,471.85,208.7,471.85,208.7Zm-52.38,68.06c47.48-11.35,65,43.83,65,43.83C467.15,289.7,419.47,276.76,419.47,276.76Zm19.32-41.46c45.71,4.65,59.55,67.55,59.55,67.55C480.88,262.24,438.79,235.3,438.79,235.3ZM144.85,396.93a85.46,85.46,0,0,1,15.07,1.49l-30.41-24.73S170,400,178.38,403.22c0,0-16.74-1.47-15,.18a151.93,151.93,0,0,0,26.89,9.72S165.1,411.75,144.85,396.93ZM239.7,444.2s1.36-18.84,21.92-11C261.62,433.22,255.9,445.23,239.7,444.2ZM295.83,411c24-17.54,31.22-28,31.22-28-11.73-1.53-15.15-8.18-15.15-8.18,33.27-15.46,38.74-17.66,40.22-18.85l.21-.17-.21.17-23.88,19.78a110.38,110.38,0,0,0,22.09-4.74C325.16,403.64,295.83,411,295.83,411Z" transform="translate(0.69 1140.69)"/></g></svg>