<svg xmlns="http://www.w3.org/2000/svg" viewBox="0 0 5340.21 5330.61"><defs><style>.cls-1{fill:none;stroke:#000;stroke-miterlimit:10;stroke-width:2px;}.cls-2{fill:#3f0101;}</style></defs><g id="base"><rect class="cls-1" x="2207.75" y="29.98" width="1000" height="1000"/></g><g id="x1"><path d="M-1559.08,846.22c.9.85,1.74,1.61,2.51,2.3A10.47,10.47,0,0,0-1559.08,846.22Z" transform="translate(2207.44 1169.67)"/><path d="M-2207.41,1207.43h0C-2207.46,1207.49-2207.45,1207.48-2207.41,1207.43Z" transform="translate(2207.44 1169.67)"/><path d="M-282.88,1087.55c-.58-5.39-12.55-12.31-26.82-15.71,25.25,1.48-6.2-6.82-25.87-5,3.92-1.21,7.74-1.07,11.63-1.4-1.49-5.21-50.37,2.4-28-3.87-10.15-4.17-49.59,7.39-28.34-.7-3.72-1.19-18.24.48-26.29,2.51-.61-1.92-.33-12.41-3-14.29-2.31-1.64-7,1.75-9.33.21-15.94-10.52-33.88,10.54-34.85,14.16-5.06,2.41-9.27,9.36-5.5-.39-1.15.48-6.57,9.44-12.47,9-2.9-.2-10.35-2.89-8.56-9.86.75-2.87-8.63,12.42-11.61,12s-5.59-11.54-6.2-14.27c-1.34-6-2.25,11.78-2.86,10.91-2,5.18-10.2-14-11.17,1.87.21-3.41-8-11.12-9.26-10.47-1.86,5.86,12.12,14.09,2.05,9-19.25-3.61-22.57-38.85-47.18-25.22-4.46,2.48-4.72,4.35-7.26,8.57l-5.82,9.71c-8.28-2.64-18.59-5.61-23.48-5,23.41,9.93-29.92-7-32.3-2.62,37.46,6.68-70.36-6.9-18.3,2.73-19,0-36.61,4-38.56,9.31,30-8.27-8.86,6.53-3.4,16.59a27.54,27.54,0,0,1,15.48-8.35c-5.21,4.84-20.18,26.45-.84,15.42,3.09,7.24-12,26.77,3.14,11.44,7.53,7.73-2.23,29,3.48,25.34,12.89-2.56,3.18,17.2-.08,22.56,7.26-2.86,15.67-4.6,18.51-9,10.69,5.11-7.65,19.61-7.65,19.61,12.3,2.66,14.56-6.75,16-5.65,9.31,7.32-3.66,11.31-3.66,11.31,8.65,7.31,20.75.19,21.61,3,1.33,4.32-11,6-11,6,8.64,6.65,24.94-1.33,24.94-1.33,4.65,2.33-4.66,10-4.66,10,8,0,21.25-9.77,24.61-13.3-.12,3-8.65,13.3-8.65,13.3,4.66,4.32,21.11-5.88,22.61-4.33,8.64,9-8.31,12.64-8.31,12.64,1.33,8,15,5,15,5,1.61,3.86-12.3,13.3-12.3,13.3,5.65,3,12.73-1.36,13.63-.67,16.29,12.64-.33,19.29-.33,19.29,9.31,5,24.93-6.32,24.93-6.32,2.66,5-3,14.29-3,14.29,7,1.67,10.26-5.73,11-5,6.24,6.5,3.33,13.3,3.33,13.3,3.89,1,10.36-1.38,11.4-3.56,6.13,12.36,7.94,4.11,7.94,4.11,6.76,2,2.49,9.53,2.49,9.53,7.11-4,6.85-6.66,8.06-6.93,16.69-3.67,3.21,6,3.21,6,13.2-2.34,20.06-10.18,20.21-7.56.43,7.49,12.06,7.34,11,6-4.64-6.09-.7-7.2,3.68-7.9,1.07-.17,1.17,5,9.85,5.53-4.73-14.4,2.7,1.46,19.17-2.65,0,0-6.4-13.28,2.07-15.5.85-.22,8.35,3.58,13.3,1.66,0,0-5.32-4.65.66-7.64,1.19-.6,3.66,5.65,15.63.66,0,0-9.27-11.28-7.65-13.63.8-1.16,8.65,8,11.31,3,0,0-8.33-9.62-6-12,.94-.94,8.65,1.33,15.3-2.66,0,0-9.71-7.61-8.32-11.3,0,0,18.62,6.65,23.94,1.33.07-.06-11.63-6.65-8.64-16.3,0,0,6,12.64,25.27,9.65,0,0-9.64-2-7-7,0,0,14.29,6.32,26.93,5.32-14.33-17.22,10.1-4,17.29-11.3,0,0-7-3.95-6.32-9.64.63-5.12,14.29.61,19.18-1.31,0,0-9.46-9.17.92-15,1.51,3.83,2.91,7.44,7.5,10.15-1.6-4.53-6.16-21.85,2.5-18.63.73,1,5.28,6.13,4.34,5-2.07-7.38-5.17-15.08-1.7-21.89,0,0,3.87,4.93,9.57,5,0,0-9.28-14-3.12-19.75,0,0,5.56,9.44,5.24,8.48-3-9-1.55-19-3.78-22.92a19.88,19.88,0,0,1,9.47,9.84C-277.86,1094.93-303.29,1074.47-282.88,1087.55Zm-172.06-19.27c-.82.3-.84-.12.45-1.87Z" transform="translate(2207.44 1169.67)"/><path d="M-659.33,942.23c1.27-2.15,4.81-1.37,4.65,1-.09,1.38-.48,2.74-.67,4.06-2.57,17.82,0,35.55,19.09,43.82,9.8,4.25,49.31,25.09,49.16,20.7-.41-11.72,8.45-37.82-4.42-47.69-1.36-1-4.26-1.89-2.77-4.11,1.24-1.86,3.85-1.07,5.66-.46,19.59,6.62,16.52,53.2,17.16,58.91,1.06,9.48,17,26.79,20,27.93,13.19,5.1,7.09,8.47,5.65,16-2.25,11.69-12.58,12-24.36,10.11-9.24-1.47-12.82-8.62-8-16.21,2.61-4.11,1.79-6.63-1-9.81a75,75,0,0,0-11.07-10.4s-8.25-7.78-11.86-12.28l-.16-.2a163.41,163.41,0,0,0-25.62-14.16C-661,994.37-680.91,978.91-659.33,942.23Z" transform="translate(2207.44 1169.67)"/><path d="M-328.11,945.56c-1.26-2.15-4.81-1.37-4.65,1,.09,1.37.48,2.74.67,4,2.57,17.83,0,35.56-19.09,43.82-9.8,4.25-49.31,25.1-49.16,20.7.41-11.71-8.45-37.82,4.42-47.68,1.36-1.05,4.26-1.9,2.78-4.12-1.25-1.86-3.86-1.07-5.67-.45-19.59,6.62-16.52,53.2-17.16,58.9-1.06,9.48-17,26.79-19.94,27.93-13.2,5.1-7.09,8.47-5.66,16,2.25,11.7,12.59,12,24.36,10.12,9.24-1.47,12.82-8.62,8-16.21-2.61-4.12-1.79-6.64,1-9.81a75.92,75.92,0,0,1,11.07-10.41c-.05,0,8.25-7.78,11.86-12.28,0-.07.11-.13.16-.19a163.45,163.45,0,0,1,25.62-14.17C-326.46,997.69-306.53,982.24-328.11,945.56Z" transform="translate(2207.44 1169.67)"/><path d="M-970.1,1070.08c-.29-3.5-6.43-8.16-13.91-10.61,13.11,1.35-3.31-4.65-14-3.83,2.17-.74,4.27-.57,6.39-.71-.81-3.54-28.68.63-15.61-3.25-5.87-3.13-29.7,4.12-16.64-1.17-2.25-.94-11.18-.12-16.24,1.14-.38-1.41-.2-9-1.9-10.47-1.47-1.27-4.48,1-6-.17-10.49-8.41-22.69,6.77-23.36,9.49-3.52,1.7-6.49,6.92-3.84-.45-.8.34-4.64,7.07-8.85,6.63-2.09-.22-7.52-2.48-6.21-7.87.54-2.22-6.37,9.51-8.6,9.15s-4.21-9.27-4.67-11.46c-1-4.8-1.72,9.31-2.18,8.6-1.55,4.09-7.87-11.47-8.62,1.24.16-2.74-6.28-9.22-7.32-8.73-1.48,4.72,9.54,11.71,1.63,7.37-15.59-3.46-18.35-32.88-39.41-22.75-4,1.9-4.18,3.5-6.44,7l-5.24,8.18c-7.57-2.6-17.21-5.63-21.86-5.26,21.79,9.55-29.64-7.74-32.09-3.82,37,7.63-79.42-10.64-19.32,1.7-21-.94-41.41,2.18-43.74,7.38,34.37-6.79-10.67,6.21-4.07,16.44,4.35-3.68,9.67-6.68,18.23-7.91-6,4.63-23.9,26-1,15.1,3.56,7.1-14.13,26.56,3.62,11.2,8.56,7.43-2.57,28.4,4,24.62,14.42-2.93,3.59,16.53-.1,21.94,8.18-3.22,17.48-5.39,20.57-9.71,11.47,4.25-8.38,19.22-8.38,19.22,13.41,1.59,15.83-7.45,17.32-6.51,9.79,6.19-3.91,10.92-3.91,10.92,9.18,6.15,21.72-1.45,22.6,1.06,1.35,3.87-11.33,6.47-11.33,6.47,8.95,5.37,25.31-3.35,25.31-3.35,4.56,1.71-4.61,9.46-4.61,9.46,7.88-.74,20.65-10.61,23.81-14-.11,2.63-8.21,12.53-8.21,12.53,4.44,3.42,19.77-7,21.13-5.75,7.79,7-7.64,11.78-7.64,11.78,1.23,6.87,13.65,2.9,13.65,2.9,1.44,3.17-11.19,12.86-11.19,12.86,5.18,2,11.58-2.6,12.38-2.1,14.3,8.94-.3,16.67-.3,16.67,8.25,3.07,21.71-8.41,21.71-8.41,2.24,3.86-2.55,12.37-2.55,12.37,5.91.5,8.65-6.08,9.24-5.55a9.83,9.83,0,0,1,2.76,10.62c3.2.28,8.46-2.49,9.3-4.41,4.91,9.28,6.34,2.34,6.34,2.34,5.32.74,2,7.39,2,7.39,5.57-4.19,5.36-6.27,6.3-6.64,12.71-5,2.48,4.4,2.48,4.4,10-3.56,18.45-3.92,18.56-1.88.32,5.82,8.79,4.25,8,3.3-3.37-4.16-.51-5.49,2.65-6.54.76-.26.83,3.71,7,3.11-3.34-10.5,5.22.79,16.54-4.2,0,0-4.35-9.3,1.4-11.82.57-.25,5.57,1.84,8.84-.07,0,0-3.51-2.93.43-5.71.78-.55,2.39,3.82,10.09-.93,0,0-5.94-7.44-4.9-9.3.52-.91,5.54,5.1,7.22,1.26,0,0-5.3-6.34-3.8-8.23.6-.75,5.48.32,9.63-3,0,0-12.73-11.48-11.85-14.24,0,0,11.54,3.56,14.76-.56,0,0-7.09-4-5.25-11.08,0,0,3.64,8.65,15.12,5.43,0,0-5.69-.86-4.11-4.5,0,0,8.36,3.64,15.57,2.27-8.19-11.18,5.64-3.24,9.6-8.52,0,0-3.86-2.37-3.47-6.26.35-3.49,7.8-.14,10.43-1.61,0,0-5.1-5.81.49-10,.8,2.5,1.55,4.86,4,6.5-.84-3-3.26-14.33,1.31-12.38.39.65,2.76,3.9,2.27,3.19-1.08-4.81-2.7-9.84-.89-14.38,0,0,2,3.18,5,3.13,0,0-4.8-9.08-1.6-12.89,0,0,2.85,6.13,2.69,5.51-1.53-5.89-.79-12.38-1.94-15a12.19,12.19,0,0,1,4.84,6.42C-967.56,1074.88-980.63,1061.31-970.1,1070.08Zm-102.15-15.93c-.57.21-.59-.12.31-1.41C-1072,1053.21-1072.15,1053.68-1072.25,1054.15Z" transform="translate(2207.44 1169.67)"/><path d="M-1250.61,927.91c1.38-1.82,5.23-.41,5.06,1.82-.1,1.3-.52,2.52-.72,3.73-2.8,16.51,0,33.76,20.22,44,10,5.07,48.15,27.61,48,23.75-.38-10.29,7.71-32.05-4.1-42.33-1.27-1.11-4-2.26-2.59-4,1.16-1.47,3.6-.4,5.28.39,17.72,8.37,15,48,15.56,53,.94,8.22,14.84,23.9,17.35,25,11.07,4.86,6,7.41,4.78,13.61-1.89,9.72-10.72,9.73-21,7.85-8.28-1.52-11.54-7.85-7.16-14.25,2.35-3.45,1.61-5.67-.92-8.56a75.3,75.3,0,0,0-10.14-9.72s-7.73-7.43-11.17-11.7l-.15-.19a185.43,185.43,0,0,0-25.21-15.07C-1252.42,977.44-1274.9,959.72-1250.61,927.91Z" transform="translate(2207.44 1169.67)"/><path d="M-993.94,973.93c-.7-1.57-2.65-1.37-2.56.27,0,.94.26,1.9.37,2.81,1.41,12.27,0,24.08-10.73,28.46-5.65,2.31-29.48,14.74-29.38,11.58.25-8.42-5.33-28,2.75-34,.84-.63,2.63-1,1.72-2.7-.77-1.45-2.39-1.12-3.52-.85-12.45,3-10.46,37.36-10.87,41.5-.69,6.89-11.14,19-13.11,19.73-9,3.38-4.78,6.11-3.81,11.77,1.52,8.81,8.42,9.19,16.11,8,5.92-.92,8.18-6,5.13-11.66-1.66-3.07-1.14-4.88.65-7.1a46,46,0,0,1,7-7.1s5.09-5.22,7.29-8.26l.1-.13a84,84,0,0,1,15.21-8.64C-993,1009.22-982.33,1000.17-993.94,973.93Z" transform="translate(2207.44 1169.67)"/><path d="M3128.83,4160.94c1.31-.7,2.62-1.43,3.93-2.17C3131.45,4159.51,3130.14,4160.24,3128.83,4160.94Z" transform="translate(2207.44 1169.67)"/><path d="M-3309.24,7227.81" transform="translate(2207.44 1169.67)"/><path d="M-429.13,122.86a1.17,1.17,0,0,0-.05.11S-429.15,122.93-429.13,122.86Z" transform="translate(2207.44 1169.67)"/><path d="M-562.32,312.67l-.13-.17,0,0Z" transform="translate(2207.44 1169.67)"/><path d="M-490.82,480.69c-4.43-3.53-9.47-.41-14-1.81-1.45-.45-3.34-.58-4.23-1.57q-12.31-13.79-24.3-27.88c-2.24-2.64-4-5.71-6.24-9.06,3.77-1.88,7.09-3.57,10.43-5.22,8-3.94,21.42-4,34.63-10.34,13.49-6.45,12.77-16.2,9.36-24.38-.48-1.16,3.56.67,5.69-1.46,0,0-4.26-1.07-7.46-7.46-.63-1.27,0-1.07,4.27-3.2,0,0-5.33-6.4-9.6-10.66-1.33-1.33,2.13,0,5.33,1.07,0,0-4.26-14.93-24.47-18.66-.68-.12-1-.9-1.5-1.3-2.06-1.67,3.59-.3,10,1.84a55.68,55.68,0,0,0-22.81-10.67c-1.52-.34.43-2.13,2.56-2.13a67,67,0,0,1-13.86-4.26c-1-.43,2.14,0,5.33-1.06,0,0-8.52-4.27-12.79-4.4-.3-1-1.23-3.15-1.06-5.2,0-.39,1.06,0,3.19,4.27,0,0-.46-16.41-1.59-18.13-6.37-.53-27.25-.09-32.81-1.86-2.6-.82-9.67-3.18-11.91-4.65a68.63,68.63,0,0,1-5.86-4.33c-1.87-1.53-10.41-8.6-12-10.45s-9.71-13.89-12.75-18.1c-1.39-1.93-2.75-3.9-4.2-5.79.3,2.19.43,4.43.57,6.57.38,5.93.14,11.86.23,17.8,0,2.62,0,5,.21,7.58a40.12,40.12,0,0,1-.62,10.32h0a8.64,8.64,0,0,1-.63,1.58c-1.14,2,1.46,4.53-7.07,8.8-1.31.65,7.23,1.64,3.48,3.12-6.38,2.52-13.14,6.69-14.14,8.6,0,0,7.83.75,6.11,1.25-2,.6-12.15,3.08-16.77,9.41-.16.23,4-3,6.4,0,1.35,1.66-13.05,7.45-13.86,12.79,0,.2,11.17-2.53,8.14-.87-4.5,2.45-11.35,4.17-18.24,11.46,0,0,12-2.7,8.14,1.39-5.06,5.29-14.29,5.75-17.9,11.54,0,.05,3.91.23,5,2.43-1.78,3.73-2.71,7.71-12.42,7.11,0,0,7.08,4.71,7.5,5.53,2.89,5.61-4.91,3.88-4.91,3.88-1.25,8,6.45,4.28,7,5.71.77,1.89-19.68,7.38-24.8,7.8-3.09.26-6.81,1.32-8.92,3.38a248.15,248.15,0,0,0-20.17,21.74c-7,8.72-14.33,20.25-21,29.31a21.13,21.13,0,0,1-4.18,4.6c-8.36,6.19-10.72,18-10,27.76.3,4.08,4.48,3.13,10.85,2.62,5.3-.42,4.12-7.59,3.75-8.89-.54-1.91.49-2.22,1.44.29,1,2.76,1.15,8.28,3.73,8.61,4.91.63,5.93.68,10,.09s4.89-1.52,2-9.56c-.16-.46-.2-1.27.58-.29,2.3,2.87,2.87,10.05,4.59,10.05,0,0,6.86.34,7.61-2,2.12-6.49,1.61-15.34-.76-21.92a6.54,6.54,0,0,1,.62-5.08c4.06-6.06,9.17-14.33,13.9-19.86s10.32-10.64,15.73-15.71c1-1,3-1.09,4.63-1.33,8.86-1.38,17.77-2.44,26.57-4.06,5.11-.95,11.73-1.32,15.77-4,1.72-1.14-.48,3.13-.48,3.13,3.23.49,6-.94,7.09-2.69,3.35,1.47.72,4.76.72,4.76,4.38-.44,12.22-10.75,15.76-11.82a8.91,8.91,0,0,0-2.88,7.4s14.06-12.08,16-17.29c.6-1.6-3.27,9.95-3.27,9.95,7.14-3,17.31-17.07,18.15-18.71,5.46-10.62,8.23-9.22,13.21-16.94,1-2.7,8.47-16.47,10.06-20.1.69-1.6-.22,8.62-7.69,20.4,1.07,4.26,2.13,11.72,2.13,11.72,1.07-2.13,4-6.64,4.27-6.39,2.13,2.13,0,8.52,0,8.52,2.13-1.06,5.33-4.8,5.33-4.26,0,3.2,2.13,8.53,2.13,8.53,0-5.33,1.36-4.44,1.59-3.77.54,1.64,4.8,7,4.8,7,0-3.2.35-4.13.62-3.54a9.21,9.21,0,0,0,7.91,5.67c-2.13-3.2,1-1.82,2.13-2.13,0,0,2.14-.95,2.46-1.17,3.32-2.36,10.72-6.3,9.35-5.23-2.58,2-6,5-9.76,7.47-4.33,3.59-14.59,12.64-17.33,15.37-3.38,3.37-4.06,7.36-1.77,11.7,2.69,5.11,5.42,10.21,8.07,15.35,5.22,10.14,13,23.29,17.6,33.7s9.68,16.71,21.17,16.63c4.5,0,9.25-2.54,13.46-1,6.55,2.37,15.92,1.75,17.1-.42,6-11.2-6.57-15-6-14.93,9.77.28,9.38,12.61,10.06,11.48C-481.64,498.9-480.21,489.14-490.82,480.69Z" transform="translate(2207.44 1169.67)"/><path d="M-464.49,236.65c3.55-4.14-.33-5.26-2.44-3.19-1.34,1.38-3,2.26-5.08,5.54-1.27,2-5.1,11.88-5.71,12.14-1.83.77-1.36-2.36-1.36-2.37.47-1.48,3.57-7-.34-6.46-4.47,3.86-4.41,8.95-3.29,15.09.89,4.85,1.74,7.89,2.7,8.47a6.38,6.38,0,0,0,5.3.59c4.09-1.1,6.94.37,9.45-2.77,2.88-3.61,1.75-7.9,2.57-10.45.59-1.86.61-3.34,2.38-6.47,1.06-1.88,2.24-4.27,4.48-6a1.25,1.25,0,0,0-.61-2.32c-1.59.47-5,3.82-6.28,6.09-1.83,3.34-3.38,6.07-3.38,6.07,1.4-4.08,1.58-5.45,3.28-8.37,1-1.7,3.28-2.89,5.8-6.48,1.92-2.73-.9-3.22-2.52-2.06a43.11,43.11,0,0,0-6.72,6.67c-1.65,2.1-3.5,7.35-4.3,9.14a.37.37,0,0,1-.62.12C-468.88,243.37-469.4,242.4-464.49,236.65Z" transform="translate(2207.44 1169.67)"/><path class="cls-2" d="M-533.19,294.89c0,.37-.07.57-.07.55C-533.23,295.25-533.21,295.07-533.19,294.89Z" transform="translate(2207.44 1169.67)"/><path d="M-505.75,290.6c-4,.21-2.87,9.9-6.94,9.67h0a2.78,2.78,0,0,1-.4-.59v0c-4.21-9.35,7.87-27.64,1.74-24.33-3,2.31-5.89,10.07-7.12,14.71-.18.68-.12.47,0-.23.61-4.14,1.52-11.87,2.53-14.27.9-3.21-1.46-4.62-3.13-1.87-2.85,4.68-3.46,9.09-4.5,11.44-1.21,4.49-2.1,9.51-2.26,9,.22-3.16-1.11-3.62.91-9.64,2.09-6.2-1.78-6.67-3.59-2.6-3.3,4.85-3.21,19.75-3.34,19.83s-25.18-5.19-31.43-6.49l0,0c-1.62-.31-3-.61-3.61-.75a.49.49,0,0,1-.33-.25c-3.67-6.71-14.87-22.88-25.48-31.35a.52.52,0,0,1,.57-.87c12.73,6.58,19.45,16.47,26,27.2a.48.48,0,0,0,.31.23c6,1.58,20.79,4.12,26.6,5.87a.53.53,0,0,0,.65-.34c1.75-5.81,3.56-16.49,4.71-25.53.11-.82,0,1,2,1a34.45,34.45,0,0,1-1-6.06c0-.67,1,1,3,0,0,0-3-4-3-5.05,0-.51,3,0,4-1,0,0-4-4-4-6.51,0-.39.6-1,.65-.59.3,2.06,5.35,3.07,5.35,3.07-1-1-.94-2.55-.63-2.28a6.17,6.17,0,0,0,5.67,1.27c-2-1-1.67-2-1-2,3.72-.1,7.71.26,14.34-.33,1.6-.14,2,.54,2.78,1.17,6,6,12.91,5.82,21.94,10.49-.19-.63-.36-1.26-.51-1.87-1.14-4.66-2.23-9.66-.58-14.32a.55.55,0,0,0-.08-.51c-13.46-17.07-14.55-10.88-32.33-17.05a.69.69,0,0,0-.2,0h-.14a18.15,18.15,0,0,1-4.26,3.88,28.15,28.15,0,0,1-5.86,3.42A22,22,0,0,1-530,237a17.62,17.62,0,0,1-2.32.64c-.46.1-.9.28-1.35.42a1.5,1.5,0,0,1-.23.6l-.05.06v0a2,2,0,0,1-.81,2.53c-3.88,1.78-8.42,1.5-12.4.17-.64-.22-1.29-.4-1.93-.62-.9-.25-1.78-.53-2.64-.81a.51.51,0,0,0-.46.08,7.91,7.91,0,0,1-3.51,1.16,17.88,17.88,0,0,1-1.86.66,24.47,24.47,0,0,1-5.24.84c-1.59.09-3.17-.07-4.76-.13a2.12,2.12,0,0,1-.39.33,2,2,0,0,1-2.75-.72A40.39,40.39,0,0,0-573.2,238l-.64-.19a19.7,19.7,0,0,1-2.6.84,8.9,8.9,0,0,1-2.56.28h-.08a15.38,15.38,0,0,1-3.77.21l-.11,0a2,2,0,0,1-2.48-1.41c-.26-1.3-.7-2.54-1-3.83a.52.52,0,0,0-.93-.18,9.44,9.44,0,0,1-2.29,2.3c-.92.92-1.62,1-2.15.62a3.11,3.11,0,0,1-.44.08,2,2,0,0,1-2-2v-.2a.82.82,0,0,0,0-.18,4.67,4.67,0,0,0-.18-.64c-.14-.43-.31-.85-.41-1.29a19.21,19.21,0,0,1-.25-3.21l0-.39s0,0,0-.08c0-.2-.07-.4-.11-.6s-.08-.28-.12-.41c-2.49,1.52-5.31,2.34-7.94,3.54l-.19.13c-.36.17-.72.36-1.07.54a5,5,0,0,1-3.17,1.22,5,5,0,0,1-.56.06,2,2,0,0,1-2-2,10.48,10.48,0,0,1,.87-3.82c.31-.87.59-1.75.85-2.64-2.39,3-5.79,6.54-8.07,4.27a3.25,3.25,0,0,1-1.38-2.06,34.22,34.22,0,0,1-.37-4.42c-.09-1.1-.18-2.06-.33-3a.53.53,0,0,0-.8-.37c-4,2.73-7.77,8.65-8.89,11a.53.53,0,0,0,.61.73c5.76-1.46,1.86,1.62.09,2.68-4.31,2.58-5.56,5.88-5.91,7.57a.52.52,0,0,0,.78.55c3.83-2.27,1.88-.88,1.61.13-.45,1.67-3.7,5.49-3,10.57a.52.52,0,0,0,1,.07c1.58-4.89.46,4.93,3.48,7.95,1,1,0-4,2-2,.23.23,2.69,8.85,3,10a.71.71,0,0,0,.13.22c15.45,16.64,26.74,44.14,54.31,46.43h.07c4.07,1.92,54.54,3.94,58.24-2.68l.08-.1C-508.26,307.06-501.42,290.32-505.75,290.6Z" transform="translate(2207.44 1169.67)"/><path d="M-511,79.77l-.29-.2a19.42,19.42,0,0,0,1.79-3,.51.51,0,0,0-.1-.56c-1.85-2-4.25-8-5.89-11.06a.48.48,0,0,1,.06-.55A49.33,49.33,0,0,1-509.95,59a.28.28,0,0,0,.1-.09c17.69-25.39,65.54-22.79,44.24-67.31a.49.49,0,0,0-.1-.15c-7.21-7.23,6.1,27.29-14.52,35.15-6.17,2.79-31.71,17.13-31.57,13.78.35-8.91-5.24-29.21,3.2-36.14l.12-.07c3.73-1.6,1.6-5.09-1.86-3.63l-.11.05c-19.31,12.83-4.15,45.61-19,58.62a.49.49,0,0,1-.43.11c-7.13-1.54-13.76,9.26-15.27,13,11.36,2.59,22.72,5.52,34.08,7.55Z" transform="translate(2207.44 1169.67)"/><path d="M-438.34,113.36c-1.23-3.55-5.57-8.25-11.19-12.17a.57.57,0,0,1,.44-1c7.8,1.82-8.34-7.62-19.52-9.36a19.42,19.42,0,0,1,5.86.6.57.57,0,0,0,.4-1.06C-467.7,87.12-489,85.13-480,84.18a.58.58,0,0,0,.19-1.1c-4.55-2.11-13.66-2.44-18-2.8a17.08,17.08,0,0,0,1.25-1.45l.55-.1C-509.19,76.37-522.41,73-535.63,70c-.09.24-.18.46-.24.64a.54.54,0,0,1-.46.38c-1.44.18-6.39.3-8.13.53a.56.56,0,0,1-.63-.53,31.25,31.25,0,0,0-.64-4,.57.57,0,0,0-.88-.36c-3.21,2.13-6.07,4-4.33-1.52a.57.57,0,0,0-.79-.7c-3,1.59-2.09,8.25-6.47,7.8-2.4-.25-8.57-2.91-7-9.34.65-2.65-7.35,11.37-9.86,11s-4.62-10.94-5.12-13.51c-1.08-5.66-2,11-2.54,10.17-1.66,4.5-7.71-11-9.32-1.07a.58.58,0,0,1-1.07.2,22.43,22.43,0,0,0-6-6.13.58.58,0,0,0-.78.81c1.91,2.89,2,3.78,1.47,5.62a.58.58,0,0,1-.7.41,14.46,14.46,0,0,1-1.75-.61,3.52,3.52,0,0,1,.44,1.83c-2.34-1.32-6.18-.79-8.17-2.08l-.11-.09a39.71,39.71,0,0,1-5.87-7.6C-629,64.63-643.46,66.52-657.9,69c-.55.84-1,1.54-1.33,2a.56.56,0,0,1-.84.1c-.62-.55-1.23-1.13-1.85-1.69a.58.58,0,0,0-.93.25c-.45,1.32-.86,2.64-1.16,3.93a.57.57,0,0,1-.55.44c-7.11.06-12,.38-16,1.92a.57.57,0,0,0,0,1.06c6.75,2.61-26.93,2.52-31.75,6.42a.58.58,0,0,0,.2,1c10.61,3-42.35,6.58-25.94,10.18a.57.57,0,0,1,.08,1.1c-16,5.7-24.86,12.42-26.25,17.92a.57.57,0,0,0,.87.63c24.31-16.4-6,9,.54,17.64a.57.57,0,0,0,1-.11A29.17,29.17,0,0,1-751.24,120a.58.58,0,0,1,.85.72c-3.67,8.39-9.09,29.57,4.68,14.12a.58.58,0,0,1,.91,0c4.73,7,1.59,33.77,10.79,15a.58.58,0,0,1,.79-.27c9,5.07,2.31,21.11,6.42,15.87a.43.43,0,0,1,.16-.14c11-6.79,12.35,7.92,11.19,14.61a.56.56,0,0,0,.58.66c4.33-.18,6.19-2.06,6.34-6.42a.57.57,0,0,1,.63-.56c8.81,1.11,4.43,10.81,2.67,14.09a.57.57,0,0,0,.64.83c11-2.58,10.26-11.53,11.84-11,9,2.8,3.14,9.18.9,11.26a.58.58,0,0,0,.27,1c9.76,2.49,18.06-7.8,19.63-5.61,2,2.75-4.2,7.14-6.91,8.88a.57.57,0,0,0,.22,1c6.59.92,13.88-4.56,17.77-8a.57.57,0,0,1,.55-.1,9.24,9.24,0,0,0,3.41.38.57.57,0,0,1,.59.68,24.51,24.51,0,0,1-2,5.53.57.57,0,0,0,.81.74c2.87-1.77,5.89-5,8.55-8.38a.58.58,0,0,1,.94,0c1.26,2.11,2.28,7.87,3.1,8.83l-.19.54a3,3,0,0,0,.79.2c5.19,6.86-.27,9.43-3.21,10.27a.57.57,0,0,0-.06,1.08,20.47,20.47,0,0,0,13.34,1.2.57.57,0,0,1,.69.32c1.55,3.57.53,7.46,0,9a.58.58,0,0,0,.52.75c6.08.46,11.76-2.77,12.36-2.12,3.68,4,5.91,4.55,5.68,9.62a.56.56,0,0,0,1,.43c2.36-2.33,4.46-1.73,5.48-5,2.72,3.88,4,5,3.3,7.38a.56.56,0,0,0,.77.7c2.8-1.26,6-1.76,8.29-4,1.7-2.16,5,2.3,5.25,6a.57.57,0,0,0,1,.27c1.14-1.68,2.73-1,3.74-2.37a.57.57,0,0,1,1,.24c.43,2.57,1.43,5.38,1.73,7.29a.59.59,0,0,0,.64.49c2.36-.28,6-.05,9.1-1.69a.57.57,0,0,1,.75.17c.92,1.36,3.55,5.51,3.73,5.63.59.4,12.35,1,14.92-3.58a.6.6,0,0,1,.76-.22c8.69,3.78,12,3.3,13.59,2.79,1.26-.4-5-1-2-4,.19-.15,8.68,1,14.72-2.76.24-.15,3.36-2.49,3.24-2.75-.42-.88-4.14-2.8-1.81-3.58,0,0,7.76.7,7.06,0-3-3,3.36-4.83,4-6.05s-.55-3.47-1.35-4.9a.57.57,0,0,1,.61-.83,4.53,4.53,0,0,0,2.31-.1.59.59,0,0,0,.37-.66c-1.39-7.42-5.27-2.77,1.12-6.33a.57.57,0,0,0,.19-.82c-1.21-1.71-4.76-7.43-1.23-10.59.8-.72-.24,5.71,8.38,1.38a.58.58,0,0,0,.14-.92c-1.34-1.33-4.5-4.78-3.47-6.52.61-1,4.76,4.31,6.91.31a.59.59,0,0,0,0-.59c-.92-1.39-1.88-2.75-2.67-3.91a.58.58,0,0,1,.72-.84,2.14,2.14,0,0,0,1.6.19.58.58,0,0,0,.42-.69c-.42-1.75-1.82-7.84-1.79-10.87a.57.57,0,0,1,.91-.45c2.77,2.08,7.84,5.44,13,6.64a.57.57,0,0,0,.66-.78c-5.72-13.4,6.42-1.37,12-4.3a.58.58,0,0,0,.18-.88c-1-1.22-3.31-4.56-2.44-7.93s7.51,1.76,11.17,2.24a.57.57,0,0,0,.59-.8c-.95-2.1-3-7.76,2-10.18a.59.59,0,0,1,.84.42,16.71,16.71,0,0,0,2.16,6.62.58.58,0,0,0,1.06-.35c-.41-5.17-.48-15.16,3.89-11.78,4.79,11.58-.72-4.84,3-11.57a.58.58,0,0,1,1,0,10.45,10.45,0,0,0,3.79,4.06.58.58,0,0,0,.84-.66c-.85-2.9-2.71-10.5-.05-13.75a.57.57,0,0,1,1,.22c.62,2.09,2.11,7.07,2,6.44-.71-6.3.66-12.55.5-16.36a.57.57,0,0,1,1-.41,16.75,16.75,0,0,1,3.15,6.15.57.57,0,0,0,1.1,0c1.35-6.65-8.21-21.26-.16-12A.57.57,0,0,0-438.34,113.36Zm-217.43-2.64a26.67,26.67,0,0,0-5.16,7.88c-.37.85-1.15,1.47-5.19-.54-.53-.27,0,5,3.71,6.87,1.22.6-5.91,3-6.66,6.48a.58.58,0,0,0,.64.68c2.19-.28,8.59-.84,7.36,2.12-.91,2.18-3,7.06-7.07,5-1.25-.68-1,2.62,4.1,7.32,3.44,3.15,3.95,8,4,11.16a.57.57,0,0,1-1,.34,37.29,37.29,0,0,0-5-6c-2.2-1.94-4.93.19-6.26,1.5a.57.57,0,0,1-1-.42c.13-2.81,2.92-5.92,2.18-5.77-3.1.62-6.57-.28-8.8-1.07a.58.58,0,0,1,.14-1.11c3.42-.45,5.1-1.75,4.62-1.86-6.6-1.47-16.42-6.14-21.28-8.58a.58.58,0,0,1,.33-1.08c4.28.43,7,.1,5.81-.43-7.7-3.51-10.25-6-12.7-7.55a.57.57,0,0,1,.32-1.05,54.17,54.17,0,0,0,6.65-.24c2-.18-1.23-1.83-3.12-2.72a.57.57,0,0,1,.2-1.08c3.49-.31,11,2.64,13.51,2.11,1.39-.29-4.89-6.46-3.85-5.62,5.05,4,14.76,2.88,17,2.19,1.84-.57-5-3.09-4.85-3.2,3-2,10.33,1,11.39.5,1.38-.71,2.66-1.41,3.81-2.07.76-.44,0-1.38-.53-2a.58.58,0,0,1,.13-.9,12.83,12.83,0,0,1,6.27-1.86A.57.57,0,0,1-655.77,110.72Zm66.18,56.82c8.94-1.36,18.28-6,14.88-17-1.7-12.9-14.86-25.1-28.73-20.13a.55.55,0,0,0-.32.81c3.25,4-5.83,10-8.86,4-.17-.35-1,.53-1.27.76-11.46,8.77-6.7,23.67,5.48,28.81-29-11.31-13.35-42.71,13.86-41.44,13.25.78,21.35,13.36,23.42,24.42C-567,160.9-579,166.33-589.59,167.54ZM-569,99.85c-2.33-1.48-2.8-2.62-5.22-4-2.07-1.18-5.55-3.38-8.08-4-5.07-1.31,5.17-.53,8.08,1a34.43,34.43,0,0,1,4,2c.5.33,1.23-9.89.28-13.93,2.74,2,3.47,13.28,3.76,12.92,4.46-5.55,8.15-5,11.1-5,1.12,0-6.76,3-10,10.21C-565.7,100.21-567.73,100.67-569,99.85Zm40,90.89c-.27,3.07-4.33,8.15-6.41,5l.43-.92c1,0,2-1.2,2.15-2.42.43-3.49-3.52-2.59-3.64.29,0,.86-.5,3.94,1.45,4.88a.58.58,0,0,1,.24.83c-1,1.59-3.25,2.69-5,3.33a.56.56,0,0,0-.38.58c.21,2.12,1,11.24-.79,13.57-.56.73,7.06,2,11-1.32.09-.08.13.19.13.31,0,1.67-5.93,6-12.85,3.14a.57.57,0,0,0-.51,0c-6.06,3.82-14.42,3.75-17.93-2.17-.41-1.9,9.09,6.06,18.17-1,2.77-2.15.77-9.62.79-11.24v-.23c0-.2,0-.77,0-1a5.72,5.72,0,0,1-5-2.16.57.57,0,0,1,.16-.82c2.83-1.66,2.44-5.06,2.44-6.08a2.45,2.45,0,1,0-4.85.38,2.59,2.59,0,0,0,2.86,2.35l.56.91c-2.83,4.22-9.1,0-9.63-4.67C-559.33,178.38-526.67,175.34-529,190.74Zm20.41-36.06a31.55,31.55,0,0,1-12.06,8.19c25.91-10.79,9.47-40.72-14-32.9-.31.11-.58.52-.36.77,3.18,3.47-3.89,10.53-7.55,6.28a.56.56,0,0,0-.88,0c-7.84,11-10.28,25.4,4.23,28.08-9-1.47-16.83-6.47-13.19-17.81a.08.08,0,0,1,0,0c2.24-11,10.27-23.51,22.67-24.49C-513.22,120.9-495,139.38-508.61,154.68Zm34.66-38.57a59.12,59.12,0,0,0-14.52,10c-.42.4,3.14.15,5.05.58a.56.56,0,0,1,.2,1c-2.56,1.86-10.42,7.7-12.31,10.52,0-1.07,1.1-.94,1-2,.06-2.29,4.17-8.75,3.42-12.18a.58.58,0,0,0-1-.26c-1.16,1.27-3.66,3.66-4.35,1.43a16.88,16.88,0,0,1,3.94-7.16c.29-.29-6,.37-6.06,0a12.5,12.5,0,0,1-.41-2.21.58.58,0,0,1,.6-.65c2.59.18,8.36-2.53,12.13-.67a.58.58,0,0,1,.05,1c-1.17.78-3.23,2.21-2.54,2.29a33,33,0,0,0,14.83-1.72Z" transform="translate(2207.44 1169.67)"/><path d="M-627.61,53.18a.48.48,0,0,1-.5-.16c-4.14-5.3-8.83-12.68-9.28-17.5s2.37-43.7-13.19-50.58c-4.31-2.39-7.06,1.15-2.43,3.65l.1.07c10.18,9.19,2.88,30.69,3.11,40.61C-649.71,33-682,13.27-690.31,9c-16.34-8.37-18.45-24.16-16-39.67.17-1.14.52-2.31.62-3.52a2.24,2.24,0,0,0-4-1.28c-32,49.29,35.84,54.67,57.13,85a.52.52,0,0,0,.1.11,69.35,69.35,0,0,1,9.16,9.62.48.48,0,0,1,0,.59c-1.33,1.72-4.78,7.32-6.81,10.49,12.41-2.16,24.83-3.78,37.24-6.28C-617,57.78-620.07,51.33-627.61,53.18Z" transform="translate(2207.44 1169.67)"/><path d="M-301.09,346.59c17.78-3.18,38.43-2.3,62.28,5a163.64,163.64,0,0,1-52.37-30.3c15.09-9.11,34.13-15.64,58.22-17.67a163.66,163.66,0,0,1-60.39-8.81c10.31-14.73,25.5-28.62,47.41-40.26,0,0-28.55,15-64.7,15.93,4.19-18.08,13.4-37.31,29.95-57.14-3.57,4.29-22,25.25-50.27,37.83-2.55-17.49-1.32-37.66,5.64-60.86-1.58,5.3-10.14,31.41-30.82,54-8.62-15-14.83-33.72-17.06-57.14.57,7.4,1.67,34-9,61.54-13.95-10.41-27.15-25.26-38.51-46.1A149.73,149.73,0,0,1-405.15,256c-15.78-4.89-32.55-13.89-50-28.62a169.79,169.79,0,0,1,35.51,50.69c-17.19,2.32-37.24.87-60.58-6.27A169.92,169.92,0,0,1-429,303.15c-15,8.3-33.84,14.23-57.7,16.24a169.92,169.92,0,0,1,61.13,10.78c-10.53,13.89-25.8,27.13-47.48,38.65a170,170,0,0,1,61.65-14.16c-4.27,17-13.1,34.95-28.44,53.14a158.41,158.41,0,0,1,50.16-34.2c2.4,16.89,1.17,36.17-5.53,58.09a158.39,158.39,0,0,1,31.38-49.81c8,14.49,13.66,32.33,15.52,54.3a158.42,158.42,0,0,1,11.19-59.44c13.67,10.26,26.45,24.79,37.23,45.07a158.28,158.28,0,0,1-12.85-53.35c15.49,4.68,31.7,13.24,48.22,27.19A163.8,163.8,0,0,1-301.09,346.59Zm-20,35.63c-9-16.92-20.16-27.65-31.93-34.19-21,16.55-29.4,40.55-29.4,40.55,6-19.51,5.21-35.8.82-49.23-27.27-2.61-50.91,8.77-50.91,8.77,18.67-9.91,30-21.81,36.42-34-17.34-20.11-41-28.39-41-28.39,19.51,6,35.46,5.77,48.43,2.08,1.59-22.47-7.61-41.8-10.13-46.61,9.48,17.38,20.95,28.32,32.89,34.9,19.65-15.55,27.26-38.72,28.48-42.8-6.18,20.59-5.37,37.5-.78,51.24,27.86,2.7,51.85-9.9,51.85-9.9-19,10.09-30.13,22.8-36.33,35.92,17.59,19.25,40.92,26.52,40.92,26.52-18.78-5.75-34.49-5.32-47.48-1.47C-331.31,360.88-321.07,382.22-321.07,382.22Z" transform="translate(2207.44 1169.67)"/><path d="M-320.25,292.59s-40.05,20.6-60.75-19.16c0,0,21.25,37.5-18.32,58.09,0,0,40.18-18.93,59.86,18.89C-339.46,350.41-357.49,312-320.25,292.59Z" transform="translate(2207.44 1169.67)"/><path d="M-1154.91-992.27l0,.11S-1154.93-992.2-1154.91-992.27Z" transform="translate(2207.44 1169.67)"/><path d="M-1286.86-804.23l-.13-.17,0,0Z" transform="translate(2207.44 1169.67)"/><path d="M-1216-637.78c-4.39-3.49-9.38-.4-13.9-1.79-1.44-.44-3.31-.57-4.19-1.55q-12.21-13.67-24.08-27.62c-2.22-2.61-3.92-5.66-6.18-9,3.73-1.87,7-3.55,10.34-5.17,8-3.91,21.21-4,34.3-10.25,13.36-6.4,12.65-16,9.27-24.15-.48-1.16,3.53.66,5.64-1.45,0,0-4.22-1.06-7.39-7.39-.63-1.26,0-1.06,4.23-3.17,0,0-5.28-6.34-9.51-10.56-1.32-1.32,2.11,0,5.28,1.05,0,0-4.22-14.78-24.25-18.48-.67-.12-1-.89-1.48-1.29-2-1.65,3.56-.29,9.89,1.82a55.39,55.39,0,0,0-22.6-10.57c-1.5-.33.43-2.1,2.54-2.1a67.09,67.09,0,0,1-13.73-4.22c-1-.43,2.11,0,5.28-1.06,0,0-8.45-4.22-12.68-4.35-.29-1-1.22-3.13-1-5.15,0-.39,1.06,0,3.17,4.22,0,0-.46-16.25-1.58-18-6.31-.52-27-.09-32.51-1.84-2.57-.81-9.57-3.15-11.79-4.61a65.66,65.66,0,0,1-5.8-4.28c-1.86-1.52-10.32-8.53-11.89-10.36s-9.63-13.76-12.63-17.93c-1.39-1.91-2.73-3.86-4.17-5.74.3,2.18.43,4.39.56,6.52.38,5.87.15,11.75.24,17.62,0,2.61-.06,4.95.2,7.51a39.4,39.4,0,0,1-.61,10.23h0a8.91,8.91,0,0,1-.62,1.57c-1.14,2,1.44,4.49-7,8.71-1.29.65,7.17,1.63,3.45,3.09-6.32,2.5-13,6.64-14,8.53,0,0,7.76.74,6.06,1.24-2,.59-12,3-16.62,9.32-.16.22,3.93-3,6.34,0,1.34,1.64-12.93,7.38-13.73,12.67,0,.2,11.07-2.51,8.06-.87-4.45,2.44-11.24,4.14-18.06,11.36,0,0,11.93-2.68,8,1.38-5,5.23-14.15,5.69-17.73,11.42,0,.06,3.88.23,4.91,2.41-1.76,3.7-2.69,7.64-12.3,7,0,0,7,4.66,7.42,5.48,2.87,5.55-4.86,3.84-4.86,3.84-1.24,7.92,6.39,4.24,7,5.66.77,1.87-19.49,7.31-24.56,7.73-3.06.25-6.75,1.31-8.85,3.35a244.84,244.84,0,0,0-20,21.53c-7,8.64-14.2,20.07-20.78,29a20.92,20.92,0,0,1-4.14,4.55c-8.28,6.14-10.62,17.84-9.91,27.51.29,4,4.43,3.09,10.74,2.59,5.25-.42,4.09-7.52,3.72-8.8-.54-1.9.49-2.2,1.42.28,1,2.74,1.15,8.21,3.7,8.54,4.86.62,5.87.66,10,.08s4.84-1.51,2-9.47c-.16-.45-.2-1.26.57-.29,2.28,2.85,2.85,10,4.55,10,0,0,6.8.34,7.54-1.93,2.09-6.43,1.59-15.2-.75-21.71a6.43,6.43,0,0,1,.61-5c4-6,9.08-14.2,13.77-19.68a200.65,200.65,0,0,1,15.58-15.56c1-1,3-1.08,4.59-1.32,8.77-1.37,17.6-2.41,26.33-4,5.06-.94,11.61-1.31,15.61-4,1.71-1.14-.47,3.09-.47,3.09,3.2.5,6-.92,7-2.66,3.31,1.46.71,4.72.71,4.72,4.33-.43,12.1-10.65,15.61-11.71a8.81,8.81,0,0,0-2.85,7.33s13.93-12,15.87-17.13c.6-1.58-3.24,9.86-3.24,9.86,7.07-2.94,17.15-16.92,18-18.54,5.41-10.52,8.15-9.14,13.09-16.78,1-2.68,8.39-16.32,10-19.92.69-1.57-.22,8.55-7.61,20.22,1,4.22,2.11,11.61,2.11,11.61,1.05-2.11,4-6.58,4.22-6.33,2.11,2.11,0,8.44,0,8.44,2.11-1.05,5.28-4.75,5.28-4.22,0,3.17,2.11,8.45,2.11,8.45,0-5.28,1.35-4.4,1.58-3.73.54,1.62,4.76,6.9,4.76,6.9,0-3.17.34-4.09.61-3.51a9.14,9.14,0,0,0,7.84,5.62c-2.11-3.17,1-1.81,2.11-2.11,0,0,2.12-.94,2.43-1.16,3.29-2.34,10.63-6.24,9.27-5.18-2.56,2-5.94,5-9.68,7.4-4.28,3.56-14.44,12.52-17.16,15.23-3.35,3.33-4,7.29-1.76,11.59,2.67,5.06,5.37,10.12,8,15.21,5.17,10,12.86,23.07,17.43,33.38s9.6,16.56,21,16.48c4.45,0,9.16-2.52,13.33-1,6.49,2.36,15.78,1.74,16.94-.41,6-11.1-6.5-14.81-6-14.8,9.68.29,9.29,12.5,10,11.38C-1206.93-619.73-1205.51-629.4-1216-637.78Z" transform="translate(2207.44 1169.67)"/><path d="M-1189.93-879.54c3.51-4.1-.34-5.21-2.43-3.16-1.32,1.37-2.94,2.24-5,5.48-1.25,2-5,11.78-5.65,12-1.82.77-1.36-2.34-1.36-2.34.47-1.47,3.54-7-.33-6.4-4.43,3.82-4.37,8.87-3.26,14.95.88,4.8,1.73,7.82,2.68,8.39a6.3,6.3,0,0,0,5.25.58c4-1.09,6.87.37,9.36-2.74,2.85-3.57,1.73-7.83,2.54-10.35.59-1.84.61-3.31,2.36-6.42,1-1.86,2.22-4.22,4.44-5.91a1.23,1.23,0,0,0-.6-2.29c-1.58.46-5,3.78-6.22,6-1.81,3.3-3.36,6-3.36,6,1.39-4,1.57-5.4,3.26-8.29,1-1.69,3.24-2.87,5.74-6.42,1.9-2.71-.89-3.2-2.5-2a42.65,42.65,0,0,0-6.65,6.6c-1.64,2.09-3.47,7.29-4.26,9.06a.37.37,0,0,1-.62.12C-1194.29-872.89-1194.81-873.84-1189.93-879.54Z" transform="translate(2207.44 1169.67)"/><path class="cls-2" d="M-1258-821.85c-.06.37-.08.58-.08.56C-1258-821.48-1258-821.67-1258-821.85Z" transform="translate(2207.44 1169.67)"/><path d="M-1230.82-826.09c-4,.21-2.83,9.8-6.87,9.58h0a2.78,2.78,0,0,1-.4-.59v.05c-4.17-9.27,7.79-27.39,1.72-24.11-3,2.29-5.84,10-7.06,14.57-.18.68-.11.47,0-.22.6-4.11,1.51-11.76,2.51-14.14.89-3.18-1.44-4.57-3.1-1.85-2.82,4.64-3.43,9-4.46,11.33-1.2,4.45-2.08,9.42-2.24,8.94.22-3.14-1.1-3.6.91-9.56,2.07-6.14-1.77-6.6-3.56-2.57-3.27,4.8-3.18,19.57-3.31,19.64,0,.07-25-5.13-31.14-6.43h0c-1.6-.31-2.93-.61-3.57-.75a.47.47,0,0,1-.33-.25c-3.63-6.64-14.73-22.66-25.24-31a.52.52,0,0,1,.56-.87c12.61,6.52,19.27,16.32,25.77,26.95a.46.46,0,0,0,.3.23c5.95,1.56,20.6,4.08,26.36,5.81a.51.51,0,0,0,.64-.33c1.73-5.76,3.53-16.34,4.67-25.3.1-.81,0,1,2,1a33.92,33.92,0,0,1-1-6c0-.66,1,1,3,0,0,0-3-4-3-5,0-.51,3,0,4-1,0,0-4-4-3.94-6.45,0-.38.59-1,.64-.59.3,2,5.3,3,5.3,3-1-1-.93-2.52-.62-2.25a6.13,6.13,0,0,0,5.62,1.25c-2-1-1.66-2-1-2,3.68-.1,7.63.26,14.2-.32,1.59-.14,2,.53,2.75,1.16,6,6,12.79,5.76,21.74,10.39-.19-.63-.35-1.25-.5-1.85-1.14-4.62-2.21-9.57-.58-14.19a.53.53,0,0,0-.08-.5c-13.33-16.92-14.41-10.79-32-16.9a.44.44,0,0,0-.2,0h-.13a18.09,18.09,0,0,1-4.23,3.85,27.56,27.56,0,0,1-5.8,3.38,19.59,19.59,0,0,1-2.3.8,17.36,17.36,0,0,1-2.3.65,13.7,13.7,0,0,0-1.34.41,1.5,1.5,0,0,1-.22.59l0,.06v0a2,2,0,0,1-.81,2.51c-3.84,1.76-8.34,1.49-12.28.16-.64-.21-1.28-.39-1.91-.61-.89-.24-1.76-.52-2.61-.8a.51.51,0,0,0-.46.08,7.94,7.94,0,0,1-3.48,1.15,17.48,17.48,0,0,1-1.84.65,24,24,0,0,1-5.19.83c-1.58.1-3.14-.07-4.71-.12a2,2,0,0,1-.39.32,2,2,0,0,1-2.73-.71,39.65,39.65,0,0,0-2.46-4.17l-.63-.19a19.38,19.38,0,0,1-2.58.83,8.7,8.7,0,0,1-2.53.28h-.09a15,15,0,0,1-3.72.2l-.12.05a2,2,0,0,1-2.45-1.39c-.26-1.29-.7-2.53-1-3.8a.51.51,0,0,0-.92-.18,9.24,9.24,0,0,1-2.26,2.28c-.91.9-1.6,1-2.13.61a3.39,3.39,0,0,1-.44.08,2,2,0,0,1-2-2v-.2a.9.9,0,0,0,0-.18,4.67,4.67,0,0,0-.18-.64c-.14-.42-.3-.84-.41-1.27a19.94,19.94,0,0,1-.24-3.18l0-.39a.15.15,0,0,1,0-.07c0-.2-.07-.4-.11-.6s-.08-.27-.12-.41c-2.46,1.51-5.26,2.32-7.87,3.52l-.18.12-1.06.53a4.91,4.91,0,0,1-3.15,1.21,4.87,4.87,0,0,1-.55.06,2,2,0,0,1-2-2,10.42,10.42,0,0,1,.87-3.79c.3-.85.57-1.73.83-2.61-2.36,3-5.73,6.48-8,4.23a3.22,3.22,0,0,1-1.37-2,35.61,35.61,0,0,1-.37-4.37c-.09-1.09-.17-2-.33-3a.51.51,0,0,0-.78-.36c-4,2.69-7.7,8.56-8.81,10.87a.52.52,0,0,0,.6.72c5.7-1.44,1.85,1.61.09,2.66-4.27,2.56-5.5,5.83-5.86,7.5a.52.52,0,0,0,.78.54c3.79-2.25,1.86-.87,1.59.13-.45,1.66-3.66,5.44-3,10.47a.52.52,0,0,0,1,.07c1.55-4.84.45,4.89,3.44,7.88,1,1,0-4,2-2,.23.23,2.66,8.76,3,9.88a.48.48,0,0,0,.12.22c15.31,16.49,26.49,43.73,53.81,46h.07c4,1.9,54,3.9,57.69-2.65l.09-.1C-1233.3-809.79-1226.52-826.36-1230.82-826.09Z" transform="translate(2207.44 1169.67)"/><path d="M-1174.12-1014.74a.57.57,0,0,1,.44-1c7.72,1.81-8.27-7.55-19.34-9.27a19.34,19.34,0,0,1,5.8.59.57.57,0,0,0,.4-1c-5.29-3.19-26.37-5.15-17.47-6.1a.57.57,0,0,0,.18-1.09c-4.5-2.09-13.52-2.41-17.79-2.77.44-.46.85-.94,1.24-1.43l.59-.11a4,4,0,0,0-.34-.23,22.5,22.5,0,0,0,2.06-3.42.57.57,0,0,0-.11-.64c-2.13-2.3-4.9-9.23-6.8-12.75a.56.56,0,0,1,.08-.64,55.27,55.27,0,0,1,6.33-6.32.65.65,0,0,0,.11-.12c20.39-29.27,75.55-26.26,51-77.59a.7.7,0,0,0-.13-.17c-8.31-8.33,7,31.46-16.73,40.53-7.12,3.21-36.56,19.74-36.4,15.88.41-10.27-6-33.67,3.69-41.66l.14-.08c4.3-1.85,1.84-5.87-2.14-4.2l-.13.07c-22.26,14.79-4.79,52.58-21.88,67.58a.57.57,0,0,1-.5.12c-8.66-1.88-16.7,12.09-17.84,15.58a.55.55,0,0,1-.46.38c-1.43.17-6.33.29-8.06.52a.56.56,0,0,1-.62-.52,32.28,32.28,0,0,0-.63-4,.57.57,0,0,0-.87-.36c-3.18,2.11-6,4-4.29-1.5a.58.58,0,0,0-.79-.7c-3,1.58-2.07,8.18-6.41,7.73-2.37-.25-8.49-2.88-6.94-9.25.64-2.63-7.28,11.26-9.77,10.86s-4.58-10.84-5.07-13.39c-1.07-5.6-2,10.9-2.52,10.08-1.64,4.46-7.64-10.93-9.23-1.06a.57.57,0,0,1-1.06.2,22,22,0,0,0-5.92-6.07.57.57,0,0,0-.78.79c1.89,2.87,2,3.75,1.46,5.57a.57.57,0,0,1-.69.41,16.2,16.2,0,0,1-1.74-.6,3.42,3.42,0,0,1,.44,1.81c-2.32-1.31-6.12-.79-8.09-2.06l-.12-.09c-8.47-8.07-10.8-23.06-22.68-20.14a.57.57,0,0,1-.58-.19c-4.77-6.11-10.18-14.61-10.7-20.17s2.73-50.37-15.2-58.31c-5-2.75-8.14,1.32-2.8,4.21l.11.08c11.73,10.59,3.32,35.38,3.58,46.81.1,4.3-37.17-18.44-46.69-23.31-18.85-9.65-21.27-27.86-18.5-45.74.2-1.32.61-2.66.71-4,.18-2.41-3.36-3.55-4.66-1.48-36.86,56.82,41.32,63,65.86,98a.34.34,0,0,0,.12.12,80.12,80.12,0,0,1,10.55,11.1.56.56,0,0,1,0,.68c-1.88,2.44-7.46,11.64-9.16,14.07a.56.56,0,0,1-.84.1c-.61-.54-1.22-1.11-1.83-1.67a.57.57,0,0,0-.92.24c-.44,1.32-.86,2.63-1.15,3.9a.57.57,0,0,1-.55.44c-7,0-11.9.37-15.81,1.89a.57.57,0,0,0,0,1.06c6.69,2.58-26.69,2.49-31.47,6.36a.58.58,0,0,0,.21,1c10.5,3-42,6.52-25.7,10.09a.57.57,0,0,1,.08,1.09c-15.88,5.64-24.63,12.3-26,17.74a.57.57,0,0,0,.87.63c24.07-16.25-6,8.94.53,17.47a.56.56,0,0,0,1-.1A28.87,28.87,0,0,1-1473-996.11a.57.57,0,0,1,.83.71c-3.63,8.31-9,29.29,4.64,14a.57.57,0,0,1,.9,0c4.69,6.9,1.57,33.45,10.69,14.87a.57.57,0,0,1,.78-.26c8.91,5,2.29,20.9,6.36,15.71a.73.73,0,0,1,.16-.14c10.92-6.72,12.24,7.85,11.09,14.48a.57.57,0,0,0,.58.66c4.28-.18,6.12-2.05,6.28-6.37a.57.57,0,0,1,.62-.56c8.73,1.11,4.38,10.71,2.64,14a.57.57,0,0,0,.64.82c10.89-2.55,10.17-11.42,11.73-10.93,8.9,2.77,3.11,9.09.89,11.15a.56.56,0,0,0,.26,1c9.68,2.48,17.89-7.72,19.45-5.55,2,2.72-4.16,7.07-6.84,8.79a.57.57,0,0,0,.21,1c6.54.91,13.76-4.52,17.61-8a.53.53,0,0,1,.54-.11,9.08,9.08,0,0,0,3.38.38.56.56,0,0,1,.59.67,23.9,23.9,0,0,1-2,5.48.57.57,0,0,0,.81.73c2.84-1.75,5.84-4.93,8.47-8.3a.57.57,0,0,1,.93.05c1.25,2.09,2.26,7.79,3.07,8.74l-.19.54a3,3,0,0,0,.78.19c5.15,6.8-.26,9.34-3.17,10.17a.58.58,0,0,0-.07,1.08,20.33,20.33,0,0,0,13.23,1.19.55.55,0,0,1,.67.31c1.54,3.54.53,7.4,0,8.9a.57.57,0,0,0,.51.74c6,.46,11.65-2.74,12.25-2.1,3.64,4,5.85,4.51,5.62,9.53a.57.57,0,0,0,1,.43c2.33-2.3,4.41-1.72,5.42-5,2.7,3.85,4,5,3.27,7.31a.56.56,0,0,0,.77.7c2.77-1.25,5.93-1.75,8.2-3.92,1.7-2.14,5,2.28,5.21,6a.56.56,0,0,0,1,.27c1.13-1.66,2.71-1,3.71-2.35a.56.56,0,0,1,1,.24c.42,2.55,1.41,5.33,1.71,7.23a.57.57,0,0,0,.63.47c2.34-.27,6,0,9-1.67a.56.56,0,0,1,.74.17c.91,1.35,3.52,5.46,3.7,5.58.59.4,12.24,1,14.78-3.55a.59.59,0,0,1,.75-.21c8.61,3.74,11.94,3.26,13.47,2.76,1.24-.4-5-1-2-4,.19-.14,8.6,1,14.58-2.73.24-.15,3.34-2.46,3.21-2.72-.41-.88-4.1-2.78-1.79-3.55,0,0,7.69.69,7,0-3-3,3.33-4.78,4-6s-.54-3.43-1.34-4.85a.56.56,0,0,1,.6-.82,4.5,4.5,0,0,0,2.3-.1.59.59,0,0,0,.36-.65c-1.38-7.36-5.22-2.74,1.11-6.27a.57.57,0,0,0,.18-.82c-1.19-1.7-4.71-7.36-1.21-10.49.8-.71-.23,5.66,8.3,1.37a.57.57,0,0,0,.14-.91c-1.32-1.32-4.46-4.74-3.44-6.46.61-1,4.72,4.27,6.85.31a.59.59,0,0,0,0-.59c-.92-1.38-1.87-2.72-2.64-3.87a.56.56,0,0,1,.7-.83,2.17,2.17,0,0,0,1.59.18.57.57,0,0,0,.41-.68c-.41-1.73-1.79-7.77-1.77-10.77a.57.57,0,0,1,.91-.44c2.74,2.05,7.76,5.38,12.86,6.58a.57.57,0,0,0,.66-.78c-5.67-13.28,6.35-1.35,11.86-4.26a.58.58,0,0,0,.18-.87c-1-1.21-3.28-4.52-2.42-7.85s7.44,1.73,11.07,2.21a.56.56,0,0,0,.58-.79c-.94-2.08-2.93-7.69,2-10.08a.57.57,0,0,1,.83.41,16.43,16.43,0,0,0,2.15,6.56.56.56,0,0,0,1-.35c-.41-5.12-.47-15,3.86-11.66,4.75,11.47-.72-4.8,3-11.47a.58.58,0,0,1,1,0,10.26,10.26,0,0,0,3.75,4,.57.57,0,0,0,.83-.66c-.83-2.86-2.68-10.39,0-13.62a.56.56,0,0,1,1,.22c.62,2.08,2.1,7,2,6.39-.7-6.25.66-12.44.49-16.21a.57.57,0,0,1,1-.41,16.52,16.52,0,0,1,3.11,6.1.57.57,0,0,0,1.1,0c1.33-6.6-8.14-21.07-.17-11.89a.57.57,0,0,0,1-.54C-1164.25-1006.2-1168.55-1010.85-1174.12-1014.74Zm-204.31,9.45a26.25,26.25,0,0,0-5.12,7.8c-.37.84-1.14,1.46-5.14-.54-.53-.26,0,5,3.67,6.81,1.22.6-5.85,3-6.59,6.42a.57.57,0,0,0,.63.67c2.17-.27,8.51-.83,7.29,2.1-.9,2.16-3,7-7,5-1.24-.67-1,2.6,4.06,7.25,3.41,3.12,3.92,7.9,4,11.06a.57.57,0,0,1-1,.34,35.73,35.73,0,0,0-5-6c-2.18-1.92-4.88.19-6.2,1.49a.57.57,0,0,1-1-.42c.13-2.78,2.89-5.86,2.16-5.72-3.07.62-6.52-.28-8.72-1.06a.56.56,0,0,1,.14-1.09c3.39-.46,5-1.74,4.58-1.85-6.55-1.45-16.27-6.08-21.08-8.5a.57.57,0,0,1,.32-1.07c4.24.43,6.92.1,5.76-.43-7.63-3.47-10.16-6-12.58-7.48a.56.56,0,0,1,.31-1,51.27,51.27,0,0,0,6.59-.23c1.95-.18-1.22-1.81-3.09-2.69a.57.57,0,0,1,.2-1.08c3.45-.3,10.92,2.62,13.38,2.09,1.38-.29-4.85-6.4-3.81-5.57,5,4,14.62,2.86,16.81,2.17,1.82-.56-5-3.06-4.81-3.17,3-2,10.24,1,11.28.5,1.38-.7,2.64-1.4,3.79-2.05.74-.43,0-1.37-.53-1.95a.55.55,0,0,1,.13-.88,12.6,12.6,0,0,1,6.21-1.84A.57.57,0,0,1-1378.43-1005.29Zm65.56,56.29c8.86-1.35,18.1-6,14.74-16.83-1.69-12.79-14.72-24.88-28.46-19.95a.55.55,0,0,0-.32.81c3.22,3.94-5.78,9.94-8.78,3.94-.17-.34-1,.53-1.26.76-11.35,8.69-6.63,23.45,5.43,28.54-28.68-11.2-13.23-42.31,13.73-41.06,13.13.78,21.16,13.24,23.2,24.2C-1290.51-955.58-1302.39-950.21-1312.87-949Zm54.06,18c-.27,3-4.29,8.08-6.36,5,.2-.41.24-.51.43-.91,1,0,2-1.2,2.13-2.4.43-3.46-3.49-2.57-3.6.29,0,.85-.5,3.9,1.43,4.84a.56.56,0,0,1,.24.81c-1,1.58-3.22,2.67-5,3.3a.55.55,0,0,0-.37.58c.2,2.1,1,11.13-.79,13.44-.55.72,7,2,10.87-1.31.09-.08.13.19.13.31,0,1.65-5.87,5.92-12.73,3.11a.61.61,0,0,0-.51,0c-6,3.79-14.28,3.71-17.76-2.15-.41-1.88,9,6,18-1,2.74-2.13.76-9.53.78-11.14v-.22a8.5,8.5,0,0,0,0-1,5.67,5.67,0,0,1-4.9-2.13.58.58,0,0,1,.15-.82c2.8-1.64,2.42-5,2.42-6a2.43,2.43,0,1,0-4.8.38,2.56,2.56,0,0,0,2.83,2.32l.56.91c-2.8,4.18-9,0-9.54-4.63C-1288.83-943.22-1256.48-946.23-1258.81-931Zm26.16-30.76a31.27,31.27,0,0,1-11.94,8.11c25.67-10.69,9.37-40.34-13.9-32.59-.31.1-.57.51-.35.75,3.15,3.44-3.85,10.44-7.48,6.22a.56.56,0,0,0-.87.06c-7.77,10.92-10.19,25.16,4.19,27.81-8.87-1.45-16.67-6.4-13.07-17.64a0,0,0,0,1,0,0c2.21-10.9,10.18-23.3,22.46-24.26C-1237.21-995.21-1219.19-976.91-1232.65-961.74Zm34.34-38.22a58.55,58.55,0,0,0-14.38,9.93c-.42.4,3.1.15,5,.57a.57.57,0,0,1,.2,1c-2.54,1.84-10.32,7.62-12.2,10.42,0-1.07,1.09-.94,1-2,.06-2.26,4.13-8.66,3.38-12.06a.57.57,0,0,0-1-.26c-1.15,1.26-3.63,3.63-4.31,1.42a16.78,16.78,0,0,1,3.9-7.1c.29-.29-5.9.37-6,0a12,12,0,0,1-.41-2.19.58.58,0,0,1,.6-.64c2.56.18,8.28-2.5,12-.66a.57.57,0,0,1,0,1c-1.16.77-3.2,2.19-2.51,2.27a32.66,32.66,0,0,0,14.69-1.71Z" transform="translate(2207.44 1169.67)"/><path d="M-1028.06-770.62c17.61-3.16,38.07-2.28,61.7,5a162.34,162.34,0,0,1-51.89-30c15-9,33.82-15.49,57.68-17.51a162.21,162.21,0,0,1-59.83-8.72c10.22-14.59,25.27-28.35,47-39.88,0,0-28.28,14.85-64.09,15.77,4.14-17.91,13.27-37,29.67-56.6-3.54,4.24-21.78,25-49.8,37.47-2.53-17.32-1.31-37.31,5.59-60.29-1.57,5.25-10,31.12-30.54,53.46-8.54-14.86-14.69-33.41-16.9-56.61.57,7.33,1.66,33.71-8.89,61-13.83-10.31-26.9-25-38.15-45.67a148.38,148.38,0,0,1,15.38,52.91c-15.63-4.84-32.23-13.76-49.52-28.35a168.24,168.24,0,0,1,35.19,50.21c-17,2.3-36.9.87-60-6.21a168.46,168.46,0,0,1,50.71,31.08c-14.82,8.22-33.53,14.09-57.16,16.09a168.26,168.26,0,0,1,60.56,10.68c-10.43,13.76-25.56,26.88-47,38.29a168.29,168.29,0,0,1,61.07-14c-4.22,16.88-13,34.62-28.17,52.64a157.08,157.08,0,0,1,49.7-33.89c2.37,16.74,1.16,35.84-5.49,57.55a156.85,156.85,0,0,1,31.1-49.34c7.93,14.36,13.52,32,15.37,53.8a157,157,0,0,1,11.08-58.89c13.54,10.16,26.21,24.56,36.88,44.64a156.79,156.79,0,0,1-12.72-52.84c15.34,4.63,31.4,13.11,47.77,26.93A162.11,162.11,0,0,1-1028.06-770.62Zm-19.8,35.29c-8.9-16.76-20-27.38-31.62-33.86-20.77,16.39-29.14,40.16-29.14,40.16,5.92-19.33,5.17-35.46.82-48.76-27-2.6-50.43,8.69-50.43,8.69,18.49-9.83,29.67-21.62,36.08-33.73-17.19-19.93-40.63-28.13-40.63-28.13,19.32,5.92,35.13,5.72,48,2.07,1.58-22.27-7.54-41.42-10-46.19,9.39,17.23,20.75,28.06,32.58,34.58,19.47-15.41,27-38.36,28.22-42.39-6.13,20.39-5.32,37.14-.78,50.75,27.61,2.68,51.37-9.8,51.37-9.8-18.8,10-29.85,22.59-36,35.58,17.43,19.07,40.54,26.28,40.54,26.28-18.61-5.7-34.17-5.27-47-1.46C-1058-756.47-1047.86-735.33-1047.86-735.33Z" transform="translate(2207.44 1169.67)"/><path d="M-1047-824.12s-39.68,20.41-60.18-19c0,0,21,37.15-18.16,57.55,0,0,39.81-18.76,59.31,18.71C-1066.07-766.84-1083.93-804.92-1047-824.12Z" transform="translate(2207.44 1169.67)"/><path d="M637.73,319.54a1.67,1.67,0,0,1-.08.2S637.7,319.67,637.73,319.54Z" transform="translate(2207.44 1169.67)"/><path d="M404.47,652a2.11,2.11,0,0,0-.23-.3l.05.05Z" transform="translate(2207.44 1169.67)"/><path d="M529.7,946.24c-7.76-6.18-16.58-.71-24.57-3.17-2.55-.78-5.85-1-7.41-2.75q-21.59-24.15-42.56-48.82c-3.92-4.62-6.94-10-10.93-15.87,6.6-3.3,12.42-6.26,18.27-9.14,14.08-6.91,37.5-7,60.64-18.12,23.63-11.3,22.37-28.36,16.4-42.69-.85-2,6.24,1.17,10-2.56,0,0-7.47-1.87-13.07-13.07-1.11-2.22,0-1.87,7.47-5.6,0,0-9.33-11.2-16.8-18.67-2.33-2.33,3.73,0,9.33,1.87,0,0-7.46-26.14-42.86-32.67-1.19-.22-1.76-1.59-2.63-2.29-3.61-2.91,6.29-.51,17.49,3.22,0,0-14.93-13.07-40-18.68-2.65-.59.76-3.72,4.49-3.72A118.13,118.13,0,0,1,448.7,706c-1.77-.76,3.74,0,9.34-1.86,0,0-14.94-7.47-22.41-7.7-.52-1.8-2.16-5.52-1.86-9.11.05-.68,1.87,0,5.6,7.47,0,0-.82-28.73-2.79-31.75-11.16-.91-47.72-.16-57.47-3.25-4.55-1.44-16.93-5.57-20.86-8.15A119.8,119.8,0,0,1,348,644.12c-3.29-2.69-18.23-15.08-21-18.31s-17-24.32-22.33-31.69c-2.44-3.39-4.82-6.84-7.36-10.15.53,3.84.75,7.76,1,11.51.68,10.38.26,20.77.41,31.17.07,4.59-.09,8.74.37,13.27A70.33,70.33,0,0,1,298,658h-.07a15.84,15.84,0,0,1-1.09,2.77c-2,3.52,2.55,7.94-12.39,15.4-2.29,1.15,12.66,2.88,6.09,5.47-11.17,4.41-23,11.73-24.76,15.07,0,0,13.72,1.31,10.71,2.19-3.54,1-21.29,5.38-29.37,16.48-.3.4,6.94-5.24,11.2,0,2.36,2.9-22.86,13-24.27,22.4-.06.35,19.56-4.43,14.25-1.53-7.88,4.3-19.87,7.31-31.94,20.08,0,0,21.09-4.73,14.24,2.43-8.84,9.26-25,10.06-31.34,20.2-.06.1,6.85.4,8.68,4.26-3.13,6.53-4.76,13.51-21.75,12.45,0,0,12.38,8.26,13.12,9.7,5.07,9.81-8.6,6.79-8.6,6.79-2.18,14,11.3,7.49,12.33,10,1.35,3.3-34.46,12.92-43.42,13.65-5.42.45-11.93,2.32-15.64,5.92a435.18,435.18,0,0,0-35.32,38.07c-12.35,15.28-25.09,35.48-36.72,51.34a36.84,36.84,0,0,1-7.33,8.05C50,950,45.81,970.74,47.06,987.83c.52,7.13,7.83,5.47,19,4.58,9.29-.74,7.23-13.3,6.58-15.57-1-3.34.86-3.88,2.51.5,1.83,4.85,2,14.51,6.54,15.09,8.59,1.1,10.38,1.18,17.61.15,7-1,8.55-2.66,3.52-16.74-.29-.8-.37-2.22,1-.51,4,5,5,17.61,8,17.61,0,0,12,.59,13.32-3.41,3.71-11.38,2.82-26.88-1.32-38.39a11.38,11.38,0,0,1,1.08-8.91c7.11-10.62,16.06-25.1,24.34-34.79s18.07-18.63,27.55-27.5c1.84-1.71,5.32-1.91,8.11-2.34,15.51-2.41,31.12-4.27,46.54-7.11,9-1.65,20.53-2.31,27.6-7,3-2-.83,5.47-.83,5.47,5.66.87,10.59-1.63,12.42-4.71,5.86,2.58,1.27,8.34,1.27,8.34,7.65-.76,21.39-18.83,27.6-20.7a15.56,15.56,0,0,0-5,13s24.61-21.16,28.05-30.3c1.05-2.79-5.73,17.44-5.73,17.44,12.51-5.2,30.32-29.91,31.79-32.77,9.56-18.61,14.41-16.16,23.14-29.67,1.83-4.74,14.83-28.85,17.6-35.21,1.22-2.79-.38,15.11-13.45,35.73,1.86,7.47,3.73,20.54,3.73,20.54,1.87-3.74,7-11.63,7.47-11.21,3.73,3.74,0,14.94,0,14.94,3.73-1.87,9.33-8.41,9.33-7.47,0,5.6,3.74,14.94,3.74,14.94,0-9.34,2.38-7.78,2.77-6.6,1,2.86,8.43,12.2,8.43,12.2,0-5.6.6-7.23,1.07-6.2,4.53,9.93,13.86,9.93,13.86,9.93-3.73-5.6,1.68-3.19,3.73-3.73,0,0,3.75-1.66,4.31-2,5.81-4.13,18.78-11,16.37-9.16-4.52,3.52-10.5,8.8-17.1,13.08-7.58,6.3-25.54,22.15-30.35,26.93-5.92,5.89-7.1,12.89-3.1,20.49,4.72,9,9.5,17.89,14.14,26.89,9.14,17.75,22.74,40.79,30.82,59s17,29.27,37.08,29.13c7.88-.05,16.2-4.46,23.57-1.78,11.47,4.17,27.89,3.08,30-.73,10.56-19.61-11.5-26.18-10.57-26.15,17.1.5,16.43,22.09,17.61,20.12C545.77,978.14,548.29,961,529.7,946.24Z" transform="translate(2207.44 1169.67)"/><path d="M575.82,518.84c6.21-7.26-.58-9.22-4.29-5.59-2.33,2.42-5.2,4-8.89,9.69-2.21,3.45-8.93,20.81-10,21.27-3.21,1.35-2.38-4.14-2.38-4.14.83-2.6,6.24-12.3-.6-11.32-7.83,6.76-7.72,15.68-5.75,26.43,1.55,8.49,3.05,13.82,4.72,14.83a11.13,11.13,0,0,0,9.29,1c7.15-1.92,12.14.64,16.54-4.85,5-6.31,3.07-13.84,4.5-18.3,1-3.25,1.08-5.85,4.17-11.34,1.86-3.29,3.93-7.47,7.85-10.45a2.18,2.18,0,0,0-1.06-4.05c-2.8.81-8.82,6.68-11,10.66-3.2,5.84-5.93,10.63-5.93,10.63,2.45-7.15,2.76-9.54,5.75-14.66,1.74-3,5.74-5.07,10.15-11.35,3.37-4.78-1.57-5.65-4.41-3.6a75.25,75.25,0,0,0-11.77,11.67c-2.89,3.69-6.13,12.88-7.53,16a.65.65,0,0,1-1.09.21C568.12,530.6,567.21,528.9,575.82,518.84Z" transform="translate(2207.44 1169.67)"/><path class="cls-2" d="M455.5,620.83c-.09.65-.13,1-.12,1C455.42,621.47,455.46,621.14,455.5,620.83Z" transform="translate(2207.44 1169.67)"/><path d="M503.54,613.32c-7,.37-5,17.34-12.15,16.93h0a4.82,4.82,0,0,1-.69-1v.08c-7.38-16.37,13.78-48.41,3-42.61-5.23,4-10.32,17.64-12.48,25.76-.31,1.2-.2.83,0-.4,1.07-7.26,2.67-20.79,4.44-25,1.57-5.62-2.55-8.09-5.48-3.27-5,8.19-6.06,15.9-7.89,20-2.12,7.88-3.67,16.67-4,15.81.39-5.55-1.94-6.36,1.61-16.9,3.66-10.85-3.13-11.67-6.29-4.55-5.79,8.49-5.62,34.6-5.86,34.73,0,.13-44.1-9.08-55.05-11.37l0,0c-2.84-.55-5.19-1.08-6.32-1.32a.86.86,0,0,1-.59-.44c-6.42-11.75-26-40.06-44.62-54.9a.92.92,0,0,1,1-1.53c22.29,11.53,34.07,28.85,45.55,47.64a.92.92,0,0,0,.54.41c10.52,2.76,36.41,7.2,46.6,10.27A.89.89,0,0,0,446,621c3.07-10.19,6.24-28.87,8.26-44.72.18-1.43,0,1.77,3.53,1.77,0,0-1.93-7.89-1.76-10.61.07-1.17,1.76,1.77,5.3,0,0,0-5.29-7.08-5.3-8.84,0-.9,5.3,0,7.07-1.77,0,0-7.07-7.07-7-11.41,0-.67,1-1.7,1.14-1,.52,3.6,9.36,5.37,9.36,5.37-1.76-1.77-1.64-4.45-1.09-4a10.82,10.82,0,0,0,9.93,2.21c-3.53-1.76-2.92-3.5-1.76-3.53,6.51-.18,13.49.46,25.1-.57,2.81-.25,3.45.93,4.87,2.05,10.57,10.58,22.61,10.19,38.42,18.36-.33-1.1-.62-2.2-.88-3.26-2-8.16-3.91-16.92-1-25.09a.92.92,0,0,0-.14-.88c-23.58-29.91-25.48-19.07-56.63-29.88a1,1,0,0,0-.35,0h-.24c-2,2.79-4.71,4.76-7.47,6.8a48.45,48.45,0,0,1-10.25,6,36.38,36.38,0,0,1-4.07,1.42,30.84,30.84,0,0,1-4.06,1.13c-.81.17-1.58.49-2.37.73a2.57,2.57,0,0,1-.4,1.06l-.08.09a.09.09,0,0,0,0,.05,3.5,3.5,0,0,1-1.44,4.43c-6.79,3.11-14.74,2.63-21.7.29-1.14-.38-2.28-.69-3.39-1.08-1.57-.44-3.12-.93-4.62-1.42a.85.85,0,0,0-.81.14,14.18,14.18,0,0,1-6.15,2c-1.07.43-2.15.83-3.25,1.15a43.83,43.83,0,0,1-9.18,1.47c-2.78.16-5.55-.13-8.33-.22a4.27,4.27,0,0,1-.68.57,3.57,3.57,0,0,1-4.83-1.27,71.38,71.38,0,0,0-4.34-7.36l-1.11-.35a34.79,34.79,0,0,1-4.57,1.48,15.48,15.48,0,0,1-4.48.49h-.15a26,26,0,0,1-6.59.36l-.2.08a3.56,3.56,0,0,1-4.34-2.46c-.46-2.28-1.23-4.46-1.77-6.72a.91.91,0,0,0-1.63-.31,16.26,16.26,0,0,1-4,4c-1.61,1.61-2.84,1.76-3.77,1.09a6,6,0,0,1-.78.14,3.53,3.53,0,0,1-3.52-3.52s0-.19,0-.35,0-.26,0-.32a11,11,0,0,0-.32-1.12c-.25-.75-.54-1.49-.72-2.26a33,33,0,0,1-.43-5.62l-.06-.68s0-.08,0-.13c-.06-.36-.12-.71-.2-1.07s-.13-.48-.2-.71c-4.36,2.66-9.3,4.1-13.91,6.21a3.78,3.78,0,0,1-.33.22c-.63.3-1.25.62-1.87.94-2.35,1.68-4.21,2.29-5.56,2.14a7.77,7.77,0,0,1-1,.1,3.57,3.57,0,0,1-3.53-3.52,18.25,18.25,0,0,1,1.54-6.69q.79-2.28,1.48-4.61c-4.19,5.21-10.14,11.45-14.14,7.46a5.64,5.64,0,0,1-2.41-3.6,58.7,58.7,0,0,1-.66-7.73c-.16-1.93-.31-3.61-.58-5.31a.91.91,0,0,0-1.39-.64c-7.09,4.76-13.61,15.13-15.57,19.22a.92.92,0,0,0,1.06,1.28c10.09-2.56,3.27,2.84.17,4.69-7.56,4.52-9.74,10.3-10.36,13.26a.92.92,0,0,0,1.37,1c6.7-4,3.29-1.54,2.82.22-.8,2.93-6.48,9.62-5.26,18.51a.93.93,0,0,0,1.8.13c2.75-8.56.79,8.64,6.08,13.93,1.77,1.77,0-7.07,3.54-3.54.4.4,4.71,15.5,5.25,17.47a.89.89,0,0,0,.21.38C322.39,603.86,342.16,652,390.45,656h.12c7.13,3.36,95.52,6.89,102-4.69l.16-.17C499.15,642.15,511.14,612.84,503.54,613.32Z" transform="translate(2207.44 1169.67)"/><path d="M603.77,279.82a1,1,0,0,1,.78-1.8c13.66,3.19-14.61-13.35-34.18-16.4,3.56-.35,6.89.38,10.26,1.05a1,1,0,0,0,.7-1.85C572,255.18,534.7,251.7,550.44,250a1,1,0,0,0,.32-1.92c-8-3.7-23.91-4.27-31.45-4.9a32.65,32.65,0,0,0,2.19-2.54l1-.19c-.19-.14-.39-.27-.59-.4a39.54,39.54,0,0,0,3.64-6,1,1,0,0,0-.19-1.14c-3.78-4.07-8.67-16.32-12-22.54a1,1,0,0,1,.13-1.13,97.56,97.56,0,0,1,11.19-11.17.77.77,0,0,0,.19-.21C561,146.11,658.47,151.41,615.07,60.69a1.1,1.1,0,0,0-.22-.31C600.16,45.65,627.28,116,585.27,132c-12.58,5.68-64.63,34.91-64.35,28.08.73-18.16-10.68-59.53,6.53-73.65a1.48,1.48,0,0,1,.25-.14c7.59-3.27,3.24-10.37-3.8-7.41l-.22.11c-39.35,26.15-8.47,93-38.68,119.47a1.06,1.06,0,0,1-.89.22c-15.31-3.32-29.53,21.37-31.54,27.54a1,1,0,0,1-.8.66c-2.53.31-11.2.53-14.26.92a1,1,0,0,1-1.09-.92,58.31,58.31,0,0,0-1.12-7.07,1,1,0,0,0-1.53-.62c-5.63,3.72-10.64,7-7.59-2.66a1,1,0,0,0-1.39-1.23c-5.24,2.79-3.67,14.45-11.33,13.66-4.2-.44-15-5.09-12.28-16.36,1.13-4.64-12.87,19.91-17.27,19.2s-8.1-19.16-9-23.67c-1.9-9.9-3.56,19.28-4.45,17.81-2.91,7.89-13.51-19.32-16.33-1.86a1,1,0,0,1-1.86.34,39.41,39.41,0,0,0-10.48-10.72,1,1,0,0,0-1.37,1.4c3.34,5.08,3.5,6.63,2.58,9.85a1,1,0,0,1-1.23.72,24.75,24.75,0,0,1-3.07-1.07,6.26,6.26,0,0,1,.78,3.21c-4.09-2.31-10.82-1.39-14.31-3.65a1.4,1.4,0,0,1-.2-.16c-15-14.26-19.1-40.75-40.1-35.6a1,1,0,0,1-1-.34c-8.42-10.79-18-25.83-18.92-35.65s4.83-89.05-26.87-103.08c-8.79-4.87-14.38,2.33-5,7.44l.21.14c20.74,18.72,5.87,62.54,6.33,82.76.17,7.59-65.72-32.6-82.56-41.22-33.31-17.06-37.59-49.25-32.7-80.86.36-2.33,1.08-4.7,1.26-7.16.33-4.26-6-6.27-8.24-2.62C52.28,108.28,190.49,119.26,233.87,181.1a.87.87,0,0,0,.21.22,141.18,141.18,0,0,1,18.66,19.62,1,1,0,0,1,0,1.2c-3.33,4.31-13.21,20.58-16.21,24.88a1,1,0,0,1-1.48.17c-1.08-1-2.15-2-3.24-2.95a1,1,0,0,0-1.62.43c-.78,2.32-1.51,4.64-2,6.89a1,1,0,0,1-1,.77c-12.45.1-21.05.66-28,3.35a1,1,0,0,0,0,1.87c11.83,4.56-47.17,4.41-55.62,11.24a1,1,0,0,0,.36,1.77c18.58,5.34-74.18,11.53-45.43,17.84a1,1,0,0,1,.14,1.92c-28.06,10-43.54,21.75-46,31.38a1,1,0,0,0,1.53,1.11c42.57-28.73-10.53,15.79.94,30.88a1,1,0,0,0,1.69-.18,51,51,0,0,1,18.5-20.75A1,1,0,0,1,76.85,314c-6.41,14.71-15.92,51.8,8.2,24.74a1,1,0,0,1,1.6.09C94.93,351,89.43,398,105.54,365.12a1,1,0,0,1,1.39-.47c15.75,8.88,4,37,11.24,27.79a1.1,1.1,0,0,1,.28-.25c19.3-11.89,21.64,13.88,19.61,25.6a1,1,0,0,0,1,1.16c7.57-.32,10.83-3.63,11.11-11.26a1,1,0,0,1,1.1-1c15.43,2,7.75,18.93,4.66,24.68a1,1,0,0,0,1.14,1.45c19.24-4.51,18-20.18,20.73-19.32,15.75,4.89,5.5,16.07,1.58,19.71a1,1,0,0,0,.46,1.71c17.11,4.37,31.63-13.65,34.39-9.82,3.46,4.81-7.36,12.5-12.1,15.55a1,1,0,0,0,.37,1.83c11.55,1.6,24.33-8,31.13-14.1a1,1,0,0,1,1-.18,16.09,16.09,0,0,0,6,.66,1,1,0,0,1,1,1.2,42.46,42.46,0,0,1-3.57,9.68,1,1,0,0,0,1.42,1.3c5-3.11,10.32-8.72,15-14.68a1,1,0,0,1,1.63.08c2.22,3.69,4,13.78,5.44,15.46l-.33.94a4.84,4.84,0,0,0,1.37.35c9.1,12-.46,16.51-5.61,18a1,1,0,0,0-.11,1.9c11.4,4.85,20.65,2.88,23.37,2.1a1,1,0,0,1,1.2.56c2.71,6.26.94,13.07,0,15.72a1,1,0,0,0,.91,1.32c10.65.82,20.59-4.85,21.65-3.71,6.45,7,10.35,8,9.94,16.85a1,1,0,0,0,1.69.75c4.13-4.07,7.81-3,9.59-8.76,4.77,6.8,7.07,8.84,5.79,12.93a1,1,0,0,0,1.34,1.23c4.91-2.22,10.5-3.09,14.51-6.94,3-3.77,8.78,4,9.21,10.57a1,1,0,0,0,1.81.47c2-2.95,4.8-1.8,6.56-4.16a1,1,0,0,1,1.79.43c.75,4.5,2.49,9.41,3,12.77a1,1,0,0,0,1.11.85c4.14-.49,10.58-.08,15.94-3a1,1,0,0,1,1.31.3c1.61,2.38,6.22,9.65,6.54,9.86,1,.7,21.64,1.71,26.14-6.27a1,1,0,0,1,1.32-.38c15.21,6.62,21.11,5.76,23.81,4.89,2.19-.71-8.84-1.77-3.54-7.07.34-.26,15.21,1.83,25.79-4.83.42-.27,5.89-4.36,5.67-4.81-.72-1.55-7.25-4.91-3.17-6.28,0-.07,13.59,1.22,12.37,0-5.3-5.3,5.89-8.46,7.08-10.6,1.05-1.92-1-6.07-2.36-8.57a1,1,0,0,1,1.06-1.46,7.85,7.85,0,0,0,4.05-.18,1,1,0,0,0,.64-1.15c-2.43-13-9.23-4.85,2-11.08a1,1,0,0,0,.33-1.44c-2.1-3-8.33-13-2.15-18.55,1.41-1.26-.41,10,14.67,2.41a1,1,0,0,0,.25-1.6c-2.33-2.34-7.87-8.38-6.08-11.42,1.08-1.83,8.34,7.55,12.11.54a1,1,0,0,0-.06-1c-1.61-2.44-3.29-4.82-4.66-6.85a1,1,0,0,1,1.24-1.47,3.81,3.81,0,0,0,2.82.33,1,1,0,0,0,.72-1.2c-.73-3.08-3.17-13.74-3.13-19.05a1,1,0,0,1,1.6-.78c4.86,3.63,13.73,9.52,22.74,11.63a1,1,0,0,0,1.17-1.37c-10-23.47,11.23-2.39,21-7.53a1,1,0,0,0,.32-1.54c-1.72-2.14-5.8-8-4.28-13.89s13.16,3.08,19.57,3.93a1,1,0,0,0,1-1.41c-1.68-3.67-5.19-13.59,3.44-17.83a1,1,0,0,1,1.46.73c.66,4,1.44,7.9,3.8,11.61a1,1,0,0,0,1.84-.63c-.71-9.05-.83-26.55,6.82-20.62,8.4,20.29-1.26-8.47,5.28-20.27a1,1,0,0,1,1.76,0c1.08,2,3.32,5.32,6.64,7.11a1,1,0,0,0,1.47-1.15c-1.48-5.07-4.74-18.38-.08-24.08a1,1,0,0,1,1.7.39c1.09,3.66,3.71,12.37,3.59,11.29-1.25-11,1.15-22,.87-28.66a1,1,0,0,1,1.75-.73A29.25,29.25,0,0,1,620,323.14a1,1,0,0,0,1.94,0c2.36-11.66-14.39-37.24-.29-21a1,1,0,0,0,1.73-1C621.23,294.91,613.63,286.69,603.77,279.82Zm-361.19,16.7a47.17,47.17,0,0,0-9.05,13.79c-.64,1.5-2,2.59-9.08-.95-.94-.46,0,8.84,6.49,12,2.15,1.06-10.35,5.22-11.65,11.35a1,1,0,0,0,1.11,1.19c3.84-.48,15-1.47,12.89,3.71-1.59,3.82-5.31,12.38-12.38,8.84-2.19-1.19-1.76,4.59,7.19,12.81,6,5.52,6.92,14,7,19.55a1,1,0,0,1-1.81.6c-2.82-3.86-5.5-7.66-8.83-10.6-3.85-3.4-8.63.33-11,2.63a1,1,0,0,1-1.7-.75c.23-4.9,5.11-10.36,3.82-10.1-5.43,1.09-11.52-.49-15.41-1.87a1,1,0,0,1,.23-1.94c6-.8,8.94-3.08,8.11-3.26-11.58-2.57-28.77-10.76-37.28-15a1,1,0,0,1,.57-1.88c7.5.75,12.24.16,10.19-.77-13.49-6.13-18-10.55-22.24-13.22a1,1,0,0,1,.56-1.84A93.18,93.18,0,0,0,172,320.4c3.43-.31-2.16-3.2-5.48-4.75a1,1,0,0,1,.36-1.91c6.1-.53,19.31,4.63,23.65,3.71,2.45-.52-8.56-11.32-6.73-9.85,8.84,7.07,25.85,5,29.72,3.84,3.22-1-8.8-5.42-8.51-5.61,5.31-3.54,18.1,1.83,19.95.89,2.43-1.25,4.67-2.48,6.69-3.64,1.32-.76.07-2.41-.93-3.44a1,1,0,0,1,.22-1.56c5-2.75,8.84-3.31,11-3.26A1,1,0,0,1,242.58,296.52ZM358.49,396c15.66-2.38,32-10.59,26.06-29.75-3-22.6-26-44-50.32-35.26a1,1,0,0,0-.56,1.42c5.69,7-10.22,17.59-15.53,7-.29-.6-1.69.94-2.22,1.34-20.07,15.35-11.73,41.46,9.6,50.45-50.7-19.8-23.39-74.79,24.28-72.58,23.19,1.38,37.39,23.4,41,42.78C398,384.4,377,393.9,358.49,396Zm26.83-125.56c-3.61-2.07-9.7-5.92-14.14-7.07-8.87-2.29,9.06-.93,14.14,1.77,2.78,1.48,4,1.5,7.07,3.53.87.57,2.16-17.32.49-24.4,4.81,3.59,6.08,23.26,6.59,22.64,7.81-9.73,14.27-8.84,19.44-8.84,1.95,0-11.85,5.28-17.6,17.87-1,2.14-4.53,2.95-6.84,1.5C390.39,274.89,389.57,272.9,385.32,270.47ZM454.06,427.9c-.47,5.37-7.59,14.28-11.24,8.83l.76-1.6c1.75,0,3.46-2.12,3.77-4.24.75-6.13-6.17-4.55-6.37.5-.08,1.5-.89,6.9,2.53,8.56a1,1,0,0,1,.42,1.44c-1.81,2.79-5.69,4.72-8.82,5.83a1,1,0,0,0-.66,1c.35,3.72,3.47,17.95.37,22-1,1.28,10.61,5.27,17.45-.58.16-.13.23.33.23.55,0,2.91-10.38,10.46-22.51,5.5a1,1,0,0,0-.89.07c-10.61,6.69-25.25,6.56-31.4-3.8-.73-3.33,19.25,10.69,31.82-1.77,3.54-3.51,1.35-16.84,1.38-19.69v-.4c0-.36,0-1.35,0-1.78-3.36.11-6.83-1.1-8.66-3.77a1,1,0,0,1,.27-1.44c4.95-2.91,4.28-8.86,4.28-10.65-.2-6.35-9.42-5.79-8.49.67a4.53,4.53,0,0,0,5,4.11l1,1.59c-4.95,7.4-15.94-.07-16.86-8.18C401,406.25,458.17,400.93,454.06,427.9Zm46.24-54.38c-4.65,5.49-12.19,10.73-21.11,14.33,45.38-18.9,16.58-71.32-24.56-57.61-.55.18-1,.91-.62,1.33,5.56,6.08-6.81,18.46-13.23,11a1,1,0,0,0-1.54.1c-13.73,19.31-18,44.47,7.41,49.17-15.69-2.58-29.47-11.33-23.11-31.19l0-.06c3.92-19.27,18-41.18,39.71-42.89C492.24,314.34,524.1,346.7,500.3,373.52ZM561,306c-3.63,1.46-15.26,8.05-25.42,17.56-.75.7,5.48.27,8.84,1a1,1,0,0,1,.35,1.78c-4.48,3.26-18.25,13.48-21.56,18.42-.08-1.89,1.92-1.66,1.76-3.53.12-4,7.31-15.32,6-21.33a1,1,0,0,0-1.73-.45c-2,2.23-6.4,6.4-7.61,2.5.24-.34,1.59-7.24,6.89-12.55.51-.5-10.43.65-10.61,0a22.44,22.44,0,0,1-.72-3.86,1,1,0,0,1,1-1.13c4.54.31,14.64-4.44,21.24-1.17a1,1,0,0,1,.09,1.72c-2.05,1.36-5.65,3.88-4.44,4a57.9,57.9,0,0,0,26-3Z" transform="translate(2207.44 1169.67)"/><path d="M862,711.38c31.12-5.57,67.3-4,109.07,8.76,0,0-47.81-14.91-91.73-53.08,26.43-15.95,59.78-27.37,102-30.94,0,0-50.45,4-105.77-15.42,18.06-25.79,44.67-50.12,83-70.51,0,0-50,26.26-113.31,27.89,7.33-31.66,23.47-65.34,52.46-100.07-6.26,7.51-38.5,44.23-88,66.25-4.47-30.63-2.32-66,9.88-106.59-2.78,9.29-17.77,55-54,94.51-15.1-26.26-26-59.06-29.89-100.08,1,13,2.93,59.6-15.71,107.79-24.44-18.23-47.56-44.25-67.45-80.74,5.56,10.64,23.12,47.35,27.2,93.55-27.63-8.57-57-24.34-87.55-50.13,0,0,37.87,34.64,62.21,88.77-30.12,4.06-65.24,1.53-106.12-11,0,0,46.65,16.34,89.65,54.95-26.21,14.52-59.28,24.91-101,28.44,0,0,51.45-2.3,107,18.88-18.44,24.32-45.18,47.51-83.15,67.68,0,0,47.51-22.86,108-24.79-7.48,29.86-22.93,61.21-49.81,93.06,0,0,34.17-37.21,87.85-59.89,4.21,29.59,2.05,63.35-9.69,101.73,0,0,16.16-45.87,55-87.23,14,25.38,23.91,56.62,27.17,95.11,0,0-2.15-50.25,19.6-104.11,23.94,18,46.33,43.42,65.2,78.93,0,0-19.27-40.23-22.5-93.43,27.13,8.2,55.52,23.18,84.46,47.61C926,797.3,887.38,764.36,862,711.38Zm-35,62.4c-15.75-29.63-35.31-48.42-55.91-59.87-36.71,29-51.5,71-51.5,71,10.45-34.17,9.14-62.69,1.45-86.21-47.77-4.58-89.17,15.36-89.17,15.36,32.7-17.37,52.47-38.21,63.79-59.62-30.38-35.23-71.83-49.73-71.83-49.73,34.17,10.45,62.1,10.1,84.82,3.65,2.78-39.36-13.33-73.22-17.74-81.64,16.6,30.45,36.69,49.6,57.6,61.13,34.42-27.24,47.74-67.82,49.88-75C787.55,549,789,578.57,797,602.64c48.8,4.73,90.81-17.33,90.81-17.33-33.24,17.66-52.77,39.92-63.62,62.9,30.8,33.71,71.66,46.45,71.66,46.45-32.9-10.07-60.4-9.32-83.16-2.57C809.07,736.41,827,773.78,827,773.78Z" transform="translate(2207.44 1169.67)"/><path d="M828.44,616.81S758.28,652.89,722,583.25c0,0,37.21,65.68-32.09,101.75,0,0,70.37-33.17,104.84,33.07C794.79,718.07,763.21,650.75,828.44,616.81Z" transform="translate(2207.44 1169.67)"/><path d="M-1057.82,90.37a.61.61,0,0,0,0,.12S-1057.84,90.44-1057.82,90.37Z" transform="translate(2207.44 1169.67)"/><path d="M-1196.29,287.7l-.13-.18,0,0Z" transform="translate(2207.44 1169.67)"/><path d="M-1121.95,462.37c-4.61-3.67-9.85-.43-14.59-1.88-1.51-.46-3.47-.6-4.4-1.64q-12.81-14.33-25.26-29c-2.33-2.74-4.12-5.94-6.49-9.41,3.92-2,7.37-3.72,10.85-5.43,8.36-4.1,22.26-4.19,36-10.75,14-6.71,13.28-16.84,9.74-25.34-.51-1.21,3.7.69,5.92-1.53,0,0-4.44-1.1-7.76-7.75-.66-1.32,0-1.11,4.43-3.33,0,0-5.54-6.65-10-11.08-1.39-1.38,2.22,0,5.54,1.11,0,0-4.43-15.51-25.44-19.39-.71-.13-1-1-1.56-1.36-2.14-1.73,3.73-.31,10.38,1.91,0,0-8.87-7.76-23.72-11.09-1.57-.35.45-2.21,2.66-2.21a69.35,69.35,0,0,1-14.4-4.43c-1-.45,2.21,0,5.54-1.11,0,0-8.87-4.43-13.3-4.57-.31-1.06-1.28-3.27-1.11-5.4,0-.4,1.11,0,3.33,4.43,0,0-.49-17.05-1.66-18.84-6.62-.55-28.32-.1-34.11-1.93-2.7-.86-10.05-3.31-12.38-4.84a70.31,70.31,0,0,1-6.09-4.5c-2-1.59-10.82-8.95-12.47-10.86s-10.1-14.44-13.26-18.82c-1.45-2-2.86-4.06-4.37-6,.31,2.28.45,4.6.59,6.83.4,6.17.15,12.33.24,18.5,0,2.73-.05,5.19.22,7.88a42,42,0,0,1-.64,10.74h0a9.21,9.21,0,0,1-.65,1.65c-1.19,2.09,1.52,4.71-7.35,9.14-1.36.68,7.52,1.71,3.61,3.25-6.63,2.61-13.65,7-14.69,8.94,0,0,8.14.78,6.35,1.3-2.09.62-12.63,3.2-17.43,9.78-.17.24,4.12-3.1,6.65,0,1.4,1.73-13.57,7.75-14.41,13.3,0,.21,11.62-2.63,8.46-.91-4.67,2.55-11.79,4.34-19,11.92,0,0,12.51-2.81,8.45,1.44-5.25,5.5-14.86,6-18.61,12,0,.05,4.07.23,5.15,2.52-1.85,3.88-2.82,8-12.91,7.39,0,0,7.35,4.9,7.8,5.76,3,5.82-5.11,4-5.11,4-1.3,8.31,6.7,4.45,7.32,5.94.8,2-20.46,7.67-25.78,8.11-3.21.26-7.08,1.37-9.28,3.51a260.23,260.23,0,0,0-21,22.59c-7.33,9.08-14.89,21.07-21.79,30.48a22.07,22.07,0,0,1-4.35,4.78c-8.69,6.44-11.15,18.72-10.4,28.87.31,4.23,4.65,3.24,11.27,2.71,5.51-.44,4.29-7.89,3.9-9.24-.56-2,.51-2.3,1.5.3,1.08,2.88,1.2,8.62,3.88,9,5.1.65,6.16.7,10.45.09s5.07-1.58,2.09-9.94c-.17-.47-.22-1.32.6-.3,2.38,3,3,10.45,4.77,10.45,0,0,7.13.35,7.91-2,2.2-6.75,1.67-15.95-.79-22.78a6.75,6.75,0,0,1,.65-5.29c4.22-6.3,9.53-14.9,14.44-20.65s10.73-11.06,16.36-16.32c1.09-1,3.15-1.14,4.81-1.4,9.21-1.43,18.47-2.53,27.63-4.22,5.31-1,12.19-1.37,16.38-4.17,1.79-1.19-.5,3.25-.5,3.25,3.37.52,6.3-1,7.38-2.8,3.48,1.54.75,4.95.75,4.95,4.55-.45,12.7-11.17,16.39-12.28a9.23,9.23,0,0,0-3,7.69s14.62-12.55,16.66-18c.62-1.66-3.4,10.35-3.4,10.35,7.42-3.09,18-17.75,18.87-19.45,5.67-11,8.55-9.59,13.73-17.61,1.09-2.81,8.8-17.13,10.45-20.9.72-1.66-.23,9-8,21.21,1.11,4.43,2.22,12.19,2.22,12.19,1.11-2.22,4.18-6.91,4.43-6.65,2.22,2.21,0,8.86,0,8.86,2.22-1.11,5.54-5,5.54-4.43,0,3.32,2.22,8.87,2.22,8.87,0-5.55,1.41-4.62,1.65-3.92.56,1.7,5,7.24,5,7.24,0-3.32.35-4.29.63-3.68a9.59,9.59,0,0,0,8.23,5.9c-2.22-3.33,1-1.9,2.22-2.22,0,0,2.22-1,2.55-1.22,3.45-2.45,11.15-6.54,9.72-5.43-2.69,2.09-6.23,5.22-10.15,7.76-4.5,3.74-15.16,13.15-18,16-3.52,3.49-4.22,7.65-1.85,12.16,2.81,5.31,5.64,10.62,8.39,16,5.43,10.54,13.5,24.21,18.3,35s10.07,17.37,22,17.29c4.68,0,9.61-2.65,14-1.06,6.81,2.48,16.56,1.83,17.78-.43,6.27-11.64-6.83-15.54-6.27-15.52,10.15.3,9.75,13.11,10.45,11.94C-1112.41,481.3-1110.92,471.15-1121.95,462.37Z" transform="translate(2207.44 1169.67)"/><path d="M-1094.58,208.67c3.69-4.31-.34-5.48-2.54-3.32-1.39,1.44-3.09,2.35-5.28,5.76-1.31,2-5.3,12.35-5.93,12.62-1.91.8-1.42-2.46-1.42-2.46.49-1.54,3.71-7.3-.36-6.72-4.64,4-4.58,9.31-3.41,15.69.92,5,1.81,8.2,2.81,8.8a6.6,6.6,0,0,0,5.51.62c4.24-1.15,7.2.38,9.82-2.89,3-3.74,1.82-8.21,2.67-10.86.61-1.93.64-3.47,2.47-6.73,1.11-2,2.33-4.43,4.66-6.2a1.3,1.3,0,0,0-.63-2.41c-1.66.49-5.23,4-6.53,6.33-1.9,3.47-3.52,6.31-3.52,6.31,1.46-4.24,1.64-5.66,3.41-8.7,1-1.77,3.41-3,6-6.74,2-2.84-.93-3.35-2.62-2.13a44.19,44.19,0,0,0-7,6.92c-1.72,2.19-3.64,7.65-4.47,9.51a.39.39,0,0,1-.65.12C-1099.15,215.65-1099.69,214.64-1094.58,208.67Z" transform="translate(2207.44 1169.67)"/><path class="cls-2" d="M-1166,269.21c0,.38-.07.6-.07.58C-1166,269.59-1166,269.4-1166,269.21Z" transform="translate(2207.44 1169.67)"/><path d="M-1137.48,264.75c-4.17.22-3,10.29-7.21,10.05h0a3,3,0,0,1-.42-.61v.05c-4.38-9.72,8.18-28.74,1.8-25.3-3.1,2.4-6.12,10.47-7.4,15.29-.19.71-.12.49,0-.23.63-4.31,1.58-12.35,2.63-14.84.94-3.34-1.51-4.8-3.25-1.94-3,4.86-3.6,9.44-4.69,11.89-1.25,4.67-2.17,9.89-2.34,9.38.22-3.29-1.16-3.77.95-10,2.17-6.44-1.86-6.93-3.74-2.7-3.43,5-3.33,20.53-3.47,20.61,0,.08-26.18-5.39-32.68-6.74v0c-1.68-.32-3.08-.64-3.76-.78a.53.53,0,0,1-.34-.26c-3.81-7-15.46-23.78-26.49-32.59a.54.54,0,0,1,.59-.91c13.24,6.84,20.23,17.13,27,28.28a.54.54,0,0,0,.32.24c6.25,1.64,21.62,4.28,27.66,6.1a.54.54,0,0,0,.67-.35c1.82-6.05,3.7-17.14,4.9-26.55.11-.85,0,1.05,2.1,1.05a36.07,36.07,0,0,1-1-6.29c0-.7,1,1.05,3.15,0,0,0-3.14-4.21-3.15-5.25,0-.53,3.15,0,4.2-1,0,0-4.2-4.2-4.14-6.77,0-.4.62-1,.68-.62.31,2.14,5.56,3.19,5.56,3.19-1-1-1-2.64-.65-2.36a6.42,6.42,0,0,0,5.89,1.31c-2.09-1.05-1.73-2.08-1-2.1,3.86-.1,8,.28,14.9-.33,1.66-.15,2,.55,2.89,1.21,6.27,6.28,13.42,6,22.8,10.9-.19-.65-.36-1.3-.52-1.94-1.19-4.84-2.32-10-.6-14.88a.56.56,0,0,0-.09-.53c-14-17.76-15.12-11.32-33.61-17.73a.49.49,0,0,0-.21,0h-.14a19,19,0,0,1-4.43,4,29,29,0,0,1-6.09,3.55,19.82,19.82,0,0,1-2.42.84,17.52,17.52,0,0,1-2.41.68c-.48.1-.93.29-1.4.43a1.51,1.51,0,0,1-.24.63s0,0,0,.05v0a2.07,2.07,0,0,1-.85,2.63c-4,1.85-8.75,1.56-12.88.17-.68-.22-1.35-.41-2-.64-.93-.26-1.85-.55-2.74-.84a.52.52,0,0,0-.48.08,8.45,8.45,0,0,1-3.66,1.21,16.36,16.36,0,0,1-1.93.68,25,25,0,0,1-5.44.88c-1.66.09-3.3-.08-5-.13a2.6,2.6,0,0,1-.4.33,2.11,2.11,0,0,1-2.87-.75,41.74,41.74,0,0,0-2.58-4.37l-.66-.2a20.91,20.91,0,0,1-2.71.88,9.2,9.2,0,0,1-2.66.28h-.08a16.11,16.11,0,0,1-3.92.21s-.07,0-.12,0a2.12,2.12,0,0,1-2.57-1.46c-.27-1.36-.73-2.65-1.06-4a.54.54,0,0,0-1-.19,9.65,9.65,0,0,1-2.38,2.39c-1,1-1.68,1-2.23.64a3.4,3.4,0,0,1-.46.09,2.1,2.1,0,0,1-2.1-2.09s0-.11,0-.2a1,1,0,0,0,0-.2c0-.22-.12-.44-.19-.66-.15-.45-.32-.89-.43-1.34a20.69,20.69,0,0,1-.25-3.34c0-.13,0-.27,0-.4a.22.22,0,0,0,0-.08c0-.21-.07-.42-.11-.63s-.08-.29-.12-.43c-2.59,1.58-5.53,2.43-8.26,3.69l-.2.13-1.11.56a5.13,5.13,0,0,1-3.3,1.27l-.57.06a2.12,2.12,0,0,1-2.1-2.09,11.11,11.11,0,0,1,.91-4c.32-.9.61-1.82.88-2.74-2.48,3.09-6,6.8-8.39,4.43a3.33,3.33,0,0,1-1.43-2.14,35.09,35.09,0,0,1-.39-4.59c-.1-1.14-.19-2.14-.34-3.15a.55.55,0,0,0-.83-.38c-4.21,2.83-8.08,9-9.24,11.41a.54.54,0,0,0,.63.76c6-1.52,1.94,1.68.1,2.78-4.49,2.69-5.78,6.12-6.16,7.87a.55.55,0,0,0,.82.57c4-2.36,2-.91,1.67.14-.47,1.74-3.84,5.7-3.12,11a.55.55,0,0,0,1.07.08c1.63-5.08.47,5.13,3.61,8.27,1.05,1,0-4.2,2.1-2.1.24.24,2.8,9.2,3.12,10.37a.57.57,0,0,0,.12.23c16.07,17.3,27.81,45.89,56.47,48.27h.07c4.23,2,56.7,4.09,60.54-2.78l.09-.11C-1140.09,281.86-1133,264.47-1137.48,264.75Z" transform="translate(2207.44 1169.67)"/><path d="M-1067.39,80.5c-1.28-3.7-5.8-8.58-11.64-12.66a.59.59,0,0,1,.46-1.07c8.11,1.9-8.67-7.93-20.29-9.73a20.33,20.33,0,0,1,6.09.62.6.6,0,0,0,.42-1.1c-5.56-3.35-27.68-5.41-18.34-6.41a.59.59,0,0,0,.19-1.13c-4.72-2.2-14.19-2.54-18.67-2.91.46-.49.9-1,1.3-1.51l.57-.1c-4.76-.85-9.51-1.84-14.26-2.88-1.92-2.16-4.37-8.28-6-11.41a.5.5,0,0,1,.06-.58,51.81,51.81,0,0,1,5.71-5.7.47.47,0,0,0,.1-.1c18.39-26.39,68.14-23.69,46-70a.83.83,0,0,0-.11-.15c-7.49-7.52,6.34,28.36-15.09,36.54-6.42,2.9-33,17.81-32.83,14.32.37-9.26-5.45-30.36,3.33-37.56l.13-.08c3.87-1.67,1.66-5.29-1.94-3.78l-.11.06c-20.07,13.34-4.32,47.41-19.73,60.94a.49.49,0,0,1-.45.11c-6.93-1.5-13.41,8.23-15.51,12.65a.58.58,0,0,1-.32-.48,34,34,0,0,0-.67-4.2.59.59,0,0,0-.91-.37c-3.34,2.21-6.31,4.15-4.5-1.58a.6.6,0,0,0-.83-.73c-3.11,1.66-2.17,8.58-6.72,8.11-2.5-.26-8.91-3-7.29-9.71.67-2.76-7.64,11.82-10.25,11.4s-4.81-11.38-5.32-14c-1.13-5.88-2.11,11.44-2.64,10.57-1.73,4.68-8-11.47-9.7-1.11a.59.59,0,0,1-1.1.21,23.34,23.34,0,0,0-6.22-6.37.59.59,0,0,0-.81.83c2,3,2.07,3.94,1.53,5.85a.6.6,0,0,1-.73.42,14.1,14.1,0,0,1-1.83-.63,3.73,3.73,0,0,1,.47,1.91c-2.43-1.37-6.42-.83-8.49-2.17a.38.38,0,0,1-.12-.09,33.78,33.78,0,0,1-4.46-5.41h0c-4.16-6.59-7.38-13.29-15.22-11.37a.49.49,0,0,1-.52-.17c-4.3-5.51-9.18-13.18-9.65-18.19S-1271.87-45.85-1288-53c-4.48-2.48-7.34,1.19-2.52,3.8l.1.07c10.58,9.55,3,31.9,3.23,42.21.09,3.88-33.52-16.62-42.11-21-17-8.71-19.18-25.13-16.68-41.25.18-1.19.55-2.4.64-3.65.17-2.18-3-3.2-4.21-1.34-33.23,51.24,37.27,56.84,59.4,88.39a.52.52,0,0,0,.1.11,71.83,71.83,0,0,1,9.52,10,.5.5,0,0,1,0,.61c-1,1.31-3.21,4.78-5.14,7.83-3.31.54-6.63,1.08-10,1.66-.56.88-1,1.6-1.37,2.08a.59.59,0,0,1-.88.1c-.64-.57-1.27-1.17-1.92-1.76a.61.61,0,0,0-1,.26c-.46,1.38-.89,2.75-1.2,4.09a.59.59,0,0,1-.58.46c-7.38.06-12.49.39-16.59,2a.6.6,0,0,0,0,1.11c7,2.7-28,2.62-33,6.67a.6.6,0,0,0,.21,1c11,3.17-44,6.85-27,10.59a.59.59,0,0,1,.08,1.14c-16.66,5.92-25.84,12.91-27.29,18.63a.6.6,0,0,0,.91.66c25.26-17.06-6.26,9.37.55,18.33a.6.6,0,0,0,1-.11,30.25,30.25,0,0,1,11-12.32.6.6,0,0,1,.87.74c-3.8,8.73-9.45,30.74,4.87,14.69a.6.6,0,0,1,1,.05c4.91,7.23,1.65,35.1,11.21,15.6a.62.62,0,0,1,.83-.28c9.35,5.28,2.39,21.94,6.67,16.5a.57.57,0,0,1,.16-.15c11.46-7,12.85,8.24,11.64,15.19a.59.59,0,0,0,.61.69c4.49-.18,6.42-2.15,6.59-6.68a.59.59,0,0,1,.65-.58c9.16,1.16,4.6,11.24,2.77,14.65a.6.6,0,0,0,.67.86c11.43-2.68,10.67-12,12.31-11.47,9.35,2.91,3.26,9.54.94,11.7a.6.6,0,0,0,.27,1c10.16,2.59,18.78-8.11,20.41-5.83,2.06,2.85-4.36,7.42-7.18,9.22a.59.59,0,0,0,.22,1.09c6.86.95,14.44-4.74,18.48-8.36a.57.57,0,0,1,.57-.11,9.56,9.56,0,0,0,3.55.39.59.59,0,0,1,.61.71,25,25,0,0,1-2.12,5.75.6.6,0,0,0,.85.77c3-1.85,6.12-5.18,8.88-8.71a.6.6,0,0,1,1,0c1.31,2.19,2.37,8.18,3.22,9.18l-.19.56a3.11,3.11,0,0,0,.81.21c5.4,7.13-.27,9.8-3.33,10.67a.6.6,0,0,0-.07,1.13,21.35,21.35,0,0,0,13.88,1.24.6.6,0,0,1,.71.33c1.61,3.72.55,7.77,0,9.34a.59.59,0,0,0,.54.78c6.31.48,12.21-2.88,12.85-2.2,3.82,4.16,6.14,4.73,5.89,10a.59.59,0,0,0,1,.44c2.45-2.41,4.63-1.8,5.69-5.2,2.83,4,4.2,5.25,3.43,7.68a.59.59,0,0,0,.8.73c2.91-1.32,6.23-1.83,8.62-4.12,1.77-2.24,5.21,2.39,5.46,6.27a.59.59,0,0,0,1.08.29c1.19-1.76,2.84-1.07,3.89-2.48a.59.59,0,0,1,1.06.26c.45,2.67,1.48,5.59,1.8,7.58a.59.59,0,0,0,.66.5c2.46-.29,6.28,0,9.47-1.75a.58.58,0,0,1,.77.17c1,1.42,3.69,5.73,3.88,5.86.62.41,12.84,1,15.52-3.72a.61.61,0,0,1,.78-.23c9,3.93,12.53,3.42,14.14,2.9,1.3-.42-5.25-1.05-2.1-4.2.2-.15,9,1.09,15.3-2.86.25-.16,3.5-2.59,3.37-2.86-.43-.92-4.31-2.91-1.88-3.72,0,0,8.07.72,7.34,0-3.15-3.15,3.5-5,4.2-6.3s-.57-3.6-1.4-5.08a.6.6,0,0,1,.63-.87,4.5,4.5,0,0,0,2.4-.11.61.61,0,0,0,.39-.68c-1.45-7.72-5.48-2.88,1.16-6.58a.59.59,0,0,0,.19-.85c-1.25-1.78-4.94-7.73-1.27-11,.84-.75-.25,5.93,8.71,1.43a.6.6,0,0,0,.15-1c-1.39-1.39-4.68-5-3.61-6.78.64-1.09,5,4.48,7.18.32a.58.58,0,0,0,0-.61c-1-1.45-2-2.86-2.77-4.07a.59.59,0,0,1,.74-.87,2.27,2.27,0,0,0,1.67.2.61.61,0,0,0,.43-.72c-.43-1.82-1.88-8.15-1.86-11.3a.59.59,0,0,1,.95-.47c2.88,2.16,8.15,5.66,13.5,6.91a.6.6,0,0,0,.69-.82c-6-13.93,6.67-1.42,12.44-4.47a.6.6,0,0,0,.19-.91c-1-1.27-3.44-4.74-2.53-8.24s7.8,1.82,11.61,2.33a.6.6,0,0,0,.62-.84c-1-2.18-3.08-8.07,2-10.58a.6.6,0,0,1,.87.43,17.37,17.37,0,0,0,2.25,6.89.6.6,0,0,0,1.1-.37c-.43-5.38-.5-15.76,4-12.24,5,12-.75-5,3.13-12a.6.6,0,0,1,1,0,10.84,10.84,0,0,0,3.94,4.23.6.6,0,0,0,.87-.69c-.87-3-2.81-10.91,0-14.29a.59.59,0,0,1,1,.23c.65,2.17,2.2,7.34,2.13,6.7-.74-6.55.68-13,.51-17a.6.6,0,0,1,1-.43,17.24,17.24,0,0,1,3.27,6.4.59.59,0,0,0,1.14,0c1.41-6.93-8.53-22.11-.17-12.48A.6.6,0,0,0-1067.39,80.5Zm-226-2.75a27.86,27.86,0,0,0-5.37,8.19c-.39.89-1.2,1.53-5.4-.56-.55-.28,0,5.24,3.86,7.14,1.27.63-6.15,3.1-6.92,6.73a.6.6,0,0,0,.66.71c2.28-.28,8.93-.87,7.65,2.21-.94,2.27-3.15,7.34-7.35,5.24-1.3-.7-1,2.73,4.27,7.6,3.57,3.29,4.11,8.29,4.15,11.61a.59.59,0,0,1-1.07.36,39,39,0,0,0-5.25-6.3c-2.28-2-5.12.2-6.5,1.56a.59.59,0,0,1-1-.44c.13-2.91,3-6.15,2.27-6-3.22.64-6.84-.3-9.15-1.12a.59.59,0,0,1,.14-1.14c3.56-.48,5.3-1.83,4.81-1.94-6.87-1.53-17.08-6.39-22.13-8.92a.6.6,0,0,1,.34-1.12c4.45.44,7.26.1,6-.45-8-3.64-10.66-6.26-13.2-7.85a.59.59,0,0,1,.33-1.09,56.56,56.56,0,0,0,6.91-.25c2-.19-1.28-1.9-3.25-2.82a.6.6,0,0,1,.22-1.14c3.62-.31,11.46,2.75,14,2.21,1.45-.31-5.09-6.72-4-5.85,5.24,4.19,15.34,3,17.64,2.28,1.91-.6-5.22-3.22-5-3.33,3.15-2.1,10.74,1.09,11.84.52,1.44-.74,2.77-1.46,4-2.15.79-.46,0-1.43-.55-2a.59.59,0,0,1,.13-.93,13.28,13.28,0,0,1,6.52-1.94A.6.6,0,0,1-1293.43,77.75Zm84.73-18.61a33.42,33.42,0,0,1,4.19,2.1c.52.34,1.28-10.28.29-14.48,2.86,2.13,3.61,13.8,3.91,13.43,4.64-5.77,8.47-5.25,11.55-5.25,1.15,0-7,3.14-10.45,10.62-.59,1.27-2.69,1.75-4.06.88-2.43-1.53-2.92-2.71-5.43-4.15-2.15-1.23-5.76-3.52-8.4-4.2C-1222.37,56.73-1211.72,57.54-1208.7,59.14Zm-15.93,77.68c9.29-1.42,19-6.29,15.47-17.66-1.77-13.42-15.45-26.1-29.87-20.93a.58.58,0,0,0-.33.85c3.37,4.14-6.07,10.43-9.22,4.14-.18-.36-1,.55-1.32.79-11.91,9.12-7,24.61,5.7,30-30.1-11.75-13.88-44.4,14.41-43.08,13.77.82,22.2,13.88,24.35,25.39C-1201.16,129.92-1213.64,135.56-1224.63,136.82Zm52.38,15.66c-.28,3.19-4.51,8.47-6.67,5.24l.45-.95c1,0,2-1.26,2.24-2.52.44-3.63-3.67-2.7-3.78.3,0,.89-.53,4.1,1.5,5.08a.59.59,0,0,1,.25.85c-1.07,1.66-3.38,2.8-5.24,3.47a.56.56,0,0,0-.39.6c.21,2.21,1,11.69-.83,14.11-.57.76,7.35,2.1,11.41-1.38.09-.08.14.2.14.33,0,1.73-6.17,6.21-13.37,3.26a.57.57,0,0,0-.52,0c-6.3,4-15,3.89-18.65-2.26-.43-2,9.45,6.29,18.89-1,2.88-2.24.81-10,.82-11.69v-.24c0-.21,0-.8,0-1.05a6,6,0,0,1-5.14-2.24.61.61,0,0,1,.16-.86c2.94-1.72,2.54-5.26,2.54-6.32a2.55,2.55,0,1,0-5,.4,2.69,2.69,0,0,0,3,2.44l.59.95c-2.94,4.39-9.47-.05-10-4.86C-1203.76,139.63-1169.81,136.47-1172.25,152.48Zm31.8-29A32.81,32.81,0,0,1-1153,132c26.94-11.22,9.85-42.34-14.57-34.2-.33.1-.6.54-.37.79,3.3,3.61-4,11-7.85,6.53a.58.58,0,0,0-.92.06c-8.15,11.46-10.69,26.39,4.4,29.18-9.31-1.53-17.49-6.72-13.72-18.51a.06.06,0,0,0,0,0c2.33-11.43,10.69-24.44,23.57-25.46C-1145.24,88.33-1126.32,107.54-1140.45,123.46Zm36-40.11a61.61,61.61,0,0,0-15.09,10.42c-.44.42,3.26.16,5.25.6a.6.6,0,0,1,.21,1.06c-2.66,1.93-10.83,8-12.8,10.93-.05-1.12,1.14-1,1-2.1.06-2.37,4.34-9.08,3.55-12.66a.59.59,0,0,0-1-.26c-1.21,1.32-3.81,3.8-4.52,1.48a17.48,17.48,0,0,1,4.09-7.44c.3-.31-6.19.38-6.3,0a13.62,13.62,0,0,1-.43-2.3.6.6,0,0,1,.63-.67c2.69.19,8.69-2.63,12.61-.7a.6.6,0,0,1,0,1c-1.22.81-3.36,2.3-2.64,2.38a34.19,34.19,0,0,0,15.41-1.79Z" transform="translate(2207.44 1169.67)"/><path d="M-924.71,323c18.48-3.31,40-2.39,64.75,5.2a170.06,170.06,0,0,1-54.45-31.51c15.69-9.47,35.49-16.25,60.53-18.37a170,170,0,0,1-62.79-9.15c10.73-15.31,26.52-29.75,49.29-41.85,0,0-29.68,15.58-67.26,16.55,4.35-18.79,13.93-38.78,31.14-59.4-3.71,4.46-22.86,26.26-52.26,39.33-2.66-18.18-1.38-39.15,5.86-63.27-1.64,5.51-10.54,32.66-32,56.1-9-15.59-15.42-35.06-17.74-59.41.6,7.7,1.74,35.38-9.33,64-14.5-10.82-28.23-26.26-40-47.92a155.67,155.67,0,0,1,16.14,55.53c-16.4-5.09-33.83-14.45-52-29.76a176.65,176.65,0,0,1,36.92,52.69c-17.88,2.41-38.72.91-63-6.51a176.64,176.64,0,0,1,53.21,32.61c-15.55,8.63-35.18,14.79-60,16.89a176.41,176.41,0,0,1,63.55,11.21c-10.95,14.43-26.82,28.19-49.36,40.17a176.62,176.62,0,0,1,64.09-14.72c-4.44,17.73-13.61,36.34-29.57,55.24A165,165,0,0,1-1016.84,351c2.5,17.56,1.22,37.61-5.75,60.39A164.66,164.66,0,0,1-990,359.65c8.32,15.07,14.19,33.61,16.12,56.45a164.8,164.8,0,0,1,11.64-61.79c14.21,10.66,27.5,25.77,38.7,46.85a164.59,164.59,0,0,1-13.35-55.46c16.1,4.87,33,13.76,50.13,28.26A170.12,170.12,0,0,1-924.71,323Zm-20.77,37c-9.35-17.59-21-28.74-33.19-35.54-21.79,17.2-30.57,42.15-30.57,42.15,6.2-20.28,5.42-37.21.86-51.17-28.36-2.72-52.93,9.12-52.93,9.12,19.41-10.32,31.14-22.69,37.86-35.4-18-20.91-42.63-29.51-42.63-29.51,20.28,6.2,36.86,6,50.34,2.17,1.65-23.37-7.91-43.47-10.52-48.47,9.85,18.08,21.77,29.44,34.18,36.29,20.43-16.17,28.34-40.26,29.61-44.49-6.42,21.4-5.58,39-.81,53.26,29,2.81,53.9-10.29,53.9-10.29-19.73,10.49-31.32,23.7-37.76,37.34,18.28,20,42.54,27.57,42.54,27.57-19.53-6-35.86-5.53-49.37-1.52C-956.12,337.82-945.48,360-945.48,360Z" transform="translate(2207.44 1169.67)"/><path d="M-944.63,266.82s-41.64,21.42-63.15-19.92c0,0,22.08,39-19,60.4,0,0,41.77-19.69,62.23,19.63C-964.6,326.93-983.34,287-944.63,266.82Z" transform="translate(2207.44 1169.67)"/><path d="M714.87-998l0,.12S714.85-997.9,714.87-998Z" transform="translate(2207.44 1169.67)"/><path d="M581.68-808.15l-.13-.18,0,0A1.71,1.71,0,0,1,581.68-808.15Z" transform="translate(2207.44 1169.67)"/><path d="M653.18-640.14c-4.43-3.52-9.47-.4-14-1.8-1.45-.45-3.34-.58-4.23-1.58q-12.31-13.79-24.3-27.87c-2.24-2.64-4-5.72-6.24-9.06,3.77-1.89,7.09-3.58,10.43-5.22,8-3.94,21.42-4,34.63-10.35,13.49-6.45,12.77-16.19,9.36-24.37-.48-1.17,3.56.67,5.69-1.47,0,0-4.26-1.06-7.46-7.46-.63-1.26,0-1.06,4.27-3.19,0,0-5.33-6.4-9.6-10.66-1.33-1.34,2.13,0,5.33,1.06,0,0-4.26-14.92-24.47-18.65-.68-.13-1-.91-1.5-1.31-2.06-1.66,3.59-.29,10,1.84a55.82,55.82,0,0,0-22.81-10.67c-1.52-.33.43-2.12,2.56-2.12a67.72,67.72,0,0,1-13.86-4.26c-1-.44,2.14,0,5.33-1.07,0,0-8.52-4.26-12.79-4.39-.3-1-1.23-3.15-1.06-5.2,0-.39,1.06,0,3.19,4.26,0,0-.46-16.4-1.59-18.13-6.37-.52-27.25-.09-32.81-1.85-2.6-.83-9.67-3.18-11.91-4.66a66.45,66.45,0,0,1-5.86-4.32c-1.87-1.54-10.41-8.61-12-10.45s-9.71-13.89-12.75-18.1c-1.39-1.93-2.75-3.9-4.2-5.8.3,2.2.43,4.44.57,6.58.38,5.93.14,11.86.23,17.79,0,2.63,0,5,.21,7.58a40.17,40.17,0,0,1-.62,10.33h0a8.5,8.5,0,0,1-.63,1.59c-1.14,2,1.46,4.53-7.07,8.79-1.31.66,7.23,1.64,3.48,3.12-6.38,2.52-13.14,6.7-14.14,8.61,0,0,7.83.74,6.11,1.25-2,.59-12.15,3.07-16.77,9.41-.16.22,4-3,6.4,0,1.35,1.65-13,7.45-13.86,12.79,0,.2,11.17-2.53,8.14-.87-4.5,2.45-11.35,4.17-18.24,11.46,0,0,12-2.7,8.14,1.39-5.06,5.28-14.29,5.74-17.9,11.53,0,.06,3.91.23,4.95,2.44-1.78,3.72-2.71,7.7-12.42,7.1,0,0,7.08,4.72,7.5,5.54,2.89,5.6-4.91,3.88-4.91,3.88-1.25,8,6.45,4.28,7,5.71.77,1.89-19.68,7.38-24.8,7.8-3.09.25-6.81,1.32-8.92,3.38a249.46,249.46,0,0,0-20.17,21.73c-7.05,8.73-14.33,20.26-21,29.32a21.08,21.08,0,0,1-4.18,4.59c-8.36,6.2-10.72,18-10,27.77.3,4.07,4.48,3.12,10.85,2.62,5.3-.43,4.12-7.6,3.75-8.89-.54-1.91.49-2.22,1.44.28,1,2.77,1.15,8.29,3.73,8.62,4.91.63,5.93.67,10.05.08s4.89-1.52,2-9.56c-.16-.45-.2-1.26.58-.28,2.3,2.87,2.87,10,4.59,10,0,0,6.86.34,7.61-1.95,2.12-6.5,1.61-15.35-.76-21.92a6.56,6.56,0,0,1,.62-5.09c4.06-6.06,9.17-14.33,13.9-19.86A200.89,200.89,0,0,1,451.7-678c1.05-1,3-1.09,4.63-1.34,8.86-1.37,17.77-2.43,26.57-4.06,5.11-.94,11.73-1.32,15.77-4,1.72-1.15-.48,3.12-.48,3.12,3.23.5,6.05-.93,7.09-2.69,3.35,1.48.72,4.76.72,4.76,4.38-.43,12.22-10.75,15.76-11.81a8.89,8.89,0,0,0-2.88,7.4s14.06-12.08,16-17.3c.6-1.59-3.27,10-3.27,10,7.14-3,17.31-17.08,18.15-18.71,5.46-10.63,8.23-9.23,13.21-17,1-2.7,8.47-16.47,10.06-20.1.69-1.59-.22,8.63-7.69,20.4,1.07,4.27,2.13,11.73,2.13,11.73,1.07-2.13,4-6.64,4.27-6.4,2.13,2.13,0,8.53,0,8.53,2.13-1.07,5.33-4.8,5.33-4.26,0,3.19,2.13,8.52,2.13,8.52,0-5.33,1.36-4.44,1.59-3.76.54,1.63,4.8,7,4.8,7,0-3.2.35-4.12.62-3.54a9.21,9.21,0,0,0,7.91,5.67c-2.13-3.19,1-1.82,2.13-2.13,0,0,2.14-.94,2.46-1.17,3.32-2.35,10.72-6.29,9.35-5.23-2.58,2-6,5-9.76,7.47-4.33,3.6-14.59,12.65-17.33,15.38-3.38,3.36-4.06,7.36-1.77,11.69,2.69,5.12,5.42,10.22,8.07,15.36,5.22,10.13,13,23.29,17.6,33.69s9.68,16.72,21.17,16.64c4.5,0,9.25-2.55,13.46-1,6.55,2.38,15.92,1.76,17.1-.42,6-11.2-6.57-14.94-6-14.93,9.77.29,9.38,12.61,10.06,11.49C662.36-621.92,663.79-631.69,653.18-640.14Z" transform="translate(2207.44 1169.67)"/><path d="M679.51-884.17c3.55-4.15-.33-5.27-2.44-3.19-1.34,1.38-3,2.26-5.08,5.53-1.27,2-5.1,11.88-5.71,12.14-1.83.78-1.36-2.36-1.36-2.36.47-1.49,3.57-7-.34-6.47-4.47,3.86-4.41,9-3.29,15.1.89,4.85,1.74,7.89,2.7,8.47a6.38,6.38,0,0,0,5.3.59c4.09-1.1,6.94.36,9.45-2.78,2.88-3.6,1.75-7.9,2.57-10.44.59-1.86.61-3.35,2.38-6.48,1.06-1.88,2.24-4.26,4.48-6a1.24,1.24,0,0,0-.61-2.31c-1.59.46-5,3.81-6.28,6.09-1.83,3.33-3.38,6.07-3.38,6.07,1.4-4.08,1.58-5.45,3.28-8.37,1-1.71,3.28-2.9,5.8-6.48,1.92-2.74-.9-3.23-2.52-2.06a43,43,0,0,0-6.72,6.66c-1.65,2.11-3.5,7.36-4.3,9.14a.37.37,0,0,1-.62.13C675.12-877.46,674.6-878.43,679.51-884.17Z" transform="translate(2207.44 1169.67)"/><path class="cls-2" d="M610.81-825.94c0,.37-.07.58-.07.56C610.77-825.57,610.79-825.76,610.81-825.94Z" transform="translate(2207.44 1169.67)"/><path d="M638.25-830.22c-4,.21-2.87,9.89-6.94,9.66h0a2.78,2.78,0,0,1-.4-.59v0c-4.21-9.35,7.87-27.65,1.74-24.33-3,2.3-5.89,10.07-7.12,14.71-.18.68-.12.47,0-.23.61-4.15,1.52-11.87,2.53-14.27.9-3.21-1.46-4.62-3.13-1.87-2.85,4.68-3.46,9.08-4.5,11.43-1.21,4.5-2.1,9.52-2.26,9,.22-3.17-1.11-3.63.91-9.65,2.09-6.2-1.78-6.66-3.59-2.6-3.3,4.85-3.21,19.76-3.34,19.83s-25.18-5.18-31.43-6.49h0c-1.62-.31-3-.62-3.61-.76a.48.48,0,0,1-.33-.24c-3.67-6.71-14.87-22.88-25.48-31.35a.53.53,0,0,1,.57-.88c12.73,6.59,19.45,16.48,26,27.21a.56.56,0,0,0,.31.23c6,1.57,20.79,4.11,26.6,5.86a.52.52,0,0,0,.65-.34c1.75-5.81,3.56-16.48,4.71-25.53.11-.82,0,1,2,1a34.3,34.3,0,0,1-1-6c0-.67,1,1,3,0,0,0-3-4.05-3-5.05,0-.51,3,0,4-1,0,0-4-4-4-6.52,0-.38.6-1,.65-.59.3,2.06,5.35,3.07,5.35,3.07-1-1-.94-2.54-.63-2.27a6.19,6.19,0,0,0,5.67,1.26c-2-1-1.67-2-1-2,3.72-.1,7.71.26,14.34-.32,1.6-.14,2,.53,2.78,1.17,6,6,12.91,5.82,21.94,10.48-.19-.62-.36-1.25-.51-1.86-1.14-4.66-2.23-9.66-.58-14.32a.55.55,0,0,0-.08-.51c-13.46-17.08-14.55-10.89-32.33-17.06a.46.46,0,0,0-.2,0h-.14a18,18,0,0,1-4.26,3.89,28.11,28.11,0,0,1-5.86,3.41,22,22,0,0,1-2.32.81,17.65,17.65,0,0,1-2.32.65c-.46.1-.9.28-1.35.42a1.63,1.63,0,0,1-.23.6l-.05.05v0a2,2,0,0,1-.81,2.53c-3.88,1.77-8.42,1.5-12.4.16-.64-.21-1.29-.39-1.93-.61-.9-.25-1.78-.53-2.64-.82a.54.54,0,0,0-.46.08,8,8,0,0,1-3.51,1.17,17.88,17.88,0,0,1-1.86.66,25.12,25.12,0,0,1-5.24.84c-1.59.09-3.17-.08-4.76-.13a2.12,2.12,0,0,1-.39.33,2,2,0,0,1-2.75-.73,40.24,40.24,0,0,0-2.48-4.2l-.64-.2a19.74,19.74,0,0,1-2.6.85,9.26,9.26,0,0,1-2.56.27h-.08a15.38,15.38,0,0,1-3.77.2l-.11.05a2,2,0,0,1-2.48-1.41c-.26-1.3-.7-2.55-1-3.83a.52.52,0,0,0-.93-.18,9.44,9.44,0,0,1-2.29,2.3c-.92.91-1.62,1-2.15.61-.14,0-.29.07-.44.09a2,2,0,0,1-2-2v-.19a1,1,0,0,0,0-.19,5.11,5.11,0,0,0-.18-.64c-.14-.43-.31-.85-.41-1.29a19,19,0,0,1-.25-3.21l0-.39s0,0,0-.07c0-.2-.07-.41-.11-.61s-.08-.27-.12-.41c-2.49,1.52-5.31,2.34-7.94,3.55a1.22,1.22,0,0,1-.19.12c-.36.18-.72.36-1.07.55a5,5,0,0,1-3.17,1.21,3.43,3.43,0,0,1-.56.06,2,2,0,0,1-2-2,10.58,10.58,0,0,1,.87-3.82c.31-.86.59-1.75.85-2.63-2.39,3-5.79,6.54-8.07,4.26a3.22,3.22,0,0,1-1.38-2.06,34.07,34.07,0,0,1-.37-4.41c-.09-1.1-.18-2.06-.33-3a.53.53,0,0,0-.8-.37c-4,2.72-7.77,8.64-8.89,11a.53.53,0,0,0,.61.73c5.76-1.47,1.86,1.62.09,2.68-4.31,2.58-5.56,5.88-5.91,7.57a.52.52,0,0,0,.78.54c3.83-2.27,1.88-.87,1.61.13-.45,1.68-3.7,5.49-3,10.57a.53.53,0,0,0,1,.08c1.58-4.89.46,4.93,3.48,7.95,1,1,0-4,2-2,.23.23,2.69,8.84,3,10a.54.54,0,0,0,.13.22c15.45,16.64,26.74,44.14,54.31,46.43h.07c4.07,1.91,54.54,3.93,58.24-2.68l.08-.1C635.74-813.77,642.58-830.5,638.25-830.22Z" transform="translate(2207.44 1169.67)"/><path d="M633-1041l-.29-.2a19.42,19.42,0,0,0,1.79-3,.51.51,0,0,0-.1-.56c-1.85-2-4.25-8-5.89-11.06a.5.5,0,0,1,.06-.56,48.8,48.8,0,0,1,5.49-5.48l.1-.1c17.69-25.39,65.54-22.79,44.24-67.3a.4.4,0,0,0-.1-.15c-7.21-7.23,6.1,27.28-14.52,35.15-6.17,2.78-31.71,17.13-31.57,13.78.35-8.91-5.24-29.21,3.2-36.14l.12-.07c3.73-1.61,1.6-5.09-1.86-3.64l-.11.06c-19.31,12.83-4.15,45.6-19,58.62a.48.48,0,0,1-.43.1c-7.13-1.54-13.76,9.26-15.27,13,11.36,2.59,22.72,5.52,34.08,7.54Z" transform="translate(2207.44 1169.67)"/><path d="M705.66-1007.46c-1.23-3.56-5.57-8.26-11.19-12.18a.57.57,0,0,1,.44-1c7.8,1.83-8.34-7.62-19.52-9.36a19.74,19.74,0,0,1,5.86.6.57.57,0,0,0,.4-1c-5.35-3.23-26.62-5.21-17.64-6.17a.57.57,0,0,0,.19-1.09c-4.55-2.12-13.66-2.44-18-2.8a18.8,18.8,0,0,0,1.25-1.45l.55-.1c-13.23-2.36-26.45-5.77-39.67-8.78-.09.24-.18.45-.24.64a.54.54,0,0,1-.46.38c-1.44.17-6.39.3-8.13.52a.56.56,0,0,1-.63-.52,31.4,31.4,0,0,0-.64-4,.58.58,0,0,0-.88-.36c-3.21,2.13-6.07,4-4.33-1.52a.58.58,0,0,0-.79-.7c-3,1.6-2.09,8.25-6.47,7.8-2.4-.25-8.57-2.9-7-9.34.65-2.65-7.35,11.37-9.86,11s-4.62-10.94-5.12-13.52c-1.08-5.65-2,11-2.54,10.17-1.66,4.51-7.71-11-9.32-1.06a.58.58,0,0,1-1.07.19,22.53,22.53,0,0,0-6-6.12.57.57,0,0,0-.78.8c1.91,2.9,2,3.79,1.47,5.62a.58.58,0,0,1-.7.41,14.42,14.42,0,0,1-1.75-.6,3.49,3.49,0,0,1,.44,1.83c-2.34-1.32-6.18-.8-8.17-2.09a.44.44,0,0,1-.11-.09,39.4,39.4,0,0,1-5.87-7.6c-14.44,2.91-28.89,4.8-43.33,7.31-.55.85-1,1.55-1.33,2a.56.56,0,0,1-.84.09c-.62-.55-1.23-1.12-1.85-1.68a.57.57,0,0,0-.93.24c-.45,1.33-.86,2.65-1.16,3.94a.57.57,0,0,1-.55.44c-7.11,0-12,.37-16,1.91a.58.58,0,0,0,0,1.07c6.75,2.6-26.93,2.52-31.75,6.42a.58.58,0,0,0,.2,1c10.61,3-42.35,6.58-25.94,10.18a.57.57,0,0,1,.08,1.1c-16,5.7-24.86,12.41-26.25,17.91a.58.58,0,0,0,.87.64c24.31-16.4-6,9,.54,17.63a.56.56,0,0,0,1-.1,29.17,29.17,0,0,1,10.56-11.85.58.58,0,0,1,.85.71c-3.67,8.4-9.09,29.57,4.68,14.13a.58.58,0,0,1,.91,0c4.73,7,1.59,33.76,10.79,15a.57.57,0,0,1,.79-.27c9,5.07,2.31,21.1,6.42,15.87a.57.57,0,0,1,.16-.15c11-6.78,12.35,7.93,11.19,14.62a.56.56,0,0,0,.58.66c4.33-.18,6.19-2.07,6.34-6.43a.58.58,0,0,1,.63-.56c8.81,1.12,4.43,10.81,2.67,14.1a.57.57,0,0,0,.64.82c11-2.57,10.26-11.52,11.84-11,9,2.8,3.14,9.18.9,11.25a.58.58,0,0,0,.27,1c9.76,2.5,18.06-7.79,19.63-5.61,2,2.75-4.2,7.14-6.91,8.88a.57.57,0,0,0,.22,1c6.59.91,13.88-4.57,17.77-8a.55.55,0,0,1,.55-.11,8.84,8.84,0,0,0,3.41.38.58.58,0,0,1,.59.69,24.24,24.24,0,0,1-2,5.52.57.57,0,0,0,.81.74c2.87-1.77,5.89-5,8.55-8.37a.57.57,0,0,1,.94,0c1.26,2.11,2.28,7.87,3.1,8.83l-.19.54a3,3,0,0,0,.79.2c5.19,6.86-.27,9.42-3.21,10.26a.58.58,0,0,0-.06,1.09,20.54,20.54,0,0,0,13.34,1.2.58.58,0,0,1,.69.31c1.55,3.58.53,7.47,0,9a.58.58,0,0,0,.52.75c6.08.47,11.76-2.77,12.36-2.12,3.68,4,5.91,4.56,5.68,9.62a.56.56,0,0,0,1,.43c2.36-2.32,4.46-1.73,5.48-5,2.72,3.88,4,5.05,3.3,7.38a.57.57,0,0,0,.77.71c2.8-1.27,6-1.77,8.29-4,1.7-2.16,5,2.3,5.25,6a.57.57,0,0,0,1,.27c1.14-1.68,2.73-1,3.74-2.38a.57.57,0,0,1,1,.25c.43,2.57,1.43,5.37,1.73,7.29a.58.58,0,0,0,.64.48c2.36-.28,6,0,9.1-1.68a.57.57,0,0,1,.75.17c.92,1.35,3.55,5.51,3.73,5.63.59.4,12.35,1,14.92-3.58a.6.6,0,0,1,.76-.22c8.69,3.78,12,3.29,13.59,2.79,1.26-.41-5-1-2-4,.19-.14,8.68,1,14.72-2.75.24-.16,3.36-2.49,3.24-2.75-.42-.88-4.14-2.81-1.81-3.58,0,0,7.76.69,7.06,0-3-3,3.36-4.83,4-6.06s-.55-3.46-1.35-4.89a.58.58,0,0,1,.61-.84,4.41,4.41,0,0,0,2.31-.1.58.58,0,0,0,.37-.65c-1.39-7.43-5.27-2.77,1.12-6.33a.57.57,0,0,0,.19-.82c-1.21-1.72-4.76-7.44-1.23-10.59.8-.72-.24,5.7,8.38,1.37a.57.57,0,0,0,.14-.91c-1.34-1.34-4.5-4.78-3.47-6.52.61-1,4.76,4.31,6.91.31a.59.59,0,0,0,0-.59c-.92-1.39-1.88-2.75-2.67-3.91a.57.57,0,0,1,.72-.84,2.14,2.14,0,0,0,1.6.19.59.59,0,0,0,.42-.69c-.42-1.75-1.82-7.84-1.79-10.87a.57.57,0,0,1,.91-.45c2.77,2.07,7.84,5.44,13,6.64a.57.57,0,0,0,.66-.78c-5.72-13.41,6.42-1.37,12-4.31a.57.57,0,0,0,.18-.87c-1-1.22-3.31-4.57-2.44-7.93S673.3-953.45,677-953a.57.57,0,0,0,.59-.81c-.95-2.09-3-7.76,2-10.17a.58.58,0,0,1,.84.41,16.7,16.7,0,0,0,2.16,6.63.58.58,0,0,0,1.06-.36c-.41-5.17-.48-15.16,3.89-11.77,4.79,11.58-.72-4.84,3-11.57a.58.58,0,0,1,1,0,10.32,10.32,0,0,0,3.79,4.06.58.58,0,0,0,.84-.66c-.85-2.89-2.71-10.49,0-13.75a.58.58,0,0,1,1,.22c.62,2.1,2.11,7.07,2,6.45-.71-6.3.66-12.55.5-16.36a.57.57,0,0,1,1-.42,16.79,16.79,0,0,1,3.15,6.16.57.57,0,0,0,1.1,0c1.35-6.66-8.21-21.26-.16-12A.57.57,0,0,0,705.66-1007.46Zm-217.43-2.64a26.63,26.63,0,0,0-5.16,7.87c-.37.86-1.15,1.48-5.19-.54-.53-.27,0,5,3.71,6.88,1.22.6-5.91,3-6.66,6.47a.58.58,0,0,0,.64.68c2.19-.27,8.59-.84,7.36,2.12-.91,2.19-3,7.07-7.07,5-1.25-.68-1,2.62,4.1,7.31,3.44,3.16,4,8,4,11.17a.57.57,0,0,1-1,.34,37.37,37.37,0,0,0-5-6.06c-2.2-1.93-4.93.19-6.26,1.51a.58.58,0,0,1-1-.43c.13-2.8,2.92-5.91,2.18-5.77-3.1.62-6.57-.28-8.8-1.07a.57.57,0,0,1,.14-1.1c3.42-.46,5.1-1.76,4.62-1.86-6.6-1.47-16.42-6.15-21.28-8.58a.58.58,0,0,1,.33-1.08c4.28.43,7,.09,5.81-.44-7.7-3.5-10.25-6-12.7-7.55a.57.57,0,0,1,.32-1.05,52.19,52.19,0,0,0,6.65-.23c2-.18-1.23-1.83-3.12-2.72a.57.57,0,0,1,.2-1.09c3.49-.3,11,2.64,13.51,2.12,1.39-.3-4.89-6.46-3.85-5.63,5,4,14.76,2.88,17,2.19,1.84-.57-5-3.09-4.85-3.2,3-2,10.33,1,11.39.51,1.38-.71,2.66-1.41,3.81-2.08.76-.43,0-1.37-.53-2a.57.57,0,0,1,.13-.89,12.83,12.83,0,0,1,6.27-1.86A.57.57,0,0,1,488.23-1010.1Zm66.18,56.82c8.94-1.37,18.28-6.05,14.88-17-1.7-12.91-14.86-25.11-28.73-20.14a.56.56,0,0,0-.32.82c3.25,4-5.83,10-8.86,4-.17-.34-1,.54-1.27.77-11.46,8.76-6.7,23.67,5.48,28.8-29-11.3-13.35-42.7,13.86-41.44,13.25.79,21.35,13.36,23.42,24.43C577-959.92,565-954.5,554.41-953.28ZM575-1021c-2.33-1.47-2.8-2.61-5.22-4-2.07-1.18-5.55-3.38-8.08-4-5.07-1.31,5.17-.54,8.08,1a31.56,31.56,0,0,1,4,2c.5.32,1.23-9.89.28-13.94,2.74,2.05,3.47,13.28,3.76,12.93,4.46-5.56,8.15-5,11.1-5,1.12,0-6.76,3-10,10.21C578.3-1020.61,576.27-1020.15,575-1021Zm37,94.89c-.27,3.07-4.33,8.16-6.41,5L606-922c1,0,2-1.21,2.15-2.42.43-3.5-3.52-2.6-3.64.28,0,.86-.5,4,1.45,4.89a.57.57,0,0,1,.24.82c-1,1.6-3.25,2.7-5,3.33a.57.57,0,0,0-.38.59c.21,2.12,1,11.24-.79,13.57-.56.73,7.06,2,11-1.33.09-.07.13.19.13.32,0,1.66-5.93,6-12.85,3.14a.54.54,0,0,0-.51,0c-6.06,3.82-14.42,3.74-17.93-2.17-.41-1.9,9.09,6,18.17-1,2.77-2.16.77-9.62.79-11.24v-.23c0-.21,0-.78,0-1a5.74,5.74,0,0,1-5-2.15.59.59,0,0,1,.16-.83c2.83-1.65,2.44-5,2.44-6.08a2.45,2.45,0,1,0-4.85.39,2.59,2.59,0,0,0,2.86,2.34l.56.91c-2.83,4.23-9.1,0-9.63-4.67C581.67-938.45,614.33-941.49,612-926.09Zm23.41-40a31.55,31.55,0,0,1-12.06,8.19c25.91-10.79,9.47-40.73-14-32.9-.31.1-.58.52-.36.76,3.18,3.47-3.89,10.54-7.55,6.28a.57.57,0,0,0-.88.06c-7.84,11-10.28,25.39,4.23,28.07-9-1.47-16.83-6.47-13.19-17.8,0,0,0,0,0,0,2.24-11,10.27-23.51,22.67-24.49C630.78-999.93,649-981.45,635.39-966.14Zm34.66-38.58a59.26,59.26,0,0,0-14.52,10c-.42.4,3.14.15,5.05.57a.57.57,0,0,1,.2,1c-2.56,1.86-10.42,7.7-12.31,10.52,0-1.08,1.1-.95,1-2,.06-2.29,4.17-8.74,3.42-12.18a.58.58,0,0,0-1-.25c-1.16,1.27-3.66,3.65-4.35,1.42a17,17,0,0,1,3.94-7.16c.29-.29-6,.37-6.06,0A12.19,12.19,0,0,1,645-1005a.57.57,0,0,1,.6-.64c2.59.18,8.36-2.53,12.13-.67a.57.57,0,0,1,0,1c-1.17.78-3.23,2.22-2.54,2.3a33.13,33.13,0,0,0,14.83-1.72Z" transform="translate(2207.44 1169.67)"/><path d="M516.39-1067.64a.5.5,0,0,1-.5-.17c-4.14-5.29-8.83-12.67-9.28-17.49s2.37-43.7-13.19-50.58c-4.31-2.39-7.06,1.14-2.43,3.65l.1.07c10.18,9.18,2.88,30.69,3.11,40.6.09,3.73-32.25-16-40.51-20.22-16.34-8.37-18.45-24.17-16-39.67.17-1.15.52-2.31.62-3.52a2.24,2.24,0,0,0-4-1.28c-32,49.28,35.84,54.67,57.13,85a.36.36,0,0,0,.1.11,69,69,0,0,1,9.16,9.63.48.48,0,0,1,0,.59c-1.33,1.72-4.78,7.32-6.81,10.49,12.41-2.16,24.83-3.79,37.24-6.29C527-1063,523.93-1069.49,516.39-1067.64Z" transform="translate(2207.44 1169.67)"/><path d="M842.91-774.23c17.78-3.19,38.43-2.3,62.28,5a163.79,163.79,0,0,1-52.37-30.31c15.09-9.11,34.13-15.63,58.22-17.67a163.77,163.77,0,0,1-60.39-8.8c10.31-14.73,25.5-28.62,47.41-40.26,0,0-28.55,15-64.7,15.92,4.19-18.08,13.4-37.31,29.95-57.14-3.57,4.29-22,25.26-50.27,37.83-2.55-17.48-1.32-37.66,5.64-60.86-1.58,5.3-10.14,31.42-30.82,54-8.62-15-14.83-33.72-17.06-57.14.57,7.4,1.67,34-9,61.55-14-10.41-27.15-25.27-38.51-46.1a149.58,149.58,0,0,1,15.54,53.41c-15.78-4.89-32.55-13.9-50-28.62a169.82,169.82,0,0,1,35.51,50.68c-17.19,2.32-37.24.88-60.58-6.26A169.92,169.92,0,0,1,715-817.67c-15,8.29-33.84,14.22-57.7,16.24a169.92,169.92,0,0,1,61.13,10.78c-10.53,13.89-25.8,27.13-47.48,38.64a169.88,169.88,0,0,1,61.65-14.15c-4.27,17-13.1,34.95-28.44,53.13a158.48,158.48,0,0,1,50.16-34.19c2.4,16.89,1.17,36.17-5.53,58.08a158.39,158.39,0,0,1,31.38-49.81c8,14.5,13.66,32.34,15.52,54.31a158.4,158.4,0,0,1,11.19-59.44c13.67,10.26,26.45,24.79,37.23,45.06a158.26,158.26,0,0,1-12.85-53.34c15.49,4.68,31.7,13.23,48.22,27.18A163.67,163.67,0,0,1,842.91-774.23Zm-20,35.63c-9-16.93-20.16-27.65-31.93-34.19-21,16.54-29.4,40.54-29.4,40.54,6-19.51,5.21-35.79.82-49.22-27.27-2.62-50.91,8.77-50.91,8.77,18.67-9.92,30-21.82,36.42-34-17.34-20.12-41-28.4-41-28.4,19.51,6,35.46,5.77,48.43,2.09,1.59-22.48-7.61-41.81-10.13-46.62,9.48,17.39,20.95,28.32,32.89,34.91,19.65-15.56,27.26-38.73,28.48-42.8-6.18,20.59-5.37,37.49-.78,51.23,27.86,2.7,51.85-9.89,51.85-9.89-19,10.09-30.13,22.8-36.33,35.92,17.59,19.24,40.92,26.52,40.92,26.52-18.78-5.75-34.49-5.32-47.48-1.47C812.69-759.94,822.93-738.6,822.93-738.6Z" transform="translate(2207.44 1169.67)"/><path d="M823.75-828.23s-40,20.6-60.75-19.17c0,0,21.25,37.51-18.32,58.1,0,0,40.18-18.94,59.86,18.88C804.54-770.42,786.51-808.85,823.75-828.23Z" transform="translate(2207.44 1169.67)"/></g></svg>