<svg xmlns="http://www.w3.org/2000/svg" viewBox="0 0 1002 2136"><defs><style>.cls-1{fill:none;stroke:#000;stroke-miterlimit:10;stroke-width:2px;}.cls-2{fill-rule:evenodd;}</style></defs><g id="base"><rect class="cls-1" x="1" y="1" width="1000" height="1000"/></g><g id="xylum"><path class="cls-2" d="M577.41,385c5.3,8.51,10.84,16.49,15.05,25.72,7.87,17.29,17.38,33.26,22.82,51.6,2.39,8.05,4.46,16.24,6.26,24.51a110.63,110.63,0,0,1,2.56-19.45c.69-3.15,1.43-6.28,2.17-9.42,10.89-25.71,31.46-54.32,70.21-75.21,89.36-48.18,120.63,11.88,201.24-80.6,32.74-37.55,30.9-76.34,14.89-110.78l.48-3.38.08-.06,2.64-9.44-9-2.39a3.12,3.12,0,0,0-.74-1.13l1.91-9.46-10.36-2,1.85-9.17-10.66-2a7.3,7.3,0,0,0,0-.81c0-.1-.05-.17-.06-.26l.24-.19,2.07-9.58-10.58-2.14a2.66,2.66,0,0,0-1-.45l1-8.92-8.33-.8.17-9.13L862,120a2.33,2.33,0,0,0-.11-.28l.36-.5-.54-9.79-10.25.7.09-.11-.54-9.79-10,.69a2.32,2.32,0,0,0-1-1.48l-.39-9.53-9.85.54-3-8.5-10.26,3.77c0,.3,0,.61,0,.91-5.92-4.19-9.52-6.47-9.52-6.47s3,3.9,7.63,10.45l-.75.53-2.6,9.45,7.06,1.84a3,3,0,0,0,.12.56,4.37,4.37,0,0,0,.57,1.19l-1.83,9.33,10.41,1.91c.19.25.38.51.59.77s.34.38.51.57l-1.63,8.31,9.34,1.71.59.49a2.06,2.06,0,0,0,.12.62,3.66,3.66,0,0,0,.37.74l-2,9.25L846.27,140a.86.86,0,0,1,.07-.1l.43.76c-.33.28-.66.55-1,.81l-2,9.59,9.75,1.92.47.9-.15.07-4,8.93,9.71,4.24a3.92,3.92,0,0,0,.77.63,3.15,3.15,0,0,0,.59.28l.33.73-5.3,7.27,7.65,5.43-5.29,6.11,8.35,7,0,0c.07.16.14.32.23.49a4.19,4.19,0,0,1,.22.59l-6,5.2,7.08,7.94a3.41,3.41,0,0,0,.05.46c0,.21.12.4.17.6L862,214.62l6.62,8.62a2.62,2.62,0,0,0,.68,1.32l.17.17a13.55,13.55,0,0,0,.1,1.42c0,.36.11.71.18,1.06C847.29,314,768.3,288.35,727.58,294.05,681.36,300.53,616.73,324.71,577.41,385Z" transform="translate(0.69 1140.69)"/><path class="cls-2" d="M93.85,302.1c80.62,92.48,111.88,32.42,201.24,80.6,44.27,23.87,64.81,57.8,74.28,86,3.81-13.18,7.48-26.42,12.12-39.32,6.66-18.47,18.62-33.58,29.06-49.77C371,323.26,308.82,300.33,264,294.05c-41.07-5.75-121.08,20.35-142.75-69.17.18-.6.37-1.19.56-1.78l6.52-8.48L120.79,209c0-.14,0-.27,0-.41.4.14.81.27,1.2.44l7.28-8.16-5.81-5.05.15-.14a14.22,14.22,0,0,0,1.36-1.62c.27-.36.53-.74.8-1.12l6.37-5.38-4.62-5.34,8.75-6.2-5.4-7.4.09-.08c.43-.45.87-.92,1.32-1.36l.07.07,10-4.38-4-8.93-.58-.28.3-.57,10.34-2-2-9.59-.08-.06.06-.51a4.75,4.75,0,0,1,.26-1l10-2-1.9-9.07a2.46,2.46,0,0,0,.09-.8l-.09-.7-.14-.32L165,125.06l-1.72-8.74.15,0a.76.76,0,0,0,.16-.06l.08.08,10.17-4-3.1-7.58a6,6,0,0,0,.54-.46l.16-.15,9.9-4.51-4.17-8.86-.26-.13c4.66-6.56,7.63-10.46,7.63-10.46s-2.78,1.76-7.45,5l-.08-.12c0-.54-.11-1.07-.12-1.62l-10.44-3.26-2.72,9.12c-.08.08-.19.13-.26.24a2.06,2.06,0,0,0-.48.9v0l-10.55-.58-.4,9.63a2.58,2.58,0,0,0-.51,1,1.1,1.1,0,0,0,0,.16l-.34.27-10.09-.69-.54,9.76-.14.13-10-.69-.54,9.79.38.51L130,120l-10.21.06.18,9.13-8.34.8,1,9.26-.51.63q-.19-.27-.36-.54L101,141.49l2.06,9.58c.08.05.14.11.22.17-.14.18-.29.36-.42.55a1.85,1.85,0,0,0-.31.67l-10,1.88,1.85,9.17-10.36,2,1.9,9.46c-.55.44-1.1.88-1.6,1.36l-8.11,2.16,2.65,9.44,0,0a.31.31,0,0,1,0,.1c.07.39.15.77.23,1.16s0,1.07,0,1.6C63,225.34,60.93,264.35,93.85,302.1Z" transform="translate(0.69 1140.69)"/><path class="cls-2" d="M322.9,149.33l9.82.22.1-7.78c.54-.55,1.07-1.11,1.6-1.69l8.07-.71-1-7.93,0-.06,10.16-.77-.93-8.4-.26-.23a2.55,2.55,0,0,0,.3-.26l9.75-2.83-2.87-7.5a2.4,2.4,0,0,0,.69-.32l10-3-3.17-8-.08,0,.18-.18c.12.14.24.27.35.41l10.18-2.59-2.74-8.09-.17-.1,10.16-1.74-1.92-8.27-.78-.56.14-.15,9.65-.72-.82-7.45c.51-.41,1-.79,1.53-1.17l7.62,2.29,2.91-8v0c0-.06.06-.11.08-.17a2,2,0,0,0,.15-.41,1.94,1.94,0,0,0,.77.25l9.18,4.22L415.84,60c0-.13-.07-.27-.1-.41q21.7-1.08,44.15,23.54c27.73,30.51,45.79,68.11,52.78,111.2,2.78,17.15,3.57,38.24-2.75,53C499,272.88,507.7,289.05,521,306.24c9.61,12.46,19.21,24.92,30.07,39,3.56-4.75,5.37-6.51,6.5-8.75,68-135.14-16.39-280.16-109.27-314.36-24.47-9-47.88-6-67.49,9.63l0-.05H370.17l.11,8.17a2.09,2.09,0,0,0-.29.23l0-.06L359.5,41.57l1.62,8.09-9.24,2.62,3,8,.82.46-9.32,2.94,3,7.13-.19.29-.22-.2-9.77,3.64L342.81,82l-.68,1.25-9,2.9,3.34,7.9h0c-.16.31-.31.62-.46.93l-8.21,2.65,3.24,7.65c-.14.28-.27.56-.41.83l-9.07,2.21,2.64,8.12.56.34-.19.32-9.89,2.62,2.48,7.1c-.29.31-.58.62-.88.91l-7.67-1.5-1.91,8.27,0,.07c-7.89,3.72-17.63,4.08-30.32-.44C292.85,152,308.68,156.91,322.9,149.33Z" transform="translate(0.69 1140.69)"/><path class="cls-2" d="M576.7,58.46l3.8,6.76,9.41-4.32c0-.12,0-.25,0-.37.34.12.68.23,1,.36-.07.15-.13.31-.2.47l2.91,8L602,66.86l.79.59-.91,8.27,8.7.65a3.22,3.22,0,0,0,.35.75l0,0L609,85.42l10.16,1.74-.17.1-2.74,8.09,10.18,2.59.08-.09c0,.12.11.25.18.38l-3,7.48,10,3,.06-.07a2,2,0,0,0,.66.31l-2.9,7.58,10,2.9.09.14-.31.28-.93,8.4,7.74.58.9,1.22a1.07,1.07,0,0,1-.16.14l-1,8.39,8.91.78c.66.7,1.33,1.38,2,2l.11,8.27,10.5-.24c14.87,7.79,31,2.58,42.14-14.37-17.62,6.51-29.42,1.16-38.61-9.79l2.76-7.89-6.82-1.8a3.92,3.92,0,0,0-.71-2.16l2.42-7.43-10.18-2.49.6-.31,3.34-7.9-9.6-3.1.94-.48,3.34-7.9-10-3.2,0,0-.25-.54.41-.19L653,72.22l-9.62-3.58,4.35-6.53-9.18-4.7c-.27.21-.56.4-.85.59l-.35-.65.05,0,3.89-7.7-8.91-3.43,2.52-7.9-10.22-2.46c-.25.33-.53.64-.81,1a3.25,3.25,0,0,0-.23-.29c.23-.2.46-.41.69-.6l1.07-8.39-9.11-.81-1.91-8.25-9,1.76c-32-20.51-74.94-14.34-100.62,17l30.55,39.41C550.45,64.67,564.09,58.63,576.7,58.46Z" transform="translate(0.69 1140.69)"/><path class="cls-2" d="M857.93,500.7a39.74,39.74,0,0,0-2.89-4l-2.49-8.3-7.8,2.45a2.23,2.23,0,0,0-.61-.57h0l-2.38-8.51-9,2.64L831,477.34l-9.18,2.38-2.17-7.57L810.35,475l-2.73-6.39-9,4h0l-.18-.06-3.56-8L787,468.22a2.24,2.24,0,0,0-.94-.29c0-.11,0-.21,0-.32L781.49,460l-8.38,5.21.06.3-.38.08-4.18-7.29-8.27,4.88c0-.34,0-.69,0-1l-5.3-7.08-7.33,5.64-.14,0c0-.17,0-.33,0-.49l-5.3-7.08-7.07,5.44c-9.36-1.32-16.86-1.56-20.47.07-1,.45,6.63,5.7,16.38,11.85l-.12.19,1,8.78,9.34-1.15a2.35,2.35,0,0,0,.5.67l-.14.3,2,8.59,9.56-2.41c0-.15,0-.31,0-.46l.55.32,1.37,8.09,9.69-1.78h0a1.88,1.88,0,0,0,.36.27h0l-.06.19,3.39,8.16,8-3.44,0,.09,2.79,8.38,6.89-2.39a2.51,2.51,0,0,0,.77.85l1.49,8.44,8.8-1.67a13.63,13.63,0,0,0,1.2,1v0l1.92,8.63,9.07-2.15-.05,8.74,9.73-.06.19.26a3,3,0,0,0,.52.54v7.7s9.82.19,9.69.35l0,8.83,9.78-.16a1,1,0,0,0,.3.08,1.44,1.44,0,0,0,.46,0c12.94,16.16,16.73,33-2.9,46-54.09,35.85-91.69,32-190.15,22.86A118.46,118.46,0,0,0,602.71,618c1.14-10.7,43.5-139.73-62.13-268.3-13.05-15.88-32.71-43.87-46.64-67.69-18-30.73-20.64-64.7-9.94-100.1,9.12-30.17-3.79-66.81-28.58-83.82-52.89,68.06-62.37,151.87-25,230.9,13.92,29.45,76,87.34,90.16,136.89,7.42,26,18,95.77,10.26,123.7-5.18,18.66-15.59,31.44-34,32.42-16.12.85-30.26-10.07-35.25-30-3-11.93-5.26-25.72-2.95-37.39,4.49-22.61,11-45.45,19.7-65.95,15.68-37,19.42-39.21,8.6-56.43-14.06-22.39-34.68-43.11-47.78-67.25-7.08,5.31-17.25,19.42-24.78,28.32-19.46,23-39.3,97.65-39,99.22a269.28,269.28,0,0,0-3.85,90.26c2.4,10.85,4.16,21.94,5.62,33a115.83,115.83,0,0,0-36.28-2.63c-98.46,9.16-136.06,13-190.15-22.86-19.61-13-15.85-29.82-2.94-46a2.93,2.93,0,0,0,.83-.08l.13,0,.27-.11,0,.05,9.86.16,0-8.83-.33-.41.15-.11,0,0,9.86.13v-8.24a4,4,0,0,0,.59-.27h0l9.85.07,0-8.59.13-.11,8.94,2.11,1.91-8.63c0-.07-.07-.15-.11-.22a14.58,14.58,0,0,1,1.83-.66L200,512.2l1.54-8.7c-.06-.09-.1-.19-.16-.28l.64-.4,7.14,2.48,2.79-8.38s0-.06,0-.09l8,3.44,3.4-8.16,0-.09.55-.33,9.49,1.74,1.34-7.92a2.62,2.62,0,0,0,.62-.07s0,0,0,0l9.56,2.41,2.05-8.59v0c.19-.16.38-.31.56-.48s.23-.27.35-.41l8.8,1.09,1-8.78-.27-.43c9.57-6,17-11.16,16-11.61-3.55-1.6-10.86-1.4-20-.14l-7-5.37-5.29,7.08v.1a1.87,1.87,0,0,0-.4.2l-7.05-5.42-5.3,7.07a2.33,2.33,0,0,0-1,.33l-.08.06L220,458.34l-3.75,6.54a2.84,2.84,0,0,0-1.36,0L207.08,460l-4.56,7.57c0,.13,0,.27,0,.4l-.73.31-8.14-3.76-3.35,7.52a2.74,2.74,0,0,0-1,.11l-.14.05L181,468.57,178.22,475l-9.32-2.81-2.17,7.57-9.18-2.38-1.73,7.05-9-2.64-2.37,8.5a2.37,2.37,0,0,0-.7.55L136,488.38l-2.53,8.47a1,1,0,0,1,0,.1,5.71,5.71,0,0,0-1.19,2,4.76,4.76,0,0,1-.34.57C86,528.29,41.1,577.09,88.16,619.22,172.44,694.68,248,661,325.88,691.78q4.8,1.89,9.17,3.91l-.74.36a51.72,51.72,0,0,1,5.85,2.09q4.27,2.13,8.12,4.35c17.69,11.82,25,34,24.24,57.58h0s1.38,31-11,60.6-27,31.85-27,31.85,19-20.57,22.78-34.06c3.23-11.58,9.79-48.82,11.6-59.21-22.61-4-48.2,16.06-59.07,47.41-6.64,19.15-6.35,38.38-.52,52.94C287.41,889.06,319,923.78,332,952.05a33.37,33.37,0,0,1,2.5,13.22A56.74,56.74,0,0,0,355,956.49c2.41-1.65,6.4,1.17,5.2,4a7.62,7.62,0,0,0,.49,7.13,6.73,6.73,0,0,0,2.71,2.76,3.31,3.31,0,0,0,.55.22c-1.21-3,2.2-5.67,5.1-4.3,6.7,3.18,14.87,7.19,22.5,5.4,5-1.16,11.13-5.74,10.23-11.57a3.58,3.58,0,0,1,5.92-3.44c3.51,2.81,7.71,6.17,12.52,5.51a44.53,44.53,0,0,0,6.87-2,54.75,54.75,0,0,1,7.27-1.69,60.17,60.17,0,0,1,30.49,2.89c1.68.63,3.15,2.44,2.47,4.36a14.4,14.4,0,0,1-2.48,4.44c4.06.93,9.19-1.37,12.72-2.7,6.25-2.35,13.58-4,19.37.35,1.35,1,2.48,2.31,3.89,3.21a10.65,10.65,0,0,0,4.5,1.45,73.48,73.48,0,0,0,9.73.19c11.72-.13,24.91-1.11,33.77-9.72,2.33-2.27,7.33,0,5.92,3.44-1.6,3.9,4.4,4.12,6.68,3.54,4.73-1.22,9-3.86,14-3.85s8.19,2.86,12,5.53a7.37,7.37,0,0,0,3.91,1.67c.52,0,1.72,0,1.9-.53a3.63,3.63,0,0,1,3.41-2.6h25.22c1.13,0,2.26,0,3.38,0,0-2.44,2.44-4.83,5.22-3.24,3.19,2.08,6.54,4.11,10.29,5a8.6,8.6,0,0,0,5-.17c1.63-.65,2.85-2,4.45-2.75a7.45,7.45,0,0,1,3.48-.69c-.32-5.89.39-11.83,2.42-16.25,13-28.27,44.58-63,22.65-92.46,5.83-14.53,6.14-33.72-.45-52.84-9.38-27.23-29.87-46-49.9-47.87,1.71,9.85,8.39,47.87,11.66,59.58,3.76,13.49,22.78,34.06,22.78,34.06s-14.6-1.77-27-31.41-11.44-61.5-11.44-61.5-.15-1.77-.22-1.77c1.43-25.56,10.82-50.6,26.52-61.07,3.62-1.72,7.44-3.39,11.5-5C740,661,815.59,694.68,899.88,619.22,946.29,577.67,903.27,529.62,857.93,500.7ZM327.18,818.27c-3.22,8.77-12.52,25.58-12.52,25.58s-.6-17.93,2-28.22,16.05-31.52,16.05-31.52S330.39,809.51,327.18,818.27Zm334.47,0c-3.22-8.76-5.51-34.16-5.51-34.16s13.47,21.23,16.05,31.52,2,28.22,2,28.22S664.86,827,661.65,818.27Z" transform="translate(0.69 1140.69)"/><path class="cls-2" d="M735.5,983.32c-6.24,1.73-13.14-1.57-19.6,1-20.92-3.65-5.77-16.36-34.5-5.16-14.67,4.44-24.92-14-36.87-4.18-1.56.61-1.55.53-3.16.17-4.61-.54-12-10.39-13.7-1.68-6.8,1.26-31.38-2.94-33.68,2.55-.18.53-3.15.55-3.67.52-5.85-1.27-9.29-7.41-15.86-7-5.58-.72-21.29,9.52-22.42.31,1.42-3.37-1.8-5.59-4.12-3.37-10.56,9.75-40.56,14.5-51.73,4.77-11-7.8-23.59,4.3-35.54,2.3,12.8-16.59-33.64-12.05-40.94-7.86-4.89,2.74-15.08-13-14.84-3.79.9,5.7-8.76,12-13.74,13.1-6.76,4.51-27.2-12.86-24-1.08-6.41,1.4-10.26-7.42-9.4-12.48,1.2-2.77-.66-3-3.05-1.33-13.22,10.45-30.35,9.16-45.47,9.71-11,6.88-6.79,13.31-25.55,11.4-4.84-2.72-9.64-1.06-14.18,1.5-3.71,2.56-21.59,12.31-15.82,12.32,10.28,0,484.65,1.5,489.86-1.74C747.46,990.9,739.44,981,735.5,983.32Z" transform="translate(0.69 1140.69)"/></g></svg>