<svg id="Layer_1" data-name="Layer 1" xmlns="http://www.w3.org/2000/svg" viewBox="0 0 1569 1569"><line x1="9.5" x2="9.5" y2="1569" style="fill:none;stroke:#fff;stroke-miterlimit:10"/><line x1="59.5" x2="59.5" y2="1569" style="fill:none;stroke:#fff;stroke-miterlimit:10"/><line x1="109.5" x2="109.5" y2="1569" style="fill:none;stroke:#fff;stroke-miterlimit:10"/><line x1="159.5" x2="159.5" y2="1569" style="fill:none;stroke:#fff;stroke-miterlimit:10"/><line x1="209.5" x2="209.5" y2="1569" style="fill:none;stroke:#fff;stroke-miterlimit:10"/><line x1="259.5" x2="259.5" y2="1569" style="fill:none;stroke:#fff;stroke-miterlimit:10"/><line x1="309.5" x2="309.5" y2="1569" style="fill:none;stroke:#fff;stroke-miterlimit:10"/><line x1="359.5" x2="359.5" y2="1569" style="fill:none;stroke:#fff;stroke-miterlimit:10"/><line x1="409.5" x2="409.5" y2="1569" style="fill:none;stroke:#fff;stroke-miterlimit:10"/><line x1="459.5" x2="459.5" y2="1569" style="fill:none;stroke:#fff;stroke-miterlimit:10"/><line x1="509.5" x2="509.5" y2="1569" style="fill:none;stroke:#fff;stroke-miterlimit:10"/><line x1="559.5" x2="559.5" y2="1569" style="fill:none;stroke:#fff;stroke-miterlimit:10"/><line x1="609.5" x2="609.5" y2="1569" style="fill:none;stroke:#fff;stroke-miterlimit:10"/><line x1="659.5" x2="659.5" y2="1569" style="fill:none;stroke:#fff;stroke-miterlimit:10"/><line x1="709.5" x2="709.5" y2="1569" style="fill:none;stroke:#fff;stroke-miterlimit:10"/><line x1="759.5" x2="759.5" y2="1569" style="fill:none;stroke:#fff;stroke-miterlimit:10"/><line x1="809.5" x2="809.5" y2="1569" style="fill:none;stroke:#fff;stroke-miterlimit:10"/><line x1="859.5" x2="859.5" y2="1569" style="fill:none;stroke:#fff;stroke-miterlimit:10"/><line x1="909.5" x2="909.5" y2="1569" style="fill:none;stroke:#fff;stroke-miterlimit:10"/><line x1="959.5" x2="959.5" y2="1569" style="fill:none;stroke:#fff;stroke-miterlimit:10"/><line x1="1009.5" x2="1009.5" y2="1569" style="fill:none;stroke:#fff;stroke-miterlimit:10"/><line x1="1059.5" x2="1059.5" y2="1569" style="fill:none;stroke:#fff;stroke-miterlimit:10"/><line x1="1109.5" x2="1109.5" y2="1569" style="fill:none;stroke:#fff;stroke-miterlimit:10"/><line x1="1159.5" x2="1159.5" y2="1569" style="fill:none;stroke:#fff;stroke-miterlimit:10"/><line x1="1209.5" x2="1209.5" y2="1569" style="fill:none;stroke:#fff;stroke-miterlimit:10"/><line x1="1259.5" x2="1259.5" y2="1569" style="fill:none;stroke:#fff;stroke-miterlimit:10"/><line x1="1309.5" x2="1309.5" y2="1569" style="fill:none;stroke:#fff;stroke-miterlimit:10"/><line x1="1359.5" x2="1359.5" y2="1569" style="fill:none;stroke:#fff;stroke-miterlimit:10"/><line x1="1409.5" x2="1409.5" y2="1569" style="fill:none;stroke:#fff;stroke-miterlimit:10"/><line x1="1459.5" x2="1459.5" y2="1569" style="fill:none;stroke:#fff;stroke-miterlimit:10"/><line x1="1509.5" x2="1509.5" y2="1569" style="fill:none;stroke:#fff;stroke-miterlimit:10"/><line x1="1559.5" x2="1559.5" y2="1569" style="fill:none;stroke:#fff;stroke-miterlimit:10"/><line x1="1569" y1="9.5" y2="9.5" style="fill:none;stroke:#fff;stroke-miterlimit:10"/><line x1="1569" y1="59.5" y2="59.5" style="fill:none;stroke:#fff;stroke-miterlimit:10"/><line x1="1569" y1="109.5" y2="109.5" style="fill:none;stroke:#fff;stroke-miterlimit:10"/><line x1="1569" y1="159.5" y2="159.5" style="fill:none;stroke:#fff;stroke-miterlimit:10"/><line x1="1569" y1="209.5" y2="209.5" style="fill:none;stroke:#fff;stroke-miterlimit:10"/><line x1="1569" y1="259.5" y2="259.5" style="fill:none;stroke:#fff;stroke-miterlimit:10"/><line x1="1569" y1="309.5" y2="309.5" style="fill:none;stroke:#fff;stroke-miterlimit:10"/><line x1="1569" y1="359.5" y2="359.5" style="fill:none;stroke:#fff;stroke-miterlimit:10"/><line x1="1569" y1="409.5" y2="409.5" style="fill:none;stroke:#fff;stroke-miterlimit:10"/><line x1="1569" y1="459.5" y2="459.5" style="fill:none;stroke:#fff;stroke-miterlimit:10"/><line x1="1569" y1="509.5" y2="509.5" style="fill:none;stroke:#fff;stroke-miterlimit:10"/><line x1="1569" y1="559.5" y2="559.5" style="fill:none;stroke:#fff;stroke-miterlimit:10"/><line x1="1569" y1="609.5" y2="609.5" style="fill:none;stroke:#fff;stroke-miterlimit:10"/><line x1="1569" y1="659.5" y2="659.5" style="fill:none;stroke:#fff;stroke-miterlimit:10"/><line x1="1569" y1="709.5" y2="709.5" style="fill:none;stroke:#fff;stroke-miterlimit:10"/><line x1="1569" y1="759.5" y2="759.5" style="fill:none;stroke:#fff;stroke-miterlimit:10"/><line x1="1569" y1="809.5" y2="809.5" style="fill:none;stroke:#fff;stroke-miterlimit:10"/><line x1="1569" y1="859.5" y2="859.5" style="fill:none;stroke:#fff;stroke-miterlimit:10"/><line x1="1569" y1="909.5" y2="909.5" style="fill:none;stroke:#fff;stroke-miterlimit:10"/><line x1="1569" y1="959.5" y2="959.5" style="fill:none;stroke:#fff;stroke-miterlimit:10"/><line x1="1569" y1="1009.5" y2="1009.5" style="fill:none;stroke:#fff;stroke-miterlimit:10"/><line x1="1569" y1="1059.5" y2="1059.5" style="fill:none;stroke:#fff;stroke-miterlimit:10"/><line x1="1569" y1="1109.5" y2="1109.5" style="fill:none;stroke:#fff;stroke-miterlimit:10"/><line x1="1569" y1="1159.5" y2="1159.5" style="fill:none;stroke:#fff;stroke-miterlimit:10"/><line x1="1569" y1="1209.5" y2="1209.5" style="fill:none;stroke:#fff;stroke-miterlimit:10"/><line x1="1569" y1="1259.5" y2="1259.5" style="fill:none;stroke:#fff;stroke-miterlimit:10"/><line x1="1569" y1="1309.5" y2="1309.5" style="fill:none;stroke:#fff;stroke-miterlimit:10"/><line x1="1569" y1="1359.5" y2="1359.5" style="fill:none;stroke:#fff;stroke-miterlimit:10"/><line x1="1569" y1="1409.5" y2="1409.5" style="fill:none;stroke:#fff;stroke-miterlimit:10"/><line x1="1569" y1="1459.5" y2="1459.5" style="fill:none;stroke:#fff;stroke-miterlimit:10"/><line x1="1569" y1="1509.5" y2="1509.5" style="fill:none;stroke:#fff;stroke-miterlimit:10"/><line x1="1569" y1="1559.5" y2="1559.5" style="fill:none;stroke:#fff;stroke-miterlimit:10"/></svg>