<svg id="image_panel" data-name="image panel" xmlns="http://www.w3.org/2000/svg" viewBox="0 0 350.1 264.16">
    <polygon
        points="342.71 11 330.77 15.02 197.46 15.02 188.44 5 1.63 5 1.63 6.89 9.3 15.78 9.3 83.58 0 98.93 0 263.29 26.82 263.29 30.88 255.01 142.1 255.01 145.66 255.29 344.38 255.29 344.38 11 342.71 11"
        style="fill:#82ffd8;opacity:0.35000000000000003" />
    <path
        d="M1667.91,2723.18H1468.35l-3.56-.28H1354.22l-4.06,8.28h-27.64v-165l9.3-15.34v-67.47l-7.67-8.9v-2.58h187.54l9,10h132.9l11.94-4h2.36Zm-198.89-1H1666.9V2478.89h-1l-11.94,4H1520.26l-9-10H1325.16v1.2l7.67,8.89v68.13l-.07.12-9.23,15.23v163.71h26l4.06-8.28h111.87Z"
        transform="translate(-1321.27 -2467.39)" style="fill:#82ffd8" />
    <polygon points="3.38 4.66 17.1 0 71.27 0 82.11 2.61 157.95 2.61 177.25 4.74 3.38 4.66" style="fill:#82ffd8" />
    <polygon
        points="11.05 83.58 11.05 91.42 5.92 101.24 5.92 258.45 25.56 258.45 29.62 250.66 75.33 250.66 80.07 247.27 110.89 247.27 114.95 250.66 130.19 250.66 133.23 255.06 32.64 255.01 28.57 263.29 1.75 263.29 1.75 98.93 11.05 83.58"
        style="fill:#82ffd8" />
    <polygon
        points="291.69 15.41 297.45 20.32 337.06 20.32 341.8 28.44 341.8 53.16 340.11 60.27 340.11 90.74 346.21 97.85 346.13 11 344.46 11 332.53 15.02 291.69 15.41"
        style="fill:#82ffd8" />
    <polygon points="224.31 255.02 228.38 258.06 265.62 258.06 269.01 257.05 306.93 257.05 317.09 255.35 224.31 255.02"
        style="fill:#82ffd8" />
    <g id="screen-squares" >
        <polygon points="228.1 4.74 218.12 4.74 224.69 12.53 234.66 12.53 228.1 4.74"
            style="fill:#82ffd8;opacity:0.6000000000000001" />
        <polygon points="240.73 4.74 230.75 4.74 237.32 12.53 247.3 12.53 240.73 4.74"
            style="fill:#82ffd8;opacity:0.4" />
        <polygon points="275.22 12.53 287.12 12.53 280 4.74 268.66 4.74 275.22 12.53"
            style="fill:#82ffd8;opacity:0.1" />
        <polygon points="212.05 12.53 222.03 12.53 215.46 4.74 205.49 4.74 212.05 12.53"
            style="fill:#82ffd8;opacity:0.8" />
        <polygon points="253.37 4.74 243.39 4.74 249.95 12.53 259.93 12.53 253.37 4.74"
            style="fill:#82ffd8;opacity:0.30000000000000004" />
        <polygon points="202.83 4.74 194.52 4.74 201.46 12.53 209.39 12.53 202.83 4.74" style="fill:#82ffd8" />
        <polygon points="266 4.74 256.02 4.74 262.59 12.53 272.56 12.53 266 4.74" style="fill:#82ffd8;opacity:0.2" />
    </g>
    <g id="screen-squares-2" data-name="screen-squares">
        <polygon points="8.29 42.56 8.29 35.2 2.55 40.05 2.55 47.4 8.29 42.56"
            style="fill:#82ffd8;opacity:0.6000000000000001" />
        <polygon points="8.29 51.88 8.29 44.52 2.55 49.36 2.55 56.72 8.29 51.88" style="fill:#82ffd8;opacity:0.4" />
        <polygon points="2.55 77.31 2.55 86.08 8.29 80.83 8.29 72.47 2.55 77.31" style="fill:#82ffd8;opacity:0.1" />
        <polygon points="2.55 30.73 2.55 38.09 8.29 33.24 8.29 25.89 2.55 30.73" style="fill:#82ffd8;opacity:0.8" />
        <polygon points="8.29 61.19 8.29 53.84 2.55 58.68 2.55 66.03 8.29 61.19"
            style="fill:#82ffd8;opacity:0.30000000000000004" />
        <polygon points="8.29 23.93 8.29 17.81 2.55 22.92 2.55 28.77 8.29 23.93" style="fill:#82ffd8" />
        <polygon points="8.29 70.51 8.29 63.15 2.55 67.99 2.55 75.35 8.29 70.51" style="fill:#82ffd8;opacity:0.2" />
    </g>
    <path
        d="M1345.82,2721.35h-14.56a.26.26,0,0,1-.26-.26V2570a.2.2,0,0,1,0-.13l3.72-6.43a.26.26,0,0,1,.35-.09.25.25,0,0,1,.09.34l-3.69,6.38v150.79h14.15l4-7.49a.26.26,0,0,1,.23-.13h40.63a.25.25,0,0,1,.25.25.26.26,0,0,1-.25.26H1350l-4,7.48A.26.26,0,0,1,1345.82,2721.35Z"
        transform="translate(-1321.27 -2467.39)" style="fill:#82ffd8" />
    <path d="M1392.54,2713.3a1.86,1.86,0,1,1-1.86-1.86A1.87,1.87,0,0,1,1392.54,2713.3Z"
        transform="translate(-1321.27 -2467.39)" style="fill:#82ffd8" />
    <path d="M1630.91,2729.68a1.87,1.87,0,1,1-1.86-1.86A1.86,1.86,0,0,1,1630.91,2729.68Z"
        transform="translate(-1321.27 -2467.39)" style="fill:#82ffd8" />
    <path d="M1593.32,2488.38a1.86,1.86,0,1,1-1.86-1.86A1.86,1.86,0,0,1,1593.32,2488.38Z"
        transform="translate(-1321.27 -2467.39)" style="fill:#82ffd8" />
    <path
        d="M1591,2488.63h-72.12a.31.31,0,0,1-.18-.07l-11.1-11.44h-15.8a.26.26,0,0,1-.26-.25.26.26,0,0,1,.26-.26h15.91a.23.23,0,0,1,.18.08l11.1,11.43h72a.26.26,0,0,1,.26.26A.26.26,0,0,1,1591,2488.63Z"
        transform="translate(-1321.27 -2467.39)" style="fill:#82ffd8" />
    <path
        d="M1629.55,2729.51a.51.51,0,0,1-.48-.34.5.5,0,0,1,.32-.64l6.77-2.37a.47.47,0,0,1,.17,0h34V2568a.51.51,0,0,1,1,0v158.68a.51.51,0,0,1-.51.51h-34.45l-6.69,2.34A.47.47,0,0,1,1629.55,2729.51Z"
        transform="translate(-1321.27 -2467.39)" style="fill:#82ffd8" />
    <path
        d="M1337.35,2534.17a.25.25,0,0,1-.25-.25v-50.07l-2.36-6.39a.24.24,0,0,1,0-.23.26.26,0,0,1,.21-.11h116.48a.25.25,0,0,1,.25.25.26.26,0,0,1-.25.26H1335.34l2.25,6.09a.28.28,0,0,1,0,.09v50.11A.25.25,0,0,1,1337.35,2534.17Z"
        transform="translate(-1321.27 -2467.39)" style="fill:#82ffd8" />
    <polygon points="3.38 4.66 17.1 0 71.27 0 82.11 2.61 157.95 2.61 177.25 4.74 3.38 4.66" style="fill:#82ffd8" />
    <polygon
        points="11.05 83.58 11.05 91.42 5.92 101.24 5.92 258.45 25.56 258.45 29.62 250.66 75.33 250.66 80.07 247.27 110.89 247.27 114.95 250.66 130.19 250.66 133.23 255.06 32.64 255.01 28.57 263.29 1.75 263.29 1.75 98.93 11.05 83.58"
        style="fill:#82ffd8" />
    <polygon
        points="291.69 15.41 297.45 20.32 337.06 20.32 341.8 28.44 341.8 53.16 340.11 60.27 340.11 90.74 346.21 97.85 346.13 11 344.46 11 332.53 15.02 291.69 15.41"
        style="fill:#82ffd8" />
    <polygon points="224.31 255.02 228.38 258.06 265.62 258.06 269.01 257.05 306.93 257.05 317.09 255.35 224.31 255.02"
        style="fill:#82ffd8" />
    <g id="screen-squares-3" data-name="screen-squares">
        <polygon points="61.65 262.05 53.38 262.05 58.07 258.13 66.8 258.13 61.65 262.05"
            style="fill:#82ffd8;opacity:0.6000000000000001" />
        <polygon points="72.11 262.05 63.85 262.05 69.12 258.13 77.84 258.13 72.11 262.05"
            style="fill:#82ffd8;opacity:0.4" />
        <polygon points="102.26 258.13 112.67 258.13 104.62 262.05 95.23 262.05 102.26 258.13"
            style="fill:#82ffd8;opacity:0.1" />
        <polygon points="47.02 258.13 55.75 258.13 51.19 262.05 42.92 262.05 47.02 258.13"
            style="fill:#82ffd8;opacity:0.8" />
        <polygon points="82.57 262.05 74.31 262.05 80.17 258.13 88.89 258.13 82.57 262.05"
            style="fill:#82ffd8;opacity:0.30000000000000004" />
        <polygon points="40.72 262.05 33.85 262.05 37.76 258.13 44.7 258.13 40.72 262.05" style="fill:#82ffd8" />
        <polygon points="93.03 262.05 84.77 262.05 91.22 258.13 99.94 258.13 93.03 262.05"
            style="fill:#82ffd8;opacity:0.2" />
        <polygon points="61.65 262.05 53.38 262.05 58.07 258.13 66.8 258.13 61.65 262.05"
            style="fill:#82ffd8;opacity:0.6000000000000001" />
        <polygon points="72.11 262.05 63.85 262.05 69.12 258.13 77.84 258.13 72.11 262.05"
            style="fill:#82ffd8;opacity:0.4" />
        <polygon points="102.26 258.13 112.67 258.13 104.62 262.05 95.23 262.05 102.26 258.13"
            style="fill:#82ffd8;opacity:0.1" />
        <polygon points="47.02 258.13 55.75 258.13 51.19 262.05 42.92 262.05 47.02 258.13"
            style="fill:#82ffd8;opacity:0.8" />
        <polygon points="82.57 262.05 74.31 262.05 80.17 258.13 88.89 258.13 82.57 262.05"
            style="fill:#82ffd8;opacity:0.30000000000000004" />
        <polygon points="40.72 262.05 33.85 262.05 37.76 258.13 44.7 258.13 40.72 262.05" style="fill:#82ffd8" />
        <polygon points="93.03 262.05 84.77 262.05 91.22 258.13 99.94 258.13 93.03 262.05"
            style="fill:#82ffd8;opacity:0.2" />
    </g>
    <path d="M1392.54,2713.3a1.86,1.86,0,1,1-1.86-1.86A1.87,1.87,0,0,1,1392.54,2713.3Z"
        transform="translate(-1321.27 -2467.39)" style="fill:#82ffd8" />
    <path d="M1630.91,2729.68a1.87,1.87,0,1,1-1.86-1.86A1.86,1.86,0,0,1,1630.91,2729.68Z"
        transform="translate(-1321.27 -2467.39)" style="fill:#82ffd8" />
    <path d="M1593.32,2488.38a1.86,1.86,0,1,1-1.86-1.86A1.86,1.86,0,0,1,1593.32,2488.38Z"
        transform="translate(-1321.27 -2467.39)" style="fill:#82ffd8" />
</svg>