<svg id="x" xmlns="http://www.w3.org/2000/svg" viewBox="0 0 189.31 189.31"><g id="x-ring-outside"><path d="M964.53,2259.23a75.17,75.17,0,1,1,75.17,75.17A75.26,75.26,0,0,1,964.53,2259.23Zm148,0a72.85,72.85,0,1,0-72.85,72.85A72.92,72.92,0,0,0,1112.55,2259.23Z" transform="translate(-945.05 -2164.58)" style="fill:#82ffd8"/></g><g id="x-ring-middle"><path d="M992.52,2259.23a47.19,47.19,0,1,1,47.18,47.19A47.23,47.23,0,0,1,992.52,2259.23Zm92,0a44.87,44.87,0,1,0-44.87,44.87A44.92,44.92,0,0,0,1084.57,2259.23Z" transform="translate(-945.05 -2164.58)" style="fill:#82ffd8"/></g><g id="x-pointers"><polygon points="74.09 0.91 74.92 0.08 94.65 19.82 114.47 0 115.3 0.82 94.65 21.46 74.09 0.91" style="fill:#82ffd8"/><polygon points="0 74.87 0.82 74.05 21.46 94.69 0.91 115.25 0.08 114.43 19.82 94.69 0 74.87" style="fill:#82ffd8"/><polygon points="74.09 188.49 94.74 167.84 115.3 188.4 114.47 189.22 94.74 169.48 74.92 189.31 74.09 188.49" style="fill:#82ffd8"/><polygon points="167.84 94.61 188.4 74.05 189.22 74.87 169.48 94.61 189.31 114.43 188.49 115.25 167.84 94.61" style="fill:#82ffd8"/></g><rect x="48.63" y="94.07" width="92.05" height="1.16" style="fill:#82ffd8"/><rect x="94.07" y="48.63" width="1.16" height="92.05" style="fill:#82ffd8"/><path d="M1023.19,2273.07H988.8a.65.65,0,0,1,0-1.29h34.14l13.44-12.55-13.44-12.54H988.8a.65.65,0,0,1,0-1.29h34.39a.66.66,0,0,1,.44.17l14.13,13.19a.68.68,0,0,1,.21.47.64.64,0,0,1-.21.47l-14.13,13.19A.67.67,0,0,1,1023.19,2273.07Z" transform="translate(-945.05 -2164.58)" style="fill:#82ffd8"/><path d="M1056.38,2273.07h34.39a.65.65,0,0,0,0-1.29h-34.14l-13.44-12.55,13.44-12.54h34.14a.65.65,0,0,0,0-1.29h-34.39a.66.66,0,0,0-.44.17l-14.13,13.19a.68.68,0,0,0-.21.47.64.64,0,0,0,.21.47l14.13,13.19A.67.67,0,0,0,1056.38,2273.07Z" transform="translate(-945.05 -2164.58)" style="fill:#82ffd8"/><path d="M1039.61,2245.11h.35a14.09,14.09,0,0,1,9,3.2l5-4.7a20.89,20.89,0,0,0-14-5.35h-.35a20.89,20.89,0,0,0-14,5.35l5,4.7A14.09,14.09,0,0,1,1039.61,2245.11Z" transform="translate(-945.05 -2164.58)" style="fill:#82ffd8"/><path d="M1040,2273.36h-.35a14,14,0,0,1-9-3.21l-5,4.7a20.9,20.9,0,0,0,14,5.36h.35a20.9,20.9,0,0,0,14-5.36l-5-4.7A14,14,0,0,1,1040,2273.36Z" transform="translate(-945.05 -2164.58)" style="fill:#82ffd8"/><g id="x-ring-inside"><path d="M1078.9,2275.5a42.83,42.83,0,0,1-7.44,11.86l-.19.21c-.31.36-.64.7-1,1l-.38.39c-.27.27-.54.54-.82.8l-.63.6-.45.4-1.15,1-.21.17a42.54,42.54,0,0,1-10.3,6.26l-.43.18c-.42.17-.83.34-1.25.49l-.77.28-.76.27-1.18.37-.44.13c-.5.14-1,.28-1.5.4l-.28.07c-.55.14-1.11.26-1.67.37a42.07,42.07,0,0,1-8.29.82,42.89,42.89,0,0,1-8.31-.82l-.75-.16-.34-.07-.52-.13-.58-.14-.26-.07a42.57,42.57,0,0,1-28.38-24.73h-2.53a44.8,44.8,0,0,0,5.54,10.1l.68-.67a2,2,0,0,0,.34-.49,43.51,43.51,0,0,0,9.9,9.91,1.76,1.76,0,0,0-.49.33l-.67.67a44.49,44.49,0,0,0,19.47,8.09v-1a1.69,1.69,0,0,0-.1-.56,44,44,0,0,0,14,0,1.69,1.69,0,0,0-.1.56v1a44.85,44.85,0,0,0,34.77-27.94Z" transform="translate(-945.05 -2164.58)" style="fill:#82ffd8"/><path d="M1000.67,2243a42.6,42.6,0,0,1,7.43-11.85l.2-.23,1-1,.4-.41.78-.77.67-.63c.14-.13.28-.26.43-.38.38-.35.78-.69,1.17-1l.19-.16a42.16,42.16,0,0,1,10.32-6.26l.39-.17q.64-.27,1.29-.51l.74-.27.8-.28,1.15-.36.46-.14c.49-.14,1-.27,1.48-.39l.3-.08c.55-.13,1.1-.25,1.66-.36a42.47,42.47,0,0,1,16.61,0l.72.15.37.08.49.12.61.15.23.06a42.57,42.57,0,0,1,28.4,24.74h2.53a44.8,44.8,0,0,0-5.54-10.1l-.68.67a1.63,1.63,0,0,0-.33.49,43.55,43.55,0,0,0-9.91-9.91,1.6,1.6,0,0,0,.49-.34l.67-.67a44.6,44.6,0,0,0-19.47-8.08v1a1.74,1.74,0,0,0,.1.56,43.21,43.21,0,0,0-14,0,1.74,1.74,0,0,0,.1-.56v-1A44.85,44.85,0,0,0,998.12,2243Z" transform="translate(-945.05 -2164.58)" style="fill:#82ffd8"/><path d="M1076.07,2275.1a39.6,39.6,0,0,1-72.57,0h-.93a40.46,40.46,0,0,0,74.43,0Z" transform="translate(-945.05 -2164.58)" style="fill:#82ffd8"/><path d="M1003.67,2243a39.6,39.6,0,0,1,72.23,0h.93a40.45,40.45,0,0,0-74.09,0Z" transform="translate(-945.05 -2164.58)" style="fill:#82ffd8"/></g><path d="M1040.43,2259.23a.65.65,0,1,1-.64-.64A.65.65,0,0,1,1040.43,2259.23Z" transform="translate(-945.05 -2164.58)" style="fill:#82ffd8"/><g id="x-ring-line-vertical"><g style="opacity:0.6000000000000001"><path d="M1039.79,2254.52a.42.42,0,0,1-.43-.42v-73.21a.43.43,0,1,1,.85,0v73.21A.42.42,0,0,1,1039.79,2254.52Z" transform="translate(-945.05 -2164.58)" style="fill:#82ffd8"/></g><rect x="93.77" y="21.78" width="1.93" height="5.46" rx="0.32" style="fill:#82ffd8"/><g style="opacity:0.6000000000000001"><path d="M1039.79,2254.52a.42.42,0,0,1-.43-.42v-73.21a.43.43,0,1,1,.85,0v73.21A.42.42,0,0,1,1039.79,2254.52Z" transform="translate(-945.05 -2164.58)" style="fill:#82ffd8"/></g><rect x="93.77" y="21.78" width="1.93" height="5.46" rx="0.32" style="fill:#82ffd8"/><g style="opacity:0.6000000000000001"><path d="M1039.79,2263.94a.43.43,0,0,1,.42.43v73.21a.43.43,0,1,1-.85,0v-73.21A.43.43,0,0,1,1039.79,2263.94Z" transform="translate(-945.05 -2164.58)" style="fill:#82ffd8"/></g><rect x="93.77" y="162.06" width="1.93" height="5.46" rx="0.32" style="fill:#82ffd8"/><g style="opacity:0.6000000000000001"><path d="M1039.79,2263.94a.43.43,0,0,1,.42.43v73.21a.43.43,0,1,1-.85,0v-73.21A.43.43,0,0,1,1039.79,2263.94Z" transform="translate(-945.05 -2164.58)" style="fill:#82ffd8"/></g><rect x="93.77" y="162.06" width="1.93" height="5.46" rx="0.32" style="fill:#82ffd8"/></g><g id="x-ring-line-horizontal"><g style="opacity:0.6000000000000001"><path d="M1044.49,2259.23a.43.43,0,0,1,.43-.42h73.21a.43.43,0,1,1,0,.85h-73.21A.43.43,0,0,1,1044.49,2259.23Z" transform="translate(-945.05 -2164.58)" style="fill:#82ffd8"/></g><rect x="162.15" y="93.69" width="5.46" height="1.93" rx="0.32" style="fill:#82ffd8"/><g style="opacity:0.6000000000000001"><path d="M1044.49,2259.23a.43.43,0,0,1,.43-.42h73.21a.43.43,0,1,1,0,.85h-73.21A.43.43,0,0,1,1044.49,2259.23Z" transform="translate(-945.05 -2164.58)" style="fill:#82ffd8"/></g><rect x="162.15" y="93.69" width="5.46" height="1.93" rx="0.32" style="fill:#82ffd8"/><g style="opacity:0.6000000000000001"><path d="M1035.08,2259.23a.43.43,0,0,1-.43.43H961.44a.43.43,0,1,1,0-.85h73.21A.43.43,0,0,1,1035.08,2259.23Z" transform="translate(-945.05 -2164.58)" style="fill:#82ffd8"/></g><rect x="21.87" y="93.69" width="5.46" height="1.93" rx="0.32" style="fill:#82ffd8"/><g style="opacity:0.6000000000000001"><path d="M1035.08,2259.23a.43.43,0,0,1-.43.43H961.44a.43.43,0,1,1,0-.85h73.21A.43.43,0,0,1,1035.08,2259.23Z" transform="translate(-945.05 -2164.58)" style="fill:#82ffd8"/></g><rect x="21.87" y="93.69" width="5.46" height="1.93" rx="0.32" style="fill:#82ffd8"/></g></svg>