<svg id="info_panel" data-name="info panel" xmlns="http://www.w3.org/2000/svg" viewBox="0 0 353.78 307.26"><polygon points="5.2 123.03 5.2 301.18 75.67 301.18 83.7 297.92 184.7 297.92 197.64 301.18 348.95 301.18 348.95 6.96 210.24 6.96 200.32 9.38 50.09 9.38 43.28 6.96 5.2 6.96 5.2 29.57 10.37 34.9 10.37 120.52 5.2 123.03" style="fill:#82ffd8;opacity:0.35000000000000003"/><path d="M1322.83,2152.4h38.54l6.8,2.42h149.95l9.92-2.42h139.13v294.82H1515.49l-12.94-3.25H1401.74l-8,3.25h-70.88V2268.58l5.17-2.51v-85.3l-5.17-5.33Zm38.22.61h-37.63v22.18l5.17,5.33v85.93l-5.17,2.51v177.66h70.07l8-3.26H1502.7l12.94,3.26h150.95V2153h-138.3l-9.92,2.41H1367.85Z" transform="translate(-1318.22 -2145.74)" style="fill:#82ffd8"/><path d="M1522.15,2451.44H1666a1.19,1.19,0,0,0,1.17-1.21v-3.42H1515.4v.49Z" transform="translate(-1318.22 -2145.74)" style="fill:#82ffd8"/><path d="M1539.42,2145.74H1670a.83.83,0,0,1,.81.85v1H1534.72v-.35Z" transform="translate(-1318.22 -2145.74)" style="fill:#82ffd8"/><path d="M1324,2449.63h48.27l1.89-1.81h18.74l.19,0,.93-.88a1.17,1.17,0,0,0,0-.26h-71.23v1.76A1.19,1.19,0,0,0,1324,2449.63Z" transform="translate(-1318.22 -2145.74)" style="fill:#82ffd8"/><path d="M1339.78,2453h35l1.37-1.36H1394l.68-.66,0-.19h-55.82v1.32A.87.87,0,0,0,1339.78,2453Z" transform="translate(-1318.22 -2145.74)" style="fill:#82ffd8"/><path d="M1527.25,2153.21h140v-1.51a1.18,1.18,0,0,0-1.16-1.2H1532.65Z" transform="translate(-1318.22 -2145.74)" style="fill:#82ffd8"/><polygon points="4.66 29.82 4.98 29.82 4.98 7.17 43.33 7.17 43.33 6.91 40.2 4.91 0 4.91 0 24.73 4.66 29.82" style="fill:#82ffd8"/><path d="M1405.32,2446.14h95.44a.29.29,0,0,1,.16,0l12.92,3.25a.29.29,0,0,1,.09.41.28.28,0,0,1-.4.1l-12.86-3.2h-95.25l-10.7,4.3a.34.34,0,0,1-.19.07h-55.38a.31.31,0,0,1,0-.61h55.27l10.71-4.3A.31.31,0,0,1,1405.32,2446.14Z" transform="translate(-1318.22 -2145.74)" style="fill:#82ffd8"/><path d="M1535,2147h135.58a.3.3,0,0,1,.29.31v299.55a.29.29,0,1,1-.58,0V2147.63H1535a.31.31,0,0,1,0-.61Z" transform="translate(-1318.22 -2145.74)" style="fill:#82ffd8"/><polygon points="41.25 9.5 48.92 12.7 109.89 12.7 109.89 13 48.77 13 41.01 9.67 41.25 9.5" style="fill:#82ffd8"/><polygon points="13.17 79.35 13.47 79.35 13.47 122.31 9.01 125.38 8.85 125.12 13.17 122.15 13.17 79.35" style="fill:#82ffd8"/><ellipse cx="352.32" cy="300.33" rx="1.46" ry="1.51" style="fill:#82ffd8"/><path d="M1322.83,2152.4h38.54l6.8,2.42h149.95l9.92-2.42h139.13v294.82H1515.49l-12.94-3.25H1401.74l-8,3.25h-70.88V2268.58l5.17-2.51v-85.3l-5.17-5.33Zm38.22.61h-37.63v22.18l5.17,5.33v85.93l-5.17,2.51v177.66h70.07l8-3.26H1502.7l12.94,3.26h150.95V2153h-138.3l-9.92,2.41H1367.85Z" transform="translate(-1318.22 -2145.74)" style="fill:#82ffd8"/><path d="M1522.15,2451.44H1666a1.19,1.19,0,0,0,1.17-1.21v-3.42H1515.4v.49Z" transform="translate(-1318.22 -2145.74)" style="fill:#82ffd8"/><path d="M1539.42,2145.74H1670a.83.83,0,0,1,.81.85v1H1534.72v-.35Z" transform="translate(-1318.22 -2145.74)" style="fill:#82ffd8"/><path d="M1324,2449.63h48.27l1.89-1.81h18.74l.19,0,.93-.88a1.17,1.17,0,0,0,0-.26h-71.23v1.76A1.19,1.19,0,0,0,1324,2449.63Z" transform="translate(-1318.22 -2145.74)" style="fill:#82ffd8"/><path d="M1339.78,2453h35l1.37-1.36H1394l.68-.66,0-.19h-55.82v1.32A.87.87,0,0,0,1339.78,2453Z" transform="translate(-1318.22 -2145.74)" style="fill:#82ffd8"/><path d="M1527.25,2153.21h140v-1.51a1.18,1.18,0,0,0-1.16-1.2H1532.65Z" transform="translate(-1318.22 -2145.74)" style="fill:#82ffd8"/><polygon points="4.66 29.82 4.98 29.82 4.98 7.17 43.33 7.17 43.33 6.91 40.2 4.91 0 4.91 0 24.73 4.66 29.82" style="fill:#82ffd8"/><g id="screen-squares"><rect x="4.34" y="80.15" width="2.73" height="7.65" style="fill:#82ffd8;opacity:0.7000000000000001"/><rect x="4.34" y="100.69" width="2.73" height="7.65" style="fill:#82ffd8"/><rect x="4.34" y="90.42" width="2.73" height="7.65" style="fill:#82ffd8;opacity:0.7000000000000001"/><rect x="4.34" y="69.88" width="2.73" height="7.65" style="fill:#82ffd8;opacity:0.4"/><rect x="4.34" y="59.62" width="2.73" height="7.65" style="fill:#82ffd8;opacity:0.4"/><polygon points="7.08 46.73 7.08 37.07 4.34 32.64 4.34 46.73 7.08 46.73" style="fill:#82ffd8;opacity:0.2"/><polygon points="4.34 110.96 4.34 118.83 7.08 117.6 7.08 110.96 4.34 110.96" style="fill:#82ffd8"/><rect x="4.34" y="49.35" width="2.73" height="7.65" style="fill:#82ffd8;opacity:0.2"/><rect x="4.34" y="80.15" width="2.73" height="7.65" style="fill:#82ffd8;opacity:0.7000000000000001"/><rect x="4.34" y="100.69" width="2.73" height="7.65" style="fill:#82ffd8"/><rect x="4.34" y="90.42" width="2.73" height="7.65" style="fill:#82ffd8;opacity:0.7000000000000001"/><rect x="4.34" y="69.88" width="2.73" height="7.65" style="fill:#82ffd8;opacity:0.4"/><rect x="4.34" y="59.62" width="2.73" height="7.65" style="fill:#82ffd8;opacity:0.4"/><polygon points="7.08 46.73 7.08 37.07 4.34 32.64 4.34 46.73 7.08 46.73" style="fill:#82ffd8;opacity:0.2"/><polygon points="4.34 110.96 4.34 118.83 7.08 117.6 7.08 110.96 4.34 110.96" style="fill:#82ffd8"/><rect x="4.34" y="49.35" width="2.73" height="7.65" style="fill:#82ffd8;opacity:0.2"/></g><g id="screen-squares-2" data-name="screen-squares"><rect x="132.21" y="5.21" width="8.49" height="2.03" style="fill:#82ffd8;opacity:0.5"/><rect x="144.5" y="5.21" width="8.49" height="2.03" style="fill:#82ffd8;opacity:0.6000000000000001"/><rect x="119.91" y="5.21" width="8.49" height="2.03" style="fill:#82ffd8;opacity:0.4"/><rect x="156.8" y="5.21" width="8.49" height="2.03" style="fill:#82ffd8;opacity:0.7000000000000001"/><polygon points="193.69 7.24 201.59 7.24 205.71 5.21 193.69 5.21 193.69 7.24" style="fill:#82ffd8"/><rect x="181.39" y="5.21" width="8.49" height="2.03" style="fill:#82ffd8;opacity:0.9"/><rect x="169.1" y="5.21" width="8.49" height="2.03" style="fill:#82ffd8;opacity:0.8"/><rect x="132.21" y="5.21" width="8.49" height="2.03" style="fill:#82ffd8;opacity:0.5"/><rect x="144.5" y="5.21" width="8.49" height="2.03" style="fill:#82ffd8;opacity:0.6000000000000001"/><rect x="119.91" y="5.21" width="8.49" height="2.03" style="fill:#82ffd8;opacity:0.4"/><rect x="156.8" y="5.21" width="8.49" height="2.03" style="fill:#82ffd8;opacity:0.7000000000000001"/><polygon points="193.69 7.24 201.59 7.24 205.71 5.21 193.69 5.21 193.69 7.24" style="fill:#82ffd8"/><rect x="181.39" y="5.21" width="8.49" height="2.03" style="fill:#82ffd8;opacity:0.9"/><rect x="169.1" y="5.21" width="8.49" height="2.03" style="fill:#82ffd8;opacity:0.8"/></g><ellipse cx="352.32" cy="300.33" rx="1.46" ry="1.51" style="fill:#82ffd8"/></svg>