<svg xmlns="http://www.w3.org/2000/svg" xmlns:xlink="http://www.w3.org/1999/xlink" viewBox="0 0 4406.52 1920.39"><defs><radialGradient id="radial-gradient" cx="-2337.04" cy="-709.11" r="591.26" gradientTransform="translate(5532.07 2126.48) scale(2.09 2.09)" gradientUnits="userSpaceOnUse"><stop offset="0" stop-color="#3e4b4b"/><stop offset="1" stop-color="#0c0d11"/></radialGradient><clipPath id="clip-path" transform="translate(5522.82 1111.81)"><path d="M-2867.37,1078.21V-918.06L-868.31-915l-1,1993.2Zm1393-391.67h240l50.81-75.74V546.1l-44-28.17V390.18h-24.7V335.85l68.71-257.79V-409.67l-52-77.47h-427.87L-1699.74-425h-337.2l-36.34-62.15h-427.88l-52,77.47V78.06l68.71,257.79v54.33h-24.71v123.7l-44,32.22v64.7l50.81,75.74h240l2.95-34,19.64-17.9h743l19.35,17.9Z" style="fill:none"/></clipPath><clipPath id="clip-path-2" transform="translate(5522.82 1111.81)"><path d="M-2868.31-914.22V1081.94H-868.37V-914.22ZM-1143.09,64.42l-73.09,274.23V402.3h26.28V532.07l46.81,34.28V630l-52.15,77.74h-252.53l-29.56-55.24h-782l-29.56,55.24h-252.53L-2593.58,630V566.35l46.81-34.28V402.3h26.28V338.65l-73.09-274.23V-451.37l53.38-79.57h452.43l38.66,66.11h361.54l38.66-66.11h452.44l53.38,79.57Z" style="fill:none"/></clipPath></defs><g id="computer-screen-inside"><rect id="computer-screen-background" width="1282.19" height="1283" style="fill:url(#radial-gradient)"/></g><g id="computer-screen-outside"><path id="computer-screen-background-2" data-name="computer-screen-background" d="M-1246.06,94.64l-62.7,235.22v54.61h22.54V495.78l40.16,29.4v54.6l-44.74,66.69h-216.61L-1520,611.22l-12.77-12.14h-670.78l-12.77,12.14-12.59,35.25h-216.61l-44.74-66.69v-54.6l40.16-29.4V384.47h22.54V329.86l-62.7-235.22V-347.79l45.79-68.26h388.09l33.17,56.7h310.11l33.17-56.7h388.08l45.79,68.26Z" transform="translate(5522.82 1111.81)" style="fill:#3a564d"/><g style="opacity:0.1"><line x1="2993.99" y1="591.12" x2="2993.99" y2="1920.09" style="fill:none;stroke:#fff;stroke-miterlimit:10;stroke-width:0.6026141238187864px"/><line x1="3015.43" y1="591.12" x2="3015.43" y2="1920.09" style="fill:none;stroke:#fff;stroke-miterlimit:10;stroke-width:0.6026141238187864px"/><line x1="3036.87" y1="591.12" x2="3036.87" y2="1920.09" style="fill:none;stroke:#fff;stroke-miterlimit:10;stroke-width:0.6026141238187864px"/><line x1="3058.31" y1="591.12" x2="3058.31" y2="1920.09" style="fill:none;stroke:#fff;stroke-miterlimit:10;stroke-width:0.6026141238187864px"/><line x1="3079.75" y1="591.12" x2="3079.75" y2="1920.09" style="fill:none;stroke:#fff;stroke-miterlimit:10;stroke-width:0.6026141238187864px"/><line x1="3101.19" y1="591.12" x2="3101.19" y2="1919.88" style="fill:none;stroke:#fff;stroke-miterlimit:10;stroke-width:0.6026141238187864px"/><line x1="3122.63" y1="591.12" x2="3122.63" y2="1919.88" style="fill:none;stroke:#fff;stroke-miterlimit:10;stroke-width:0.6026141238187864px"/><line x1="3144.07" y1="591.12" x2="3144.07" y2="1919.88" style="fill:none;stroke:#fff;stroke-miterlimit:10;stroke-width:0.6026141238187864px"/><line x1="3165.51" y1="591.12" x2="3165.51" y2="1919.88" style="fill:none;stroke:#fff;stroke-miterlimit:10;stroke-width:0.6026141238187864px"/><line x1="3186.95" y1="591.12" x2="3186.95" y2="1919.88" style="fill:none;stroke:#fff;stroke-miterlimit:10;stroke-width:0.6026141238187864px"/><line x1="3208.39" y1="591.12" x2="3208.39" y2="1919.88" style="fill:none;stroke:#fff;stroke-miterlimit:10;stroke-width:0.6026141238187864px"/><line x1="3229.83" y1="591.12" x2="3229.83" y2="1919.88" style="fill:none;stroke:#fff;stroke-miterlimit:10;stroke-width:0.6026141238187864px"/><line x1="3251.27" y1="591.12" x2="3251.27" y2="1919.88" style="fill:none;stroke:#fff;stroke-miterlimit:10;stroke-width:0.6026141238187864px"/><line x1="3272.71" y1="591.12" x2="3272.71" y2="1919.88" style="fill:none;stroke:#fff;stroke-miterlimit:10;stroke-width:0.6026141238187864px"/><line x1="3294.15" y1="591.12" x2="3294.15" y2="1919.88" style="fill:none;stroke:#fff;stroke-miterlimit:10;stroke-width:0.6026141238187864px"/><line x1="3315.59" y1="591.12" x2="3315.59" y2="1919.88" style="fill:none;stroke:#fff;stroke-miterlimit:10;stroke-width:0.6026141238187864px"/><line x1="3337.03" y1="591.12" x2="3337.03" y2="1919.88" style="fill:none;stroke:#fff;stroke-miterlimit:10;stroke-width:0.6026141238187864px"/><line x1="3358.47" y1="591.12" x2="3358.47" y2="1919.88" style="fill:none;stroke:#fff;stroke-miterlimit:10;stroke-width:0.6026141238187864px"/><line x1="3379.91" y1="591.12" x2="3379.91" y2="1919.88" style="fill:none;stroke:#fff;stroke-miterlimit:10;stroke-width:0.6026141238187864px"/><line x1="3401.35" y1="591.12" x2="3401.35" y2="1919.88" style="fill:none;stroke:#fff;stroke-miterlimit:10;stroke-width:0.6026141238187864px"/><line x1="3422.79" y1="591.12" x2="3422.79" y2="1919.88" style="fill:none;stroke:#fff;stroke-miterlimit:10;stroke-width:0.6026141238187864px"/><line x1="3444.23" y1="591.12" x2="3444.23" y2="1919.88" style="fill:none;stroke:#fff;stroke-miterlimit:10;stroke-width:0.6026141238187864px"/><line x1="3465.67" y1="591.12" x2="3465.67" y2="1919.88" style="fill:none;stroke:#fff;stroke-miterlimit:10;stroke-width:0.6026141238187864px"/><line x1="3487.11" y1="591.12" x2="3487.11" y2="1919.88" style="fill:none;stroke:#fff;stroke-miterlimit:10;stroke-width:0.6026141238187864px"/><line x1="3508.55" y1="591.12" x2="3508.55" y2="1919.88" style="fill:none;stroke:#fff;stroke-miterlimit:10;stroke-width:0.6026141238187864px"/><line x1="3529.99" y1="591.12" x2="3529.99" y2="1919.88" style="fill:none;stroke:#fff;stroke-miterlimit:10;stroke-width:0.6026141238187864px"/><line x1="3551.43" y1="591.12" x2="3551.43" y2="1919.88" style="fill:none;stroke:#fff;stroke-miterlimit:10;stroke-width:0.6026141238187864px"/><line x1="3572.87" y1="591.12" x2="3572.87" y2="1919.88" style="fill:none;stroke:#fff;stroke-miterlimit:10;stroke-width:0.6026141238187864px"/><line x1="3594.31" y1="591.12" x2="3594.31" y2="1919.88" style="fill:none;stroke:#fff;stroke-miterlimit:10;stroke-width:0.6026141238187864px"/><line x1="3615.75" y1="591.12" x2="3615.75" y2="1919.88" style="fill:none;stroke:#fff;stroke-miterlimit:10;stroke-width:0.6026141238187864px"/><line x1="3637.19" y1="591.12" x2="3637.19" y2="1919.88" style="fill:none;stroke:#fff;stroke-miterlimit:10;stroke-width:0.6026141238187864px"/><line x1="3658.63" y1="591.12" x2="3658.63" y2="1919.88" style="fill:none;stroke:#fff;stroke-miterlimit:10;stroke-width:0.6026141238187864px"/><line x1="4302.04" y1="590.82" x2="2994.2" y2="590.82" style="fill:none;stroke:#fff;stroke-miterlimit:10;stroke-width:0.597851230906671px"/><line x1="4302.04" y1="612.26" x2="2994.2" y2="612.26" style="fill:none;stroke:#fff;stroke-miterlimit:10;stroke-width:0.597851230906671px"/><line x1="4302.04" y1="633.7" x2="2994.2" y2="633.7" style="fill:none;stroke:#fff;stroke-miterlimit:10;stroke-width:0.597851230906671px"/><line x1="4302.04" y1="655.14" x2="2994.2" y2="655.14" style="fill:none;stroke:#fff;stroke-miterlimit:10;stroke-width:0.597851230906671px"/><line x1="4302.04" y1="676.58" x2="2994.2" y2="676.58" style="fill:none;stroke:#fff;stroke-miterlimit:10;stroke-width:0.597851230906671px"/><line x1="4302.04" y1="698.02" x2="2994.2" y2="698.02" style="fill:none;stroke:#fff;stroke-miterlimit:10;stroke-width:0.597851230906671px"/><line x1="4302.04" y1="719.46" x2="2994.2" y2="719.46" style="fill:none;stroke:#fff;stroke-miterlimit:10;stroke-width:0.597851230906671px"/><line x1="4302.04" y1="740.9" x2="2994.2" y2="740.9" style="fill:none;stroke:#fff;stroke-miterlimit:10;stroke-width:0.597851230906671px"/><line x1="4302.04" y1="762.34" x2="2994.2" y2="762.34" style="fill:none;stroke:#fff;stroke-miterlimit:10;stroke-width:0.597851230906671px"/><line x1="4302.04" y1="783.78" x2="2994.2" y2="783.78" style="fill:none;stroke:#fff;stroke-miterlimit:10;stroke-width:0.597851230906671px"/><line x1="4302.04" y1="805.22" x2="2994.2" y2="805.22" style="fill:none;stroke:#fff;stroke-miterlimit:10;stroke-width:0.597851230906671px"/><line x1="4302.04" y1="826.66" x2="2994.2" y2="826.66" style="fill:none;stroke:#fff;stroke-miterlimit:10;stroke-width:0.597851230906671px"/><line x1="4302.04" y1="848.1" x2="2994.2" y2="848.1" style="fill:none;stroke:#fff;stroke-miterlimit:10;stroke-width:0.597851230906671px"/><line x1="4302.04" y1="869.54" x2="2994.2" y2="869.54" style="fill:none;stroke:#fff;stroke-miterlimit:10;stroke-width:0.597851230906671px"/><line x1="4302.04" y1="890.98" x2="2994.2" y2="890.98" style="fill:none;stroke:#fff;stroke-miterlimit:10;stroke-width:0.597851230906671px"/><line x1="4302.04" y1="912.42" x2="2994.2" y2="912.42" style="fill:none;stroke:#fff;stroke-miterlimit:10;stroke-width:0.597851230906671px"/><line x1="4302.04" y1="933.86" x2="2994.2" y2="933.86" style="fill:none;stroke:#fff;stroke-miterlimit:10;stroke-width:0.597851230906671px"/><line x1="4302.04" y1="955.3" x2="2994.2" y2="955.3" style="fill:none;stroke:#fff;stroke-miterlimit:10;stroke-width:0.597851230906671px"/><line x1="4302.04" y1="976.74" x2="2994.2" y2="976.74" style="fill:none;stroke:#fff;stroke-miterlimit:10;stroke-width:0.597851230906671px"/><line x1="4302.04" y1="998.18" x2="2994.2" y2="998.18" style="fill:none;stroke:#fff;stroke-miterlimit:10;stroke-width:0.597851230906671px"/><line x1="4302.04" y1="1019.62" x2="2994.2" y2="1019.62" style="fill:none;stroke:#fff;stroke-miterlimit:10;stroke-width:0.597851230906671px"/><line x1="4302.04" y1="1041.06" x2="2994.2" y2="1041.06" style="fill:none;stroke:#fff;stroke-miterlimit:10;stroke-width:0.597851230906671px"/><line x1="4302.04" y1="1062.5" x2="2994.2" y2="1062.5" style="fill:none;stroke:#fff;stroke-miterlimit:10;stroke-width:0.597851230906671px"/><line x1="4302.04" y1="1083.94" x2="2994.2" y2="1083.94" style="fill:none;stroke:#fff;stroke-miterlimit:10;stroke-width:0.597851230906671px"/><line x1="4302.04" y1="1105.38" x2="2994.2" y2="1105.38" style="fill:none;stroke:#fff;stroke-miterlimit:10;stroke-width:0.597851230906671px"/><line x1="4302.04" y1="1126.82" x2="2994.2" y2="1126.82" style="fill:none;stroke:#fff;stroke-miterlimit:10;stroke-width:0.597851230906671px"/><line x1="4302.04" y1="1148.26" x2="2994.2" y2="1148.26" style="fill:none;stroke:#fff;stroke-miterlimit:10;stroke-width:0.597851230906671px"/><line x1="4302.04" y1="1169.7" x2="2994.2" y2="1169.7" style="fill:none;stroke:#fff;stroke-miterlimit:10;stroke-width:0.597851230906671px"/><line x1="4302.04" y1="1191.14" x2="2994.2" y2="1191.14" style="fill:none;stroke:#fff;stroke-miterlimit:10;stroke-width:0.597851230906671px"/><line x1="4302.04" y1="1212.58" x2="2994.2" y2="1212.58" style="fill:none;stroke:#fff;stroke-miterlimit:10;stroke-width:0.597851230906671px"/><line x1="4302.04" y1="1234.02" x2="2994.2" y2="1234.02" style="fill:none;stroke:#fff;stroke-miterlimit:10;stroke-width:0.597851230906671px"/><line x1="4302.04" y1="1255.46" x2="2994.2" y2="1255.46" style="fill:none;stroke:#fff;stroke-miterlimit:10;stroke-width:0.597851230906671px"/><line x1="4302.04" y1="1276.9" x2="2994.2" y2="1276.9" style="fill:none;stroke:#fff;stroke-miterlimit:10;stroke-width:0.597851230906671px"/><line x1="4302.04" y1="1298.34" x2="2994.2" y2="1298.34" style="fill:none;stroke:#fff;stroke-miterlimit:10;stroke-width:0.597851230906671px"/><line x1="4302.04" y1="1319.78" x2="2994.2" y2="1319.78" style="fill:none;stroke:#fff;stroke-miterlimit:10;stroke-width:0.597851230906671px"/><line x1="4302.04" y1="1341.22" x2="2994.2" y2="1341.22" style="fill:none;stroke:#fff;stroke-miterlimit:10;stroke-width:0.597851230906671px"/><line x1="4302.04" y1="1362.66" x2="2994.2" y2="1362.66" style="fill:none;stroke:#fff;stroke-miterlimit:10;stroke-width:0.597851230906671px"/><line x1="4302.04" y1="1384.1" x2="2994.2" y2="1384.1" style="fill:none;stroke:#fff;stroke-miterlimit:10;stroke-width:0.597851230906671px"/><line x1="4302.04" y1="1405.54" x2="2994.2" y2="1405.54" style="fill:none;stroke:#fff;stroke-miterlimit:10;stroke-width:0.597851230906671px"/><line x1="4302.04" y1="1426.98" x2="2994.2" y2="1426.98" style="fill:none;stroke:#fff;stroke-miterlimit:10;stroke-width:0.597851230906671px"/><line x1="4302.04" y1="1448.42" x2="2994.2" y2="1448.42" style="fill:none;stroke:#fff;stroke-miterlimit:10;stroke-width:0.597851230906671px"/><line x1="4302.04" y1="1469.86" x2="2994.2" y2="1469.86" style="fill:none;stroke:#fff;stroke-miterlimit:10;stroke-width:0.597851230906671px"/><line x1="4302.04" y1="1491.3" x2="2994.2" y2="1491.3" style="fill:none;stroke:#fff;stroke-miterlimit:10;stroke-width:0.597851230906671px"/><line x1="4302.04" y1="1512.74" x2="2994.2" y2="1512.74" style="fill:none;stroke:#fff;stroke-miterlimit:10;stroke-width:0.597851230906671px"/><line x1="4302.04" y1="1534.18" x2="2994.2" y2="1534.18" style="fill:none;stroke:#fff;stroke-miterlimit:10;stroke-width:0.597851230906671px"/><line x1="4302.04" y1="1555.62" x2="2994.2" y2="1555.62" style="fill:none;stroke:#fff;stroke-miterlimit:10;stroke-width:0.597851230906671px"/><line x1="4302.04" y1="1577.06" x2="2994.2" y2="1577.06" style="fill:none;stroke:#fff;stroke-miterlimit:10;stroke-width:0.597851230906671px"/><line x1="4302.04" y1="1598.5" x2="2994.2" y2="1598.5" style="fill:none;stroke:#fff;stroke-miterlimit:10;stroke-width:0.597851230906671px"/><line x1="4302.04" y1="1619.94" x2="2994.2" y2="1619.94" style="fill:none;stroke:#fff;stroke-miterlimit:10;stroke-width:0.597851230906671px"/><line x1="4302.04" y1="1641.38" x2="2994.2" y2="1641.38" style="fill:none;stroke:#fff;stroke-miterlimit:10;stroke-width:0.597851230906671px"/><line x1="4302.04" y1="1662.82" x2="2994.2" y2="1662.82" style="fill:none;stroke:#fff;stroke-miterlimit:10;stroke-width:0.597851230906671px"/><line x1="4302.04" y1="1684.26" x2="2994.2" y2="1684.26" style="fill:none;stroke:#fff;stroke-miterlimit:10;stroke-width:0.597851230906671px"/><line x1="4302.04" y1="1705.7" x2="2994.2" y2="1705.7" style="fill:none;stroke:#fff;stroke-miterlimit:10;stroke-width:0.597851230906671px"/><line x1="4302.04" y1="1727.14" x2="2994.2" y2="1727.14" style="fill:none;stroke:#fff;stroke-miterlimit:10;stroke-width:0.597851230906671px"/><line x1="4302.04" y1="1748.58" x2="2994.2" y2="1748.58" style="fill:none;stroke:#fff;stroke-miterlimit:10;stroke-width:0.597851230906671px"/><line x1="4302.04" y1="1770.02" x2="2994.2" y2="1770.02" style="fill:none;stroke:#fff;stroke-miterlimit:10;stroke-width:0.597851230906671px"/><line x1="4302.04" y1="1791.46" x2="2994.2" y2="1791.46" style="fill:none;stroke:#fff;stroke-miterlimit:10;stroke-width:0.597851230906671px"/><line x1="4302.04" y1="1812.9" x2="2994.2" y2="1812.9" style="fill:none;stroke:#fff;stroke-miterlimit:10;stroke-width:0.597851230906671px"/><line x1="4302.04" y1="1834.34" x2="2994.2" y2="1834.34" style="fill:none;stroke:#fff;stroke-miterlimit:10;stroke-width:0.597851230906671px"/><line x1="4302.04" y1="1855.78" x2="2994.2" y2="1855.78" style="fill:none;stroke:#fff;stroke-miterlimit:10;stroke-width:0.597851230906671px"/><line x1="4302.04" y1="1877.22" x2="2994.2" y2="1877.22" style="fill:none;stroke:#fff;stroke-miterlimit:10;stroke-width:0.597851230906671px"/><line x1="4302.04" y1="1898.66" x2="2994.2" y2="1898.66" style="fill:none;stroke:#fff;stroke-miterlimit:10;stroke-width:0.597851230906671px"/><line x1="4302.04" y1="1920.1" x2="2994.2" y2="1920.1" style="fill:none;stroke:#fff;stroke-miterlimit:10;stroke-width:0.597851230906671px"/><line x1="3680.32" y1="591.03" x2="3680.32" y2="1920" style="fill:none;stroke:#fff;stroke-miterlimit:10;stroke-width:0.6026141238187864px"/><line x1="3701.76" y1="591.03" x2="3701.76" y2="1920" style="fill:none;stroke:#fff;stroke-miterlimit:10;stroke-width:0.6026141238187864px"/><line x1="3723.2" y1="591.03" x2="3723.2" y2="1920" style="fill:none;stroke:#fff;stroke-miterlimit:10;stroke-width:0.6026141238187864px"/><line x1="3744.64" y1="591.03" x2="3744.64" y2="1919.79" style="fill:none;stroke:#fff;stroke-miterlimit:10;stroke-width:0.6026141238187864px"/><line x1="3766.08" y1="591.03" x2="3766.08" y2="1919.79" style="fill:none;stroke:#fff;stroke-miterlimit:10;stroke-width:0.6026141238187864px"/><line x1="3787.52" y1="591.03" x2="3787.52" y2="1919.79" style="fill:none;stroke:#fff;stroke-miterlimit:10;stroke-width:0.6026141238187864px"/><line x1="3808.96" y1="591.03" x2="3808.96" y2="1919.79" style="fill:none;stroke:#fff;stroke-miterlimit:10;stroke-width:0.6026141238187864px"/><line x1="3830.4" y1="591.03" x2="3830.4" y2="1919.79" style="fill:none;stroke:#fff;stroke-miterlimit:10;stroke-width:0.6026141238187864px"/><line x1="3851.84" y1="591.03" x2="3851.84" y2="1919.79" style="fill:none;stroke:#fff;stroke-miterlimit:10;stroke-width:0.6026141238187864px"/><line x1="3873.28" y1="591.03" x2="3873.28" y2="1919.79" style="fill:none;stroke:#fff;stroke-miterlimit:10;stroke-width:0.6026141238187864px"/><line x1="3894.72" y1="591.03" x2="3894.72" y2="1919.79" style="fill:none;stroke:#fff;stroke-miterlimit:10;stroke-width:0.6026141238187864px"/><line x1="3916.16" y1="591.03" x2="3916.16" y2="1919.79" style="fill:none;stroke:#fff;stroke-miterlimit:10;stroke-width:0.6026141238187864px"/><line x1="3937.6" y1="591.03" x2="3937.6" y2="1919.79" style="fill:none;stroke:#fff;stroke-miterlimit:10;stroke-width:0.6026141238187864px"/><line x1="3959.04" y1="591.03" x2="3959.04" y2="1919.79" style="fill:none;stroke:#fff;stroke-miterlimit:10;stroke-width:0.6026141238187864px"/><line x1="3980.48" y1="591.03" x2="3980.48" y2="1919.79" style="fill:none;stroke:#fff;stroke-miterlimit:10;stroke-width:0.6026141238187864px"/><line x1="4001.92" y1="591.03" x2="4001.92" y2="1919.79" style="fill:none;stroke:#fff;stroke-miterlimit:10;stroke-width:0.6026141238187864px"/><line x1="4023.36" y1="591.03" x2="4023.36" y2="1919.79" style="fill:none;stroke:#fff;stroke-miterlimit:10;stroke-width:0.6026141238187864px"/><line x1="4044.8" y1="591.03" x2="4044.8" y2="1919.79" style="fill:none;stroke:#fff;stroke-miterlimit:10;stroke-width:0.6026141238187864px"/><line x1="4066.24" y1="591.03" x2="4066.24" y2="1919.79" style="fill:none;stroke:#fff;stroke-miterlimit:10;stroke-width:0.6026141238187864px"/><line x1="4087.68" y1="591.03" x2="4087.68" y2="1919.79" style="fill:none;stroke:#fff;stroke-miterlimit:10;stroke-width:0.6026141238187864px"/><line x1="4109.12" y1="591.03" x2="4109.12" y2="1919.79" style="fill:none;stroke:#fff;stroke-miterlimit:10;stroke-width:0.6026141238187864px"/><line x1="4130.56" y1="591.03" x2="4130.56" y2="1919.79" style="fill:none;stroke:#fff;stroke-miterlimit:10;stroke-width:0.6026141238187864px"/><line x1="4152" y1="591.03" x2="4152" y2="1919.79" style="fill:none;stroke:#fff;stroke-miterlimit:10;stroke-width:0.6026141238187864px"/><line x1="4173.44" y1="591.03" x2="4173.44" y2="1919.79" style="fill:none;stroke:#fff;stroke-miterlimit:10;stroke-width:0.6026141238187864px"/><line x1="4194.88" y1="591.03" x2="4194.88" y2="1919.79" style="fill:none;stroke:#fff;stroke-miterlimit:10;stroke-width:0.6026141238187864px"/><line x1="4216.32" y1="591.03" x2="4216.32" y2="1919.79" style="fill:none;stroke:#fff;stroke-miterlimit:10;stroke-width:0.6026141238187864px"/><line x1="4237.76" y1="591.03" x2="4237.76" y2="1919.79" style="fill:none;stroke:#fff;stroke-miterlimit:10;stroke-width:0.6026141238187864px"/><line x1="4259.2" y1="591.03" x2="4259.2" y2="1919.79" style="fill:none;stroke:#fff;stroke-miterlimit:10;stroke-width:0.6026141238187864px"/><line x1="4280.64" y1="591.03" x2="4280.64" y2="1919.79" style="fill:none;stroke:#fff;stroke-miterlimit:10;stroke-width:0.6026141238187864px"/><line x1="4302.08" y1="591.03" x2="4302.08" y2="1919.79" style="fill:none;stroke:#fff;stroke-miterlimit:10;stroke-width:0.6026141238187864px"/></g><path d="M-2554.54-481.21V704.21h1372.4V-481.21Zm1308.3,576-62.69,235.23v54.6h22.53V496l40.16,29.41V580L-1291,646.66h-216.62l-12.59-35.26-12.77-12.13h-670.78l-12.77,12.13-12.59,35.26H-2445.7L-2490.44,580v-54.6l40.16-29.41V384.65h22.54v-54.6l-62.7-235.23V-347.6l45.79-68.27h388.09l33.17,56.71h310.11l33.17-56.71H-1292l45.78,68.27Z" transform="translate(5522.82 1111.81)" style="fill:#4e8977"/><path d="M-2580.66-510.21V720.33H-1156V-510.21Zm1358.1,598-65.08,244.18v56.68h23.4V504.16l41.68,30.52v56.69L-1269,660.59h-224.86l-26.32-49.19H-2216.5l-26.32,49.19h-224.86l-46.44-69.22V534.68l41.68-30.52V388.61h23.4V331.93l-65.08-244.18V-371.53l47.53-70.85h402.87l34.42,58.86h321.93l34.42-58.86h402.86l47.53,70.85Z" transform="translate(5522.82 1111.81)" style="fill:#2b5249"/><path d="M-2577.66,715.72V-505.6H-1159V715.72Zm1082.39-50.53h227.5l48.21-71.88V531.77l-41.68-26.6V384h-23.4V332.83l65.08-244.17V-373.47L-1268.87-447h-405.42l-34.42,58.87H-2028L-2062.39-447H-2467.8l-49.32,73.52V88.66L-2452,332.83V384h-23.4V501.25l-41.68,30.52v61.54l48.22,71.88h227.49l5.5-35.19,15.58-14h704.57l15,14Z" transform="translate(5522.82 1111.81)" style="fill:#315f53"/><path d="M-2620.38-554.14V745H-1116.3V-554.14ZM-1186.55,77.15-1255.26,335v59.84h24.7v122l44,32.23v59.84l-49,73.08H-1473L-1500.76,630h-735.15l-27.79,51.93h-237.4l-49-73.08V549l44-32.23v-122h24.71V335l-68.71-257.8V-407.73l50.18-74.8h425.32l36.35,62.14h339.87l36.34-62.14h425.33l50.18,74.8Z" transform="translate(5522.82 1111.81)" style="fill:#111f1c"/><polygon points="4236.43 1607.77 4258.58 1615.97 4258.58 1500.42 4236.43 1496.46 4236.43 1607.77" style="fill:#2b5c4d"/><polygon points="4213.88 1496.46 4235.18 1500.42 4235.18 1443.73 4213.88 1441.86 4213.88 1496.46" style="fill:#2b5c4d"/><polygon points="4238.18 1444.64 4267.56 1446.75 4267.56 1506.6 4237.84 1500.79 4238.18 1444.64" style="fill:#274b44"/><polygon points="4276.58 1206.63 4300.26 1199.56 4300.26 740.28 4276.58 764.2 4276.58 1206.63" style="fill:#3d6b5b"/><polygon points="3809.54 752.65 3815.44 728.29 3849.87 669.43 3842.7 695.95 3809.54 752.65" style="fill:#2b5c4d"/><polygon points="4230.79 695.95 4252.73 669.43 4300.26 740.28 4276.58 764.2 4230.79 695.95" style="fill:#2b5c4d"/><polygon points="4303.26 1200.46 4336.27 1188.96 4336.27 704.08 4303.26 738.33 4303.26 1200.46" style="fill:#2e564d"/><polygon points="4303.26 738.33 4336.27 704.08 4286.08 629.27 4255.04 666.45 4303.26 738.33" style="fill:#204038"/><polygon points="3814.11 723.68 3824.42 691.42 3860.76 629.27 3848.53 664.82 3814.11 723.68" style="fill:#2e564d"/><polygon points="4276.58 1691.78 4300.26 1703.17 4300.26 1646.49 4276.58 1637.17 4276.58 1691.78" style="fill:#3d6b5b"/><polygon points="4236.43 1607.77 4258.58 1615.97 4300.26 1646.49 4276.58 1637.17 4236.43 1607.77" style="fill:#204038"/><polygon points="4270.56 1447.66 4306.63 1450.45 4306.63 1514.11 4270.56 1507.18 4270.56 1447.66" style="fill:#102520"/><polygon points="4339.27 1189.87 4379.72 1176.23 4379.72 660.44 4339.27 702.13 4339.27 1189.87" style="fill:#102520"/><polygon points="4379.72 660.44 4339.27 702.13 4288.42 626.34 4326.34 580.87 4379.72 660.44" style="fill:#081714"/><polygon points="3835.25 646.98 3823.08 686.82 3859.42 624.67 3873.91 580.87 3835.25 646.98" style="fill:#081714"/><polygon points="4292.26 1628.59 4336.27 1660.81 4303.26 1647.49 4261.58 1616.97 4292.26 1628.59" style="fill:#1a3d35"/><polygon points="4332.91 1643.88 4379.72 1678.16 4339.27 1661.44 4295.26 1629.74 4332.91 1643.88" style="fill:#081714"/><polygon points="4336.27 1720.66 4336.27 1660.81 4303.26 1647.49 4303.26 1705.12 4336.27 1720.66" style="fill:#2e564d"/><polygon points="4379.72 1741.82 4379.72 1678.16 4339.27 1661.44 4339.27 1722.61 4379.72 1741.82" style="fill:#102520"/><polygon points="4235.46 1758.43 4253.82 1772.39 4228.96 1764.31 4039.98 1759.22 4039.05 1758.46 4231.84 1758.46 4276.58 1691.78 4235.46 1758.43" style="fill:#64b095"/><polygon points="4273.84 1220.05 4218.34 1437.33 4235.18 1443.73 4216.34 1447.66 4213.88 1496.46 4213.88 1441.86 4276.58 1206.63 4276.58 764.21 4279.29 1202.84 4300.26 1199.55 4273.84 1220.05" style="fill:#64b095"/><polygon points="3072.53 1607.77 3050.37 1615.97 3050.37 1500.42 3072.53 1496.46 3072.53 1607.77" style="fill:#2b5c4d"/><polygon points="3095.07 1496.46 3073.77 1500.42 3073.77 1443.73 3095.07 1441.86 3095.07 1496.46" style="fill:#2b5c4d"/><polygon points="3070.77 1444.64 3041.4 1446.75 3041.4 1506.6 3071.12 1500.79 3070.77 1444.64" style="fill:#274b44"/><polygon points="3032.38 1206.63 3008.69 1199.56 3008.69 740.28 3032.38 764.2 3032.38 1206.63" style="fill:#3d6b5b"/><polygon points="3499.41 752.65 3493.51 728.29 3459.09 669.43 3466.25 695.95 3499.41 752.65" style="fill:#2b5c4d"/><polygon points="3078.16 695.95 3056.22 669.43 3008.69 740.28 3032.38 764.2 3078.16 695.95" style="fill:#2b5c4d"/><polygon points="3005.69 1200.46 2972.69 1188.96 2972.69 704.08 3005.69 738.33 3005.69 1200.46" style="fill:#2e564d"/><polygon points="3005.69 738.33 2972.69 704.08 3022.87 629.27 3053.91 666.45 3005.69 738.33" style="fill:#204038"/><polygon points="3494.85 723.68 3484.54 691.42 3448.19 629.27 3460.42 664.82 3494.85 723.68" style="fill:#2e564d"/><polygon points="3032.38 1691.78 3008.69 1703.17 3008.69 1646.49 3032.38 1637.17 3032.38 1691.78" style="fill:#3d6b5b"/><polygon points="3072.53 1607.77 3050.37 1615.97 3008.69 1646.49 3032.38 1637.17 3072.53 1607.77" style="fill:#204038"/><polygon points="3038.4 1447.66 3002.32 1450.45 3002.32 1514.11 3038.4 1507.18 3038.4 1447.66" style="fill:#102520"/><polygon points="2969.69 1189.87 2929.23 1176.23 2929.23 660.44 2969.69 702.13 2969.69 1189.87" style="fill:#102520"/><polygon points="2929.23 660.44 2969.69 702.13 3020.53 626.34 2982.61 580.87 2929.23 660.44" style="fill:#081714"/><polygon points="3473.7 646.98 3485.87 686.82 3449.53 624.67 3435.04 580.87 3473.7 646.98" style="fill:#081714"/><polygon points="3016.69 1628.59 2972.69 1660.81 3005.69 1647.49 3047.37 1616.97 3016.69 1628.59" style="fill:#1a3d35"/><polygon points="2976.04 1643.88 2929.23 1678.16 2969.69 1661.44 3013.69 1629.74 2976.04 1643.88" style="fill:#081714"/><polygon points="2972.69 1720.66 2972.69 1660.81 3005.69 1647.49 3005.69 1705.12 2972.69 1720.66" style="fill:#2e564d"/><polygon points="2929.23 1741.82 2929.23 1678.16 2969.69 1661.44 2969.69 1722.61 2929.23 1741.82" style="fill:#102520"/><polygon points="3073.49 1758.43 3055.13 1772.39 3079.99 1764.31 3268.98 1759.3 3269.93 1758.46 3077.11 1758.46 3032.37 1691.78 3073.49 1758.43" style="fill:#64b095"/><polygon points="3035.11 1220.05 3090.61 1437.33 3073.77 1443.73 3092.61 1447.66 3095.07 1496.46 3095.07 1441.86 3032.37 1206.63 3032.37 764.21 3029.66 1202.84 3008.69 1199.55 3035.11 1220.05" style="fill:#64b095"/><polygon points="4002.64 1723.21 3984.09 1715.12 3322.07 1715.12 3306.32 1723.21 3319.09 1711.08 3989.87 1711.08 4002.64 1723.21" style="fill:#64b095"/><polygon points="3286.91 1741.81 3302.49 1727.82 4007.05 1727.82 4022.05 1741.81 4003.39 1731.3 3306.32 1732.08 3286.91 1741.81" style="fill:#4e8977"/><polygon points="3283.74 1752.42 3263.48 1764.32 3283.12 1746.42 4026.14 1746.42 4045.48 1764.32 4024.14 1751.65 3283.74 1752.42" style="fill:#4e8977"/><rect x="3487.06" y="593.58" width="26.61" height="16.04" style="fill:#01080c"/><rect x="3490.64" y="597.03" width="19.44" height="9.13" style="fill:#226e4a"/><rect x="3491.89" y="598.71" width="16.94" height="3.76" style="fill:#3a654a"/><rect x="3521.31" y="593.58" width="26.61" height="16.04" style="fill:#01080c"/><rect x="3524.89" y="597.03" width="19.44" height="9.13" style="fill:#226e4a"/><rect x="3526.14" y="598.71" width="16.94" height="3.76" style="fill:#3a654a"/><rect x="3555.55" y="593.58" width="26.61" height="16.04" style="fill:#01080c"/><rect x="3559.14" y="597.03" width="19.44" height="9.13" style="fill:#226e4a"/><rect x="3560.39" y="598.71" width="16.94" height="3.76" style="fill:#3a654a"/><rect x="3589.8" y="593.58" width="26.61" height="16.04" style="fill:#01080c"/><rect x="3593.39" y="597.03" width="19.44" height="9.13" style="fill:#226e4a"/><rect x="3594.64" y="598.71" width="16.94" height="3.76" style="fill:#3a654a"/><rect x="3624.05" y="593.58" width="26.61" height="16.04" style="fill:#01080c"/><rect x="3627.64" y="597.03" width="19.44" height="9.13" style="fill:#226e4a"/><rect x="3628.89" y="598.71" width="16.94" height="3.76" style="fill:#3a654a"/><rect x="3658.3" y="593.58" width="26.61" height="16.04" style="fill:#01080c"/><rect x="3661.88" y="597.03" width="19.44" height="9.13" style="fill:#226e4a"/><rect x="3663.13" y="598.71" width="16.94" height="3.76" style="fill:#3a654a"/><rect x="3692.55" y="593.58" width="26.61" height="16.04" style="fill:#01080c"/><rect x="3696.13" y="597.03" width="19.44" height="9.13" style="fill:#226e4a"/><rect x="3697.38" y="598.71" width="16.94" height="3.76" style="fill:#3a654a"/><rect x="3726.8" y="593.58" width="26.61" height="16.04" style="fill:#01080c"/><rect x="3730.38" y="597.03" width="19.44" height="9.13" style="fill:#226e4a"/><rect x="3731.63" y="598.71" width="16.94" height="3.76" style="fill:#3a654a"/><rect x="3761.05" y="593.58" width="26.61" height="16.04" style="fill:#01080c"/><rect x="3764.63" y="597.03" width="19.44" height="9.13" style="fill:#226e4a"/><rect x="3765.88" y="598.71" width="16.94" height="3.76" style="fill:#3a654a"/><rect x="3795.3" y="593.58" width="26.61" height="16.04" style="fill:#01080c"/><rect x="3798.88" y="597.03" width="19.44" height="9.13" style="fill:#226e4a"/><rect x="3800.13" y="598.71" width="16.94" height="3.76" style="fill:#3a654a"/><rect x="3308.75" y="1793.96" width="9.32" height="44.11" style="fill:#01080c"/><rect x="3310.01" y="1803.46" width="6.81" height="25.11" style="fill:#226e4a"/><rect x="3310.45" y="1808.08" width="5.94" height="10.33" style="fill:#3a654a"/><rect x="3321.09" y="1793.96" width="9.32" height="44.11" style="fill:#01080c"/><rect x="3322.34" y="1803.46" width="6.81" height="25.11" style="fill:#226e4a"/><rect x="3322.78" y="1808.08" width="5.94" height="10.33" style="fill:#3a654a"/><rect x="3333.42" y="1793.96" width="9.32" height="44.11" style="fill:#01080c"/><rect x="3334.67" y="1803.46" width="6.81" height="25.11" style="fill:#226e4a"/><rect x="3335.11" y="1808.08" width="5.94" height="10.33" style="fill:#3a654a"/><rect x="3345.75" y="1793.96" width="9.32" height="44.11" style="fill:#01080c"/><rect x="3347.01" y="1803.46" width="6.81" height="25.11" style="fill:#226e4a"/><rect x="3347.45" y="1808.08" width="5.94" height="10.33" style="fill:#3a654a"/><rect x="3373.17" y="1793.96" width="9.32" height="44.11" style="fill:#01080c"/><rect x="3374.43" y="1803.46" width="6.81" height="25.11" style="fill:#226e4a"/><rect x="3374.87" y="1808.08" width="5.94" height="10.33" style="fill:#3a654a"/><rect x="3385.51" y="1793.96" width="9.32" height="44.11" style="fill:#01080c"/><rect x="3386.76" y="1803.46" width="6.81" height="25.11" style="fill:#226e4a"/><rect x="3387.2" y="1808.08" width="5.94" height="10.33" style="fill:#3a654a"/><rect x="3397.84" y="1793.96" width="9.32" height="44.11" style="fill:#01080c"/><rect x="3399.09" y="1803.46" width="6.81" height="25.11" style="fill:#226e4a"/><rect x="3399.53" y="1808.08" width="5.94" height="10.33" style="fill:#3a654a"/><rect x="3410.17" y="1793.96" width="9.32" height="44.11" style="fill:#01080c"/><rect x="3411.43" y="1803.46" width="6.81" height="25.11" style="fill:#226e4a"/><rect x="3411.87" y="1808.08" width="5.94" height="10.33" style="fill:#3a654a"/><rect x="3889.46" y="1793.96" width="9.32" height="44.11" style="fill:#01080c"/><rect x="3890.72" y="1803.46" width="6.81" height="25.11" style="fill:#226e4a"/><rect x="3891.16" y="1808.08" width="5.94" height="10.33" style="fill:#3a654a"/><rect x="3901.8" y="1793.96" width="9.32" height="44.11" style="fill:#01080c"/><rect x="3903.05" y="1803.46" width="6.81" height="25.11" style="fill:#226e4a"/><rect x="3903.49" y="1808.08" width="5.94" height="10.33" style="fill:#3a654a"/><rect x="3914.13" y="1793.96" width="9.32" height="44.11" style="fill:#01080c"/><rect x="3915.39" y="1803.46" width="6.81" height="25.11" style="fill:#226e4a"/><rect x="3915.82" y="1808.08" width="5.94" height="10.33" style="fill:#3a654a"/><rect x="3926.46" y="1793.96" width="9.32" height="44.11" style="fill:#01080c"/><rect x="3927.72" y="1803.46" width="6.81" height="25.11" style="fill:#226e4a"/><rect x="3928.16" y="1808.08" width="5.94" height="10.33" style="fill:#3a654a"/><rect x="3953.88" y="1793.96" width="9.32" height="44.11" style="fill:#01080c"/><rect x="3955.14" y="1803.46" width="6.81" height="25.11" style="fill:#226e4a"/><rect x="3955.58" y="1808.08" width="5.94" height="10.33" style="fill:#3a654a"/><rect x="3966.22" y="1793.96" width="9.32" height="44.11" style="fill:#01080c"/><rect x="3967.47" y="1803.46" width="6.81" height="25.11" style="fill:#226e4a"/><rect x="3967.91" y="1808.08" width="5.94" height="10.33" style="fill:#3a654a"/><rect x="3978.55" y="1793.96" width="9.32" height="44.11" style="fill:#01080c"/><rect x="3979.81" y="1803.46" width="6.81" height="25.11" style="fill:#226e4a"/><rect x="3980.24" y="1808.08" width="5.94" height="10.33" style="fill:#3a654a"/><rect x="3990.88" y="1793.96" width="9.32" height="44.11" style="fill:#01080c"/><rect x="3992.14" y="1803.46" width="6.81" height="25.11" style="fill:#226e4a"/><rect x="3992.58" y="1808.08" width="5.94" height="10.33" style="fill:#3a654a"/></g></svg>