<svg id="white_grid" data-name="white grid" xmlns="http://www.w3.org/2000/svg" viewBox="0 0 3051.99 3101.39"><g style="opacity:0.1"><line x1="0.7" y1="1.41" x2="0.7" y2="3100.7" style="fill:none;stroke:#fff;stroke-miterlimit:10;stroke-width:1.4053499993855993px"/><line x1="50.7" y1="1.41" x2="50.7" y2="3100.7" style="fill:none;stroke:#fff;stroke-miterlimit:10;stroke-width:1.4053499993855993px"/><line x1="100.7" y1="1.41" x2="100.7" y2="3100.7" style="fill:none;stroke:#fff;stroke-miterlimit:10;stroke-width:1.4053499993855993px"/><line x1="150.7" y1="1.41" x2="150.7" y2="3100.7" style="fill:none;stroke:#fff;stroke-miterlimit:10;stroke-width:1.4053499993855993px"/><line x1="200.7" y1="1.41" x2="200.7" y2="3100.7" style="fill:none;stroke:#fff;stroke-miterlimit:10;stroke-width:1.4053499993855993px"/><line x1="250.7" y1="1.41" x2="250.7" y2="3100.2" style="fill:none;stroke:#fff;stroke-miterlimit:10;stroke-width:1.4053499993855993px"/><line x1="300.7" y1="1.41" x2="300.7" y2="3100.2" style="fill:none;stroke:#fff;stroke-miterlimit:10;stroke-width:1.4053499993855993px"/><line x1="350.7" y1="1.41" x2="350.7" y2="3100.2" style="fill:none;stroke:#fff;stroke-miterlimit:10;stroke-width:1.4053499993855993px"/><line x1="400.7" y1="1.41" x2="400.7" y2="3100.2" style="fill:none;stroke:#fff;stroke-miterlimit:10;stroke-width:1.4053499993855993px"/><line x1="450.7" y1="1.41" x2="450.7" y2="3100.2" style="fill:none;stroke:#fff;stroke-miterlimit:10;stroke-width:1.4053499993855993px"/><line x1="500.7" y1="1.41" x2="500.7" y2="3100.2" style="fill:none;stroke:#fff;stroke-miterlimit:10;stroke-width:1.4053499993855993px"/><line x1="550.7" y1="1.41" x2="550.7" y2="3100.2" style="fill:none;stroke:#fff;stroke-miterlimit:10;stroke-width:1.4053499993855993px"/><line x1="600.7" y1="1.41" x2="600.7" y2="3100.2" style="fill:none;stroke:#fff;stroke-miterlimit:10;stroke-width:1.4053499993855993px"/><line x1="650.7" y1="1.41" x2="650.7" y2="3100.2" style="fill:none;stroke:#fff;stroke-miterlimit:10;stroke-width:1.4053499993855993px"/><line x1="700.7" y1="1.41" x2="700.7" y2="3100.2" style="fill:none;stroke:#fff;stroke-miterlimit:10;stroke-width:1.4053499993855993px"/><line x1="750.7" y1="1.41" x2="750.7" y2="3100.2" style="fill:none;stroke:#fff;stroke-miterlimit:10;stroke-width:1.4053499993855993px"/><line x1="800.7" y1="1.41" x2="800.7" y2="3100.2" style="fill:none;stroke:#fff;stroke-miterlimit:10;stroke-width:1.4053499993855993px"/><line x1="850.7" y1="1.41" x2="850.7" y2="3100.2" style="fill:none;stroke:#fff;stroke-miterlimit:10;stroke-width:1.4053499993855993px"/><line x1="900.7" y1="1.41" x2="900.7" y2="3100.2" style="fill:none;stroke:#fff;stroke-miterlimit:10;stroke-width:1.4053499993855993px"/><line x1="950.7" y1="1.41" x2="950.7" y2="3100.2" style="fill:none;stroke:#fff;stroke-miterlimit:10;stroke-width:1.4053499993855993px"/><line x1="1000.7" y1="1.41" x2="1000.7" y2="3100.2" style="fill:none;stroke:#fff;stroke-miterlimit:10;stroke-width:1.4053499993855993px"/><line x1="1050.7" y1="1.41" x2="1050.7" y2="3100.2" style="fill:none;stroke:#fff;stroke-miterlimit:10;stroke-width:1.4053499993855993px"/><line x1="1100.7" y1="1.41" x2="1100.7" y2="3100.2" style="fill:none;stroke:#fff;stroke-miterlimit:10;stroke-width:1.4053499993855993px"/><line x1="1150.7" y1="1.41" x2="1150.7" y2="3100.2" style="fill:none;stroke:#fff;stroke-miterlimit:10;stroke-width:1.4053499993855993px"/><line x1="1200.7" y1="1.41" x2="1200.7" y2="3100.2" style="fill:none;stroke:#fff;stroke-miterlimit:10;stroke-width:1.4053499993855993px"/><line x1="1250.7" y1="1.41" x2="1250.7" y2="3100.2" style="fill:none;stroke:#fff;stroke-miterlimit:10;stroke-width:1.4053499993855993px"/><line x1="1300.7" y1="1.41" x2="1300.7" y2="3100.2" style="fill:none;stroke:#fff;stroke-miterlimit:10;stroke-width:1.4053499993855993px"/><line x1="1350.7" y1="1.41" x2="1350.7" y2="3100.2" style="fill:none;stroke:#fff;stroke-miterlimit:10;stroke-width:1.4053499993855993px"/><line x1="1400.7" y1="1.41" x2="1400.7" y2="3100.2" style="fill:none;stroke:#fff;stroke-miterlimit:10;stroke-width:1.4053499993855993px"/><line x1="1450.7" y1="1.41" x2="1450.7" y2="3100.2" style="fill:none;stroke:#fff;stroke-miterlimit:10;stroke-width:1.4053499993855993px"/><line x1="1500.7" y1="1.41" x2="1500.7" y2="3100.2" style="fill:none;stroke:#fff;stroke-miterlimit:10;stroke-width:1.4053499993855993px"/><line x1="1550.7" y1="1.41" x2="1550.7" y2="3100.2" style="fill:none;stroke:#fff;stroke-miterlimit:10;stroke-width:1.4053499993855993px"/><line x1="3051.2" y1="0.7" x2="1.2" y2="0.7" style="fill:none;stroke:#fff;stroke-miterlimit:10;stroke-width:1.3942425073993547px"/><line x1="3051.2" y1="50.7" x2="1.2" y2="50.7" style="fill:none;stroke:#fff;stroke-miterlimit:10;stroke-width:1.3942425073993547px"/><line x1="3051.2" y1="100.7" x2="1.2" y2="100.7" style="fill:none;stroke:#fff;stroke-miterlimit:10;stroke-width:1.3942425073993547px"/><line x1="3051.2" y1="150.7" x2="1.2" y2="150.7" style="fill:none;stroke:#fff;stroke-miterlimit:10;stroke-width:1.3942425073993547px"/><line x1="3051.2" y1="200.7" x2="1.2" y2="200.7" style="fill:none;stroke:#fff;stroke-miterlimit:10;stroke-width:1.3942425073993547px"/><line x1="3051.2" y1="250.7" x2="1.2" y2="250.7" style="fill:none;stroke:#fff;stroke-miterlimit:10;stroke-width:1.3942425073993547px"/><line x1="3051.2" y1="300.7" x2="1.2" y2="300.7" style="fill:none;stroke:#fff;stroke-miterlimit:10;stroke-width:1.3942425073993547px"/><line x1="3051.2" y1="350.7" x2="1.2" y2="350.7" style="fill:none;stroke:#fff;stroke-miterlimit:10;stroke-width:1.3942425073993547px"/><line x1="3051.2" y1="400.7" x2="1.2" y2="400.7" style="fill:none;stroke:#fff;stroke-miterlimit:10;stroke-width:1.3942425073993547px"/><line x1="3051.2" y1="450.7" x2="1.2" y2="450.7" style="fill:none;stroke:#fff;stroke-miterlimit:10;stroke-width:1.3942425073993547px"/><line x1="3051.2" y1="500.7" x2="1.2" y2="500.7" style="fill:none;stroke:#fff;stroke-miterlimit:10;stroke-width:1.3942425073993547px"/><line x1="3051.2" y1="550.7" x2="1.2" y2="550.7" style="fill:none;stroke:#fff;stroke-miterlimit:10;stroke-width:1.3942425073993547px"/><line x1="3051.2" y1="600.7" x2="1.2" y2="600.7" style="fill:none;stroke:#fff;stroke-miterlimit:10;stroke-width:1.3942425073993547px"/><line x1="3051.2" y1="650.7" x2="1.2" y2="650.7" style="fill:none;stroke:#fff;stroke-miterlimit:10;stroke-width:1.3942425073993547px"/><line x1="3051.2" y1="700.7" x2="1.2" y2="700.7" style="fill:none;stroke:#fff;stroke-miterlimit:10;stroke-width:1.3942425073993547px"/><line x1="3051.2" y1="750.7" x2="1.2" y2="750.7" style="fill:none;stroke:#fff;stroke-miterlimit:10;stroke-width:1.3942425073993547px"/><line x1="3051.2" y1="800.7" x2="1.2" y2="800.7" style="fill:none;stroke:#fff;stroke-miterlimit:10;stroke-width:1.3942425073993547px"/><line x1="3051.2" y1="850.7" x2="1.2" y2="850.7" style="fill:none;stroke:#fff;stroke-miterlimit:10;stroke-width:1.3942425073993547px"/><line x1="3051.2" y1="900.7" x2="1.2" y2="900.7" style="fill:none;stroke:#fff;stroke-miterlimit:10;stroke-width:1.3942425073993547px"/><line x1="3051.2" y1="950.7" x2="1.2" y2="950.7" style="fill:none;stroke:#fff;stroke-miterlimit:10;stroke-width:1.3942425073993547px"/><line x1="3051.2" y1="1000.7" x2="1.2" y2="1000.7" style="fill:none;stroke:#fff;stroke-miterlimit:10;stroke-width:1.3942425073993547px"/><line x1="3051.2" y1="1050.7" x2="1.2" y2="1050.7" style="fill:none;stroke:#fff;stroke-miterlimit:10;stroke-width:1.3942425073993547px"/><line x1="3051.2" y1="1100.7" x2="1.2" y2="1100.7" style="fill:none;stroke:#fff;stroke-miterlimit:10;stroke-width:1.3942425073993547px"/><line x1="3051.2" y1="1150.7" x2="1.2" y2="1150.7" style="fill:none;stroke:#fff;stroke-miterlimit:10;stroke-width:1.3942425073993547px"/><line x1="3051.2" y1="1200.7" x2="1.2" y2="1200.7" style="fill:none;stroke:#fff;stroke-miterlimit:10;stroke-width:1.3942425073993547px"/><line x1="3051.2" y1="1250.7" x2="1.2" y2="1250.7" style="fill:none;stroke:#fff;stroke-miterlimit:10;stroke-width:1.3942425073993547px"/><line x1="3051.2" y1="1300.7" x2="1.2" y2="1300.7" style="fill:none;stroke:#fff;stroke-miterlimit:10;stroke-width:1.3942425073993547px"/><line x1="3051.2" y1="1350.7" x2="1.2" y2="1350.7" style="fill:none;stroke:#fff;stroke-miterlimit:10;stroke-width:1.3942425073993547px"/><line x1="3051.2" y1="1400.7" x2="1.2" y2="1400.7" style="fill:none;stroke:#fff;stroke-miterlimit:10;stroke-width:1.3942425073993547px"/><line x1="3051.2" y1="1450.7" x2="1.2" y2="1450.7" style="fill:none;stroke:#fff;stroke-miterlimit:10;stroke-width:1.3942425073993547px"/><line x1="3051.2" y1="1500.7" x2="1.2" y2="1500.7" style="fill:none;stroke:#fff;stroke-miterlimit:10;stroke-width:1.3942425073993547px"/><line x1="3051.2" y1="1550.7" x2="1.2" y2="1550.7" style="fill:none;stroke:#fff;stroke-miterlimit:10;stroke-width:1.3942425073993547px"/><line x1="3051.2" y1="1600.7" x2="1.2" y2="1600.7" style="fill:none;stroke:#fff;stroke-miterlimit:10;stroke-width:1.3942425073993547px"/><line x1="3051.2" y1="1650.7" x2="1.2" y2="1650.7" style="fill:none;stroke:#fff;stroke-miterlimit:10;stroke-width:1.3942425073993547px"/><line x1="3051.2" y1="1700.7" x2="1.2" y2="1700.7" style="fill:none;stroke:#fff;stroke-miterlimit:10;stroke-width:1.3942425073993547px"/><line x1="3051.2" y1="1750.7" x2="1.2" y2="1750.7" style="fill:none;stroke:#fff;stroke-miterlimit:10;stroke-width:1.3942425073993547px"/><line x1="3051.2" y1="1800.7" x2="1.2" y2="1800.7" style="fill:none;stroke:#fff;stroke-miterlimit:10;stroke-width:1.3942425073993547px"/><line x1="3051.2" y1="1850.7" x2="1.2" y2="1850.7" style="fill:none;stroke:#fff;stroke-miterlimit:10;stroke-width:1.3942425073993547px"/><line x1="3051.2" y1="1900.7" x2="1.2" y2="1900.7" style="fill:none;stroke:#fff;stroke-miterlimit:10;stroke-width:1.3942425073993547px"/><line x1="3051.2" y1="1950.7" x2="1.2" y2="1950.7" style="fill:none;stroke:#fff;stroke-miterlimit:10;stroke-width:1.3942425073993547px"/><line x1="3051.2" y1="2000.7" x2="1.2" y2="2000.7" style="fill:none;stroke:#fff;stroke-miterlimit:10;stroke-width:1.3942425073993547px"/><line x1="3051.2" y1="2050.7" x2="1.2" y2="2050.7" style="fill:none;stroke:#fff;stroke-miterlimit:10;stroke-width:1.3942425073993547px"/><line x1="3051.2" y1="2100.7" x2="1.2" y2="2100.7" style="fill:none;stroke:#fff;stroke-miterlimit:10;stroke-width:1.3942425073993547px"/><line x1="3051.2" y1="2150.7" x2="1.2" y2="2150.7" style="fill:none;stroke:#fff;stroke-miterlimit:10;stroke-width:1.3942425073993547px"/><line x1="3051.2" y1="2200.7" x2="1.2" y2="2200.7" style="fill:none;stroke:#fff;stroke-miterlimit:10;stroke-width:1.3942425073993547px"/><line x1="3051.2" y1="2250.7" x2="1.2" y2="2250.7" style="fill:none;stroke:#fff;stroke-miterlimit:10;stroke-width:1.3942425073993547px"/><line x1="3051.2" y1="2300.7" x2="1.2" y2="2300.7" style="fill:none;stroke:#fff;stroke-miterlimit:10;stroke-width:1.3942425073993547px"/><line x1="3051.2" y1="2350.7" x2="1.2" y2="2350.7" style="fill:none;stroke:#fff;stroke-miterlimit:10;stroke-width:1.3942425073993547px"/><line x1="3051.2" y1="2400.7" x2="1.2" y2="2400.7" style="fill:none;stroke:#fff;stroke-miterlimit:10;stroke-width:1.3942425073993547px"/><line x1="3051.2" y1="2450.7" x2="1.2" y2="2450.7" style="fill:none;stroke:#fff;stroke-miterlimit:10;stroke-width:1.3942425073993547px"/><line x1="3051.2" y1="2500.7" x2="1.2" y2="2500.7" style="fill:none;stroke:#fff;stroke-miterlimit:10;stroke-width:1.3942425073993547px"/><line x1="3051.2" y1="2550.7" x2="1.2" y2="2550.7" style="fill:none;stroke:#fff;stroke-miterlimit:10;stroke-width:1.3942425073993547px"/><line x1="3051.2" y1="2600.7" x2="1.2" y2="2600.7" style="fill:none;stroke:#fff;stroke-miterlimit:10;stroke-width:1.3942425073993547px"/><line x1="3051.2" y1="2650.7" x2="1.2" y2="2650.7" style="fill:none;stroke:#fff;stroke-miterlimit:10;stroke-width:1.3942425073993547px"/><line x1="3051.2" y1="2700.7" x2="1.2" y2="2700.7" style="fill:none;stroke:#fff;stroke-miterlimit:10;stroke-width:1.3942425073993547px"/><line x1="3051.2" y1="2750.7" x2="1.2" y2="2750.7" style="fill:none;stroke:#fff;stroke-miterlimit:10;stroke-width:1.3942425073993547px"/><line x1="3051.2" y1="2800.7" x2="1.2" y2="2800.7" style="fill:none;stroke:#fff;stroke-miterlimit:10;stroke-width:1.3942425073993547px"/><line x1="3051.2" y1="2850.7" x2="1.2" y2="2850.7" style="fill:none;stroke:#fff;stroke-miterlimit:10;stroke-width:1.3942425073993547px"/><line x1="3051.2" y1="2900.7" x2="1.2" y2="2900.7" style="fill:none;stroke:#fff;stroke-miterlimit:10;stroke-width:1.3942425073993547px"/><line x1="3051.2" y1="2950.7" x2="1.2" y2="2950.7" style="fill:none;stroke:#fff;stroke-miterlimit:10;stroke-width:1.3942425073993547px"/><line x1="3051.2" y1="3000.7" x2="1.2" y2="3000.7" style="fill:none;stroke:#fff;stroke-miterlimit:10;stroke-width:1.3942425073993547px"/><line x1="3051.2" y1="3050.7" x2="1.2" y2="3050.7" style="fill:none;stroke:#fff;stroke-miterlimit:10;stroke-width:1.3942425073993547px"/><line x1="3051.2" y1="3100.7" x2="1.2" y2="3100.7" style="fill:none;stroke:#fff;stroke-miterlimit:10;stroke-width:1.3942425073993547px"/><line x1="1601.29" y1="1.2" x2="1601.29" y2="3100.48" style="fill:none;stroke:#fff;stroke-miterlimit:10;stroke-width:1.4053499993855993px"/><line x1="1651.29" y1="1.2" x2="1651.29" y2="3100.48" style="fill:none;stroke:#fff;stroke-miterlimit:10;stroke-width:1.4053499993855993px"/><line x1="1701.29" y1="1.2" x2="1701.29" y2="3100.48" style="fill:none;stroke:#fff;stroke-miterlimit:10;stroke-width:1.4053499993855993px"/><line x1="1751.29" y1="1.2" x2="1751.29" y2="3099.98" style="fill:none;stroke:#fff;stroke-miterlimit:10;stroke-width:1.4053499993855993px"/><line x1="1801.29" y1="1.2" x2="1801.29" y2="3099.98" style="fill:none;stroke:#fff;stroke-miterlimit:10;stroke-width:1.4053499993855993px"/><line x1="1851.29" y1="1.2" x2="1851.29" y2="3099.98" style="fill:none;stroke:#fff;stroke-miterlimit:10;stroke-width:1.4053499993855993px"/><line x1="1901.29" y1="1.2" x2="1901.29" y2="3099.98" style="fill:none;stroke:#fff;stroke-miterlimit:10;stroke-width:1.4053499993855993px"/><line x1="1951.29" y1="1.2" x2="1951.29" y2="3099.98" style="fill:none;stroke:#fff;stroke-miterlimit:10;stroke-width:1.4053499993855993px"/><line x1="2001.29" y1="1.2" x2="2001.29" y2="3099.98" style="fill:none;stroke:#fff;stroke-miterlimit:10;stroke-width:1.4053499993855993px"/><line x1="2051.29" y1="1.2" x2="2051.29" y2="3099.98" style="fill:none;stroke:#fff;stroke-miterlimit:10;stroke-width:1.4053499993855993px"/><line x1="2101.29" y1="1.2" x2="2101.29" y2="3099.98" style="fill:none;stroke:#fff;stroke-miterlimit:10;stroke-width:1.4053499993855993px"/><line x1="2151.29" y1="1.2" x2="2151.29" y2="3099.98" style="fill:none;stroke:#fff;stroke-miterlimit:10;stroke-width:1.4053499993855993px"/><line x1="2201.29" y1="1.2" x2="2201.29" y2="3099.98" style="fill:none;stroke:#fff;stroke-miterlimit:10;stroke-width:1.4053499993855993px"/><line x1="2251.29" y1="1.2" x2="2251.29" y2="3099.98" style="fill:none;stroke:#fff;stroke-miterlimit:10;stroke-width:1.4053499993855993px"/><line x1="2301.29" y1="1.2" x2="2301.29" y2="3099.98" style="fill:none;stroke:#fff;stroke-miterlimit:10;stroke-width:1.4053499993855993px"/><line x1="2351.29" y1="1.2" x2="2351.29" y2="3099.98" style="fill:none;stroke:#fff;stroke-miterlimit:10;stroke-width:1.4053499993855993px"/><line x1="2401.29" y1="1.2" x2="2401.29" y2="3099.98" style="fill:none;stroke:#fff;stroke-miterlimit:10;stroke-width:1.4053499993855993px"/><line x1="2451.29" y1="1.2" x2="2451.29" y2="3099.98" style="fill:none;stroke:#fff;stroke-miterlimit:10;stroke-width:1.4053499993855993px"/><line x1="2501.29" y1="1.2" x2="2501.29" y2="3099.98" style="fill:none;stroke:#fff;stroke-miterlimit:10;stroke-width:1.4053499993855993px"/><line x1="2551.29" y1="1.2" x2="2551.29" y2="3099.98" style="fill:none;stroke:#fff;stroke-miterlimit:10;stroke-width:1.4053499993855993px"/><line x1="2601.29" y1="1.2" x2="2601.29" y2="3099.98" style="fill:none;stroke:#fff;stroke-miterlimit:10;stroke-width:1.4053499993855993px"/><line x1="2651.29" y1="1.2" x2="2651.29" y2="3099.98" style="fill:none;stroke:#fff;stroke-miterlimit:10;stroke-width:1.4053499993855993px"/><line x1="2701.29" y1="1.2" x2="2701.29" y2="3099.98" style="fill:none;stroke:#fff;stroke-miterlimit:10;stroke-width:1.4053499993855993px"/><line x1="2751.29" y1="1.2" x2="2751.29" y2="3099.98" style="fill:none;stroke:#fff;stroke-miterlimit:10;stroke-width:1.4053499993855993px"/><line x1="2801.29" y1="1.2" x2="2801.29" y2="3099.98" style="fill:none;stroke:#fff;stroke-miterlimit:10;stroke-width:1.4053499993855993px"/><line x1="2851.29" y1="1.2" x2="2851.29" y2="3099.98" style="fill:none;stroke:#fff;stroke-miterlimit:10;stroke-width:1.4053499993855993px"/><line x1="2901.29" y1="1.2" x2="2901.29" y2="3099.98" style="fill:none;stroke:#fff;stroke-miterlimit:10;stroke-width:1.4053499993855993px"/><line x1="2951.29" y1="1.2" x2="2951.29" y2="3099.98" style="fill:none;stroke:#fff;stroke-miterlimit:10;stroke-width:1.4053499993855993px"/><line x1="3001.29" y1="1.2" x2="3001.29" y2="3099.98" style="fill:none;stroke:#fff;stroke-miterlimit:10;stroke-width:1.4053499993855993px"/><line x1="3051.29" y1="1.2" x2="3051.29" y2="3099.98" style="fill:none;stroke:#fff;stroke-miterlimit:10;stroke-width:1.4053499993855993px"/></g></svg>