<svg id="page_num" data-name="page num" xmlns="http://www.w3.org/2000/svg" viewBox="0 0 1000 500"><polygon points="818.86 219.68 918.92 219.68 918.92 226.14 824.23 226.14 824.23 325.13 823.28 326.1 744.81 405.87 580.53 405.87 580.53 399.41 742.83 399.41 818.86 322.15 818.86 219.68" style="fill:#82ffd8"/><rect x="1569.27" y="2396.59" width="94.75" height="13.68" transform="translate(2255.03 2851.72) rotate(180)" style="fill:#82ffd8"/><rect x="1511.41" y="2354.79" width="94.75" height="13.69" transform="translate(2139.31 2768.11) rotate(180)" style="fill:#82ffd8"/><polygon points="754.62 366.16 757 369.38 737.13 390.76 706.95 390.76 706.95 386.45 735.77 386.45 754.62 366.16" style="fill:#82ffd8"/><polygon points="809.96 286.97 813.53 287.26 811.75 319.3 790.2 344.76 787.69 341.69 808.27 317.37 809.96 286.97" style="fill:#82ffd8"/><polygon points="820.14 345.19 821.32 346.8 750.45 422.14 533.15 422.14 533.15 419.99 749.78 419.99 820.14 345.19" style="fill:#82ffd8"/><path d="M1802.63,2301.14c0,2.43-1.63,4.4-3.65,4.4s-3.65-2-3.65-4.4,1.64-4.4,3.65-4.4S1802.63,2298.71,1802.63,2301.14Z" transform="translate(-978.26 -1955.15)" style="fill:#82ffd8"/><polygon points="828.41 231.24 897.39 231.24 897.39 233.4 830.2 233.4 830.2 314.93 828.41 314.93 828.41 231.24" style="fill:#82ffd8"/><rect x="1803.62" y="2168.43" width="93.55" height="2.16" transform="translate(2722.55 2383.87) rotate(180)" style="fill:#82ffd8"/><polygon points="583.15 427.66 734.8 427.66 734.8 429.82 584.94 429.82 584.94 461.2 583.15 461.2 583.15 427.66" style="fill:#82ffd8"/><polygon points="180.17 219.68 80.11 219.68 80.11 226.14 174.81 226.14 174.81 325.13 175.75 326.1 254.23 405.87 418.51 405.87 418.51 399.41 256.21 399.41 180.17 322.15 180.17 219.68" style="fill:#82ffd8"/><rect x="313.28" y="441.45" width="94.74" height="13.68" style="fill:#82ffd8"/><rect x="371.14" y="399.64" width="94.74" height="13.69" style="fill:#82ffd8"/><polygon points="244.41 366.16 242.03 369.38 261.91 390.76 292.09 390.76 292.09 386.45 263.27 386.45 244.41 366.16" style="fill:#82ffd8"/><polygon points="189.08 286.97 185.51 287.26 187.29 319.3 208.84 344.76 211.34 341.69 190.76 317.37 189.08 286.97" style="fill:#82ffd8"/><polygon points="178.9 345.19 177.72 346.8 248.58 422.14 465.88 422.14 465.88 419.99 249.26 419.99 178.9 345.19" style="fill:#82ffd8"/><path d="M1152.92,2301.14c0,2.43,1.63,4.4,3.64,4.4s3.65-2,3.65-4.4-1.63-4.4-3.65-4.4S1152.92,2298.71,1152.92,2301.14Z" transform="translate(-978.26 -1955.15)" style="fill:#82ffd8"/><polygon points="170.63 231.24 101.65 231.24 101.65 233.4 168.84 233.4 168.84 314.93 170.63 314.93 170.63 231.24" style="fill:#82ffd8"/><rect x="80.12" y="213.28" width="93.55" height="2.16" style="fill:#82ffd8"/><polygon points="415.89 427.66 264.23 427.66 264.23 429.82 414.1 429.82 414.1 461.2 415.89 461.2 415.89 427.66" style="fill:#82ffd8"/><polyline points="168.83 144.99 169.65 144.15 237.59 75.08 379.84 75.08 379.84 80.68 239.31 80.68 173.48 147.57" style="fill:#82ffd8"/><rect x="338.82" y="69.08" width="82.03" height="11.85" style="fill:#82ffd8"/><polygon points="180.24 179.07 177.15 178.82 178.69 151.08 197.35 129.03 199.51 131.69 181.7 152.75 180.24 179.07" style="fill:#82ffd8"/><polygon points="227.54 107.93 225.48 105.14 242.69 86.63 268.81 86.63 268.81 90.36 243.87 90.36 227.54 107.93" style="fill:#82ffd8"/><polygon points="172.37 128.81 171.35 127.41 232.71 62.18 420.85 62.18 420.85 64.05 233.29 64.05 172.37 128.81" style="fill:#82ffd8"/><path d="M1147,2083.26c0-2.1,1.41-3.81,3.16-3.81s3.16,1.71,3.16,3.81-1.42,3.81-3.16,3.81S1147,2085.37,1147,2083.26Z" transform="translate(-978.26 -1955.15)" style="fill:#82ffd8"/><polygon points="427.66 92.86 296.36 92.86 296.36 91 426.11 91 426.11 63.83 427.66 63.83 427.66 92.86" style="fill:#82ffd8"/><polyline points="831.31 144.99 830.5 144.15 762.55 75.08 620.31 75.08 620.31 80.68 760.84 80.68 826.67 147.57" style="fill:#82ffd8"/><rect x="1557.55" y="2024.23" width="82.03" height="11.85" transform="translate(2218.88 2105.16) rotate(180)" style="fill:#82ffd8"/><polygon points="819.91 179.07 823 178.82 821.46 151.08 802.8 129.03 800.63 131.69 818.45 152.75 819.91 179.07" style="fill:#82ffd8"/><polygon points="772.61 107.93 774.67 105.14 757.46 86.63 731.33 86.63 731.33 90.36 756.28 90.36 772.61 107.93" style="fill:#82ffd8"/><polygon points="827.77 128.81 828.8 127.41 767.44 62.18 579.29 62.18 579.29 64.05 766.86 64.05 827.77 128.81" style="fill:#82ffd8"/><path d="M1809.7,2083.26c0-2.1-1.41-3.81-3.16-3.81s-3.16,1.71-3.16,3.81,1.42,3.81,3.16,3.81S1809.7,2085.37,1809.7,2083.26Z" transform="translate(-978.26 -1955.15)" style="fill:#82ffd8"/><line x1="838.62" y1="203.83" x2="837.07" y2="203.83" style="fill:#82ffd8"/><polygon points="572.49 92.86 703.79 92.86 703.79 91 574.03 91 574.03 63.83 572.49 63.83 572.49 92.86" style="fill:#82ffd8"/><polygon points="841.3 249.86 929.51 249.86 953.47 220.97 1000 220.97 1000 253.86 963.39 297.99 884.11 297.99 798.12 401.67 798.12 387.53 848.94 326.25 842.11 318.01 841.3 249.86" style="fill:#82ffd8"/><polygon points="524.28 441.44 559.67 441.44 570.6 454.62 570.6 474.27 661.33 474.27 671.72 486.79 660.76 500 559.67 500 536.89 472.54 524.62 472.54 524.28 441.44" style="fill:#82ffd8"/><polygon points="158.7 249.86 70.49 249.86 46.53 220.97 0 220.97 0 253.86 36.61 297.99 115.89 297.99 201.88 401.67 201.88 387.53 151.06 326.25 157.89 318.01 158.7 249.86" style="fill:#82ffd8"/><polygon points="475.72 441.44 440.33 441.44 429.4 454.62 429.4 474.27 338.67 474.27 328.28 486.79 339.24 500 440.33 500 463.11 472.54 475.38 472.54 475.72 441.44" style="fill:#82ffd8"/><polygon points="242.03 50.53 397.4 50.53 409.14 36.37 423.96 36.37 423.96 12.26 411.2 12.26 401.03 0 305.32 0 289.68 18.86 262.24 18.86 242.03 50.53" style="fill:#82ffd8"/><polygon points="752.39 50.53 597.02 50.53 585.28 36.37 570.46 36.37 570.46 12.26 583.22 12.26 593.39 0 689.1 0 704.74 18.86 732.18 18.86 752.39 50.53" style="fill:#82ffd8"/></svg>