<svg id="title" xmlns="http://www.w3.org/2000/svg" xmlns:xlink="http://www.w3.org/1999/xlink" viewBox="0 0 365 94.06"><defs><filter id="luminosity-noclip" x="1493.67" y="-8732" width="74.15" height="32766" filterUnits="userSpaceOnUse" color-interpolation-filters="sRGB"><feFlood flood-color="#fff" result="bg"/><feBlend in="SourceGraphic" in2="bg"/></filter><mask id="mask" x="1493.67" y="-8732" width="74.15" height="32766" maskUnits="userSpaceOnUse"><g style="filter:url(#luminosity-noclip)"/></mask><linearGradient id="Áåçûìÿííûé_ãðàäèåíò_110" x1="1417.18" y1="2115.38" x2="1491.33" y2="2115.38" gradientTransform="translate(2985 4149.94) rotate(180)" gradientUnits="userSpaceOnUse"><stop offset="0"/><stop offset="0.01" stop-color="#030303"/><stop offset="0.7" stop-color="#b7b7b7"/><stop offset="1" stop-color="#fff"/></linearGradient><filter id="luminosity-noclip-2" x="1582.04" y="-8732" width="53.79" height="32766" filterUnits="userSpaceOnUse" color-interpolation-filters="sRGB"><feFlood flood-color="#fff" result="bg"/><feBlend in="SourceGraphic" in2="bg"/></filter><mask id="mask-2" x="1582.04" y="-8732" width="53.79" height="32766" maskUnits="userSpaceOnUse"><g style="filter:url(#luminosity-noclip-2)"/></mask><linearGradient id="Áåçûìÿííûé_ãðàäèåíò_110-2" x1="-2247.96" y1="-2691.96" x2="-2194.17" y2="-2691.96" gradientTransform="translate(3830 4728.44)" xlink:href="#Áåçûìÿííûé_ãðàäèåíò_110"/><filter id="luminosity-noclip-3" x="1347.29" y="-8732" width="89.71" height="32766" filterUnits="userSpaceOnUse" color-interpolation-filters="sRGB"><feFlood flood-color="#fff" result="bg"/><feBlend in="SourceGraphic" in2="bg"/></filter><mask id="mask-3" x="1347.29" y="-8732" width="89.71" height="32766" maskUnits="userSpaceOnUse"><g style="filter:url(#luminosity-noclip-3)"/></mask><linearGradient id="Áåçûìÿííûé_ãðàäèåíò_110-3" x1="983" y1="-2691.96" x2="1072.71" y2="-2691.96" gradientTransform="matrix(-1, 0, 0, 1, 2420, 4728.44)" xlink:href="#Áåçûìÿííûé_ãðàäèåíò_110"/><filter id="luminosity-noclip-4" x="1349.21" y="-8732" width="283.9" height="32766" filterUnits="userSpaceOnUse" color-interpolation-filters="sRGB"><feFlood flood-color="#fff" result="bg"/><feBlend in="SourceGraphic" in2="bg"/></filter><mask id="mask-4" x="1349.21" y="-8732" width="283.9" height="32766" maskUnits="userSpaceOnUse"><g style="filter:url(#luminosity-noclip-4)"/></mask><linearGradient id="Áåçûìÿííûé_ãðàäèåíò_109" x1="1350.97" y1="2029.52" x2="1635.79" y2="2029.52" gradientTransform="translate(2985 4149.94) rotate(180)" gradientUnits="userSpaceOnUse"><stop offset="0" stop-color="#fff"/><stop offset="0.07" stop-color="#d8d8d8"/><stop offset="0.16" stop-color="#a6a6a6"/><stop offset="0.26" stop-color="#797979"/><stop offset="0.37" stop-color="#545454"/><stop offset="0.47" stop-color="#353535"/><stop offset="0.58" stop-color="#1e1e1e"/><stop offset="0.7" stop-color="#0d0d0d"/><stop offset="0.83" stop-color="#030303"/><stop offset="1"/></linearGradient><filter id="luminosity-noclip-5" x="1493.67" y="2032.06" width="74.15" height="4.99" filterUnits="userSpaceOnUse" color-interpolation-filters="sRGB"><feFlood flood-color="#fff" result="bg"/><feBlend in="SourceGraphic" in2="bg"/></filter><mask id="mask-5" x="183.67" y="4.12" width="74.15" height="4.99" maskUnits="userSpaceOnUse"><g style="filter:url(#luminosity-noclip-5)"><g transform="translate(-1310 -2027.94)"><g style="mask:url(#mask)"><rect x="1493.67" y="2032.06" width="74.15" height="4.99" style="mix-blend-mode:multiply;fill:url(#Áåçûìÿííûé_ãðàäèåíò_110)"/></g></g></g></mask><linearGradient id="Áåçûìÿííûé_ãðàäèåíò_134" x1="1417.18" y1="2115.38" x2="1491.33" y2="2115.38" gradientTransform="translate(1675 2122) rotate(180)" gradientUnits="userSpaceOnUse"><stop offset="0" stop-color="#80ffb0"/><stop offset="1" stop-color="#6cffd0"/></linearGradient><filter id="luminosity-noclip-6" x="1582.04" y="2033.41" width="53.79" height="6.12" filterUnits="userSpaceOnUse" color-interpolation-filters="sRGB"><feFlood flood-color="#fff" result="bg"/><feBlend in="SourceGraphic" in2="bg"/></filter><mask id="mask-6" x="272.04" y="5.47" width="53.79" height="6.12" maskUnits="userSpaceOnUse"><g style="filter:url(#luminosity-noclip-6)"><g transform="translate(-1310 -2027.94)"><g style="mask:url(#mask-2)"><polygon points="1632.75 2039.53 1582.04 2039.53 1582.04 2033.41 1635.83 2033.41 1632.75 2039.53" style="mix-blend-mode:multiply;fill:url(#Áåçûìÿííûé_ãðàäèåíò_110-2)"/></g></g></g></mask><linearGradient id="Áåçûìÿííûé_ãðàäèåíò_134-2" x1="-2247.96" y1="-2691.96" x2="-2194.17" y2="-2691.96" gradientTransform="translate(2520 2700.5)" xlink:href="#Áåçûìÿííûé_ãðàäèåíò_134"/><filter id="luminosity-noclip-7" x="1347.29" y="2033.41" width="89.71" height="6.12" filterUnits="userSpaceOnUse" color-interpolation-filters="sRGB"><feFlood flood-color="#fff" result="bg"/><feBlend in="SourceGraphic" in2="bg"/></filter><mask id="mask-7" x="37.29" y="5.48" width="89.71" height="6.12" maskUnits="userSpaceOnUse"><g style="filter:url(#luminosity-noclip-7)"><g transform="translate(-1310 -2027.94)"><g style="mask:url(#mask-3)"><polygon points="1352.42 2039.54 1437 2039.54 1437 2033.41 1347.29 2033.41 1352.42 2039.54" style="mix-blend-mode:multiply;fill:url(#Áåçûìÿííûé_ãðàäèåíò_110-3)"/></g></g></g></mask><linearGradient id="Áåçûìÿííûé_ãðàäèåíò_134-3" x1="983" y1="-2691.96" x2="1072.71" y2="-2691.96" gradientTransform="matrix(-1, 0, 0, 1, 1110, 2700.5)" xlink:href="#Áåçûìÿííûé_ãðàäèåíò_134"/><filter id="luminosity-noclip-8" x="1349.21" y="2118.99" width="283.9" height="2.86" filterUnits="userSpaceOnUse" color-interpolation-filters="sRGB"><feFlood flood-color="#fff" result="bg"/><feBlend in="SourceGraphic" in2="bg"/></filter><mask id="mask-8" x="39.21" y="91.06" width="283.9" height="2.86" maskUnits="userSpaceOnUse"><g style="filter:url(#luminosity-noclip-8)"><g transform="translate(-1310 -2027.94)"><g style="mask:url(#mask-4)"><polygon points="1633.11 2121.85 1630.96 2118.99 1357.82 2118.99 1349.21 2121.44 1633.11 2121.85" style="mix-blend-mode:multiply;fill:url(#Áåçûìÿííûé_ãðàäèåíò_109)"/></g></g></g></mask><linearGradient id="Áåçûìÿííûé_ãðàäèåíò_133" x1="1350.97" y1="2029.52" x2="1635.79" y2="2029.52" gradientTransform="translate(1675 2122) rotate(180)" gradientUnits="userSpaceOnUse"><stop offset="0" stop-color="#6cffd0"/><stop offset="0.03" stop-color="#6dffce"/><stop offset="0.31" stop-color="#78ffbd"/><stop offset="0.61" stop-color="#7effb3"/><stop offset="1" stop-color="#80ffb0"/></linearGradient></defs><rect x="15" y="14.66" width="332.41" height="73.69" style="fill:#6cffd0;opacity:0.2"/><path d="M1325.6,2041.94h331.8a.63.63,0,0,1,.6.65v73.69a.64.64,0,0,1-.6.66H1325.6a.64.64,0,0,1-.6-.66v-73.69A.63.63,0,0,1,1325.6,2041.94Zm331.21,1.31H1326.19v72.37h330.62Z" transform="translate(-1310 -2027.94)" style="fill:#6cffd0"/><polygon points="326 90.99 350.54 90.99 350.54 11.59 327.49 11.59 330.56 5.44 355.15 5.44 355.15 94.06 329.08 94.06 326 90.99" style="fill:#6cffd0"/><polygon points="42.98 90.99 12.45 90.99 12.45 11.59 35.5 11.59 32.42 5.44 7.83 5.44 7.83 94.06 31.91 94.06 42.98 90.99" style="fill:#6cffd0"/><path d="M1490.46,2027.94h181c.31,0,.57.17.57.38v27.23c0,.21-.26.39-.57.39s-.57-.18-.57-.39v-26.84H1491v14.09c0,.21-.25.39-.57.39s-.57-.18-.57-.39v-14.48C1489.89,2028.11,1490.15,2027.94,1490.46,2027.94Z" transform="translate(-1310 -2027.94)" style="fill:#6cffd0"/><g id="screen-title-circles"><circle id="screen-title-circle-11" cx="341.7" cy="83" r="2.88" style="fill:#6cffd0"/><circle id="screen-title-circle-10" cx="334.5" cy="83" r="2.88" style="fill:#6cffd0;opacity:0.9"/><circle id="screen-title-circle-9" cx="327.29" cy="83" r="2.88" style="fill:#6cffd0;opacity:0.8"/><circle id="screen-title-circle-8" cx="320.09" cy="83" r="2.88" style="fill:#6cffd0;opacity:0.7000000000000001"/><circle id="screen-title-circle-7" cx="312.89" cy="83" r="2.88" style="fill:#6cffd0;opacity:0.6000000000000001"/><circle id="screen-title-circle-6" cx="305.68" cy="83" r="2.88" style="fill:#6cffd0;opacity:0.5"/><circle id="screen-title-circle-5" cx="298.48" cy="83" r="2.88" style="fill:#6cffd0;opacity:0.4"/><circle id="screen-title-circle-4" cx="291.27" cy="83" r="2.88" style="fill:#6cffd0;opacity:0.30000000000000004"/><circle id="screen-title-circle-3" cx="284.07" cy="83" r="2.88" style="fill:#6cffd0;opacity:0.2"/><circle id="screen-title-circle-2" cx="276.87" cy="83" r="2.88" style="fill:#6cffd0;opacity:0.1"/><circle id="screen-title-circle-1" cx="269.66" cy="83" r="2.88" style="fill:#6cffd0;opacity:0.05"/></g><path d="M1313.28,2030.29h126.84a.29.29,0,0,1,.28.29v5.34H1490a.29.29,0,0,1,0,.58h-49.85a.29.29,0,0,1-.28-.29v-5.34H1313.56v70.91a.29.29,0,0,1-.28.29.28.28,0,0,1-.28-.29v-71.2A.28.28,0,0,1,1313.28,2030.29Z" transform="translate(-1310 -2027.94)" style="fill:#6cffd0"/><g id="screen-circles"><circle cx="361.13" cy="24.89" r="3.87" style="fill:#6cffd0"/><path d="M1310,2102.8a3.09,3.09,0,1,1,3.09,3.08A3.09,3.09,0,0,1,1310,2102.8Z" transform="translate(-1310 -2027.94)" style="fill:#6cffd0"/><path d="M1572.43,2032.83a1.54,1.54,0,1,1,1.54,1.53A1.54,1.54,0,0,1,1572.43,2032.83Z" transform="translate(-1310 -2027.94)" style="fill:#6cffd0"/></g><polygon points="263.68 5.3 264.26 5.3 264.26 11.74 179.96 11.74 179.96 11.16 263.68 11.16 263.68 5.3" style="fill:#6cffd0"/><g style="mask:url(#mask-5)"><rect x="183.67" y="4.12" width="74.15" height="4.99" style="fill:url(#Áåçûìÿííûé_ãðàäèåíò_134)"/></g><g style="mask:url(#mask-6)"><polygon points="322.75 11.6 272.04 11.6 272.04 5.47 325.82 5.47 322.75 11.6" style="fill:url(#Áåçûìÿííûé_ãðàäèåíò_134-2)"/></g><g style="mask:url(#mask-7)"><polygon points="40.42 11.6 127 11.6 127 5.47 37.29 5.47 40.42 11.6" style="fill:url(#Áåçûìÿííûé_ãðàäèåíò_134-3)"/></g><g style="mask:url(#mask-8)"><polygon points="323.11 93.91 320.96 91.06 47.82 91.06 39.21 93.5 323.11 93.91" style="fill:url(#Áåçûìÿííûé_ãðàäèåíò_133)"/></g></svg>