<svg id="Species_Blueprint" data-name="Species Blueprint" xmlns="http://www.w3.org/2000/svg" xmlns:xlink="http://www.w3.org/1999/xlink" viewBox="0 0 1336.63 1735.57"><defs><linearGradient id="linear-gradient" x1="128.75" y1="1802.34" x2="1207.88" y2="-66.77" gradientUnits="userSpaceOnUse"><stop offset="0" stop-color="#45abd7"/><stop offset="1" stop-color="#015e8f"/></linearGradient></defs><g id="species_blueprint-2" data-name="species_blueprint"><rect x="1.57" y="1.57" width="1333.48" height="1732.43" rx="12" style="stroke:#000;stroke-miterlimit:10;stroke-width:3.1413043995482326px;fill:url(#linear-gradient)"/><line x1="6.28" y1="338.51" x2="1328.99" y2="338.51" style="fill:#fff;stroke:#fff;stroke-miterlimit:10;stroke-width:1.5706521997741163px;opacity:0.21"/><line x1="6.28" y1="404.75" x2="1328.99" y2="404.75" style="fill:#fff;stroke:#fff;stroke-miterlimit:10;stroke-width:1.5706521997741163px;opacity:0.21"/><line x1="6.28" y1="471" x2="1328.99" y2="471" style="fill:#fff;stroke:#fff;stroke-miterlimit:10;stroke-width:1.5706521997741163px;opacity:0.21"/><line x1="6.28" y1="537.24" x2="1328.99" y2="537.24" style="fill:#fff;stroke:#fff;stroke-miterlimit:10;stroke-width:1.5706521997741163px;opacity:0.21"/><line x1="6.28" y1="603.49" x2="1328.99" y2="603.49" style="fill:#fff;stroke:#fff;stroke-miterlimit:10;stroke-width:1.5706521997741163px;opacity:0.21"/><line x1="6.28" y1="669.73" x2="1328.99" y2="669.73" style="fill:#fff;stroke:#fff;stroke-miterlimit:10;stroke-width:1.5706521997741163px;opacity:0.21"/><line x1="6.28" y1="735.98" x2="1328.99" y2="735.98" style="fill:#fff;stroke:#fff;stroke-miterlimit:10;stroke-width:1.5706521997741163px;opacity:0.21"/><line x1="6.28" y1="802.22" x2="1328.99" y2="802.22" style="fill:#fff;stroke:#fff;stroke-miterlimit:10;stroke-width:1.5706521997741163px;opacity:0.21"/><line x1="6.28" y1="868.46" x2="1328.99" y2="868.46" style="fill:#fff;stroke:#fff;stroke-miterlimit:10;stroke-width:1.5706521997741163px;opacity:0.21"/><line x1="6.28" y1="934.71" x2="1328.99" y2="934.71" style="fill:#fff;stroke:#fff;stroke-miterlimit:10;stroke-width:1.5706521997741163px;opacity:0.21"/><line x1="6.28" y1="1000.95" x2="1328.99" y2="1000.95" style="fill:#fff;stroke:#fff;stroke-miterlimit:10;stroke-width:1.5706521997741163px;opacity:0.21"/><line x1="6.28" y1="1067.2" x2="1328.99" y2="1067.2" style="fill:#fff;stroke:#fff;stroke-miterlimit:10;stroke-width:1.5706521997741163px;opacity:0.21"/><line x1="6.28" y1="1133.44" x2="1328.99" y2="1133.44" style="fill:#fff;stroke:#fff;stroke-miterlimit:10;stroke-width:1.5706521997741163px;opacity:0.21"/><line x1="6.28" y1="1199.69" x2="1328.99" y2="1199.69" style="fill:#fff;stroke:#fff;stroke-miterlimit:10;stroke-width:1.5706521997741163px;opacity:0.21"/><line x1="6.28" y1="1265.93" x2="1328.99" y2="1265.93" style="fill:#fff;stroke:#fff;stroke-miterlimit:10;stroke-width:1.5706521997741163px;opacity:0.21"/><line x1="6.28" y1="1332.18" x2="1328.99" y2="1332.18" style="fill:#fff;stroke:#fff;stroke-miterlimit:10;stroke-width:1.5706521997741163px;opacity:0.21"/><line x1="6.28" y1="1398.42" x2="1328.99" y2="1398.42" style="fill:#fff;stroke:#fff;stroke-miterlimit:10;stroke-width:1.5706521997741163px;opacity:0.21"/><line x1="6.28" y1="1464.67" x2="1328.99" y2="1464.67" style="fill:#fff;stroke:#fff;stroke-miterlimit:10;stroke-width:1.5706521997741163px;opacity:0.21"/><line x1="6.28" y1="1530.91" x2="1328.99" y2="1530.91" style="fill:#fff;stroke:#fff;stroke-miterlimit:10;stroke-width:1.5706521997741163px;opacity:0.21"/><line x1="6.28" y1="1597.16" x2="1328.99" y2="1597.16" style="fill:#fff;stroke:#fff;stroke-miterlimit:10;stroke-width:1.5706521997741163px;opacity:0.21"/><line x1="6.28" y1="73.53" x2="1328.99" y2="73.53" style="fill:#fff;stroke:#fff;stroke-miterlimit:10;stroke-width:1.5706521997741163px;opacity:0.21"/><line x1="6.28" y1="7.29" x2="1328.99" y2="7.29" style="fill:#fff;stroke:#fff;stroke-miterlimit:10;stroke-width:1.5706521997741163px;opacity:0.21"/><line x1="6.28" y1="139.77" x2="1328.99" y2="139.77" style="fill:#fff;stroke:#fff;stroke-miterlimit:10;stroke-width:1.5706521997741163px;opacity:0.21"/><line x1="6.28" y1="206.02" x2="1328.99" y2="206.02" style="fill:#fff;stroke:#fff;stroke-miterlimit:10;stroke-width:1.5706521997741163px;opacity:0.21"/><line x1="6.28" y1="272.26" x2="1328.99" y2="272.26" style="fill:#fff;stroke:#fff;stroke-miterlimit:10;stroke-width:1.5706521997741163px;opacity:0.21"/><line x1="6.28" y1="1663.4" x2="1328.99" y2="1663.4" style="fill:#fff;stroke:#fff;stroke-miterlimit:10;stroke-width:1.5706521997741163px;opacity:0.21"/><line x1="6.28" y1="1729.64" x2="1328.99" y2="1729.64" style="fill:#fff;stroke:#fff;stroke-miterlimit:10;stroke-width:1.5706521997741163px;opacity:0.21"/><line x1="1131.95" y1="7.85" x2="1131.95" y2="1735.57" style="fill:#fff;stroke:#fff;stroke-miterlimit:10;stroke-width:1.5706521997741163px;opacity:0.21"/><line x1="1065.71" y1="7.85" x2="1065.71" y2="1735.57" style="fill:#fff;stroke:#fff;stroke-miterlimit:10;stroke-width:1.5706521997741163px;opacity:0.21"/><line x1="999.46" y1="7.85" x2="999.46" y2="1735.57" style="fill:#fff;stroke:#fff;stroke-miterlimit:10;stroke-width:1.5706521997741163px;opacity:0.21"/><line x1="933.22" y1="7.85" x2="933.22" y2="1735.57" style="fill:#fff;stroke:#fff;stroke-miterlimit:10;stroke-width:1.5706521997741163px;opacity:0.21"/><line x1="866.97" y1="7.85" x2="866.97" y2="1735.57" style="fill:#fff;stroke:#fff;stroke-miterlimit:10;stroke-width:1.5706521997741163px;opacity:0.21"/><line x1="800.73" y1="7.85" x2="800.73" y2="1735.57" style="fill:#fff;stroke:#fff;stroke-miterlimit:10;stroke-width:1.5706521997741163px;opacity:0.21"/><line x1="734.48" y1="7.85" x2="734.48" y2="1735.57" style="fill:#fff;stroke:#fff;stroke-miterlimit:10;stroke-width:1.5706521997741163px;opacity:0.21"/><line x1="668.24" y1="7.85" x2="668.24" y2="1735.57" style="fill:#fff;stroke:#fff;stroke-miterlimit:10;stroke-width:1.5706521997741163px;opacity:0.21"/><line x1="602" y1="7.85" x2="602" y2="1735.57" style="fill:#fff;stroke:#fff;stroke-miterlimit:10;stroke-width:1.5706521997741163px;opacity:0.21"/><line x1="535.75" y1="7.85" x2="535.75" y2="1735.57" style="fill:#fff;stroke:#fff;stroke-miterlimit:10;stroke-width:1.5706521997741163px;opacity:0.21"/><line x1="469.51" y1="7.85" x2="469.51" y2="1735.57" style="fill:#fff;stroke:#fff;stroke-miterlimit:10;stroke-width:1.5706521997741163px;opacity:0.21"/><line x1="403.26" y1="7.85" x2="403.26" y2="1735.57" style="fill:#fff;stroke:#fff;stroke-miterlimit:10;stroke-width:1.5706521997741163px;opacity:0.21"/><line x1="337.02" y1="7.85" x2="337.02" y2="1735.57" style="fill:#fff;stroke:#fff;stroke-miterlimit:10;stroke-width:1.5706521997741163px;opacity:0.21"/><line x1="270.77" y1="7.85" x2="270.77" y2="1735.57" style="fill:#fff;stroke:#fff;stroke-miterlimit:10;stroke-width:1.5706521997741163px;opacity:0.21"/><line x1="204.53" y1="7.85" x2="204.53" y2="1735.57" style="fill:#fff;stroke:#fff;stroke-miterlimit:10;stroke-width:1.5706521997741163px;opacity:0.21"/><line x1="138.28" y1="7.85" x2="138.28" y2="1735.57" style="fill:#fff;stroke:#fff;stroke-miterlimit:10;stroke-width:1.5706521997741163px;opacity:0.21"/><line x1="72.04" y1="7.85" x2="72.04" y2="1735.57" style="fill:#fff;stroke:#fff;stroke-miterlimit:10;stroke-width:1.5706521997741163px;opacity:0.21"/><line x1="5.79" y1="7.85" x2="5.79" y2="1735.57" style="fill:#fff;stroke:#fff;stroke-miterlimit:10;stroke-width:1.5706521997741163px;opacity:0.21"/><line x1="1330.69" y1="7.85" x2="1330.69" y2="1735.57" style="fill:#fff;stroke:#fff;stroke-miterlimit:10;stroke-width:1.5706521997741163px;opacity:0.21"/><line x1="1264.44" y1="7.85" x2="1264.44" y2="1735.57" style="fill:#fff;stroke:#fff;stroke-miterlimit:10;stroke-width:1.5706521997741163px;opacity:0.21"/><line x1="1198.2" y1="7.85" x2="1198.2" y2="1735.57" style="fill:#fff;stroke:#fff;stroke-miterlimit:10;stroke-width:1.5706521997741163px;opacity:0.21"/><g id="blueprint-lines" style="opacity:0.6"><ellipse cx="-1070.59" cy="1670.8" rx="5.13" ry="3.05" transform="translate(-71.85 -1195.51) rotate(-64.32)" style="fill:none;stroke:#fff;stroke-miterlimit:10;stroke-width:3.1413043995482326px"/><ellipse cx="-1145.04" cy="1671.98" rx="2.82" ry="4.75" transform="translate(1177.46 -1512.23) rotate(-26.41)" style="fill:none;stroke:#fff;stroke-miterlimit:10;stroke-width:3.1413043995482326px"/><path d="M-964,1475.79s-4.61,18-3.71,33.21a106,106,0,0,0,7.58,32.59,105.77,105.77,0,0,0,3.71-33.22A106,106,0,0,0-964,1475.79Z" transform="translate(2040.57 -1177.43)" style="fill:none;stroke:#fff;stroke-miterlimit:10;stroke-width:3.1413043995482326px"/><path d="M-1268.92,1482.35s-4.9,18-4.26,33.15a106.19,106.19,0,0,0,7,32.7,105.64,105.64,0,0,0,4.26-33.15A106.19,106.19,0,0,0-1268.92,1482.35Z" transform="translate(2040.57 -1177.43)" style="fill:none;stroke:#fff;stroke-miterlimit:10;stroke-width:3.1413043995482326px"/><path d="M-1756.09,2058.46a.11.11,0,0,1,0,.05v-.05Z" transform="translate(2040.57 -1177.43)" style="fill:none;stroke:#fff;stroke-miterlimit:10;stroke-width:3.1413043995482326px"/><path d="M-772.69,1967c-1.53-5.59-6.2-8.25-13-7.47-12.52,1.38-13.82,15.1-24.68,19.79-33.72,12.41-28.78-34.79-3.08-42.4,20.81-11.87-5.59-35.06-17.89-16.56-4.82,17.09-6.67,34.16-25.68,43.69-14.24,8-20.1-7.23-17.38-18.3-1-26.34-49.31-11-26.17,9.13,48.34,20.1,19.28,48.4-10.27,68.26-38.14,22.65-1.71-50.72-.42-63.35,1.31-7.06-3.8-12-12-12.71-28.34-3.55-44.77,28.76-70.87,29.29-.77-1.35-1.69-2.63-2.52-3.93l0,0c-20.71-14-10.83-39-4.08-60-12.26,8-27.86,8.9-41.82,4.87,1.44-4.39,54.36,4.56,43.46-28.29-12.54,12-31.45,11.75-47.38,7.33-4.37-4.34,34.47,3.93,46.8-12.71a57.72,57.72,0,0,0-3.47-14.39c-11.36,15.5-37.11,18.92-53.25,8.76,13.31-1.07,39.65,6.48,51.31-13.56-6.24-13-10.86-31.19-5.71-45-7.58-6.48-17.49-9-25.33-15.07-15.79-15.28-20.3-20.45,4.71-2.4,13.27,8.34,29.17,14.3,42.24,21.85,18.92,13.41,40.15,35.13,64.41,18.76,33.11-20.24,38.77-61.7,66.5-86.55,20.72-16.57,43.21-31.12,67.47-42.23,9.85-8.33-6-20.83-14.12-12.17-9.32,13.53-15.59,27.94-35.65,28.87-8,1-13.35-2.61-13.86-9.62-2.76-28.67,23.89-36.17,19.78-52.37-5.1-16.12-29.58-2.22-24.38,11.09,8.82,17.62-13.56,67.21-28.72,31.8-2.13-5.92.24-11.56,2.32-17.19,4.68-10.42-12.85-19.72-20.43-12.4-4.74,4-3.91,11.32.89,16,11.49,10.91,25,43.66,5.66,51.08-11.65,7.59-27.44-17.68-34.45-1-2.18,10.3,11.41,8.69,18.18,7.71,46.38-1.59,9.51,49.37-10.36,61.79-26.4,14.58-41.69-24.61-63.49-33.63-21.24-9.27-25.52-33.45-48.06-37.93,3-2.74,10.5-6,12.64-9.65,66.78-9.71,80.53-67.12,102.26-118.2a104.88,104.88,0,0,0,12.07-54.28c3.23-44.6,9.46-104-57.22-98.77-67.68-2.86-107.52,70.59-36.93,101.66-38.94-5.08-52-50-31.08-77.7-10.17-1.47-14.68-3.06-24.8-3.77,3.37-6.74,17.38-41.07,20.13-50.86,160.21-282.62,44.64-121.91-30.22,51.1a406.43,406.43,0,0,0-81.93,3.5c-26.94-77.08-80.58-142.85-116.87-215.29,1.87,31.5,24.74,57.62,38.74,85.54,25.6,41,50.14,85.71,67,131.52-8.75,1.49-17.47,3.29-26.19,5.31,15.6,19.2,8.6,50.17-13.43,64,39.21-32.09,7.84-87.66-38.62-88.35-23.39-.11-53.94-2.73-67.86,18.85-13.45,17-9.13,35.4-6.29,54.34-5.48,37,7.7,72.13,28.61,103,2.74,4.52,22,54.26,49.81,71.53,28.49,25.59,41.39,16.48,74.42,27.33-29.46-2.79-37.5,13.06-45.53,37.9-15.09,11.17-31.79,21-44.19,34.89-14.35,18-33.73,14-46.74-3-15.27-17-36.5-51,3.07-50.14,6.77,1,20.36,2.59,18.18-7.7-1.52-8.64-13.24-5.85-18-1.45-35,17.88-29.09-34.43-10.76-48.6,17.79-20.72-24.85-26-19.53-3.62,8.71,11.66-3.06,39.85-18.27,25.7-20.78-23.69,3.64-48.32-17.82-57.83-14.48-5.58-20.39,14-10.23,21.52,12.08,9.76,27.77,47.61,1.46,46.9-20-.91-26.37-15.35-35.65-28.87-8.11-8.63-24,3.82-14.12,12.17,29.93,15.5,63.58,32,82.55,60.28,70.42,126,75.06,62.93,173.74,17.91-7.29,11.84-22.11,17.39-34.2,23.94-1.86.94,2.14.39.23,1.36,8.06,14.63,4.95,12.94,14.86,28,3,8.84,2.38,9,.64,15.23,9.5,8.61,30.87,7.92,43.2,9.2,5.22-.26-.59,4.21-14.44,4.21-7-.43-25.13-2.43-30.28-8.62-1.18,3.41-4,13.2-4.12,13.83,6.94,6,16.4,7.77,25.2,9.73,4.24.83,22.71.59,20.59,2.64-13.17,5.62-34.35.21-46.46-7.11a33.64,33.64,0,0,0,3.61,16.93c12.65,3.76,25.76,9,39.21,8.21,3.64-.46-3.2,6.13-16.65,2.84-6.64-1.63-13.28-3.3-19.79-5.38,10.21,20.91,7.56,46.41-9.74,63-25.49-3.79-42.31-31.05-70-27.59-8.11,1-13,6.09-11.39,13.09,4.27,21.46,21.82,40.38,18.62,62.94-2.21,18.44-54.75-25.73-53.54-35.13-10.46-27.48,48.15-29.56,23.47-53-8.23-6.39-28,.27-26,12.36,3.2,11-2,26.34-16.58,18.85-19.39-8.88-22-25.89-27.55-42.81-13-18-38.57,5.87-17.16,17.13,26,6.73,33,53.75-1.25,42.47-11-4.32-12.93-18-25.51-19-6.88-.56-11.43,2.25-12.72,7.89-3.69,17.19,18.59,12.12,29,15.38,15.57,5.19,31,10.75,46.3,16.45,20.12,6.25,151.81,128.42,153.08,70.93-4.85-10.78-53.23-87.07-11.06-54.65a101.27,101.27,0,0,1,19.69,16.18h0c8.89,9.56,17.7,19.09,26.35,28.82,2,2.33-39-30-44.63-36-.79,1.26-7.43,0,3.54,18.71,36.81,42.76-4,43.11,3.89,97.77-12.2,4.55-72.91,34.11-100.24,64.86-44.69-10.54-63.46-22-112.81,6.32-15.64-12.79-54.44-32.94-92.1-30.09l-46.68-26.75c-6.13-46.59-64.45-60.56-74.28-107.09-5.4-49.21.6-51.54-36.78-91.65-41.41-78.8,12.45-71.32-59.28-159.24-7.07-12.8,2.44-46.29,1.92-64-.82-27.55-14.91-44.82-18.31-63.49-3.16-17.32-3.44-53,.75-70.13,3.6-11.36,7.83-18.78,8.06-29.32,1.8-14.38-9.61-37.12-15.19-57.56-8-23.85,4.59-58.82,4.83-79.93-1.84-14.11-14.52-53-28.56-77.25-36.42-46.2,8.06-97.26-24.58-123.36l-1.42.59c3.34,6.79,9.66,14,6.35,21.08-11.44,25.61-7.37,58.12-20.35,82.42-4.39-2.27-8.49-5.36-7.26-10.7,2.94-32.49-16-67.63,3.72-97.42-26.25,4.47-18,55.26-24.52,75.4-6.07,28.33-6.67,58.58-21.1,84,6.31,5.32,22.11,13.27,18.18,22.07-58.92-55.32-69.5-36.78-100.52,25.62-17.43,29.11-35.93,12-43.95,15.67-9.41-1.09-13.13,16.18-2.32,15.64,2.3-.45,5.09-.55,6.4-2.79,9-6.08,21.41-9.31,25,5.58l.14-.09c.33,2.1-23.25,21.82-26.84,23.16-4.75,1.46-4.37,11.87-4,16.31-3.56,5.74-4.08,19.44-1.22,24.65-1.72,16.53,10.36.84,16.1-2.21.66.13,14.2-5.8,16-7a16,16,0,0,1-.35,6.36l-.21.19c-3,10.79-13.52,25.46-23.74,28.79-6.94,1-13.89,21.63-6.09,24.57,10.47,3.95,15.34-31.07,36.26-41.83,39.4-23,40.55-111.2,86.08-58.24-12.42,52.53,26,83.07,23.77,100.38-6.42,11.17-5,30.2-5,45.3,18.15,3.51,38.17,10.77,52.25,22.54h0c4.07,3.06,16.79,14.68,8.91,11.71-24.35-16.85-50.17-32.87-81.11-30.28-14.07,2.6-20.56,18.82-30.49,27.73-31.34,35.08-25.25,70.52-85.82,55-8.28.41-12.22,26.7-.63,23.83,12.18-7.33,24.42-21.59,36.58-7.8-11.66,15-44.55,8.26-45.86,20.27-1.42,16.67-.78,20.26,15.24,7.09,9.76-7,24.81-17.38,34.11-20.59,1,5.81-1.2,12.27-4.88,17.06l.86-.56c-15.76,31.06-35.07,23.33-42.2,43.23-7.76,20.57,12.75,24.6,19.47,4.53,13.48-37.3,42.29-33.7,56.74-68.58,23.62-19.8,30.23-71.68,67.82-69.4.22,16.72,6.18,49.52,10.33,70.4-54.68-18.85-60.67,12.55-82.41,50.71-6,20.58-26.12,25.89-32.33,45.59-10.42,15.72-45.89,4.51-41.12,24.56,1.55,11.85,17.52-7.8,22.32-8.88.92.17,19.78-7.5,22.3-9-1.42,30.6-47.43,19.5-42.88,37.65-2.35,16.36,3.81,11.75,12.71.89a138.83,138.83,0,0,1,26.2-22c-15.65,31.17-34.65,23.34-41.64,43.24-7.67,20.48,12.52,24.66,19.21,4.53,8.9-23.83,25.86-34.72,42.16-46.33,4.7-3.55,12.83-20,21.21-37a279.36,279.36,0,0,0,21.14-26.72c14.33-22.83,32.11-40.91,57.38-17.22,1.42,8.24-5.17,72.39,11.23,96.11,22.77,32.95,17.8,89.92,18.22,90.07,16.94,4.67,46.2,8.49,51.45,25.36-14.73-11.32-31.37-15.9-49.31-20.12-17.38-11.7-38.53-21.63-60.39-19.11-50.46,29-50.68,92.2-122.7,73.85-4.71.91-8,6-8.22,11.63,1.88,25,30.59-18.08,45.16,1.31,14.06,14.91-5.31,16.75-17.45,19.79-10.19,5.51-30.68-1.67-31.09,12.85-.83,3.7-1,8.7,1.58,9.11,3.1.48,6.42-4.46,11.8-8.38,8.37-8,25.1-9,35-13.88-15.36,24.76-35.8,19.05-43.83,35.68-8,18.27,14.23,19.21,20.22,3.74,9.3-19.73,28-29.08,44.38-38.23,17.89-22.61,46.72-55.51,74.73-71.9,20.72.59,35.36,16.43,53.21,24.83,13.85,8,23,36.72,21.78,44.14a.09.09,0,0,1,0-.05l0,.11s0,0,0-.06a3.07,3.07,0,0,0-.07.42c-29.64-11.53-74.37-32.5-95.07,2.66-40.93,40.4-50.49,82.56-114.39,86.38-3.84.91-4.12,4-4.91,9.58-1.29,7.78,7.46,2.52,11.29,0,3-2,14.21-4.58,16.17-5.18.69.33,16.46-3.05,18.66-4a21,21,0,0,1-1.83,7.4c-10.31,7.24-28.88,10.39-40.46,11.76.28.41-4.28-1.19-4.79.23-1.39,3.94-2.47,14.35,2.28,11,10.87-9.76,19.94-6.61,34.17-11-6.67,6.7-15.44,15.74-23.3,15.81-11.28.23-18.24,26.57-10.7,32.51,3.74,2.92,9-6.43,13.11-14.12,8.8-16.53,22.81-25.4,33.65-30.7,1.25-.62,7.51-1.28,10.93-7.76,12.85-15,48.4-48.1,65.08-60,10.87-10.11,20.86-23.51,37.12-24.9,131.24,35.48,43.88,101.09,204.76,171.82,6-5.22,11.56-14.57,16.34-21.18,2.72-3.74,16.8-7.37,13.23-5-6.6,4.62-15.61,21.18-17.81,25.74-15.09,17-89.77,42.84-75.37,78.62,17.5,30.45,45.51,46,39.5,93.3-5.53,8.05,9.79,14.12,13.93,8.4,4.66-4.81-1.34-9.07-3.71-13.12-.91-4.55-1.43-11.14-1.66-12.61.44-.59-.49-16.15-1.08-18.39a23,23,0,0,1,7.28,2.92c5.15,10.87,4,34.51,3.47,35.46h0c-4.56,7.55,9.16,13.14,11.58,6,1.54-3.14-1.32-21.48-8.66-36.41,7.75,7.93,18.07,20.43,16.9,30-1.55,10.81,17.79,9.8,24.42,9.51,5.84-6.7-25.92-16.84-31.24-45.82-1.9-15.1-13.35-12-29.95-31.46-33.34-35.25,45.27-55.83,63-71.36,4.4,3.44,19,8.51,24.31,10.66-8.8,17.61-4.32,53.43-.21,60.46,9.68,28.41-33,51.39-22.3,73.34,5.86,3.8,19.16,1.15,19.82-2.16.43-2.17-3.83-7.77-5-10.78-3.93-10.53,15.2-38,15.62-35.27.36,2.32,1.74,22.29,1.73,22.32-2.3,10.79-14.34,34.75,11.35,27.17,13.33-.22-.66-12.16-1.44-16.38.54-.41.24-25.86,0-28,16.9,7.89,19.05,26.88,14.86,41-3.21,5,13.6,5.6,17.34,2.16,4.15-1.76-6.65-8.49-5-17.26,3.76-55.94-54.09-41.52-31.75-116.1,2.05-9,2.62-18.61,9.84-25.53,6-6.26,32.7-29.52,34.83-28.63-18.3,29-33.38,24.83-40,61.41h0c-2.13,13-6.33,30.71-.16,39.83,5.61,7.87,17.35,28,42.12,38.82,4.76,2.07,4.88,9.14,8.77,12.33,2.8,11.1,0,19.68-4.52,29.57-.55,9.6,26.52,5.48,25.48,3.4-.93-13.17-23.17-18.53-5.48-29.13,7.63,3.46,12.47,15.75,13.36,23.27-4.06,8.76,10.74,12.54,17.08,9.89,5.11-2.64-12.35-17.53-13.15-19.54.21-.64-8-14-9.62-15.84,16,.24,29.61,11.48,36.73,24.93.89,3.2,4.1,8.71,9.75,10.56,6.6,2.16,18,2.33,19.33-2.2,1.1-3.87-8-9.27-11.27-11.81-10.9-8.58-21-18.83-34.07-32-5.35-4.67-45-14.23-64.78-44.43-2.22-3.39,4.81-13.73,5-24.23,34.15,12.49,68.62,28.92,98.85,44.75,16.09,9.75,13.56,42,16.9,56.25.8,3.45,4.84,10.29,8.6,11.45,3.24,1,22.25-2,8.63-10.17-10.06-6.76-9.81-12.63-1.28-17.73.39-.24,3.94,2.88,6,4.91,6.22,6.85,4.54,12.38,7.73,19.81,2,3,5.55,2.83,12,2.7,12.37-.93-7.74-11.43-9.15-14.79.19-.61-7.71-13.1-9.32-14.78,2.22-.22,27.06,6.79,30.33,8.53,8.48,4.52,16.13,9.13,17.82,14.44,1.84,6.82,29.09,12.59,33.33,6.54a32.15,32.15,0,0,0,10.68,2.12c35.21-1.84-23.28-20.73,3-35.86,19.6,12.05,5,38.66,27.94,34.6,13.53-1.32-8.44-14.39-9.91-18.67.21-.76-8.36-16.54-10.11-18.66,19.09.09,45.16,13.87,52.42,28.91,1.1,4.08,7.56,7.53,16.12,10,21.82,6.75,30.29-9.08,5.59-15.85-63.09-17.69-62.09-73.62-102.41-91.9h0c-39.39-21.8,13.87-50.77,30.45-68.18,2.9-3-4.69,13.35-6.55,14.91-63.6,48.49-15.08,36.78,14.18,76.81,78.27,6.41,166.22-17.09,189.1-90.06,1.44-1.2-59.26-17.85-22.74-14.44,31.8,5.59,61.05,46.39,85.73,60.41,30.1,18.88,12.3,32.49-12.61,42.16-34,29.12-43.61,60.37-92.52,72.6-10.52,2.49-17.51,7.83-15,11.63,3.79,7.35,34.79.88,36.72-6.66,4.59-13.53,39.26-23,52.5-25-1.76,1.83-10.37,15.46-10.16,16.12-1.59,3.78-23.43,15-10,16.12,22.73,3.55,8.69-19.86,28-29.9,26.23,13.22-32.31,29.28,2.9,30.91,20.86-2,17.54-6.12,11.56-19.34.45-5.11,4.22-46.78,21.37-55,22.34-10.15,50.95-36.65,27.2-59-18-12.06-73.79-65.21-73-101.77,1-19.09,20.89-24.73,22-51,1-23.81-7.43-38.82-9.91-51.77-4.09-21.38,7.44-32.35,5-56.08-9.63,10.34-33.07,39.85-46.12,39.4,14.49-6.27,93.27-110.28,71.89-46.6-6.33,14.48-15.35,28-21.27,42.69,6.43,56,127.46-66.66,149.88-75.9,15.08-6.2,30.24-12.26,45.57-18C-790.69,1979.69-768.29,1984.08-772.69,1967Zm-197.82-410.85c-23.15-16.63-34.54-53.69-16.35-76.78-17.88,31.83,2.23,81.47,42.8,83.25C-954.18,1564.8-962.78,1561.52-970.51,1556.15Zm35.42-83.35c41.12,20.61,27.27,102.31-24.57,84C-1008.53,1537.4-997.21,1441.28-935.09,1472.8Zm-49-2.29c-31.42,24.89-16.73,84.68,25.05,95.75C-1002.07,1567.43-1020.89,1485.47-984.08,1470.51Zm-309.31,94c-31.5-17-32.29-80.78,11.81-88.89C-1214,1465.72-1232.07,1593.77-1293.39,1564.53Zm57.91-46.92c-.73-13.1-4.29-25.29-13.52-36.12,29,25.71,18.07,88.57-25.69,90.46C-1246.64,1567.42-1234.18,1540.83-1235.48,1517.61Zm11.71,9.18c-2.48,27.85-21.16,45.59-34.53,46.31,39.67-19.45,42.38-74.08,6.25-97.85C-1235.36,1479.43-1221.85,1505.19-1223.77,1526.79Zm-743-9.52c6.28-8.55,14.44-17.33,22.36-23.23-4.4,8.82-11.43,19.89-19.26,23.94C-1964.72,1517.73-1965.75,1517.43-1966.8,1517.27Zm17.46,16.92c-4.86,2.56-8.73,4-12.7,4.18,1.73-3.8,2.75-8.35,4.62-12,4.83-2.29,9.27-1,13.35,3.35C-1943.8,1530-1947.16,1532.64-1949.34,1534.19Zm97.88-73.47c-45-44.25-61.76,37.23-89.06,58.24-4.52.48-9,.83-13.53,1.16,7.18-11.66,15.09-17.47,23.78-24.86,6.78-6,23.47-56.29,31.65-65.43,17-18.88,25.5-18.69,42.33-.82,5.31,7.5,6.91,30.3,8.16,34.55C-1849.22,1462.6-1850.34,1461.66-1851.46,1460.72Zm582.17,952.51c-.08,4.09-3.93,7.79-4.65,12-45.45-11.47-57.74-33.41-87.23-64.78,17.19-.22,38-2.35,53.07-10.29-12.45-13-26-29.43-25-48.15h0c-.77-17.21,22.43-55.75,39.84-52.72-17,15.75-37.06,36.15-32.19,60.82C-1310.59,2363.28-1253.38,2336.83-1269.29,2413.23Zm128.94-729.14c-6.13,3-14-13.32-7.71-15.92C-1141.93,1665.16-1134,1681.49-1140.35,1684.09Zm76.16-5.85c-4.78,10.44-14.66,6.13-9.68-4.22C-1069.09,1663.58-1059.22,1667.89-1064.19,1678.24Z" transform="translate(2040.57 -1177.43)" style="fill:none;stroke:#fff;stroke-miterlimit:10;stroke-width:3.1413043995482326px"/><path d="M-1942.89,1488.92" transform="translate(2040.57 -1177.43)" style="fill:none;stroke:#fff;stroke-miterlimit:10;stroke-width:3.1413043995482326px"/></g><text id="blueprint-text" transform="translate(135.98 1378.53)" style="opacity:0.5;font-size:67.53804016113281px;fill:#fff;font-family:RageItalic, Rage Italic">A 16 legged amphibious creature with a long, <tspan x="0" y="81.05">segmented body. While adapted to land, its </tspan><tspan x="0" y="162.09">slender frame and webbed feet make it a </tspan><tspan x="0" y="243.14">formidable opponent in water.</tspan></text></g></svg>