<svg id="Layer_6" data-name="Layer 6" xmlns="http://www.w3.org/2000/svg" xmlns:xlink="http://www.w3.org/1999/xlink"
    viewBox="0 0 1110.01 1706.37">
    <defs>
        <linearGradient id="vote2-linear-gradient" x1="-3055.41" y1="3511.02" x2="-2308.5" y2="2217.33"
            gradientTransform="translate(150.2 -2387.87)" gradientUnits="userSpaceOnUse">
            <stop offset="0" stop-color="#f5f58a" stop-opacity="0.8" />
            <stop offset="1" stop-color="#f5f58a" />
        </linearGradient>
        <linearGradient id="vote2-linear-gradient-2" x1="-3256.15" y1="3512.14" x2="-2507.94" y2="2216.2"
            gradientTransform="translate(350.29 -2187.78)" gradientUnits="userSpaceOnUse">
            <stop offset="0" stop-color="#d9cc8c" stop-opacity="0.8" />
            <stop offset="1" stop-color="#d9cc8c" />
        </linearGradient>
        <linearGradient id="vote2-linear-gradient-3" x1="-3456.15" y1="3512.14" x2="-2707.94" y2="2216.2"
            gradientTransform="translate(550.29 -1987.78)" gradientUnits="userSpaceOnUse">
            <stop offset="0" stop-color="#8cd99f" stop-opacity="0.8" />
            <stop offset="1" stop-color="#8cd99f" />
        </linearGradient>
        <linearGradient id="vote2-linear-gradient-4" x1="-3655.77" y1="3512.5" x2="-2907.56" y2="2216.56"
            gradientTransform="translate(750.27 -1788.51)" gradientUnits="userSpaceOnUse">
            <stop offset="0" stop-color="#45abd7" stop-opacity="0.8" />
            <stop offset="1" stop-color="#45abd7" />
        </linearGradient>
    </defs>
    <g class="vote2-group" id="vote2-row1-group">
        <rect id="vote2-row1" x="-3081.75" y="-73.7" width="1100" height="1100" rx="12"
            transform="translate(78.52 -1978.42) rotate(-90)"
            style="stroke:#fff;stroke-miterlimit:10;stroke-width:6.666775070127617px;fill:url(#vote2-linear-gradient)" />
        <g class="vote2-row-xalian" id="vote2-row1-xalian" style="opacity:0">
            <path
                d="M-2220.69,386.43c-4.59-.4,20.32-12.87,15.94-13.12-13.08-.73-26.51,7.37-69.25.11-96-16.33-177.07,63.66-199.39,97.23-79.07,119-85.65,109.62-161.43,120.25,67.14,5.21,92.43,12.56,120.13,1,46.5-19.47,81.35-57.08,90.85-63.33,24-15.81,66.4-45.27,93.48-55q6-2.17,12.13-4.08c18-3.5,38.52-4.6,29.57,14,12.61-2.16,39.68-1.09,52.83-2.43,24.44-14.33,41.56-10.86,41.56-10.86s-2.39-7.36-13.79-11.56c-13-4.8,32.26-2,63.65,18.25,0,0-24.2-25.48-19.83-24.79,29.28,4.6,73.35,20.71,89.49,25.88-24.21-33.21-47.5-54-83.6-69.93-3.86-1.81,24.82,1.49,21.69-1.2C-2153.45,392.35-2191.25,389-2220.69,386.43Z"
                transform="translate(3086.58 77.03)" />
            <path
                d="M-2140.65,614.87c-1.85-6.35-10.46-40.28-24.84-55.17-22.08-31.68-62.84-39.19,1.77-41.7-39.5-29.94-114.94-27.66-142.3-26.44-5,.22,13.95-17.13,9-16.66-81.22,9.87-150,102.33-206.5,122.78-47.86,17.34-188.11-7.24-203.43-8.1-4.44,0,119.7,1.06,150.69-26.07,51.55-43.53,95.09-178.37,220.68-196.56,14.21-2.06,46.07-3.49,45.6-3.8-13.61-9.26-8.88-16.75-7.57-20.1,5.24-13.36,91.1-8.44,132-3.9-32.22-29.8-46.94-44.49-85.53-54.54-4.15-1.17,19.93-.8,16.27-3-36.5-21.65-116.8-5-136.33-2.32-3.58.5,21.41-18.95,17.67-18.4-28.44,4.2-88.53,29.8-99.34,33.41-7.93,2.65,9.66-26.52,2.44-23.25-79.38,34.09-37.7,263.64-275.51,282a83.72,83.72,0,0,0-3.88-11.39c-21,36.08-85.59-3.07-46.6-25.93-4,4.63-10.69,16.3-2.87,19.11a11.29,11.29,0,0,1,10.62-10.32c0,.07-6.22,8.7-6.71,14.8.21.19,2.06,1.46,4.58,3,.07,0,.4.08.42-.18.6-8.47,12-11.64,12.78-11.23-1.38,3-15.85,18.45,2.63,17.37,10.54-.87,18.87-9.72,22.07-19.34-.09-.45-.2-.9-.29-1.35,149.69-67.62,161-67.2,108-194.24-24.11-44.34-27.64-106.17-82.66-97.77-3.89-4.22-4.42-13.65-4.32-21.43a6.6,6.6,0,0,1-1.25-2.08c24.73-11.83,48.46-33.3,55.59-50.61,3.94-9.56,14.92-20.34,15-20.25,9.28,7.5,9.44,9.05,9.29,8.34-1.32-6.13,2.47-7.58,3.29-10.94-.61,2.52,7.65,8.73,15.19,10,.65.11-1.57-10.19-.91-10.08.51.08,12.14,6.56,12.65,6.64,2.28.38-3.68-7.52-1.74-8.39s12.64,1.94,14.3,2.44c.71.21-3.85-13.48-.08-13.44,7.1.06,13.14,10.19,13.5,9.15,1.23-3.61,2.5-8.78,2.5-8.78,14.42,2,28-2.43,22.63-3.13-11-1.44-6.2-5-5.83-10,.15-1.94,11.83,9.48,17.71,5.33,0,0-8.8-7.11-6-14.08,2.52-6.27,9,5.83,18.08,4.43,0,0-13.8-13.42,5.91-18.8,1.55,5.15,3,10,10.35,14.38-1.53-6.09-4.6-29,9.9-23.33,1,1.44,7.74,8.87,6.36,7.23-1.56-9.87-4.9-20.32,3.39-28.51a24.82,24.82,0,0,0,16.06,8.06s-12.85-19.67.17-26.23c0,0,7.48,13.18,7.18,11.87-2.83-12.27.67-26-3.15-31.1,9,2.76,13.7,7.21,17,12.29,10.57-11.8-35.39-36.32,1.61-21.22-.59-7.15-22.54-15-48.44-17.8,46.76-1.09-10.57-8.11-45.19-3.41,6.87-2,13.49-2.3,20.34-3.18-2.18-6.52-84.48,8.83-47.56-1.5-16.4-3.94-79.21,14.55-45.83,2.5-8.67-1.55-14.38,2.47-35.45,10.16,22-10.89-5-6.71-33.74-1.1,6.44-5.37-2.15-2.23-11.23,2.23-6.71,1.85-5.45.76-1-2.59-9.86,3.68-24.38,15-10.32,1.08-8.14,1.43-17.17,14.1-10.6,1.1-1.59.67-9.5,11.26-17.37,11.3-3.83,0-13.45-2.31-10.67-10.21,1.15-3.26-12,14.49-15.81,14.33s-6.44-12.17-7.06-15.1c-1.34-6.41-3.57,13.06-4.28,12.16-2.87,5.81-12-14.23-14.1,2.95.46-3.7-9.16-11.3-10.79-10.49-2.6,6.43,14.13,14.18,2,9.48-15-9.53-9.53-4.54-3.3,5.88-3.24-.78-6.7-5.29-10.31-5.54a27.66,27.66,0,0,1,2.46,3.77c-20.24-4.72-28.58-4.35-17.35,1.64-14.7-6.07-28.06-9.43-34.43-8.54,23,9.53-20.18-5.23-32.3-2.85,25,8.24-30.93-4.51-33.56-.05,38.91,3.73-67.61-1.21-18.49,4-18.52,1.34-35.4,6.36-37.46,11.47,29-9.85-8.49,6.62-3.89,15.69a29.49,29.49,0,0,1,14.89-8.68c-5.14,4.86-20,25.73-1.48,14.59,2.61,6.68-6.69,27.51,4.75,9.8,8.26,5.36,9.66,28.3,13.18,22.67,10.19-7.93,9.15,13.58,8.33,19.63,5.23-5.58,6-10.42,6.86-15.48,8.88,3.83-4.25,34.29,9.56,13.58.33,11.52,6.25,15.79,11.06.9-4.09,22.48-4.51,27,7.56,11-4.08,7.15,10.81,8.53,7.53,24-.09.41,9.38,2,11.64-8.89,6.41,11,6.8,25.16,6.8,25.16,5.82,2.16,11.09-11.3,11.09-11.3,10.92,3.63-.86,1.45,6.15,15.81,3.88-5.58,9.21-15.51,15.1-3.45,9.7-8,14-12.28,18.48.72,0,0,0-13.36,4.13-12.62,9.33,1.69,10.51.11,12.66,10,6.92,31.88,15,39.41,30.55,49.38,11.86,7.59,11.91,15.92,24.44,20.38-.46,5.64-.4,11.17-.65,16.65-4.18,2.83-12.69,3.6-16.13,2.71-52.63-16.23-143.17,65.45-155.88,112.11-9.52,48.68,18.22,93.64,22.78,141.27-3.54,8.69-.8,22.87,9.06,25.87,3.66-3.34,4.24-14,4.43-14,.38.12,3.71,11.44.62,14.52-.83,1.56,10.7,3.21,11.24,1.93,2.69-3.7,3.73-14.53,4-14.54s3.07,9.67.09,14.54a.49.49,0,0,0,0,.64c8.87-.61,16.57-4.76,14.79-15.27,8.49,21.88-16.67,30.64-43,18.22-4.79,9.64-12.69,18.92-15.16,26-12.91,37.16-15,99.74,18.53,158.81,5.53,9.74,12.64,28.88,14.54,40.19s8.07,15.16,13.56,17.75c5.72,10.75,35.24,84.31,48.2,119.63h0c12.6,50-7.2,38.85-39.23,51-26.42-.43-33.86,22.63-29,28.31,1.43,1.67,8,1,8,.78-.13-13.36,5.65-14.32,5.32-13.51-5.74,17.56-2.17,19.92,23.18,14.27,14-2.79,69.31,10,68.15-11.25-.19-2-11.46-58.17-12.16-72,.73-50.27,20.46-86.33-19.78-124-5.63-8.21-11.69-28.27-12.41-40.14a78.5,78.5,0,0,0,5.1-15.12c10.63-28.11-1.23-33.6,5.06-63,19.4,27.67,23.44,38.63,44.95,64.6,45.89,41.55,78.79,38.46,95.14,109.78,23.86,80.81,75.85,46.13,89,149.64,3.53,10.17,32.9-1.42,44.33,4,6.61,1.79,27.55,4.5,28.74-2,1.83-10.05-1-10.84-4-15.18,12.07,3.71,2.78,22.65,11.49,17.82,2.77-6.63,6.39-33.52-19.69-31.39-8.3.68-18.95-3.7-33.58-2.18-18.5-8.48-22.18-55.61-30-79.06-23.22-64.13-51.2-70-73.61-116-.24-24.33-7.88-74.75-21.16-102.47,1.8,4.31-3.54-11-6.77-18.85,63.61,43.57,132.85,89.85,219.92,76.92,6.71-1.26-18.85-11-11.87-11.61,22-1.79,37-4.15,57.23-12.54,3.18-1.32-26.13-3.25-22.49-3.71,137.72-9,168-138.6,290.67-36.63,5.11,8.33,4.49-9.69,6-29.3C-2167.63,594.48-2138.39,622.59-2140.65,614.87ZM-2603.08,46.81c1.89,0-14.05-5.07-12.14-5.14,18.28-.71,43,.48,43,.48-13.81,3.53-20,22.09-30.42,32.21-1.62,1.58-1.74-8.51-3.25-6.89-15.2,16.19-32.41,35.33-32.41,35.33a75.61,75.61,0,0,0,2.51-12.92c.18-1.71,7.95-6.4,8-8.1.18-3.25-7.46-3.47-7.58-6.59-.06-1.64,7.51-4,7.38-5.63-.16-2.06-9-10.6-9.47-13-.33-1.83,12.16,2.78,11.81,1.18-.31-1.41-13.45-9-13.75-10.21-1.2-4.81-2.19-7.7-2.19-7.7C-2636.86,45.21-2614.55,46.73-2603.08,46.81Zm-241.84,14.11c-.29,1.32-12.2,11.45-13.55,12.19-3.11,1.72,13.62-4.29,13.25-2.31-.55,3-3.33,5.51-3.85,8.94-.43,2.85-6.42,5.67-6.78,8.69s7.09,7.18,6.83,10.37c-.23,2.89-.42,5.82-.53,8.74-.07,1.79-8.27-8.44-17.47-24.58-1.18-2.07-2.22,17.57-3.51,15.65-4-5.91-10.82-30.93-15.76-33.37,0,0,20.91-9.16,31.86-11.8,2.31-.55-14.71,14.21-12.19,13.27,6.17-2.28,21-11.7,27.85-17.37A27.2,27.2,0,0,0-2844.92,60.92Zm117.57,19.78c2.22-3.25,13.23,31,13.31,27.85.64-24.64,3.46-29.24,8.14-29.55,3.06-.2,5.85,27.51,6.27,24.84,2.76-17.69,5-32.9,8.19-29.64,7.84,8.11,7.79,15.57,8,30.8.21,16.38,4,22-4.53,30.39-1.34,1.3-2.11-31.81-6.85-30.29-1,.33-1.89,36.18-5.65,36.14-2.12,0-4.2-32.77-6.2-33.36s-8.89,39.28-10.71,38.14c-3.65-2.28-3.68-32.44-4.21-33.33s-6.48,22-7,21.09c-3.78-7.45-1.77-16.41-.71-26.35C-2728.09,96.43-2733.19,89.24-2727.35,80.7Zm13.06,353.84a285.06,285.06,0,0,0,39.5-75.39c10.09,20.35,27.19,55.66,27.9,67.5-16.36,23.42-54.73,55-90.22,69.5C-2738.06,472.44-2728.39,453.65-2714.29,434.54Zm-64.59-320.09c-7.52,49.81-7.53,43.54-8.41-.88-.54-.42-11.15,28.52-11.67,28-1.64-.23,1.53-36.12,1.07-38.51-.42-.82-5.68,22.93-6.06,22.06-2.76-6.42-1.4-6-1.5-14.44-.15-11.44-.86-22,3.64-29.46,1.7-2.83,10.29,28.09,10.35,25.32.46-21.59,2.87-22.52,6.46-22.76,2.35-.15,4.62,25.67,4.93,23.33,4.94-33.14,15.9-20.28,13.8,1.85.19,14.71,1.89,19.88-5,27.09C-2772.22,137.12-2777.82,113.66-2778.88,114.45Zm3.38,59.75c10.1,5.2,22.75-3.49,17.74-15.73-2.25-2-11.91-11.81-5.78-8.52,0,0,10.17,3.36,18-.63,7-3.58-3,6.65-5.87,9.18-.85,1.95-3.36,9.25-.12,13.22,3.73,4.57,17.1,4.64,18.85,2.24-6.58,9-22.38,1.08-22.43,1.08C-2756.16,175-2766.78,182-2775.5,174.2Zm-98.08,292.28c-2.59,4.29-5.3,8.51-8.05,12.69-3.09-3-6.67-4.32-10.66-5.51-5.58-23.46-3.39-47.29-6.47-71-1.79-13.28-4.9-26.6-2.41-40,15.57-15.19,36.09-23.13,50.19-40.11,3.05-3-5.65,13.77-6.59,29C-2860.09,392.43-2853.09,421.43-2873.58,466.48Z"
                transform="translate(3086.58 77.03)" />
        </g>
    </g>
    <g class="vote2-group" id="vote2-row2-group">
        <g id="vote2-row2">
            <rect x="-3081.75" y="124.89" width="1100" height="1103" rx="12"
                transform="translate(-121.57 -1778.33) rotate(-90)"
                style="stroke:#fff;stroke-miterlimit:10;stroke-width:6.654520653525598px;fill:url(#vote2-linear-gradient-2)" />
        </g>
        <g class="vote2-row-xalian" id="vote2-row2-xalian" style="opacity:0">
            <path d="M-2157.36,509c-49,23.76,10.2,10.5,25.23,1C-2112,499.14-2152.8,506.76-2157.36,509Z"
                transform="translate(3086.58 77.03)" />
            <path d="M-2142.73,441.81c-21.2,24.1,31.73-7.88,28.43-16.1C-2124.27,429.07-2134,436.32-2142.73,441.81Z"
                transform="translate(3086.58 77.03)" />
            <path d="M-2172.3,382c5.13,2.65,41.27-39.33,22.53-32.82C-2155.33,354-2182.72,378.25-2172.3,382Z"
                transform="translate(3086.58 77.03)" />
            <path d="M-2110,474.45c-15.58,12.5,34.9-4.91,37.52-7C-2072,460.65-2104.88,472.47-2110,474.45Z"
                transform="translate(3086.58 77.03)" />
            <path d="M-2212.6,355.52c-12.44,30.21,14.08-5.58,17.38-13-1.15-15.44-15.17,7.87-17.51,12.73Z"
                transform="translate(3086.58 77.03)" />
            <path d="M-2314.61,326.77c1.29,7.83.22,27,7.66,26.62C-2298.48,343.29-2311.6,280.72-2314.61,326.77Z"
                transform="translate(3086.58 77.03)" />
            <path d="M-2166.58,420.43c-3.19,3.71-11.08,13.47-2.13,14.42C-2160.14,433-2151.6,408.88-2166.58,420.43Z"
                transform="translate(3086.58 77.03)" />
            <path d="M-2067.89,440.33c-50.23,16.5,13.34,16.11,23.23-.36C-2046.87,432.61-2062.24,440.48-2067.89,440.33Z"
                transform="translate(3086.58 77.03)" />
            <path d="M-2127.92,298.6c1.32-3,12.87-17.48,3.84-14.64C-2132.67,286.42-2151.15,317.9-2127.92,298.6Z"
                transform="translate(3086.58 77.03)" />
            <path d="M-2110,390.59c-4.46-5-33.25,16.53-27.49,21.71C-2130,418.37-2104.32,395.21-2110,390.59Z"
                transform="translate(3086.58 77.03)" />
            <path d="M-2214.32,320.12c5.23,3.64,14.06-11.29,14.34-17.45C-2200.72,288.86-2219,317.14-2214.32,320.12Z"
                transform="translate(3086.58 77.03)" />
            <path d="M-2096.87,432.76c-10.15,7.41.65,8.22,6.87,3.88C-2080.66,428.92-2089.77,427.09-2096.87,432.76Z"
                transform="translate(3086.58 77.03)" />
            <path d="M-2078.58,383.83c-10.37,7.85-4.29,13.74,4.48,5.3C-2064,381.33-2063,370.83-2078.58,383.83Z"
                transform="translate(3086.58 77.03)" />
            <path d="M-2193.14,258.4c6.33,4.53,19.13-32.78,14.52-33.47C-2184,223-2200.07,255.45-2193.14,258.4Z"
                transform="translate(3086.58 77.03)" />
            <path d="M-2305.95,263.56c-3.24-20.71-8.16-14.9-5.92,1.93C-2309.37,284.69-2302.48,282.87-2305.95,263.56Z"
                transform="translate(3086.58 77.03)" />
            <polygon points="855.09 497.82 855.09 497.82 855.09 497.82 855.09 497.82" />
            <polygon points="802.01 554.5 801.97 554.46 802.27 554.19 802.01 554.5" />
            <path
                d="M-2293.07,219c.93,7.57,3.55,13.09,4.85,19.79,1,5.32,3.29,10-.57,17.11-1.28,2.38-.82,5.58-.41,8.13a125.27,125.27,0,0,1,.21,36.57c-.43,3.25-2.29,5.77-2.87,8.84-.25,1.34-.91,3,0,3.69,1.13.87,1.83-1.07,2.71-2.13,5.55-6.63,7.52-14.44,7.35-23.36-.08-4.48,1.58-9.09,3.62-13.41,1.49-3.15,2.59-6.78,1.74-9.36-2.79-8.58-1.1-19.34-1.91-28.92a151.68,151.68,0,0,0-2-16.42c-1.08-5.48-3.57-9.29-5.9-13.2-1.12-1.87-2.72-3.3-5-1.17s-2,5-2,7.64C-2293.23,215.09-2293.12,217.31-2293.07,219Z"
                transform="translate(3086.58 77.03)" />
            <path
                d="M-2178.46,284.75c-.29.42-.57.85-.86,1.28-.11,2.26-2,3.25-3,4.91-.45.79-1.18,1.63-.36,2.47s2,.43,2.66-.41c1.52-1.92,2.91-4,4.43-6,3.06-4,5.84-8.44,10.16-11.5l1.21-1.09c1.73-2.6,4.36-3.92,7-5.28,2.93-1.51,5.95-3,8.8-4.78,1.53-1,3.66-2.71,1.53-4.7-3.89-3.62-1.17-5.39,1.86-7,2.55-1.38,5.28-2.43,8-3.61,3.43-1.49,7.05-2.58,9.68-6,1.72-2.23,3.47-4.36,2.26-7.17s-3.65-3.67-6.55-3.29a32.73,32.73,0,0,0-14.72,6.18,81.24,81.24,0,0,0-25.93,31.17C-2174.65,274.84-2175,280.59-2178.46,284.75Z"
                transform="translate(3086.58 77.03)" />
            <path
                d="M-2071.28,353.56a188.43,188.43,0,0,1-17.58,12.31l-2.54,2.3c-1.79,1.94-3.52,4-5.83,4.8l-5.06,4.87c1.77,1.54,5.35-1.08,8.6-3.33,11.16-7.72,22.42-15,33.57-19.48a128.86,128.86,0,0,0,12-5.88c3.89-2.08,8.1-5.64,9.5-8.8,1.51-3.42-1.7-3.14-4.85-2.63s-7.62,3.69-10.76,4.17c-.8.53-1.59,1.07-2.38,1.61a35.2,35.2,0,0,1-8.34,5.56A26.1,26.1,0,0,1-2071.28,353.56Z"
                transform="translate(3086.58 77.03)" />
            <path
                d="M-2094.06,297.06c-4.63,4.61-9.28,9.2-13.47,13.95-1.59,1.8-4.87,4.85-3,6.18,1.62,1.17,4.64-1.44,6.71-3.18a327.54,327.54,0,0,0,29.94-29.17c7.6-8.31,13.24-22.22,22.54-26.51,12.15-5.61,1.18-21.13-9.74-5.48C-2067.16,261.51-2086.64,289.67-2094.06,297.06Z"
                transform="translate(3086.58 77.03)" />
            <path
                d="M-2185.65,453.39c8.05-1.77,16.39-3.92,24.18-4.81.34-.26.68-.5,1-.73,2-3.79-1.78-2.88-2.57-4.42l-2.11.15c-6.25,2.8-12,3.44-18.49,8.12Z"
                transform="translate(3086.58 77.03)" />
            <path
                d="M-2207.72,517c.4,2-2.44,2.49,0,5.2s4.79,2.23,6.62,1.88c2.83-.54,5.87-1,6.58-4.68-4.72-1.79-7.59.07-12.18-2.75Z"
                transform="translate(3086.58 77.03)" />
            <path
                d="M-2201.22,381.39c5.61-8.07,12-16.34,14.29-24.51-2.55,1-4.3,3.63-6.31,5.7-3.93,5.46-5.51,10.64-8.87,15.92.39.46.37,1.14-.31,2.18Z"
                transform="translate(3086.58 77.03)" />
            <path
                d="M-2153.55,440.71c-2.89,1.38-5.26,3-3.18,4.4,1.49,1,1.56,4.19,6.6.51.08-.65.17-1.29.25-1.93l-2.93-3.05A1,1,0,0,1-2153.55,440.71Z"
                transform="translate(3086.58 77.03)" />
            <path
                d="M-2170,343.27c-3.43,2.39-6.49,5-8.43,8.85-1.18,2.34-1.34,3.66.92,3.1l3.18-3.33,5.16-7.74a.77.77,0,0,1-.12-.64l-.49,0-.23-.28Z"
                transform="translate(3086.58 77.03)" />
            <path
                d="M-2064.92,315.51c-2.25,2.48-5.95,5.51-4.49,6.81,1.23,1.1,4.27-2.07,6.57-4a6,6,0,0,0,.69-.64c2.49-2.78,8.16-6.67,7-8.06C-2056.7,307.78-2061.52,312.56-2064.92,315.51Z"
                transform="translate(3086.58 77.03)" />
            <path
                d="M-2131.17,332.67c-1.63,2.16-4.38,4.59-3.31,6,.61.76,2.4-.08,3.95-1.67,2.1-2.15,3.81-4.52,3.11-5.94C-2127.94,330-2129.6,331.12-2131.17,332.67Z"
                transform="translate(3086.58 77.03)" />
            <path
                d="M-2152.07,484.28c-1.77-.33-1-4.92-6.27.67-2,2.19-3,4.39-2.42,5.94.28.73,1,1.24,2.36.56,3.92-1.91,4.66-4.72,6.36-7.27Z"
                transform="translate(3086.58 77.03)" />
            <path
                d="M-2402,422.9l.59-.94c13.46,4,48.23,17.87,56.7,56.36,0,0-.71-58.1-48.85-78.07,0-.1-.1-.21-.15-.31C-2398.55,406.9-2403.25,414.17-2402,422.9Zm6.06-13.38c36.07,17.88,46.91,52.24,46.91,52.24-11-24.11-32.39-39-47.24-46.62C-2395.44,414.13-2395.17,410.41-2396,409.52Z"
                transform="translate(3086.58 77.03)" />
            <path
                d="M-2432.81,458.51c15.69,5.11,59,23.4,68,71.48,0,0,7.38-66.52-55.84-89.83.12-.16.24-.31.35-.47C-2429.36,441.59-2438.63,450.48-2432.81,458.51Zm3.28-5.14a7,7,0,0,1,.81-1.54c.54-.81,1.1-1.61,1.64-2.42,50.12,21.1,57.66,60.21,57.66,60.21-15.44-36.73-46.11-50.59-60.78-55.27C-2430,454-2429.76,453.69-2429.53,453.37Z"
                transform="translate(3086.58 77.03)" />
            <path d="M-2339,537.64s-.81,13.9,15.06,14.55C-2324,552.19-2329,538.77-2339,537.64Z"
                transform="translate(3086.58 77.03)" />
            <path
                d="M-2332.73,1068.37c-35.41-4.38-57.08-20.46-71.28-43.53-8.59-13.95-34.87-195.44-89.12-247.93-1,3-20.55,49.39-35.61,69.16-.12.11,40.32-112.12,62.19-123.08a.51.51,0,0,0,.3-.65c-3.22-.76-66.43-29-63.89-28.61,7.22,1,32.22,9,40.19,12.36,10.76,4.54,16.5,9.6,36.56,14.48,25.35,6.18,36.26,6.68,64.88,6.94,16.91.15,32.43-3.08,49.39-9.7,1.5-.59,22.7-11.54,29.06-21.47,3.1-4.84,13.85-36.9-10.4-42.54-14.79-3.44-40.59-5.13-56.61-6.57-17.14-1.56-36.84-21.72-44.67-33.35-.71-1-31.69,23.84-32.52,22.64,1-.39,8-6.75,30.44-25,1.84-1.5,10.1-7.26,14.46-11.61-13.08,1.16-33.43-6.54-33.43-6.54,11,.76,27.48,4.93,35.3,2.44a24.43,24.43,0,0,1,4.23-2.54c16.57-6.85,35.58-5.19,57-23.17,5-4.18,17.87-11.45,23.22-15.48a35.13,35.13,0,0,1-7.18,0c-13.05.32-10.91-11.27-12.57-16.17-.38-.54.2-3,0-3.59-1.84,4-13.67,18.68-18.43,21.12-10.94,5.59-40.21,12.49-44.09,12.65-15,.6-24.7-4-39.5.41-25.17,7.49-37.05,23.81-47.73,46.06a7,7,0,0,0-.72,4.36c-3.09-9.12,10.94-28.65,13.71-31.65,4.16-4.53,8.4-9,13.61-12.57a44.67,44.67,0,0,1,11.57-5.66c-9.87-12.89-10.44-16.27-14.36-17.72a99.24,99.24,0,0,1-10.69,16c-36.65,44.35-55.56,52.24-74.14,60-5.18,2.16,23.26,3.94,19.59,4.33,17.84-1.91,41.8,7.74,95.13,50-5.5-1-50.2-30.63-53.1-32.4-11.77-7.17-23.78-10.39-39-12.64a216.22,216.22,0,0,0-22.36-1.82c-9.48-.5-7.13-10.56-9.69-19.47.48,0,1-.15,1.23,0,5.3,4.07,11.75,6.83,18.31,3.48,20-10.23,34.83-26,48-43.65,21-28.23,45-49.41,58.71-81.93,1.8-4.26,3.6-8.55,5.52-13.13a20.36,20.36,0,0,1,1.43-6,59.66,59.66,0,0,1,5.36-10.2l.06,0c6.29-2.87,10.74-18.06,16-22.55a36.11,36.11,0,0,0,7.07-9.31c2.87-6.28,3.73-17.63,9.6-25.91a4.26,4.26,0,0,0-.22-5.7c-.46-.45-1-.93-1.58-1.45-7.33-6.45-24-22.33-31.86-28.06-6.33-4.63-14.56-3.66-22.07,3.21-11.72,10.72-22.85,21.82-33.34,33.08-12,12.86-22.88,26.27-34.44,38.77a61.87,61.87,0,0,1-14.4,11.57c-6.06,3.44-14.9,12.61-21.21,21.77-32.09-18.89-78.41-38-108.55-14.46,0,0-19.65,38.33,90.48,43.22-.27.39-.53.79-.78,1.19-40.74-.44-108.07,8.84-137.06,52.9-3.62,5.5,3.31,8.45,9,11.35,24,12.2,56-4.74,118-15.93-.63,1.63-4.3,21.69-25.73,25.58,0,0,8.09,6.56,12.7,5.54-1.53,5-17.46,23.65-36.58,13.9a1.6,1.6,0,0,0-2.07,2.33c4.5,6,12.71,15.08,23.27,18.58-3.26,3.62-39.92,24.37-61.16,22.19a2.28,2.28,0,0,0-1.41,4.21c7.41,4.79,19.3,10.85,31.9,10.8-3.34,4.82-24.36,8.73-48.38,2.17a2.21,2.21,0,0,0-2.25,3.49c1.7,2.19,13.79,18,12.85,17.81-5.45,5-22,3.92-39.34-6.35-1.17-.69-1.85,1.43-.87,2.7,5.51,7.16,12.28,18.61,23.74,18.3-23.34.63-43.62,20.38-43.1,20.38,22.62.11,19.91,12.21,14.61,13.07-20.31,3.29-30.36,25.73-30.36,25.73,18.26-8.5,17.57-2.41,17.55-1.2-.16,13.79-27.11,21.45-27.11,21.45,4.32,6.9,13.77,1.85,10.9,4.1-14.93,11.72-39.62,12.92-80.4-1.43-42.77-15-88.38-6.32-107.79,2.58C-2995,809.93-3009.8,870.4-3016.49,921c-16,121.18-12.11,181.54,34.29,202.92,13.61,7.76,55.44,12.93,55.67,12.57,4.06-6.08-12.26-25-10.77-23.34,25.14,28.73,69.7,43.58,70,43.1,4.24-6-4.67-17.33-1.79-16.16,13.92,5.63,21.46,17.9,32.33,25.14s30.37,5.46,35.92,7.19-11.2-23.41-7.19-21.56c23.35,10.78,28.74,19.76,52.09,19.76.5,0,10.77,0,7.18-1.8-4.75-2.37,2.76-15.57,25.15-7.18,14.36,5.39,35.65,14.79,37.71,9,11.12-31.25-17-117.88-64.28-124.11-13.74-1.81-26.37-6.63-43.81-8.59-17.15-1.94-38.78-1.1-61.24-5.2-79.57-14.52-110.66-90.41-92.82-151.17-1.9,70.32,19,139.2,114.83,149.92,11,1.24,21.56,3.25,26.92.66,24.87-12.06,36.25-25.42,38.47-44.66-2.48,21.51,3.84,23.79-24.24,41.41.52-.33,23.73,17,84.32,15-.73-2.31-31-97.72-34.24-109-1.2-4.22-3-22.88-3.5-29.64,6.3,14.9,10.53,30.47,14.54,46.15.44,2.33.91,4.66,1.47,7,.63,2.6,1.43,5.18,2.28,7.74a353,353,0,0,0,10.9,36c5,13.26,9.49,26.74,14.29,40.2a66.88,66.88,0,0,0,2.26,6.46c.14.33.29.66.44,1,1.51,4.13,3.08,8.23,4.69,12.34l.26.83h.06c1.91,4.83,3.88,9.66,6,14.44,9.63,21.82,22.29,43.11,35,64.49,3.73,6.28,11,11.73,17.53,15.91,7.39,4.73,15.75,7.68,23.85,11.24,11,4.83,22.29,7.19,31.31,1.69,1.31-.79,2.91-.91,3.78-1.83,12.51-13.28-6.92-42.14-6-42.27,1.09-.16,21.2,20,13.57,40.47-.61,1.64,2.5,2,4.86,2.92,14.14,5.53,28.63,9.44,38.35-2.67a.44.44,0,0,1,0-.3c5-28.32-16-53.78-15.82-53.85s24.5,19.69,19.28,53.72c-.23,1.49,1.91.61,3.81,1,19.16,3.45,28-16.44,28.19-18.86,2.3-24.69-21.07-60.63-47.53-66-22-4.5-40.36-11.86-53.41-30.79-.62-.9-1.94-1.43-2.48-2.34-3.81-6.49-9.65-12.93-10.83-19.49-4.57-25.34-7.4-50.73-11.38-76-.95-6-2.19-12-3.48-18-.49-6.88-.89-13.91-1.85-20.76l1-.16c4.57,14.7,10.64,34.39,11.59,39.44,1.7,9,3.76,17.92,4.46,26.94s.92,17.81,2.14,26.76a86.05,86.05,0,0,0,1.71,10.34c.13.48.27,1,.42,1.47,4.91-3.42,9.58-7.08,14.53-10.54l.13-.13a86.63,86.63,0,0,1,9.76-13c4.08-4.7,25.92-25.15,31-29.34,14.14,13.38,53.37,65.91,58.6,78.55,6.42,18.4,22.14,30.91,37.08,44.27,26.85,28.27,40.57,62,90,65.72,4-1,44.18,7.42,69.24,5.95,10.15-1,15.1-4.79,15.16-4.94,10.48-28-2.36-48.78-1.52-49.48s16.25,24.13,8.6,47.36c-.05.16.26-.22.38-.34,11.51-10.23,18.94-22.25,11.56-38.47C-2270.53,1083.53-2290.74,1074.92-2332.73,1068.37Zm2.47-380c-31.32,29.7-83.57,11.42-83.57,11.42C-2355.45,707.51-2330.26,688.36-2330.26,688.36Zm-120-270.47c5.8,1.5,8,5.85,8,13.58-6.47-5.69-11.52-11.78-21.21-7.26C-2460,419-2455.61,416.52-2450.3,417.89Zm-84.07,75.58c.88-1,9.55-8.59,11.68-10.28,10.16-8.08,20.56-16.07,31.79-24.83a19.92,19.92,0,0,1-1.14,3,24.24,24.24,0,0,0-3.87,13.88c0,10.26-5.74,18.33-14.93,24.06-6.89,4.3-10.84,3.66-18.61-2.36-5.75,4.61-4.29,10.76-4.68,16.74A15.21,15.21,0,0,1-2534.37,493.47ZM-2669.78,570c-13,2.59-25.75-4.69-25.75-4.69,20.29-24.78,83.52-35.92,114-34.45a50.38,50.38,0,0,1,10.21,2c-1,3.7,4,5.37,4.75,7.42a10.21,10.21,0,0,1,.49,4C-2581.43,550.72-2624.3,560.91-2669.78,570Z"
                transform="translate(3086.58 77.03)" />
            <path
                d="M-2294.71,400.24a185.6,185.6,0,0,1,1.9,21.37c.24,1.12.49,2.24.73,3.35.79,2.52,1.7,5,1.25,7.45q.85,3.42,1.7,6.82c2.22-.78,1.73-5.18,1.41-9.11-1.13-13.53-1.8-26.9-.14-38.82A133,133,0,0,0-2287,378c.14-4.41-.85-9.84-2.9-12.62-2.21-3-3.56-.1-4.69,2.89s-.6,8.44-1.76,11.41l.21,2.86a34.65,34.65,0,0,1,.66,10A25.76,25.76,0,0,1-2294.71,400.24Z"
                transform="translate(3086.58 77.03)" />
            <path d="M-2275.78,328.9c-3.39,52.77,19.92-6.38,8.31-21.69C-2275.12,306.52-2273.54,323.72-2275.78,328.9Z"
                transform="translate(3086.58 77.03)" />
            <path d="M-2244,313.6c5.76,31.58,13.5-29.77,5-32.28C-2242.53,291.22-2242.91,303.39-2244,313.6Z"
                transform="translate(3086.58 77.03)" />
            <path
                d="M-2240.52,395.76c2.56-9.49,5.81-19.43,5.21-27.9-2.05,1.84-2.83,4.88-4,7.5-1.87,6.46-1.61,11.87-3,18,.52.29.73.94.44,2.15Z"
                transform="translate(3086.58 77.03)" />
            <path
                d="M-2261.78,278.09c-.07,3.36-.89,8.06,1.07,8.09,1.65,0,1.86-4.36,2.32-7.35a7.7,7.7,0,0,0,.1-.94c.06-3.73,1.8-10.38,0-10.66C-2260.63,266.87-2261.15,273.64-2261.78,278.09Z"
                transform="translate(3086.58 77.03)" />
            <path d="M-2223.56,269.55c4.54.66,13.09-73,2.76-54.53C-2222.74,224.25-2232.14,270.35-2223.56,269.55Z"
                transform="translate(3086.58 77.03)" />
            <path d="M-2136,190.49c-6.13-2.76-23.53,28.72-16.15,31.08C-2142.87,224.05-2129,192.39-2136,190.49Z"
                transform="translate(3086.58 77.03)" />
            <path
                d="M-2112.33,265.05c9-13,19.3-26.26,23-39.39-4.1,1.67-6.91,5.85-10.13,9.17-6.33,8.76-8.85,17.09-14.25,25.58.62.73.58,1.83-.5,3.49Z"
                transform="translate(3086.58 77.03)" />
            <path
                d="M-2077.32,329a1,1,0,0,0-.55-.42c-14.06-4.74-33.87,20.25-46.28,30.1a1.85,1.85,0,0,0-.28.28c-12.58,16.18-29.68,21-42.67,35.94-7.64,9-14.24,19-22.61,27.31-40,44.47-51.83,28.51-6.69-8.77a2.05,2.05,0,0,0,.55-.81,9.08,9.08,0,0,1,2.51-3.14c.18-.85.35-1.71.53-2.56-3.55-3.21-22.08,21.47-16.59,7.68,20.58-24.27,12.55-34.43-3.94-3.94a1.63,1.63,0,0,0-.16.47c-1.65,10.11-24.49,34.08-18,9.68.85-6.11,4.58-13,8.2-20a1.8,1.8,0,0,0,.16-.58c.13-2.1,1.4-4.46,3.26-7h0c13.24-28.09,31.51-53,54.47-79.93,6.68-8.46,19.75-21.72,19.14-31.28a1,1,0,0,0-1.25-.89c-12.72,2.65-25.18,23-33.84,33.13a1.34,1.34,0,0,0-.11.14c-2.69,3.83-5,8.06-9,9-17.73,9.47-23.81,33.79-30,50.36.37.8-.42,2-1,3.17a433.53,433.53,0,0,1-17.37,42.4c-8.76,18.61-29.76,15.49-25.23-3,2.2-9.25,3.23-18.13,7.09-28.36,0-.09,0-.17.07-.25,1.34-9,7.61-18.45,10.89-27.65,6.94-22.34-11.86-13.48-17.77,3.43,0,.05,0,.1-.05.16-13.6,49.49-17.73,99.07-47.14,145a.56.56,0,0,1-.05.08,54.5,54.5,0,0,1-7.07,10.63S-2335.79,533-2335.79,533c16.41,5,15.95,19.25,15.95,19.25.25-.68.47-1.33.65-2a.87.87,0,0,0,1.1.12,7.17,7.17,0,0,0,1.23-1.1,6.71,6.71,0,0,0,.64-.57c1.68-.42,6.59-3.39,7.89-4.2,7.77-4.85,33.25-13.08,37.82-14.72l.16-.07c5.92-2.88,12.49-6.57,18.47-7.56l0,.23,0-.24c9.48-4.36,19.72-7,28.62-6.47,16.91,2.79,15-16.07,28.27-3.09a1.18,1.18,0,0,0,1.33.16c3.85-1.87,7-6.09,5.36-9.53-8.45-15.54-36.23.48-52.19,6.17a1.3,1.3,0,0,0-.31.16c-6.83,4.59-33.08,16.68-21.58,0a1.61,1.61,0,0,1,.24-.28c14.7-15,35.63-25.06,53.81-32.47,13.8-6.25,22.59-4.32,34.63-4.4,6.21.16,16.29-11.89,8.92-14.83-8.75-3.4-22.18,2.08-32.17,5.88-.51.62-.92.71-1.28.57-43.89,26.14-28.51-3-1.63-22.49l.08-.06c36.59-31,77.84-58.12,112-94.36a1.84,1.84,0,0,0,.27-.37C-2084.74,341.65-2075,333-2077.32,329ZM-2306.4,519.31c-.06-7.47,17.07-30.9,18.85-33.72-.82,6.81-8.37,27.37-16.9,34.32C-2305.28,520.58-2306.4,520.27-2306.4,519.31Zm27.18,2.15c-3.54,3.07-24.34,12.55-25,11.34s9-9.25,12.93-11.89S-2266.6,510.49-2279.22,521.46Zm32.83-49.47a1.57,1.57,0,0,1-.08.29c-3.66,8.93-9.87,16.63-18,24.05-1.16,1.06-2.59,0-1.82-1.35,2.84-4.91,5.53-10.23-.26-6.78-1.55.94-2.06.12-2.07-1-2.08-8.09-12.23,15.77-17.23,15.67,0-.41,0-.68.11-.91,9.72-14.93,19.84-31.09,22.64-46.57,1.31-3.77,1.62-9.58,4.89-12.91.61-.61,1.54-.75,1.93-.17,1.27,1.86,0,7.28.83,9.44.52,7,7.63-4.94,8.51,1.5-5.37,2.12-14.12,9.66-14,14.54.12,4.36-.07,6.11.19,7.27.17.74-5.89,4-6.15,5.45-.53,3.09,4.59,4.73,6.39,3.29s5.45-9.38,5.51-11.81C-2254.91,470.1-2245.71,468.53-2246.39,472Z"
                transform="translate(3086.58 77.03)" />
        </g>
    </g>
    <g  class="vote2-group" id="vote2-row3-group">
        <g id="vote2-row3">
            <rect x="-3081.75" y="324.89" width="1100" height="1103" rx="12"
                transform="translate(-321.57 -1578.33) rotate(-90)"
                style="stroke:#fff;stroke-miterlimit:10;stroke-width:6.654520653525598px;fill:url(#vote2-linear-gradient-3)" />
        </g>
        <g class="vote2-row-xalian" id="vote2-row3-xalian" style="opacity:0">
            <path
                d="M-2591.7,1023.53c-15.84-34.95-9.79-102.16-51.11-115l.32.29c-48,25.94-90.37,62.63-126.73,113.58A80.19,80.19,0,0,0-2778,1044c-2.39,10.51-2.44,21.14-1.68,31.78,15.85,89,51.44,199.89-55.12,247.93-23.34,7.77-58.43,19.58-59.69,48.38.4-.14,25.34-.82,25.34-.82,62.25-1.84,121.33-6.8,177.33-13.29,8.79-.92,11.09-4,11.43-14.23,1.17-25-8.47-65.14-.35-90.09C-2620.94,1053.22-2765.9,1133.88-2591.7,1023.53Zm-24.93-82.91c-4.84,35.65-73.45,43.93-43.75,106,3.76,1.14,46.13-42.24,45.41-61.71.66-1.95,1.48-11.47,5.58-8.56,7.55,50.93,19.59,39.83-19.88,64.51-.47.3-19.69,11.51-19.56,11.72l-26.13,16.15-2.63-3.87c-8.37,7.7-13.77,8.33-17.81,2.17,5.79,1,11.38,2.68,14.48-3.37,2.35-4.2,3.91-8.69-.63-13.76-.06-14.94,3.32-30,4.84-44.37,2.75-23.19,39.31-38,23.94-63.11-4.43-5.68-10.49-5.66-16.81-5.73-.22-.54-.45-1.08-.68-1.61C-2645,917.24-2630.32,901.15-2616.63,940.62Zm-65.93,133.06c-1.23,4.74-2.13,8.19-3.41,13.13l-6.79-13.54Zm-6.32-122.62c6.31-5.16,22.85,3.34,18.37,11.54-6,9.77-12.69,19.25-19.46,29.37l-25.46-17.2C-2706.11,966.34-2697.74,958.29-2688.88,951.06Zm-30.6,29.09c3.48-4.5,31.52,17.86,38,20.6-3.48,10.67.76,48.67-8.76,50.52-6.43,2.22-7.79,9.52-13.9,11.06-3.32,1.9-7,.69-9.28-2q-3.84-2.13-.25-1.94a7.1,7.1,0,0,1-3.49-.73c-1.73-1.47-3.22-2.58-4-4.82-1.7-5.19,1.71-12.53,3.61-17.25,2.91-7.24,4.25-10.19,5.77-17.88.68-3.43-11.57-9.41-14.53-10.72-2.69-1.19-30.57,25.09-33,26C-2755.8,1028.34-2723.13,983.8-2719.48,980.15Zm-7.17,103.16-.12-.24c10.87,4.41,10.8-15.72,20.53-18.32-3.09,4.75-7.09,22.33-14.35,26a2.46,2.46,0,0,1-.24,1.55c14.69,12.77-2.49,26.91-9.38,39.24C-2729.91,1124.22-2742.24,1071.45-2726.65,1083.31Zm-47.58-15.4c9.17,9.19,14.67,35.89,19.57,50.33,2,7.28,3.26,22.42,11.6,26.72-4.68-.68-13.71-4.57-14.92-9.66C-2762.49,1116.26-2769.93,1086.31-2774.23,1067.91Zm17.58,286.21c-4.23,8.82-18.46,4.11-22.5,7-6.4.13-41.1,6.75-39.65-4.59C-2815.1,1342.88-2740.64,1320.7-2756.65,1354.12Zm1.8-19.47c-15.83-17.91-38.9-1.73-38.89-1.71-17.38,10.5-50.58,9.14-52.2,30.9-4.84.34-30.21.45-34.95.93,7.95-31.48,53-32.5,75.15-51,19.93-23.2,30.11-20.87,48.79-13,6.45,3,15.46,1.31,17.75,10.45C-2735.24,1328.59-2733.2,1345.58-2754.85,1334.65Zm18.7-51.63c-2.3,9.69-1.22,6.29-7.31,14.3-4.4,5.79-23.85-3.45-27.21-5.75-.56-.38,0-3.41.88-5.9a3.25,3.25,0,0,1,.29-2.42c2.69-4.09,5.56-8.27,7-13,.84-2.81,1.75-5.6,2.36-8.46.35-1.68.62-3.37,1-5,.68-10.76,6.91-80.79,4.62-113.64,23.16,14.17,20.25-4.71,33.95-19.94.39.35,4.52,3.95,4.91,4.31-7.13,15.08-19.7,27.64-21.68,46.45-2.75,28.5-7,55.74-12.39,85.15,5.42,2.38,14.07,5,18.7,7.45.44.08,17.68-76.92,17.49-74.68-.08,1-2,59.61-2.15,59.72-4,13-5.47,18.81-8.28,20.35.05,1-1.89,6-2.42,6.74C-2726.53,1278.72-2734.55,1276.27-2736.15,1283Zm53.65,51.29c-1.36,4.72,1.38,8.51-1.56,13.26-5.34,7.73-46.3,9.24-46.65,4.22-3-18.83-6.7-37.66,4.58-58.26a41.21,41.21,0,0,0,2.19-4.35c-1.09,10.89-8.3,26.15-1.24,49.12.6.69,19.09,6.28,27.47,5.19,0-.21,0-.42,0-.63-.08,0-3.71-16.16,3.51-21.4a3.68,3.68,0,0,1,6.37.77C-2687,1327-2681.3,1329.1-2682.5,1334.31Zm-2.61-13.09c-17.16-54.78-6-168.32-4.91-172.54,4.54-19.18,13.56-42-8.06-54.54,6.26-3.09,14,7.85,17.06,12.69,25.06,48.26,4.32,98.63-6.53,150.06C-2692,1274.1-2682.18,1303.58-2685.11,1321.22Z"
                transform="translate(3086.58 77.03)" />
            <path
                d="M-2778.39,653.12a24.45,24.45,0,0,0-1.23-3.9,62.17,62.17,0,0,0-7.28-9.77,21.36,21.36,0,0,0-12.38-7c-7.34-1.49-13.92,2.24-21.32,6.12-.85-1.38-1.44-2.32-2-3.27l1.86-.33c1.16-2.44,3.91-5.72,3-7.09s-5.36-1.15-8.55-.53c-10.62,2-21.37,4.6-32.07,7-4.45,1-7.88,2.84-8.56,6.15-.62,3.06,2.16,3.47,6.22,2.9,1.85-.25,4.48-.42,5,.32,2,2.81,3.24,6,4.93,9.38-7.29,3.37-17.27,9.47-15.42,23.17,15.28,51,39.58,97.18,72.65,139.88l-.37.14c41.46,6.14,47.6-56.26,71.79-80C-2753.68,688.51-2774.24,664.73-2778.39,653.12ZM-2799,668.49c7.41,4.87-5.37,35.34-5.11,45.87-6.12-.07-35.37,8.72-37,3.47a118.32,118.32,0,0,1-5.31-14.49c8.62,8.39,31,4.72,27.85-9.71,1.08-7.93,2.35-15.58,3.74-23.27l12.72-6.12A12.75,12.75,0,0,0-2799,668.49Zm-24.25,87.33c-5.61-10.15-10.5-20.68-16-31.75l25.78-5.28c3.12,11.54,6.41,22.67,9.06,34C-2802.65,762.15-2819.24,763.17-2823.29,755.82Zm76.46,9.49c-4.4,1-3-8.24-3.09-10.33,5.06-17.57-21.93-71.63-25.36-72-10.35,9.25-12.63,23-15,35.88.72,20.7,36.29,64.5,28.36,77.58-4.77,8-18.06,22-27.64,14.13-7-10.75-16.46-20.74-21.89-32.11l1-1.23c5.57,2.62,10.93,5.24,16.33,1.75,19.95-17.16-8.31-45.45-4.84-66.94,2.24-12.93,3.08-26.94,6.71-39.35,5-2.58,4.72-6.81,3.76-11.06a8.22,8.22,0,0,0-1.36-3.34l1.67-.8c.88,1.22,3.28,3.11,4.65,2.28l16,24c-.18.1,12.24,17.79,12.54,18.25C-2728.68,741.47-2728.75,721.71-2746.83,765.31Z"
                transform="translate(3086.58 77.03)" />
            <path
                d="M-2834.73,615l3.92,7.83c-9.74,2.15-18.89,4.32-27.93,6-1.5.28-3.05-1.08-3.61-2.15-1.62-3.11-1.63-7.21-10.5-4.3-1.56.51-4.88-1.36-4.5-2.63.52-1.67,4-5.08,6-5.57,13.07-3.28,26.09-6.11,39-8.72,1.83-.37,4.74,1,4.41,2-.71,2.16-3.24,4.61-5,6.94Z"
                transform="translate(3086.58 77.03)" />
            <path
                d="M-2847.28,594l4.11,8.2c-8.59,1.94-16.9,4-25,5.45-1.62.28-3.19-1.75-3.52-3.21-.8-3.6-2.74-5.49-9.87-3.19-4.09,1.32-7.09.64-6.66-2.4.45-3.23,3.75-5.29,8.28-6.31,10.93-2.47,21.85-4.86,32.78-7.32,4.25-1,8.69-1.88,8.83,1.48S-2842,592.52-2847.28,594Z"
                transform="translate(3086.58 77.03)" />
            <path
                d="M-2859.53,573.63l4,8c-7.57,1.71-14.56,3.49-21.34,4.64-1.56.26-3.28-1.38-3.48-2.68-.66-4.22-3.4-5.91-11-3.49-4.64,1.46-8.21,1.05-7.45-2.52s4.73-5.27,9.33-6.27c10.24-2.24,20.51-4.56,30.76-6.81,4.48-1,9.53-2.5,9.8,1.44C-2848.74,568.77-2851.49,570.72-2859.53,573.63Z"
                transform="translate(3086.58 77.03)" />
            <path
                d="M-2871.75,553l4,8.06c-6.44,1.47-12.34,3-18,4a3.2,3.2,0,0,1-3.25-2.39c-.69-4.58-3.82-6.29-12.06-3.6-4.72,1.55-9,1.59-8.4-2.15.65-4.08,5.39-5.62,10.31-6.68q15.36-3.33,30.77-6.82c4.83-1.09,9.45-1.85,8.67,2.34-.72,3.9-5.13,5.45-9.81,6.45A20.36,20.36,0,0,0-2871.75,553Z"
                transform="translate(3086.58 77.03)" />
            <path
                d="M-2884.51,532.32l4.16,8.3c-4.84,1.08-9.37,2.35-13.63,2.9-1.65.21-3.67-.87-3.78-2-.54-5.42-5-6.41-13.61-3.51-1.47.49-3.54,1.07-4.32.74-1.8-.75-4.35-1.75-4-3.19s3.94-4.69,5.84-5.16c13.1-3.24,26.17-6.14,39.12-8.67,1.85-.37,4.41,1.54,4.16,3s-3.37,3.92-5.76,5.27C-2878.49,531.21-2881.36,531.48-2884.51,532.32Z"
                transform="translate(3086.58 77.03)" />
            <path
                d="M-2896.07,512.26l4.16,8.3c-4.15.75-8,1.71-11.71,2-1.43.11-3.26-1.07-3.43-2.13-.81-5.29-4.81-6.52-12.11-4.23-1.25.39-3,.82-3.72.45-1.62-.84-3.92-2-3.72-3.34s3.15-4.3,4.78-4.64c11.23-2.35,22.46-4.36,33.61-6,1.59-.23,3.95,1.77,3.82,3.15s-2.69,3.59-4.7,4.74C-2890.88,511.55-2893.37,511.64-2896.07,512.26Z"
                transform="translate(3086.58 77.03)" />
            <path
                d="M-2906.9,491.85l4.16,8.3a103.8,103.8,0,0,1-10.94,1.61c-1.34.06-3.1-1.14-3.29-2.2-.93-5.23-4.72-6.56-11.51-4.52-1.15.35-2.81.72-3.48.34-1.55-.88-3.73-2.05-3.59-3.4s2.83-4.15,4.35-4.44q15.72-3,31.39-5c1.49-.19,3.77,1.85,3.69,3.2s-2.43,3.46-4.28,4.55C-2902,491.3-2904.38,491.32-2906.9,491.85Z"
                transform="translate(3086.58 77.03)" />
            <path
                d="M-2918,471.56l4.16,8.3a85.56,85.56,0,0,1-9.79,1.06,3.75,3.75,0,0,1-3.08-2.31c-1.09-5.15-4.57-6.63-10.6-5-1,.29-2.5.58-3.12.17-1.44-.93-3.47-2.18-3.41-3.49s2.35-3.91,3.71-4.12q14-2.18,28.06-3.36c1.34-.11,3.49,2,3.49,3.3s-2,3.27-3.63,4.24C-2913.62,471.25-2915.73,471.16-2918,471.56Z"
                transform="translate(3086.58 77.03)" />
            <path
                d="M-2929.95,449.73l4,8.06c-3.9.25-7.44.68-11,.56-.9,0-2.2-1.63-2.53-2.73-1.25-4.31-3.58-6.41-8.43-5.34-2.77.61-5.54-.09-5.81-3.41-.3-3.62,2.49-4.22,5.48-4.35q9.35-.43,18.69-1c2.93-.17,5.78-.08,6,3.62.23,3.44-2.35,4.11-5.2,4.23A6.91,6.91,0,0,0-2929.95,449.73Z"
                transform="translate(3086.58 77.03)" />
            <path
                d="M-2942.46,429l4.15,8.3a50.64,50.64,0,0,1-7.33-.13,4.38,4.38,0,0,1-2.62-2.53c-1.44-5-4.27-6.77-8.66-5.89a3.14,3.14,0,0,1-2.36-.19c-1.21-1-2.91-2.46-3-3.69s1.33-3.42,2.33-3.46c7-.29,14-.27,21,.05,1,.05,2.89,2.28,3.05,3.52s-1.15,2.84-2.26,3.57S-2940.8,428.84-2942.46,429Z"
                transform="translate(3086.58 77.03)" />
            <path
                d="M-2949.23,416a25.07,25.07,0,0,1-4.79.27,18.24,18.24,0,0,1-3.75-1.42c.61-1.16,1-3,1.87-3.3a6.27,6.27,0,0,1,4.4.75C-2950.55,412.86-2950.18,414.38-2949.23,416Z"
                transform="translate(3086.58 77.03)" />
            <path
                d="M-2330.43,824.76c32.34,9.26,62.18,44.4,102,29.93l-.4,0c24.65-33.61,41.4-70.22,48.53-111.8-.62-11.33-13.86-13-23.42-13.27,1.24-3.3,2-6.34,3.76-9.32.46-.79,3.71-1.53,6-1.93,5.07-.88,8.38-2.16,6.95-4.51-1.56-2.57-6.21-3-11.93-2.33-13.81,1.61-27.8,3.08-41.58,4.94-4.15.56-9.84,2-10.47,3.36s3.71,3.28,5.86,4.93l2.4-.35c-.45,1-.89,2-1.53,3.39-10.26-.73-19.55-1.61-28.14,2.11-5.92,2.57-9.59,5.35-12.84,9.89a49.36,49.36,0,0,0-5.47,10.21,14.34,14.34,0,0,0-1,3.16C-2294,763.5-2306.13,783.64-2330.43,824.76Zm71.63-70.46,16.82.57c3.74,5.35,7.28,10.6,10.59,16,.16,11.18,26.17,6.89,34-1.68a66.73,66.73,0,0,1-2.84,11.78c-.71,4.09-35.35,7-42.18,8.89-2.53-7.34-26.1-25.29-18.88-31.32A10.12,10.12,0,0,0-2258.8,754.3Zm26.5,60.51c.1-7.91.94-16.13,1.52-24.77l29.83-4.21c-3.64,9-6.68,17.34-10.48,25.42C-2214.13,817-2231.93,821.13-2232.3,814.81Zm-75.7-18.58c.23-.4,10.58-16.44,10.35-16.48l13.75-22.59c1.84.3,5.56-2.27,6.22-3.5l2.26.08a5,5,0,0,0-.55,3c.24,3.54,1.32,6.8,7.95,7.14,8,8,13,17.72,19.16,26,9.52,13.28-13.4,39.26,11.94,43.76,6.44.52,11.4-2.53,16.6-5.65l1.34.44c-3.09,8.16-10.53,16.48-15.14,24.35-7.76,6.86-24.57,2.91-31.51-.18-11.74-5.13,13.87-41.75,9-55.47-6.3-8-13-16.93-27.83-20.3-3.85,1.37-16.44,45.88-5.46,55.19.48,1.3,4.79,6.38-.14,7C-2323.91,817.58-2328,829.43-2308,796.23Z"
                transform="translate(3086.58 77.03)" />
            <path
                d="M-2233.49,702.89l-2.68,8.19c12.78-1.47,24.76-2.73,36.43-4.32a5.59,5.59,0,0,0,4-3.09c1.29-3.27.34-6.89,12.15-7.36,2.06-.09,5.83-2.88,5.07-3.88-1-1.31-6.23-3.16-8.81-2.93-17.38,1.58-34.72,3.57-52,5.74-2.46.31-5.75,2.59-5,3.39,1.56,1.69,5.5,3,8.44,4.44Z"
                transform="translate(3086.58 77.03)" />
            <path
                d="M-2223.4,679.35l-3,9.08c11.58-1.25,22.77-2.24,33.47-3.79a5,5,0,0,0,3.76-4.19c.19-3.63,2.25-6.09,12-6.45,5.55-.2,9.27-1.9,8.09-4.62-1.26-2.92-6-3.72-12.13-3.08-14.87,1.55-29.79,3.17-44.84,4.74-5.88.62-12,1.33-11.18,4.61S-2230.72,679.84-2223.4,679.35Z"
                transform="translate(3086.58 77.03)" />
            <path
                d="M-2212.94,655.16l-3.13,9.41c10.47-1.08,20.14-1.86,29.34-3.19,2.12-.31,4-2.54,4-3.88-.11-4.42,3.15-7.11,13.86-7.48,6.47-.22,11.11-1.94,9.38-5.24s-7.41-3.63-13.81-3c-14.3,1.5-28.74,2.93-43.23,4.42-6.36.65-13.66,1-12.83,5.11C-2228.82,654.25-2224.54,655.2-2212.94,655.16Z"
                transform="translate(3086.58 77.03)" />
            <path
                d="M-2202,629.25l-3.36,10c9.15-.88,17.56-1.46,25.51-2.61,2-.29,3.89-2.4,3.86-3.7-.11-5.09,3.79-8.1,15.66-8.32,6.76-.12,12.62-1.69,11.08-5.47-1.69-4.17-8.56-4-15.58-3.33q-22.07,2.22-44.5,4.31c-7.07.66-13.76,1.6-11.41,5.87,2.15,3.92,8.71,3.91,15.44,3.2C-2204.42,629.13-2203.45,629.23-2202,629.25Z"
                transform="translate(3086.58 77.03)" />
            <path
                d="M-2189.59,601.56l-3.71,11c7.05-.67,13.72-1,19.79-2,2.36-.4,4.94-2.38,4.85-3.64-.47-6.32,5.68-9.19,18.4-9.22,2.16,0,5.19-.15,6.23-.83,2.39-1.55,5.81-3.69,5.08-5.21s-6.49-3.88-9.29-3.69c-19.41,1.37-38.86,3.14-58.2,5.31-2.78.31-5.91,3.55-5.12,5.12s5.95,3.18,9.75,3.78C-2198.44,602.64-2194.29,601.83-2189.59,601.56Z"
                transform="translate(3086.58 77.03)" />
            <path
                d="M-2178,573.33l-4,11.64c6.19-.76,12-1.17,17.38-2.31,2.09-.44,4.48-2.56,4.48-3.9,0-6.7,5.59-9.8,16.71-10,1.89,0,4.55-.21,5.51-.93,2.2-1.68,5.34-4,4.8-5.6s-5.42-4.06-7.88-3.83c-17.07,1.64-34.16,3.7-51.14,6.18-2.43.36-5.36,3.82-4.79,5.47s5,3.32,8.22,3.92C-2185.81,574.56-2182.15,573.66-2178,573.33Z"
                transform="translate(3086.58 77.03)" />
            <path
                d="M-2166.92,543.17l-4.24,12.39c5.93-.81,11.51-1.24,16.68-2.45,2-.47,4.37-2.73,4.43-4.16.28-7.14,5.72-10.45,16.36-10.61,1.8,0,4.36-.22,5.3-1,2.17-1.79,5.27-4.25,4.82-6s-5-4.33-7.39-4.08c-16.38,1.75-32.78,4-49.08,6.61-2.34.38-5.27,4.06-4.79,5.82s4.61,3.53,7.7,4.18C-2174.39,544.47-2170.86,543.51-2166.92,543.17Z"
                transform="translate(3086.58 77.03)" />
            <path
                d="M-2154.67,511.05l-4.53,13.23c5.43-.9,10.53-1.4,15.3-2.73,1.85-.51,4.14-2.94,4.27-4.46.65-7.61,5.79-11.18,15.5-11.43,1.65,0,4-.27,4.89-1.1,2.09-1.93,5-4.58,4.74-6.41s-4.35-4.59-6.52-4.3c-15,2-30.09,4.48-45.06,7.43-2.15.43-5,4.37-4.67,6.24s4,3.72,6.76,4.39C-2161.53,512.49-2158.27,511.45-2154.67,511.05Z"
                transform="translate(3086.58 77.03)" />
            <path
                d="M-2140.44,474l-4.76,13.82c6.28-1.36,12-2.3,17.62-4,1.43-.44,3.22-3.39,3.53-5.18,1.23-7,4.62-11.26,12.66-11.81,4.59-.32,9-2.61,8.91-7.84-.05-5.77-4.73-5.44-9.65-4.29q-15.42,3.57-30.87,6.93c-4.85,1.06-9.52,2.5-9,8.31.44,5.34,4.78,5.2,9.42,4.1A10.88,10.88,0,0,1-2140.44,474Z"
                transform="translate(3086.58 77.03)" />
            <path
                d="M-2124,435.65l-5.31,15.27c4.29-1.19,8.27-1.91,12.11-3.57,1.5-.64,3.59-3.49,3.9-5.24,1.57-8.75,6-13,13.54-13.6,1.28-.1,3.13-.44,3.94-1.43,1.89-2.28,4.55-5.43,4.57-7.53s-2.72-5.14-4.44-4.74c-11.89,2.8-23.82,6.14-35.7,10-1.7.55-4.43,5.16-4.42,7.28s2.53,4.14,4.55,4.82C-2129.48,437.5-2126.83,436.21-2124,435.65Z"
                transform="translate(3086.58 77.03)" />
            <path
                d="M-2114.94,410.77c3.45-.71,6-.83,8.26-1.82s4.16-2.79,6.23-4.25c-1.23-1.71-2.19-4.79-3.76-4.83-2.32-.06-5.46,1.58-7.49,3.41C-2113.24,404.68-2113.61,407.49-2114.94,410.77Z"
                transform="translate(3086.58 77.03)" />
            <path
                d="M-2261.92,1325c-5.86-2.84-8.14-5.93-11.57-7.93a1.27,1.27,0,0,0-.11-.13l0,0c-2.37-1.39-4.73-2.8-7-4.28a74.45,74.45,0,0,1-15-12.81,122.41,122.41,0,0,0-13.83-12.89,86.25,86.25,0,0,0-11.33-8.12,3.14,3.14,0,0,1,.53,0c-.1-.08-.22-.16-.32-.25-1.51-1.41-1.85-3.28-2.17-5.12a64.59,64.59,0,0,1-.76-6.91c-.08-1.16-64.64-123.41-59-162.81,4.6-32.36-48.62-123.73-88.78-156l.41-.11c-44.51-3.32-61.39,48.28-89.74,70.09,141.56,144.61-13.92,98.85,145.07,247.91,17.6,13.32,17.74,46.65,19.13,62.6s3.36,20,9.08,19.25c20.61,5.3,41.7,4.79,62.58,11.71,21.77,11.61,68.81,28.55,88.33,4.18C-2220.37,1343.35-2247,1333-2261.92,1325Zm-134.92-243c3.38,14.62,8.57,39.15,12.18,55.08,1,4.32-6.69,10.31-11.3,12.4C-2385.56,1137.91-2406.42,1097.13-2396.84,1082.06Zm12.09,62.18c11,24,32.33,74.24,40.51,90.85.23,0,3.54,6,4.5,9.26,0,0,10.23,21,10.08,21.86-.49,2.9-.34,7.12-2.23,9.7-1.22.25-2.48.39-3.72.57a131.62,131.62,0,0,0-13.55,2.75c-.86.13-1.73.26-2.59.42-5.21,1-10.74,3.85-16.17,3.08-2.27-.31-4.68-.84-6.95-1.35-.9-.54-1.83-1-2.74-1.55l0-.23a1.34,1.34,0,0,1,0-.2,67,67,0,0,0-4.86-6.24c-1.49-1.59-2.79-3.3-4.25-4.88a12,12,0,0,1-2.86-3.87,1.85,1.85,0,0,1,0-.23c-.62-.54-1.25-1.09-1.89-1.68-.19,0-31.44-51.62-32-52.41-1.21-1.82,49.86,60.06,50.3,59.79,3.86-4.13,13.12-4,17.72-8.33-19.49-22.79-46.09-57.67-61.63-80-10.28-14.45-1.45-27.13-15.73-36.71.27-.41,3.23-4.64,3.5-5.05C-2409.59,1146.6-2402.38,1163.27-2384.75,1144.24Zm-58.39-29.62c-9.43-.57-13.41-23.55-15-28.36,9.1,5.16,8.56,27.3,18.46,20.62a1.49,1.49,0,0,0,0,.21c11.69-13.47,20.55,29.85,24.28,36.18-12.71-7.41-37.51-12.93-26.8-27.54A1.87,1.87,0,0,1-2443.14,1114.62Zm25.18-90.51a88.87,88.87,0,0,1,6.71,12.62c-10.57-7.2-37.48-3.33-33.85,9.57-2.47,12.85-5.7,25.28-9.36,39-11.57-1.79-8.42-10.17-15.54-14.8-9.08-4.46,7.75-33,7.72-42.29C-2454.94,1028.05-2420,1019.62-2418,1024.11Zm-21.24-31.28c6.48,8.11,12.26,16.71,18.87,25.95L-2451,1024c-3.5-9.8-7.14-19-9.94-28.22C-2462.75,988.32-2443.8,987.06-2439.2,992.83Zm-52.33,86.8-21.19-21.15c.21-.12-15.49-15-15.86-15.41-31.33-31.58-23.1-19.22,2.37-55.77,5.09-.92,2.65,6.5,2.64,8.17-7.46,14.59,20.47,61.64,24.69,61.92,51-39.37-16.12-67.62-8.06-94.39,26.83-25.65,37.56-5.78,54.45,12.33l-1.17,1c-6.21-1.87-12.15-3.74-18.32-.91-23.39,14,8.12,36.38,3.34,55-3.17,11.59-4.74,24.46-9.77,36.27-6.34,2.61-6.26,6.69-5.28,10.8,1.13,5.85,7.43,6.23,13.7,7.27-6.21,3.7-11.55,1.49-17.52-7.36Zm6.13,6.38,10.61,2.89-11.58,8.87C-2486,1093.33-2485.75,1090.24-2485.4,1086Zm76.43,168.9c-41-29-78.71-69.93-71.58-114.81,1.51-4.93,5.72-16.16,14.05-15.74-38.16,58.33,19.76,55.8,54.37,128.28C-2415.57,1250.7-2405.54,1256.85-2409,1254.91Zm24,74.35a7.19,7.19,0,0,1-4.38-.1,4.24,4.24,0,0,0-2.22-1.31c-9.65-10.86,12.48-21.11,12.06-4.82,1.95.4,3.91.69,5.82,1.11,1.62-5.59,7-17.19,9.79-23a5,5,0,0,0,1.19.74c-.74,7.49-2.89,21.52-3.43,25.26C-2367,1336.92-2378.66,1330-2385,1329.26Zm26.63,5.08c-8.26-5.35,3.18-27.44-.89-29.86,27.12,16.13,22.84,22.87,16.61,36.34C-2342.65,1340.82-2351.94,1339.38-2358.37,1334.34Zm21.29,5.12a5.27,5.27,0,0,1,6-4.13,4.73,4.73,0,0,0,3.56,1.28C-2316.42,1345.48-2340.58,1354-2337.08,1339.46Zm25.51,14.75c-3.37-7.19-8.7-18.07-14.33-25.48a3.1,3.1,0,0,1-.51-.27c-1.49-1.2-2.24-2.79-3.23-4.3s-2.32-2.94-3.3-4.51a21.68,21.68,0,0,0-1.66-2.06,5.74,5.74,0,0,1-.53-.75,208,208,0,0,0-18.57-18.57c-.13-.19-.22-.38-.34-.57a19.88,19.88,0,0,1-3.14-1.28c-2.17-1.08-4.14-2.45-6.22-3.65a4.91,4.91,0,0,1-.45-1.5c.09-.24.17-.48.25-.72,6.23-4.39,14-6.69,22-7.87l2.2-.1a26.15,26.15,0,0,0,6.57-.79c2.67-.16,5.32-.24,7.91-.26a1.92,1.92,0,0,0,.65.34c4.77,2.52,8.88,5.93,13,9.3a148.48,148.48,0,0,1,14.42,13.95c8.72,9.24,20.44,15.27,31.69,21.82.71.41,9.83,4.41,15.38,7.66,6.51,3.82,15.77,11.69,14.79,18.89C-2241.75,1380.73-2296.51,1366.76-2311.57,1354.21Z"
                transform="translate(3086.58 77.03)" />
            <path
                d="M-2319.54,1288.29c-6.18,2.14-10.91,7.18-15.9,11.13-2.26,2.23-3,4.52-2,4.62s18.51-18.16,24.67-13.31C-2310.75,1292.21-2316.48,1287.52-2319.54,1288.29Z"
                transform="translate(3086.58 77.03)" />
            <path
                d="M-2298.89,1305c-8.72,2.71-15.64,8.39-22.85,12.94-3.3,2.52-4.57,5-3.17,5s27-20.59,35.15-15.88C-2287.06,1308.47-2294.6,1303.91-2298.89,1305Z"
                transform="translate(3086.58 77.03)" />
            <path
                d="M-2797.95,1312.3c-9.5-8.46-12.29-2.72-7.3-2.87a108.89,108.89,0,0,1,9.75,7.84c.45,1.06-.75,3.57,1,3.53C-2789.15,1319.27-2795.23,1313.63-2797.95,1312.3Z"
                transform="translate(3086.58 77.03)" />
            <path
                d="M-2829.9,1328c-9.73-7.3-12.55-2.39-7.47-2.49a110.13,110.13,0,0,1,10,6.77c.46.91-.75,3.06,1,3C-2820.89,1334-2827.12,1329.17-2829.9,1328Z"
                transform="translate(3086.58 77.03)" />
            <path
                d="M-2418.64,418.7a52,52,0,0,1-11.21-5.19c-1.29,0-17.12.25-19.65.68h0c6.39,2.77,18.18,9.39,24.57,11.81,9.28,3.51,19.12,4.53,29.07,4,9.42-.53,18.76-2.29,28-4.07l-2.11-.55c-2.19-.57-10.67-3.33-12.78-4a36.91,36.91,0,0,0-4.65-1.24c-1,.13-2,.3-3,.42C-2399.88,421.72-2409.5,421.62-2418.64,418.7Z"
                transform="translate(3086.58 77.03)" />
            <path
                d="M-2326.85,432.73c32.86,9.95,84.33-1.21,80.67-4.87-.65-.65-28.5,1.81-45.5,2.4-22.33.78-36.92-7.92-57.45-14.94,13.85-5.91,38.07-12.56,43.57-22.86-15.9,6.83-42.2,13.7-60.19,17.74-26.15-6.83-54.76-13.13-82-10.68-43.39-28.1-88.48,13.82-130.22,24.79-12.72,2.42-25.53,3.09-41.05,3.5-19.73-2.32-23.29,9.63-37.81,12.92-13-1-14.13,9.91-23.27,14.66-15.88,10.89-76.05,6.31-68.15,31,9.67,19.13-5.09,15,18.71,25.87,7.66-2.32,12.41-24.43,6.38-27.57,7.75,4.41,5.35,25.67-1.71,28.68-.28,2.46,5.41,4.39,6.73,6.38,6.52-5.85,21.2.92,32.73,1.15,22.14.93,27.68-4.94,51.14-6-11.51,1.35-21.75,5-32.31,7.43-23.45,6.94-37.45-6.36-48.08.62,33.52,37.92,124.24,29.34,123.21,92.34-2.82,2.52-8.39,5.4-21.14,8.37-79.22,13.39-82.49,34.47-125,81.07,2.55,3.46,17.17,25.45,19.38,29.43-18.65,29-32.91,86.17-74.89,87.22,36,73.82,94-21.58,115.34-43.68-4.6-6.69-14.09-23.94-14.09-23.94,16.44,10.56,30.6,46.94,32.91,56.12,2.09,8.35-11.58,33.31,16.71,94.78,45.26,14.25,39,95.22,55.19,117.08,0,0,12.43-10.95,24.27-7.34,27.82-16.48,36.48-64.77,82.29-70.76,3.39-.45,4.13-3.52,4.76-6.69,17.64-89.14,61.84-134.56,61.84-134.56s-15.36-29.61-18.85-42.22c-.32-1.18,29.91,44.14,30.28,44.08,11.35,20.24,16.68,37,32.69,53s36.52,37.21,39.32,41.68c30.33,42.06,77.26-11.28,97.92-38.17-35.82,12.61-69.44-26.63-103.92-33.36-3.36-1.49,1.57-5,3.22-8,17-34.1,57.35-64,10.89-93.79-3.37-35.55-36.29-85.52-81.12-88.72-12-12.11-45.28-18.63-57.86-26.47-3.78-19.61,1.11-39.35-1.3-59-5.45-22.46-4.19-48.9-13.59-69.9-4.58,7.37-5,16.23-11.13,23.35-5.84,11.35-28.67,23.59-33.42,5.58,5.68,8.58,18.41,5.88,25.66-1.63,13-13.48,13.88-22.09,16.3-40.44,1.75-22-24.22-31.49-38.63-16.89,3.84-7.55,6.59-8.58,15.33-10.48-8.64-5.65-9.41-6.14-16.95-8.85C-2460.23,397.66-2410.14,407.5-2326.85,432.73Zm-298.65,42.42c-6.48-1.2-12.87-2.87-19.79-4.45,19.53-3.85,26.58,11.15,44.36-8.79C-2606.35,473.11-2614.29,477.23-2625.5,475.15ZM-2638,457.74c2.21-11.25,30.44-17.39,31.63-1.92C-2605.36,468.68-2637.47,469.2-2638,457.74Zm-7.49,2.48c6.22-25.71,34.16-30.51,45.37-9.8C-2615.14,434.12-2634,438.19-2645.47,460.22Zm133,.95c3.81-2.36,5-2.7,10.27-2.92-22.07,12.51,10.4,13.27.33,24.72C-2499.09,472.7-2526.69,471.68-2512.49,461.17Zm-2-45.53c-10.22,3.42-20.34,5.06-32.59,8.42,9.91-6.24,60.59-29.12,80.34-21.46C-2485.4,404.77-2495.36,409-2514.51,415.64Z"
                transform="translate(3086.58 77.03)" />
            <path d="M-2547.7,424.39s.19-.1.42-.23C-2547.16,424.28-2546.85,424.45-2547.7,424.39Z"
                transform="translate(3086.58 77.03)" />
        </g>
    </g>
    <g  class="vote2-group" id="vote2-row4-group">
        <rect id="vote2-row4" x="-3081.4" y="524.52" width="1100" height="1103" rx="12"
            transform="translate(-520.83 -1378.35) rotate(-90)"
            style="stroke:#fff;stroke-miterlimit:10;stroke-width:6.654520653525598px;fill:url(#vote2-linear-gradient-4)" />
        <g class="vote2-row-xalian" id="vote2-row4-xalian" style="opacity:0">
            <path d="M-2814.13,1265.45v0a.13.13,0,0,1,0,.06Z" transform="translate(3086.58 77.03)" />
            <path
                d="M-2213.86,757.09s-3.78,14.8-3,27.27a87.12,87.12,0,0,0,6.23,26.75,86.65,86.65,0,0,0,3-27.26A87,87,0,0,0-2213.86,757.09Z"
                transform="translate(3086.58 77.03)" />
            <path
                d="M-2464.18,762.48s-4,14.74-3.49,27.22a86.83,86.83,0,0,0,5.78,26.84,86.86,86.86,0,0,0,3.5-27.21A87,87,0,0,0-2464.18,762.48Z"
                transform="translate(3086.58 77.03)" />
            <path
                d="M-2056.78,1160.37c-1.26-4.59-5.09-6.77-10.72-6.13-10.28,1.13-11.35,12.39-20.26,16.24-27.69,10.19-23.63-28.56-2.52-34.8,17.08-9.76-4.6-28.8-14.7-13.6-3.95,14-5.47,28-21.08,35.86-11.69,6.55-16.5-5.93-14.27-15-.86-21.62-40.48-9-21.48,7.5,39.69,16.5,15.83,39.73-8.43,56-31.31,18.59-1.4-41.64-.35-52,1.08-5.79-3.12-9.88-9.81-10.43-23.26-2.92-36.76,23.61-58.18,24-.63-1.11-1.39-2.16-2.07-3.22h0c-16-10.8-9.77-29.57-4.36-46.09a1.24,1.24,0,0,0-1.75-1.49c-9.58,5.07-21.13,5.37-31.57,2.36,1.18-3.61,44.63,3.75,35.68-23.23-10.29,9.81-25.82,9.65-38.9,6-3.51-3.49,27,3,37.79-9.63a2.36,2.36,0,0,0,.5-1.83,46.15,46.15,0,0,0-2.72-10.79c-9.32,12.73-30.46,15.54-43.71,7.19,8.46-.67,23.36,2.89,34.09-3.12a12.17,12.17,0,0,0,5.19-14.8c-3.47-9.66-5.23-21.06-1.85-30.15-6.22-5.32-14.35-7.43-20.79-12.37-13-12.54-16.67-16.79,3.87-2,10.89,6.85,23.94,11.73,34.67,17.93,15.54,11,33,28.85,52.88,15.41,50-42.17,23.07-66.07,110-105.73,8.09-6.84-4.89-17.1-11.59-10-7.65,11.1-12.8,22.94-29.27,23.7-6.58.78-11-2.14-11.38-7.9-2.27-23.53,19.61-29.69,16.24-43-4.19-13.24-24.28-1.82-20,9.1,7.24,14.47-11.14,55.18-23.59,26.11-1.74-4.86.21-9.49,1.91-14.11,4.38-17.59-30.31-15.41-16,3,9.43,9,20.53,35.84,4.65,41.94-9.57,6.23-22.53-14.51-28.29-.85-1.79,8.46,9.37,7.14,14.93,6.33,38.07-1.3,7.81,40.54-8.51,50.73-21.67,12-34.23-20.2-52.12-27.61-17.44-7.61-20.95-27.46-39.46-31.14,2.42-2.25,8.62-4.94,10.38-7.93,54.83-8,66.11-55.1,84-97a86.14,86.14,0,0,0,9.9-44.57c30.93-152.52-186.29-58.4-77.29,2.37-32-4.16-46.08-37-25.52-63.78-8.35-1.21-12-2.52-20.36-3.1,2.77-5.53,14.27-33.72,16.53-41.75,131.53-232,36.64-100.08-24.81,42a333,333,0,0,0-67.26,2.88c-22.12-63.28-66.16-117.28-96-176.75,1.54,25.86,20.32,47.3,31.81,70.23,21,33.7,41.16,70.36,55,108-7.18,1.22-14.34,2.7-21.5,4.35,12.81,15.77,5.06,45.19-13,56.56,31-38.59,8.44-76-29.7-76.53-19.21-.08-44.29-2.24-55.71,15.48-11,13.92-7.5,29.06-5.16,44.61-4.5,30.37,6.32,59.22,23.48,84.57,20.12,45.38,39.55,72.66,102,81.17-24.19-2.29-30.8,10.72-37.39,31.11-12.38,9.17-26.09,17.29-36.27,28.65-11.79,14.76-27.7,11.49-38.38-2.43-12.54-13.92-30-41.85,2.52-41.16,5.56.81,16.72,2.13,14.93-6.32-1.25-7.1-10.87-4.81-14.81-1.19-28.7,14.68-23.89-28.27-8.83-39.9,14.6-17-20.41-21.36-16-3,7.15,9.57-2.51,32.71-15,21.1-17.06-19.45,3-39.67-14.63-47.48-11.88-4.58-16.74,11.48-8.4,17.67,34.63,39.66-7.84,55.42-28.07,14.8-6.66-7.09-19.73,3.14-11.59,10,24.57,12.73,52.2,26.24,67.78,49.49,57.81,103.47,61.62,51.67,142.63,14.71-6,9.72-22.79,16.25-24.36,17,6.62,12,10.71,33.62,10.07,36.15a4.66,4.66,0,0,0,2.21,5.26c8.69,4.8,23.43,4.46,32.38,5.39,4.29-.22-.48,3.46-11.85,3.46-5.76-.36-20.63-2-24.86-7.08-.63,1.81-1.82,5.83-2.61,8.57a4.15,4.15,0,0,0,1.74,4.65c5.35,3.45,12,4.74,18.17,6.13,3.49.68,18.65.48,16.91,2.16-10.82,4.62-28.2.17-38.14-5.83a25.71,25.71,0,0,0,1.58,10.6,6.79,6.79,0,0,0,4.39,4.21c9.45,3,19.2,6.37,29.18,5.83,3-.38-2.62,5-13.67,2.33-5.45-1.34-10.9-2.71-16.25-4.42a.54.54,0,0,1,.07.13,2.5,2.5,0,0,0-.38-.06.48.48,0,0,0-.48.48,2.11,2.11,0,0,0-.14,1.34,15.32,15.32,0,0,0,1.65,5.14c.86,1.64,2,3.11,2.83,4.78.28.58.52,1.17.75,1.77,2.2,13.72-1.69,28-12.29,38.13-20.93-3.12-34.74-25.5-57.44-22.65-6.66.77-10.68,5-9.35,10.74,3.5,17.61,17.91,33.15,15.29,51.67-1.81,15.14-45-21.13-44-28.84-8.58-22.56,39.53-24.27,19.27-43.5-6.76-5.24-23,.22-21.33,10.15,2.62,9-1.65,21.62-13.62,15.48-15.92-7.3-18.06-21.25-22.61-35.15-10.65-14.79-31.67,4.82-14.1,14.07,21.34,5.52,27.11,44.12-1,34.86-9.07-3.55-10.62-14.77-20.94-15.56-5.65-.46-9.39,1.84-10.44,6.47-3,14.11,15.26,10,23.76,12.63,12.78,4.26,25.43,8.82,38,13.51,16.51,5.13,124.63,105.43,125.66,58.23-4-8.85-43.69-71.49-9.07-44.87a84,84,0,0,1,16.17,13.28h0c7.29,7.85,14.53,15.68,21.62,23.67,1.66,1.91-32-24.65-36.63-29.58-.65,1-6.11,0,2.9,15.35,26.7,31-4.28,39.57-4.44,67.92-.24,45.18,25,33.28,10.4,60.81a61.44,61.44,0,0,0-34.91,29.19c-4.51,12.51-11.88,24.9-18,37-53.47,89.67,62.93,55.93,28.51,139.87-37.31-9.41-47.41-27.42-71.61-53.18,14.11-.17,31.2-1.93,43.57-8.45-10.22-10.64-21.33-24.16-20.55-39.53h0c3.66-24.37,19.64-49.4,30.37-72-31.47-8-47.46-14.55-85.09,7-12.84-10.5-44.69-27-75.6-24.71l-38.33-22c-5-38.25-52.91-49.72-61-87.92-4.44-40.41.49-42.32-30.2-75.25-34-64.69,10.22-58.55-48.67-130.73-5.8-10.5,2-38,1.58-52.57-.67-22.62-12.24-36.8-15-52.13-2.59-14.22-2.82-43.5.62-57.58,3-9.32,6.43-15.41,6.62-24.06,1.47-11.81-7.89-30.48-12.47-47.26-6.6-19.58,3.76-48.29,4-65.63-1.51-11.58-11.91-43.49-23.45-63.41-30-38.06,6.89-80.15-20.46-101.51l-.88.71c2.74,5.58,7.93,11.48,5.22,17.31-9.39,21-6.05,47.72-16.71,67.67-3.61-1.86-7-4.41-6-8.79,2.42-26.67-13.12-55.52,3.06-80-21.55,3.67-14.81,45.37-20.13,61.9-5,23.27-5.48,48.1-17.32,69,5.18,4.36,18.15,10.89,14.93,18.12-48.38-45.42-57.06-30.2-82.53,21-14.31,23.89-29.5,9.82-36.08,12.86-7.73-.89-10.78,13.28-1.91,12.84,1.89-.37,4.18-.45,5.26-2.28,7.4-5,17.57-7.65,20.54,4.57l.12-.07c.27,1.72-19.1,17.91-22,19-3.9,1.21-3.59,9.75-3.33,13.4-2.92,4.7-3.35,16-1,20.23-1.41,13.57,8.5.69,13.22-1.81.54.1,11.66-4.77,13.15-5.75a13.25,13.25,0,0,1-.29,5.22,1.29,1.29,0,0,0-.17.16c-2.48,8.86-11.1,20.9-19.49,23.64-5.71.79-11.41,17.75-5,20.16,8.6,3.24,12.6-25.5,29.78-34.34,32.34-18.9,33.28-91.29,70.67-47.81-10.2,43.12,21.34,68.19,19.5,82.41-5.26,9.17-4.07,24.79-4.07,37.19,14.91,2.88,31.35,8.84,42.9,18.51h0c3.34,2.51,13.79,12,7.32,9.61-20-13.83-41.19-27-66.59-24.86-11.55,2.13-16.88,15.45-25,22.77-25.74,28.79-20.74,57.89-70.46,45.11-6.8.33-10,21.92-.52,19.56,10-6,20.05-17.72,30-6.4-9.57,12.29-36.57,6.78-37.65,16.64-1.16,13.69-.64,16.63,12.52,5.82,8-5.77,20.36-14.27,28-16.9.85,4.76-1,10.07-4,14l.71-.46c-12.94,25.5-28.79,19.15-34.64,35.49-6.38,16.89,10.46,20.2,16,3.72,11.07-30.62,34.72-27.67,46.58-56.3,19.39-16.25,24.82-58.85,55.68-57,.18,13.73,5.07,40.66,8.48,57.8-44.89-15.48-49.81,10.3-67.65,41.63-4.93,16.89-21.46,21.26-26.55,37.43-8.56,12.9-37.67,3.71-33.76,20.16,1.27,9.74,14.39-6.4,18.32-7.29.76.14,16.24-6.15,18.31-7.42-1.16,25.13-38.94,16-35.2,30.91-1.93,13.43,23.37-9.55,30.94-14.37-12.85,25.59-32.53,25.16-33.19,32.5-1.13,12.63,11.66,10.66,15.78,3.71,7.31-19.56,21.23-28.5,34.61-38,3.86-2.93,10.53-16.46,17.41-30.4a227.89,227.89,0,0,0,17.36-21.94c11.76-18.74,26.37-33.58,47.11-14.13,1.17,6.76-4.25,59.42,9.21,78.9,18.71,27.05,14.62,73.82,15,73.94,13.9,3.84,37.93,7,42.23,20.82-12.09-9.29-25.75-13-40.48-16.52-80.82-59.64-72.62,68.1-150.31,45-3.87.75-6.56,4.94-6.75,9.55,1.54,20.51,25.12-14.85,37.08,1.07,11.54,12.24-4.36,13.75-14.33,16.25-8.37,4.52-25.18-1.37-25.52,10.55-.69,3-.85,7.14,1.3,7.47,2.54.4,5.26-3.65,9.68-6.87,6.87-6.59,20.61-7.38,28.74-11.4-12.61,20.33-29.39,15.64-36,29.3-6.56,15,11.68,15.76,16.6,3.07,7.63-16.2,23-23.88,36.43-31.39,14.69-18.57,38.36-45.57,61.36-59,17,.49,29,13.49,43.68,20.39,11.37,6.54,18.85,30.15,17.88,36.23v0l-.06.35c-99.43-54-85.36,70.66-172,73.1-3.15.75-3.38,3.3-4,7.86-1.06,6.39,6.12,2.07,9.27,0,2.47-1.66,11.67-3.76,13.28-4.25.56.27,13.51-2.51,15.31-3.27a17.34,17.34,0,0,1-1.49,6.08c-8.47,5.94-23.71,8.53-33.23,9.65.23.34-3.51-1-3.92.19-1.15,3.23-2,11.77,1.87,9,8.92-8,16.36-5.43,28.05-9-5.48,5.5-12.68,12.92-19.13,13-9.26.2-15,21.82-8.79,26.69,3.07,2.41,7.41-5.27,10.77-11.58,7.22-13.58,18.73-20.86,27.62-25.21,1-.5,6.17-1,9-6.37,10.54-12.32,39.73-39.49,53.42-49.27,8.93-8.3,17.13-19.3,30.48-20.44,124.16,26.68,49.16,95.68,118.11,141.06,4.95-4.28,9.49-12,13.41-17.39,2.23-3.07,13.79-6.05,10.86-4.13-5.42,3.8-12.81,17.39-14.62,21.13-127.46,79.74-24.64,52.22-29.45,141.14-4.54,6.62,8,11.6,11.44,6.9,3.83-3.94-1.11-7.44-3.05-10.76-.75-3.74-1.18-9.15-1.36-10.36.36-.49-.4-13.26-.89-15.1a19,19,0,0,1,6,2.4c4.23,8.93,3.3,28.33,2.84,29.11h0c-3.73,6.21,7.53,10.79,9.51,4.92,1.27-2.58-9.63-23.23-.63-28.23,16.72,16.32-6,33.16,27.45,30.77,4.79-5.5-15.08-13-19.45-36.77-1.57-12.39-14.17-12.67-27.79-28.68-47.21-45.32,24.17-53.83,38.77-66.58,3.61,2.82,67.66,18.5,72,20.26,1,24-4,51-10,57-8,21-20,29-15.55,51.34,4.81,3.11,10.73.94,11.27-1.78.36-1.78-3.14-6.38-4.07-8.85-3.22-8.64,12.48-31.17,12.82-28.95.3,1.9,2.44,18.3,2.42,18.33-1.89,8.85-5.89,23.91,6.32,22.3,10.94-.18.46-10-.18-13.45.45-.34,1.2-21.23,1-23,13.88,6.47,15.64,22.07,12.2,33.65-2.64,4.12,11.16,4.59,14.24,1.77,3.4-1.45-5.46-7-4.07-14.17-13.4-45.17-7.43-90.53-7.26-91.18,2.89-8.52,2.26-18.34,9.28-25.1,5-5.14,26.84-24.24,28.59-23.5-15,23.78-27.41,20.38-32.85,50.41h0c-1.75,10.68-5.2,25.21-.13,32.7,4.59,6.46,14.23,23,34.57,31.88,3.91,1.7,4,7.5,7.2,10.12,2.3,9.11,0,16.15-3.71,24.27-.45,7.88,21.78,4.5,20.92,2.79-.77-10.81-19-15.21-4.5-23.91,6.26,2.83,10.24,12.93,11,19.1-3.33,7.2,8.82,10.29,14,8.12,4.19-2.16-10.13-14.39-10.79-16,.17-.53-6.53-11.52-7.9-13,27.8,2,26,23.35,38.15,29.13,16.4,4,21.93-2.47,6.62-11.5-9-7-17.27-15.46-28-26.26-4.4-3.83-36.92-11.68-53.19-36.47-1.83-2.79,3.95-11.27,4.09-19.9,28,10.26,56.34,23.75,81.16,36.74,13.21,8,11.13,34.46,13.87,46.19.66,2.83,4,8.44,7.06,9.4,2.67.83,18.27-1.65,7.09-8.35-8.26-5.55-8.05-10.37-1.05-14.56,7.93,3.8,9.05,13,11.3,20.3,1.65,2.48,4.56,2.31,9.82,2.21,10.16-.76-6.35-9.38-7.51-12.14.16-.5-6.33-10.76-7.65-12.14,1.82-.17,22.21,5.58,24.9,7,7,3.71,13.25,7.5,14.63,11.85,1.51,5.6,23.88,10.34,27.36,5.38a26.47,26.47,0,0,0,8.77,1.73c28.91-1.5-19.11-17,2.47-29.43,16.09,9.89,4.09,31.73,22.94,28.4,11.11-1.08-6.93-11.82-8.14-15.33.17-.63-6.86-13.58-8.3-15.32,15.68.07,37.08,11.39,43,23.74.91,3.34,6.21,6.18,13.23,8.23,17.92,5.54,24.87-7.46,4.6-13-51.81-14.53-51-60.44-84.08-75.45h0c-32.34-17.9,11.38-41.68,25-56,2.38-2.5-3.85,11-5.38,12.24-52.21,39.81-12.38,30.19,11.64,63,64.26,5.27,116.46-14,135.25-73.93,1.18-1-48.65-14.65-18.67-11.85,26.1,4.59,50.12,38.08,70.38,49.59,9.75,10.59-2.25,26.59-10.35,34.61-27.95,23.91-35.81,49.56-76,59.6-8.63,2-14.38,6.43-12.33,9.55,3.11,6,28.56.72,30.14-5.47,3.78-11.1,32.24-18.88,43.11-20.56-1.45,1.5-8.52,12.69-8.35,13.23-1.3,3.1-19.23,12.34-8.18,13.24,18.67,2.91,7.14-16.31,23-24.55,21.54,10.86-26.52,24,2.39,25.38,17.12-1.63,14.39-5,9.48-15.88.37-4.2-4.93-35.76,7.54-45.12,11.24-8.44,35.24-33.44,24.34-43.47-5.69-3.81-8-17.61-18.42-28.7-14-22-30.16-65.64-55.94-73.06-12.67-19.62,9.33-38.21,10.51-58.63.83-19.54-6.1-31.87-8.14-42.5-3.36-17.55,6.1-26.56,4.07-46-7.91,8.49-27.15,32.71-37.86,32.34,11.89-5.15,76.57-90.53,59-38.26-5.2,11.89-12.6,23-17.46,35.06,5.27,46,104.63-54.74,123.05-62.32,12.37-5.09,24.82-10.06,37.4-14.74C-2071.56,1170.79-2053.17,1174.39-2056.78,1160.37Zm-162.41-337.3c-19-13.65-28.36-44.08-13.43-63-14.67,26.13,1.84,66.89,35.15,68.35C-2205.78,830.17-2212.84,827.48-2219.19,823.07Zm29.08-68.43c33.76,16.92,22.39,84-20.17,69C-2250.4,807.68-2241.11,728.77-2190.11,754.64Zm-40.22-1.88c-25.8,20.43-13.73,69.52,20.56,78.61C-2245.1,832.33-2260.55,765-2230.33,752.76ZM-2484.26,830c-25.87-14-26.51-66.32,9.69-73C-2419.07,748.83-2433.93,854-2484.26,830Zm47.54-38.52c-.6-10.76-3.53-20.77-11.11-29.65,23.77,21.1,14.84,72.71-21.08,74.26C-2445.88,832.32-2435.66,810.49-2436.72,791.43Zm9.61,7.53c-2,22.87-17.37,37.43-28.35,38,32.57-16,34.8-60.82,5.14-80.33C-2436.63,760.08-2425.53,781.23-2427.11,799Zm-560,22.19a94.18,94.18,0,0,1,18.36-19.07c-3.61,7.24-9.39,16.33-15.82,19.65C-2985.42,821.52-2986.27,821.28-2987.12,821.15Zm14.33,13.89c-4,2.1-7.17,3.24-10.43,3.43,1.43-3.11,2.26-6.85,3.8-9.84,4-1.88,7.6-.83,11,2.75C-2968.24,831.61-2971,833.77-2972.79,835Zm80.36-60.31c-37-36.33-50.71,30.56-73.12,47.81-3.71.39-7.41.68-11.11,1,5.9-9.57,12.39-14.35,19.53-20.41,5.56-5,19.27-46.22,26-53.72,14-15.5,20.94-15.34,34.75-.67,4.36,6.16,5.68,24.88,6.7,28.36C-2890.6,776.27-2891.51,775.49-2892.43,774.73Zm533.81,153.37c-5,2.47-11.53-10.93-6.33-13.07C-2359.92,912.56-2353.43,926-2358.62,928.1Zm62.52-4.8c-3.93,8.57-12,5-8-3.47S-2292,914.8-2296.1,923.3Z"
                transform="translate(3086.58 77.03)" />
            <path d="M-2967.49,797.87" transform="translate(3086.58 77.03)" />
        </g>
    </g>
</svg>