<svg id="generator" xmlns="http://www.w3.org/2000/svg" viewBox="0 0 1269.48 942.62"><rect x="289.35" y="196.88" width="70" height="425" rx="12" style="fill:#515151;stroke:#262626;stroke-miterlimit:10;stroke-width:3.51587410418958px"/><rect x="285.85" y="280.88" width="77" height="10" rx="5" style="fill:#edc137"/><rect x="285.85" y="320.88" width="77" height="10" rx="5" style="fill:#edc137"/><rect x="285.85" y="360.88" width="77" height="10" rx="5" style="fill:#edc137"/><path d="M690.77,1530.15l-1.36,1.51c-6.14,13.78-.63,26.37,12.49,28.57,11.65,2,24.73-5.92,29.44-17.7,4.35-10.89.27-24.12-9.5-30.87-23.56-16.26-56.81-.46-59.75,28.36-.61,6-.24,10.69,7.4,11.56,2.91.33,5.73,2.19,8.4,3.69,25.27,14.22,31.36,40.81,14.72,64.31a99.66,99.66,0,0,1-8.24,10.67c-10.5,11.23-15.46,23.53-9,38.75,1.54,3.66,2,7.79-1.28,11.17l0-.06a.72.72,0,0,0-.09-.2,56.46,56.46,0,0,0-3.49-16.25c-3.7-10.6-1.64-20,5.23-28.67,3.84-4.82,7.52-9.78,11.42-14.55,18.43-22.62,8.79-44.55-8.46-58.29-19.21-15.31-48.62-5.12-55.46,18.63a23.09,23.09,0,0,0,1,16c3.69,8.68,14.13,14.74,23.71,13.9,11-1,17.67-5.72,19.93-14.2,2.44-9.19-.72-15.85-10.49-22.15,4.82-.15,4.87-.14,7.65,2.16,11.33,9.35,8.65,28.24-5,35.19-12.34,6.29-17.5,21-11.86,34.13,2.87,6.65,7.76,11.89,12.38,17.29,4.79,5.6,9.47,11.25,12.16,18.24,9.74,7.26,22.54,3.58,29.83-8.57-11.28-6-13.53-11.88-8.66-22.69,1.66-2.57,3.68-4.34,7.26-3.11l-6,4.3c-2.09,6.39-2.12,12.38,4.54,16.09,6.32,3.52,15.56,1,19.67-5a15.35,15.35,0,0,0-1.88-19.53c-7.22-7.25-18.2-5.74-26,3.71-5.65,6.88-7.72,15-8.05,23.78-.18,4.64,0,9.42-4.11,13.65.55-4.55,1.57-8.45,1.38-12.3-.77-15.55,6-27.77,15.84-39,9.52-10.85,19.76-21.13,27.54-33.42,4.14-6.53,7-13.42,6.27-21.4a22,22,0,0,0-6.29-14c-3.48-3.4-7.07.5-10.53,1.16-10.84,2.07-21.33-1.71-26.86-10.24-5.12-7.9-4.62-15.5,1.58-24.34l1.16-1.41,4.67-2.79c1.33-.72,2.66-1.32,3.88.2l-3.13.7C694,1528.77,692.27,1529.34,690.77,1530.15Z" transform="translate(-358.26 -1505.12)" style="fill:#d1d1d1"/><rect x="919.35" y="196.88" width="70" height="425" rx="12" style="fill:#515151;stroke:#262626;stroke-miterlimit:10;stroke-width:3.51587410418958px"/><rect x="915.85" y="280.88" width="77" height="10" rx="5" style="fill:#edc137"/><rect x="915.85" y="320.88" width="77" height="10" rx="5" style="fill:#edc137"/><rect x="915.85" y="360.88" width="77" height="10" rx="5" style="fill:#edc137"/><path d="M1320.77,1530.15l-1.36,1.51c-6.14,13.78-.63,26.37,12.49,28.57,11.65,2,24.73-5.92,29.44-17.7,4.35-10.89.27-24.12-9.5-30.87-23.56-16.26-56.81-.46-59.75,28.36-.61,6-.24,10.69,7.4,11.56,2.91.33,5.73,2.19,8.4,3.69,25.27,14.22,31.36,40.81,14.72,64.31a99.66,99.66,0,0,1-8.24,10.67c-10.5,11.23-15.46,23.53-9,38.75,1.54,3.66,2,7.79-1.28,11.17l0-.06a.72.72,0,0,0-.09-.2,56.46,56.46,0,0,0-3.49-16.25c-3.7-10.6-1.64-20,5.23-28.67,3.84-4.82,7.52-9.78,11.42-14.55,18.43-22.62,8.79-44.55-8.46-58.29-19.21-15.31-48.62-5.12-55.46,18.63a23.09,23.09,0,0,0,1,16c3.69,8.68,14.13,14.74,23.71,13.9,11-1,17.67-5.72,19.93-14.2,2.44-9.19-.72-15.85-10.49-22.15,4.82-.15,4.87-.14,7.65,2.16,11.33,9.35,8.65,28.24-5,35.19-12.34,6.29-17.5,21-11.86,34.13,2.87,6.65,7.76,11.89,12.38,17.29,4.79,5.6,9.47,11.25,12.16,18.24,9.74,7.26,22.54,3.58,29.83-8.57-11.28-6-13.53-11.88-8.66-22.69,1.66-2.57,3.68-4.34,7.26-3.11l-6,4.3c-2.09,6.39-2.12,12.38,4.54,16.09,6.32,3.52,15.56,1,19.67-5a15.35,15.35,0,0,0-1.88-19.53c-7.22-7.25-18.2-5.74-26,3.71-5.65,6.88-7.72,15-8,23.78-.18,4.64,0,9.42-4.11,13.65.55-4.55,1.57-8.45,1.38-12.3-.77-15.55,6-27.77,15.84-39,9.52-10.85,19.76-21.13,27.54-33.42,4.14-6.53,7-13.42,6.27-21.4a22,22,0,0,0-6.29-14c-3.48-3.4-7.07.5-10.53,1.16-10.84,2.07-21.33-1.71-26.86-10.24-5.12-7.9-4.62-15.5,1.58-24.34l1.16-1.41,4.67-2.79c1.33-.72,2.66-1.32,3.88.2l-3.13.7C1324,1528.77,1322.27,1529.34,1320.77,1530.15Z" transform="translate(-358.26 -1505.12)" style="fill:#d1d1d1"/><rect x="1.74" y="455.88" width="1266" height="485" rx="12" style="fill:#515151;stroke:#262626;stroke-miterlimit:10;stroke-width:3.4766690113282572px"/><rect x="82.38" y="513.88" width="319" height="319" rx="12" style="fill:#282828"/><rect x="93.01" y="524.51" width="297.73" height="297.73" rx="12" style="fill:#3f3f3f"/><line x1="983.38" y1="724.17" x2="1177.38" y2="724.17" style="fill:none;stroke:#282828;stroke-miterlimit:10;stroke-width:9.3758134841919px"/><line x1="983.38" y1="751.64" x2="1177.38" y2="751.64" style="fill:none;stroke:#282828;stroke-miterlimit:10;stroke-width:9.3758134841919px"/><line x1="983.38" y1="779.11" x2="1177.38" y2="779.11" style="fill:none;stroke:#282828;stroke-miterlimit:10;stroke-width:9.3758134841919px"/><line x1="983.38" y1="806.58" x2="1177.38" y2="806.58" style="fill:none;stroke:#282828;stroke-miterlimit:10;stroke-width:9.3758134841919px"/><line x1="983.38" y1="834.05" x2="1177.38" y2="834.05" style="fill:none;stroke:#282828;stroke-miterlimit:10;stroke-width:9.3758134841919px"/><line x1="983.38" y1="861.52" x2="1177.38" y2="861.52" style="fill:none;stroke:#282828;stroke-miterlimit:10;stroke-width:9.3758134841919px"/><line x1="983.38" y1="889" x2="1177.38" y2="889" style="fill:none;stroke:#282828;stroke-miterlimit:10;stroke-width:9.3758134841919px"/><line x1="983.38" y1="531.88" x2="1177.38" y2="531.88" style="fill:none;stroke:#282828;stroke-miterlimit:10;stroke-width:9.3758134841919px"/><line x1="983.38" y1="559.35" x2="1177.38" y2="559.35" style="fill:none;stroke:#282828;stroke-miterlimit:10;stroke-width:9.3758134841919px"/><line x1="983.38" y1="586.82" x2="1177.38" y2="586.82" style="fill:none;stroke:#282828;stroke-miterlimit:10;stroke-width:9.3758134841919px"/><line x1="983.38" y1="614.29" x2="1177.38" y2="614.29" style="fill:none;stroke:#282828;stroke-miterlimit:10;stroke-width:9.3758134841919px"/><line x1="983.38" y1="641.76" x2="1177.38" y2="641.76" style="fill:none;stroke:#282828;stroke-miterlimit:10;stroke-width:9.3758134841919px"/><line x1="983.38" y1="669.23" x2="1177.38" y2="669.23" style="fill:none;stroke:#282828;stroke-miterlimit:10;stroke-width:9.3758134841919px"/><line x1="983.38" y1="696.7" x2="1177.38" y2="696.7" style="fill:none;stroke:#282828;stroke-miterlimit:10;stroke-width:9.3758134841919px"/><path id="gear" d="M535.83,2052.68c0-3.4,0-6.81,0-10.21,0-1.47.43-2.36,1.93-2.75,3.66-1,7.32-1.86,11-2.53,1.57-.28,2.42.07,3.08,1.62,1.74,4.08,3.71,8.07,5.51,12.14a2.61,2.61,0,0,0,3.1,1.79,26.5,26.5,0,0,1,5.76-.23c2.48.25,3.56-.87,4.36-3.05,1.36-3.76,3-7.39,4.49-11.13a2.37,2.37,0,0,1,3-1.73c3.44.55,6.84,1.26,10.26,1.91,2,.39,2.86,1.24,2.82,3.41-.08,4.21.21,8.44.23,12.66a2.71,2.71,0,0,0,2,3,53.54,53.54,0,0,1,6.35,2.66,2.49,2.49,0,0,0,3.32-.57c3.17-3.12,6.45-6.12,9.62-9.25a2.44,2.44,0,0,1,3.5-.34c3.1,1.91,6,4,9,6.14a2.53,2.53,0,0,1,.9,3.61c-1.78,3.91-3.37,7.9-5.13,11.82-.63,1.4-.61,2.42.63,3.52a48.7,48.7,0,0,1,4.78,5c1.19,1.42,2.35,1.61,4.06.94,4-1.56,8.1-2.86,12.11-4.42,1.56-.61,2.41-.27,3.29,1.09,2,3.12,4.06,6.19,5.84,9.45.76,1.39.52,2.21-.63,3.22-3.33,3-6.52,6.05-9.82,9a2.5,2.5,0,0,0-.65,3.31c1,2.38,1.89,4.83,2.68,7.3a2.39,2.39,0,0,0,2.46,2c4.36.22,8.71.66,13.08.88,1.84.1,2.81.74,3.1,2.67.53,3.45,1,6.88,1.41,10.35a2.25,2.25,0,0,1-1.78,2.8c-4,1.28-8,2.73-12,4-1.7.53-2.56,1.31-2.56,3.26a72.68,72.68,0,0,1-.65,8.19,2.46,2.46,0,0,0,1.61,2.77c4,2.09,7.95,4.32,12,6.4,1.25.65,1.75,1.35,1.37,2.79-.93,3.52-1.89,7-3,10.46a2.1,2.1,0,0,1-2.59,1.72c-4.34-.5-8.7-.79-13-1.29-1.61-.19-2.57.1-3.31,1.73a76.48,76.48,0,0,1-4.21,7.82,2.2,2.2,0,0,0,.2,2.94c2.82,3.61,5.5,7.34,8.32,11a2.3,2.3,0,0,1,0,3.32c-2.14,2.75-4.33,5.45-6.74,8a2.2,2.2,0,0,1-3.11.47c-3.85-2.22-7.78-4.29-11.61-6.54-1.38-.81-2.38-.82-3.53.32a45.63,45.63,0,0,1-7.2,5.56,2.32,2.32,0,0,0-1.16,2.94c1.13,4.37,2.05,8.81,3.26,13.16a2.27,2.27,0,0,1-1.44,3.14c-3.09,1.44-6.18,2.88-9.23,4.4a2,2,0,0,1-3-.79c-2.65-3.66-5.44-7.22-8.06-10.9a2.42,2.42,0,0,0-3.15-1.07,64.84,64.84,0,0,1-8.42,2c-2.13.33-3,1.32-3.29,3.39-.62,4.1-1.52,8.15-2.19,12.24a2.3,2.3,0,0,1-2.46,2.24c-3.11.25-6.22.23-9.32.35-2.35.09-3.25-.89-3.65-3.11-.74-4.07-1.8-8.09-2.63-12.16a2.42,2.42,0,0,0-2.29-2.26,62.69,62.69,0,0,1-9.58-1.9,2.47,2.47,0,0,0-3,1.29c-2.47,3.7-5,7.32-7.5,11-.84,1.26-1.67,1.67-3.12,1-3.1-1.41-6.25-2.72-9.39-4a2.27,2.27,0,0,1-1.47-3c.94-4.34,1.72-8.72,2.67-13.06a2.48,2.48,0,0,0-1.08-3,63.94,63.94,0,0,1-8.28-6c-.86-.78-1.62-.38-2.41.11-3.72,2.3-7.48,4.53-11.15,6.9-1.62,1.06-2.84,1.19-4.19-.42-2-2.32-4-4.54-6.16-6.71-1.5-1.54-1.55-2.82-.18-4.58,2.64-3.39,5-7,7.53-10.47a2.25,2.25,0,0,0,.1-3,63.47,63.47,0,0,1-4.82-8.25,1.88,1.88,0,0,0-2.33-1.12c-4.32.61-8.67,1.09-13,1.78-1.94.31-3.05-.15-3.63-2.13-.93-3.19-2-6.35-3.12-9.5-.53-1.54-.07-2.46,1.33-3.25,3.88-2.19,7.66-4.53,11.53-6.72a2.58,2.58,0,0,0,1.47-3c-.43-2.86-.72-5.74-.9-8.62a2.21,2.21,0,0,0-1.94-2.26c-4.2-1.18-8.37-2.52-12.59-3.64-1.89-.51-2.51-1.47-2.26-3.36.45-3.37.54-6.79,1.09-10.16a2.4,2.4,0,0,1,2.41-2.34c4.41-.48,8.81-1.12,13.23-1.54a2.68,2.68,0,0,0,2.77-2.27,66.39,66.39,0,0,1,2.41-7.39,2.44,2.44,0,0,0-.88-3.23c-3.48-2.88-6.86-5.88-10.34-8.77-1-.84-1.3-1.51-.64-2.79,1.77-3.43,3.73-6.74,5.69-10.06a2.13,2.13,0,0,1,2.94-1c4.22,1.38,8.5,2.62,12.71,4,1.54.52,2.54.38,3.59-1a53.83,53.83,0,0,1,4.9-5.45,2.33,2.33,0,0,0,.49-3.12c-2-4-3.84-8-5.83-12a2.42,2.42,0,0,1,.74-3.45q4.34-3.48,8.9-6.65a2.37,2.37,0,0,1,3.49.25c3.37,3.12,6.91,6.05,10.31,9.13a2,2,0,0,0,2.73.32,50.39,50.39,0,0,1,6.24-2.9,3,3,0,0,0,2.3-3.67,20,20,0,0,1,0-2.45Zm29.45,122.11a40.22,40.22,0,1,0-40.23-40.07A40.12,40.12,0,0,0,565.28,2174.79Z" transform="translate(-358.26 -1505.12)" style="fill:#686868;stroke:#262626;stroke-miterlimit:10"/><path id="gear-2" data-name="gear" d="M706.49,2185.19c-.55,3.59-1,6.74-1.54,9.88a2.41,2.41,0,0,0,1.32,2.89,41.07,41.07,0,0,1,9.13,7,2.44,2.44,0,0,0,3.32.53c2.59-1.26,5.27-2.36,7.89-3.59,1.16-.54,2.06-.58,2.83.65q3.79,6,7.68,12a1.48,1.48,0,0,1-.4,2.27c-2.33,1.94-4.56,4-6.9,5.94a2.52,2.52,0,0,0-1,3.21,43,43,0,0,1,2.47,11.71c.08,1.46.89,2,2.17,2.37,2.73.73,5.42,1.55,8.14,2.28a2,2,0,0,1,1.73,2.55c-.63,4.4-1.21,8.81-1.69,13.22-.19,1.76-1.07,2.2-2.65,2.17-2.82-.05-5.63.07-8.45,0a2.31,2.31,0,0,0-2.47,1.72,49.37,49.37,0,0,1-5.63,10.56,2.52,2.52,0,0,0,0,3.39c1.66,2.27,3.16,4.66,4.81,6.94.83,1.16.87,2-.27,3.06q-5.13,4.59-10.15,9.32a1.74,1.74,0,0,1-2.69,0c-2.41-2-4.89-3.86-7.26-5.87a2.14,2.14,0,0,0-2.78-.32,44.92,44.92,0,0,1-11.09,4.5,2.62,2.62,0,0,0-2.18,2.66c-.23,2.81-.64,5.6-.84,8.4a2.08,2.08,0,0,1-2.35,2.26c-4.37.13-8.74.25-13.1.54-1.77.12-2.34-.63-2.61-2.18-.49-2.85-1.17-5.66-1.64-8.51a2.58,2.58,0,0,0-2.32-2.48,45.68,45.68,0,0,1-11.15-3.71,2.09,2.09,0,0,0-2.73.61c-2.15,2.13-4.43,4.15-6.57,6.31-1,1-1.78,1.25-3,.28-3.54-2.8-7.15-5.53-10.79-8.2-1.25-.92-1.24-1.8-.54-3,1.59-2.76,3.08-5.58,4.65-8.35a2.18,2.18,0,0,0-.11-2.81,49.27,49.27,0,0,1-6.21-10,2.21,2.21,0,0,0-2.63-1.42c-3.09.33-6.2.44-9.3.69a2,2,0,0,1-2.47-1.84c-.89-4.28-1.87-8.54-2.91-12.79-.42-1.72.13-2.56,1.8-3.12,2.87-1,5.66-2.21,8.52-3.24a2.52,2.52,0,0,0,2-2.71,36.76,36.76,0,0,1,1.41-10.54,3,3,0,0,0-1.44-3.72c-2.52-1.69-4.94-3.53-7.44-5.25a1.71,1.71,0,0,1-.65-2.6c2.06-3.86,4.07-7.74,6-11.67.83-1.71,1.78-2.23,3.65-1.48,2.82,1.12,5.76,1.93,8.62,3a2.3,2.3,0,0,0,3.05-.79,37.74,37.74,0,0,1,7.88-7.15,3.07,3.07,0,0,0,1.34-3.78c-.75-2.87-1.38-5.77-2.19-8.62a1.92,1.92,0,0,1,1.33-2.74q6.18-2.47,12.31-5.11c1.43-.62,2.29-.38,3.08,1,1.57,2.77,3.29,5.45,5,8.16A2.2,2.2,0,0,0,671,2191a45.72,45.72,0,0,1,11.74-.55,2.26,2.26,0,0,0,2.53-1.58c1.31-2.83,2.73-5.6,4-8.42a1.72,1.72,0,0,1,2.45-1.09c4.37,1.41,8.76,2.77,13.15,4.11C706,2183.77,706.74,2184.3,706.49,2185.19Zm-4.7,58a22.82,22.82,0,0,0-23.34-23.08,23.15,23.15,0,1,0,.33,46.29A22.84,22.84,0,0,0,701.79,2243.22Z" transform="translate(-358.26 -1505.12)" style="fill:#686868;stroke:#262626;stroke-miterlimit:10"/><path id="gear-3" data-name="gear" d="M555.61,2299.43c-2.05-.58-3.91-1.07-5.75-1.62a2.43,2.43,0,0,0-2.92.93,32.79,32.79,0,0,1-6.19,6,2.59,2.59,0,0,0-1,3.28c.67,2,1.17,4,1.82,6a1.73,1.73,0,0,1-1.07,2.48c-3.25,1.45-6.48,2.92-9.69,4.46-1.3.62-2,.21-2.73-.91-1.19-1.88-2.5-3.68-3.68-5.56a2.15,2.15,0,0,0-2.57-1.13,34.52,34.52,0,0,1-8.84.64,2.37,2.37,0,0,0-2.68,1.73c-.77,1.93-1.71,3.78-2.49,5.7a2.12,2.12,0,0,1-3,1.41c-3.19-.95-6.39-1.88-9.62-2.69a2,2,0,0,1-1.7-2.55c.31-2.12.46-4.27.8-6.39a2.44,2.44,0,0,0-1.33-2.93,36.4,36.4,0,0,1-7-5.1,2.29,2.29,0,0,0-3-.41c-2,1.08-4.15,2-6.16,3.08a1.68,1.68,0,0,1-2.59-.6c-1.87-2.76-3.78-5.5-5.79-8.15-1.15-1.52-.9-2.6.47-3.78,1.63-1.4,3.09-3,4.71-4.4a2.3,2.3,0,0,0,.77-2.92,32,32,0,0,1-2.06-8.17,2.38,2.38,0,0,0-2.24-2.28c-2.17-.46-4.29-1.14-6.46-1.62-1.41-.3-2-.94-1.83-2.45.38-3.38.68-6.78.91-10.17.1-1.4.7-2,2.06-2,2.44-.11,4.88-.34,7.32-.46a2.12,2.12,0,0,0,2.18-1.49,44.13,44.13,0,0,1,4-8.17,2,2,0,0,0-.34-2.62c-1.41-1.81-2.74-3.68-4.15-5.49-.88-1.11-1-2,.14-3.06q3.76-3.61,7.37-7.4c1-1,1.8-.95,2.85-.12,1.75,1.37,3.64,2.56,5.35,4a2.82,2.82,0,0,0,3.76.34,31.33,31.33,0,0,1,7.27-3.29,2.48,2.48,0,0,0,1.89-2.64c.1-2.29.34-4.58.4-6.87,0-1.32.63-1.84,1.88-1.94,3.54-.27,7.09-.56,10.62-.92,1.33-.13,1.87.42,2.12,1.64.47,2.25,1.08,4.47,1.53,6.72a2.59,2.59,0,0,0,2.45,2.38,31,31,0,0,1,8.14,2.18,2.2,2.2,0,0,0,2.89-.72c1.55-1.7,3.19-3.31,4.74-5a1.73,1.73,0,0,1,2.68-.27c2.82,2,5.68,4,8.57,6a1.85,1.85,0,0,1,.72,2.79c-1.07,2-2,4.14-3.1,6.15a2.14,2.14,0,0,0,.23,2.79,36.47,36.47,0,0,1,5.4,7.86,1.65,1.65,0,0,0,2,.92c2.2-.27,4.42-.44,6.62-.76,1.5-.22,2.34.16,2.73,1.75.8,3.31,1.71,6.6,2.66,9.87a1.81,1.81,0,0,1-1.24,2.58c-2.07.81-4.07,1.78-6.13,2.63a2.2,2.2,0,0,0-1.62,2.32,40.08,40.08,0,0,1-.81,9.27,2.18,2.18,0,0,0,1.12,2.61c1.75,1.1,3.41,2.36,5.19,3.42,1.35.8,1.63,1.61.88,3.06q-2.1,4-3.85,8.26C558.5,2299.42,557.49,2300.41,555.61,2299.43Zm-44.94-9a19.1,19.1,0,0,0,22.55-15.08,19.27,19.27,0,1,0-37.79-7.55A19.11,19.11,0,0,0,510.67,2290.44Z" transform="translate(-358.26 -1505.12)" style="fill:#686868;stroke:#262626;stroke-miterlimit:10"/><circle cx="683.48" cy="602.48" r="55.85" style="fill:#edc137;stroke:#917120;stroke-miterlimit:10;stroke-width:3.49049854278564px"/><circle cx="683.48" cy="602.48" r="45.37" style="fill:#cecece"/><path d="M1041.76,2154.5a46.89,46.89,0,1,1,46.9-47.45A46.88,46.88,0,0,1,1041.76,2154.5Zm-45.31-46.94a45.32,45.32,0,0,0,90.63.39,45.35,45.35,0,0,0-46.89-45.63A45.28,45.28,0,0,0,996.45,2107.56Z" transform="translate(-358.26 -1505.12)"/><path d="M1045.36,2107.63a3.59,3.59,0,1,1-3.53-3.61A3.55,3.55,0,0,1,1045.36,2107.63Z" transform="translate(-358.26 -1505.12)"/><path d="M999.82,2109.22H998.6c-.21,0-.3-.06-.31-.3a24.48,24.48,0,0,1,0-2.57c0-.26.1-.35.35-.35h2.41a.54.54,0,0,1,.43.17c.41.42.82.83,1.24,1.23.15.15.14.26,0,.4-.41.4-.81.8-1.2,1.21a.66.66,0,0,1-.5.2Z" transform="translate(-358.26 -1505.12)"/><path d="M1083.73,2106h1.15c.25,0,.36.07.38.35q.06,1.28,0,2.55c0,.24-.11.32-.34.32h-2.41a.59.59,0,0,1-.46-.2c-.4-.4-.8-.81-1.21-1.2-.15-.15-.16-.26,0-.41.41-.39.81-.8,1.21-1.21a.66.66,0,0,1,.5-.2Z" transform="translate(-358.26 -1505.12)"/><path d="M1040.17,2065.66v-1.18c0-.22.06-.33.32-.35a22,22,0,0,1,2.57,0c.22,0,.32.09.32.31V2067a.53.53,0,0,1-.17.37c-.41.41-.83.81-1.23,1.23a.24.24,0,0,1-.41,0q-.6-.62-1.23-1.23a.57.57,0,0,1-.17-.47v-1.19Z" transform="translate(-358.26 -1505.12)"/><path d="M1040.17,2149.31c-.29-.88.24-1.61,1-2.27.61-.52.54-.5,1.18,0a2.45,2.45,0,0,1,1,2.43,8.69,8.69,0,0,0,0,1.25c0,.25-.08.35-.34.36a21.52,21.52,0,0,1-2.54,0c-.24,0-.34-.1-.33-.33Z" transform="translate(-358.26 -1505.12)"/><path d="M1006.08,2126.5l1.87.51c.15,0,.13.15.1.26-.16.6-.32,1.21-.49,1.82a.42.42,0,0,1-.22.25l-2.21,1.27c-.16.1-.27.09-.37-.08-.43-.77-.87-1.54-1.32-2.3-.1-.18-.09-.29.1-.39l2.2-1.27A.51.51,0,0,1,1006.08,2126.5Z" transform="translate(-358.26 -1505.12)"/><path d="M1077.54,2126.48a.49.49,0,0,1,.26.1l2.18,1.24c.2.11.24.21.12.41-.44.75-.87,1.51-1.3,2.27-.11.21-.23.21-.42.1l-2.14-1.24a.55.55,0,0,1-.28-.37l-.45-1.65c0-.12-.1-.27.08-.33Z" transform="translate(-358.26 -1505.12)"/><path d="M1077.57,2088.75c-.39-.11-.79-.2-1.18-.32s-.71,0-.86-.29.12-.59.16-.9a2.06,2.06,0,0,1,1.4-1.87,9.94,9.94,0,0,0,1.3-.75c.16-.1.29-.12.4.08l1.3,2.27c.09.15.15.28-.06.4l-2.26,1.3A1.19,1.19,0,0,1,1077.57,2088.75Z" transform="translate(-358.26 -1505.12)"/><path d="M1006,2088.73a.55.55,0,0,1-.34-.1c-.7-.41-1.4-.82-2.11-1.22-.2-.11-.27-.21-.14-.43.44-.75.87-1.51,1.3-2.27.11-.18.22-.2.4-.09.71.42,1.42.83,2.14,1.23a.62.62,0,0,1,.31.4c.14.55.29,1.1.44,1.65,0,.12.09.26-.1.32Z" transform="translate(-358.26 -1505.12)"/><path d="M1022.91,2071.8c-.14.54-.28,1.06-.42,1.59s-.11.56-.71.41a11.24,11.24,0,0,0-1.14-.3,1,1,0,0,1-.77-.58c-.35-.63-.69-1.26-1.06-1.88-.12-.22-.11-.35.12-.48l2.24-1.28c.15-.1.25-.11.36.07l1.31,2.26A1.46,1.46,0,0,1,1022.91,2071.8Z" transform="translate(-358.26 -1505.12)"/><path d="M1060.64,2143.44c0-.11,0-.22.08-.32l.36-1.34c.12-.52.12-.52.64-.37l1.38.37a.62.62,0,0,1,.43.31c.4.7.79,1.4,1.2,2.09.14.24.1.36-.14.49-.73.41-1.45.83-2.17,1.26-.21.12-.33.07-.45-.13-.41-.73-.83-1.45-1.25-2.18A.71.71,0,0,1,1060.64,2143.44Z" transform="translate(-358.26 -1505.12)"/><path d="M1060.66,2071.88a.36.36,0,0,1,.07-.3c.42-.72.84-1.44,1.25-2.17.12-.21.22-.25.43-.12.74.44,1.49.87,2.24,1.29.17.1.23.21.12.39-.42.73-.84,1.45-1.25,2.18a.53.53,0,0,1-.37.28l-1.65.44c-.12,0-.27.11-.32-.08C1061,2073.13,1060.82,2072.47,1060.66,2071.88Z" transform="translate(-358.26 -1505.12)"/><path d="M1022.89,2143.33a.38.38,0,0,1-.07.31c-.41.71-.83,1.42-1.24,2.14-.12.22-.23.28-.46.14-.74-.44-1.49-.86-2.24-1.29-.18-.1-.19-.23-.09-.4l1.23-2.14a.56.56,0,0,1,.4-.3l1.65-.44c.11,0,.25-.09.3.07Z" transform="translate(-358.26 -1505.12)"/><path d="M1080.6,2124l.76.34c.5.23.49.23.27.74l-.33.73c-.08.2-.19.22-.38.13s-.61-.28-.92-.42c-.14-.06-.2-.13-.12-.29l.51-1.1A.18.18,0,0,1,1080.6,2124Z" transform="translate(-358.26 -1505.12)"/><path d="M1002,2121.15a.23.23,0,0,1-.18.3l-1,.31c-.17.06-.26,0-.32-.16-.11-.36-.23-.72-.35-1.09-.06-.16,0-.26.16-.31l1-.32c.1,0,.22-.06.27.07C1001.77,2120.37,1001.9,2120.79,1002,2121.15Z" transform="translate(-358.26 -1505.12)"/><path d="M1027.61,2148.53c.11-.32.24-.72.37-1.11,0-.13.16-.09.24-.06l1.13.36c.14.05.22.13.16.29-.11.34-.23.68-.33,1,0,.14-.13.2-.27.16l-1.19-.4C1027.64,2148.76,1027.58,2148.71,1027.61,2148.53Z" transform="translate(-358.26 -1505.12)"/><path d="M1001.4,2095.37l-1.09-.37a.17.17,0,0,1-.11-.25c.12-.39.25-.77.38-1.16,0-.15.15-.18.29-.13l1,.34c.15,0,.16.14.12.27l-.36,1.13C1001.62,2095.32,1001.55,2095.4,1001.4,2095.37Z" transform="translate(-358.26 -1505.12)"/><path d="M1082.15,2119.86c.36.12.72.25,1.09.36.13.05.14.14.11.25-.12.39-.25.77-.38,1.16,0,.15-.14.19-.29.13l-1.06-.34c-.14,0-.14-.13-.1-.24.12-.39.24-.77.37-1.16C1081.93,2119.9,1082,2119.82,1082.15,2119.86Z" transform="translate(-358.26 -1505.12)"/><path d="M1082.21,2095.34c-.23,0-.29,0-.32-.14-.12-.38-.24-.75-.37-1.13,0-.15,0-.24.16-.28l1-.33c.17-.06.26,0,.31.16.12.37.25.73.36,1.09,0,.1.07.22-.07.27C1082.89,2095.12,1082.5,2095.24,1082.21,2095.34Z" transform="translate(-358.26 -1505.12)"/><path d="M1051.58,2065.43c-.08.37-.15.73-.23,1.09,0,.14-.13.17-.27.14l-1.13-.23c-.19,0-.24-.14-.2-.33s.16-.65.22-1,.13-.23.29-.19l1.09.23C1051.5,2065.19,1051.64,2065.23,1051.58,2065.43Z" transform="translate(-358.26 -1505.12)"/><path d="M1054,2148c0-.21,0-.26.15-.3l1.13-.36c.15-.05.23,0,.28.14.1.33.2.65.31,1s0,.3-.17.36l-1,.34c-.11,0-.25.09-.3-.06C1054.27,2148.72,1054.14,2148.34,1054,2148Z" transform="translate(-358.26 -1505.12)"/><path d="M1002.92,2091.21c-.34-.15-.73-.32-1.12-.51-.11,0-.07-.15,0-.24.17-.36.33-.72.49-1.08.07-.16.16-.2.32-.12s.61.29.92.41.23.17.15.35c-.17.35-.31.7-.47,1.05A.2.2,0,0,1,1002.92,2091.21Z" transform="translate(-358.26 -1505.12)"/><path d="M1025.37,2146.46c-.15.35-.32.74-.51,1.13,0,.11-.15.06-.24,0l-1.08-.48c-.17-.07-.19-.18-.12-.33.15-.32.3-.63.43-1,.07-.15.15-.19.3-.12l1.08.48A.19.19,0,0,1,1025.37,2146.46Z" transform="translate(-358.26 -1505.12)"/><path d="M1032,2149.81c.08-.37.15-.75.24-1.12,0-.13.12-.16.24-.13l1.16.24a.21.21,0,0,1,.19.3c-.08.34-.16.68-.23,1,0,.17-.12.21-.27.18l-1.12-.24C1032,2150,1031.93,2150,1032,2149.81Z" transform="translate(-358.26 -1505.12)"/><path d="M1051.58,2149.81c0,.12,0,.21-.15.24l-1.22.25c-.15,0-.21,0-.23-.18-.07-.34-.15-.68-.23-1a.22.22,0,0,1,.19-.3l1.16-.24c.13,0,.21,0,.24.13C1051.43,2149.06,1051.5,2149.44,1051.58,2149.81Z" transform="translate(-358.26 -1505.12)"/><path d="M1055.94,2066.67l-.34,1.06c-.06.16-.17.17-.31.13l-1.09-.35a.23.23,0,0,1-.16-.32q.18-.49.33-1c.06-.19.17-.2.32-.15l1.06.35C1055.88,2066.44,1056,2066.49,1055.94,2066.67Z" transform="translate(-358.26 -1505.12)"/><path d="M1002.93,2124a.21.21,0,0,1,.25.14c.15.35.3.7.47,1,.08.18,0,.27-.14.35l-.92.41c-.16.08-.26.05-.33-.12-.16-.36-.33-.71-.49-1.07,0-.09-.08-.2,0-.25Z" transform="translate(-358.26 -1505.12)"/><path d="M1027.62,2066.73c0-.23,0-.28.15-.32l1.12-.37c.15-.05.24,0,.29.16q.15.5.33,1c.06.19,0,.28-.2.33q-.51.15-1,.33c-.2.07-.3,0-.36-.19S1027.71,2067,1027.62,2066.73Z" transform="translate(-358.26 -1505.12)"/><path d="M1033.32,2064.93c.16,0,.22,0,.24.13l.24,1.09c0,.14,0,.23-.15.26l-1.2.25c-.16,0-.23,0-.26-.19l-.21-.95c0-.2,0-.33.23-.37Z" transform="translate(-358.26 -1505.12)"/><path d="M1081.81,2090.52c0,.16-.07.19-.15.23l-1,.44c-.15.06-.24,0-.3-.12l-.48-1.08a.2.2,0,0,1,.12-.3l1-.44c.09,0,.2-.07.25,0C1081.44,2089.71,1081.63,2090.13,1081.81,2090.52Z" transform="translate(-358.26 -1505.12)"/><path d="M1060.16,2146.91c0,.14-.07.17-.15.21l-1.08.48a.19.19,0,0,1-.3-.12l-.42-.95c-.08-.16,0-.26.12-.33l1.09-.48c.06,0,.14-.08.18,0A9.88,9.88,0,0,1,1060.16,2146.91Z" transform="translate(-358.26 -1505.12)"/><path d="M1045.38,2149.78c-.08-.27.06-.35.34-.36a7.79,7.79,0,0,0,1-.12c.22,0,.32,0,.33.27s0,.62.09.93,0,.3-.25.32-.69.08-1,.12-.35-.05-.37-.3S1045.41,2150.09,1045.38,2149.78Z" transform="translate(-358.26 -1505.12)"/><path d="M1038.17,2149.8c0,.3-.07.59-.09.88s-.12.28-.32.26l-1.11-.13c-.18,0-.23-.11-.21-.27l.09-1a.23.23,0,0,1,.29-.23l1.17.13C1038.26,2149.47,1038.16,2149.66,1038.17,2149.8Z" transform="translate(-358.26 -1505.12)"/><path d="M1059.44,2069.52l-1.21-.56c-.12-.06-.06-.18,0-.27.14-.32.29-.64.42-1,.06-.14.14-.19.29-.12.36.17.72.32,1.08.48.12,0,.21.12.15.27l-.48,1.07C1059.63,2069.5,1059.58,2069.54,1059.44,2069.52Z" transform="translate(-358.26 -1505.12)"/><path d="M1045.38,2065.43l.09-.87c0-.2.11-.3.31-.28.38,0,.76.1,1.14.13.17,0,.2.12.19.26,0,.35-.07.69-.1,1,0,.18-.11.24-.28.21l-1.17-.13C1045.3,2065.76,1045.39,2065.57,1045.38,2065.43Z" transform="translate(-358.26 -1505.12)"/><path d="M1083.24,2115.58l1,.24c.16,0,.2.14.17.28-.08.38-.17.75-.24,1.12,0,.18-.13.22-.3.19l-1-.22c-.15,0-.22-.1-.19-.27.09-.38.17-.76.25-1.15C1083,2115.62,1083.08,2115.54,1083.24,2115.58Z" transform="translate(-358.26 -1505.12)"/><path d="M1025.38,2068.77c0,.18-.09.22-.18.26l-1,.45c-.17.09-.27,0-.34-.14s-.27-.61-.41-.92c-.08-.15-.06-.25.11-.33l1.08-.48c.09,0,.19-.08.24,0C1025.05,2068,1025.22,2068.42,1025.38,2068.77Z" transform="translate(-358.26 -1505.12)"/><path d="M1038.17,2065.48c0,.21,0,.31-.29.32a7.87,7.87,0,0,0-1,.12c-.29,0-.4-.06-.4-.35a3.79,3.79,0,0,0,0-.58c-.07-.56-.08-.56.47-.63l.83-.08a.25.25,0,0,1,.31.27C1038.1,2064.85,1038.14,2065.15,1038.17,2065.48Z" transform="translate(-358.26 -1505.12)"/><path d="M1084.46,2099.17a.18.18,0,0,1-.15.23l-1.09.24a.19.19,0,0,1-.25-.17c-.08-.39-.16-.79-.25-1.18,0-.17.06-.23.2-.26.33-.07.65-.15,1-.21.15,0,.28,0,.32.16C1084.29,2098.38,1084.38,2098.77,1084.46,2099.17Z" transform="translate(-358.26 -1505.12)"/><path d="M1000.82,2116.88c0,.25-.07.29-.19.32l-1,.21c-.2,0-.3,0-.34-.23s-.14-.7-.21-1a.23.23,0,0,1,.2-.33l1-.21c.12,0,.24,0,.27.12C1000.66,2116.13,1000.75,2116.55,1000.82,2116.88Z" transform="translate(-358.26 -1505.12)"/><path d="M999.57,2097.8l1.12.24c.15,0,.16.14.13.27l-.24,1.13c0,.17-.12.24-.29.2-.33-.08-.66-.16-1-.22s-.24-.15-.2-.33c.08-.35.14-.7.22-1.06C999.35,2097.9,999.39,2097.78,999.57,2097.8Z" transform="translate(-358.26 -1505.12)"/><path d="M1084.68,2112.94l-.94-.08c-.2,0-.3-.11-.27-.32,0-.37.09-.75.13-1.14a.18.18,0,0,1,.23-.18l1.07.1c.16,0,.22.12.2.27,0,.39-.09.78-.12,1.17S1084.78,2112.93,1084.68,2112.94Z" transform="translate(-358.26 -1505.12)"/><path d="M999.66,2111.21c.22-.05.29.07.3.33s.08.64.12,1-.06.35-.3.36-.62,0-.93.09-.27,0-.29-.25-.07-.69-.11-1,0-.35.29-.36Z" transform="translate(-358.26 -1505.12)"/><path d="M1083.9,2104c-.2,0-.31-.05-.32-.31s-.07-.62-.11-.93.06-.4.33-.41l.9-.08c.19,0,.27,0,.29.24,0,.36.07.71.11,1.07s-.07.32-.29.33Z" transform="translate(-358.26 -1505.12)"/><path d="M999.65,2104l-.77-.08c-.42,0-.46-.07-.42-.49s.08-.62.1-.93.07-.25.26-.23l1,.09c.23,0,.24.18.22.36s-.1.62-.11.93S999.87,2104.08,999.65,2104Z" transform="translate(-358.26 -1505.12)"/><path d="M1076.27,2083.53c-.1,0-.13-.07-.17-.13-.23-.3-.45-.62-.69-.92a.22.22,0,0,1,.07-.37l.81-.59c.12-.09.23-.12.33,0,.23.33.47.66.71,1a.18.18,0,0,1,0,.3l-.9.65A.34.34,0,0,1,1076.27,2083.53Z" transform="translate(-358.26 -1505.12)"/><path d="M1008.23,2082.3a1.5,1.5,0,0,1-.15.25l-.59.81c-.12.17-.22.21-.4.08s-.51-.39-.78-.58-.18-.21-.06-.37l.65-.9c.08-.11.16-.21.31-.1l.93.68A.43.43,0,0,1,1008.23,2082.3Z" transform="translate(-358.26 -1505.12)"/><path d="M1017.69,2073.12c0,.09-.07.13-.12.17l-.93.68c-.15.11-.26.11-.37-.06s-.39-.55-.59-.82-.12-.23,0-.34c.32-.21.63-.44.94-.67.1-.07.2-.13.3,0l.7,1A.47.47,0,0,1,1017.69,2073.12Z" transform="translate(-358.26 -1505.12)"/><path d="M1073.52,2137.28a1.25,1.25,0,0,1-.12-.08l-.77-.7a.23.23,0,0,1,0-.38c.25-.28.5-.55.74-.83a.22.22,0,0,1,.38,0l.76.71c.08.06.15.14.06.23-.3.34-.6.68-.91,1A.45.45,0,0,1,1073.52,2137.28Z" transform="translate(-358.26 -1505.12)"/><path d="M1013.24,2140.44l-.22-.18-.78-.69c-.13-.11-.16-.21,0-.35s.45-.49.67-.75.23-.17.38,0l.85.76c.1.09.15.19,0,.3l-.8.87S1013.29,2140.41,1013.24,2140.44Z" transform="translate(-358.26 -1505.12)"/><path d="M1016.83,2143.24l-.31-.19-.76-.55c-.17-.12-.19-.23-.06-.4s.39-.52.57-.79.22-.18.37-.06l.93.68c.1.08.17.15.08.28l-.68.93A.71.71,0,0,1,1016.83,2143.24Z" transform="translate(-358.26 -1505.12)"/><path d="M1067.08,2141.16a.25.25,0,0,1,.17.12l.62.85c.1.14.09.24,0,.34l-.94.67c-.14.11-.24.1-.34,0s-.41-.56-.62-.84c-.08-.11-.1-.2,0-.3.33-.23.66-.48,1-.72Z" transform="translate(-358.26 -1505.12)"/><path d="M1074.59,2079.08c0,.1-.07.15-.13.2-.24.22-.49.42-.72.65s-.26.16-.4,0-.47-.54-.72-.8-.15-.27,0-.41.5-.45.75-.67c.1-.09.2-.13.3,0l.86,1Z" transform="translate(-358.26 -1505.12)"/><path d="M1011,2078.88a4.52,4.52,0,0,1-1,1.18c-.08,0-.14-.07-.2-.12-.24-.22-.47-.44-.72-.65s-.16-.23,0-.37.49-.55.74-.83c.09-.1.19-.19.32-.07l.83.75S1011,2078.86,1011,2078.88Z" transform="translate(-358.26 -1505.12)"/><path d="M1071.43,2075.83s0,.08,0,.1l-.82.9c-.09.1-.19,0-.28,0l-.87-.79c-.13-.11-.12-.21,0-.33l.72-.79c.07-.08.15-.14.24,0,.34.29.67.6,1,.9A.25.25,0,0,1,1071.43,2075.83Z" transform="translate(-358.26 -1505.12)"/><path d="M1013.07,2076.89a1,1,0,0,1-.17-.12c-.23-.26-.46-.52-.7-.77a.2.2,0,0,1,0-.33l.88-.78c.12-.11.21-.11.32,0s.45.5.68.75c.08.09.19.2,0,.32l-.95.86A.39.39,0,0,1,1013.07,2076.89Z" transform="translate(-358.26 -1505.12)"/><path d="M1067.94,2073l-.3.42c-.53.72-.53.72-1.25.19s-.6-.45-.16-1,.46-.62,1.09-.17l.5.38C1067.88,2072.81,1068,2072.85,1067.94,2073Z" transform="translate(-358.26 -1505.12)"/><path d="M1008.21,2132.86a.25.25,0,0,1-.12.24l-.42.3c-.73.52-.52.54-1.06-.15l-.18-.25c-.33-.48-.33-.48.16-.84.73-.53.73-.53,1.26.2C1008,2132.54,1008.11,2132.71,1008.21,2132.86Z" transform="translate(-358.26 -1505.12)"/><path d="M1010,2135.16a.33.33,0,0,1,.21.14c.25.26.48.53.73.8a.24.24,0,0,1,0,.41c-.25.21-.5.44-.74.67a.2.2,0,0,1-.33,0c-.26-.3-.52-.59-.79-.88-.09-.09-.13-.18,0-.29l.82-.75Z" transform="translate(-358.26 -1505.12)"/><path d="M1070.31,2140.42c-.09,0-.13-.05-.18-.1l-.68-.75c-.14-.14-.15-.26,0-.4s.54-.48.8-.72.26-.14.39,0,.46.52.7.78a.18.18,0,0,1,0,.28l-1,.86Z" transform="translate(-358.26 -1505.12)"/><path d="M1077.4,2132.55a1.06,1.06,0,0,1-.11.19l-.63.88c-.11.16-.22.21-.39.07s-.52-.38-.79-.57-.19-.21-.07-.37l.7-.95c.08-.1.15-.14.26-.06l.93.68A.45.45,0,0,1,1077.4,2132.55Z" transform="translate(-358.26 -1505.12)"/><circle cx="515.14" cy="602.48" r="55.85" style="fill:#edc137;stroke:#917120;stroke-miterlimit:10;stroke-width:3.49049854278564px"/><circle cx="515.14" cy="602.48" r="45.37" style="fill:#cecece"/><path d="M873.42,2154.5a46.89,46.89,0,1,1,46.89-47.45A46.87,46.87,0,0,1,873.42,2154.5Zm-45.31-46.94a45.32,45.32,0,0,0,90.63.39,45.35,45.35,0,0,0-46.9-45.63A45.27,45.27,0,0,0,828.11,2107.56Z" transform="translate(-358.26 -1505.12)"/><path d="M877,2107.63a3.59,3.59,0,1,1-3.54-3.61A3.56,3.56,0,0,1,877,2107.63Z" transform="translate(-358.26 -1505.12)"/><path d="M831.48,2109.22h-1.22c-.22,0-.3-.06-.31-.3a24.48,24.48,0,0,1,0-2.57c0-.26.11-.35.36-.35h2.4a.57.57,0,0,1,.44.17q.6.63,1.23,1.23a.24.24,0,0,1,0,.4l-1.21,1.21a.63.63,0,0,1-.5.2Z" transform="translate(-358.26 -1505.12)"/><path d="M915.38,2106h1.15c.25,0,.37.07.38.35a21.69,21.69,0,0,1,0,2.55c0,.24-.11.32-.34.32h-2.41a.59.59,0,0,1-.46-.2c-.4-.4-.8-.81-1.21-1.2-.15-.15-.16-.26,0-.41.41-.39.81-.8,1.2-1.21a.69.69,0,0,1,.5-.2Z" transform="translate(-358.26 -1505.12)"/><path d="M871.82,2065.66c0-.39,0-.79,0-1.18,0-.22.07-.33.32-.35a22,22,0,0,1,2.57,0c.22,0,.32.09.32.31V2067a.5.5,0,0,1-.17.37c-.41.41-.82.81-1.23,1.23a.23.23,0,0,1-.4,0l-1.23-1.23a.61.61,0,0,1-.18-.47v-1.19Z" transform="translate(-358.26 -1505.12)"/><path d="M871.82,2149.31c-.28-.88.24-1.61,1-2.27.62-.52.55-.5,1.18,0a2.41,2.41,0,0,1,1,2.43,7.45,7.45,0,0,0,0,1.25c0,.25-.08.35-.35.36a21.52,21.52,0,0,1-2.54,0c-.24,0-.33-.1-.33-.33C871.83,2150.34,871.82,2149.92,871.82,2149.31Z" transform="translate(-358.26 -1505.12)"/><path d="M837.74,2126.5l1.87.51c.14,0,.12.15.09.26l-.48,1.82a.43.43,0,0,1-.23.25l-2.2,1.27c-.17.1-.28.09-.37-.08l-1.32-2.3c-.11-.18-.09-.29.1-.39l2.19-1.27A.52.52,0,0,1,837.74,2126.5Z" transform="translate(-358.26 -1505.12)"/><path d="M909.19,2126.48a.49.49,0,0,1,.27.1l2.18,1.24c.19.11.23.21.11.41-.44.75-.87,1.51-1.29,2.27-.12.21-.24.21-.43.1l-2.14-1.24a.55.55,0,0,1-.28-.37c-.14-.55-.3-1.1-.44-1.65,0-.12-.11-.27.08-.33Z" transform="translate(-358.26 -1505.12)"/><path d="M909.23,2088.75c-.4-.11-.8-.2-1.18-.32s-.72,0-.87-.29.13-.59.16-.9a2.06,2.06,0,0,1,1.4-1.87,9.94,9.94,0,0,0,1.3-.75c.16-.1.29-.12.4.08l1.3,2.27c.09.15.16.28,0,.4l-2.27,1.3A1.54,1.54,0,0,1,909.23,2088.75Z" transform="translate(-358.26 -1505.12)"/><path d="M837.69,2088.73a.57.57,0,0,1-.34-.1c-.7-.41-1.4-.82-2.11-1.22-.2-.11-.27-.21-.14-.43.45-.75.88-1.51,1.31-2.27.1-.18.21-.2.39-.09.71.42,1.43.83,2.15,1.23a.61.61,0,0,1,.3.4c.14.55.3,1.1.44,1.65,0,.12.1.26-.09.32Z" transform="translate(-358.26 -1505.12)"/><path d="M854.56,2071.8c-.14.54-.28,1.06-.42,1.59s-.1.56-.7.41c-.39-.1-.76-.24-1.15-.3a1,1,0,0,1-.76-.58c-.35-.63-.7-1.26-1.06-1.88-.13-.22-.12-.35.11-.48l2.24-1.28c.16-.1.26-.11.36.07l1.31,2.26A.73.73,0,0,1,854.56,2071.8Z" transform="translate(-358.26 -1505.12)"/><path d="M892.3,2143.44a3,3,0,0,1,.07-.32c.12-.45.25-.89.36-1.34s.12-.52.64-.37l1.38.37a.64.64,0,0,1,.44.31c.39.7.79,1.4,1.2,2.09.14.24.1.36-.14.49-.73.41-1.46.83-2.18,1.26-.21.12-.33.07-.44-.13-.41-.73-.84-1.45-1.26-2.18A1.34,1.34,0,0,1,892.3,2143.44Z" transform="translate(-358.26 -1505.12)"/><path d="M892.31,2071.88a.46.46,0,0,1,.07-.3c.42-.72.85-1.44,1.26-2.17.12-.21.21-.25.43-.12.73.44,1.48.87,2.23,1.29.17.1.23.21.12.39l-1.24,2.18a.57.57,0,0,1-.38.28l-1.65.44c-.11,0-.27.11-.32-.08C892.64,2073.13,892.47,2072.47,892.31,2071.88Z" transform="translate(-358.26 -1505.12)"/><path d="M854.54,2143.33a.42.42,0,0,1-.06.31c-.42.71-.84,1.42-1.24,2.14-.12.22-.24.28-.47.14-.74-.44-1.49-.86-2.23-1.29-.19-.1-.2-.23-.1-.4.42-.71.83-1.43,1.23-2.14a.59.59,0,0,1,.41-.3l1.65-.44c.11,0,.24-.09.29.07C854.21,2142.08,854.38,2142.75,854.54,2143.33Z" transform="translate(-358.26 -1505.12)"/><path d="M912.26,2124l.75.34c.5.23.5.23.27.74-.11.24-.22.48-.32.73s-.2.22-.39.13-.6-.28-.91-.42c-.15-.06-.21-.13-.13-.29.18-.36.34-.73.51-1.1A.19.19,0,0,1,912.26,2124Z" transform="translate(-358.26 -1505.12)"/><path d="M833.68,2121.15a.24.24,0,0,1-.19.3l-1,.31c-.17.06-.26,0-.31-.16l-.36-1.09c-.05-.16,0-.26.16-.31l1-.32c.11,0,.22-.06.27.07Z" transform="translate(-358.26 -1505.12)"/><path d="M859.26,2148.53c.11-.32.24-.72.38-1.11,0-.13.15-.09.24-.06l1.12.36c.15.05.22.13.17.29-.12.34-.23.68-.34,1,0,.14-.13.2-.26.16l-1.19-.4C859.29,2148.76,859.24,2148.71,859.26,2148.53Z" transform="translate(-358.26 -1505.12)"/><path d="M833.05,2095.37,832,2095c-.14,0-.15-.14-.12-.25.12-.39.25-.77.38-1.16,0-.15.15-.18.3-.13l1,.34c.15,0,.17.14.13.27-.12.37-.24.75-.37,1.13C833.27,2095.32,833.21,2095.4,833.05,2095.37Z" transform="translate(-358.26 -1505.12)"/><path d="M913.8,2119.86l1.09.36c.14.05.15.14.11.25-.12.39-.25.77-.37,1.16a.2.2,0,0,1-.3.13l-1.05-.34c-.15,0-.15-.13-.11-.24.12-.39.25-.77.37-1.16C913.58,2119.9,913.66,2119.82,913.8,2119.86Z" transform="translate(-358.26 -1505.12)"/><path d="M913.87,2095.34c-.24,0-.29,0-.33-.14l-.36-1.13a.19.19,0,0,1,.15-.28l1-.33c.18-.06.27,0,.32.16.12.37.24.73.35,1.09,0,.1.07.22-.07.27Z" transform="translate(-358.26 -1505.12)"/><path d="M883.23,2065.43c-.07.37-.15.73-.23,1.09,0,.14-.13.17-.27.14l-1.12-.23c-.2,0-.25-.14-.2-.33s.16-.65.21-1,.13-.23.3-.19l1.09.23C883.15,2065.19,883.29,2065.23,883.23,2065.43Z" transform="translate(-358.26 -1505.12)"/><path d="M885.69,2148c0-.21,0-.26.15-.3l1.13-.36c.15-.05.24,0,.29.14.09.33.19.65.31,1s0,.3-.18.36l-1,.34c-.11,0-.24.09-.3-.06C885.92,2148.72,885.8,2148.34,885.69,2148Z" transform="translate(-358.26 -1505.12)"/><path d="M834.58,2091.21c-.35-.15-.74-.32-1.12-.51-.11,0-.07-.15,0-.24l.48-1.08a.21.21,0,0,1,.33-.12c.3.15.61.29.92.41s.23.17.14.35l-.47,1.05A.2.2,0,0,1,834.58,2091.21Z" transform="translate(-358.26 -1505.12)"/><path d="M857,2146.46l-.51,1.13c-.06.11-.16.06-.25,0-.36-.16-.71-.33-1.08-.48-.16-.07-.18-.18-.11-.33.15-.32.29-.63.43-1a.19.19,0,0,1,.3-.12l1.07.48A.2.2,0,0,1,857,2146.46Z" transform="translate(-358.26 -1505.12)"/><path d="M863.62,2149.81l.24-1.12c0-.13.12-.16.24-.13l1.16.24a.21.21,0,0,1,.19.3c-.08.34-.16.68-.22,1,0,.17-.13.21-.27.18l-1.13-.24C863.69,2150,863.58,2150,863.62,2149.81Z" transform="translate(-358.26 -1505.12)"/><path d="M883.24,2149.81c0,.12,0,.21-.15.24l-1.23.25c-.15,0-.2,0-.23-.18-.07-.34-.15-.68-.23-1,0-.17,0-.26.2-.3l1.16-.24c.12,0,.21,0,.23.13C883.08,2149.06,883.16,2149.44,883.24,2149.81Z" transform="translate(-358.26 -1505.12)"/><path d="M887.6,2066.67c-.12.35-.24.71-.35,1.06,0,.16-.16.17-.3.13l-1.09-.35c-.17-.06-.22-.16-.16-.32.11-.33.22-.66.32-1s.18-.2.33-.15l1,.35C887.53,2066.44,887.65,2066.49,887.6,2066.67Z" transform="translate(-358.26 -1505.12)"/><path d="M834.58,2124a.21.21,0,0,1,.25.14l.47,1c.08.18,0,.27-.14.35l-.92.41c-.16.08-.26.05-.33-.12-.16-.36-.32-.71-.49-1.07,0-.09-.08-.2,0-.25Z" transform="translate(-358.26 -1505.12)"/><path d="M859.28,2066.73c-.06-.23,0-.28.14-.32l1.12-.37c.15-.05.24,0,.29.16.11.33.21.66.33,1s0,.28-.19.33c-.35.1-.69.21-1,.33s-.3,0-.36-.19S859.36,2067,859.28,2066.73Z" transform="translate(-358.26 -1505.12)"/><path d="M865,2064.93c.16,0,.22,0,.25.13.07.37.16.73.24,1.09a.19.19,0,0,1-.16.26l-1.19.25c-.17,0-.23,0-.27-.19-.06-.32-.13-.63-.2-.95s0-.33.22-.37Z" transform="translate(-358.26 -1505.12)"/><path d="M913.46,2090.52c0,.16-.06.19-.15.23l-1,.44a.21.21,0,0,1-.31-.12q-.22-.54-.48-1.08a.2.2,0,0,1,.13-.3l1-.44c.09,0,.19-.07.24,0C913.09,2089.71,913.28,2090.13,913.46,2090.52Z" transform="translate(-358.26 -1505.12)"/><path d="M891.81,2146.91c0,.14-.07.17-.14.21l-1.08.48a.19.19,0,0,1-.3-.12c-.14-.32-.28-.64-.43-.95s0-.26.13-.33c.36-.15.72-.32,1.08-.48.06,0,.14-.08.19,0A9.77,9.77,0,0,1,891.81,2146.91Z" transform="translate(-358.26 -1505.12)"/><path d="M877,2149.78c-.07-.27.07-.35.35-.36a7.87,7.87,0,0,0,1-.12c.22,0,.32,0,.34.27s.05.62.08.93,0,.3-.25.32-.69.08-1,.12-.35-.05-.36-.3S877.07,2150.09,877,2149.78Z" transform="translate(-358.26 -1505.12)"/><path d="M869.82,2149.8c0,.3-.06.59-.08.88s-.13.28-.33.26l-1.1-.13c-.19,0-.23-.11-.22-.27,0-.34.07-.67.1-1a.22.22,0,0,1,.28-.23l1.18.13C869.91,2149.47,869.81,2149.66,869.82,2149.8Z" transform="translate(-358.26 -1505.12)"/><path d="M891.1,2069.52c-.37-.17-.8-.36-1.21-.56-.13-.06-.07-.18,0-.27l.42-1c.06-.14.13-.19.29-.12.35.17.72.32,1.08.48.11,0,.21.12.14.27-.15.36-.32.71-.48,1.07C891.29,2069.5,891.24,2069.54,891.1,2069.52Z" transform="translate(-358.26 -1505.12)"/><path d="M877,2065.43c0-.3.06-.59.08-.87s.11-.3.31-.28c.38,0,.76.1,1.14.13.18,0,.21.12.19.26l-.09,1c0,.18-.11.24-.28.21l-1.17-.13C877,2065.76,877,2065.57,877,2065.43Z" transform="translate(-358.26 -1505.12)"/><path d="M914.89,2115.58l1.05.24c.16,0,.2.14.17.28-.08.38-.16.75-.23,1.12,0,.18-.14.22-.3.19l-1-.22c-.15,0-.22-.1-.18-.27l.24-1.15C914.65,2115.62,914.73,2115.54,914.89,2115.58Z" transform="translate(-358.26 -1505.12)"/><path d="M857,2068.77c0,.18-.08.22-.18.26-.34.15-.68.29-1,.45s-.28,0-.35-.14-.27-.61-.41-.92c-.07-.15-.06-.25.11-.33.37-.15.72-.32,1.08-.48.09,0,.19-.08.25,0C856.7,2068,856.87,2068.42,857,2068.77Z" transform="translate(-358.26 -1505.12)"/><path d="M869.82,2065.48c.06.21,0,.31-.28.32a8,8,0,0,0-1,.12c-.29,0-.4-.06-.4-.35a3.77,3.77,0,0,0,0-.58c-.08-.56-.08-.56.46-.63l.83-.08c.2,0,.3.07.32.27S869.79,2065.15,869.82,2065.48Z" transform="translate(-358.26 -1505.12)"/><path d="M916.12,2099.17a.19.19,0,0,1-.16.23l-1.08.24a.19.19,0,0,1-.25-.17c-.09-.39-.17-.79-.25-1.18,0-.17,0-.23.19-.26.33-.07.66-.15,1-.21.14,0,.27,0,.31.16C916,2098.38,916,2098.77,916.12,2099.17Z" transform="translate(-358.26 -1505.12)"/><path d="M832.47,2116.88c0,.25-.06.29-.18.32l-1,.21c-.2,0-.3,0-.33-.23s-.14-.7-.22-1c0-.19,0-.29.21-.33s.65-.14,1-.21c.13,0,.24,0,.28.12Z" transform="translate(-358.26 -1505.12)"/><path d="M831.22,2097.8l1.12.24c.15,0,.16.14.13.27-.08.38-.16.75-.23,1.13,0,.17-.13.24-.3.2-.33-.08-.66-.16-1-.22s-.24-.15-.2-.33c.08-.35.15-.7.22-1.06C831,2097.9,831,2097.78,831.22,2097.8Z" transform="translate(-358.26 -1505.12)"/><path d="M916.33,2112.94l-.94-.08c-.2,0-.29-.11-.27-.32,0-.37.09-.75.13-1.14,0-.14.09-.2.23-.18l1.08.1c.16,0,.21.12.19.27l-.12,1.17C916.61,2113,916.43,2112.93,916.33,2112.94Z" transform="translate(-358.26 -1505.12)"/><path d="M831.31,2111.21c.22-.05.3.07.31.33s.07.64.11,1-.05.35-.29.36-.63,0-.94.09-.27,0-.28-.25-.08-.69-.12-1,0-.35.3-.36Z" transform="translate(-358.26 -1505.12)"/><path d="M915.55,2104c-.2,0-.3-.05-.31-.31a7.4,7.4,0,0,0-.12-.93c0-.26.07-.4.34-.41l.9-.08c.19,0,.27,0,.28.24,0,.36.07.71.11,1.07s-.07.32-.28.33Z" transform="translate(-358.26 -1505.12)"/><path d="M831.3,2104l-.77-.08c-.42,0-.46-.07-.42-.49s.08-.62.11-.93.07-.25.25-.23l1,.09c.23,0,.24.18.22.36s-.1.62-.11.93S831.52,2104.08,831.3,2104Z" transform="translate(-358.26 -1505.12)"/><path d="M907.92,2083.53a.23.23,0,0,1-.17-.13c-.23-.3-.45-.62-.68-.92a.22.22,0,0,1,.06-.37l.82-.59c.12-.09.22-.12.32,0,.24.33.47.66.71,1a.18.18,0,0,1-.05.3l-.9.65A.27.27,0,0,1,907.92,2083.53Z" transform="translate(-358.26 -1505.12)"/><path d="M839.89,2082.3c-.06.09-.1.18-.15.25-.2.27-.41.54-.6.81s-.22.21-.39.08-.52-.39-.79-.58-.18-.21-.06-.37.44-.6.65-.9c.08-.11.17-.21.31-.1l.93.68A.73.73,0,0,1,839.89,2082.3Z" transform="translate(-358.26 -1505.12)"/><path d="M849.35,2073.12a.23.23,0,0,1-.13.17l-.92.68a.23.23,0,0,1-.38-.06c-.19-.28-.39-.55-.59-.82s-.12-.23,0-.34c.32-.21.63-.44.94-.67.1-.07.2-.13.3,0,.24.31.47.63.7,1A.63.63,0,0,1,849.35,2073.12Z" transform="translate(-358.26 -1505.12)"/><path d="M905.18,2137.28l-.13-.08-.77-.7a.23.23,0,0,1,0-.38c.25-.28.5-.55.74-.83s.24-.16.38,0l.77.71c.07.06.14.14.06.23l-.91,1A.45.45,0,0,1,905.18,2137.28Z" transform="translate(-358.26 -1505.12)"/><path d="M844.89,2140.44l-.22-.18-.78-.69c-.12-.11-.16-.21,0-.35s.45-.49.67-.75.24-.17.38,0l.86.76c.09.09.15.19,0,.3l-.79.87A.76.76,0,0,1,844.89,2140.44Z" transform="translate(-358.26 -1505.12)"/><path d="M848.48,2143.24c-.11-.07-.21-.12-.3-.19l-.76-.55c-.18-.12-.2-.23-.07-.4s.39-.52.57-.79a.23.23,0,0,1,.38-.06l.92.68c.1.08.18.15.08.28l-.68.93A.5.5,0,0,1,848.48,2143.24Z" transform="translate(-358.26 -1505.12)"/><path d="M898.73,2141.16a.27.27,0,0,1,.18.12c.2.28.4.57.61.85s.1.24,0,.34l-.93.67c-.14.11-.24.1-.35,0s-.41-.56-.61-.84c-.08-.11-.1-.2,0-.3.33-.23.65-.48,1-.72A.91.91,0,0,1,898.73,2141.16Z" transform="translate(-358.26 -1505.12)"/><path d="M906.24,2079.08c0,.1-.06.15-.12.2-.24.22-.49.42-.72.65s-.26.16-.4,0l-.72-.8c-.14-.15-.16-.27,0-.41l.75-.67c.09-.09.19-.13.29,0l.86,1A.2.2,0,0,1,906.24,2079.08Z" transform="translate(-358.26 -1505.12)"/><path d="M842.69,2078.88a4.48,4.48,0,0,1-1,1.18c-.09,0-.14-.07-.2-.12-.24-.22-.48-.44-.73-.65s-.15-.23,0-.37.5-.55.75-.83c.08-.1.18-.19.32-.07s.55.49.82.75A.33.33,0,0,1,842.69,2078.88Z" transform="translate(-358.26 -1505.12)"/><path d="M903.09,2075.83s0,.08,0,.1l-.82.9c-.09.1-.19,0-.27,0l-.88-.79c-.12-.11-.11-.21,0-.33s.48-.53.73-.79c.06-.08.14-.14.23,0,.34.29.68.6,1,.9A.73.73,0,0,1,903.09,2075.83Z" transform="translate(-358.26 -1505.12)"/><path d="M844.72,2076.89a.67.67,0,0,1-.16-.12l-.7-.77a.2.2,0,0,1,0-.33l.88-.78c.12-.11.21-.11.32,0s.46.5.68.75c.09.09.19.2.06.32l-1,.86A.39.39,0,0,1,844.72,2076.89Z" transform="translate(-358.26 -1505.12)"/><path d="M899.59,2073l-.3.42c-.53.72-.53.72-1.25.19s-.6-.45-.15-1,.45-.62,1.09-.17c.17.12.33.25.49.38S899.61,2072.85,899.59,2073Z" transform="translate(-358.26 -1505.12)"/><path d="M839.87,2132.86a.24.24,0,0,1-.13.24l-.42.3c-.73.52-.51.54-1.06-.15l-.18-.25c-.33-.48-.33-.48.16-.84.73-.53.73-.53,1.27.2C839.63,2132.54,839.76,2132.71,839.87,2132.86Z" transform="translate(-358.26 -1505.12)"/><path d="M841.64,2135.16a.38.38,0,0,1,.22.14l.72.8a.24.24,0,0,1,0,.41c-.26.21-.5.44-.75.67a.19.19,0,0,1-.32,0c-.26-.3-.53-.59-.8-.88-.09-.09-.13-.18,0-.29l.82-.75Z" transform="translate(-358.26 -1505.12)"/><path d="M902,2140.42a.2.2,0,0,1-.18-.1c-.23-.25-.45-.5-.69-.75s-.14-.26,0-.4.54-.48.81-.72.25-.14.38,0,.47.52.7.78a.18.18,0,0,1,0,.28l-1,.86Z" transform="translate(-358.26 -1505.12)"/><path d="M909.06,2132.55a2.2,2.2,0,0,1-.12.19c-.2.3-.42.58-.62.88s-.22.21-.4.07-.52-.38-.78-.57-.2-.21-.08-.37c.24-.32.48-.63.71-.95.07-.1.15-.14.26-.06l.92.68A.75.75,0,0,1,909.06,2132.55Z" transform="translate(-358.26 -1505.12)"/><circle cx="851.83" cy="602.48" r="55.85" style="fill:#edc137;stroke:#917120;stroke-miterlimit:10;stroke-width:3.49049854278564px"/><circle cx="851.83" cy="602.48" r="45.37" style="fill:#cecece"/><path d="M1210.11,2154.5a46.89,46.89,0,1,1,46.89-47.45A46.87,46.87,0,0,1,1210.11,2154.5Zm-45.31-46.94a45.32,45.32,0,0,0,90.63.39,45.35,45.35,0,0,0-46.9-45.63A45.27,45.27,0,0,0,1164.8,2107.56Z" transform="translate(-358.26 -1505.12)"/><path d="M1213.71,2107.63a3.59,3.59,0,1,1-3.54-3.61A3.56,3.56,0,0,1,1213.71,2107.63Z" transform="translate(-358.26 -1505.12)"/><path d="M1168.17,2109.22H1167c-.22,0-.3-.06-.31-.3a22,22,0,0,1,0-2.57c0-.26.1-.35.35-.35h2.4a.56.56,0,0,1,.44.17q.62.63,1.23,1.23c.16.15.15.26,0,.4l-1.21,1.21a.63.63,0,0,1-.5.2Z" transform="translate(-358.26 -1505.12)"/><path d="M1252.07,2106h1.15c.26,0,.37.07.39.35a24.1,24.1,0,0,1,0,2.55c0,.24-.11.32-.34.32h-2.4a.6.6,0,0,1-.47-.2c-.4-.4-.8-.81-1.21-1.2-.15-.15-.16-.26,0-.41.41-.39.81-.8,1.21-1.21a.66.66,0,0,1,.5-.2Z" transform="translate(-358.26 -1505.12)"/><path d="M1208.52,2065.66c0-.39,0-.79,0-1.18,0-.22.07-.33.32-.35a22.21,22.21,0,0,1,2.58,0c.22,0,.31.09.31.31,0,.84,0,1.67,0,2.51a.51.51,0,0,1-.18.37c-.41.41-.82.81-1.23,1.23-.14.15-.25.15-.4,0l-1.23-1.23a.61.61,0,0,1-.18-.47c0-.4,0-.79,0-1.19Z" transform="translate(-358.26 -1505.12)"/><path d="M1208.52,2149.31c-.29-.88.24-1.61,1-2.27s.55-.5,1.19,0a2.45,2.45,0,0,1,1,2.43,7.45,7.45,0,0,0,0,1.25c0,.25-.08.35-.34.36a21.52,21.52,0,0,1-2.54,0c-.24,0-.34-.1-.34-.33C1208.52,2150.34,1208.52,2149.92,1208.52,2149.31Z" transform="translate(-358.26 -1505.12)"/><path d="M1174.43,2126.5l1.87.51c.14,0,.12.15.1.26-.16.6-.33,1.21-.49,1.82a.41.41,0,0,1-.23.25l-2.2,1.27c-.17.1-.27.09-.37-.08l-1.32-2.3c-.1-.18-.09-.29.1-.39l2.19-1.27A.54.54,0,0,1,1174.43,2126.5Z" transform="translate(-358.26 -1505.12)"/><path d="M1245.89,2126.48a.49.49,0,0,1,.26.1l2.18,1.24c.19.11.24.21.12.41-.45.75-.88,1.51-1.3,2.27-.12.21-.24.21-.42.1l-2.14-1.24a.57.57,0,0,1-.29-.37c-.14-.55-.3-1.1-.44-1.65,0-.12-.1-.27.08-.33Z" transform="translate(-358.26 -1505.12)"/><path d="M1245.92,2088.75c-.4-.11-.79-.2-1.18-.32s-.71,0-.86-.29.12-.59.15-.9a2.09,2.09,0,0,1,1.4-1.87,9.94,9.94,0,0,0,1.3-.75c.17-.1.29-.12.4.08.43.76.87,1.51,1.31,2.27.08.15.15.28-.06.4l-2.27,1.3A.84.84,0,0,1,1245.92,2088.75Z" transform="translate(-358.26 -1505.12)"/><path d="M1174.38,2088.73a.52.52,0,0,1-.33-.1l-2.12-1.22c-.2-.11-.27-.21-.13-.43.44-.75.87-1.51,1.3-2.27.1-.18.21-.2.39-.09.71.42,1.43.83,2.15,1.23a.61.61,0,0,1,.3.4c.14.55.3,1.1.44,1.65,0,.12.1.26-.09.32Z" transform="translate(-358.26 -1505.12)"/><path d="M1191.26,2071.8c-.15.54-.28,1.06-.43,1.59s-.1.56-.7.41a11.43,11.43,0,0,0-1.15-.3,1,1,0,0,1-.76-.58c-.35-.63-.7-1.26-1.06-1.88-.13-.22-.12-.35.12-.48.75-.42,1.49-.85,2.23-1.28.16-.1.26-.11.36.07l1.31,2.26A1.54,1.54,0,0,1,1191.26,2071.8Z" transform="translate(-358.26 -1505.12)"/><path d="M1229,2143.44c0-.11,0-.22.07-.32.12-.45.25-.89.36-1.34s.12-.52.65-.37l1.38.37a.62.62,0,0,1,.43.31c.39.7.79,1.4,1.2,2.09.14.24.1.36-.14.49-.73.41-1.46.83-2.18,1.26-.21.12-.32.07-.44-.13-.41-.73-.84-1.45-1.26-2.18A1.34,1.34,0,0,1,1229,2143.44Z" transform="translate(-358.26 -1505.12)"/><path d="M1229,2071.88a.46.46,0,0,1,.07-.3c.42-.72.85-1.44,1.26-2.17.12-.21.22-.25.43-.12.74.44,1.49.87,2.23,1.29.18.1.23.21.13.39-.42.73-.84,1.45-1.25,2.18a.57.57,0,0,1-.38.28l-1.64.44c-.12,0-.27.11-.33-.08Z" transform="translate(-358.26 -1505.12)"/><path d="M1191.24,2143.33a.47.47,0,0,1-.07.31c-.41.71-.83,1.42-1.24,2.14-.12.22-.24.28-.47.14-.74-.44-1.48-.86-2.23-1.29-.19-.1-.2-.23-.09-.4l1.23-2.14a.56.56,0,0,1,.4-.3l1.65-.44c.11,0,.25-.09.29.07C1190.9,2142.08,1191.08,2142.75,1191.24,2143.33Z" transform="translate(-358.26 -1505.12)"/><path d="M1249,2124l.76.34c.49.23.49.23.27.74-.11.24-.23.48-.33.73s-.2.22-.38.13-.61-.28-.92-.42c-.14-.06-.21-.13-.13-.29.18-.36.35-.73.51-1.1A.19.19,0,0,1,1249,2124Z" transform="translate(-358.26 -1505.12)"/><path d="M1170.37,2121.15a.23.23,0,0,1-.19.3l-1,.31c-.18.06-.27,0-.32-.16l-.36-1.09c0-.16,0-.26.16-.31l1-.32c.1,0,.22-.06.26.07C1170.12,2120.37,1170.25,2120.79,1170.37,2121.15Z" transform="translate(-358.26 -1505.12)"/><path d="M1196,2148.53c.1-.32.23-.72.37-1.11,0-.13.15-.09.24-.06l1.13.36c.14.05.21.13.16.29-.12.34-.23.68-.34,1,0,.14-.13.2-.26.16l-1.19-.4C1196,2148.76,1195.93,2148.71,1196,2148.53Z" transform="translate(-358.26 -1505.12)"/><path d="M1169.75,2095.37l-1.09-.37c-.14,0-.15-.14-.12-.25.13-.39.26-.77.38-1.16a.2.2,0,0,1,.3-.13l1,.34c.15,0,.16.14.12.27l-.36,1.13C1170,2095.32,1169.9,2095.4,1169.75,2095.37Z" transform="translate(-358.26 -1505.12)"/><path d="M1250.5,2119.86c.36.12.72.25,1.08.36.14.05.15.14.12.25l-.38,1.16c0,.15-.14.19-.3.13l-1-.34c-.14,0-.14-.13-.11-.24.12-.39.25-.77.38-1.16C1250.28,2119.9,1250.35,2119.82,1250.5,2119.86Z" transform="translate(-358.26 -1505.12)"/><path d="M1250.56,2095.34c-.24,0-.29,0-.33-.14l-.36-1.13a.19.19,0,0,1,.15-.28c.34-.11.67-.21,1-.33.17-.06.26,0,.31.16l.36,1.09c0,.1.06.22-.07.27Z" transform="translate(-358.26 -1505.12)"/><path d="M1219.93,2065.43l-.24,1.09c0,.14-.13.17-.26.14l-1.13-.23c-.19,0-.25-.14-.2-.33s.16-.65.22-1,.12-.23.29-.19l1.09.23C1219.85,2065.19,1220,2065.23,1219.93,2065.43Z" transform="translate(-358.26 -1505.12)"/><path d="M1222.38,2148c0-.21,0-.26.16-.3l1.12-.36c.16-.05.24,0,.29.14.1.33.2.65.31,1s0,.3-.18.36l-1,.34c-.11,0-.25.09-.31-.06C1222.61,2148.72,1222.49,2148.34,1222.38,2148Z" transform="translate(-358.26 -1505.12)"/><path d="M1171.27,2091.21c-.34-.15-.74-.32-1.12-.51-.11,0-.07-.15,0-.24.16-.36.33-.72.48-1.08a.21.21,0,0,1,.33-.12c.3.15.61.29.92.41s.23.17.14.35c-.16.35-.31.7-.46,1.05A.21.21,0,0,1,1171.27,2091.21Z" transform="translate(-358.26 -1505.12)"/><path d="M1193.72,2146.46l-.51,1.13c0,.11-.16.06-.24,0l-1.08-.48c-.17-.07-.19-.18-.12-.33.15-.32.29-.63.43-1a.19.19,0,0,1,.3-.12l1.08.48A.21.21,0,0,1,1193.72,2146.46Z" transform="translate(-358.26 -1505.12)"/><path d="M1200.31,2149.81l.24-1.12c0-.13.13-.16.25-.13l1.16.24a.21.21,0,0,1,.18.3c-.07.34-.16.68-.22,1,0,.17-.12.21-.27.18l-1.13-.24C1200.39,2150,1200.28,2150,1200.31,2149.81Z" transform="translate(-358.26 -1505.12)"/><path d="M1219.93,2149.81c0,.12,0,.21-.15.24l-1.23.25c-.14,0-.2,0-.23-.18-.07-.34-.15-.68-.23-1a.23.23,0,0,1,.2-.3l1.16-.24a.17.17,0,0,1,.24.13Z" transform="translate(-358.26 -1505.12)"/><path d="M1224.29,2066.67c-.12.35-.24.71-.35,1.06,0,.16-.16.17-.3.13l-1.09-.35c-.17-.06-.22-.16-.16-.32l.33-1c0-.19.17-.2.32-.15l1.06.35C1224.22,2066.44,1224.34,2066.49,1224.29,2066.67Z" transform="translate(-358.26 -1505.12)"/><path d="M1171.27,2124a.21.21,0,0,1,.25.14l.47,1c.09.18,0,.27-.14.35l-.92.41c-.16.08-.26.05-.33-.12-.16-.36-.32-.71-.49-1.07,0-.09-.07-.2,0-.25Z" transform="translate(-358.26 -1505.12)"/><path d="M1196,2066.73c0-.23,0-.28.14-.32l1.13-.37c.14-.05.24,0,.28.16l.33,1c.07.19,0,.28-.19.33-.34.1-.69.21-1,.33s-.3,0-.36-.19S1196.05,2067,1196,2066.73Z" transform="translate(-358.26 -1505.12)"/><path d="M1201.66,2064.93c.17,0,.22,0,.25.13.07.37.16.73.24,1.09,0,.14,0,.23-.16.26l-1.19.25c-.17,0-.23,0-.26-.19l-.21-.95c0-.2,0-.33.22-.37Z" transform="translate(-358.26 -1505.12)"/><path d="M1250.15,2090.52c0,.16-.06.19-.15.23l-1,.44c-.15.06-.24,0-.3-.12l-.48-1.08a.19.19,0,0,1,.12-.3l1-.44c.09,0,.2-.07.25,0C1249.79,2089.71,1250,2090.13,1250.15,2090.52Z" transform="translate(-358.26 -1505.12)"/><path d="M1228.51,2146.91c0,.14-.08.17-.15.21l-1.08.48a.19.19,0,0,1-.3-.12c-.14-.32-.28-.64-.43-.95s0-.26.13-.33c.36-.15.72-.32,1.08-.48.06,0,.14-.08.19,0A9.88,9.88,0,0,1,1228.51,2146.91Z" transform="translate(-358.26 -1505.12)"/><path d="M1213.73,2149.78c-.08-.27.06-.35.34-.36a7.87,7.87,0,0,0,1-.12c.23,0,.33,0,.34.27s.05.62.08.93,0,.3-.24.32-.69.08-1,.12-.35-.05-.36-.3S1213.76,2150.09,1213.73,2149.78Z" transform="translate(-358.26 -1505.12)"/><path d="M1206.51,2149.8c0,.3-.06.59-.08.88s-.13.28-.33.26l-1.1-.13c-.19,0-.23-.11-.21-.27l.09-1a.23.23,0,0,1,.28-.23l1.18.13C1206.6,2149.47,1206.5,2149.66,1206.51,2149.8Z" transform="translate(-358.26 -1505.12)"/><path d="M1227.79,2069.52l-1.21-.56c-.12-.06-.07-.18,0-.27l.42-1c.06-.14.13-.19.29-.12.36.17.72.32,1.08.48.11,0,.21.12.15.27-.16.36-.33.71-.49,1.07C1228,2069.5,1227.93,2069.54,1227.79,2069.52Z" transform="translate(-358.26 -1505.12)"/><path d="M1213.73,2065.43c0-.3.06-.59.08-.87s.11-.3.32-.28c.38,0,.75.1,1.13.13.18,0,.21.12.2.26,0,.35-.07.69-.1,1,0,.18-.11.24-.28.21l-1.17-.13C1213.65,2065.76,1213.73,2065.57,1213.73,2065.43Z" transform="translate(-358.26 -1505.12)"/><path d="M1251.58,2115.58l1.05.24c.17,0,.2.14.17.28-.08.38-.16.75-.23,1.12,0,.18-.14.22-.3.19l-1-.22c-.15,0-.22-.1-.18-.27.09-.38.17-.76.25-1.15C1251.35,2115.62,1251.42,2115.54,1251.58,2115.58Z" transform="translate(-358.26 -1505.12)"/><path d="M1193.72,2068.77c0,.18-.08.22-.18.26l-1,.45c-.18.09-.27,0-.35-.14s-.26-.61-.41-.92a.21.21,0,0,1,.12-.33l1.08-.48c.08,0,.19-.08.24,0C1193.39,2068,1193.56,2068.42,1193.72,2068.77Z" transform="translate(-358.26 -1505.12)"/><path d="M1206.51,2065.48c.06.21,0,.31-.28.32a7.87,7.87,0,0,0-1,.12c-.3,0-.41-.06-.4-.35a3.79,3.79,0,0,0,0-.58c-.08-.56-.08-.56.46-.63l.83-.08a.26.26,0,0,1,.32.27C1206.45,2064.85,1206.48,2065.15,1206.51,2065.48Z" transform="translate(-358.26 -1505.12)"/><path d="M1252.81,2099.17a.19.19,0,0,1-.16.23l-1.08.24a.19.19,0,0,1-.25-.17c-.09-.39-.17-.79-.25-1.18,0-.17,0-.23.19-.26.33-.07.66-.15,1-.21.14,0,.27,0,.31.16C1252.64,2098.38,1252.73,2098.77,1252.81,2099.17Z" transform="translate(-358.26 -1505.12)"/><path d="M1169.16,2116.88c0,.25-.06.29-.18.32l-1,.21c-.2,0-.3,0-.33-.23s-.14-.7-.22-1a.24.24,0,0,1,.21-.33c.33-.06.66-.14,1-.21.13,0,.24,0,.28.12Z" transform="translate(-358.26 -1505.12)"/><path d="M1167.91,2097.8l1.13.24c.14,0,.16.14.13.27-.09.38-.17.75-.24,1.13,0,.17-.12.24-.3.2-.33-.08-.65-.16-1-.22s-.25-.15-.21-.33c.08-.35.15-.7.22-1.06C1167.69,2097.9,1167.73,2097.78,1167.91,2097.8Z" transform="translate(-358.26 -1505.12)"/><path d="M1253,2112.94l-.93-.08c-.21,0-.3-.11-.27-.32q.06-.55.12-1.14c0-.14.09-.2.23-.18l1.08.1c.16,0,.21.12.2.27,0,.39-.09.78-.13,1.17S1253.12,2112.93,1253,2112.94Z" transform="translate(-358.26 -1505.12)"/><path d="M1168,2111.21c.22-.05.3.07.31.33s.07.64.12,1-.06.35-.3.36-.63,0-.94.09-.27,0-.28-.25-.07-.69-.12-1,0-.35.3-.36Z" transform="translate(-358.26 -1505.12)"/><path d="M1252.24,2104c-.2,0-.3-.05-.31-.31s-.07-.62-.11-.93.06-.4.33-.41l.9-.08c.19,0,.27,0,.28.24,0,.36.08.71.12,1.07s-.07.32-.29.33Z" transform="translate(-358.26 -1505.12)"/><path d="M1168,2104l-.76-.08c-.42,0-.46-.07-.43-.49s.08-.62.11-.93.07-.25.26-.23.69.06,1,.09.24.18.22.36-.1.62-.11.93S1168.21,2104.08,1168,2104Z" transform="translate(-358.26 -1505.12)"/><path d="M1244.62,2083.53a.23.23,0,0,1-.18-.13c-.22-.3-.45-.62-.68-.92a.22.22,0,0,1,.06-.37l.82-.59c.12-.09.22-.12.32,0l.71,1a.19.19,0,0,1,0,.3l-.9.65A.48.48,0,0,1,1244.62,2083.53Z" transform="translate(-358.26 -1505.12)"/><path d="M1176.58,2082.3a2.75,2.75,0,0,1-.15.25c-.2.27-.41.54-.6.81s-.22.21-.39.08-.52-.39-.79-.58a.23.23,0,0,1-.06-.37c.23-.3.44-.6.65-.9.08-.11.17-.21.32-.1l.92.68A.45.45,0,0,1,1176.58,2082.3Z" transform="translate(-358.26 -1505.12)"/><path d="M1186,2073.12a.23.23,0,0,1-.13.17l-.92.68c-.15.11-.26.11-.37-.06s-.39-.55-.6-.82-.12-.23,0-.34.62-.44.93-.67c.1-.07.2-.13.3,0,.24.31.47.63.71,1Z" transform="translate(-358.26 -1505.12)"/><path d="M1241.87,2137.28a.62.62,0,0,1-.12-.08c-.26-.23-.51-.47-.78-.7a.23.23,0,0,1,0-.38l.75-.83c.12-.14.23-.16.37,0l.77.71c.07.06.14.14.06.23l-.91,1A.45.45,0,0,1,1241.87,2137.28Z" transform="translate(-358.26 -1505.12)"/><path d="M1181.59,2140.44l-.22-.18-.78-.69c-.13-.11-.17-.21,0-.35s.46-.49.68-.75.23-.17.38,0l.85.76c.09.09.15.19,0,.3l-.8.87S1181.63,2140.41,1181.59,2140.44Z" transform="translate(-358.26 -1505.12)"/><path d="M1185.17,2143.24c-.11-.07-.21-.12-.3-.19l-.76-.55c-.17-.12-.2-.23-.07-.4s.39-.52.58-.79.21-.18.37-.06l.92.68c.11.08.18.15.08.28l-.68.93A.5.5,0,0,1,1185.17,2143.24Z" transform="translate(-358.26 -1505.12)"/><path d="M1235.42,2141.16a.27.27,0,0,1,.18.12c.2.28.4.57.61.85s.1.24,0,.34l-.93.67c-.14.11-.24.1-.34,0s-.41-.56-.62-.84c-.08-.11-.1-.2,0-.3.33-.23.65-.48,1-.72Z" transform="translate(-358.26 -1505.12)"/><path d="M1242.93,2079.08c0,.1-.06.15-.12.2-.24.22-.49.42-.72.65s-.26.16-.4,0-.48-.54-.72-.8-.15-.27,0-.41l.75-.67c.1-.09.19-.13.3,0l.86,1A.36.36,0,0,1,1242.93,2079.08Z" transform="translate(-358.26 -1505.12)"/><path d="M1179.39,2078.88a4.71,4.71,0,0,1-1,1.18c-.09,0-.14-.07-.2-.12-.24-.22-.48-.44-.73-.65s-.15-.23,0-.37.5-.55.75-.83c.09-.1.18-.19.32-.07s.55.49.82.75A.73.73,0,0,1,1179.39,2078.88Z" transform="translate(-358.26 -1505.12)"/><path d="M1239.78,2075.83a.23.23,0,0,1,0,.1l-.81.9c-.1.1-.2,0-.28,0l-.88-.79c-.12-.11-.11-.21,0-.33l.73-.79c.07-.08.14-.14.24,0l1,.9S1239.76,2075.8,1239.78,2075.83Z" transform="translate(-358.26 -1505.12)"/><path d="M1181.41,2076.89a.67.67,0,0,1-.16-.12l-.7-.77a.2.2,0,0,1,0-.33l.88-.78c.12-.11.21-.11.32,0s.45.5.68.75c.08.09.19.2,0,.32-.31.29-.63.58-1,.86A.39.39,0,0,1,1181.41,2076.89Z" transform="translate(-358.26 -1505.12)"/><path d="M1236.28,2073l-.3.42c-.52.72-.52.72-1.24.19s-.61-.45-.16-1,.45-.62,1.09-.17l.5.38A.21.21,0,0,1,1236.28,2073Z" transform="translate(-358.26 -1505.12)"/><path d="M1176.56,2132.86a.25.25,0,0,1-.12.24l-.43.3c-.73.52-.51.54-1-.15-.07-.08-.12-.17-.18-.25-.34-.48-.34-.48.15-.84.74-.53.74-.53,1.27.2Z" transform="translate(-358.26 -1505.12)"/><path d="M1178.33,2135.16a.35.35,0,0,1,.22.14l.72.8a.24.24,0,0,1,0,.41c-.26.21-.5.44-.75.67a.19.19,0,0,1-.32,0c-.26-.3-.53-.59-.79-.88-.09-.09-.14-.18,0-.29l.83-.75Z" transform="translate(-358.26 -1505.12)"/><path d="M1238.66,2140.42c-.09,0-.13-.05-.18-.1l-.68-.75c-.14-.14-.15-.26,0-.4s.54-.48.8-.72.26-.14.38,0,.47.52.7.78c.09.09.11.19,0,.28l-1,.86Z" transform="translate(-358.26 -1505.12)"/><path d="M1245.75,2132.55a1.06,1.06,0,0,1-.11.19c-.21.3-.43.58-.63.88s-.22.21-.4.07-.52-.38-.78-.57-.19-.21-.07-.37l.7-.95c.07-.1.15-.14.26-.06l.92.68A.75.75,0,0,1,1245.75,2132.55Z" transform="translate(-358.26 -1505.12)"/><path id="arrow" d="M1218.9,2080.61l-8.44-12.61-8.62,12.48,6.48.05-.19,25a2.4,2.4,0,0,0,2,2.65h0a2.4,2.4,0,0,0,2.07-2.62l.19-25Z" transform="translate(-358.26 -1505.12)"/><g id="knob"><circle cx="493.39" cy="753.18" r="35.95" style="fill:#969595;stroke:#262626;stroke-miterlimit:10;stroke-width:1.21358651578501px"/><line x1="467" y1="728.76" x2="519.78" y2="777.6" style="fill:#969595;stroke:#262626;stroke-miterlimit:10;stroke-width:1.21358651578501px"/><line x1="517.81" y1="726.79" x2="468.97" y2="779.56" style="fill:#969595;stroke:#262626;stroke-miterlimit:10;stroke-width:1.21358651578501px"/><line x1="492" y1="717.25" x2="494.78" y2="789.1" style="fill:#969595;stroke:#262626;stroke-miterlimit:10;stroke-width:1.21358651578501px"/><line x1="529.32" y1="751.79" x2="457.46" y2="754.57" style="fill:#969595;stroke:#262626;stroke-miterlimit:10;stroke-width:1.21358651578501px"/><line x1="459.76" y1="740.46" x2="527.02" y2="765.89" style="fill:#969595;stroke:#262626;stroke-miterlimit:10;stroke-width:1.21358651578501px"/><line x1="506.1" y1="719.55" x2="480.68" y2="786.81" style="fill:#969595;stroke:#262626;stroke-miterlimit:10;stroke-width:1.21358651578501px"/><line x1="478.6" y1="720.41" x2="508.18" y2="785.95" style="fill:#969595;stroke:#262626;stroke-miterlimit:10;stroke-width:1.21358651578501px"/><line x1="526.16" y1="738.39" x2="460.62" y2="767.97" style="fill:#969595;stroke:#262626;stroke-miterlimit:10;stroke-width:1.21358651578501px"/><line x1="462.87" y1="734.17" x2="523.91" y2="772.18" style="fill:#969595;stroke:#262626;stroke-miterlimit:10;stroke-width:1.21358651578501px"/><line x1="512.4" y1="722.66" x2="474.38" y2="783.69" style="fill:#969595;stroke:#262626;stroke-miterlimit:10;stroke-width:1.21358651578501px"/><line x1="485.25" y1="718.16" x2="501.53" y2="788.2" style="fill:#969595;stroke:#262626;stroke-miterlimit:10;stroke-width:1.21358651578501px"/><line x1="528.41" y1="745.04" x2="458.37" y2="761.32" style="fill:#969595;stroke:#262626;stroke-miterlimit:10;stroke-width:1.21358651578501px"/><line x1="457.97" y1="747.03" x2="528.81" y2="759.32" style="fill:#969595;stroke:#262626;stroke-miterlimit:10;stroke-width:1.21358651578501px"/><line x1="499.54" y1="717.75" x2="487.24" y2="788.6" style="fill:#969595;stroke:#262626;stroke-miterlimit:10;stroke-width:1.21358651578501px"/><line x1="472.69" y1="723.78" x2="514.09" y2="782.57" style="fill:#969595;stroke:#262626;stroke-miterlimit:10;stroke-width:1.21358651578501px"/><line x1="522.78" y1="732.48" x2="464" y2="773.88" style="fill:#969595;stroke:#262626;stroke-miterlimit:10;stroke-width:1.21358651578501px"/><circle cx="493.39" cy="753.18" r="24.73" style="fill:#969595;stroke:#262626;stroke-miterlimit:10;stroke-width:1.21358651578501px"/><path d="M882.23,2238.6c1.56-2,1.67-5.29,1.38-8.17a16.45,16.45,0,0,0-1-5.52h0v0a16.45,16.45,0,0,0-5.58-.6c-2.89-.07-6.19.3-8.05,2C867.81,2226.79,881.82,2239.75,882.23,2238.6Z" transform="translate(-358.26 -1505.12)" style="fill:#969595;stroke:#262626;stroke-miterlimit:10;stroke-width:1.21358651578501px"/></g><g id="knob-2" data-name="knob"><circle cx="596.09" cy="753.92" r="35.95" style="fill:#969595;stroke:#262626;stroke-miterlimit:10;stroke-width:1.21358651578501px"/><line x1="564.13" y1="770.39" x2="628.05" y2="737.45" style="fill:#969595;stroke:#262626;stroke-miterlimit:10;stroke-width:1.21358651578501px"/><line x1="579.62" y1="721.96" x2="612.56" y2="785.88" style="fill:#969595;stroke:#262626;stroke-miterlimit:10;stroke-width:1.21358651578501px"/><line x1="561.84" y1="742.97" x2="630.33" y2="764.87" style="fill:#969595;stroke:#262626;stroke-miterlimit:10;stroke-width:1.21358651578501px"/><line x1="607.04" y1="719.67" x2="585.13" y2="788.16" style="fill:#969595;stroke:#262626;stroke-miterlimit:10;stroke-width:1.21358651578501px"/><line x1="572.66" y1="781.19" x2="619.51" y2="726.65" style="fill:#969595;stroke:#262626;stroke-miterlimit:10;stroke-width:1.21358651578501px"/><line x1="568.82" y1="730.49" x2="623.36" y2="777.34" style="fill:#969595;stroke:#262626;stroke-miterlimit:10;stroke-width:1.21358651578501px"/><line x1="560.24" y1="756.64" x2="631.94" y2="751.2" style="fill:#969595;stroke:#262626;stroke-miterlimit:10;stroke-width:1.21358651578501px"/><line x1="593.37" y1="718.07" x2="598.81" y2="789.77" style="fill:#969595;stroke:#262626;stroke-miterlimit:10;stroke-width:1.21358651578501px"/><line x1="567.81" y1="776.12" x2="624.37" y2="731.72" style="fill:#969595;stroke:#262626;stroke-miterlimit:10;stroke-width:1.21358651578501px"/><line x1="573.89" y1="725.64" x2="618.29" y2="782.2" style="fill:#969595;stroke:#262626;stroke-miterlimit:10;stroke-width:1.21358651578501px"/><line x1="560.39" y1="749.62" x2="631.78" y2="758.22" style="fill:#969595;stroke:#262626;stroke-miterlimit:10;stroke-width:1.21358651578501px"/><line x1="600.39" y1="718.22" x2="591.79" y2="789.61" style="fill:#969595;stroke:#262626;stroke-miterlimit:10;stroke-width:1.21358651578501px"/><line x1="578.22" y1="785.12" x2="613.95" y2="722.72" style="fill:#969595;stroke:#262626;stroke-miterlimit:10;stroke-width:1.21358651578501px"/><line x1="564.89" y1="736.05" x2="627.29" y2="771.78" style="fill:#969595;stroke:#262626;stroke-miterlimit:10;stroke-width:1.21358651578501px"/><line x1="561.39" y1="763.35" x2="630.78" y2="744.49" style="fill:#969595;stroke:#262626;stroke-miterlimit:10;stroke-width:1.21358651578501px"/><line x1="586.66" y1="719.22" x2="605.52" y2="788.61" style="fill:#969595;stroke:#262626;stroke-miterlimit:10;stroke-width:1.21358651578501px"/><circle cx="596.09" cy="753.92" r="24.73" style="fill:#969595;stroke:#262626;stroke-miterlimit:10;stroke-width:1.21358651578501px"/><path d="M946.27,2223.58c-1.33-2.14-4.41-3.38-7.21-4.09a16.82,16.82,0,0,0-5.55-.91h0a16.65,16.65,0,0,0-2.47,5c-1.06,2.69-1.83,5.92-.86,8.24C930.24,2233.1,947.21,2224.35,946.27,2223.58Z" transform="translate(-358.26 -1505.12)" style="fill:#969595;stroke:#262626;stroke-miterlimit:10;stroke-width:1.21358651578501px"/></g><g id="knob-3" data-name="knob"><circle cx="692.77" cy="745.17" r="35.95" style="fill:#969595;stroke:#262626;stroke-miterlimit:10;stroke-width:1.21358651578501px"/><line x1="726.62" y1="757.28" x2="658.92" y2="733.06" style="fill:#969595;stroke:#262626;stroke-miterlimit:10;stroke-width:1.21358651578501px"/><line x1="680.66" y1="779.02" x2="704.88" y2="711.32" style="fill:#969595;stroke:#262626;stroke-miterlimit:10;stroke-width:1.21358651578501px"/><line x1="708.15" y1="777.67" x2="677.39" y2="712.67" style="fill:#969595;stroke:#262626;stroke-miterlimit:10;stroke-width:1.21358651578501px"/><line x1="660.27" y1="760.55" x2="725.27" y2="729.8" style="fill:#969595;stroke:#262626;stroke-miterlimit:10;stroke-width:1.21358651578501px"/><line x1="728.69" y1="743.67" x2="656.85" y2="746.67" style="fill:#969595;stroke:#262626;stroke-miterlimit:10;stroke-width:1.21358651578501px"/><line x1="694.27" y1="781.09" x2="691.27" y2="709.25" style="fill:#969595;stroke:#262626;stroke-miterlimit:10;stroke-width:1.21358651578501px"/><line x1="719.23" y1="769.51" x2="666.31" y2="720.83" style="fill:#969595;stroke:#262626;stroke-miterlimit:10;stroke-width:1.21358651578501px"/><line x1="668.43" y1="771.63" x2="717.11" y2="718.71" style="fill:#969595;stroke:#262626;stroke-miterlimit:10;stroke-width:1.21358651578501px"/><line x1="728.3" y1="750.68" x2="657.24" y2="739.66" style="fill:#969595;stroke:#262626;stroke-miterlimit:10;stroke-width:1.21358651578501px"/><line x1="687.26" y1="780.7" x2="698.28" y2="709.64" style="fill:#969595;stroke:#262626;stroke-miterlimit:10;stroke-width:1.21358651578501px"/><line x1="714" y1="774.19" x2="671.54" y2="716.15" style="fill:#969595;stroke:#262626;stroke-miterlimit:10;stroke-width:1.21358651578501px"/><line x1="663.75" y1="766.4" x2="721.79" y2="723.94" style="fill:#969595;stroke:#262626;stroke-miterlimit:10;stroke-width:1.21358651578501px"/><line x1="727.76" y1="736.92" x2="657.78" y2="753.42" style="fill:#969595;stroke:#262626;stroke-miterlimit:10;stroke-width:1.21358651578501px"/><line x1="701.02" y1="780.16" x2="684.52" y2="710.18" style="fill:#969595;stroke:#262626;stroke-miterlimit:10;stroke-width:1.21358651578501px"/><line x1="723.35" y1="764.08" x2="662.19" y2="726.26" style="fill:#969595;stroke:#262626;stroke-miterlimit:10;stroke-width:1.21358651578501px"/><line x1="673.86" y1="775.75" x2="711.68" y2="714.59" style="fill:#969595;stroke:#262626;stroke-miterlimit:10;stroke-width:1.21358651578501px"/><circle cx="692.77" cy="745.17" r="24.73" style="fill:#969595;stroke:#262626;stroke-miterlimit:10;stroke-width:1.21358651578501px"/><path d="M1030.64,2280.41c-.66,2.43.54,5.52,1.93,8.06a17,17,0,0,0,3.12,4.67h0a16.6,16.6,0,0,0,5.37-1.64c2.69-1.07,5.58-2.7,6.61-5C1048.53,2285.62,1030.56,2279.19,1030.64,2280.41Z" transform="translate(-358.26 -1505.12)" style="fill:#969595;stroke:#262626;stroke-miterlimit:10;stroke-width:1.21358651578501px"/></g><g id="knob-4" data-name="knob"><circle cx="791.46" cy="753.36" r="35.95" style="fill:#969595;stroke:#262626;stroke-miterlimit:10;stroke-width:1.21358651578501px"/><line x1="775.11" y1="785.38" x2="807.81" y2="721.34" style="fill:#969595;stroke:#262626;stroke-miterlimit:10;stroke-width:1.21358651578501px"/><line x1="759.44" y1="737.01" x2="823.48" y2="769.71" style="fill:#969595;stroke:#262626;stroke-miterlimit:10;stroke-width:1.21358651578501px"/><line x1="757.26" y1="764.44" x2="825.67" y2="742.28" style="fill:#969595;stroke:#262626;stroke-miterlimit:10;stroke-width:1.21358651578501px"/><line x1="780.38" y1="719.15" x2="802.54" y2="787.56" style="fill:#969595;stroke:#262626;stroke-miterlimit:10;stroke-width:1.21358651578501px"/><line x1="788.34" y1="789.17" x2="794.58" y2="717.54" style="fill:#969595;stroke:#262626;stroke-miterlimit:10;stroke-width:1.21358651578501px"/><line x1="755.65" y1="750.24" x2="827.28" y2="756.48" style="fill:#969595;stroke:#262626;stroke-miterlimit:10;stroke-width:1.21358651578501px"/><line x1="763.93" y1="776.48" x2="819" y2="730.24" style="fill:#969595;stroke:#262626;stroke-miterlimit:10;stroke-width:1.21358651578501px"/><line x1="768.34" y1="725.82" x2="814.58" y2="780.89" style="fill:#969595;stroke:#262626;stroke-miterlimit:10;stroke-width:1.21358651578501px"/><line x1="781.44" y1="787.88" x2="801.48" y2="718.83" style="fill:#969595;stroke:#262626;stroke-miterlimit:10;stroke-width:1.21358651578501px"/><line x1="756.94" y1="743.34" x2="825.99" y2="763.38" style="fill:#969595;stroke:#262626;stroke-miterlimit:10;stroke-width:1.21358651578501px"/><line x1="759.96" y1="770.69" x2="822.96" y2="736.03" style="fill:#969595;stroke:#262626;stroke-miterlimit:10;stroke-width:1.21358651578501px"/><line x1="774.13" y1="721.86" x2="808.79" y2="784.86" style="fill:#969595;stroke:#262626;stroke-miterlimit:10;stroke-width:1.21358651578501px"/><line x1="795.15" y1="789.12" x2="787.77" y2="717.59" style="fill:#969595;stroke:#262626;stroke-miterlimit:10;stroke-width:1.21358651578501px"/><line x1="755.7" y1="757.04" x2="827.23" y2="749.67" style="fill:#969595;stroke:#262626;stroke-miterlimit:10;stroke-width:1.21358651578501px"/><line x1="768.78" y1="781.25" x2="814.14" y2="725.46" style="fill:#969595;stroke:#262626;stroke-miterlimit:10;stroke-width:1.21358651578501px"/><line x1="763.57" y1="730.68" x2="819.36" y2="776.04" style="fill:#969595;stroke:#262626;stroke-miterlimit:10;stroke-width:1.21358651578501px"/><circle cx="791.46" cy="753.36" r="24.73" style="fill:#969595;stroke:#262626;stroke-miterlimit:10;stroke-width:1.21358651578501px"/><path d="M1122.48,2234.39c-2.33-1-5.55-.17-8.24.89a16.56,16.56,0,0,0-5,2.49h0a16.72,16.72,0,0,0,.93,5.54c.72,2.8,2,5.88,4.11,7.2C1115,2251.47,1123.69,2234.47,1122.48,2234.39Z" transform="translate(-358.26 -1505.12)" style="fill:#969595;stroke:#262626;stroke-miterlimit:10;stroke-width:1.21358651578501px"/></g><g id="knob-5" data-name="knob"><circle cx="881.11" cy="751.06" r="35.95" style="fill:#969595;stroke:#262626;stroke-miterlimit:10;stroke-width:1.21358651578501px"/><line x1="870.69" y1="716.65" x2="891.53" y2="785.46" style="fill:#969595;stroke:#262626;stroke-miterlimit:10;stroke-width:1.21358651578501px"/><line x1="915.52" y1="740.64" x2="846.7" y2="761.47" style="fill:#969595;stroke:#262626;stroke-miterlimit:10;stroke-width:1.21358651578501px"/><line x1="898.08" y1="719.36" x2="864.15" y2="782.75" style="fill:#969595;stroke:#262626;stroke-miterlimit:10;stroke-width:1.21358651578501px"/><line x1="912.81" y1="768.02" x2="849.41" y2="734.09" style="fill:#969595;stroke:#262626;stroke-miterlimit:10;stroke-width:1.21358651578501px"/><line x1="858.53" y1="723.08" x2="903.7" y2="779.03" style="fill:#969595;stroke:#262626;stroke-miterlimit:10;stroke-width:1.21358651578501px"/><line x1="909.08" y1="728.47" x2="853.14" y2="773.64" style="fill:#969595;stroke:#262626;stroke-miterlimit:10;stroke-width:1.21358651578501px"/><line x1="884.92" y1="715.3" x2="877.3" y2="786.81" style="fill:#969595;stroke:#262626;stroke-miterlimit:10;stroke-width:1.21358651578501px"/><line x1="916.86" y1="754.86" x2="845.36" y2="747.25" style="fill:#969595;stroke:#262626;stroke-miterlimit:10;stroke-width:1.21358651578501px"/><line x1="864.39" y1="719.23" x2="897.83" y2="782.88" style="fill:#969595;stroke:#262626;stroke-miterlimit:10;stroke-width:1.21358651578501px"/><line x1="912.94" y1="734.33" x2="849.28" y2="767.78" style="fill:#969595;stroke:#262626;stroke-miterlimit:10;stroke-width:1.21358651578501px"/><line x1="891.79" y1="716.73" x2="870.43" y2="785.38" style="fill:#969595;stroke:#262626;stroke-miterlimit:10;stroke-width:1.21358651578501px"/><line x1="915.44" y1="761.74" x2="846.78" y2="740.37" style="fill:#969595;stroke:#262626;stroke-miterlimit:10;stroke-width:1.21358651578501px"/><line x1="853.66" y1="727.84" x2="908.57" y2="774.27" style="fill:#969595;stroke:#262626;stroke-miterlimit:10;stroke-width:1.21358651578501px"/><line x1="904.32" y1="723.6" x2="857.9" y2="778.51" style="fill:#969595;stroke:#262626;stroke-miterlimit:10;stroke-width:1.21358651578501px"/><line x1="878.11" y1="715.23" x2="884.11" y2="786.88" style="fill:#969595;stroke:#262626;stroke-miterlimit:10;stroke-width:1.21358651578501px"/><line x1="916.94" y1="748.05" x2="845.29" y2="754.06" style="fill:#969595;stroke:#262626;stroke-miterlimit:10;stroke-width:1.21358651578501px"/><circle cx="881.11" cy="751.06" r="24.73" style="fill:#969595;stroke:#262626;stroke-miterlimit:10;stroke-width:1.21358651578501px"/><path d="M1275.71,2254.64c2.35-.92,4.12-3.72,5.32-6.35a16.48,16.48,0,0,0,1.9-5.29h0v0a16.84,16.84,0,0,0-4.52-3.34c-2.46-1.52-5.49-2.87-8-2.33C1269.25,2237.16,1274.78,2255.43,1275.71,2254.64Z" transform="translate(-358.26 -1505.12)" style="fill:#969595;stroke:#262626;stroke-miterlimit:10;stroke-width:1.21358651578501px"/></g><path id="arrow-2" data-name="arrow" d="M1050.72,2079.83l-8.44-12.61-8.62,12.48,6.48.05-.19,25a2.4,2.4,0,0,0,2,2.65h0a2.4,2.4,0,0,0,2.07-2.62l.19-25Z" transform="translate(-358.26 -1505.12)"/><path id="arrow-3" data-name="arrow" d="M881.68,2079.83l-8.45-12.61-8.61,12.48,6.48.05-.19,25a2.4,2.4,0,0,0,2,2.65h0a2.41,2.41,0,0,0,2.07-2.62l.19-25Z" transform="translate(-358.26 -1505.12)"/></svg>