<svg id="akinza" xmlns="http://www.w3.org/2000/svg" viewBox="0 0 914.79 983.56"><path d="M816.71,406.3c-4.6-.39,20.32-12.87,15.93-13.11-13.07-.74-26.5,7.37-69.24.1C667.37,377,586.33,457,564,490.53c-79.07,119-85.66,109.62-161.43,120.25,67.14,5.2,92.43,12.55,120.13,1,46.5-19.46,81.34-57.07,90.85-63.33,24-15.8,66.4-45.27,93.48-55q6-2.17,12.13-4.07c18-3.5,38.52-4.6,29.57,14,12.6-2.15,39.68-1.09,52.82-2.42C826,486.56,843.12,490,843.12,490s-2.39-7.36-13.78-11.57c-13-4.79,32.26-2,63.65,18.25,0,0-24.2-25.47-19.83-24.79,29.28,4.6,73.35,20.72,89.49,25.89-24.21-33.22-47.5-54-83.6-69.94-3.87-1.8,24.82,1.49,21.69-1.19C883.94,412.23,846.15,408.82,816.71,406.3Z" transform="translate(-47.86 -6.81)"/><path d="M896.75,634.75c-1.85-6.35-10.47-40.28-24.85-55.17-22.08-31.68-62.83-39.2,1.78-41.7-39.5-29.95-114.95-27.66-142.31-26.45-5,.23,14-17.12,9-16.65-81.23,9.87-150,102.33-206.51,122.78-47.85,17.33-188.11-7.25-203.43-8.1-4.43,0,119.7,1.06,150.7-26.07C532.67,539.86,576.21,405,701.81,386.82c14.2-2.05,46.06-3.48,45.6-3.8-13.62-9.26-8.89-16.74-7.57-20.09,5.24-13.36,91.1-8.44,132-3.91-32.22-29.79-46.95-44.48-85.54-54.54-4.14-1.16,19.94-.8,16.28-3-36.5-21.65-116.8-5-136.33-2.32-3.58.49,21.4-19,17.66-18.41-28.43,4.21-88.52,29.8-99.33,33.42-7.94,2.65,9.65-26.52,2.43-23.25-79.37,34.09-37.7,263.63-275.51,282a83.54,83.54,0,0,0-3.87-11.39c-21,36.08-85.59-3.06-46.6-25.93-4,4.64-10.7,16.3-2.87,19.12a11.31,11.31,0,0,1,10.61-10.33c0,.07-6.21,8.7-6.7,14.8.2.2,2.06,1.47,4.58,3,.07,0,.4.07.42-.19.6-8.46,12-11.63,12.78-11.23-1.38,3-15.86,18.45,2.63,17.37,10.53-.86,18.86-9.72,22.07-19.33-.1-.45-.2-.9-.29-1.35,149.69-67.62,161-67.2,108-194.24-24.11-44.35-27.64-106.18-82.65-97.77-3.89-4.22-4.43-13.66-4.32-21.43A6.82,6.82,0,0,1,324,232c24.74-11.83,48.46-33.3,55.6-50.61,3.94-9.57,14.92-20.35,15-20.26,9.29,7.51,9.45,9.06,9.3,8.35-1.32-6.14,2.47-7.58,3.29-10.95-.61,2.53,7.65,8.73,15.18,10,.65.11-1.56-10.18-.9-10.07.51.08,12.13,6.56,12.64,6.64,2.29.37-3.68-7.52-1.73-8.39s12.63,1.93,14.3,2.43c.71.21-3.85-13.47-.08-13.44,7.1.07,13.14,10.2,13.49,9.16,1.24-3.62,2.51-8.79,2.51-8.79,14.42,2,28-2.42,22.62-3.13-11-1.43-6.2-5-5.82-10,.15-1.94,11.82,9.49,17.71,5.34,0,0-8.8-7.12-6-14.09,2.53-6.27,9,5.83,18.09,4.44,0,0-13.8-13.43,5.91-18.8,1.55,5.14,3,10,10.34,14.38-1.52-6.1-4.59-29,9.91-23.33,1,1.43,7.74,8.86,6.36,7.23-1.56-9.87-4.9-20.32,3.39-28.52a24.79,24.79,0,0,0,16.06,8.06s-12.85-19.67.16-26.22c0,0,7.48,13.17,7.18,11.86-2.83-12.27.68-26.05-3.14-31.09,9,2.75,13.7,7.21,17,12.29C592.93,42.69,547,18.16,584,33.27c-.6-7.16-22.54-15-48.45-17.8,46.76-1.09-10.56-8.12-45.18-3.41,6.87-2,13.49-2.3,20.34-3.19-2.19-6.51-84.49,8.83-47.57-1.49-16.39-3.95-79.2,14.54-45.82,2.49C408.61,8.33,402.9,12.34,381.84,20c22-10.89-5-6.71-33.74-1.1,6.44-5.37-2.16-2.22-11.23,2.24-6.72,1.84-5.46.75-1-2.6-9.86,3.69-24.39,15-10.32,1.08-8.14,1.43-17.18,14.1-10.61,1.11-1.59.66-9.49,11.25-17.36,11.3-3.83,0-13.46-2.32-10.67-10.21,1.15-3.27-12,14.49-15.82,14.32S264.7,24,264.08,21.07c-1.34-6.41-3.57,13.07-4.28,12.17-2.88,5.8-12-14.24-14.1,2.95.46-3.71-9.16-11.3-10.79-10.49-2.61,6.43,14.13,14.17,2,9.47-15-9.52-9.53-4.54-3.3,5.89-3.25-.79-6.7-5.3-10.32-5.54a26.46,26.46,0,0,1,2.47,3.77c-20.24-4.73-28.58-4.35-17.35,1.64-14.7-6.07-28.06-9.43-34.43-8.55,23,9.54-20.19-5.22-32.3-2.84,25,8.23-30.93-4.52-33.57-.06,38.91,3.73-67.61-1.2-18.48,4C71.09,34.86,54.2,39.89,52.14,45c29-9.85-8.49,6.62-3.88,15.69A29.5,29.5,0,0,1,63.14,52c-5.13,4.85-20,25.72-1.48,14.58,2.62,6.69-6.68,27.52,4.75,9.8,8.27,5.36,9.66,28.3,13.19,22.68,10.18-7.93,9.14,13.57,8.33,19.62,5.23-5.57,6-10.41,6.85-15.48,8.89,3.83-4.24,34.3,9.57,13.59.33,11.51,6.24,15.79,11.05.9-4.09,22.48-4.51,27,7.56,11-4.07,7.16,10.81,8.53,7.53,24-.08.41,9.38,2,11.64-8.89,6.42,11,6.81,25.16,6.81,25.16,5.82,2.16,11.08-11.3,11.08-11.3,10.93,3.63-.85,1.44,6.15,15.81,3.88-5.59,9.22-15.51,15.1-3.46,9.71-8,14-12.27,18.49.73,0,0,0-13.37,4.12-12.63,9.34,1.7,10.52.12,12.67,10,6.91,31.88,15,39.4,30.54,49.37C259,225.06,259,233.4,271.54,237.85c-.46,5.65-.4,11.17-.65,16.66-4.18,2.83-12.69,3.6-16.14,2.7C202.12,241,111.58,322.67,98.88,369.33,89.36,418,117.1,463,121.66,510.59c-3.54,8.69-.8,22.88,9.06,25.87,3.65-3.33,4.23-14,4.43-14,.38.13,3.7,11.45.61,14.53-.82,1.56,10.7,3.2,11.24,1.92,2.69-3.7,3.74-14.53,4-14.54s3.07,9.68.09,14.54a.53.53,0,0,0,0,.65c8.88-.61,16.57-4.76,14.8-15.28,8.49,21.89-16.67,30.65-43,18.23-4.79,9.63-12.69,18.91-15.16,26-12.91,37.16-15,99.74,18.53,158.82,5.52,9.74,12.63,28.87,14.54,40.18s8.06,15.16,13.55,17.75c5.72,10.76,35.25,84.31,48.21,119.63h0c12.61,50-7.19,38.84-39.22,51-26.42-.43-33.86,22.62-29,28.3,1.44,1.68,8,1,8,.78-.12-13.36,5.66-14.31,5.32-13.51-5.73,17.57-2.16,19.93,23.18,14.27,14-2.78,69.31,10.06,68.16-11.24-.19-2-11.47-58.18-12.17-72,.73-50.28,20.47-86.34-19.77-124-5.64-8.22-11.69-28.27-12.41-40.14a79.52,79.52,0,0,0,5.1-15.13c10.63-28.11-1.23-33.59,5.06-63,19.39,27.66,23.44,38.62,45,64.6,45.89,41.55,78.79,38.46,95.14,109.77,23.86,80.82,75.85,46.14,89,149.65,3.52,10.17,32.9-1.43,44.32,4,6.62,1.79,27.56,4.5,28.75-2,1.83-10.06-1-10.85-4-15.18,12.07,3.7,2.79,22.64,11.5,17.81,2.76-6.62,6.38-33.51-19.69-31.38-8.31.68-18.95-3.7-33.58-2.18-18.5-8.49-22.18-55.62-30-79.07-23.22-64.13-51.2-70-73.62-116-.23-24.34-7.87-74.75-21.15-102.48,1.8,4.31-3.55-11-6.77-18.84,63.6,43.57,132.85,89.85,219.91,76.92,6.72-1.27-18.84-11-11.86-11.61,22-1.8,37-4.15,57.23-12.55,3.17-1.32-26.14-3.24-22.49-3.7,137.72-9,168-138.6,290.67-36.64,5.1,8.33,4.48-9.69,6-29.29C869.77,614.35,899,642.47,896.75,634.75ZM434.31,66.69c1.9,0-14-5.07-12.13-5.15,18.28-.7,43,.49,43,.49-13.82,3.52-20,22.08-30.42,32.21-1.63,1.58-1.74-8.52-3.26-6.9-15.2,16.2-32.4,35.34-32.4,35.34a75.77,75.77,0,0,0,2.5-12.92c.19-1.71,8-6.4,8.05-8.1.17-3.26-7.46-3.48-7.58-6.6-.06-1.64,7.5-4,7.38-5.62-.16-2.06-9-10.61-9.47-13-.33-1.83,12.16,2.77,11.81,1.18-.31-1.42-13.46-9-13.75-10.21-1.2-4.81-2.19-7.7-2.19-7.7C400.53,65.08,422.84,66.6,434.31,66.69ZM192.48,80.79c-.29,1.33-12.21,11.45-13.55,12.2-3.12,1.72,13.62-4.3,13.25-2.31-.56,3-3.33,5.51-3.85,8.94-.43,2.84-6.42,5.66-6.79,8.69s7.1,7.17,6.84,10.36c-.24,2.9-.42,5.82-.53,8.74-.07,1.8-8.27-8.43-17.47-24.57-1.18-2.07-2.22,17.56-3.51,15.65-4-5.91-10.83-30.93-15.76-33.38,0,0,20.91-9.16,31.86-11.79,2.3-.55-14.71,14.2-12.19,13.27,6.16-2.28,21-11.7,27.84-17.37A27.24,27.24,0,0,0,192.48,80.79Zm117.57,19.78c2.22-3.24,13.23,31,13.31,27.85.64-24.64,3.46-29.23,8.14-29.54,3.06-.2,5.85,27.51,6.26,24.84,2.77-17.7,5.05-32.91,8.2-29.65,7.84,8.11,7.79,15.58,8,30.81.22,16.38,4.06,22-4.53,30.38-1.34,1.31-2.1-31.8-6.84-30.28-1,.33-1.9,36.17-5.65,36.14-2.12,0-4.2-32.77-6.2-33.37S321.83,167,320,165.89c-3.65-2.27-3.67-32.43-4.2-33.33s-6.48,22-6.95,21.09c-3.79-7.45-1.78-16.41-.72-26.35C309.31,116.31,304.2,109.11,310.05,100.57Zm13.06,353.85A285.06,285.06,0,0,0,362.61,379c10.09,20.35,27.18,55.65,27.9,67.49-16.36,23.42-54.73,55-90.23,69.5C299.34,492.32,309,473.52,323.11,454.42Zm-64.6-320.09c-7.51,49.8-7.53,43.53-8.4-.89-.54-.41-11.16,28.52-11.67,28-1.64-.23,1.53-36.11,1.07-38.51-.42-.82-5.68,22.94-6.06,22.07-2.76-6.42-1.4-6-1.51-14.44-.14-11.45-.85-22,3.64-29.47,1.71-2.83,10.29,28.09,10.35,25.33.46-21.59,2.88-22.52,6.47-22.76,2.35-.16,4.62,25.66,4.93,23.33,4.93-33.14,15.9-20.29,13.8,1.84.19,14.72,1.89,19.88-5,27.09C265.18,157,259.58,133.54,258.51,134.33Zm3.39,59.74c10.09,5.2,22.74-3.48,17.73-15.72-2.24-2-11.9-11.81-5.78-8.52,0,0,10.17,3.36,18-.63,7-3.59-3,6.64-5.87,9.18-.84,1.94-3.36,9.25-.12,13.21,3.74,4.58,17.11,4.65,18.86,2.24-6.59,9-22.38,1.09-22.43,1.09C281.24,194.85,270.61,201.85,261.9,194.07ZM163.82,486.36c-2.6,4.28-5.3,8.5-8.06,12.68-3.08-3-6.66-4.31-10.66-5.51-5.57-23.46-3.39-47.28-6.46-71-1.8-13.28-4.9-26.6-2.41-40,15.57-15.18,36.09-23.12,50.18-40.1,3.06-3-5.64,13.77-6.58,29C177.31,412.31,184.31,441.31,163.82,486.36Z" transform="translate(-47.86 -6.81)"/></svg>