<svg id="Bioflim" xmlns="http://www.w3.org/2000/svg" viewBox="0 0 989.01 987"><defs><style>.cls-1{fill-rule:evenodd;}</style></defs><path class="cls-1" d="M841.45,665.75c-6.54-10.68-16.76-10.8-23.48-.36-9.41,14.64-9.86,42.23-.93,57.49,7.17,12.26,18.12,12.33,25.21-.09,4.54-8,5.79-17.42,5.23-27.83C848.05,684.36,846.65,674.24,841.45,665.75Z" transform="translate(-6.31 -10.31)"/><path class="cls-1" d="M913.25,550.22c-1.79-5.45-4.75-9.05-9-9.45s-7.52,2.79-9.64,7.9a39.26,39.26,0,0,0-.54,29.05c2.1,5.77,5.6,9.46,10.48,8.9s7.72-5.06,9.3-11.26a28.85,28.85,0,0,0,.7-11.39A33,33,0,0,0,913.25,550.22Z" transform="translate(-6.31 -10.31)"/><path class="cls-1" d="M178.61,801.81c-5.07-2.77-10.41-.47-14.14,6.09-5.85,10.28-5.48,27.81.8,37.46,5.53,8.48,14.46,7.66,19.12-1.83,2.6-5.28,3.5-11.17,2.8-18,.06-.74.23-1.91.25-3.1C187.58,813.58,183.71,804.6,178.61,801.81Z" transform="translate(-6.31 -10.31)"/><path class="cls-1" d="M967.79,499.53c-11.81,0-11.81,19.68,0,19.68S979.6,499.53,967.79,499.53Z" transform="translate(-6.31 -10.31)"/><path class="cls-1" d="M129.65,695.34c-4.15-9-14.89-4.63-16.61,3.21a10.14,10.14,0,0,0-2,2.7c-5.35,10.56-8.44,25.74,1.43,34.56,4.5,4,11.17,3.84,14.38-2C133.44,722,135.46,708,129.65,695.34Z" transform="translate(-6.31 -10.31)"/><path class="cls-1" d="M990,311.09c-.08-19.49-3.81-38.84-8.17-57.76,0-.49.12-1,.16-1.47,1.07-13.3-1.41-28.92-12.25-35.87-10.31-6.59-23.08-1.86-33,3.17-24.2,12.19-44.73,33.08-65.28,51.89q-1.71,1.56-3.35,3.16a141.53,141.53,0,0,0-12.59,7.32c-20.24,13.09-39.13,30.26-58.11,47.18-12.19,10.87-24.1,22.58-37.45,30-36.91,20.63-71,2.19-90.23-48.77-1.38-3.64-1.24-5.6.81-8.61,5.78-8.48,8.82-19.32,9.88-31.5,1.8-20.79-1.69-40.21-7.37-58.5C663.69,181.32,655,151,648,119.32c-5.71-26.13-15.14-48.85-28.87-66.58-25.18-32.52-54.89-40.51-86.4-36.2-11.57,1.59-59-6.23-66.19-6.23h-24.3c-5,4-10.46,3.42-15.6,6a87.77,87.77,0,0,0-18,12.24c-31.81,10.13-62.73,31.22-72.82,70.21-6.24,24.1-16.34,61.52,2.59,80.17-4.08,13-7.71,26.28-11.23,39.64-3.42,13-5.35,26.43-4.14,40.62.9,10.61,3.87,19.38,9.42,25.8a6.08,6.08,0,0,1,1.57,6.36c-8.44,35.12-21.62,64.67-42.55,84.27-14.58,13.66-30.15,12.92-45.76,3.94-14.66-8.44-27.32-22.35-40.23-35.58-9.7-9.95-19.46-19.73-29.94-27.24-10-19.63-23.46-39.56-40.25-49-11.94-13.58-24.94-26.4-41.38-31.3-19.11-5.7-38.49,5.45-49.14,24-9.3,16.14-8.86,38.57-2.66,55.93,4.24,11.88,11.1,21.89,19,30.88.63,1.71,1.26,3.43,1.92,5.15C74.23,381.7,85.9,409.79,87,442.57a11.72,11.72,0,0,0,1.83,6.2v38.36c1.21,10.21,1.46,20.45,2.37,30.65,2.08,23.44,5.77,46,16,64.52,2.73,5,5.74,9.46,9.64,12.24,5.8,4.15,10.77,2.63,15.17-4.58,2.82-4.61,4.67-10.26,6.92-15.46,2-4.6,3.48-3.81,5,.51,4.39,12.61,5.74,26.58,7.64,40.34,2.28,16.49,1.39,33.29,2.34,49.91,1.08,18.77,3.83,36.13,13.15,49.84,7.5,11,17.39,12.31,25,1.38,8.34-12,12.36-27.59,14.07-44.66,2.19-21.78.36-43.78,1.09-65.66.52-15.57,2.17-30.53,9.24-42.82,4.72-8.19,9.35-11.26,14.16-9.09C235,564,239.94,573.64,243.15,584c6.48,20.92,13.88,41.24,16.51,63.29,3.92,32.79,2.71,67.84-2.55,101.25-11.9,31.23-23.21,65.54-48.48,86.49-12.9,10.7-29.36,15.5-44.08,22.34-16.32,7.57-30.44,20.37-44.12,32.49-12.85,11.39-21,24.43-25.79,41.71-.21.76-.38,1.54-.57,2.3-14.8,20-38.32,28.38-52.74,48.71A13.37,13.37,0,0,0,39,992.19a114.83,114.83,0,0,0,17.54-4.7c5.33-1.85,11-5.36,16.83-5.4.31,0,.59,0,.88.06,2.61-2.06,5.26-4,7.93-6a9.47,9.47,0,0,0,4.9,3.8c-.2,1.44-.39,2.88-.61,4.31a14.91,14.91,0,0,0-.1,3.51c6.35,3.08,13.67,3.85,21,4.32.11-.46.22-.94.29-1.45.73-4.75,1.35-9.51,2-14.28,17.39-6.77,32.73-21,44.14-36.23,4.17-5.58,8.75-13.54,13.79-17.29,3.6-2.68,9-3.05,14.36-2.88-13.63,12.92-29.53,22.42-36.28,41.94A92,92,0,0,0,141,984.17a13.79,13.79,0,0,1,9,2.14,97.59,97.59,0,0,1,1.82-12.83,4.36,4.36,0,0,0,3.66,2.37,76.7,76.7,0,0,0-1.63,13c.78.59,1.55,1.2,2.32,1.82,1.84.9,3.62,1.88,5.33,2.89l2,0a73.82,73.82,0,0,1,1.53-18.13,72.66,72.66,0,0,1,3.4-11.39l1-1.13c-.47,2.12-.89,4.33-1.34,6.6-.61,3,1.76,6.56,4.52,6.5.2,2.81.49,5.6.81,8.33.35,3.08,2.67,5.88,5.79,4.83,10.21-3.47,21.33-6.4,31.89-10.57-3.68,3.49-7.28,7.23-11,10.85A50.33,50.33,0,0,1,211,991c.91-.25,1.82-.53,2.72-.82,6.45-6.31,12.87-12.66,19.94-18a75,75,0,0,1,18.66-10.6,11.53,11.53,0,0,0,4.85,6.62c11.33,7.51,23.91,8.27,36.66,9.13.07.09.12.19.19.28-.05.41-.11.81-.17,1.21.85-.09,1.71-.17,2.57-.24,4.44-.34,13.34-1.82,17.8.39a5.7,5.7,0,0,0,.52-1.14c.11-.35.21-.71.32-1.06,3.29,0,6.59-.16,9.89-.29,6.89-.29,16.64-1.94,21.55,4.51,3.19,4.18,7.16,4.78,10.59,3.3.12.63.26,1.27.37,1.91a13.13,13.13,0,0,0-2.26,2.39,71.32,71.32,0,0,0,10.54,1.94c6.21.41,11.56.92,17.33,3.55.79.35,1.54.76,2.31,1.14,14.25,2.1,28.49.32,42.7-1.9,17.36-2.7,34.69-6.39,52.18-4.22,14,1.73,27.87,5.68,41.95,7.09.17,0,.31.31.47.31h41.89c6,0,12.3-1.45,18.41-3.07,7.33-2,14.6-4,21.52-7.73a8.62,8.62,0,0,0,8.59,4.14c15.51-1.57,30.16-8.11,45.65-9.26,17.44-1.29,35.84,6.3,53.24,7.92,6.54.61,10.38-5.21,10.65-11.3,14.77,8.83,29.43,11.86,44.14.3,5-3.91,60.85,6.36,69.48.62a5,5,0,0,0,2.72-3.44c15.82,6.31,34.6,6.1,49.29.06a12.25,12.25,0,0,0,5.82-5.12c1.56.59,3.13,1.15,4.73,1.64,2.84,4.75,4.55,10.18,4.39,17.74-.15,6.46,9,6.44,9.15,0a48.22,48.22,0,0,0-1.52-13.84c1.92.75,3.73,1.45,5.17,2.16,4.33,2.14,7.88-2.15,6.36-6.3a6.16,6.16,0,0,0,4.57-1.89c10.09,1,19.87,3.28,23.13,13.2,1.63,5,9.63,4.61,9-1.33-2.45-22.91-5.44-46.36-26.05-58-9.49-5.36-20.36-6.23-30.75-7.79-9.41-1.41-18-4.37-27.11-4.9a55.77,55.77,0,0,0-9.52-2.17,101,101,0,0,0-11.27-3.48c-3.07-4.23-6-8.5-8.93-12.66-19.11-27.54-38.76-53.88-53-85-22.37-49-30.47-104.1-27.62-158.46q3.25-12.32,6.81-24.47c3.29-11.23,6.51-22.53,10.64-33.1,3.91-10,7.87-20.07,14.28-26.86,3.55-3.76,6.26-2.82,8.38,2.91a91.47,91.47,0,0,1,2.64,9.52c1.59,6.46,2.86,13.12,5.16,19.13,4.45,11.63,12.6,16.9,21.05,14.39,9.53-2.83,15.14-13,19.91-24.72,6-14.72,9.83-31,13.46-47.42,3.38-15.22,7.46-29.88,13.3-43.22,3.43-7.8,5.35-8.72,11.36-6.42a10.21,10.21,0,0,0,6.63.44c9.47-2.73,17-10.05,23-21.86s10.31-24.7,14.09-38.25c6.12-21.91,9.87-44.21,10.14-67.05,7.44,4.6,16.15,8.83,23.83,6.93,3.67.83,7.68-1.14,9.82-5.08a46.09,46.09,0,0,0,4.76-14.71C989.82,338,990.07,322.11,990,311.09ZM269.39,481.91l.09-.23c.33-.7.66-1.38,1-2.09-.27.58-.54,1.81-.81,2.38-.09.2-.18.4-.27.4h0c-2.42,1.75-4.1,5.36-6.29,8C265.29,487.73,267,484.08,269.39,481.91ZM265,862.71c-18.37,2.15-36.44,7.24-54.86,9.13,3.28-2.34,6.49-4.81,9.62-7.47a159,159,0,0,0,30-34c3.7-5.61,7.06-11.43,10.51-17.18a156.31,156.31,0,0,0,11.84,46.24C269.71,860.57,267.35,861.67,265,862.71ZM339.7,548.43c-.95,20.77-2.76,41.39-4.75,62-3.51,36.43-7.38,72.75-14.22,108.12-.39,2-.79,4-1.3,6.52-3-3.92-4.95-8.4-6.9-12.76-18.07-40.49-27.95-85-26.85-134.68.3-13.27,2.15-26.16,6.31-38,6.12-17.5,15.95-23.87,28.17-17.88,6.72,3.3,12.57,9.21,18.3,15.41C341.35,540.24,339.87,544.66,339.7,548.43Zm204.93-396a30.85,30.85,0,0,1-2.32,8.36,51.81,51.81,0,0,0-2,8.91A52.8,52.8,0,0,1,536,184.43c-2,3.95-5.28,7.94-9.89,8.41a8.46,8.46,0,0,1-4.82,2.75,6.64,6.64,0,0,1-5.53-1c-.18-.14-1.24-1.24-1.33-1.37-.32-.28-.66-.54-1-.8a5.42,5.42,0,0,1-1.06-.09c-2-.38-3.93-1.2-5.93-1.27a48.22,48.22,0,0,0-6,.68c-1.51.14-3.53-.26-4.67.23.24-.1-.54.45-.63.53a17.6,17.6,0,0,0-1.52,1.59c-4.79,5.38-11.82,10.66-18.68,5.22-2.85-2.26-4.49-5.52-6.55-8.44-2-2.76-4.14-5.36-6.06-8.16a29.45,29.45,0,0,1-4-8.1,23.91,23.91,0,0,1-3-6,73.62,73.62,0,0,1-3.06-13.86,76.53,76.53,0,0,1-.89-15.64c.52-8.55,3-17.07,8.34-23.75,2.26-.63,4.75-1.05,6.79.34,1.22.84,2.26,1.86,3.44,2.67.37,1.31.66,2.67,1.12,4,1.19,3.45,5.07,3.75,7.78,1.88s3.76-5.23,4.32-8.45c.6-3.5,1.63-6.59,4.24-9.13a19,19,0,0,1,2.87-2.15,27.64,27.64,0,0,0,6.29-.49c3-.65,5.66-2,8.73-2.3A14.28,14.28,0,0,1,512.5,103a20.08,20.08,0,0,1,6,4.22c.13,1.43.26,2.86.38,4.29a23.34,23.34,0,0,0,1.51,7.49c.93,2.09,3,4.47,5.48,4.53a4.17,4.17,0,0,0,1-.12,2.88,2.88,0,0,0,2.75-1.29,13.2,13.2,0,0,1,2.12-2.83,10.08,10.08,0,0,1,3.33,3.93,24.68,24.68,0,0,1,1.76,7.24,12.5,12.5,0,0,0,2,5.48C541.93,141.07,545.12,146.14,544.63,152.43Zm395.5,801.08a10.4,10.4,0,0,1,.63,1.24c-1.81-2.62-3.7-5.22-5.7-7.67A29.79,29.79,0,0,1,940.13,953.51ZM664.69,705.35c-1.11-18.18-1.4-35.21-1.1-52.25q1-56,2.17-111.9c.2-9.54,9-19,14.81-15.82,1.93,1.06,3.13,3,3.94,6.64,6.09,27.42,1,54.15-1.86,80.91-3.21,30.41-8.28,60.09-16.62,88.22C665.71,702.25,665.35,703.31,664.69,705.35ZM729.76,641c-14,56-26.53,113.07-43.71,167.13-.4,1.26-.83,2.5-1.3,3.91-4.34-6.67-4.9-14.25-4.33-22.87a1076,1076,0,0,1,19.83-144c5-24.33,9.07-49.14,16.53-72.1a65,65,0,0,1,5.91-13.33c2.32-3.89,4.49-3.67,6.68.23,5.08,9.11,7.32,19.72,7.21,31.72C736.44,608.82,733.7,625.2,729.76,641ZM744.1,838.35a41.7,41.7,0,0,1-1.62-4.45c.08.16.18.31.26.46.6,1.32,1.21,2.62,1.83,3.91A2.72,2.72,0,0,0,744.1,838.35Zm28.13-22.23c9.34,21.62,21.58,41,34.58,60a14.72,14.72,0,0,0-4.43-1.08c-3.33-1.89-6.75-3.72-10.22-5.51-3.92-4.33-7.71-8.81-11.33-13.49-13.46-17.41-22.34-38.25-27.8-60.11a221.27,221.27,0,0,1-5.93-62.13c.14-1,.32-2,.47-3A357,357,0,0,0,772.23,816.12Z" transform="translate(-6.31 -10.31)"/><ellipse cx="491.37" cy="141.5" rx="13.34" ry="31.24"/><path d="M991.43,964.27c-4.14-5.53-10-7.43-15.92-10.38-6.79-3.37-12.62-8-18.29-13-13.37-11.74-24.83-19.65-42.69-11.77-9.51,4.2-7.83,14.58-1.52,20a11.28,11.28,0,0,0,1.7,5.34,13.69,13.69,0,0,0,6.35,5.33c-.42.16-.84.32-1.25.5-3,1.23-7.28,4-10.59,3.4-7.87-1.31-6.25-11.4-8.58-16.7-3.88-8.88-13.74-11.27-21.93-7-6.1,3.16-7.41,8.84-5.81,13.86-.25,0-.5,0-.74,0a14.22,14.22,0,0,0-13.64,7.49l-.06,0c-5.39-2.6-13.29-8.33-16.82-13.13-4.27-5.8-4.58-12.06-11.23-16.4-6.9-4.51-13.82-2.72-21.3-4.17-14.48-2.82-21.51,16.86-11.07,23.2l-.23,0c-.72-.13-1.43-.28-2.14-.44-2.3-.53-4.56-1.19-6.81-1.92a12.24,12.24,0,0,0-9.6,1.19,25.75,25.75,0,0,0-9.35-2.54,11.66,11.66,0,0,0-6.4,1,4.35,4.35,0,0,0-4.58-1.42c-1.22.4-2.43.8-3.67,1.13a13.9,13.9,0,0,1-3.09.56,24.52,24.52,0,0,1-6.84-.76,20.38,20.38,0,0,1-3.34-.83s-.48-.3-.78-.48c-.07-.09-.45-.45-.55-.55a.55.55,0,0,1-.29-.43q-.18-.3-.33-.6a2.23,2.23,0,0,0-.08-.24c0-.08-.15-.72-.19-.79a8.7,8.7,0,0,1,0-1.35,4.62,4.62,0,0,0-4.58-4.6l-4.6.37c-2.38.19-4.7,2-4.58,4.59.1,2.33,2,4.8,4.58,4.6l.58,0a13.87,13.87,0,0,0,10.07,8.87,45,45,0,0,0,10.05,1.46,25.8,25.8,0,0,0,6.48-1c-1,6.95,3.06,15.31,12.1,16.24-4.91-.5-1.95.7.37,3.06a32,32,0,0,0,5.35,4.63,26.79,26.79,0,0,0,6.82,2.8,8.11,8.11,0,0,0,2.38,2c4.67,3.13,11.36,3,16.71,3.49a158.65,158.65,0,0,0,25.14,0,12.91,12.91,0,0,0,11.86-10.16c.93.66,1.85,1.31,2.74,2a49.86,49.86,0,0,0,41.23,7.61c2.06,1,4.13,2,6.32,3.09,13.41,6.51,26.45,4.91,40.42,1.12a12.28,12.28,0,0,0,6-3.54l1.24.18a11.51,11.51,0,0,0,12.94,4.19l1.84-.52a13.47,13.47,0,0,0,1.47-.54,76.77,76.77,0,0,0,18.12.21c7.21-.81,15.86-1.75,20.84-7.59C997,978.54,996.14,970.54,991.43,964.27Zm-178.56-.77a12.75,12.75,0,0,0-1-4.89,13.9,13.9,0,0,0-5.09-6c3.15,0,6.71-.09,8.88.57-.05.12.54.73,1.07,1.65,1.11,2,1.6,4.27,2.72,6.25.43.75.91,1.48,1.41,2.19C818.23,963.43,815.55,963.5,812.87,963.5Z" transform="translate(-6.31 -10.31)"/><path d="M400.57,972.74c-1.61-6.13-9.36-11.58-15.77-9-8.24,3.34-17.09,7.38-26.13,7.46-8.76.07-14.07-6.78-22.44-7.38-8.11-.58-15.61,8.16-23.26,5.53-3.71-1.27-6.51-4.63-10.31-6.05a33.25,33.25,0,0,0-12.12-1.82c-8.87.16-17.79,3.56-26.65,2.78-4.53-.41-8-3.25-12.23-4.65a33.45,33.45,0,0,0-14.16-1.35c-1.09.12-2.15.3-3.19.52,5.11-9.92-5.86-24.43-17.75-17.21-7.44,4.52-11.68,10.86-16.66,17.48-.94-4.14-3.56-7.75-7.41-9.06a16.18,16.18,0,0,0-4.82-6.15,15.28,15.28,0,0,0-4.76-2.68c3.13-3.08,6.34-6.09,9.69-9,11.15-9.58-3.23-27.67-15.53-20.2-9.38,5.7-18.81,11.37-27.8,17.67-6.51,4.57-15.12,10.26-18.66,18a16.83,16.83,0,0,0-3.17-2.08l-.16-.06c6.57-4.2,12.66-9.05,16.92-15.74,5.89-9.27-1.84-18.06-10.31-18.9,9.74-7.1,18.31-15.75,28.66-22.63,13.69-9.11.86-31.4-12.94-22.22A209,209,0,0,0,122,888.06c-8.23,7.75-19.68,9.16-28.69,15.75-9.31,6.8-12.74,16-14.59,27-.33,1.94-.62,3.88-.88,5.8-9.84.63-19.79.18-29.49,2.48a49.1,49.1,0,0,0-19.62,9.36c-1.7,1.65-3.44,3.38-5.16,5.19a30.15,30.15,0,0,0-3.91,6.25c-.21.45-.39.91-.57,1.37-2.32,1.9-4.52,4-6.77,6-7.1,10.44-9.54,20.37,2,24.28,12.82,4.36,29.95.27,42.21-4,5.33-1.85,11-5.36,16.83-5.4,4.59,0,7.39,2.51,11.1,4.66,11.12,6.46,25.74,4.67,38.1,6.61,14.79,2.33,29.16,4.35,44.18,3.88,18.79-.58,37-5.32,55.3-6.13,3.86-1.81,7.71-3.74,11.81-5.46,9.93-4.17,17.21,3.13,27.24,4.11s19.61-3.12,29.49-2.54c3.57.21,4.73,1.56,7.74,3.4a32.66,32.66,0,0,0,13.87,4.6A37.18,37.18,0,0,0,326.22,994c1.76-.51,5.95-1.41,6.82-2.82,1.07-.23,1.42-.52,1.08-.88,19.06,10.5,38.21,6.11,57.49-1.7C398.08,985.94,402.48,980,400.57,972.74ZM106.66,927.86l-.57.32c2.32-4.15,6.12-5.92,12.06-8.33.74-.3,1.45-.63,2.17-1C116.69,922.7,110.81,925.45,106.66,927.86Z" transform="translate(-6.31 -10.31)"/></svg>