<svg id="chromocat" xmlns="http://www.w3.org/2000/svg" viewBox="0 0 988.4 937.63"><path d="M531.43,915.65c-1.27-.28-2.73-.57-4.31-.87A7.5,7.5,0,0,0,531.43,915.65Z" transform="translate(-7.31 -54.68)"/><path d="M355.24,804c2.62-.91-2.43-1.09.35-.61,11.77,16.89,6,17.78,20.66,2.6a24.77,24.77,0,0,0,6,.47l.4.36c-3.33-4.74-6.47-9.59-9.67-14.48-9.43-14.41-19.1-29.11-24-45.77-5.3,15.75-20.22,24-26.16,43.51C323.47,803.25,346.52,826.72,355.24,804Zm16.88-.64c-6.65,13.24-5.25,8.86-9.14-.53C359.94,793.39,376.17,794.49,372.12,803.36Zm-27.68,2.95c-5.42-10,8.61-18.53,8.41-5.71C352.55,804.85,346.85,814.75,344.44,806.31Z" transform="translate(-7.31 -54.68)"/><path d="M914.05,810c-.18-.35-.36-.74-.54-1.14l-1.12-.63Z" transform="translate(-7.31 -54.68)"/><path d="M745.56,732.63c1.39.3,2.78.56,4.17.76,6.68,1,13.73-.63,20.37-3.33,11.8-2,17.79-12.64,19.92-23,.14-.65.43-3.88,1.11-3.33s.64,2.12,1.11,3.33c.31.8,0,1.1,1.11,1.1,3.26-4.33,9-7.42,11.58-12.2a46.19,46.19,0,0,1,4.18-5.4c12.31-12.21,5.75-24.55,33.36-21.87,7.35.72-1.51,21.76.71,39.47.34,2.78,3.48,21.72,5.53,24.9,14.77-42.13,38.76-73.62,23.5-130.4,8.5,1.89,14,19.75,17.36.94,15.77-63.86-12.06-126.87-37.63-180.19,5.58-4.34,4.69-11.61,7.76-17a25.66,25.66,0,0,0,3-19.16c-3.26-12.17,13.49-9.39,16.76-28.94,3.54-15.35,25.79-72.61,6.76-80-3.54-1-1.18-3.47-.7-5,3.61-15.68,12.58-30.78,12.92-46.86-6.92,17.37-12.14,35.35-20.62,52.06,4.87-17.44,9.25-34.9,9.82-53.64-3.4,1.24-2.9,3.38-3.2,5-5.75,22.91-10.2,48.59-25.38,67.24-26.28,22.54-51.58,51-85.89,60.43-84.38,22.68-67,10.17-144.54-6.26-61.59-31.88-92.12-92.15-107-154.7-.66,12.81,1.61,25.33,2.42,38.27l-11.25-23.08-1.79.86c3.28,12.62,8.63,24.63,11.5,37.47l-19.55-26.19-1.7,1.21c13.09,47.08,40.8,51.1,30.22,58-14.21,16.55-16.17,51-15.76,72.18,2.18,62.39,48.53,73.75,28.68,98.83-3.09,4.49-5.46,8.14-11.46,9.37-8.94,1.82-10.68,10.54-4,17.17,11,9.33-9.65,7-3.84,15,25.79,33.88-40.37,116.45,34.43,170,3.09-5.33-8.8-42.86,6.39-31.15,7.54,13.31-5.11,31,9.86,48.19,3.61,8.06-4.27,14.22,6.42,23,61.13,66,19.1,34.83,48.84-23.58,12.68-22.43,23.73-2.85,42.78,2.88,6.09,4.69,19.38,2.2,23.85,8.8,3,4.45,5.17,9.4,8.35,13.76a60.42,60.42,0,0,0,11.46,12,68,68,0,0,0,13.8,8.37A20.57,20.57,0,0,0,745.56,732.63ZM565.14,423.51c-3.58,2.82-6.77,2.7-10-1C525,388.65,511,333.38,535.93,292.42c.34,41.39,10.53,92.4,59,102.1C579.07,400.44,576.61,414.85,565.14,423.51Zm144.17,117.8c-.94.82-2.59-3-4.87-2.66-8.8,1.4-25.15-.23-30.39-1.77-40.51-12.69-2.25-45.83-46.53-30.52,10-7.17,29-12.28,37.65-1.34,9.35,12.94,22.57,20.15,37.29,25.12C705.68,530.76,710.34,537.21,709.31,541.31ZM731.07,683a9.23,9.23,0,0,1-.56,2.43,86.76,86.76,0,0,0-5.6,23.55s-6.32-10.86-6.86-11.94c-4.78-14.59-2.16-22.95,11.16-24.16C729.3,673.57,731.25,680.2,731.07,683Zm82.57-175.17c7.32-9.79,20.52-12.51,24.67-10.53,1.38.66-4.11,2.36-3.34,3.8,4.55,8.48-2.77,28.24-35.37,31.87-2.9.4-5.48.78-6,6.2C790.65,527.34,808.05,526.83,813.64,507.84ZM797.78,672.69c14.2,1.76,11.59,6.68,5.53,18.82-.89,1.38-8.1,12.28-10,14.4,2-22.53,1.31-25.13-.92-31.54C792.14,673.53,795.56,672.69,797.78,672.69Zm-9.6-63.3c2.68.37,3.77,1.66,1.66,4.09-4.55,5.24-7.11,11.55-10,17.78-4.1,9-11.81,10.19-18.37,3-7.09-7.71-14.45-15-25.48-21.11C754.72,607.46,771.36,607.07,788.18,609.39Zm-55.74,63.3c8.76-1.49,22.47-5.08,33-15.07,5.15-5.15,11.49,9.75,24.57,15.07,3.33,8.86,2.22,6.64,1.11,10-.53,1.6-15.5,15.5-26.57,16.61-13.29-1.11-15.51-2.22-31-14.4C734.62,680.29,734.06,677.11,732.44,672.69Z" transform="translate(-7.31 -54.68)"/><path d="M971.3,880l.18-.2c2-16.7,2.83-25.46-26.17-31.46C929.16,845,929.17,808,921,801.4c-4.87-4-8.21-6.47-8.73-7.09,0,1.05-8-15-10-15-3,0-.84,4.83-1,5-6,6.59-2.33,2-3-4,0,0-1-5-3-2-5.5,7.23-8.21,5.56-3.67.41.24-.27,1.39-2.14,1.67-2.41-.33,0-1.53-.07-2,0-.94.14-8,0-3.82-5.42.06-.08-.18,0-.26,0s-.17.26-.27.38a1.46,1.46,0,0,0-.37-.45c-1.38-.17-3.18-.27-3.89-1.67l-.09,1.62a3.25,3.25,0,0,1-.83-.2c2.85-31.3-2.42-38.68-14.24-63.5-2.22-3.33-11.07,26.57-11.07,26.57-10,29.79-15.6-5.6-18.83-21-2.16-11.76-1.23-24.15,1.11-35.43-12.71-2.65-14.34,5.16-19.61,12.8A131.6,131.6,0,0,1,809.63,702c-3.92,4.2-7.66,14-14.65,12.23-8.05,25.7-35,25.89-57,27.1,13.42,9.54,23.4,24.27,38,32.7a91.44,91.44,0,0,0,29.89,24.58c8.64,4.26,22,6.83,23.3,18,2.36,27.51-21.21,69.65,7.15,88.8,10.4,2.28,21.53,5.91,25.57,14.42,4.06,9.64,7.12-10,12.46-7.29,13.55,4.36,13.22-6.63,18.68,13,.92,3.51,1.73,3.76,4.78,1.69,7.22-3.65,3.52-16.87,11.2-14.23,16.31,4.3,17.23-13.69,20.31,14.65a21.5,21.5,0,0,0,5.25-.31,125.32,125.32,0,0,0,7.67-14.66c1.88-4.86,5-2.2,9-3.39,6.68-.77,3.33,11.36,7.28,13.89C975.5,903.46,973.06,890.25,971.3,880ZM864.19,914.65c-13.34-15.19,4.93-48.13,7.29-23.1C870.64,897.9,869.93,911.14,864.19,914.65Zm33.89,6.17c-.48,1.59-2.15,2.14-2.28,0-1.83-10.7-8.81-21.49-3.19-32.2,3.9-8,10.61-9.15,14-.25C905.5,899.65,904.39,910.92,898.08,920.82ZM932.25,924c.37-14.85-11.29-27-4.29-41.21,1.17-3.49,7.09-3.11,8.21.41A43.17,43.17,0,0,1,932.25,924Zm30.14-10.62c-.64,2.43-3,2.16-2.62-.5-1.83-11.18-13.26-21.85-4.43-33.24,4.26-5.53,11.84,2.49,11.55,7.79C967.67,896.51,967.6,905.45,962.39,913.35Z" transform="translate(-7.31 -54.68)"/><path d="M402.07,867.69c-2.12,3.43-5.32,6.73-7.84,10.17,1.2.18,2.4.38,3.6.58a38.35,38.35,0,0,0,7.27-9.66,44.89,44.89,0,0,1,7.94-11l-2.27-.29A51.37,51.37,0,0,0,402.07,867.69Z" transform="translate(-7.31 -54.68)"/><path d="M463.77,880.93a118.08,118.08,0,0,1-11.85,4.55c-2.85,1-5.64,2.06-8.39,3.24l5.61,1.51c1-.71,2.07-1.44,3.08-2.21a45.46,45.46,0,0,1,14.17-7.31,35.32,35.32,0,0,0,10.68-5.59,54.63,54.63,0,0,1,9.2-5.63l-1.25-.22A163.16,163.16,0,0,1,463.77,880.93Z" transform="translate(-7.31 -54.68)"/><path d="M473.13,868.43c-3.79,3.58-7,4.88-13.34,7.4a17.54,17.54,0,0,1,3.58-2.26,26.82,26.82,0,0,0,8-5.45c.37-.37.78-.71,1.17-1l-1.5-.27c-.43.38-.87.74-1.28,1.14a27.13,27.13,0,0,1-8,4.88,29.3,29.3,0,0,0-8.69,5.46c-3.73,3.54-8.78,5.36-13.58,7.55A10.4,10.4,0,0,1,443,883.5a29.91,29.91,0,0,0,9-6.11,26,26,0,0,1,7.59-5.3,37.55,37.55,0,0,0,8.84-5.76l-3.61-.62c-3.4,2.95-7.67,4.84-12.34,7a8.86,8.86,0,0,1,3.1-2.26,34.14,34.14,0,0,0,7.64-5l-2.14-.36a28.21,28.21,0,0,1-5.37,3.25,30.74,30.74,0,0,0-9,6.38c-3.36,3.44-7.9,5.6-13.08,8.11a14.75,14.75,0,0,1,3.75-2.73,30.76,30.76,0,0,0,8.44-6.54,25.38,25.38,0,0,1,7.37-5.73,32.8,32.8,0,0,0,5-3.22l-7-1.16c-1.17.62-2.29,1.31-3.55,1.86a13.61,13.61,0,0,1,2.28-2.06l-4.18-.68a52.65,52.65,0,0,0-4.51,3.24,3.62,3.62,0,0,1-.38.26c-.57.32-1.23,1-1.77.68s.35-.91.81-1.31q1.89-1.62,3.89-3.18l-2.4-.37a41,41,0,0,1-5.84,4.21c1.38-1.5,2.91-3,4.5-4.42l-3.74-.58c-.57.69-1.12,1.39-1.65,2.11a23.71,23.71,0,0,1-6.11,5.52,30.43,30.43,0,0,0-8.44,7.71,21.54,21.54,0,0,1-5.65,5.18c2.74.58,5.46,1.2,8.18,1.83a83.93,83.93,0,0,1,13.87-10.82,155.82,155.82,0,0,1-12.79,11.07l4.83,1.17c.73-.32,1.46-.63,2.22-.94a11,11,0,0,1-1.12,1.21l3.64.91a17.5,17.5,0,0,0,2.22-1.88,15.46,15.46,0,0,1,7.71-4c-2.87,2.17-5.76,4.22-8.68,6.2,2.13.54,4.27,1.1,6.4,1.66,2.27-1.13,4.58-2.19,7-3.13a153.59,153.59,0,0,0,31.64-16.6l-5.12-.9C474,867.72,473.52,868.06,473.13,868.43Z" transform="translate(-7.31 -54.68)"/><path d="M418.33,844.56a12.85,12.85,0,0,1,.86-1.75L414,842a24.58,24.58,0,0,1-3.89,4.64c-.52.5-1,1-1.47,1.52,2.43.39,4.87.8,7.3,1.22A33.71,33.71,0,0,0,418.33,844.56Z" transform="translate(-7.31 -54.68)"/><path d="M404,844.33a8.78,8.78,0,0,0-2,2.76l1.87.29a39.32,39.32,0,0,0,4-6.39l-1.38-.22A10.35,10.35,0,0,1,404,844.33Z" transform="translate(-7.31 -54.68)"/><polygon points="352.82 808.24 352.82 808.24 352.82 808.24 352.82 808.24"/><path d="M361.91,835l-2.8-.28a24.23,24.23,0,0,1-.48,7.46l2.4.18A16.32,16.32,0,0,0,361.91,835Z" transform="translate(-7.31 -54.68)"/><path d="M355.49,834.54l0-.13-1.91-.18c0,2.38-1,4.87-2.06,7.51l4.32.27A23.93,23.93,0,0,0,355.49,834.54Z" transform="translate(-7.31 -54.68)"/><path d="M364.4,842.67l3.84.33a73.17,73.17,0,0,0,2.88-7l-5.05-.55A17,17,0,0,1,364.4,842.67Z" transform="translate(-7.31 -54.68)"/><path d="M348.87,841.59l1.7.09a7,7,0,0,1,.33-1.07,15,15,0,0,0,.89-6.53l-2.68-.22A45.64,45.64,0,0,1,348.87,841.59Z" transform="translate(-7.31 -54.68)"/><path d="M386.21,837.86l-4.12-.53a22.68,22.68,0,0,1-3.12,6.33l-.24.4,5.49.63A21.79,21.79,0,0,0,386.21,837.86Z" transform="translate(-7.31 -54.68)"/><path d="M381.69,876.22c1.65.18,3.29.36,4.93.57,1.93-3.17,2.77-6.45,5.49-9.55,1.91-2.17,1.93-4.86,4.66-7,.57-.44.88-1.06,1.7-1.35-.2,1.64-8.13,13.9-11.5,17.91l2.61.35a20.84,20.84,0,0,1,1.94-1.45,8.69,8.69,0,0,1-.76,1.62l2.6.38c2.09-3,3.11-6.17,6.26-8.81a3.94,3.94,0,0,0,1.09-1.81,12.25,12.25,0,0,1,4.14-5.22c1.46-1.17,2.65-2.46,3.94-3.71.3-.28.58-.57.86-.86l-5.77-.73a40.78,40.78,0,0,1-7.35,8.09c1.36-3.09,4.52-5.4,5.82-8.15l0-.12-4.1-.49a50.25,50.25,0,0,0-4.84,5.75,2.85,2.85,0,0,1,.72-2.67c.76-1.11,1.59-2.2,2.46-3.27l-4.63-.52a29.76,29.76,0,0,0-5.49,11.71A23.83,23.83,0,0,1,381.69,876.22Z" transform="translate(-7.31 -54.68)"/><path d="M391.17,838.53l-2.78-.38c-.23.93-.44,1.85-.58,2.78a11.18,11.18,0,0,1-1.73,4l1.28.16a18.37,18.37,0,0,1,1.15-1.67A17.65,17.65,0,0,0,391.17,838.53Z" transform="translate(-7.31 -54.68)"/><path d="M487,875.56c2.94-1.58,6-3,9-4.29l-5.8-1.06a60.17,60.17,0,0,0-9.43,5.9,45.48,45.48,0,0,1-14.65,7,43.27,43.27,0,0,0-12.9,6.36,5.44,5.44,0,0,0-.69.56c-.08.08-.07.21-.2.63,7.3-4.45,15.36-5.32,23-7.93-2,2.09-4.77,3.19-7.45,4.21a91.32,91.32,0,0,0-11.53,5.26l12.11,3.36a47.24,47.24,0,0,0,8.85-4.64,41.47,41.47,0,0,1,11.74-5.21,43.78,43.78,0,0,0,12.13-5.42,40.37,40.37,0,0,1,12.69-5.24l1.26-.3-7.5-1.38c-.38.06-.76.12-1.12.15l.57-.25-7.55-1.39a106.7,106.7,0,0,0-11.86,4.7c-1.09.5-2.78,1.71-3.39.84C483.93,876.85,486,876.12,487,875.56Zm5.24,4.56c-2.1,2-22.22,10.61-25.74,11C475.36,887.44,483.35,882.8,492.27,880.12Z" transform="translate(-7.31 -54.68)"/><path d="M422,850.42c1.26-1,2.42-2.12,3.67-3.15.38-.31.78-.87,1.3-.7.69.22,0,.78-.22,1.18a19.54,19.54,0,0,1-2.36,3.12l5,.94a35.45,35.45,0,0,0,1.95-3.08,17.18,17.18,0,0,1,2.58-3.35q-6.17-1.11-12.44-2.18a23.62,23.62,0,0,0-2,3.53,22,22,0,0,1-1.64,2.95Z" transform="translate(-7.31 -54.68)"/><path d="M310,833.05a19.79,19.79,0,0,0,2,7.88c2.84-.06,5.68-.08,8.52-.09a9.89,9.89,0,0,0-1.32-4.35,9.76,9.76,0,0,1-1.36-4.42l-2.53-.08c.88,2.52.51,5.42,0,8.54a3,3,0,0,1-.8-2.33,11.16,11.16,0,0,0-1.32-6.25l-3.39-.07A7.49,7.49,0,0,1,310,833.05Z" transform="translate(-7.31 -54.68)"/><path d="M194.57,855.45a17.52,17.52,0,0,0-8.54-5.79c-2.12.77-4.24,1.56-6.33,2.39a36.65,36.65,0,0,0,8.81,3.84,14.13,14.13,0,0,1,6.82,4.7c.2.24.41.47.63.7q6.85-2.49,13.84-4.65a21.42,21.42,0,0,0-6.78-3.77,20.06,20.06,0,0,1-9-6q-2.73.89-5.42,1.82a24.09,24.09,0,0,1,2.54,1.43c2.92,1.85,3.91,4.85,6.87,6.89C196.27,856.92,195.44,856.59,194.57,855.45Z" transform="translate(-7.31 -54.68)"/><path d="M379.29,837l-4.27-.52a70.63,70.63,0,0,1-3.42,6.86c1.65.16,3.31.33,5,.51.06-.09.1-.18.16-.27A17.09,17.09,0,0,0,379.29,837Z" transform="translate(-7.31 -54.68)"/><path d="M479.94,860.77c-1.16.61-2.26,1.26-3.34,1.94l1.51.4c.78-.44,1.58-.86,2.41-1.25a29.82,29.82,0,0,0,7.72-5.18q-3.51-.75-7-1.64a30,30,0,0,1-6.55,3.88,32.4,32.4,0,0,0-4.13,2.21l3.61.94c2.68-1.44,5.69-2.56,8.84-3.88A6.89,6.89,0,0,1,479.94,860.77Z" transform="translate(-7.31 -54.68)"/><path d="M419,875.22a22.41,22.41,0,0,1,6.62-6.61c3.53-2.3,5.73-5.12,8-7.93l-2.14-.32c-3.23,2.51-6.81,4.77-9.57,7.6a39,39,0,0,0-5.21,6.36,31.7,31.7,0,0,1-5.55,6.59l2,.43A24.78,24.78,0,0,0,419,875.22Z" transform="translate(-7.31 -54.68)"/><path d="M478.64,854.38l-3.49-.9a6.15,6.15,0,0,1-2.53,2.1,44.81,44.81,0,0,0-6.29,4.47l2.21.56a30.06,30.06,0,0,1,4.1-2.46A34.3,34.3,0,0,0,478.64,854.38Z" transform="translate(-7.31 -54.68)"/><path d="M464.24,852.6a10.6,10.6,0,0,0,1.21-1.59l-.32-.08a119.43,119.43,0,0,1-10.44,6.3l3.37.8A40.52,40.52,0,0,0,464.24,852.6Z" transform="translate(-7.31 -54.68)"/><path d="M470.15,855.4c1.43-.69,2.91-1.3,4.61-2l-1.95-.51c-.9.55-1.78,1.11-2.64,1.7a1.39,1.39,0,0,1-1,.13,21.12,21.12,0,0,1,2.35-2.16l-3.67-.93a48.35,48.35,0,0,1-8.08,6.85c1.32.31,2.64.63,3.95,1A29,29,0,0,1,470.15,855.4Z" transform="translate(-7.31 -54.68)"/><path d="M448.47,855.81l3.57.81a104.88,104.88,0,0,0,9.67-6.46,103.33,103.33,0,0,0-13.24-2.09q-3.15,2.26-6.61,4.4c-.75.46-1.48.94-2.21,1.43l1.63.34c.93-.59,1.86-1.18,2.76-1.79.31-.21.74-.43,1-.15.1.12,0,.44-.2.61a14.09,14.09,0,0,1-1.72,1.64l-.08.05,3.83.85c.9-.84,1.79-1.69,2.64-2.55a17.9,17.9,0,0,1,5.45-3.66C454.67,850,451.88,852.77,448.47,855.81Z" transform="translate(-7.31 -54.68)"/><path d="M402,879.15q2.94.52,5.86,1.09a27.5,27.5,0,0,0,4.38-5.37c3-5,7.8-9,13.61-12.49,1.22-.74,2.44-1.51,3.6-2.32-1.73-.26-3.45-.51-5.18-.75-.87.66-1.76,1.32-2.68,2-1.11.76-2.12,1.6-3.42,2.6,0-1,.77-1.6,1.49-2.15,1.11-.85,2.16-1.73,3.17-2.62l-5.67-.79a51,51,0,0,0-6.92,10.36A35.74,35.74,0,0,1,402,879.15Z" transform="translate(-7.31 -54.68)"/><path d="M431.39,852.21l4.62.92a24.35,24.35,0,0,0,4.63-5.83c.12-.21.25-.41.38-.62l-4.55-.84a23.06,23.06,0,0,0-4.07,4.85C432.09,851.21,431.75,851.71,431.39,852.21Z" transform="translate(-7.31 -54.68)"/><path d="M481.48,863.26c-.36.15-.7.32-1.05.48l3.84,1c.78-.6,1.58-1.18,2.34-1.8,1.19-1,2.33-1.94,3.47-2.92a1.53,1.53,0,0,1-.46-1.69A32.7,32.7,0,0,1,481.48,863.26Z" transform="translate(-7.31 -54.68)"/><path d="M503.3,862.09c-3.43-.49-6.87-.83-10.29-1.36a5,5,0,0,0,.71,2.2c-1.4,1.14-2.85,2.23-4.32,3.3l2.92.84c1.13-.36,2.27-.71,3.44-1,1.9-.47,3.69-1.6,6.35-1.72a1.72,1.72,0,0,1,1.26-1.67c.79-.13,1.61-.22,2.44-.32C505,862.3,504.14,862.22,503.3,862.09Z" transform="translate(-7.31 -54.68)"/><path d="M504.94,870.29l-.91.27,5.59,1.73c.94-.36,1.87-.7,2.79-1.06a27.19,27.19,0,0,1-4.68-1.75C506.8,869.76,505.88,870,504.94,870.29Z" transform="translate(-7.31 -54.68)"/><path d="M514,871.64c-1,.4-2.07.77-3.07,1.05l2.66.85c.48-.25,1-.5,1.46-.73a14.26,14.26,0,0,1,1.6-.62L515.4,872Z" transform="translate(-7.31 -54.68)"/><path d="M501.71,889.23c2.74-.59,5.48-1.05,8.22-1.52a14.1,14.1,0,0,1-1-3.64c-.17-1.39,1.8-2.17,2.77-1.32.3-.08.62-.13.9-.2a33.73,33.73,0,0,0,3.67-1.06c-1.6-.59-3.22-1.11-4.82-1.69l-1.76.45a7.65,7.65,0,0,1,1-.73c-.56-.21-1.11-.44-1.66-.68a40.44,40.44,0,0,0-5.07,2.82,44.34,44.34,0,0,1-15,6.23,30.89,30.89,0,0,0-9.93,4,51,51,0,0,1-8.57,4.24c2.87.79,5.74,1.58,8.61,2.35a46.86,46.86,0,0,0,10.72-4.66A40.3,40.3,0,0,1,501.71,889.23Z" transform="translate(-7.31 -54.68)"/><path d="M503.28,866.32a18.73,18.73,0,0,1-3.48,1.21A26.66,26.66,0,0,0,503,866a9.62,9.62,0,0,1-.63-.8,1.37,1.37,0,0,1-.24-.76,31,31,0,0,1-6.12,3.31l-.59.23,5.1,1.51c1.5-.57,3-1.1,4.52-1.62A13.49,13.49,0,0,1,503.28,866.32Z" transform="translate(-7.31 -54.68)"/><path d="M652.45,891.05c-10.69-1.39-21.59.47-32.29.94-2.2.1,19.26-5.26,28.85-4.66-13.37-30.55-36-75.9-65.16-92.92-13.08-80.75-67.47-123.47-79.74-130.91,8.79,3.92,31.39,13.76,37.91,20,.13-.16.28-.4.46-.68,2.21,1.54,11.07,1.1,21.23-.4-10.14-7.69-18.21-19.27-26.36-28.09-6.21-6.73-10.32-13-13.19-21.77-12.29-26.15-12.83-54-4.12-81.25,5.67-13.58-4-27.69,1.46-41.07-1.42-9.45-12-19.55-5.44-29.07-3.32-7.71-.72-19.13,6.14-25.06,4.83-4.18,13.61-7,16.34-13.11,3.92-8.76-3.31-15.88-8.5-21.82-24.92-28.86-26.77-69.64-19.9-105.61-97.14,24.89-118-23.83-183-54.81,0,0,16.61,14.4,11.07,13.29-4.3-.86-15.5-6.17-19.93-6.64-2.43-.26-33.22-6.65-42.08-2.22,0,0,30.86,11.7,27.69,11.08-56.48-11.08-84.45,7.6-136.79,69.79-116.48,49-146.06-17.2-61.56-94.63,62.09-49.64,150.71-39.67,215-83.68,0,0-10.51-1.08-8.86-2.22,6.58-4.56,14-7.37,19.93-13.29,20.14-21.78,33.76-53.18,26.57-86.37C359.78,60.72,342,74.2,344.87,57c.35-2.82-7.47,5.49-10.23,4.88-.79-.23,2-6.79,1.37-7.09-2-.92-7.12,4.42-8.86,5.53-9.42,11.37-11.44,22.5-15.51,38.63-.88,2.94-.86-10.65-2.21-7.62-1.18,2.65-3.66,21.9-5.39,24.55-6.88,16.59-48,35.75-73.23,41.89-2.36.59,8.83-11.06,6.65-10C179.12,171.92,108.21,196,61.39,238.61,57.67,242,78,213.14,78,213.14c-16.61,1.1-34.37,28.8-38.76,35.43C-40.85,371.31,43.42,426.2,141.15,409.44,119.46,480.1,44.18,600.56,57,677.12c-27.55,35.34-10.59,44.12-22.39,79.2-3.3,7.29-6.43,14.11-6.6,22.59-.23,11.94-6.09,22.6-11.24,33.2-3.83,6.63-5.08,22,6,20.86,6.46-.18,7.48,14.73,14.83,7.53,5.77-4.47,12.46,2.64,18.78-1.39,4.73-1.63.62,6.09,4.41,6.64,2.43.67,3.37-1.33,4.32-3,4.41-10.79,11-3.35,19.52-5.42,2.21-.75,3.23,0,2.69,2.4-2.17,5.65,3.64,12.06,8.06,5.6,2.5-6.19,14.2-10.66,15.76-1.93.13,7.29,7.49,0,9.12-2.87,5.64-6.95,17.88,1.15,20.09-16.86-.06-10-3.85-24.47-15-26.75-22.12-4.29-18.36-32.11-13.65-48.35,2.37-5.49,8.22-8.78,11.55-13.72,4.29-4.66-31.87-27.45-36.06-36.78,14.71,10.41,65.55,49.39,99.69,26.38,42.27-24.52,41.36-106.63,59.9-129.83,1.75-3.64,10.13-11.49,12.83-15,6.71-8.63,18.83-39.86,22.15-55.37,1.56-7.28-5.54,38.76-15.5,57.59C300,602.75,296.88,642.66,344.87,645c24.39-39.62,22.17-107.56,38-141.91.4,6.68-2.93,29.46-5.08,38.94-9.2,53-5.07,84.28-35.17,126.22,7.76,3.32,25.58-16.44,24.37-13.29-5.57,14.46-29.77,32.29-35.44,36.54-8.22,6.17,19.64,7.65,19.52,9.15-.69,8.57-33.28-4-26.16,8.57,1.66,2.83,10.64,6,15.5,11.08,1,1-11-1.14-10,0,38.94,26.28,45.87,85.34,88.09,106.57,16.51,9.94,53.12,15.6,74.86,29.86h0c-.4-.11-.81-.23-1.2-.36l.95.69-.54.16c7.49,1.19,15,2.19,22.59,1.82,5.89,2.81-5.05,6.53-7.63,6.44,6.28,4.08,25.09,12,24.84,12.06-5.12,1.76-10.18-4-15.29-1.93a1.09,1.09,0,0,0,.05.26,26.37,26.37,0,0,0-3.25,1.26l1.79.62c.76-.24,1.52-.49,2.26-.76a5.35,5.35,0,0,0,1.82.55c-.85.26-1.69.52-2.55.74,1.16.41,2.3.85,3.42,1.36l.74-.35a7.53,7.53,0,0,0,1.21.77l-.59.26a36.29,36.29,0,0,1,6.24,5c.07,0,1.79,6,1.46,5.67a7.21,7.21,0,0,1-4.31-.15c.18,0,.36-.05.53-.08-4,0-8.35-.31-12-2,.31.61,2,4.14,2.11,4.51l.24-.08a8,8,0,0,0,1.31,1.48,10.47,10.47,0,0,0,.71,1.81l-1.18.47a26.59,26.59,0,0,0,1.24,3.21l.92-.43c.59.64,1.25,1.21,1.88,1.81-.58.33-1.18.64-1.8,1,.15,3-4.82,2.51-6.83,3.49,1.72.83,3.19,1.54,4.84,2.26l.5-.13c1.61,1.37,4,2.12,5.94,3.12.5.79,1.3,2,2,3.36l-2-.36a1.55,1.55,0,0,1-2,.29c-3.75-2.09-9.84-1.87-12.54-2.44,17.89,33.4-1.92,25.49,34.29,51.31,13.07,2.72,10.22,7.42,15.28,18,5.09,12.09,8.94-12.54,15.63-9.14,17,5.47,16.57-8.31,23.42,16.34,1.15,4.4,2.17,4.71,6,2.12,9.06-4.58,8.58-21.15,18.21-17.84,20.44,5.39,20.21-17.17,24.07,18.37a26.43,26.43,0,0,0,6.58-.4,155.82,155.82,0,0,0,9.61-18.38c2.36-6.09,10.41-2.75,15.5-4.25,8.37-1,4.17,14.25,9.12,17.41C736.47,919.42,694.74,905.75,652.45,891.05ZM112.4,820.77c1.68-4.51,8.43-5.12,8.48.55,1.64,2.73-2.78,20.64-6.4,14.71C114.22,831.21,110.82,826.3,112.4,820.77ZM33.54,834.18c-3.66,1.59-3.61-9.58-1.7-11.44s2.71-6,5.8-5.36c1.71.57,1.61,2.11,1.62,4.19C38.69,825.9,35.31,829.7,33.54,834.18Zm32.25.83c-7.29,8.84-5.28-18.6,1.21-16.16C73.28,821.39,69.31,831.3,65.79,835Zm30,2c-3,6-4.39-6.5-5.61-8.44C86.34,814.68,105.91,813,95.79,837Zm-.16-39.82c-33.8-6.14-64.54,4.61-64.54,4.61,6.15-4.61,14.6-33.8,14.6-33.8-.77,23.82-8.45,30-8.45,30C68.74,786.45,95.63,797.2,95.63,797.2Zm466.1,177.6c-16.73-19,6.18-60.34,9.14-29C569.82,953.8,568.93,970.4,561.73,974.8Zm42.49,7.73c-.6,2-2.7,2.68-2.86,0-2.29-13.41-11-26.94-4-40.36,4.9-10.09,13.3-11.48,17.56-.32C613.52,956,612.13,970.12,604.22,982.53Zm45.62,4c.46-18.61-14.16-33.9-5.38-51.67,1.47-4.37,8.88-3.89,10.29.52A54.14,54.14,0,0,1,649.84,986.48Zm41.95-13.31c-.81,3.05-3.75,2.71-3.29-.64-2.29-14-16.63-27.39-5.55-41.66,5.34-6.94,14.84,3.12,14.48,9.76C698.41,952.05,698.31,963.26,691.79,973.17Z" transform="translate(-7.31 -54.68)"/><path d="M506.32,904.94l-.06-.09c-.65-1.2.46-3.08,1.93-2.51a8.2,8.2,0,0,0,5.51-.13l1.61-.68c-.4-.91-.78-1.83-1.12-2.76l-.18-.56c-2.7,1.17-5.37,2.42-8.05,3.66-1.75.8-3.53,1.52-5.31,2.17l4.92,1.15Z" transform="translate(-7.31 -54.68)"/><path d="M512.87,894.36a5.25,5.25,0,0,0-.17-.52c-.11-.32-.24-.63-.37-.94-.65.12-1.29.25-1.94.36a72.92,72.92,0,0,0-11.54,2.41,1.72,1.72,0,0,1-1.68-.09,35.73,35.73,0,0,1,8.56-2.85c2-.44,3.95-.88,5.91-1.36-.39-.81-.79-1.62-1.17-2.43a13.9,13.9,0,0,1-2.17.66A69.31,69.31,0,0,0,489.67,897a33.39,33.39,0,0,1-6.1,2.67q5,1.32,10,2.6a68.4,68.4,0,0,0,11.62-4.58A78,78,0,0,1,512.87,894.36Z" transform="translate(-7.31 -54.68)"/><path d="M522.49,887.25l1.62.06.9-.39-.35-.3a22.35,22.35,0,0,0-4.89-3.65c-.74-.37-1.49-.69-2.25-1-1.73.51-3.5.92-5.29,1.3C514.89,886.08,518.71,887,522.49,887.25Z" transform="translate(-7.31 -54.68)"/><path d="M445.37,847.5l-2.45-.46a25.36,25.36,0,0,0-2.67,4.06C442,849.93,443.74,848.73,445.37,847.5Z" transform="translate(-7.31 -54.68)"/><path d="M403.91,842.31a4.26,4.26,0,0,0,.95-1.79l-4.81-.72-.72,1.12c-.3.45-.36,1.22-1.26,1.14s-.31-.78-.09-1.26.38-.82.58-1.22l-4.75-.68a17.77,17.77,0,0,1-2.16,3.61c-.72,1-1.38,1.9-2,2.86,3.76.49,7.52,1,11.27,1.56A12,12,0,0,1,403.91,842.31Z" transform="translate(-7.31 -54.68)"/><path d="M241.84,838.9c-.78-.88-1.54-1.76-2.33-2.63l-1,.16A6.5,6.5,0,0,0,241.84,838.9Z" transform="translate(-7.31 -54.68)"/><path d="M257.38,836.14a23.64,23.64,0,0,1,7.61,8.41c2.6-.35,5.22-.67,7.83-1a33.51,33.51,0,0,0-4.29-3.89,21.06,21.06,0,0,1-5.49-6.24q-4.05.34-8.07.79A22.92,22.92,0,0,0,257.38,836.14Z" transform="translate(-7.31 -54.68)"/><path d="M298.09,836.4a38,38,0,0,0-.55-4.57q-3.75,0-7.47.12c0,.55.08,1.09.08,1.65a24.77,24.77,0,0,0,1.43,8.25q3.48-.24,7-.42C298.35,839.77,298.19,838.09,298.09,836.4Z" transform="translate(-7.31 -54.68)"/><path d="M273.18,839.25a20.48,20.48,0,0,1,3.54,3.89l1.46-.16a12.35,12.35,0,0,1-1.82-8c1-.13,1.31.45,1.4.86.53,2.67,2.21,4.76,4,6.8,1.72-.16,3.44-.31,5.17-.45a20.91,20.91,0,0,1-1.28-5.66,25.45,25.45,0,0,0-.75-4.43c-1.8.06-3.6.14-5.4.22.09.71.17,1.42.24,2.14a2.4,2.4,0,0,1-1.6-2.07c-3.38.17-6.75.39-10.11.64A23.29,23.29,0,0,0,273.18,839.25Z" transform="translate(-7.31 -54.68)"/><path d="M301.38,831.82a65.94,65.94,0,0,1,.11,8.09c0,.47,0,.93,0,1.39q3.14-.15,6.27-.24a14.85,14.85,0,0,1-.07-8.06,5,5,0,0,0,.12-1.15C305.65,831.83,303.51,831.82,301.38,831.82Z" transform="translate(-7.31 -54.68)"/><path d="M245.45,846.45c-.89-2.05-2.81-3.55-5-4.78a10.48,10.48,0,0,1-4.53-4.83c-1.34.22-2.68.46-4,.7.43.26.86.51,1.31.74a12,12,0,0,1,5.41,5.64,10.08,10.08,0,0,0,3.73,4.46l3.76-.74A12.17,12.17,0,0,1,245.45,846.45Z" transform="translate(-7.31 -54.68)"/><path d="M246.29,842.48c.71,1.52,1.33,3,2.07,4.37.06.12.14.22.2.33l4.34-.77a33.37,33.37,0,0,0-4.52-3.32A2.63,2.63,0,0,0,246.29,842.48Z" transform="translate(-7.31 -54.68)"/><path d="M250.91,841a23.67,23.67,0,0,1,5.51,4.85c1.93-.31,3.87-.6,5.8-.88a25,25,0,0,0-4-4.11c-1.43-1.18-3.16-2.15-4.72-3.24a30.35,30.35,0,0,1-3.48-2.79q-2.94.36-5.85.77A35.35,35.35,0,0,0,250.91,841Z" transform="translate(-7.31 -54.68)"/><path d="M213.58,855.49q2.94-.87,5.88-1.68a13.59,13.59,0,0,1-6.91-5.22,16.14,16.14,0,0,0-6.2-5.37c-2.95.8-5.87,1.67-8.78,2.56A47.68,47.68,0,0,0,207.66,851,13.9,13.9,0,0,1,213.58,855.49Z" transform="translate(-7.31 -54.68)"/><path d="M163.45,865.42a17,17,0,0,1,8.35,4.25c.42.35.87.69,1.33,1,2.28-1,4.57-2.09,6.88-3.08a42.13,42.13,0,0,0-9.43-5.9c-2.21-1-4.47-1.85-6.83-2.62q-4.06,2-8,4.15A36.72,36.72,0,0,0,163.45,865.42Z" transform="translate(-7.31 -54.68)"/><path d="M334.87,873.39c-1.42-3.54-.48-7.41,1.39-11.57,1.27.59,1,1.63.81,2.5-.82,3.32,0,6.17,1,9a7.89,7.89,0,0,1,.44,2.37q3.35-.32,6.67-.51c-.24-2.49-1.18-4.86,0-7.63a4.32,4.32,0,0,0-.14-3,6.64,6.64,0,0,1,1.91-6.14,90,90,0,0,1-1.38,16.79q2.56-.13,5.13-.21c.24-.44.51-.89.83-1.36a4.24,4.24,0,0,1,.14,1.34c1.3,0,2.59-.06,3.88-.07.17-.29.34-.57.53-.86,1-1.52,1.83-3.06,2.75-4.59,1,.11.76.64.65,1.05a29.32,29.32,0,0,1-1.07,3.38c-.14.34-.27.68-.39,1,4.15,0,8.27.17,12.37.42a12.16,12.16,0,0,0,1.61-5c.35-4.25,3.07-8.14,6.87-12,.71.54.18,1.18-.14,1.72a26.46,26.46,0,0,0-4,11.28,8.78,8.78,0,0,1-1.87,4.25c1.84.14,3.68.28,5.52.46a22.61,22.61,0,0,0,4.12-8.81,24.51,24.51,0,0,1,6.15-11.29l.8-.85-3.34-.35c-1.15,2.45-3.2,4.82-4.93,7.22-.35-.66-.43-.68-.1-1.13a26.16,26.16,0,0,0,3.38-6.26l-4.84-.48-.53.82a4.22,4.22,0,0,1,0-.87L376,853.6a26.52,26.52,0,0,1-4.58,7.91,4.64,4.64,0,0,1,.95-3,18,18,0,0,0,2.16-5c-2.77-.25-5.54-.47-8.31-.68a56.46,56.46,0,0,0-4,9.77c-.14.49-.14,1.18-.95,1.36-1,.21-.84-.6-1.1-1v0c-1.54,3.53-3.82,7-5.12,10.58a5.83,5.83,0,0,1,.65-4.2c2-4.19,3.07-8.23,2.34-12.15a16.79,16.79,0,0,1-.14-5c-1-.06-1.94-.13-2.91-.18v0a27.59,27.59,0,0,0-3,7.27,1.09,1.09,0,0,1-.82,1c-.69-.18-.38-.7-.33-1.12a22.74,22.74,0,0,1,2-6.77c.09-.19.17-.37.25-.56-2.09-.12-4.18-.24-6.28-.33-.25.78-.51,1.58-.8,2.37-2.28,6.25-4.3,12.45-4.71,18.57,0,.46.12,1.17-.73,1.36-1.09.24-.86-.58-.89-1.08a40.16,40.16,0,0,1,1.89-15,55.8,55.8,0,0,0,1.67-6.39l-2-.08-.27,3c0-1-.11-2-.2-3q-3.3-.13-6.57-.21a15.63,15.63,0,0,1-.73,5.54,31,31,0,0,0-.71,4c-1-.37-.86-1.08-.73-1.69a20,20,0,0,0,.13-7.92c-2.43-.06-4.87-.1-7.3-.12,1,2.81.36,6-.26,9.32a2.86,2.86,0,0,1-.55-2.59,11.79,11.79,0,0,0-1.35-6.75c-2.12,0-4.23,0-6.34,0a15.1,15.1,0,0,1-.12,3.84c-.61,3.71.7,6.83,2.39,9.76a17.69,17.69,0,0,1,2.57,9.88c-.05,1.25-.32,2.53-.4,3.79,1.6-.3,3.19-.58,4.79-.83-1.34-4.33-2.92-8.58-2.35-13.44,1.95,4.19,2.68,8.71,3.17,13.31,3.17-.5,6.31-.91,9.44-1.24A14.23,14.23,0,0,0,334.87,873.39ZM368,857c.05,5.8-3.41,11.74-4.88,17.6A41.56,41.56,0,0,1,368,857Z" transform="translate(-7.31 -54.68)"/><path d="M163.49,875.36q3.38-1.71,6.78-3.33c-.18-.13-.36-.25-.53-.39a17.86,17.86,0,0,0-8.81-3.78,20.17,20.17,0,0,1-8.2-3c-2,1.14-4,2.32-6,3.54a16.34,16.34,0,0,0,4,1.08C156.24,870.29,160,872.73,163.49,875.36Z" transform="translate(-7.31 -54.68)"/><path d="M145.62,879.27a45.8,45.8,0,0,1,7.9,1.45q4.38-2.47,8.83-4.78c-3.8-2.69-8.62-4.22-14.13-5a15.65,15.65,0,0,1-3.81-1.06q-5.31,3.35-10.41,7A52.33,52.33,0,0,0,145.62,879.27Z" transform="translate(-7.31 -54.68)"/><path d="M214.09,845.75a17.69,17.69,0,0,0,8.11,7.14l.25.12c1-.27,2-.54,3-.79a50.81,50.81,0,0,1-3.86-3.91,37.39,37.39,0,0,1-5.11-7.37c0-.07-.09-.14-.13-.22-1.84.43-3.66.87-5.48,1.33A14,14,0,0,1,214.09,845.75Z" transform="translate(-7.31 -54.68)"/><path d="M234.16,850.13c1.89-.43,3.79-.85,5.68-1.24a12,12,0,0,1-3.66-4.2,9.61,9.61,0,0,0-4.66-4.24,11.64,11.64,0,0,1-3.24-2.25l-3,.59c.5.93,1,1.85,1.61,2.74A47,47,0,0,0,234.16,850.13Z" transform="translate(-7.31 -54.68)"/><path d="M186.84,864.76q3-1.23,6.14-2.38a15.87,15.87,0,0,0-7.13-4.11c-3.76-1.1-6.87-2.68-9-5-1.34.55-2.67,1.1-4,1.67A47.9,47.9,0,0,1,186.84,864.76Z" transform="translate(-7.31 -54.68)"/><path d="M122.53,887.65a69.44,69.44,0,0,1,11.95,4.86c1.81-1.24,3.63-2.44,5.47-3.62-1-.11-2-.2-3-.25a18.6,18.6,0,0,1-8.15-2.45,23.07,23.07,0,0,0-4.36-1.86q-1.71,1.41-3.39,2.87Z" transform="translate(-7.31 -54.68)"/><path d="M332.49,836.92a19.92,19.92,0,0,0-.62,4l4.66.12a12.84,12.84,0,0,0-1-6.63,16.41,16.41,0,0,1-.63-1.59l-1.9-.11A15.39,15.39,0,0,1,332.49,836.92Z" transform="translate(-7.31 -54.68)"/><path d="M338.11,841.11c.6,0,1.19,0,1.78.06a22.24,22.24,0,0,1,1-5.89,36.84,36.84,0,0,1,.64,6l2.67.11a50.76,50.76,0,0,0-.58-7.92q-2.82-.21-5.65-.39A21,21,0,0,1,338.11,841.11Z" transform="translate(-7.31 -54.68)"/><path d="M103.39,916.71q-4.53-.6-9.27-.8c-1.31,1.72-2.59,3.46-3.86,5.25C94.62,919.44,99.42,919,103.39,916.71Z" transform="translate(-7.31 -54.68)"/><path d="M141,887.25c.44,0,.86.1,1.27.15,1.72-1.08,3.45-2.13,5.19-3.17-1.12-.17-2.25-.33-3.41-.45a40.56,40.56,0,0,1-14.08-3.9c-1,.76-2,1.53-3,2.31a16.64,16.64,0,0,1,2.4,1.29A24.6,24.6,0,0,0,141,887.25Z" transform="translate(-7.31 -54.68)"/><path d="M322.34,836a8.3,8.3,0,0,1,.82,4.81c2,0,3.95,0,5.93,0a15.35,15.35,0,0,1,.35-2.73,14.38,14.38,0,0,0,.1-5.61q-4.47-.22-8.94-.39A19.38,19.38,0,0,0,322.34,836Z" transform="translate(-7.31 -54.68)"/><path d="M156,893.19a3.46,3.46,0,0,1-2.75-.39c-.49-.28-1-.53-1.53-.78q-3.93,2.41-7.79,5a120.9,120.9,0,0,0,12.3,3.71c8.1,2.11,17.34,1.93,26.06,2.78a95.2,95.2,0,0,1,13.41,2.23q4,0,8,.26a25.1,25.1,0,0,0-8.68-1.7,15.68,15.68,0,0,1-7.09-2,18.92,18.92,0,0,0-8.35-2.44,17.39,17.39,0,0,1-9.79-3.4l-2.39-1.74a6,6,0,0,1,4.12.68,24.37,24.37,0,0,0,9.16,2.32,16.23,16.23,0,0,1,7.88,2.45,20.14,20.14,0,0,0,8.9,2.89,16.88,16.88,0,0,1,7.66,2.46c.33.22.68.44,1,.65a120.27,120.27,0,0,1,28.4,5.24c-.72-.59-1.41-1.22-2.07-1.86a6.75,6.75,0,0,1,3.67.81,17.07,17.07,0,0,0,3.45,1.51,6.15,6.15,0,0,0,.8-.42c2.7-1.74,5.37-3.39,8-5a12.39,12.39,0,0,1-6.34-3.85c-.75-.88-2.07-1.44-2.52-2.93a7.85,7.85,0,0,1,3.79,1.62,18.71,18.71,0,0,0,7.46,3.22l.63.15,1.88-1.08-1.28-.33a7.15,7.15,0,0,1-4.39-3.61c.81,0,3.82,1.37,7.15,3.09q5-2.79,9.86-5.26a31.41,31.41,0,0,1-2.6-3.39c-2.84-4.33-7.68-7.19-13.06-9.61a19.71,19.71,0,0,1-5-2.58c-4.51-3.92-9.47-7.52-13.57-11.73a20.81,20.81,0,0,0-8.7-4.84,26.58,26.58,0,0,1-4.2-1.75c-1.81.51-3.62,1-5.42,1.58a19.57,19.57,0,0,0,2.38.87,12.62,12.62,0,0,1,6.51,4.29,16.57,16.57,0,0,0,7.85,5.1c3.47,1.2,5.33,3.57,7,6.14-1.26.29-1.47-.28-1.78-.66a14.44,14.44,0,0,0-7.78-4.71,14.36,14.36,0,0,1-6.86-4,15.49,15.49,0,0,0-6.78-4.08,12.93,12.93,0,0,1-3.9-1.93l-2.83.92a17.63,17.63,0,0,1,7.36,5.44,31.9,31.9,0,0,0,2.53,2.54c-2.25-.09-3.19-1.28-4.18-2.31-2.15-2.26-5.18-3.66-8.59-4.73q-4.32,1.47-8.58,3.08a53.69,53.69,0,0,0,16.95,7.06,39.53,39.53,0,0,1,8.34,2.84c1,.51,2.11,1,3.46,1.54-.48-1.9-2-2.95-3.1-4.5a4.82,4.82,0,0,1,3.73,1.5,18.75,18.75,0,0,0,8.26,4.1,11.49,11.49,0,0,1,6,3.84A14.57,14.57,0,0,0,245.4,892a13.06,13.06,0,0,1,5.31,2.93c1.25,1.15,2.29,2.44,3.72,4a6.32,6.32,0,0,1-3.53-2,15,15,0,0,0-6.82-3.58,17,17,0,0,1-8-4.34,12.07,12.07,0,0,0-7.34-3.37c5.69,4,8.78,9.83,15.33,13.26a4.27,4.27,0,0,1,.59.38c.35.32,1.18.61.55,1.15s-1.14,0-1.62-.24c-5.3-2.14-8.79-5.7-12.85-8.82-6.47-5-14.53-8.22-24.09-10.06a50.77,50.77,0,0,1-18.83-7.51L184.75,875a18.51,18.51,0,0,1,7,4.4c.78.8,1.87,1.41,2.7,2.2a9.21,9.21,0,0,1-4.89-2.25,20.6,20.6,0,0,0-7.46-3.22q-6.51,2.83-12.87,6a23.74,23.74,0,0,0,7.74,2.27,15.72,15.72,0,0,1,8,3.08c2.23,1.82,5.42,2.66,8.77,3.32a16.25,16.25,0,0,1,9.34,4.91,3.57,3.57,0,0,1-2.49-.85,19.48,19.48,0,0,0-9.29-2.95,12.68,12.68,0,0,1-6.62-2,24.17,24.17,0,0,0-10.55-3.68,13.82,13.82,0,0,1-6.88-3c-1.21.62-2.42,1.24-3.61,1.89.94.57,1.86,1.17,2.74,1.81a34.11,34.11,0,0,0,15.94,5.82c8,1,14.87,3.25,20.22,7.25a25.25,25.25,0,0,0,6.35,3.61,11.64,11.64,0,0,1,1.67.91l-.47.46a16.43,16.43,0,0,1-6.37-2.24,48.81,48.81,0,0,0-16.67-6.66c-3.48-.65-7.36-.5-10.78-1.29-5.45-1.24-10.45-2.9-14.53-5.62a25,25,0,0,0-2.68-1.51q-3.21,1.82-6.37,3.73Zm94.66-.47c-.86-.92-2.55-1.17-3.84-1.76a5.51,5.51,0,0,1-3.5-3.66c2.89.71,16.22,9,17.64,11.05C258.1,895.91,253.15,895.42,250.61,892.72Zm-41.67-1a16.7,16.7,0,0,1-9.17-4.36c-1.29-1.27-2.7-2.45-4.4-4a8.16,8.16,0,0,1,5,1.61,24.27,24.27,0,0,0,9.89,3.93c3.52.54,6.68,1.57,8.91,3.44a30.76,30.76,0,0,0,13.65,6.44,16.2,16.2,0,0,1,8,4.34c.89.86,2,1.57,2.86,2.54a7.78,7.78,0,0,1-4.24-1.93,18.93,18.93,0,0,0-8.47-3.66,39.62,39.62,0,0,1-6.42-1.48,16.73,16.73,0,0,1-5-2.57A23.25,23.25,0,0,0,208.94,891.76Zm1.38,4.39c2.8.29,18.71,7,19.65,8.39-3-1.67-7.62-1.49-10.26-3.6-1.14-.92-2.89-1.16-4.53-1.5A7.2,7.2,0,0,1,210.32,896.15Z" transform="translate(-7.31 -54.68)"/><path d="M363.62,852.59l-2.87-.21a26,26,0,0,0-.31,5.76,37.14,37.14,0,0,1-.32,4.78l0,0h0c.91-1.23.9-2.46,1.19-3.67A39.78,39.78,0,0,1,363.62,852.59Z" transform="translate(-7.31 -54.68)"/><path d="M303.16,851.42a2.38,2.38,0,0,1,.15.45c.06.54.71,1.22-.43,1.62s-1.12-.51-1.34-1-.35-.82-.52-1.23l-3.44.13a23.1,23.1,0,0,1,4.32,13c.14,2.65-.09,5.38,1.05,7.75.18.37.1.41-.56,1.84a16.73,16.73,0,0,1-2.07-5.49c-.61-3.88-1.08-7.77-2.93-11.29a27.61,27.61,0,0,0-4.2-5.54q-3.46.2-6.91.44a11.69,11.69,0,0,0,3.23,4.49c2.73,2.49,2.94,5.91,3.57,9.17l-.56.22c-.37-1-.8-1.9-1.1-2.88a11.62,11.62,0,0,0-4.18-6.16,9.37,9.37,0,0,1-3.15-4.69l-3.6.31a1.89,1.89,0,0,1,.05.23,38.55,38.55,0,0,0,2.5,9.36,2.84,2.84,0,0,1-2.22-2,25.41,25.41,0,0,1-2-5.63c-.14-.62-.32-1.23-.5-1.83-1.52.14-3,.3-4.55.45a13.79,13.79,0,0,1,.66,1.34,14.2,14.2,0,0,0,4.76,5.51,9.52,9.52,0,0,1,3.55,5.25,14.39,14.39,0,0,0,5.12,7.45c2.72,2.14,3.35,5.23,3.88,8.64-1.95-1.71-1.64-4.3-3.49-5.71a31.36,31.36,0,0,1-9.31-11.82,6.71,6.71,0,0,0-2.82-2.58,8,8,0,0,1-2.58-2.92,14.64,14.64,0,0,1-1.51-5c-1.16.12-2.32.26-3.48.4.46.93,1,1.84,1.41,2.79.16.37.58.65-.13,1.56a21.4,21.4,0,0,1-3.09-4.14c-1.93.23-3.84.48-5.76.74a16.36,16.36,0,0,0,2.86,5.15c.3.34.54.77.13,1.81-2.23-2.14-4-4.14-4.89-6.59L259,855l-2.34.35a11.91,11.91,0,0,1,1.1,2.56c.2.67.62,1.27.77,2a3.51,3.51,0,0,1-1.91-1.94,10.75,10.75,0,0,0-1.52-2.37c-1.83.28-3.64.57-5.46.88.19.44.37.89.54,1.34a3.08,3.08,0,0,1-1.65-1.15c-1.55.27-3.09.55-4.63.84,1.87,1.15,3.81,2.23,5.85,3.27,10.83,5.47,18.45,13.13,22.83,22.78a44.47,44.47,0,0,0,4.75,8l1.25-.55a6,6,0,0,1-.78-2.44c-.09-.94-1.16-1.52-1-2.86a3.79,3.79,0,0,1,2.34,1.87A14.61,14.61,0,0,0,281,890c2.8-1.15,5.57-2.23,8.34-3.23a20,20,0,0,1-4.47-7.09,44.18,44.18,0,0,1,6.07,6.52q3.57-1.26,7.1-2.37a25.35,25.35,0,0,1-4.44-8.6,44,44,0,0,1,6,8.13q3.53-1.08,7-2a4.7,4.7,0,0,1,.16-1.8A4.92,4.92,0,0,1,308,881c1.5-.38,3-.75,4.49-1.09a26.17,26.17,0,0,0-4.07-6,17.25,17.25,0,0,1-4.15-13.38,21.83,21.83,0,0,0,0-6.36c-.08-.38-.32-.94.43-1.21s.87.34,1.1.66a10.48,10.48,0,0,1,1.68,5.4,21.91,21.91,0,0,0,5.82,12.65,18.78,18.78,0,0,1,4,7.21l2.38-.49a16.86,16.86,0,0,1-.24-3.91,15.19,15.19,0,0,0-3.38-9.07,15.91,15.91,0,0,1-3.26-10.62,14.31,14.31,0,0,0-.36-3.79q-4.68.06-9.36.21C303.11,851.26,303.13,851.34,303.16,851.42Zm-31.5,19.41a6.7,6.7,0,0,0-2.76-3,5.27,5.27,0,0,1-2.62-5.07c2.58,1.68,12.09,13.22,12,14.88C277.26,874.62,272.92,873.72,271.66,870.83Z" transform="translate(-7.31 -54.68)"/><path d="M126.2,910.08c5.41-.18,10.88-.54,16.37-1A46.19,46.19,0,0,0,130.05,907C128.76,908,127.47,909.05,126.2,910.08Z" transform="translate(-7.31 -54.68)"/><path d="M111.38,910.07c1.59-1.34,3.18-2.67,4.78-4a36.87,36.87,0,0,1-10.62-3.87c-1.78,1.94-3.52,3.94-5.24,6A100.77,100.77,0,0,1,111.38,910.07Z" transform="translate(-7.31 -54.68)"/><path d="M108,899.57A48.13,48.13,0,0,0,121,902.28q2.92-2.26,5.9-4.44a74.79,74.79,0,0,0-13.23-3.94C111.75,895.74,109.89,897.63,108,899.57Z" transform="translate(-7.31 -54.68)"/><path d="M234.23,872.26c.23.36.24.92,1.25,1-.29-2.12-1.75-3.64-2.59-5.41-.24-.52-.7-.94-1-1.46s-1.49-1.06-.5-1.73c.75-.51,1.39.35,2,.7a19.19,19.19,0,0,1,5.12,4.76c3.72,4.74,9.08,8.2,15.51,10.83a22.52,22.52,0,0,1,11.45,9.56,31.5,31.5,0,0,0,3.42,4.89l2.5-1.17c-.87-.72-1.74-1.44-2.58-2.18a1.34,1.34,0,0,1-.4-1.76,25.25,25.25,0,0,1,4.7,3.14l2-.88a103.35,103.35,0,0,1-7.53-10.38c-5-7.31-12.17-13.09-21.56-17.14a86,86,0,0,1-11.12-5.73c-1.61.35-3.2.72-4.8,1.09.6.91,1.3,1.77,1.83,2.74a5.08,5.08,0,0,1-2.91-2.2l-.18-.25c-2.55.61-5.1,1.25-7.63,1.92a12.58,12.58,0,0,0,1.29.57A23.81,23.81,0,0,1,234.23,872.26Zm0-10.28a.94.94,0,0,1,1.12.16,3.25,3.25,0,0,1,.82.61,23.7,23.7,0,0,0,9,6.3,9.9,9.9,0,0,1,4.71,4.39,8.81,8.81,0,0,0,4.59,4.08c4.54,1.77,6.83,4.92,9.11,8.67-2.19-.84-2.8-2.24-3.85-3.31a13.86,13.86,0,0,0-5.24-3.41,13.33,13.33,0,0,1-6.46-4.52,14.88,14.88,0,0,0-7-5,10.39,10.39,0,0,1-5.27-4.59c-.51-.86-1.1-1.69-1.63-2.54C234.07,862.6,233.73,862.31,234.26,862Z" transform="translate(-7.31 -54.68)"/><path d="M135.34,903a41.43,41.43,0,0,1,13.24,4c.95.49,1.93.92,2.93,1.33l10.58-.94a87.22,87.22,0,0,1-25.3-5.46C136.3,902.31,135.82,902.67,135.34,903Z" transform="translate(-7.31 -54.68)"/><path d="M91.31,924.31s68-24,147-8c0,0,85-77,262-6l4,7s-164-78-264,7C240.31,924.31,199.31,907.31,91.31,924.31Z" transform="translate(-7.31 -54.68)"/><path d="M901.4,722.64c-.19.27-.37.55-.56.83a37.78,37.78,0,0,0,4.95.89q.33,0,.66.09l.54-.68A35,35,0,0,0,901.4,722.64Z" transform="translate(-7.31 -54.68)"/><path d="M905.52,725.63l.38-.5c-1-.14-2-.27-3-.41Z" transform="translate(-7.31 -54.68)"/><path d="M896.66,739.07a38.75,38.75,0,0,1-4.59-.31l-.24.5c1.55.09,3.09.14,4.63.17Z" transform="translate(-7.31 -54.68)"/><path d="M897.7,728.42c-.17.27-.33.54-.49.81,1.09.11,2.19.17,3.31.2.71,0,1.41.06,2.1.12L903,729C901.26,728.76,899.43,728.79,897.7,728.42Z" transform="translate(-7.31 -54.68)"/><path d="M903.68,728.08l.66-.91a37.51,37.51,0,0,0-5.33-.88c-.36.57-.72,1.14-1.07,1.72,2,.3,3.87.62,5.16.87l.36-.49a8.18,8.18,0,0,1-1-.44C902.74,728,903.16,728,903.68,728.08Z" transform="translate(-7.31 -54.68)"/><path d="M891.7,744.23a24.41,24.41,0,0,1,2.55-.55c.11-.23.23-.46.35-.69-1.72.1-3.2.49-4.84.7l-.47,1A20,20,0,0,0,891.7,744.23Z" transform="translate(-7.31 -54.68)"/><path d="M905.24,726l-.44-.14A34.24,34.24,0,0,0,900,724.7l-.4.62a39,39,0,0,1,5.33,1Z" transform="translate(-7.31 -54.68)"/><path d="M886.49,752.65a19.69,19.69,0,0,1,4.2-.87l.11-.27a40.9,40.9,0,0,1-4.31.54Z" transform="translate(-7.31 -54.68)"/><path d="M902.36,721.26l-.55.79a36.17,36.17,0,0,1,5.53,1.29l.46-.56A47.4,47.4,0,0,0,902.36,721.26Z" transform="translate(-7.31 -54.68)"/><path d="M908.9,715.93a10.75,10.75,0,0,0-1.83-.89l-.72.89c1.8.66,3.9,1.49,5.54,2.19.16-.18.32-.36.49-.53A17,17,0,0,1,908.9,715.93Z" transform="translate(-7.31 -54.68)"/><path d="M910.81,719.3c.24-.28.5-.55.75-.82-1.84-.68-3.6-1.44-5.57-2.09l-.5.63a16.71,16.71,0,0,1,1.9.85A17.67,17.67,0,0,0,910.81,719.3Z" transform="translate(-7.31 -54.68)"/><path d="M891,750.93c.17-.43.35-.86.53-1.29a20.19,20.19,0,0,0-2.41.61,17.07,17.07,0,0,1-2.39.53l-.24.62C888.06,751.29,889.57,751.14,891,750.93Z" transform="translate(-7.31 -54.68)"/><path d="M903.59,759.37c.85-.28,1.77-.48,2.13-1a3.76,3.76,0,0,1,1.85-.82,24,24,0,0,0,3.45-1.16c.32-.72.66-1.43,1-2.15a10.85,10.85,0,0,0-3.49,1.51,11.44,11.44,0,0,1-4.51,1.8,8.63,8.63,0,0,0-3.38,1.42c-1.63,1.17-4.34,1.63-7.25,2.11.17-.48.92-.64,1.56-.81a13.5,13.5,0,0,0,4.09-1.71,11.36,11.36,0,0,1,4.09-1.54,13.21,13.21,0,0,0,4.62-1.67,13,13,0,0,1,4.47-1.53c.28-.56.57-1.12.86-1.68a43.67,43.67,0,0,1-7.65,2.27c.34-.41,4.59-1.86,8-2.83q.27-.52.57-1a26.14,26.14,0,0,0-6.31,2.26,28.34,28.34,0,0,1-10,2.55c-.72.07-1.44.14-2.14.23l-.24.57c.84-.11,1.65-.27,2.48-.4a3.44,3.44,0,0,1-2,.73l-.68.11c-.14.32-.27.65-.41,1a32.63,32.63,0,0,1,6-1.33,8.53,8.53,0,0,1-2.5.78,12.24,12.24,0,0,0-3.88,1.46c-.5,1.21-1,2.42-1.46,3.63a52.79,52.79,0,0,1,5.46-1.42A51.4,51.4,0,0,0,903.59,759.37Z" transform="translate(-7.31 -54.68)"/><path d="M885.92,762.42c0,.66.07,1.32.09,2,0,.23,0,.46,0,.7l.52-.33c.22-.9.46-1.79.71-2.68l-.92.22Z" transform="translate(-7.31 -54.68)"/><path d="M886.46,754.16c.17-.07.35-.12.51-.19a12.43,12.43,0,0,1,3.22-.88l.35-.92a15.9,15.9,0,0,0-3.73,1l-.32.12Z" transform="translate(-7.31 -54.68)"/><path d="M901,732c-.68-.09-1.36-.21-2-.32-1-.16-2-.27-3-.33-.41.72-.81,1.45-1.21,2.17l1.43.23c1.12.2,2.23.35,3.34.46.23-.36.45-.73.69-1.1a12,12,0,0,1-2-.34c.31,0,1.12,0,2.19.06Z" transform="translate(-7.31 -54.68)"/><path d="M936.6,692.79a5.81,5.81,0,0,1-1.37-1.81c-.41.23-.8.47-1.2.71a3.45,3.45,0,0,1,1.22,1.69,8.06,8.06,0,0,0,2.32,3.68l1.1-.67a1.09,1.09,0,0,1-.46-.77A4.38,4.38,0,0,0,936.6,692.79Z" transform="translate(-7.31 -54.68)"/><path d="M986.34,675.65a5.51,5.51,0,0,0-.51.59q2.73-.78,5.54-1.52a3.38,3.38,0,0,0,.16-.7c-1.45.15-2.87.31-4.28.49A7.22,7.22,0,0,1,986.34,675.65Z" transform="translate(-7.31 -54.68)"/><path d="M930.76,695.07a9.7,9.7,0,0,0,1.68,4.26.88.88,0,0,1,.12.17c.07.2.48.5-.15.54s-.68-.28-.84-.47A14.38,14.38,0,0,1,929,694.9c-.82.56-1.63,1.12-2.42,1.69a17.74,17.74,0,0,0,1.91,1.65,12,12,0,0,1,2.86,3c1.56-1.1,3.15-2.17,4.79-3.23h0c-1.79-1.58-2.66-3.18-2.23-4.83.1-.4-.19-.84-.06-1.35-1.11.67-2.2,1.35-3.26,2C930.66,694.25,930.72,694.66,930.76,695.07Z" transform="translate(-7.31 -54.68)"/><path d="M896.74,730c-.17.28-.33.57-.49.85a42.55,42.55,0,0,1,4.34.68l.58.12c.28-.43.57-.85.86-1.27l-1.49-.08C899.24,730.29,898,730.19,896.74,730Z" transform="translate(-7.31 -54.68)"/><path d="M915.65,727.32a21.54,21.54,0,0,1-4.14-.81l-1,1.35c1.71.33,3.49.56,5.31.74a33.44,33.44,0,0,1,8,1.75c1,.37,2.2.57,3.44,1a7.59,7.59,0,0,1-2.5-.32,49.5,49.5,0,0,0-11.65-2,27.75,27.75,0,0,1-3.09-.38l-.29.42c3.5.6,7,1.26,7.52,1.5-2.39-.62-5.09-.39-7.46-1.08l-.3-.07-.87,1.3.5.12a27.85,27.85,0,0,0,5.82.76,35.55,35.55,0,0,1,8.17,1.2c.92.26,1.92.44,2.88.66a7.92,7.92,0,0,1-2.65-.25,39.5,39.5,0,0,0-8.87-1.06,30.41,30.41,0,0,1-6.3-.74l-.29.46c3.81.38,7.94.89,8.5,1.11-2.89-.09-5.82-.44-8.77-.69-.22.34-.44.68-.65,1,2.89.23,5.49.48,6,.61a58.18,58.18,0,0,1-6.28-.19l-.42.67a37.27,37.27,0,0,1,8.28.65c1.21.24,2.48.36,3.72.57a11.17,11.17,0,0,1-3.11-.12,46.77,46.77,0,0,0-9.28-.46c-.42.69-.83,1.39-1.24,2.09,1.22,0,2.44.1,3.67.19a21,21,0,0,0-3.81.06l-.4.69c.48,0,1,.06,1.45.11a22.45,22.45,0,0,0,5.14-.13,35.32,35.32,0,0,1,8.37.18,4.84,4.84,0,0,1-1.8.11,28.23,28.23,0,0,0-6.49.23,27.1,27.1,0,0,1-5.36.2c-.57,0-1.12-.06-1.67-.07-.21.36-.41.73-.61,1.09a28.12,28.12,0,0,1,4.69,0,22.88,22.88,0,0,0,5.43-.28,33.38,33.38,0,0,1,7.94-.06l0,.15c-1.16,0-2.32,0-3.48,0a16.22,16.22,0,0,0-3.18.22,33.56,33.56,0,0,1-7.67.59,20.07,20.07,0,0,0-4.25.28l-.33.62a80,80,0,0,1,9.08-.38c-3.11.28-6.18.64-9.33.86-.29.54-.58,1.08-.86,1.63a26.87,26.87,0,0,0,5.14-.72,28.39,28.39,0,0,1,6.92-.72c1.14,0,2.27,0,3.7-.05a9.23,9.23,0,0,1-3,.38,27,27,0,0,0-7.11,1,25.53,25.53,0,0,1-6.06.85l-.57,1.11c3.67-.69,7.61-1.09,11.54-1.48-3.88.62-7.54,1.47-11.69,1.79l-.33.65a35.6,35.6,0,0,1,4.13-.28c1,0,2-.21,3.43-.18a12.73,12.73,0,0,1-3.52.57,33.18,33.18,0,0,0-4.34.5c-.2.4-.39.81-.59,1.21a27.69,27.69,0,0,1,7.73-.71l-2.53.22a19.76,19.76,0,0,0-4.52.9c-.33.12-.68.21-1,.31-.45.94-.89,1.89-1.32,2.84a32.38,32.38,0,0,1,6.4-1,4.32,4.32,0,0,1-1.67.44,16.63,16.63,0,0,0-5.08,1.41h0l-.47,1.07a14.62,14.62,0,0,1,2.16-.35,13.35,13.35,0,0,0-2.3.66c-.15.35-.31.69-.46,1l1.67-.34a28.48,28.48,0,0,0,7.71-2.52,29.65,29.65,0,0,1,9.53-2.7c.35-.59.7-1.18,1.06-1.77a21,21,0,0,1-3.17.55,14.67,14.67,0,0,0-4.43,1.16c-2.05.84-4.8.95-7.74,1.14a2.81,2.81,0,0,1,1.73-.58,20.24,20.24,0,0,0,5.14-1.27,17.52,17.52,0,0,1,5.21-1.12,19.54,19.54,0,0,0,3.74-.67l.87-1.35a39.75,39.75,0,0,0-4.45.9,10.48,10.48,0,0,1-4.19.41c2.87-.72,5.89-1.29,9-1.81l.74-1.08a14.68,14.68,0,0,1-2,0l2.29-.43c1.38-2,2.87-3.93,4.5-5.85-3,.09-6.1.13-9.2.07a2.89,2.89,0,0,1-1.31-.24c.92-.19,6.77-.24,10.8-.17.52-.61,1.06-1.22,1.61-1.82-1.7-.12-3.39-.3-5.08-.59,1.82,0,3.64.08,5.45.19.74-.8,1.49-1.59,2.28-2.37l-.12,0a13.16,13.16,0,0,0-2.28-.28,16.06,16.06,0,0,1-4.47-1c.82,0,4,.44,7.22,1,.73-.72,1.48-1.43,2.24-2.13-3.38-1-6.93-1.44-10-2.48l-.17.17,4.22,1.5a8.33,8.33,0,0,1-2.43-.52A24.87,24.87,0,0,0,915.65,727.32Zm-4.76,14.3a11.07,11.07,0,0,0-2.45.33,14.26,14.26,0,0,1-4.37.06c4.65-.76,9.46-.88,14.09-1.25C915.64,740.93,913.67,741.76,910.89,741.62Z" transform="translate(-7.31 -54.68)"/><path d="M937.77,692.88a3.85,3.85,0,0,1,1.06,3.41c.59-.37,1.18-.72,1.78-1.08a3.28,3.28,0,0,1-.65-3.83c.59.32.71.6.73.87a4.5,4.5,0,0,0,1,2.3c1.08-.64,2.18-1.26,3.3-1.88a3,3,0,0,1-.12-3.07c.2-.36-.1-.78.41-1.2a1.42,1.42,0,0,1,.75,1.46,4.15,4.15,0,0,0,.46,2l2.48-1.31a3.32,3.32,0,0,0-.71-1.9A5.44,5.44,0,0,1,947,685c-1.6.69-3.15,1.41-4.67,2.15a3.51,3.51,0,0,1-.09,1.79c-.14.44-.1.91-.25,1.36a1,1,0,0,1-.44-1,3.46,3.46,0,0,0-.09-1.72q-2.6,1.29-5,2.68A3.86,3.86,0,0,0,937.77,692.88Z" transform="translate(-7.31 -54.68)"/><path d="M954.1,688q2.53-1.21,5.19-2.37a1.23,1.23,0,0,1,0-1.29,3.8,3.8,0,0,0-.64-3.64l0,0c-1.35.43-2.67.87-4,1.34A11,11,0,0,0,954.1,688Z" transform="translate(-7.31 -54.68)"/><path d="M910.21,715.74a12.45,12.45,0,0,0,2.63,1.37l.69-.73c-1.84-.77-4.1-1.33-5.52-2.33l-.08,0-.32.39A12.92,12.92,0,0,1,910.21,715.74Z" transform="translate(-7.31 -54.68)"/><path d="M886.33,756.27c0,.24-.05.48-.08.73l.81-.12a2.4,2.4,0,0,1-.84.39l-.15,1.35c.27-.11.56-.21.81-.34a16.4,16.4,0,0,1,1.75-.73c.19-.57.38-1.15.58-1.72a15.34,15.34,0,0,1-2.62.33,12.93,12.93,0,0,1,2.85-1c.14-.38.28-.76.41-1.14a13.49,13.49,0,0,0-2.09.73,11.52,11.52,0,0,1-1.37.5C886.37,755.57,886.36,755.92,886.33,756.27Z" transform="translate(-7.31 -54.68)"/><path d="M898,736.68c-1.61,0-3.23,0-4.85-.14l-.93,1.85a4.7,4.7,0,0,1,.65,0,32,32,0,0,0,4.17-.06l.52-.92a13,13,0,0,1-4.39-.36c1.55,0,3.1-.07,4.65-.08Z" transform="translate(-7.31 -54.68)"/><path d="M892.39,747.68c.42-.95.85-1.89,1.3-2.83h0a26.65,26.65,0,0,1-4.73.69q-.57,1.31-1.11,2.61h.23A27.47,27.47,0,0,0,892.39,747.68Z" transform="translate(-7.31 -54.68)"/><path d="M891.89,748.84l.11-.24a29.9,29.9,0,0,1-4.31.41h-.22c-.11.29-.23.57-.34.86.53-.14,1-.28,1.57-.44A16.73,16.73,0,0,1,891.89,748.84Z" transform="translate(-7.31 -54.68)"/><path d="M895.71,740.82l-2.22-.18a4.31,4.31,0,0,1,2-.28H896l.18-.32c-1.55,0-3.1,0-4.67,0l-.78,1.66c.87,0,1.74.05,2.6,0a3.3,3.3,0,0,1-1.71.31l-1.06,0-.57,1.24,4.65-.27C895,742.26,895.33,741.54,895.71,740.82Z" transform="translate(-7.31 -54.68)"/><path d="M894.33,734.35l-.82,1.55q2.12.18,4.23.27l.58,0,.75-1.26c-.74-.07-1.48-.17-2.22-.28S895.17,734.42,894.33,734.35Z" transform="translate(-7.31 -54.68)"/><path d="M974.33,691.39c.67-.82,1.37-1.63,2.07-2.44l0-.23a2.68,2.68,0,0,1,.8-2.45,2.71,2.71,0,0,0,.65-2.41,2.55,2.55,0,0,1,.2-1.36l-2,.56a12.89,12.89,0,0,0-2,6A7.41,7.41,0,0,0,974.33,691.39Z" transform="translate(-7.31 -54.68)"/><path d="M979.55,684.39a2.4,2.4,0,0,1-.92,2c-.12.13-.24.27-.35.41,1.73-1.94,3.5-3.84,5.23-5.71v0c-1.25.3-2.49.62-3.71.94A3.65,3.65,0,0,0,979.55,684.39Z" transform="translate(-7.31 -54.68)"/><path d="M980.12,678c1.2-.38,2.41-.75,3.64-1.11a4.72,4.72,0,0,1,.79-1.33c.19-.24.37-.48.53-.72-1.26.17-2.51.36-3.74.55A11.85,11.85,0,0,1,980.12,678Z" transform="translate(-7.31 -54.68)"/><path d="M967,702.15a4.82,4.82,0,0,0-1.1,2.34C966.22,703.7,966.59,702.92,967,702.15Z" transform="translate(-7.31 -54.68)"/><path d="M964,710.35a3.59,3.59,0,0,0,.28-.44,23.92,23.92,0,0,1,.65-2.59,4,4,0,0,0-.32-1.1,4.35,4.35,0,0,1,.56-4.48,3.33,3.33,0,0,0,.31-3.13,3.8,3.8,0,0,1,1.26-4.55c.52-.44.54-1,1.31-1.51a1.51,1.51,0,0,1,0,1.68,4.79,4.79,0,0,0-.33,4.34,3.09,3.09,0,0,1,.13,2,56.66,56.66,0,0,1,3.77-5.7,9.3,9.3,0,0,0-.49-2.14,13.17,13.17,0,0,1-.56-8c-1.56.51-3.08,1-4.58,1.59a5.39,5.39,0,0,1-1.08,5.35,6.42,6.42,0,0,0-1.13,6.48c.76,2.11.16,4.09-1.3,6a5.45,5.45,0,0,0-1.31,2.32c0,.13,0,.28-.41.3s-.27-.28-.26-.42a4.2,4.2,0,0,1,.73-2.24,5.78,5.78,0,0,0,.48-6.15,6.52,6.52,0,0,1,.48-6.73,5,5,0,0,0,.77-3.74c-1,.4-2.06.81-3.06,1.23,0,.1-.06.21-.09.32a2.52,2.52,0,0,0,.33,2.2,2.88,2.88,0,0,1,.06,3,2.56,2.56,0,0,0,.08,2.59c.76,1.31,0,2.46-.68,3.74-.48-.39-.26-.65-.17-.89a3.08,3.08,0,0,0-.36-3.16,2.42,2.42,0,0,1-.2-2.54,3.11,3.11,0,0,0-.32-2.71,2.37,2.37,0,0,1-.1-2c-1.17.5-2.32,1-3.44,1.53.5,1.13,1.25,2.24,1.84,3.36a10.67,10.67,0,0,1,.51,9.8,13,13,0,0,0-1.58,6.21c0,.16.14.42-.34.42s-.53-.29-.57-.47A8.19,8.19,0,0,1,955,705c1.28-3.32.77-6.73-1-10.18a17.8,17.8,0,0,0-1.81-2.6l-1.75.9a2.76,2.76,0,0,0,.56,2c1.67,2.29,1.14,4.43.33,6.65a2.27,2.27,0,0,1-.25-2.18,3.92,3.92,0,0,0-.91-3.42,6.18,6.18,0,0,1-1.23-2.24l-.72.39a3.29,3.29,0,0,1,.34,2.47,3.2,3.2,0,0,0,.6,3c1.11,1.37,1.61,2.74,1.11,4.1a5.85,5.85,0,0,0-.16,1.37c-.61-.22-.57-.46-.53-.67.32-1.75-.5-3.48-2-5.21a2.69,2.69,0,0,1-.68-2.43,3.32,3.32,0,0,0-.21-1.78c-1.12.63-2.21,1.27-3.28,1.92a5.24,5.24,0,0,1,0,1,2.87,2.87,0,0,0,1,2.37c1.36,1.31,1.17,2.61,1,4a1,1,0,0,1-.47-1,4.29,4.29,0,0,0-1.68-3,3.46,3.46,0,0,1-1.18-2.5h0c-.81.51-1.61,1-2.39,1.54a3.83,3.83,0,0,1,.54,2.23c-.12,1.27.83,2.5,2,3.7a6.56,6.56,0,0,1,2.1,3.75,5.45,5.45,0,0,0,.18,2c-1-.69-.95-1.43-1.12-2.16a6.66,6.66,0,0,0-2.51-3.53,6.39,6.39,0,0,1-2.55-4.08,3.89,3.89,0,0,0-.21-.88c-.9.62-1.77,1.25-2.64,1.88v0a11,11,0,0,0,4.15,5c2.14,1.61,3.35,3.31,3.57,5.07.25,1.94,1.56,3.77,3.69,5.57,1.31-.72,2.67-1.42,4.06-2.11a10.25,10.25,0,0,1-1.62-4.77c.61.51,1.57,2.74,2.15,4.51.69-.33,1.4-.67,2.11-1a3.27,3.27,0,0,1-.5-2.6,2.74,2.74,0,0,0-.83-2.14c-1-1.39-.74-2.69.09-4,.77.32.69.67.62,1-.27,1.11.4,2.2,1.15,3.3a2.49,2.49,0,0,1,.28,2.37,2.21,2.21,0,0,0,.08,1.71c1.28-.57,2.58-1.13,3.92-1.66,0-.11,0-.23.07-.34.08-1.16-1.26-2.37-.57-3.5.21-.34,0-.73-.27-1.1a1.41,1.41,0,0,1,.73-2,17.8,17.8,0,0,1,.11,6.62,1.37,1.37,0,0,1-.07.34c1.77-.7,3.59-1.37,5.48-2A2.69,2.69,0,0,1,964,710.35Zm-19.19-4.8c2,2.34,2.56,4.71,3.33,7.08C947.1,710.26,944.73,707.93,944.76,705.55Zm8.51-8.65c1.1,2.29,1.1,4.54,1.17,6.79C953.93,701.43,952.48,699.12,953.27,696.9Z" transform="translate(-7.31 -54.68)"/><path d="M959.66,680.35c.11.26.23.51.36.77a3.18,3.18,0,0,1,0,3.2,4.84,4.84,0,0,0-.41,1.2l2.42-1a6.11,6.11,0,0,1,2-5.42C962.54,679.48,961.09,679.91,959.66,680.35Z" transform="translate(-7.31 -54.68)"/><path d="M965.85,679.77a6.1,6.1,0,0,0-.7,3.46c1.48-.59,3-1.16,4.51-1.72a.93.93,0,0,1,.14-.55,3.92,3.92,0,0,0,.51-3.48c-1.35.31-2.68.63-4,1A4.55,4.55,0,0,1,965.85,679.77Z" transform="translate(-7.31 -54.68)"/><path d="M993.56,674.16l2.14-.53-2.14.19A1.93,1.93,0,0,1,993.56,674.16Z" transform="translate(-7.31 -54.68)"/><path d="M949.24,686.47a4.43,4.43,0,0,1,.2.46c.37-.23.16-.47.12-.67a8.93,8.93,0,0,1-.15-2.24l-.52.22A4.4,4.4,0,0,0,949.24,686.47Z" transform="translate(-7.31 -54.68)"/><path d="M971.08,680.16c-.24.38-.53.74-.79,1.12.77-.29,1.54-.56,2.32-.84.3-.42.61-.84,1-1.26a8.69,8.69,0,0,0,1.59-2.75c-1.28.26-2.53.53-3.77.8A3.28,3.28,0,0,1,971.08,680.16Z" transform="translate(-7.31 -54.68)"/><path d="M929.46,700.86a34.84,34.84,0,0,0-4.12-3.36c-.62.47-1.24.94-1.85,1.42a11.37,11.37,0,0,0,1.37,1,6.79,6.79,0,0,1,2.63,3.59l-.31,0c-.27-.38-.58-.75-.81-1.13a7.55,7.55,0,0,0-2.81-2.56c-.26-.16-.48-.31-.7-.47-.6.47-1.19,1-1.78,1.44.13.17.23.34.37.51a4.12,4.12,0,0,1-.66-.26l-.25.22a5.57,5.57,0,0,1,.92,1.13,9.38,9.38,0,0,0,3.42,3.11l.35.23c1.64-1.3,3.33-2.59,5.07-3.84A8.86,8.86,0,0,0,929.46,700.86Z" transform="translate(-7.31 -54.68)"/><path d="M900.2,778.76l-.15.15a4.52,4.52,0,0,1,1.49-.74,4.06,4.06,0,0,1,1.24-.13c.16-.19.31-.39.45-.59a10.75,10.75,0,0,1,1.4-1.68c.07-.33.14-.67.22-1-.49.26-.92.55-1.38.83A12.88,12.88,0,0,0,900.2,778.76Z" transform="translate(-7.31 -54.68)"/><path d="M895.56,774.85a1,1,0,0,1,.25,0,2.32,2.32,0,0,1,2.07.64,8.38,8.38,0,0,1,.62.74,18.94,18.94,0,0,1,6.53-3.5l.31-.12c.18-.7.36-1.4.55-2.11-1,.29-1.94.63-3,.89.17-.54.84-.92,1.61-1.26.61-.28,1.21-.57,1.77-.86q.68-2.4,1.54-4.88a23.12,23.12,0,0,0-6.35,5.09,24.55,24.55,0,0,1-6.53,5.31C895.12,774.84,895.34,774.83,895.56,774.85Z" transform="translate(-7.31 -54.68)"/><path d="M918.09,711.91l.53-.48c-1.71-1.32-3.17-2.69-4.65-4.06q-.88.9-1.74,1.8c.28.25.56.5.8.76a23.53,23.53,0,0,0,3.82,3.16l.78-.75c-.87-.51-1.73-1-2.57-1.56-.28-.18-.53-.43-.34-.67A29.56,29.56,0,0,1,918.09,711.91Z" transform="translate(-7.31 -54.68)"/><path d="M919.31,709.22a3.65,3.65,0,0,1,1.13.58q2-1.8,4.21-3.54a22.32,22.32,0,0,1-5-4.16c-.79.69-1.57,1.38-2.33,2.09a11.7,11.7,0,0,1,2.38,2.29,8.68,8.68,0,0,0-2.79-1.91c-.61.56-1.21,1.13-1.79,1.71.58.58,1.14,1.18,1.64,1.79a26.4,26.4,0,0,0,2.61,2.72l.65-.6C919.78,709.9,919.29,709.62,919.31,709.22Z" transform="translate(-7.31 -54.68)"/><path d="M919.92,726.28a43.09,43.09,0,0,1-7.06-1.59c-.14.18-.28.35-.41.53a5.23,5.23,0,0,1,1,.46c-.41-.07-.78-.15-1.15-.24-.13.18-.26.35-.38.53a26.37,26.37,0,0,0,5.6,1.08c-.45-.39-1.35-.53-1.65-.88a98.27,98.27,0,0,1,14.35,3.76l.73-.66c-1.28-.51-2.53-1-4-1.46A49.65,49.65,0,0,0,919.92,726.28Z" transform="translate(-7.31 -54.68)"/><path d="M911.25,710.91l-.36-.31c-.33.36-.65.73-1,1.09a7.63,7.63,0,0,1,1,.64,7.93,7.93,0,0,0-1-.55l-1.61,1.86c2.15,1,4.38,2.05,5.4,2.65.69-.71,1.39-1.42,2.1-2.12A24,24,0,0,1,911.25,710.91Z" transform="translate(-7.31 -54.68)"/><path d="M899.93,762.73a11.4,11.4,0,0,0,4.58-2,11.35,11.35,0,0,1,4.62-2.07q.51-.12,1-.27c.11-.24.21-.49.32-.74l-.23.05a13.43,13.43,0,0,0-3.26,1,30.82,30.82,0,0,1-6.85,2.34,40.28,40.28,0,0,0-8,2.68c-.43,1.11-.85,2.22-1.27,3.33a14.8,14.8,0,0,0,3.84-2.16A13.91,13.91,0,0,1,899.93,762.73Z" transform="translate(-7.31 -54.68)"/><path d="M910.39,719.77a16.38,16.38,0,0,1-3.41-1.23,21.46,21.46,0,0,0-2-.85c-.6.79-1.19,1.58-1.76,2.37a41,41,0,0,1,5.45,1.68l.58-.68a6.14,6.14,0,0,1-2.37-1.22,22.44,22.44,0,0,1,2.78.76C909.9,720.32,910.14,720,910.39,719.77Z" transform="translate(-7.31 -54.68)"/><path d="M940.87,712.72c-.32-1.74-1.94-3.35-4-4.92a7.6,7.6,0,0,1-3.11-4.24l-1.13.87a4.56,4.56,0,0,0,1,2.26c.13.15.08.15-.21.6a7.6,7.6,0,0,1-1.54-2.14l0-.07q-1.44,1.15-2.82,2.34a39.22,39.22,0,0,1,6.18,6.08c-2.23-2-4.93-3.84-6.37-5.91-.43.36-.85.73-1.27,1.1l.13.3-.26-.18-1,.92a66.88,66.88,0,0,1,5,4.41c-1.7-1.36-3.8-2.63-5.49-4q-1.11,1-2.16,2.07c.38.21.78.42,1.2.62a6.86,6.86,0,0,1,2.75,2.11,6.11,6.11,0,0,0,2.54,2.09,10.6,10.6,0,0,1,4.82,4.11,7.15,7.15,0,0,1-1.72-1.42,10.87,10.87,0,0,0-3.1-2,10.4,10.4,0,0,1-3.44-2.3,12.67,12.67,0,0,0-3.59-2.47l-.17-.09-.49.5.06,0c.22.17.77.39.33.51a.85.85,0,0,1-.8-.14l-.37.38a12,12,0,0,1,2.15,1.57c-.83-.41-1.65-.83-2.45-1.26l-.75.8c.74.36,1.51.72,2.34,1.06a21,21,0,0,1,8.14,5.53,13.14,13.14,0,0,0,2.23,1.83c.28.2.77.38.56.73a11,11,0,0,1-2.72-1.6c-1.08-.84-2-1.72-3.1-2.55a26.73,26.73,0,0,0-6.66-3.47c-.56-.21-1.1-.42-1.63-.64-.8.87-1.58,1.76-2.35,2.65a12.76,12.76,0,0,1,2.88,2c-.71-.37-1.46-.72-2.14-1.1-.33-.18-.68-.35-1-.52-.47.55-.93,1.1-1.39,1.66a18.7,18.7,0,0,1,3.12,1.62,4.1,4.1,0,0,1-1.62-.54,16.64,16.64,0,0,0-1.76-.76l-.92,1.14a28.62,28.62,0,0,1,4.62,1.93,34.54,34.54,0,0,0-4.94-1.51c-.27.33-.53.67-.79,1a45.76,45.76,0,0,0,7.43,1.9,39,39,0,0,1,9.94,3l.46.2.76-.66c-2.93-1-5.62-2.07-6-2.49.82.17,3.68,1.11,6.45,2.08,1.71-1.45,3.51-2.86,5.43-4.22-1.16-.86-2-1.58-2-1.87a12.84,12.84,0,0,0,2.48,1.52c.8-.56,1.61-1.11,2.44-1.65a3.22,3.22,0,0,1-.76-.76,7.22,7.22,0,0,0-2.16-1.71c-.87-.55-1.28-1.13-1.19-1.81a38.75,38.75,0,0,1,4.73,3.87l.63-.41c0-.14-.06-.28-.08-.44a3.3,3.3,0,0,1,.35.28c1-.66,2.12-1.29,3.21-1.91-.4-.34-.82-.68-1.29-1A8,8,0,0,1,940.87,712.72Zm-21.37,5.57c1.68.34,10.68,4.53,11.45,5.33-1.78-1.12-4.88-1.61-6.46-2.83a7.3,7.3,0,0,0-1.67-.64A9,9,0,0,1,919.5,718.29Zm3.38,4.44a2,2,0,0,1-1.08-.85c2.53.7,11.47,4.44,11.91,4.92C930,725.58,926.43,724.15,922.88,722.73Zm13.53-3.05c-.87-1.32-3.54-2.14-4.47-3.4-.51-.69-2-1.18-2.67-1.87a2,2,0,0,1-.59-1.16c3.09,1.91,5.17,3.94,7.74,5.86C936.6,719.24,936.82,719.44,936.41,719.68Zm5.23-3.39c-1.71-1.59-3.06-3.31-4.65-5-.49-.53-.88-1.07-.7-1.62a12.78,12.78,0,0,1,3.12,3.32C939.58,714.17,942.21,715.16,941.64,716.29Z" transform="translate(-7.31 -54.68)"/><path d="M890.42,768.44a5.8,5.8,0,0,1,.11.85,12.45,12.45,0,0,1,4.51-2c1.06-.28,2-.61,3.33-1a2.76,2.76,0,0,1-1.57.9,12.78,12.78,0,0,0-5.74,3,5.89,5.89,0,0,1-.53.44c0,.85-.15,1.71-.14,2.49,0,.31,0,.62.05.93a25.72,25.72,0,0,0,7.38-5c2.56-2.63,6.28-4.82,10.76-6.75l.13-.36-2.31.57c-.2-.35.23-.47.58-.61a21.88,21.88,0,0,0,2.11-.94q.39-1,.81-2a11.29,11.29,0,0,0-4.17,2.1,12.37,12.37,0,0,1-5.07,2.47,12.58,12.58,0,0,0-4.93,2.54,11.36,11.36,0,0,1-4,1.67l-1.2.27-.15.42Z" transform="translate(-7.31 -54.68)"/><path d="M994.71,677.35S971.36,692.88,969.78,712c0,0-50.1,9.53-62,69,.39.44.76.88,1.09,1.29a41.67,41.67,0,0,1,2.55,3.64c.62,1,1.15,2.1,1.79,3.11.86-19.56,9.2-61,62.57-76.12C975.73,712.94,971.77,700.08,994.71,677.35Z" transform="translate(-7.31 -54.68)"/></svg>