<svg id="drilltail" xmlns="http://www.w3.org/2000/svg" viewBox="0 0 914.31 978.62"><path d="M872.43,788c-.74-1.12-1.55-3.74-2.72-3.83s-2.53.93-3.83,1.36c-2.82,1.39-6.29,2-9.5,3-.84.24-1.85,3.7-1.85,4.57,0,21.94-4.28,44-10.74,64.37v0a2,2,0,0,0,3.12,2C863.83,845,883,807.39,872.43,788Z" transform="translate(-42.85 -10.69)"/><path d="M952.84,695.86a10.6,10.6,0,0,0-1.13-1.09c-22.17-19.17-57.25-93.95-68.23-87.87-6.69,3.71-9.47,6.39-14.76,14.9-2.42,3.9,1.71,11.68,5,14.88,20.73,20.22,48.69,35.3,58.7,63.58.63,1.78.71,6.37,4.56,7.77,2.91,1.05,4.79-2.26,9.52-2.92,6.51-.91,9.43.35,9.46-2.44C956,700.85,955.31,698.67,952.84,695.86Z" transform="translate(-42.85 -10.69)"/><path d="M862.29,752.15c-4.39-13.37-13.4-24.33-15.82-38.65-2.64-12.27-9.78-22.15-16.76-32.2-5.23-3.16-8.48-11.32-15.27-11-6.74,2-15.86,5.37-18.79,12.2-1.23,8,2.29,17.11,5.76,24,7.31,11.79,20.76,18.21,27.67,30.39,11.68,12,9.59,31.26,20.42,43.2,0,0,2.36,4.06,2.36,4.1,3.31,2,11.46-2.3,15.73-3S866.44,760.59,862.29,752.15Z" transform="translate(-42.85 -10.69)"/><path d="M645.14,753.8c-4-14.17-12.53-27.64-16.73-42-1.15-3.92-2.22-8.08-3.32-12-3.65-4.61-5-9-9.55-13-5.4-4.75-13.57-7.35-20.64-7.5-6.44,2.3-20.46,12.81-21.7,34.43,1.82,8.53,6.39,16.47,13.61,23.4,7.65,7.34,15.49,11.75,19.75,23.1,1.51,4-7.72,16.24-9.29,20.76-.56,1.63-11.92,15.31-7.74,16.48,10.3,2.89,24.63-12.24,36.47-8.15C644.7,804,647.3,761.52,645.14,753.8Z" transform="translate(-42.85 -10.69)"/><path d="M638.94,813.16c-1.92-9.09-11.06-23-21.2-19.66-11.34,3.7-15.76,9-29.07,9.24-4.16.06-3.79,17.12-3,20.93-.31,35.42-.79,54.07-23.13,82.48-2.31-.51-2.33-2.88-3.32-4.58-4.73-8.15-11.34-16.13-20.07-19.22-28.31-10-55.62-4-83.32,4.12a21.13,21.13,0,0,0-3.53,1.53c-.19.1.06,0-.05,0s.08-.06-.14.06c-20.6,12.23-40,27.61-57.95,43-4.36,3.73,1-1.07-2,1.62-9.64,8.8-21.46,16.7-32.84,23.54C334.24,970.38,311.38,973,283,968c-1.6-.29-4.12-2-4.71.76,47.05,33,95.83,17.08,147.91,14.31,48.38-2.33,89.23,11.58,125.17-31.8.47-.57,1.15-2.15,1.32-2.24,3.66-1.81,8.62-19.16,8.87-19.29,5.79-2.93,2.69,12.51,3,15.21,11.4,2.06,21.39-1.11,30.19-8.57C629.13,904.14,646,860.05,638.94,813.16Z" transform="translate(-42.85 -10.69)"/><path d="M432.14,887.28c-33.44-23-72.1-27.16-110.41-14.13-2.5.85-5,1.65-4.68,4.64,5.21,5,15.67,1.36,21.41,2.18,21.43,3.07,36.47,13.6,51.17,28.46,3.33,3.37,5.88,7.24,10.58,9,4.82-2.19,12.13-10.81,15.31-13.34C418.93,901.4,434.85,889.15,432.14,887.28Z" transform="translate(-42.85 -10.69)"/><path d="M921.46,801c8.74-27,17.57-51.1,16.35-84-.12-3.18,4.25-5.9,7.23-6.92,2.79-1,7.5-1.63,8.87-.07,6.22,7.09,2.21,41.16-1.33,47.35C948.71,768.2,932.36,796.46,921.46,801Z" transform="translate(-42.85 -10.69)"/><path d="M729.25,891c-2.41,19.29-16,29.44-28.59,39.67-1.48,1.21-3.88,2.68-5.46.71-1.43-1.78,1-3.1,2-4.48,8-11.59,11.29-26.15,15.42-39.37.72-2.32.45-6.59,2.12-8.25.5-.5,3,2.66,7.36,2.76s8.91-.83,9.38-.05C732.59,883.86,729.82,889.08,729.25,891Z" transform="translate(-42.85 -10.69)"/><path d="M735.11,871.41c4.61-33,24.84-91.56,25.56-97.41,1.2-9.61.64-22.52-3.69-31.62-1.46-3.07-7-3-10.14-1.7l-1.76.36a6.51,6.51,0,0,1-1.29.36c-2.34.38-4.82.47-6.94,1.55-4.81,2.42-14.24,30.86-12.79,38.37a6.68,6.68,0,0,1,.13,1.48c-.91,28.82,1.67,58.36-8.4,86.08-.07.19-.15.38-.23.56-3.24,7.06,2.45,7.91,8.3,8.35,5.35.4,10.77,1,11.2-5.85C735.07,871.76,735.09,871.58,735.11,871.41Z" transform="translate(-42.85 -10.69)"/><path d="M490.31,398.8c-1.26-1.43-3.07-.54-4.85,0-22.38,7.36-44,2.84-67.09,2.27-3.24-1.25-18.1,9.22-14.75,10.94,6.87,3.52,9.18,2.85,15.77,7.23,13.25-1.17,56.34,7.2,64.13-3a56.45,56.45,0,0,1,5.53-12.76C489.92,402,491.8,400.48,490.31,398.8Z" transform="translate(-42.85 -10.69)"/><path d="M498.11,371.84c-5.22-9-8.88,2.2-12.2,8.19-1.08,2-3,9.28-3.45,12.29-2.64,6.06,2.25,2.55,7.84,1.76,3.57-4.33,7.21-7.12,10.4-11.74A16.93,16.93,0,0,1,498.11,371.84Z" transform="translate(-42.85 -10.69)"/><path d="M551.21,353.34c3.89-4.85,4.77-8.56,4.9-14.13,0-2.46,1.69-8.73-1.74-8.69-7,.09-9,9.81-11,15.2-1.23,3.5-.51,9.91.92,9.64C546.41,355,550.69,354,551.21,353.34Z" transform="translate(-42.85 -10.69)"/><path d="M634.37,326.22c-7.52-3.23-17.49.09-25.45,1.38-8.27.93-16.38,1.42-24.61,1.94-16.85-1.73-27.6-6.29-24.95,15.54,14.15-2.46,27.44,1.77,41.55,2.59,12.31-.51,26.64,2.63,34-9.49C636.07,334.28,640.21,328.72,634.37,326.22Z" transform="translate(-42.85 -10.69)"/><path d="M639.39,326.73c1.28,5.6-2.61,15.83-7.4,17.9s-6.16,14-6.27,14.62c-4.64,26.06.25,49.9,4.39,74,0,.23,6.88-2.18,17.92-4.07a77.74,77.74,0,0,1,16.66-.46c.93.07-11.62-22-12.26-27.55-2.75-23.72.52-36.69,4-58.92C658.42,329.63,650.1,327.66,639.39,326.73Z" transform="translate(-42.85 -10.69)"/><path d="M576.12,355.88c-10-3.8-18.43-.94-28.35,1.33-6.95,1.4-13.17,4.45-20.22,5.75-2.62.48-5.34.33-8.19.59-6.9.62-13.12.68-18.75,5.43,0,3.73-2.12,8.17,1.16,11.18,3.9,3.57,9.26,2.61,14.1,1.06,6.87-2.2,14.55-3.47,21.63-4.74a35.06,35.06,0,0,1,8-.77c5.13.36,13.58.55,17.64,1.4,4.73,1,11.9-1,13.48-3C582.57,366.75,579.49,362.63,576.12,355.88Z" transform="translate(-42.85 -10.69)"/><path d="M581.44,356.15a16.45,16.45,0,0,1,.8,2.46c1,7.3.54,13.14-4.87,18.61-2.07,2.1-5.09,2.37-7.82,3.13,1.18,4.38-.45,8.12-1.23,12.33-1.3,7.07-2.31,12.05-3.35,19.55-1.41,10.23-1.75,15.56-.4,27.79.92,8.36.62,20.87,1.69,33.55a67.8,67.8,0,0,1,15.11-14.63c4.42-3.05,11-9.59,16.1-12-9.85-24.49-9.07-51.77-1.15-76.5C594.81,361.39,590,358.22,581.44,356.15Z" transform="translate(-42.85 -10.69)"/><path d="M492.44,511.93c16.82-13.32,35.67-18.82,35.74-18.93-9.45-28.1-21.45-53.66-14.89-83,1.47-6.58-1.81-7.2-3.93-12.29-30.83-1.17-28.45,49.46-25.45,69.11C487,483.18,490.5,495.39,492.44,511.93Z" transform="translate(-42.85 -10.69)"/><path d="M246.43,542.76c-9.23-11.52-25-10-36.35-7-18.1,4.67-34.93,8.63-50.12,18.81C78.23,607.84,17.74,696.81,53.21,787.44c.67,1.76,1.38,4.63,4,4.91,2.89.31,2.3-2.55,2.47-4.22,2.63-43.7,23.36-84.93,61-115.79,2.61-2.14,6.23-6.19,11.33-2.47-5.56,21.88-11.93,42.53-21,60.87-.6,1.21-2.36,2.39-.51,3.85,2.16,1.69,3.32,0,4.66-1.07,12.24-5.43,68.59-53.84,50.84-77.43-2.09-2.78-7.38-6.86-12.77-5.49,0,0,12.92.33,16.87,1.9,21.08,8.35,80.44-26.71,89-68.38.39-1.84,1.88-5.79,2.1-7.71.46-3.88-3.5-11.22-9.11-20.33C248.42,550.2,247,543.52,246.43,542.76Z" transform="translate(-42.85 -10.69)"/><path d="M364.88,566.59c.29-.92,16.82-11.21,23.83-12.61,4.18-.84-.7-28.74-6.31-36.45-2.39-5.89-30.28-4.18-35.69-5.64-35.74-9.65-46.38-1.8-67.17,10.37-8.68,5.09-21.08,10.56-26.25,19.37-4.27,7.24,4.91,17.15,7.44,23.62,4.15,5.73,7.85,7.17,13.28,4.11C295.82,557,318.48,552,334.3,552.67,344.46,553.13,359,569,364.88,566.59Z" transform="translate(-42.85 -10.69)"/><path d="M417.17,422.06c-.87-2.3-3-3.43-6.68-4.21-4.43-1-6.16-3.63-8.25-2.12-1.77,1.27-3.5,11.93-7.67,42.5-.24,1.76,2.36.21,5.18-3.07C408.27,445.25,416.79,426.77,417.17,422.06Z" transform="translate(-42.85 -10.69)"/><path d="M475.12,654.87c-39.49,4.23-41.53,30-41.53,30C480,683.84,475.12,654.87,475.12,654.87Zm-12.25,20.6c-8.15,5.23-11.46,3.9-21.44,4.37,5.76-16.33,13.6-18.52,29.07-20.28C468.49,668.27,468.48,671.88,462.87,675.47Z" transform="translate(-42.85 -10.69)"/><path d="M363.58,601.61a50.28,50.28,0,0,0-6.24,11.12l.14.06c2-.91,1.11-.42,3.28-3.83-1.16,7.58-.1,5.56-5.12,17.14.1-3.9-.4-2.41-1.07-4.56l-.22-.06-.05,0a77.79,77.79,0,0,0-2.73,17.08S366.36,618.52,363.58,601.61Z" transform="translate(-42.85 -10.69)"/><path d="M576.29,591c-8.49-55.38-78.13-19.6-80-18.56,2.7-3.95,4.81-4.75,5.65-6.08-7.48-8.21-14.15-18-24.11-23.32-8-11.67-3.51-19.79-13.77-30.34-11.32-14.49-24.37-19.9-41.59-24.17-12.26-6.69-26.66-12.84-39-18.56-5.59-2.62-8.79-13.6-15.31-9.64-4.32,6.81,4.66,15,4.72,20,7.22,17.37,29.71,62.32,20.79,78.39-23.46,9.12-30.89,17-38.27,40-4.19,10.22-10.9,18.7-14.32,28.88-1,2.93-4.49,15.44-5.28,18.31-2,8.78,3.43,22.19.21,28.3-2.4,4.89-27.34,33-27.37,33a.41.41,0,0,1,0,.11c-6.3,7.32-13.23,14.52-17,23.55h0c-1.25,3.32-1,5.52-1.19,8.26-.08,1.09-.69,5.58-.86,6.6A23.55,23.55,0,0,0,296,766.38c3.24,3.3,6.56,6.51,10,9.58a59.31,59.31,0,0,0,8.81,7c3.45,2,6.51,2.54,10,3.88,3.64,1.41,8.49,1.11,12.74-.09,25.54-3,40.74-20.15,68.06-34.4,15-7.28,30.56-12.83,39.19-28.29,28.76.16,67.44-7,75.22-39.78a92.74,92.74,0,0,0,7.08-10.41c2.69-5.07,4.24-10.65,9.89-13.37,4.27-2.3,9.2-11.73,13.19-15.81,8.86-13.65,22.84-29.26,22.76-43.43C572.82,599,577.7,594.94,576.29,591ZM297.94,745.48s12.76-3.66,13.24,11.23C311.18,756.71,297.27,760.09,297.94,745.48Zm21.87,18.4s12.76-3.66,13.24,11.23C333.05,775.11,319.14,778.49,319.81,763.88ZM373.1,590.65l2.4-.39c-2.46,4.14-6.55,21.33-8.39,22.86a9.5,9.5,0,0,0,2.53-1.16c.07,16.25-15.14,34.3-23.77,40.67,0,0,5.15-10.35.28-21-.59-1.32-1.6-5.2-1.42-5.7,2.76-7.36,7.84-12.57,11.07-20.08,8.74-26.16,14.74-33.87,32.44-31.45C381.28,578.7,375.19,587.38,373.1,590.65Zm13.72-105.31s33,19.94,39.78,21c19,3.08,8,23.16,19.95,40.73,0,0-15.74-4.12-36.49,3.45C410.06,550.56,408.79,531.42,386.82,485.34Zm112.72,183c-4.69,11.12-11.45,16.05-19.77,18.11-19.12,4.17-41.64-7.32-53.78,14.86-4.55-16.89,7.84-45.6,24-55.91.81,2.13-1.18,3.12-1,5.41,12.54-6.47,25.86-10,37.08-20.23,1.43,3-1.12,4.7,0,7.92,8.16-4.19,13.34-12.47,18.07-21.82-.78,21.31-4.56,40.9-15.76,57.59C493.85,673.92,494.42,670.1,499.54,668.29Zm58.15-69.58c3.26,15.25-33.08,42.47-32.82,43.08,9.48-38.5-11.47-59.88-11.47-59.88,22.32-12.11,52.78-8.68,50.85,10.05C564.55,593.25,557.72,597.36,557.69,598.71Z" transform="translate(-42.85 -10.69)"/><path d="M885.12,602.59c-2.06-7.35-33.43-3.16-45.31-6.08-24.26-6-64-2.62-71.88-.08-5,1.61-6,13.26-6.06,16.71,0,4.11,21.93,11.57,23.94,11.71,24.08,1.64,57.93-13.1,66.26-8.47,3.08,1.71,11.08,7.86,13.36,3.68C870.27,611.19,880.3,602.6,885.12,602.59Z" transform="translate(-42.85 -10.69)"/><path d="M811.78,661.81c-9.81-7.27-24-5.25-35.17-7.89-2,.69-22.55-5.8-30.49-9.71-8.16-6.66-15.67-11.88-23.56-15.7-6.79-2.58-14.24-3.08-21.07-5.61-4-2.31-6.84-.57-9.72,2.35-9.12,4.58-14.22,19.68-2.78,24.44,26.83,10.54,58.42,14,86.61,20.48,5.48,1,11.44,9.34,17.33,9.29,4.4,0,9.29-9.52,20.11-10.23C815.58,669.07,814.65,664.57,811.78,661.81Z" transform="translate(-42.85 -10.69)"/><path d="M729.73,733.76c2.2,2.68,6,3.13,9.39,2.36.54-.12,9.62-1.42,10.16-1.55,7-1.71,8.65-3.33,6.09-12.82-.47-1.74-5.73-8.39-7.22-9.39-26.52-17.9-53-29.34-80.81-46.2-18.72-12-40.18-14.58-46,11.29a7.75,7.75,0,0,1-.48,1.43c-3.12,7,7.62,12,12.61,15.37.21.14.42.27.65.4,22.48,12.4,47.07,18,72,22.92,8.74,1.72,19,2.94,22.28,13.81A7,7,0,0,0,729.73,733.76Z" transform="translate(-42.85 -10.69)"/><path d="M668.52,134.73c-5.4,8.17-7.62,6.58-16.14,3.85-35.13-23.08-44.86-54.45-38.9-94.8,1.85-5.5,4.8-10.16,11.22-7.92-36.53-56.84-37.93,41.7-28.29,65C606.47,125.16,673.8,210.75,668.52,134.73Z" transform="translate(-42.85 -10.69)"/><path d="M591.43,26c-20,50.42,9.53,124.11,62.1,142.07l-26.82,11.28c-48.48-37.13-67.62-79-62.47-139.79Z" transform="translate(-42.85 -10.69)"/><path d="M635.44,177.89c-3.11.82-6.42,3.35-9.34,5.27-49.19-35.16-72.47-84.52-65.55-145,5.54-3.44,10.85-6.23,16.53-10.1-12.64-7.89-26.33-22.64-43.76-15.5-55.75,22.83,38.16,224,91.59,203.36C641.14,209.69,641.83,193.38,635.44,177.89Z" transform="translate(-42.85 -10.69)"/><path d="M899.25,298.27c-3-2.46-15.52-3.13-15-6.16.19-1.09,15.87-1.43,19.62-7.27C910.16,275,918.3,209,899.64,193c-4.9-4.2-7.14-8.28-19.89-3.37-4,1.54,9.42-8.15,12.92-15.47,9.71-20.3,13.11-41.92,6.27-61.76-5.07-14.71-30.13-39.95-47-40.65-4.41-.18-5.78-10.79-6.31-13.32-3-14-29.59-37.23-47.66-40.65-25.93-4.9-50.46-7-71.86,14.4-20.76-15.58-75.94-3-98,6.74-1,.44-4.17-.88-6.38-.35-1.51.36-5.61,3.69-5.89,6.11-3.34,34.06,5.47,66.1,33.64,87.86,2.79,2.15,8.56,5.84,13.2,4.53,4.11-1.15,2.62-5.9,3.62-6.46,15.15-8.46,25.72-17.17,37.55-29,3.66,19.38,62.72,25,79.66,25.89-12.81,4-12.88,21-11.67,32.93,1.09,10.74,7.18,18.69,11.08,26,6,11.12,13.29,6.88,18.26,8.25,6,1.67-10.82,2.61-12.33,5.41-9.76,22.55-9.09,51,.7,75,2.23,5.48,17.87,7.19,24.27,9-11.63-1.63-27.9-1.34-34.18,10.13-13.6,24.86-19.61,56.35-16.06,84.1,5.84,1.89,12.49,3.42,17.71,6.06a31.52,31.52,0,0,1,13.41,12.48c-4.3-7.23-28.17-12.18-35.29-13.83-24.79-5.76-53.82,42.19-53.56,42.55,11.19,15.24,27.63,10,42.35,35.24-24.53-18.22-33.28-20.58-60.19-26.36-16.13-3.46-49.15.43-56.86,3.23-11.85,4.31-19.85,13.19-21.73,14-2.51,1.12-19.42,6.41-26.63,11.21C563.93,475.48,556.33,489,552,493c-4.68,2.25-13.27,1.29-18.92,3.51-15,5.9-26.24,10.92-36.06,17.61-2.52,1.71-4.95,3.54-7.32,5.51A113.4,113.4,0,0,0,476.32,533c6.24,3.83,19.09,15.89,23.28,21.77,3.3,4.63,5.23,5.64,10.57,4.14a41.58,41.58,0,0,0,9.1-2.73c26.69-11.72,63.35,3.12,65.14,34.56-3.24,23.85-18,42.13-30.95,61.77-2.48,4.07-9.85,13.61-12.84,15.33-5.91,3.4-5.42,5-8.21,9.61,1.53-.12,7.65,5,11.89,6.24,7,2.1,11.92,17.89,13.32,21.73,1.75,4.78,9.46,6.93,9.81,7,1.16-13.54,10.4-31.41,23.33-36.68,9.44-1.27,17.66,1.26,25.51,5.08,1.5-13.21,7.08-26.35,22-28.26,10.66-1.37,20.65,3.08,29.85,8,5.07,2.68,10,5.3,15.36,7.48,1.86.76,3.71,1.51,5.53,2.32a107.45,107.45,0,0,0,14.44-9c-11.46-4.48-20.76-4.86-25.35-17.74-1.65-9.05,4.21-17.38,11.83-21.64,2.53-2,4.68-5.15,8.2-5.26,5,.48,9.46,3.28,14.4,4.2,4.87,1.21,9.75,2.38,14.12,4.82,8.31,3.82,15.38,9.49,22.61,14.93,8.62-4.19,16.72-8.79,23-15.06a65.42,65.42,0,0,1-13.46-9.81c-2.1-2.1-.73-14.31,3.5-18.92,5.4-5.87,4.86-4.62,16.12-6.31,14-2.1,27.6-1.86,32.94-2.8.89-.16,9.82-47.66,1.46-67.89-.81-2,1.54-3.94,3.64-4.28,7.39-1.18,23.38-3.54,24.89-4.71,5.81-4.48,5.75-2.85,12.62-9.42,14-13.41,29.84-41.47,19.38-62.26C908.43,420.74,925,327.38,899.25,298.27Z" transform="translate(-42.85 -10.69)"/><path d="M557.54,146.72a129.18,129.18,0,0,1-7-14.21c-34.23,12.93-70.81,21.25-104.41,41.3,15.4,16.94,15.31,16.73,32.43,8.6A66.28,66.28,0,0,1,496,177c14.49-2.38,29.1-4,43.66-6,10.35-1.42,20.69-2.93,31-4.41A194.26,194.26,0,0,1,557.54,146.72Z" transform="translate(-42.85 -10.69)"/><path d="M614.7,211.81c-8-2.55-14.84-7.68-21.23-13a51.51,51.51,0,0,1-5.35-5.18,38.51,38.51,0,0,1-10.89.07c-26.5-2.57-53-5.08-79.53-7.36-12.57-1.08-19.06,3.15-24.59,14.85a13.28,13.28,0,0,1-1.69,2.53c-16.72-12-31.74-27.07-50.16-37.11,1.21,2,3.85,13,5.53,15.88-8.44,5-17.28,6.65-26.59,11.44l14.49,14.43c4.32.94,8.05-.62,11.57-2.33,1.75-.67,5.91-.13,7.5-1,3.37-1.52,6.75-2,10.68,1.06-6,6.5-14.7,11.07-21.15,17.28l-45.67-41c-.46.44,2.57,15.52,3.84,18.16l-25.61,13.11,15.69,15.67c22.14-6.92,22.14-6.92,25.94-3.89L377.7,243.26l-44.92-40.45c-.5.42,4.12,16.36,4.54,17.17l-7.12,4-21.29,10.68L326,250.74c4.82-2.14,9-4.14,13.29-5.89,10.46-3.5,11.1-3,13.72-.23l-19.41,18.47-44.28-40c-.6.59-.41,17.19-.41,17.19a17.9,17.9,0,0,1-4.35,3.59l.06.12-18,9.4,18,15c3.06-1.15,18.43-4.6,19.65-3.69l-16.84,13.95-41.38-30.37c.54,5.47.86,8.67,1.1,11.18l-21,13c6.26,5.26,11.2,9,15.6,13.37,1.32,1.3,1.14,4.2,2.28,9.14l-25.91-18.45-32.37,15.8c.24-.38.51-.73.72-1.13.69-1.27,1.37-2.55,2.05-3.82,3.49-4.45,3.37-11.37,6.83-16.23l5.91.85a20.06,20.06,0,0,0,3.26.67.61.61,0,0,1,.07.1l.05-.09c.17,0,.34.06.51.07a18.55,18.55,0,0,0,5.27-.42c10.12-1.38,16.89-8.76,22.93-16.95,2.76-3.74,4-8.7,6-13.48l12.33,3.81c17-4,25-15.48,29.07-30,18.44,6.36,33.45-1.13,43.93-24.06,29.59,6.86,34.16,1.48,45.23-20,28.45,6.56,33.9,5.61,44.44-17.66,15.16,3.39,23.9,4.11,31.55-3.17a100,100,0,0,1,9.6-4.81c8.82-3.6,14.65-9.74,19-18.48,11.64-23.36,24.05-46.31,36.07-69.47C513.73,52,517,46.14,524.34,44.43a38.4,38.4,0,0,1,3-16.91,13.12,13.12,0,0,1,3.73-5L527.87,16l-17.81,9.2c-12.6,27.17-25.76,54.09-37.56,81.61-6.38,14.9-14.7,25.88-30,32.55-3,1.3-19.35,5.93-23.26,4-4.4-2.17-8.77-4.52-13.84-7.17,6,16.76-7.1,27.44-21.45,28.63-.53.27-1.07.53-1.57.81l-1.28-.74a21.89,21.89,0,0,1-18.44-10.81l-2.25-1.32c0,.1,0,.19-.07.29,3.11,11.24-1.93,20.76-9.87,26.21a15.39,15.39,0,0,1-11.18,4.57c-8.64,1.47-17.77-1.35-23.36-10.2-.88-.49-1.8-1-2.8-1.59,0,.24,0,.45,0,.69.32.62.64,1.24.92,1.92,11.6,27.4-25.67,46.51-41.62,26.4l-1.54-.77,0,.29a28.31,28.31,0,0,1,1.73,3.39c6,14.27-1.17,26.28-11.72,31.69a27.52,27.52,0,0,1-13.46,3.78l-.36.12-.19-.1a21.8,21.8,0,0,1-15.68-6.66c-.36,1-.73,1.93-1.08,2.85,3.13,11.6-2.39,21.34-10.79,26.66l-.58.58a2.25,2.25,0,0,0-.55.15c-3.5,1.77-7.17,3.71-11.14,3.93a12,12,0,0,1-3.38-.35,22.26,22.26,0,0,1-10.36-3,10.45,10.45,0,0,0-2.09-.14c-.49-.06-1-.14-1.5-.17l-.17.67c-1.39.89-2.21,2.78-2.81,4.29a18.25,18.25,0,0,0-1,4,2.44,2.44,0,0,0-.1.24,16.55,16.55,0,0,0-.57,2.41,27.87,27.87,0,0,1-.87,3.85,35.81,35.81,0,0,1-2.15,5c-.22.82-.4,1.66-.66,2.45-.34,1-2.7,5.49-3.09,6.17l-.27.51-2.41,4.47a38.39,38.39,0,0,1-2.87,3.9l-1,1.22c4.76-.3,9.53-.54,14.37-.57,2.73,0,5.46.05,8.19,0s1.14,0,2.63-.07c1.83-.07,3.61-.26,5.46-.27h.36q8.28-1.63,16.6-3.13c3.21-.57,7.12,1.36,10.34,2.91,4.92,2.37,13.17,5.55,18.84,8.86,0-.09,5.88-37.55,43.75-13.11.53.35.44,1.18.64,1.77.59.34,1.16.68,1.75,1a8.44,8.44,0,0,1,2.18-3.09c.19-.71.43-1.4.69-2.09,4.79-20.14,36.69-28.86,46.94-4.63.31.72.55,1.43.79,2.15.14-.55.27-1,.41-1.54-2.22-10.14,2.19-18.75,9.2-24.05a17,17,0,0,1,1.71-1.69,20.75,20.75,0,0,1,8.1-3.1c6.88-1.82,14.34-1,20.24,3.53a22.38,22.38,0,0,1,6.14,6.07l.37.17c0-.13.07-.26.11-.39a22.86,22.86,0,0,1,6.06-21.47,18.61,18.61,0,0,1,8.65-7.18,19.29,19.29,0,0,1,9.5-1.29l.3.08a22,22,0,0,1,20.35,10.73c.11-.42.21-.78.31-1.19-2.08-9.69,6.08-17.17,12.25-22.88,2.45-3.35,6-4.95,12.16-7.1a19.79,19.79,0,0,1,2.17.06,22.06,22.06,0,0,1,22.07,8.82l.94.47c.73-4.52,1.33-8.29,1.91-11.89v0l0-.11c.16-1,.31-2,.47-3l.06-.37a23.8,23.8,0,0,1,2.13-6.76c-.13-.18,6-7.18,17.41-5,28,5.27,56.12,10.24,84,16.35,12.39,2.71,23.4,2.45,33.57-5.73l-1.17-2.36A14.72,14.72,0,0,1,614.7,211.81Z" transform="translate(-42.85 -10.69)"/></svg>