<svg id="Dromeus" xmlns="http://www.w3.org/2000/svg" viewBox="0 0 988.66 983.97"><path d="M297.53,628.38c-.22-.56-14.45-34.42-29.92-46-2.88-2.15-4.12-6.06-6.68-8.64a30.12,30.12,0,0,0-5.62-4.32c-10.67,8-22.05,14.35-27.89,24.29-9.91,16.85-14.25,37.2-22,55.61-7.36,17.57-14.41,35.7-24.64,51.41-7.13,10.94-19.14,18.54-29.44,27a46,46,0,0,0-14.94,48.79c8.43,28.4-24.51,72.19-26.49,84.07-1.9,11.3-7,18.6-15.69,25.12-9.24,6.91-11,26-4.22,35.27,2.37-4.41,4.6-8.58,6.83-12.75,2.19,14.25,1.79,27.64,1.62,41-.14,10.74,2.08,21.83,12.9,24.44,6.44,1.56,14.28-3.28,23-5.64,1.14,1.46,3.76,5.87,7.33,9.13,9.68,8.82,14.49,18.39,32.22,16.75,6.23-.58,54.37,1.22,58.6-.23,8.3-2.85,9-27.31,1.86-40.13l21.07,13.53c.23-3.5,1-5.6.37-7.08-5.88-14.08-15.27-25.27-29-30.33-4.55-1.68-12.68,1.08-16.54,4.81-12.35,11.93-24.4,9.25-29.36-7.66-3.6-12.27-8.81-24.22-10.86-36.75-2.35-14.29-4.59-29.56-2.13-43.48,2.92-16.53,10.72-32.15,16.83-48,1.15-3,4.13-7.16,6.48-7.33,17.23-1.24,17.59-15.21,19.48-27.66,2.79-18.31,4.22-36,21.06-48.73,22.62-17.14,43.21-37.24,64.9-55.78a8.62,8.62,0,0,1,2.35-1.37c.27-2.08.85-4.06,1.19-6.14a40,40,0,0,0,.06-8.54A46.32,46.32,0,0,0,297.53,628.38Z" transform="translate(-5.65 -10.34)" style="fill-rule:evenodd"/><path d="M459.89,68.58c2.52-7.25,3-16.48,2.08-17.3-9.94,10.07-16.25,13.49-25.66,23-11.48-1.3-63,6-88,10,0,0,2.33-4.66,3.14-6.09,6.05-10.74,65.61-20.29,72.13-33.35,17.34-34.75,67.65-35.23,78.51-34.32q-4.21,6.48-7.36,11.36c15.09-.17,30.51-2.07,45.45,0s29.26,8,44.31,15.9l-34.14,3.44C568.7,58.5,598.48,62.74,620,51.13c-12.66,39.58-54,53.49-110.63,37.2,6.79,16.55,20.58,22.83,43.22,19.67-8.75,15.68-52.22,45-92.57,30.69-18.23-6.46,23.64,18.25,23.64,18.25-50.21,4.54-59.38-14.89-74-15.54-28.09-1.23-43.78-14.84-49.32-19.09-4.62-3.55,79.3-14.09,86-18,13.56,1.39,32.17,5,44.7-1.75-11.95-12.12-16.51-8.89-21.74-17.8,10.05-14.06,22.57-20.67,34-21.88C477.22,49.78,477.58,53.78,459.89,68.58Z" transform="translate(-5.65 -10.34)"/><path d="M994.29,135.26c-8-92.92-84.12-44.93-137.83-52-15.82-.63-34.39-20.2-53.84-19.65-7.72.09-14.5,2.42-19.69,8.46-3.74,4.34-9.71,11.63-4.35,17,12.4,16.21,88,16.8,81.44,17.32-30.42,2.33-70.73-.11-88.13-14.76-13.73-11.56-24.57-47.95-70.32,4-7.31,8.31-41.05,88.65-78.26,120.1-29.94,25.3-89.31,79.44-99.79,82.62-19.21,5.84-23.19-14.31-67.63-16.48-41.31-2-76.6,5-94.69-2.1C369,296,372.45,324.38,358,287.66c-21-60.19-77.49-46-116.66-15-58.3,38.53-69.78,64.62-80,88.41-2.38,5.55,4.14-23.85,22.74-49.88-31.94,9.61-66.19,9.8-99.1,7.95-9.39-.54-14.73-7.64-13-18,31-168.76,245.56-170.11,388.91-209.48,18-13.61-38.53-9-67.73-5.65C326.54,87.89,21.56,140.79,5.78,318.42c-3.12,70,48.83,126.74,114.49,124.37,8.71.21,17.41,1.84,27.69,3.42,9.61-10.29,15.83-23.36,25.87-33.28,2.34,1.34-13,29.23-18.88,34.3l.35,0C114.45,554.51,115,479,90.67,555.44c-8.24,24.69-24.77-.27-32.42,16.52C49.47,589.6,47.14,607.89,50,627.11c6.39-.25,17.24,4.22,14.63,3.72-8.71-1.64-13.45,2.68-14.63,2.5-1.38,13.75-1.37,28.68,5.05,44.75,0,0,2-25.76,18.79-47.92,10.46-1,19.26-6.44,23.71-16.35,5.54-12.31,15.06-16.64,24.9-25.41-1.21,15.81-17.8,71.08-7.37,78.64a29,29,0,0,1,12.64-3.16c2.82-.06,11,5.38,8.31,5.13-5.37-.85-11-1.48-16.15.68,1,14.9,5.52,39.26,21.8,58.17,0,0-8.67-20.09-5.32-43.08,17.55-31.12,27.09-64.61,32.66-97.19a51,51,0,0,1,7.13-2.66c23.11,31.88,8,72.45,8,72.45,13.94-18.07,20.68-47.54,21.85-63.42,0-2.08-17.78-10.37-17.78-10.37,2,0,16.57,2.51,17.78,4.15-.39-25.94,5.63-62.63,8.15-89.88,7.5-21.12,22.55-34.13,36.35-44,20.72-16.67,40.19-34.93,60.32-52.35,13.26-13.75,29.1-17.29,47.13-16.83,6-.93,19.95,5.19,16.31,4.47-6.47-1.27-12.94,1.59-19.39,1.92s-10.86-.29-17.27,1.58c-10.69,3.13-18.83,11.61-27.11,18.88-41.81,40.9-131.26,82.57-58.58,145.08,3,1.93,5,5.43,6.55,7.89,4.88,2.82,8.55,7,11.76,11.68,8.24,10.78,20.28,18.88,24.9,32.36,23.52,44.87-3.07,63.82,31.85,112L324.64,723l11.71.18c-.54,8.27-1.82,17.17,10.28,11.75,1.4,12,36.18,33.9,55.52,31.75,6,19.72,12.11,39.57,18.67,61l6.76-8.18,13.85,29.89,5.24-7.91c20.11,25.31,42.9,46.65,67.05,67.46,4.94,5.27,10,3.37,18.15,5.39l9.22,9.75,3.56-1.64c-4-53.51-21.88-104.45-33.52-157.22l22.94,12.28c-19.71-154.43-88-60.88-109.47-253.63.31-6.07,19.59,54.77,21.72,61.3,51.37,5.9,133.58-45.93,154.76-94.7,24.22-24.13,65.09-100.91,67.25-105.83C680,360,698.05,349.69,721.69,336.07c-11.55-12.65-19.83-20.53-16.73-43.3,3.89,14.44,6.85,22,12.4,29.28,19.16,25.17,34,45.68,68.81,39.07,33.56-.77,66.35,3.62,97,19.32A86.75,86.75,0,0,0,910.16,389c31.9,3.9,68.65-21.77,65.43-57.44,0-.88-.54-1.83-2.61-1.83.71,5-4.45,6.24-6.07,10.26-4.58,11.29-15.34,13.61-24.67,16.18-6.65,1.84-15.43,6.78-21.61-2.65-9.61,2.93-16.2-5.1-24-8.38-2.16-.77-1.55-5.07-4.16-5.37-8-.94-10.57-11-18.45-12-9.43-9.79-20.51-17.53-31.38-25.46C820.72,292,827.24,274.85,799.89,277c-20.67-1-49.46,8.22-56.69-11.3-5.82-8.57-9.33-14.67-17.57-20.6-8.85-6.25-8.44-18.14-5.17-17.35,14.85,3.58,19.57,2.78,34.27,7,31.81,10.56,38.79-49.38,70.62-31.53,51.28,17.81,106.16-75.31,162.33-62.38C992.78,142.42,994.48,140.38,994.29,135.26Zm-274.75,48.2c12.54-6,55.69-15.38,55.79-44.63,0-3-4.21-1.05-5.84,1.36-7.61,12.61-20.36,9.75-31.34,4.16-8.79-3.08-8.86-3.15-3.1-11.23,2.4-5.08,11.14-8.07,5.75-14.32-7.48-9.87-17-6.61-26.84,1.09-1.59-11,21.41-21.28,27.72-12.23,7.21,9.21,22.19,6.2,30.64,14.73,4.41,4.46,12.94-4.34,13.21,2.76C786.6,152.9,773,180,719.54,183.46ZM933.13,114c-4.26.24-6.72-4.55-4.87-8.59,1.67-6.22,13.26-.08,21.85,4C950.14,110.27,939.16,113.65,933.13,114Z" transform="translate(-5.65 -10.34)"/><path d="M938.47,338.5c1-3.13,1.94-6.25,2.88-9.39.8-2.67-.42-3.95-2.77-4.8-18.33-6.64-33.11-18.73-46-33.53-5-5.7-9.48-11.87-14.32-17.7s-10.75-7.12-17.48-4.5c-3.31,1.28-3.28,2.67-1,5,4.89,5,9.7,10.06,14.54,15.09a25.58,25.58,0,0,1-9-4.85c-7.84-6-14.84-13.09-23.19-18.35-6.38-4-13.08-5.87-20.52-4-3,.75-4.14,2.06-3.52,5.57,1.77,10.06,9.11,13.94,17.54,9,1.75-1,3.64-3.11,5.59-2,2.1,1.22.74,3.94.86,6,.14,2.69-1.25,5.46-.1,8.33,10.43-5.78,10.42-5.78,10.05,6.18a10.57,10.57,0,0,0,.48,2.24c4-.83,6.18-5.38,10.78-5.13-.28,4.27-.55,8.28-.83,12.65,4.83-1,7.64-5.88,12.43-5.87,1.06,4.42-1.43,8.68.68,13.92,3.28-3.31,5.86-6.07,8.61-8.64,3.13-2.92,4.42-1.56,4.23,2.31s-.51,7.95-.79,12.34c4.46-.77,5.75-4.07,8.2-5.64.94-.61,2.15-1.56,3-1.35,1.72.43,1.23,2.32,1.23,3.67,0,3.41-.13,6.83-.23,11,4.53-3.94,7-8.45,12.45-10.73-.41,6.25-.76,11.59-1.19,18.1l12-13.16c2.56,6.64.39,12.65,1.19,19.09,4.56-4.18,4.28-10.59,8.6-14.92,1.54,5.07,2.89,9.5,4.24,13.92Z" transform="translate(-5.65 -10.34)"/><path d="M816.15,252.26c.19,4.11,2.37,3.63,5.21,3,7.8-1.83,15.67-.85,21.7,4.45,6.44,5.67,12.39,5,19.45,2.44,3-1.12,3.4-2.32,2.91-5.12-1.74-9.94-.57-19.79,1.47-29.5.93-4.44.75-8.09-4-11.72-1.23,7.4-.67,14.46-4,20.86-5-4.44-6.36-10.86-10.35-15.81-2.89,5.23-2.51,11-6.09,15.43-4-4.41-4.55-10.49-7.44-15.54-3.3,3-4.11,6.94-6.1,10.12s-3.44,2.79-4.61-.48c-1.48-4.15-2.84-8.35-4.25-12.53C816.52,229.26,815.62,240.68,816.15,252.26Z" transform="translate(-5.65 -10.34)"/><path d="M811.91,208.85c-4.83-1.38-11.73,2.05-14.84,5A287.58,287.58,0,0,1,778,235.7c-18.23,12.86-33.58-2.74-50.76-3.55-1.21-.06-4.91-2.3-5.61.29-1.16,4.05,9.51,11.52,14.23,16.43,5.64,6.81,12.89,17.84,18.56,22.42,9.12,7.37,36.83-2.57,53.21,1.45,7.18,1.76-.42-34.31,4.33-57.18C812.34,213.29,814.37,210.06,811.91,208.85Z" transform="translate(-5.65 -10.34)"/><path d="M953.08,323.55c.08-2.31,1-4.91-2.05-6.19-14.16-6-28.31-12.07-43.32-18.48a66,66,0,0,0,26.82,19.26c7.41,2.87,14.57,5,16,15.2l2-1.16C952.72,329.3,953,326.43,953.08,323.55Z" transform="translate(-5.65 -10.34)"/><path d="M884.05,197.21c-2,1.5-7,1.69-3.88,6.36a69.85,69.85,0,0,0,16.92,18.31,115,115,0,0,0-7.09-24.4C888.25,193.12,885.82,195.88,884.05,197.21Z" transform="translate(-5.65 -10.34)"/><path d="M897.93,187.77c-2.68,1.18-4,3-1,5.83,5.3,4.83,10.35,10,18.22,13.35a64.47,64.47,0,0,0-8.62-21C902.82,180,900.64,186.58,897.93,187.77Z" transform="translate(-5.65 -10.34)"/><path d="M914.27,175.33c-1.86,1.71-2,2.94-.39,4.65,4.67,4.88,9.25,9.9,17.13,13.36-1.59-6-2.61-10.4-3.93-14.68C924.05,168.83,921.85,168.37,914.27,175.33Z" transform="translate(-5.65 -10.34)"/><path d="M942.88,353.29A8.15,8.15,0,0,0,951,344a37.76,37.76,0,0,0-6.39-16.12c-2.07,7.42-3.95,13.71-5.53,20.08C938.36,351,939.5,353.18,942.88,353.29Z" transform="translate(-5.65 -10.34)"/><path d="M910.85,348.92a5.13,5.13,0,0,0,5.58,1.81c2.55-.57,3.67-2.58,3.91-5.22a56.31,56.31,0,0,0-.49-16.27c-4.2,4.51-6.51,9.11-8.93,13.61C909.85,344.84,909.43,347,910.85,348.92Z" transform="translate(-5.65 -10.34)"/><path d="M942.76,159.88c-2.76-1.57-5.71,2.11-8.64,3.31-2.42,1-3,2.41-1.12,4.89,2.79,3.71,5.19,7.74,8.43,12.65a19.52,19.52,0,0,0,2.71-11.57C944.06,166,945.6,161.5,942.76,159.88Z" transform="translate(-5.65 -10.34)"/><path d="M957.31,345.84c3.79.18,6.16-3.27,6.08-7.29-.1-5.65-2.79-10.39-6.19-16.09-2,6.09-2.06,11.31-2.37,16.43C954.68,341.47,953.49,345.66,957.31,345.84Z" transform="translate(-5.65 -10.34)"/><path d="M926,347.78c-.48,4,.58,6.65,4.93,6.58,4-.06,5.07-2.58,4.43-6.25-.82-4.67-1-9.49-3.56-14.88C928.93,338.36,926.65,342.67,926,347.78Z" transform="translate(-5.65 -10.34)"/><path d="M876.33,224.11c-.54-5.43-1-10.88-1.65-16.3-.32-2.72-1.34-4.93-4.41-2.8-2.07,1.44-7,.79-4.75,5.8S870.68,220.77,876.33,224.11Z" transform="translate(-5.65 -10.34)"/><path d="M875.32,317.9a5.1,5.1,0,0,0,.55,6.59c1.24,1.45,2.65,3,4.7,2.49,2.59-.61,2.59-3.16,2.85-5.24.53-4.27,2.58-8.35,1.39-13.74C880.28,310.51,877.68,314,875.32,317.9Z" transform="translate(-5.65 -10.34)"/><path d="M859.35,216.23c.06-1.89,1.2-4.89-1.67-5.36-1.84-.31-4.13.55-5.81,1.6-2.47,1.54-.85,3.89-.11,5.73,1.48,3.65,2.49,7.63,5.82,10.9C859.69,224.73,859.23,220.39,859.35,216.23Z" transform="translate(-5.65 -10.34)"/><path d="M897.78,336.75c-1.38,3.35-.28,6.22,3.31,7.22s4.24-1.72,4.61-4.5c.58-4.22,1.09-8.45,1.62-12.68C903.22,329.44,899.58,332.35,897.78,336.75Z" transform="translate(-5.65 -10.34)"/><path d="M886.85,328.31c-2,3.28-.17,5.6,2.54,6.93,3,1.47,4.94-.27,5.48-3.33.77-4.41,1.17-8.89,2-15.29A39.87,39.87,0,0,0,886.85,328.31Z" transform="translate(-5.65 -10.34)"/><path d="M961.38,155.73c0-1.51.74-4.22-1.49-4-2.63.25-5.21,1.73-7.71,2.92-1.71.82-1.23,2.24-.41,3.61,2.15,3.6,4.26,7.22,7.06,12A42,42,0,0,0,961.38,155.73Z" transform="translate(-5.65 -10.34)"/><path d="M829.11,287.16c1.08,2.53,3.15,4.5,5.69,4.7,3.28.27,2.85-3.21,3.3-5.26.54-2.42,1.5-5,.3-7.64-2.6-.23-4.29,1.61-6.18,2.8S827.74,284,829.11,287.16Z" transform="translate(-5.65 -10.34)"/><path d="M976.79,147.82a7.19,7.19,0,0,0-7.22.59c-2.61,1.72-.16,3.82.29,5.64.59,2.46,1.66,4.79,3.26,9.22,1.78-4.41,3-6.72,3.63-9.17C977.32,152.05,979.61,149.4,976.79,147.82Z" transform="translate(-5.65 -10.34)"/><path d="M967.44,333.26c1.67-.3,2-1.91,2-3.31-.15-5.49-1.72-10.59-3.86-16.19-3.8,6.31-3.79,11.82-.48,17.36C965.67,332.1,966.05,333.5,967.44,333.26Z" transform="translate(-5.65 -10.34)"/><path d="M830.63,220c.77-2,3.2-4.59.62-6.32-2.1-1.41-5.26-3.26-7.57-1.82s-.2,4.34.25,6.53c.52,2.53,1.43,5,2.76,9.45C828.62,224.06,829.83,222.11,830.63,220Z" transform="translate(-5.65 -10.34)"/><path d="M867.61,316.21c4.85-2.16,3.21-7.58,3.74-12.08-3.74,2.05-8.9,2.69-8.89,8.22C862.46,314.59,865.78,317,867.61,316.21Z" transform="translate(-5.65 -10.34)"/><path d="M845.27,217.34c.91-3.34-1.32-3.56-3.6-3.43-2,.11-4.64-.19-3.83,3.33s1.66,7.35,4.16,10.65C844.78,224.59,844.33,220.72,845.27,217.34Z" transform="translate(-5.65 -10.34)"/><path d="M846,300.17c5.19-2.22,2.93-7.46,3.95-13.42-4.27,3.58-8.93,4.51-9,9.62C840.81,298.64,843.93,301,846,300.17Z" transform="translate(-5.65 -10.34)"/><path d="M856.64,307.76c3.8-2.1,2.78-6.56,3.56-12.06-4.12,3.28-8.3,4.25-8.23,8.79C852,306.4,854.87,308.74,856.64,307.76Z" transform="translate(-5.65 -10.34)"/><path d="M986.5,148.76c-2.69-.09-2,2.06-1.75,3.63.49,3,1.13,6.05,1.7,9.07l1.65.2c.71-3,1.53-6,2.11-9S988.71,148.84,986.5,148.76Z" transform="translate(-5.65 -10.34)"/><path d="M956.58,309.75c-.53-3.46-.5-7.14-2.87-10.22-3.42,2.23-4.07,6-5.1,9.33-1.34,4.39,2.07,4.94,4.75,5.64C957.92,315.7,957,312.25,956.58,309.75Z" transform="translate(-5.65 -10.34)"/><path d="M928.31,301.79c.64,1.47,5.07,3,5.7,2.31,3.71-3.93.7-8.46-.48-13C931.13,294.66,926.11,296.76,928.31,301.79Z" transform="translate(-5.65 -10.34)"/><path d="M917.64,296.75c.87,1.71,3.59,3,4.93,1.88,4-3.33.84-7.72,0-12.06C920.73,290.09,914.88,291.31,917.64,296.75Z" transform="translate(-5.65 -10.34)"/><path d="M939.4,308.21c.86,1.26,4.51,2.28,5,1.71,3.48-4.28,0-8.53-1.25-13.07C940.67,300.33,936,303.12,939.4,308.21Z" transform="translate(-5.65 -10.34)"/><path d="M905.49,293.06c.68,1.34,4,2.82,4.64,2.28,3.76-3.06.69-7,.16-11C907.68,286.8,903,288.17,905.49,293.06Z" transform="translate(-5.65 -10.34)"/><path d="M899.27,289.48c1.63-3.26.67-6.42-.26-10.66C893.22,285.59,893.22,285.59,899.27,289.48Z" transform="translate(-5.65 -10.34)"/><path d="M752.5,124.7s-7.24,7.59,2.06,19.52C754.56,144.22,762.83,132.29,752.5,124.7Z" transform="translate(-5.65 -10.34)"/><path d="M969.31,595.5c-26.65-33.82-20.6-34.42-60-49.71-8.44-3.28-20.88-16.9-31.52-16.72-12.34.2-34.32,10.58-23.55-5.38,1.71-2.54-40.72-.1-40.72-.1,1.35-7.33,21.86-9.6,21.86-9.6-20.68-14.61-39-19.58-61.18-28.22-42.79-11-75.57-51.66-121-52.87-7.42,6-27.55,44.33-34,51.41-4.64,5.12-11.58,10-14.28,16.61-2.64,6.42-5.21,12.22-9.23,17.89-11.94,16.41-28.19,25.92-44.17,37.7,7.66,5.41,25.68,30.92,32.67,13.76.68-3.31,3.29-4.74,4.85-1.16,5,9.14,21.73,27.49,25.38,8.44,3.07,3.71,6.42,7,9.64,10.58,5.55,6,26.47,17.63,25.43,12.42-3.2-16-1.38-54.74.6-53.69,5.27,2.81,1.08,22.41,35.18,54.93,1.65,1.58-4-26.35-2.35-25,10.36,8.51,19.84,21.14,31.55,24.2,18.92,4.94,46.74,15.61,68.14,17-11.27-17.52-8.28-25.37-8.57-29.75,8.7,14,15.86,26.55,31.63,29.33-4.54-12.21-2.42-17.63,1.47-22,3.27,16.94,34.58,24.37,33.06,21.83-6.4-10.67-7.91-20.76-5.81-19.91,7.09,2.84,17.81,8.74,25,11.28,23.57,6.41,48.45-3.21,72.14-4.84,17.29-2.18,18.32-1.09,30.95-3.86,3.43-.75,7,1.89,13.59,3.58C972.19,598.91,970.66,597.21,969.31,595.5Z" transform="translate(-5.65 -10.34)" style="fill-rule:evenodd"/></svg>