<svg id="figzy" xmlns="http://www.w3.org/2000/svg" viewBox="0 0 964.46 987.43"><path id="figzy-outside-spinner" d="M867.22,723.25c29.76-5.33,64.35-3.85,104.3,8.38,0,0-45.72-14.27-87.72-50.76,25.28-15.26,57.17-26.18,97.51-29.59,0,0-48.25,3.82-101.15-14.75,17.28-24.66,42.72-47.93,79.41-67.42,0,0-47.81,25.1-108.36,26.67,7-30.28,22.44-62.49,50.16-95.7-6,7.18-36.81,42.3-84.18,63.36-4.28-29.29-2.22-63.08,9.44-101.93-2.65,8.88-17,52.61-51.61,90.37-14.45-25.11-24.84-56.47-28.58-95.7,1,12.4,2.8,57-15,103.08-23.37-17.44-45.48-42.32-64.5-77.21,5.32,10.17,22.11,45.28,26,89.45-26.43-8.19-54.5-23.27-83.72-47.93,0,0,36.2,33.12,59.48,84.89-28.8,3.88-62.38,1.46-101.47-10.5,0,0,44.6,15.62,85.72,52.54-25.06,13.89-56.68,23.82-96.63,27.2,0,0,49.2-2.2,102.37,18.06-17.63,23.25-43.21,45.42-79.51,64.72,0,0,45.43-21.87,103.24-23.71-7.14,28.55-21.93,58.53-47.63,89,0,0,32.68-35.58,84-57.28,4,28.3,2,60.59-9.27,97.29,0,0,15.46-43.87,52.57-83.42,13.41,24.27,22.87,54.15,26,90.95,0,0-2.06-48,18.74-99.55,22.89,17.18,44.31,41.52,62.35,75.47,0,0-18.43-38.47-21.51-89.34,25.94,7.84,53.08,22.17,80.76,45.53C928.41,805.41,891.49,773.91,867.22,723.25Zm-33.48,59.67c-15.06-28.34-33.76-46.3-53.46-57.25-35.11,27.7-49.25,67.9-49.25,67.9,10-32.68,8.74-60,1.38-82.44-45.67-4.38-85.26,14.69-85.26,14.69,31.26-16.61,50.17-36.54,61-57-29.06-33.68-68.69-47.55-68.69-47.55,32.67,10,59.38,9.66,81.11,3.5,2.66-37.65-12.75-70-17-78.08,15.87,29.12,35.08,47.43,55.07,58.46,32.92-26,45.66-64.85,47.7-71.68-10.35,34.49-9,62.8-1.31,85.81,46.67,4.52,86.84-16.57,86.84-16.57-31.79,16.89-50.46,38.18-60.84,60.15,29.46,32.24,68.53,44.42,68.53,44.42-31.46-9.63-57.76-8.91-79.52-2.46C816.6,747.18,833.74,782.92,833.74,782.92Z" transform="translate(-16.85 -10.87)"/><path id="figzy-inside-spinner" d="M835.13,632.81S768,667.31,733.39,600.72c0,0,35.57,62.81-30.7,97.3,0,0,67.3-31.72,100.26,31.62C803,729.64,772.76,665.27,835.13,632.81Z" transform="translate(-16.85 -10.87)"/><g id="figzy-body"><path d="M564.24,791.2s-8.14-2-14.23-14.23c-1.21-2.42,0-2,8.13-6.1,0,0-10.17-12.2-18.3-20.33-2.54-2.55,4.07,0,10.17,2,0,0-8.14-28.46-46.68-35.58-1.3-.23-1.92-1.73-2.86-2.49-3.93-3.17,6.84-.56,19,3.51,0,0-16.26-14.23-43.51-20.34-2.89-.65.82-4,4.89-4a128.69,128.69,0,0,1-26.43-8.14c-1.93-.82,4.06,0,10.16-2,0,0-16.26-8.13-24.4-8.38-.56-2-2.35-6-2-9.92.07-.74,2,0,6.1,8.14,0,0-.89-31.29-3-34.58-12.15-1-52-.17-62.58-3.54-4.95-1.57-18.43-6.07-22.71-8.87a128.5,128.5,0,0,1-11.16-8.25c-3.58-2.93-19.86-16.42-22.89-19.94s-18.53-26.48-24.32-34.51c-2.66-3.69-5.25-7.45-8-11.05.58,4.18.82,8.45,1.08,12.54.74,11.3.28,22.62.45,33.93.08,5-.1,9.53.4,14.46a76.92,76.92,0,0,1-1.18,19.69h-.08a17.58,17.58,0,0,1-1.19,3c-2.19,3.83,2.77,8.65-13.49,16.78-2.5,1.25,13.79,3.13,6.63,5.95-12.17,4.8-25.05,12.77-27,16.41,0,0,14.93,1.42,11.66,2.39-3.85,1.13-23.18,5.86-32,17.94-.31.43,7.56-5.7,12.2,0,2.57,3.16-24.89,14.21-26.43,24.39-.06.39,21.31-4.82,15.52-1.66-8.58,4.68-21.64,8-34.78,21.87,0,0,23-5.16,15.51,2.64-9.63,10.09-27.25,11-34.13,22-.06.1,7.46.44,9.45,4.64-3.4,7.11-5.18,14.7-23.69,13.56,0,0,13.49,9,14.3,10.56,5.51,10.68-9.37,7.39-9.37,7.39-2.38,15.24,12.3,8.16,13.42,10.9,1.48,3.6-37.53,14.07-47.28,14.87-5.9.48-13,2.52-17,6.45a473.83,473.83,0,0,0-38.46,41.45c-13.45,16.64-27.33,38.64-40,55.91-2.33,3.18-4.86,6.45-8,8.76-15.94,11.82-20.45,34.35-19.08,53,.57,7.77,8.53,6,20.68,5,10.11-.81,7.87-14.48,7.16-17-1-3.65.94-4.23,2.74.54,2,5.28,2.2,15.81,7.12,16.44,9.36,1.2,11.3,1.28,19.17.15,7.67-1.09,9.31-2.89,3.84-18.23-.31-.86-.4-2.41,1.09-.55,4.38,5.48,5.48,19.17,8.77,19.17,0,0,13.08.66,14.5-3.71,4-12.39,3.07-29.27-1.44-41.81a12.38,12.38,0,0,1,1.18-9.7c7.75-11.55,17.48-27.33,26.5-37.87,9.16-10.71,19.68-20.3,30-29.95,2-1.87,5.79-2.08,8.83-2.56,16.89-2.62,33.88-4.64,50.68-7.74,9.74-1.8,22.36-2.52,30.06-7.65,3.28-2.19-.92,6-.92,6,6.18.95,11.55-1.77,13.54-5.12,6.38,2.81,1.37,9.07,1.37,9.07,8.34-.83,23.3-20.5,30.06-22.53a16.92,16.92,0,0,0-5.49,14.12s26.81-23,30.55-33c1.15-3-6.24,19-6.24,19,13.62-5.67,33-32.57,34.62-35.69,10.41-20.27,15.69-17.6,25.2-32.32,2-5.15,16.14-31.41,19.17-38.34,1.32-3-.42,16.46-14.66,38.92,2,8.13,4.07,22.36,4.07,22.36,2-4.07,7.67-12.66,8.13-12.2,4.07,4.07,0,16.26,0,16.26,4.07-2,10.17-9.15,10.17-8.13,0,6.1,4.06,16.27,4.06,16.27,0-10.17,2.6-8.48,3-7.19,1,3.12,9.17,13.28,9.17,13.28,0-6.09.66-7.86,1.17-6.75,4.93,10.82,15.09,10.82,15.09,10.82-4.06-6.1,1.83-3.47,4.07-4.07,0,0,4.08-1.8,4.68-2.23,6.34-4.49,20.45-12,17.84-10-4.93,3.84-11.44,9.58-18.62,14.24-8.26,6.87-27.82,24.12-33.06,29.33-6.45,6.42-7.73,14-3.37,22.31,5.14,9.75,10.34,19.48,15.39,29.29,10,19.32,24.76,44.41,33.57,64.26s18.46,31.87,40.37,31.72c8.58-.06,17.64-4.86,25.67-1.94,12.49,4.54,30.38,3.36,32.61-.79,11.5-21.36-12.52-28.51-11.5-28.48,18.62.54,17.88,24,19.17,21.91,3.29-5.48,6-24.1-14.22-40.22-8.45-6.73-18.06-.78-26.76-3.45-2.77-.85-6.37-1.1-8.06-3q-23.5-26.29-46.35-53.16c-4.27-5-7.56-10.9-11.91-17.28,7.2-3.6,13.53-6.82,19.9-9.95,15.34-7.52,40.84-7.68,66-19.73,25.73-12.31,24.35-30.89,17.86-46.49C552.45,791.77,560.17,795.26,564.24,791.2Z" transform="translate(-16.85 -10.87)"/><path d="M608.23,485.12c-3,.88-9.59,7.27-12,11.61-3.49,6.36-6.46,11.57-6.46,11.57,2.67-7.78,3-10.39,6.26-16,1.9-3.25,6.26-5.52,11.06-12.36,3.66-5.21-1.71-6.15-4.81-3.92a82.06,82.06,0,0,0-12.81,12.71c-3.15,4-6.67,14-8.2,17.43a.71.71,0,0,1-1.18.24c4.38-12,3.39-13.86,12.77-24.82,6.76-7.9-.64-10-4.67-6.08-2.55,2.63-5.67,4.31-9.68,10.55-2.42,3.76-9.73,22.66-10.89,23.16-3.5,1.47-2.6-4.5-2.6-4.51.9-2.83,6.8-13.39-.66-12.33-8.52,7.36-8.39,17.08-6.26,28.79,1.69,9.25,3.32,15,5.15,16.15,3.4,2,6.61,2.07,10.11,1.12,7.79-2.09,13.22.7,18-5.29,5.51-6.87,3.35-15.06,4.9-19.92,1.13-3.54,1.18-6.37,4.55-12.35,2-3.58,4.27-8.13,8.55-11.38A2.38,2.38,0,0,0,608.23,485.12Z" transform="translate(-16.85 -10.87)"/><path d="M461.72,593.75c0-.37.1-.72.14-1.06C461.76,593.39,461.72,593.79,461.72,593.75Z" transform="translate(-16.85 -10.87)"/><path d="M269.05,512.57a1,1,0,0,0,2,.15c3-9.33.86,9.4,6.62,15.16,1.93,1.93,0-7.7,3.85-3.85.44.44,5.13,16.87,5.72,19a1,1,0,0,0,.23.42c29.47,31.74,51,84.19,103.6,88.56h.12c7.76,3.66,104,7.51,111.07-5.1l.17-.19c7-9.84,20.06-41.75,11.79-41.23-7.66.41-5.46,18.88-13.23,18.44v0a5,5,0,0,1-.76-1.12.25.25,0,0,0,0,.08c-8-17.83,15-52.72,3.31-46.4-5.7,4.4-11.24,19.2-13.58,28-.35,1.3-.23.9,0-.43,1.16-7.91,2.91-22.64,4.83-27.22,1.72-6.12-2.77-8.81-6-3.56-5.43,8.92-6.59,17.32-8.59,21.81-2.3,8.57-4,18.14-4.3,17.21.41-6-2.12-6.92,1.74-18.4,4-11.82-3.4-12.71-6.85-5-6.3,9.24-6.11,37.67-6.37,37.81,0,.14-48-9.89-59.95-12.38l0,0c-3.08-.6-5.65-1.17-6.88-1.44a.91.91,0,0,1-.64-.47c-7-12.8-28.36-43.64-48.59-59.79a1,1,0,0,1,1.09-1.67c24.28,12.56,37.1,31.42,49.6,51.88a1,1,0,0,0,.59.44c11.46,3,39.65,7.85,50.74,11.19a1,1,0,0,0,1.22-.65c3.35-11.08,6.8-31.44,9-48.69.2-1.56,0,1.92,3.85,1.92,0,0-2.11-8.59-1.93-11.55.08-1.27,1.93,1.93,5.78,0,0,0-5.76-7.7-5.78-9.62,0-1,5.78,0,7.71-1.93,0,0-7.71-7.7-7.59-12.42,0-.74,1.13-1.86,1.24-1.13.57,3.93,10.2,5.85,10.2,5.85-1.93-1.92-1.79-4.84-1.2-4.33a11.82,11.82,0,0,0,10.82,2.41c-3.85-1.93-3.18-3.82-1.92-3.85,7.09-.19,14.69.49,27.33-.62,3.06-.27,3.77,1,5.3,2.23,11.52,11.52,24.63,11.1,41.85,20-.36-1.2-.68-2.4-1-3.56-2.19-8.89-4.26-18.42-1.11-27.32a1,1,0,0,0-.16-1c-22.34-28.35-26.82-23.09-50-29-5.07-2.41-10.69-3.53-15.58-1.19a7.46,7.46,0,0,0-2.49,1.2c-.5.38-1.15,1.43-1.72,1.73l-.83.37a2.42,2.42,0,0,0-1.09.91c-.86.49-1.72,1-2.57,1.57a50.51,50.51,0,0,1-14.42,6.64c-10.7,2.88-22.08,3.29-33.07,4.34-11.67,1.13-23.61,2.28-35.27.38-4.23-.69-8.37-2.17-12.66-2.29a2.6,2.6,0,0,0-2.15-.81c-5.09.24-10.28.34-15.21-1.14a20.21,20.21,0,0,1-7.41-3.89c-1.13-1-2-2.19-3.42-2.74-1.73-.66-3.66-.07-5.42-.74-2.25-.85-3.68-3-5.53-4.51-4.15-3.31-9.18-5.33-13.4-8.6a3.19,3.19,0,0,0-3.64-.47,3.33,3.33,0,0,1-1,.27,3,3,0,0,0-1-.05l-.61,0c-4.23-.63-10.48-5.1-12.89-6.83a80.22,80.22,0,0,0-7.52-5.24c-.25-.26-.5-.51-.76-.75-2.07-1.95-3.39-2.11-6-.9a18.34,18.34,0,0,0-5.54,4.05,5.62,5.62,0,0,0-1.29,1.39,71.47,71.47,0,0,0-11.39,16.12,1,1,0,0,0,1.16,1.39c11-2.79,3.56,3.09.18,5.11-8.23,4.92-10.6,11.22-11.28,14.44a1,1,0,0,0,1.49,1c7.3-4.33,3.59-1.67,3.07.24C273.91,495.61,267.72,502.89,269.05,512.57Z" transform="translate(-16.85 -10.87)"/><path d="M623.32,218.34a1.09,1.09,0,0,1,.85-2c14.88,3.47-15.91-14.54-37.22-17.86,2.35-1.34,14.82,3.5,11.94-.87-10.2-6.15-50.78-9.93-33.65-11.76,5.06-5.62-31.51-7-33.89-7.42a36.17,36.17,0,0,0,2.38-2.76l1.13-.21c-.21-.15-.42-.3-.64-.44.3-.4.57-.8.85-1.21-9.11,4.17-38,7.93-57.69,3.91.24-.39.5-.89.1-1.29C475,173.22,470,164,468.81,159.2c26.84-43.65,106.49-39.46,74.1-108.37-11-11.59,9,40.38-21.74,52-9.18,4.14-47.16,25.47-47,20.49.57-13.28-7.91-43.69,5-53.84,5.54-2.39,2.37-7.57-2.77-5.41-32.18,18.6-.22,81.59-36.62,88.63-2.17-2.76-14.3,11.9-9.84-3.31a1.11,1.11,0,0,0-1.52-1.34c-5.7,3-4,15.74-12.33,14.88-4.58-.48-16.35-5.54-13.37-17.81,1.23-5.06-14,21.68-18.81,20.91s-8.82-20.87-9.76-25.78c-2.07-10.78-3.88,21-4.84,19.4-3.17,8.59-14.72-21-17.79-2a1.09,1.09,0,0,1-2,.38c-2.56-4.32-7.81-9.28-11.41-11.68a1.09,1.09,0,0,0-1.49,1.53c4.51,6,5.11,14.2-1.88,10.35a6.79,6.79,0,0,1,.85,3.49c-2.44-1.38-5.75-1.7-8.86-2.12-.6.79-1.23,1.55-1.88,2.29-6.47-9.9-11-20.78-22.8-17.87-6.92-6.67-13.63-19.36-14.55-26.26-.68-7.16,3.52-65-19.6-75.21-6.61-3.61-10.41,1.88-3.47,5.53,15.14,13.66,4.29,45.64,4.62,60.38.13,5.54-47.94-23.78-60.23-30.07C182.56,65,181.07,38.62,185.85,14.17c.24-3.11-4.34-4.57-6-1.91-49.78,74.66,64,84.49,98.71,140.89-.67,3.14-5.7,8.62-8.6,14.06-1.8.42-3.61.8-5.42,1.16h0c-37.93,7.5-77.88.31-115.36,10.59-9.27,1.24-18.13,3-16,6.16,18.72,5.38-74.75,11.63-45.78,18,1,.22,1.14,1.77.14,1.94C76.48,206.86,53,227,50.49,236.66A1,1,0,0,0,52,237.78c45.11-31.23-24.83,21.77-6.61,31,7,.17,5.42-1.71,14.94-8A1,1,0,0,1,61.85,262c-6.47,14.82-6.67,24.46,12,12,11.87,6.84,2.86,62,20.65,26.58,17.2,2.37,5.61,38.43,12.73,27.53,19.35-12.64,18.55,6.19,16.34,18.14a1,1,0,0,0,1,1.17c7.63-.32,17.4-2.73,17.68-10.42a1,1,0,0,1,1.11-1c15.55,2,5.95,16.31,2.85,22.1a1,1,0,0,0,1.14,1.46c19.4-4.54,17.19-11.08,20-10.21,20.37,7,3.64,13.22,7.61,15.1,17.24,4.41,26.32-7.27,29.1-3.41,5,7-8.32,9.64-3.48,11,11.64,1.61,16.18-1.58,23-7.73,2.16-.41,4.68,1,7,.48,3.13,1.33-.32,6.22-.71,8.19.61,5.75,12.22-7.64,14.67-10.71a1.13,1.13,0,0,1,.67-.16c.11.66,5.22-2.13,13.74,13.94C261,380,266.32,393.49,269.42,396c.95.79-6.36,1.5-5.48,2.35,4.48,4.66,16.62,11.27,16.48,15.66-.06,2-5.47-1.77-6,0,1.15,2,15,8.93,16,9-.73,1.33-5,1-4,3,.19,1.12,20,9,25,14,.67.4-9.66-2.45-9-2,3.95,7.49,16.47,17.8,23.59,19.1a13.64,13.64,0,0,0,3.51-.16c2.53-.15,4,.58,6.14,1.94a126.84,126.84,0,0,1,10.46,7.71A22.29,22.29,0,0,0,354,471.1c3.37.91,6.89.18,9.8,2.37,2.15,1.62,3.83,3.73,6.27,5,3,1.52,6.09,1.33,9.28.9,4.7-.63,8.41.93,12.94,1.79a88.86,88.86,0,0,0,13.22,1.38,215.64,215.64,0,0,0,49.9-3.48c11.86-2.33,25.44-7.17,31.52-17.84C493,461,495,452.29,496.36,447c5.36-2.14,2.22-7.15.09-11.37-1-3.36,6.8.25,6.27-3-2.65-14.16-10.05-5.28,2.13-12.07,1-1.15-1.35-4.32-3.16-8.19,2.43.35,5.92.12,7.29-2.22,1.23-2.09.25-4-.57-5.93,2.2.31,1.25-1.63,5.64-5,2.35-2.18-4-7.47-2-12.67.76-2.19,2.5,6.29,5-2,.29-2.72-4.52-11.29.42-12.44,1,.43,5.64.92,5-1,.35-.4-10.44-18.94-5.34-18.35.41.55,27.11,7.19,28.35,1.35-12.38-27.87,20.28,6.37,26-5-1.87-2.32-4.57-1.37-2.91-7.79,1-8.29,19.36,5,19.92-1.21-1.82-4-3.14-10.85,6.26-15.46,2.68-1,2.62,2.77,5.75,5.45,5,5.14-2.93-23.77,9.42-15.15,6.58.15-1.38-9.23,5.74-22.08a1.09,1.09,0,0,1,1.91,0c.08.6,6.69,4.51,7.84-.52-1.62-5.52-4.16-13,.91-19.21a1.09,1.09,0,0,1,1.86.42c1.18,4,2.75,4.56,3.33,3.51.43-.78,1.83-15.16,1.52-22.42,2.31-4.91,5.46-.75,5.91.94a1.08,1.08,0,0,0,2.1,0c2.58-12.69-13.66-30.55,1.69-12.87C650.85,243.8,630.68,222.19,623.32,218.34Zm-390.74,13.1c-10.26,9.27-5.74,20-18.28,12.95-.94-.47,0,8.91,6.55,12.13,2.16,1.07-10.44,5.26-11.75,11.43-.86,3.21,16.52-2.41,14.11,4.95-1.6,3.85-5.35,12.47-12.47,8.9-2.22-1.2-1.78,4.63,7.24,12.91,6.07,5.57,7,14.08,7.05,19.71-1,4.45-8.45-9.6-10.73-10.08-5.62-5.38-11.87,6-12.76,1.9.23-4.95,5.15-10.44,3.85-10.18-3.09,1.09-19.49-.66-15.29-3.84,6-.81,9-3.1,8.17-3.29-4.58-.71-43.44-14.79-37-17,7.56.75,12.34.16,10.27-.78-13.6-6.18-18.1-10.63-22.42-13.32-2.9-3.35,10.16-1.27,12.31-2.28,5.36-1-10-5-5.16-6.71,6.15-.53,19.46,4.66,23.84,3.74,2.46-.52-8.63-11.41-6.79-9.93,8.91,7.12,26.05,5.08,30,3.87,3.24-1-8.87-5.46-8.58-5.65,11.92-4.47,16.82,5.55,26.85-2.78,1.33-.76.07-2.42-.94-3.46C219.09,231.15,235.93,227.68,232.58,231.44ZM371.19,338.85c37.25-12.66,3.05-77-34.24-62.11-29.45,8.45-39.18,37.75-16.88,54.44-65.41-43.87,58-110.52,72.65-24.48C398.5,325.12,385.91,334.75,371.19,338.85ZM395.4,215.78c-7.65-6.08-15.61-12.22-25.36-15.32-9.66-2.5,9.86-1,15.4,1.92,3,1.61,4.34,1.64,7.7,3.85.94.62,2.35-18.86.53-26.57,5.23,3.91,6.62,25.33,7.17,24.65,8.51-10.6,15.54-9.63,21.18-9.63,2.12,0-12.91,5.76-19.17,19.47C401.78,216.48,397.91,217.36,395.4,215.78Zm62.34,169c-.46,5.17-7.31,13.74-10.82,8.49.33-.68.41-.85.73-1.54,1.69,0,3.33-2,3.62-4.08.73-5.89-5.93-4.38-6.12.48-.08,1.45-.86,6.65,2.43,8.24a1,1,0,0,1,.4,1.38c-1.6,3.49-7.17,4.05-9.12,6.6.34,3.58,3.34,19.2.36,23.12-.93,1.23,10.21,3.15,16.79-2.48,1.36,4-9.4,8.42-20.7,4.32-7.41,4.42-22,4-31.81-2.09-.7-3.2,18.81,6.09,30.62-.74,3.79-4.75.91-17.83,1.33-22-2.84.18-9.47-1.67-8.08-5,4.77-2.79,4.12-8.53,4.12-10.25-.19-6.11-9.06-5.57-8.17.65a4.36,4.36,0,0,0,4.82,3.95l.94,1.54c-4.76,7.12-15.34-.08-16.23-7.88C406.66,363.94,461.69,358.83,457.74,384.78Zm42.91-66.14c-4.58,5.41-12,10.58-20.81,14.13,44.73-18.63,16.71-69.15-24.21-56.79-25.56,11.71-39.27,55.52-7.87,60.72-45.92-3.79-17.12-71.36,16.38-73.08C492.7,260.31,524.11,292.21,500.65,318.64Zm76.11-71.84c-4,1.58-16.62,8.76-27.68,19.11-.82.76,6,.29,9.62,1.1a1.08,1.08,0,0,1,.38,1.94c-4.88,3.55-19.87,14.68-23.48,20.06-.08-2.05,2.1-1.81,1.93-3.85-1-1.52,11.75-24.62,4.63-23.71-2.21,2.42-7,7-8.29,2.72,4.16-16.6,15.67-13.36-4-13.66-.26-2.13-1.92-4.94.37-5.44,1.44.78,24.69-6.52,23.22.6-2.23,1.48-6.15,4.23-4.83,4.37a62.85,62.85,0,0,0,28.27-3.28Z" transform="translate(-16.85 -10.87)"/></g></svg>