<svg id="foromeer" xmlns="http://www.w3.org/2000/svg" viewBox="0 0 871.03 985.45"><path d="M428.38,642.37c-15.84-35-9.79-102.16-51.12-115l.32.3C327.43,557,267,600.77,242,662.85c-5.55,98.2,67.33,224.09-56.8,279.7-23.33,7.77-58.43,19.58-59.68,48.38.4-.13,25.34-.81,25.34-.82,62.25-1.84,121.33-6.79,177.32-13.28,8.79-.92,11.09-4,11.44-14.24,1.17-25-8.48-65.13-.35-90.08C399.14,672.06,254.18,752.71,428.38,642.37Zm-24.94-82.91c-4.84,35.64-73.44,43.92-43.74,106,3.75,1.14,46.13-42.25,45.4-61.72.66-2,1.48-11.46,5.59-8.55,7.55,50.92,19.59,39.83-19.89,64.51-.47.3-19.69,11.51-19.55,11.71l-26.13,16.15-2.64-3.87c-8.36,7.7-13.76,8.33-17.81,2.18,5.8,1,11.39,2.68,14.48-3.37,2.36-4.21,3.92-8.7-.63-13.76,0-15,3.33-30,4.85-44.38,2.75-23.18,39.31-38,23.94-63.11-4.43-5.68-10.5-5.66-16.81-5.73-.23-.53-.45-1.07-.68-1.61C375,536.07,389.76,520,403.44,559.46Zm-65.92,133c-1.24,4.75-2.13,8.19-3.42,13.14-2.67-5.33-4.51-9-6.78-13.55ZM331.2,569.9c6.31-5.17,22.85,3.34,18.36,11.53-6,9.77-12.69,19.25-19.45,29.38l-25.46-17.2C314,585.17,322.34,577.13,331.2,569.9ZM300.59,599c3.48-4.5,31.53,17.86,38,20.59-3.48,10.67.77,48.68-8.76,50.53-7.91,3.54-13.92,18.47-23.18,9.06q-3.83-2.13-.24-1.93c-18.88-4.18,1.93-29.07,1.94-40.68.67-3.43-11.58-9.42-14.54-10.73-2.68-1.18-30.57,25.1-33,26C264.27,647.18,296.94,602.63,300.59,599Zm-7.17,103.15a1.63,1.63,0,0,0-.11-.23c10.86,4.41,10.79-15.72,20.53-18.33-3.1,4.76-7.1,22.34-14.35,26a2.37,2.37,0,0,1-.25,1.54c14.69,12.77-2.49,26.92-9.38,39.25C290.17,743.05,277.84,690.28,293.42,702.14Zm-47.58-15.4c9.18,9.19,14.67,35.9,19.57,50.34,2,7.28,3.27,22.42,11.61,26.71-4.69-.68-13.72-4.56-14.92-9.66C257.59,735.09,250.14,705.15,245.84,686.74ZM263.42,973c-4.22,8.81-18.45,4.11-22.49,6.94-6.41.14-41.1,6.75-39.65-4.59C205,961.72,279.43,939.54,263.42,973Zm1.81-19.48c-15.84-17.91-38.9-1.73-38.9-1.71-17.37,10.5-50.58,9.14-52.2,30.91-4.83.34-30.2.45-34.94.92,7.95-31.47,53-32.5,75.14-51,19.94-23.2,30.12-20.87,48.79-13,6.46,3,15.47,1.3,17.75,10.45C284.83,947.43,286.87,964.42,265.23,953.48Zm18.69-51.63c-2.29,9.69-1.22,6.3-7.3,14.3-4.4,5.8-23.86-3.45-27.21-5.74-.56-.39,0-3.41.87-5.91a3.22,3.22,0,0,1,.3-2.41,54.28,54.28,0,0,0,9.31-21.5c2.34-15.66,7.45-81.32,5.58-118.69,23.17,14.18,20.26-4.71,34-19.94.39.36,4.52,4,4.91,4.31-7.14,15.08-19.7,27.65-21.68,46.45-2.75,28.5-7,55.74-12.39,85.16,5.42,2.37,14.06,5,18.7,7.45.44.08,17.67-76.93,17.49-74.68-.09,1-2,59.61-2.15,59.72-4,13-5.47,18.81-8.29,20.35.05,1-1.88,6-2.42,6.73C293.54,897.55,285.52,895.11,283.92,901.85Zm53.65,51.3c-1.35,4.72,1.39,8.5-1.55,13.25-5.34,7.73-46.3,9.24-46.65,4.23-3.76-19.9-6.06-41.83,6.77-62.62-1.09,10.89-8.3,26.16-1.24,49.13.59.68,19.09,6.27,27.46,5.19,0-.21,0-.43,0-.64-.09,0-3.71-16.16,3.51-21.39a3.67,3.67,0,0,1,6.37.77C333.07,945.78,338.78,947.94,337.57,953.15ZM335,940.06c-17.15-54.78-6-168.32-4.9-172.55,4.53-19.18,13.56-42-8.06-54.54,6.26-3.09,14,7.85,17.06,12.69,25.05,48.26,4.31,98.64-6.54,150.06C328.1,892.93,337.89,922.41,335,940.06Z" transform="translate(-57.78 -9.24)"/><path d="M241.68,272a24.4,24.4,0,0,0-1.22-3.9c-9.14-17.13-24.17-22.06-41-10.66-.86-1.39-1.44-2.33-2-3.27l1.87-.33c5.18-7.75,3.78-9-5.54-7.62-8.78,3.1-38.25,4.44-40.62,13.11-1.5,5.51,8.91,1.44,11.22,3.23,2,2.81,3.24,6,4.93,9.38-7.3,3.36-17.27,9.47-15.43,23.17,15.28,51,39.59,97.17,72.65,139.88l-.36.14c41.46,6.13,47.59-56.26,71.78-80C266.4,307.35,245.84,283.56,241.68,272ZM221,287.32c7.4,4.87-5.37,35.34-5.11,45.88-6.13-.08-35.38,8.71-37,3.46a118.15,118.15,0,0,1-5.31-14.48c8.62,8.39,31,4.71,27.85-9.72,1.07-7.92,2.35-15.57,3.73-23.27l12.72-6.12A12.59,12.59,0,0,0,221,287.32Zm-24.26,87.34c-5.6-10.16-10.5-20.69-16-31.75l25.77-5.29c3.12,11.54,6.42,22.68,9.06,34C217.42,381,200.83,382,196.78,374.66Zm76.46,9.48c-4.39,1-2.94-8.24-3.09-10.32,5.07-17.58-21.92-71.63-25.35-72-41,42.7,19.6,81.27,13.4,113.46-4.77,8-18.07,22-27.64,14.14-7-10.75-16.47-20.75-21.9-32.11l1-1.23c5.57,2.62,10.93,5.24,16.33,1.74,19.94-17.16-8.31-45.45-4.85-66.94,2.25-12.93,3.09-26.93,6.72-39.35,6-3,4.82-9.84,2.4-14.39l1.67-.81c.88,1.22,3.28,3.12,4.65,2.29l16,24c-.17.11,12.25,17.8,12.54,18.26C291.39,360.31,291.32,340.55,273.24,384.14Z" transform="translate(-57.78 -9.24)"/><path d="M185.35,233.84l3.92,7.82c-6.8.41-29.17,9.43-31.54,3.9-1.63-3.11-1.64-7.22-10.51-4.31-8.3-.19-2.73-6.56,1.5-8.19,13.07-3.28,26.1-6.12,39.05-8.73,8.18,0,2.2,5.53-.61,9Z" transform="translate(-57.78 -9.24)"/><path d="M172.8,212.84l4.11,8.21c-8.6,1.94-16.9,4-25,5.44-6.54-1.31-.83-10.65-13.39-6.39-11.1,3.25-6.62-8.18,1.61-8.72,5.83-.11,42.45-12.68,41.62-5.83C181.9,209,178.1,211.35,172.8,212.84Z" transform="translate(-57.78 -9.24)"/><path d="M160.55,192.47l4,8c-7.58,1.7-14.56,3.49-21.34,4.63-6.92-1-.32-10.71-14.54-6.17-13,3.8-7-8.39,1.88-8.79,5.73,0,41.78-12.54,40.57-5.37C171.34,187.61,168.58,189.56,160.55,192.47Z" transform="translate(-57.78 -9.24)"/><path d="M148.32,171.81l4,8.06c-6.44,1.47-12.34,3-18,4-6.76-1,0-10.92-15.3-6-14.42,4.37-8.17-8.43,1.9-8.84,5.17.19,42.71-13,39.45-4.47C159.58,169.42,153.09,170.05,148.32,171.81Z" transform="translate(-57.78 -9.24)"/><path d="M135.57,151.16l4.15,8.3c-30.78,9.48-6.55-9.43-31-2.58-1.46.5-3.53,1.08-4.32.75-7.43-2.09-2.52-6.34,1.83-8.35,13.09-3.25,26.16-6.15,39.12-8.68C157,142.79,141.05,151.12,135.57,151.16Z" transform="translate(-57.78 -9.24)"/><path d="M124,131.1l4.16,8.3c-26.08,7.29-6.61-9.63-27.26-4.39-1.24.39-3,.82-3.72.46-6.22-2.31-3.19-6,1.06-8,11.23-2.34,22.46-4.36,33.61-6C141.78,124,129.57,131.32,124,131.1Z" transform="translate(-57.78 -9.24)"/><path d="M113.18,110.69l4.16,8.3c-24.08,6.44-6.72-9.73-25.74-5.12-1.16.35-2.81.73-3.48.35-5.69-2.33-3.45-5.88.75-7.84,10.48-2,21-3.64,31.39-5C129.51,104.06,118.77,111,113.18,110.69Z" transform="translate(-57.78 -9.24)"/><path d="M102.11,90.4l4.15,8.3c-21.33,5.14-6.63-9.85-23.46-6.21-1,.28-2.5.57-3.13.17-4.87-2.31-3.79-5.72.3-7.62C89.32,83.6,98.7,82.47,108,81.68,116.21,84.38,107.76,91,102.11,90.4Z" transform="translate(-57.78 -9.24)"/><path d="M90.13,68.57l4,8.06c-3.91.25-7.44.67-11,.56-4.63-2.61-2.49-10.11-11-8.08-2.78.61-5.54-.08-5.82-3.4-.84-7.44,18.93-3.8,24.17-5.36,2.93-.18,5.79-.09,6,3.62C96.93,68.28,93.14,67.73,90.13,68.57Z" transform="translate(-57.78 -9.24)"/><path d="M77.61,47.8l4.16,8.3C66.68,58.63,75,45.87,63.15,47.56c-2.37.82-4.91-2.2-5.37-3.88,0-6.69,18.27-2.69,23.31-3.41C86.73,42.79,83.53,48.87,77.61,47.8Z" transform="translate(-57.78 -9.24)"/><path d="M70.84,34.86c-3.57.52-5.6.45-8.53-1.16.6-1.15,1-3,1.87-3.29C67.55,29.73,69.51,31.36,70.84,34.86Z" transform="translate(-57.78 -9.24)"/><path d="M689.65,443.59c32.34,9.26,62.17,44.41,102,29.94l-.4,0c24.64-33.61,41.4-70.22,48.53-111.81-.62-11.32-13.87-12.95-23.42-13.27,2.22-5.55,2.07-10.93,9.78-11.24,14-2.09,4.8-9-5-6.84-13.81,1.6-27.81,3.07-41.58,4.93-9.25,1.77-15.31,2.62-4.61,8.29l2.39-.35c-.44,1-.88,2-1.53,3.39-19.65-3.17-40.22,2.3-46.45,22.22a14.14,14.14,0,0,0-.94,3.16C726.12,382.33,713.94,402.47,689.65,443.59Zm71.62-70.46,16.82.57c3.75,5.35,7.28,10.61,10.6,16,.15,11.17,26.17,6.88,34-1.69a67.41,67.41,0,0,1-2.84,11.78c-.71,4.1-35.35,7-42.18,8.9C772.26,396.93,749.65,385,761.27,373.13Zm26.51,60.51c.09-7.91.94-16.12,1.51-24.76l29.84-4.21c-3.65,9-6.68,17.34-10.49,25.41C806,435.81,788.14,440,787.78,433.64Zm-75.71-18.58c.24-.4,10.58-16.44,10.35-16.47L736.17,376c1.85.3,5.57-2.26,6.22-3.49l2.26.08c-1.45,4.72-.41,9.76,7.41,10.15,8,8,13,17.73,19.15,26,9.53,13.27-13.39,39.25,11.95,43.75,6.43.52,11.39-2.52,16.6-5.65l1.34.44c-13.16,24.3-17.55,34.93-46.66,24.17-11.73-5.13,13.88-41.74,9-55.47-6.3-8-13-16.93-27.83-20.29-3.84,1.37-16.44,45.88-5.45,55.19.48,1.29,4.79,6.37-.15,7C696.17,436.41,692.11,448.26,712.07,415.06Z" transform="translate(-57.78 -9.24)"/><path d="M786.58,321.73l-2.67,8.18c9-2.16,37.51-1.41,40.41-7.4,1.3-3.27.34-6.9,12.16-7.37,10.13-3,2.51-6.69-3.74-6.8-17.38,1.58-34.73,3.56-52,5.73-10.26,2.84-1.77,5.46,3.44,7.83Z" transform="translate(-57.78 -9.24)"/><path d="M796.68,298.19l-3,9.07c7.56-2,37.31-.51,37.22-8,.19-3.63,2.25-6.1,12-6.46,14.65-.66,7.27-10.1-4-7.7-7.29,2.09-58.22,2.77-56,9.35C783.68,297.77,789.35,298.67,796.68,298.19Z" transform="translate(-57.78 -9.24)"/><path d="M807.14,274,804,283.41c7.67-1.93,32.36-.07,33.31-7.07-.11-4.42,3.14-7.11,13.86-7.49,17.59-.74,8.1-11.07-4.43-8.19-7.08,2.08-59.43,2.49-56.07,9.52C791.25,273.08,795.54,274,807.14,274Z" transform="translate(-57.78 -9.24)"/><path d="M818.1,248.09l-3.36,10c9.15-.88,17.55-1.45,25.5-2.6,8.73-3.17-2.48-11.62,19.52-12,20-.52,10.24-12.19-4.5-8.8q-22.07,2.22-44.49,4.3c-7.07.66-13.76,1.61-11.42,5.88C801.85,249.82,811.32,248,818.1,248.09Z" transform="translate(-57.78 -9.24)"/><path d="M830.49,220.4l-3.71,10.95c7.68-1.73,20.84,1.06,24.64-5.67-.47-6.31,5.68-9.18,18.39-9.21,2.16,0,5.19-.15,6.23-.83,9.84-5.22,3.15-8-4.21-8.9-19.4,1.36-38.86,3.13-58.2,5.31C797.35,219.29,823.41,222.5,830.49,220.4Z" transform="translate(-57.78 -9.24)"/><path d="M842,192.17l-4,11.64c7.22-1.83,18.38.71,21.86-6.22,0-6.7,5.58-9.8,16.7-9.94,1.89,0,4.56-.21,5.51-.94,8.24-5.19,4.48-8.31-3.08-9.42-17.06,1.63-34.15,3.7-51.13,6.18C813.73,190.87,834.55,194.62,842,192.17Z" transform="translate(-57.78 -9.24)"/><path d="M853.15,162l-4.23,12.4c7-1.85,17.92.51,21.11-6.62.28-7.14,5.72-10.44,16.35-10.6,1.81,0,4.36-.22,5.31-1,7.61-5.19,5.23-8.78-2.57-10.05-16.38,1.75-32.79,4-49.09,6.6C826.39,160.36,845.11,164.66,853.15,162Z" transform="translate(-57.78 -9.24)"/><path d="M865.41,129.89l-4.54,13.23c6.68-1.87,16.84,0,19.57-7.2.66-7.61,5.8-11.17,15.5-11.42,1.65,0,4-.27,4.9-1.11,2.08-1.93,5-4.58,4.74-6.41s-4.35-4.59-6.52-4.3c-15,2-30.1,4.49-45.07,7.44C841.69,127.73,856.67,133,865.41,129.89Z" transform="translate(-57.78 -9.24)"/><path d="M879.63,92.86l-4.75,13.81c6.28-1.36,12-2.29,17.61-4,7-5.74,1.66-16,16.2-17,4.59-.31,9-2.61,8.91-7.84-.05-5.77-4.73-5.43-9.66-4.29q-15.41,3.59-30.86,6.93c-4.85,1.06-9.52,2.5-9,8.32C868.56,95.5,874.69,92.92,879.63,92.86Z" transform="translate(-57.78 -9.24)"/><path d="M896.06,54.48l-5.31,15.28c4.29-1.2,8.26-1.91,12.11-3.57,7.89-6.36,2.18-17.36,17.44-18.85,4.28.17,8-6,8.51-9,0-2.11-2.72-5.14-4.45-4.73-11.88,2.79-23.81,6.13-35.69,10C880.1,50.11,885.42,59,896.06,54.48Z" transform="translate(-57.78 -9.24)"/><path d="M905.14,29.61c6.43-.8,9.92-2.08,14.48-6.07-1.22-1.72-2.18-4.8-3.76-4.84C909.82,19.12,906.77,23.09,905.14,29.61Z" transform="translate(-57.78 -9.24)"/><path d="M758.16,943.87c-5.92-2.92-8.21-5.9-11.69-8l0,0c-18.48-9.4-29.2-28-47.14-38.11a4.52,4.52,0,0,1,.52,0c.33-11-65.66-125.86-62.28-175.1,4.61-32.36-48.61-123.73-88.77-156l.4-.12c-44.5-3.31-61.38,48.28-89.74,70.1C601,781.2,445.53,735.43,604.52,884.5c26,16,11.46,83.77,28.2,81.85,20.61,5.3,41.71,4.78,62.59,11.71,21.76,11.61,68.81,28.54,88.33,4.17C799.7,962.18,773.05,951.78,758.16,943.87Zm-134.92-243c3.38,14.62,8.56,39.14,12.17,55.07,1,4.32-6.68,10.31-11.29,12.41C634.52,756.75,613.65,716,623.24,700.9Zm12.08,62.17c11,24,32.34,74.24,40.52,90.85.23,0,3.54,6,4.5,9.27,0,0,10.23,21,10.08,21.86-.5,2.89-.34,7.11-2.23,9.7-15.22.42-31.25,11.73-45.72,3.91a1.53,1.53,0,0,1,0-.43c-3.33-5.49-9-9.63-12-15.22q-.93-.79-1.89-1.68c-.19,0-31.45-51.61-32-52.4-1.21-1.82,49.86,60.05,50.3,59.78,3.86-4.12,13.11-4,17.71-8.33-19.49-22.79-46.08-57.66-61.62-80-10.28-14.44-1.45-27.12-15.74-36.7.28-.42,3.23-4.64,3.5-5.05C610.48,765.43,617.7,782.1,635.32,763.07Zm-58.39-29.61c-9.42-.58-13.4-23.56-15-28.37,9.09,5.16,8.55,27.31,18.46,20.62l0,.21c11.7-13.46,20.55,29.85,24.29,36.19-12.71-7.42-37.52-12.93-26.81-27.54A2,2,0,0,1,576.93,733.46ZM602.12,643a89.32,89.32,0,0,1,6.7,12.62c-10.57-7.2-37.47-3.34-33.85,9.57-2.46,12.85-5.69,25.28-9.35,39-11.57-1.8-8.42-10.18-15.54-14.81-9.08-4.46,7.75-33,7.72-42.29C565.14,646.89,600.05,638.46,602.12,643Zm-21.24-31.28c6.48,8.1,12.26,16.71,18.87,25.94l-30.67,5.27c-3.51-9.81-7.14-19-9.94-28.23C557.32,607.16,576.28,605.9,580.88,611.67Zm-52.33,86.79-21.19-21.15c.21-.11-15.49-15-15.86-15.4-31.33-31.58-23.11-19.23,2.37-55.77,5.09-.92,2.65,6.49,2.64,8.17C489.05,628.9,517,676,521.2,676.22c50.95-39.37-16.13-67.62-8.06-94.39,26.83-25.65,37.56-5.77,54.45,12.33l-1.17,1c-6.21-1.87-12.16-3.74-18.32-.91-23.39,14,8.11,36.38,3.34,55-3.18,11.59-4.74,24.45-9.78,36.27-6.33,2.61-6.26,6.68-5.27,10.8,1.12,5.84,7.43,6.23,13.69,7.26-6.21,3.7-11.54,1.49-17.51-7.35Zm6.12,6.39,10.61,2.88-11.57,8.87C534.07,712.16,534.32,709.08,534.67,704.85Zm76.44,168.89c-41-29-78.72-69.93-71.58-114.8,1.51-4.93,5.71-16.17,14-15.75-38.15,58.33,19.76,55.81,54.37,128.28C604.51,869.53,614.53,875.69,611.11,873.74Zm24,74.36c-2.89,1-4.28-.38-6.61-1.41-9.65-10.86,12.49-21.11,12.07-4.83,2,.4,3.9.69,5.82,1.12,1.62-5.59,7-17.2,9.78-23a5.21,5.21,0,0,0,1.19.75c-.73,7.48-2.88,21.52-3.43,25.25C653,955.75,641.41,948.83,635.08,948.1Zm26.63,5.08c-8.26-5.35,3.18-27.44-.89-29.86,27.11,16.13,22.84,22.86,16.6,36.33C677.42,959.65,668.14,958.22,661.71,953.18ZM683,958.3a5.26,5.26,0,0,1,6-4.14,4.72,4.72,0,0,0,3.56,1.28C703.66,964.32,679.5,972.86,683,958.3ZM708.5,973c-9.3-21.51-24.41-40-42.47-56.51-3.4-1-6.33-3.16-9.35-4.92a2.4,2.4,0,0,1-.2-2.23c10.75-7.65,25.66-8.56,38.65-9C706,906.3,714.85,915.05,723.22,924c14.45,14.19,27.69,19.17,47.06,29.49,6.52,3.81,15.77,11.69,14.8,18.89C778.33,999.57,723.56,985.59,708.5,973Z" transform="translate(-57.78 -9.24)"/><path d="M700.54,907.13c-4.17,1.46-19.75,11.71-17.93,15.74,1,.1,18.52-18.16,24.67-13.3C709.33,911.05,703.6,906.36,700.54,907.13Z" transform="translate(-57.78 -9.24)"/><path d="M721.19,923.78c-4.8,1.29-28.71,14.12-26,18,1.41,0,27-20.6,35.14-15.89C733,927.31,725.47,922.74,721.19,923.78Z" transform="translate(-57.78 -9.24)"/><path d="M222.13,931.13c-9.5-8.46-12.3-2.72-7.31-2.86a107.29,107.29,0,0,1,9.76,7.84c.44,1.06-.76,3.57.95,3.53C230.92,938.1,224.84,932.47,222.13,931.13Z" transform="translate(-57.78 -9.24)"/><path d="M190.18,946.84c-9.74-7.3-12.55-2.39-7.47-2.49a112.76,112.76,0,0,1,10,6.77c.46.92-.75,3.06,1,3C199.18,952.86,193,948,190.18,946.84Z" transform="translate(-57.78 -9.24)"/><path d="M601.44,37.53a51.06,51.06,0,0,1-11.21-5.19c-1.32,0-17.14.26-19.69.69,30.17,17.07,47.85,19.36,81.68,11.72-3.37-.79-11.59-3.51-14.89-4.52C625.71,37.77,613,42.42,601.44,37.53Z" transform="translate(-57.78 -9.24)"/><path d="M693.23,51.57c32,9.69,81.68-.65,80.84-4.58a.42.42,0,0,0-.44-.28c-36.21,1.71-59.81,7.32-101.8-12.14a.43.43,0,0,1,0-.79c13.42-5.59,35.47-11.89,42-21.31a.43.43,0,0,0-.54-.63c-73.4,31.45-73,2.93-140.79,6.51a.5.5,0,0,1-.24-.06C515.55-15.14,464,55.42,401.08,46.64c-19.7-2.31-23.29,9.6-37.75,12.91a.28.28,0,0,1-.13,0c-12.94-.91-14.08,9.92-23.2,14.67-15.87,10.88-76,6.31-68.17,31l0,.07c9.62,19-5,15,18.53,25.76a.45.45,0,0,0,.34,0c7.56-2.59,12.19-24.4,6.2-27.52,7.67,4.36,5.41,25.2-1.47,28.58a.4.4,0,0,0-.24.37c.12,2.2,4.9,4,6.5,5.81a.42.42,0,0,0,.57,0c6.67-5.35,21.06,1.2,32.4,1.42,18.79.8,25.62-3.32,41.61-5.2a.43.43,0,0,1,.14.84c-7.87,1.7-15.31,4.09-22.92,5.84-23.13,6.84-37.06-6-47.64.34a.45.45,0,0,0-.1.67c33.76,37.43,123.7,29.18,122.87,91.74a.41.41,0,0,1-.15.33c-2.86,2.49-8.46,5.32-21,8.24h0C328.43,255.93,325,277,282.74,323.36a.44.44,0,0,0,0,.54c3,4.14,16.53,24.54,19.05,28.94a.42.42,0,0,1,0,.43c-18.48,28.94-32.73,85.36-74.09,87a.43.43,0,0,0-.37.62c35.9,72.45,93.3-21.54,114.81-44a.4.4,0,0,0,0-.52c-3.78-5.58-10.58-17.69-13-22.05a.44.44,0,0,1,.64-.56c15.79,11.74,29.15,46.17,31.38,55.07,2.1,8.33-11.55,33.26,16.63,94.61a.44.44,0,0,0,.26.22c44.82,14.33,38.89,94.28,54.75,116.65a.43.43,0,0,0,.62.09c2.07-1.71,13.12-10.22,23.74-7.11a.45.45,0,0,0,.34,0c27.69-16.57,36.4-64.69,82.12-70.67,3.39-.44,4.14-3.51,4.77-6.68C561.31,470.26,602.73,425,606,421.5a.42.42,0,0,0,.07-.49c-1.54-3-15.42-30-18.71-41.94-.32-1.16,29,42.73,30.24,44.05l.06.07c11.34,20.22,16.67,36.95,32.67,53s36.52,37.2,39.32,41.68c29.92,41.49,76-9.86,97.07-37.07a.43.43,0,0,0-.48-.66c-35.16,11.15-68.24-26.81-102.13-33.71a.43.43,0,0,1-.33-.54c10.53-34.71,65.23-69.09,14.15-101.25a.43.43,0,0,1-.2-.31c-3.46-35.5-36.28-85.22-81-88.52a.42.42,0,0,1-.25-.12c-12-12-44.92-18.48-57.59-26.25a.44.44,0,0,1-.2-.3c-3.71-19.54,1.13-39.21-1.26-58.73,0,0,0,0,0,0-5.38-22.17-4.22-48.23-13.25-69.1a.43.43,0,0,0-.77,0c-4.17,7.21-4.72,15.71-10.67,22.59a.16.16,0,0,0,0,.07c-5.6,10.82-26.62,22.42-32.64,7.82a.43.43,0,0,1,.7-.46c6.18,6.31,17.51,3.48,24.19-3.45,13-13.48,13.88-22.08,16.3-40.43,1.68-21.11-22.07-30.68-36.75-18.61a.43.43,0,0,1-.63-.56c3.14-5.27,6.05-6.42,13.09-8a.43.43,0,0,0,.14-.78c-7.52-4.92-8.72-5.62-15.22-8a.43.43,0,0,1-.07-.78C560.3,16.59,610.31,26.45,693.23,51.57ZM394.58,94c-5.82-1.08-11.56-2.54-17.68-4a.43.43,0,0,1,0-.85c17.13-2.31,24.44,9.61,40-6.07a.43.43,0,0,1,.67.53C412.24,92.64,404.76,95.87,394.58,94ZM382.1,76.65a.38.38,0,0,1,0-.15c2.31-11.2,30.42-17.29,31.61-1.84C414.71,87.49,382.74,88,382.1,76.65Zm-6.41-1.28C383.11,54.22,406.42,50,418,66.08a.43.43,0,0,1-.64.57c-13.75-12.44-30-8.84-40.89,9.1A.44.44,0,0,1,375.69,75.37ZM507.6,80c3.34-2.06,4.69-2.57,8.51-2.82a.43.43,0,0,1,.25.8c-18.27,11.2,9.27,12.56,2.82,22.54a.44.44,0,0,1-.8-.24C518.21,91.4,494.15,90,507.56,80Zm-2-45.52c-9.33,3.13-18.59,4.77-29.46,7.59a.43.43,0,0,1-.33-.79c13.9-7.55,56.39-25.72,75.7-20.44a.43.43,0,0,1-.07.84C534,23.9,524.05,28.06,505.56,34.47Z" transform="translate(-57.78 -9.24)"/><path d="M472.38,43.23l.41-.23C472.91,43.11,473.22,43.28,472.38,43.23Z" transform="translate(-57.78 -9.24)"/></svg>