<svg id="graviclaw" xmlns="http://www.w3.org/2000/svg" viewBox="0 0 977.67 990.08"><path d="M100.48,231.37c-4.71,23.85-2.81,40.8,4.59,52.63,5.11,8.18,15.24,12.12,19.66,7.83-2.32-1.77-4.64-3.31-6.81-5.24a25.5,25.5,0,0,1-5.72-8.11,37.15,37.15,0,0,1-3.16-12c6,16.8,14.92,21.73,27.74,11.49,9.05-7.23,21-26.78,22.81-37.37-9,14.3-18.13,26.19-28.36,23.82,13.61-5.76,24.25-19.75,30.75-47.13,5-21,3.76-46.79,0-53.56-.07,7.43.05,14.2-.59,21.39a140.42,140.42,0,0,1-4.14,22.6c4-22.27,3.33-36.26-1.93-48.31-5.12-11.74-16.08-17.31-22.55-12.6,3.74,2.43,7.25,4.62,10.11,8.7s5.08,9.25,5.85,16.79c-5.62-16.06-14.05-21.77-26.35-12.66-9.76,7.21-17.88,20-24.28,37.89,4.54-6.45,9-13.14,13.89-17.75s9.69-7,14.56-5.4C112.1,179.12,100,199.15,95,224.85c-3.47,17.66-3.29,45.44.9,49.76C95.54,260.63,96.12,246.75,100.48,231.37Zm14.38-15c3.55-16.59,12.67-28.71,20.36-27.06s11,16.43,7.48,33S130,251,122.34,249.35,111.3,232.92,114.86,216.33Z" transform="translate(-10.45 -4.23)"/><path d="M967.33,783.91c3.46-10.13.5-26-2.25-36.24,29.63-10.48-25.33-111.86-47.77-117.24-7.3-7.9-2.56-19-15.85-26-8.94-5.76-18.27-11.14-29.48-5.24-33.63,16.49-64.49,38.12-99.52,51.5a142.57,142.57,0,0,0-7.89-17.26C753,612.58,752,593.73,721.87,596.12c-24.31-.18-20.48,53.19-50,74.79l-2-1.08c.28-1.65-4-2.46-6.19-1-3.35-8.37-18.78-21.54-22.9-30.37-1.28.45-2.63.89-4,1.3a13.83,13.83,0,0,0-6.51-.78,9.35,9.35,0,0,0-4.72,2.27,18.68,18.68,0,0,0-1.5,1.68c-3,.64-6.17,1.24-9.32,1.81-2.83-.34-5.6-.87-8.49-.42-3.11.48-5.62,2.54-8.7,3-2.6.41-6.32-.2-9,.77a22.57,22.57,0,0,0-5.1-.79c-2.78-.05-4.83,1-7.29,2.1-2.07.91-4.47,1.15-6.64,1.82A54.68,54.68,0,0,0,557,656.91c-58.38,13.29-127.81,12.9-153.77-30.7-.41-.68-2.45-8.33-4.41-7.84a12.5,12.5,0,0,1-4.9,0c-6.77-2.24-6.08-4.64-9.31-11.76C383,603.05,385.8,587,389,582.12c6.71-10.15,43.38-22.52,55.36-29.39,15.56-8.93,25-19.47,39.19-30.37,14.82-11.38,22.66-16.83,37.72-27.93,9.31-6.86,13.4-10.91,22.2-15.82,8.37-4.66,16.29-10.07,24.86-14.39a7.67,7.67,0,0,1,.89-.38c.49-10.08,1.06-16.14,1.06-16.14a327.69,327.69,0,0,0,32.61-48.52c4.77-11.93,5.57-27,5.57-27,3.18,4,15.91,20.68,15.91,29.43s3.18,19.88,3.18,24.65c-1.63,4.9-4.47,12.22-7.09,20.57-17.38,8-33.54,18.29-50.11,27.83-40.16,17.23-71,49.33-106.86,73l-.65.1.31.12a199.59,199.59,0,0,1-33.95,18.33c-15.59,5.73-36,13.35-38.19,32.35a23.35,23.35,0,0,0-.11,2.5c.53.74,1,1.49,1.52,2.25a5.26,5.26,0,0,0,1,5.62c2,2,4.86,1.67,6.93,0a34.41,34.41,0,0,1,3.22-2.31c18.33,64,117.06,57.08,166.69,37.18,13.93-7.18,16.5-.2,28.34-3.28,12.87-4.94,14.69,1.62,21.17-3.27,4.64-2.22,8.62-9.39,14.26-5.87,2.14,1.29,4.33,1.59,6.27-1,20.29-27,53.09-40.76,73-68.12l2.7-3.76q2.91-6.82,6.21-13.49c1.33-2.68,2.67-5.36,4-8.07a31.73,31.73,0,0,1,10.55-5.8c.75-.39,1.5-.75,2.25-1.07,3.24-20.16,5.61-40.32,4.75-50.58-4.77-26.25-29.43-75.56-33.41-81.13s-5.56-15.12-7.16-18.29c.8-38.18,4.91-47.1,1.6-62-4.13-18.61-26.25-50.91-31-59.66-3.18-36.59-2.39-46.13-6.36-51.7s-12.73-34.2-44.55-47.72c-10.48-4.08-26.5-.91-34.33,1.08-2.69.69-6.91-.23-12.79.75S559.93,166,559.93,166c-31.82-13.52-66-22.08-79.54-26.06s-20.68-10.34-24.66-19.09-3.18-19.09-5.56-29.43-5.57-24.65-8-28.63c-1.73-2.89-15.6-14.14-28.55-19.49a9.47,9.47,0,0,1-.7-6,4,4,0,0,1,.17-.59,8.12,8.12,0,0,1,.42-1,10.77,10.77,0,0,1,2.61-3.09l.15-.15v0c2.35-3.45,6.09-4.86,8-8.88,3.68-1.51,6.94-.12,10.43,1-2.82-4.44-6.26-8.92-11.74-6.81-2.47.2-2.74-1.09-5.18,1.78-4.4,5-7.52,11.22-12.36,15.53.46-2.92,1-5.81,1.3-8.78.51-4.89,3.62-8.43,3.36-13.68,3-3.61,7.18-4,11.44-4.78-5.44-3.07-11.55-5.81-16.09-.59-2.47,1.58-3.47.39-4.41,4.73-2,7-1,15-3.92,21.53a2,2,0,0,0-.21-.37l-.27.23c-5.8-4.15-6.38-11-11-16.75-2.61-3.77-3.09-2.24-6.07-2.78-6.4-3.19-11.15,1.85-15.14,6.92,4.38-.91,8.53-2.21,12.81,0,2.16,5.72,7.44,8.15,9.62,13.67-7.11-2.08-12.84-8-19.67-11.13-3.94-2.07-3.67-.55-6.47.32-6.94.09-8.76,6.52-9.91,12.64,3.36-2.73,6.34-5.68,11-5.64,3.87,3.57,8.6,3.48,12.69,6.24,3.31,2.28,6.66,5.45,10.09,8.22-14.47,6.11-31.46,17.28-37.13,28.06-4.78,8,6.36,50.1,22.27,81.12,8,6.37,11.13,4.77,11.13,4.77l0,.12c9.37-1.6,30.15-7.72,42.94-16.75-9.8,11.54-23.38,14.45-32.49,17l1.47,10.78s-25.81,14.24-43.79,29.39a20.36,20.36,0,0,1-11.46,4.76,21.29,21.29,0,0,0-13.65,6,13,13,0,0,1-5.11,2.94c-15.79,4.87-32.39,12.84-41.33,28.48-9.54,16.7-14.44,49.31-5.69,70.79-8.14,24.4-8.9,49-5.7,66.81,1.45,8.08,2.42,14.7,5.95,22.12,2.79,5.9,5.37,11.91,8.08,17.85a6.7,6.7,0,0,1,1.87,2.95c1.9,6,6,11.4,9.87,16.8-.07.44-.14.92-.14.9a61.63,61.63,0,0,1-2.14,8.59c-19.22-37.19-63.57-84.91-62.34-106.45,3.92-68.58-.37-71-6.34-108.57-4.86-17.91-8.92-43.24-30.31-47.81-4.41-.85-6.91,2.18-5.49,6.46,3.58,10.75,4,21.76,2.7,32.89-.33,2.79-.64,5.3,1.14,7.83,1.23,1.75,1.54,3.87-1.82,3-1.93-.5-2.2.5-2.2,1.82.66,5.57-4.53,10-3,15.43,3.52,10.44-15.49,3.65-16.83,23.17-1.5,5.46,7,4.5,0,11.06-13.73,12.7-1.94,24.38-6.55,38.23a20.4,20.4,0,0,0-1.1,10.77c-18,30.74-44.49,4.08-64-9.89-36.74-19.86-59.74-87-20.65-114.14,2.55-.76,3.25-3.52,3.11-6.11-.16-2.93-2.67-2.85-4.67-3.44C11.59,199.21,4.5,290.7,25.78,330.84c8.95,20.41,22,37.88,37.78,53.4,4,3.91,18,14.75,15.83,19.07,7.35,13.23,26.06,12.3,26.94,13.23,40.86,47,29.53,115.48,90.78,140.14,8.49,3.49.62,12.74,12.86,13.31,15.66-1.33,18.52,3,31.86,8.14,44.93,7,3.83,19.7,51.23,10.66,6.46-1.16,12.95-2,19.53-1.5a9.64,9.64,0,0,0,7.82-2.85c.87-.78,1.76-1.54,2.65-2.3,8.78-1.91,18.32-5.56,24.5-11.16,13.69-12.39,29-36.52,30.11-56.65l3.51-4.85c1.58-4.63-1.82-31.92-6.74-56.36-3.77-5.63-7.37-11.35-10.68-17.27a210.74,210.74,0,0,1-11.26-22.8l-1.41.1c-11.45-30.41-16.8-76-10.84-97.81-7,36.52,12.91,79.51,18.73,90.81l-.28-1.4S371.42,429.4,373.81,435c6.37,13.53,18.3,27,22.27,28.64,6.36,18.29,11.14,60.45,11.14,60.45a61.94,61.94,0,0,0-12.72,15.52,1.25,1.25,0,0,0-.12-.08c-6.3,14.78-63.46,94.73-78.44,102.81-17.22,10.59-44.68,9-51.1-13.33-11.92-71.07-62.15-30.34-77.22,27.74-40.43-3.08-79.3-14.44-119-22.11-11.82-2.38-18.81,5.49-25.33,13.61C33.09,658.75,40.48,668,36,677.69,17.15,689.38-4.71,802.38,25.11,803.77c-.42,9.15,2.4,18.08,3.86,27.13,2.76,8.88,9.76,15.36,17.66,19.83C59.35,904.94,67,975.32,116.5,990.52c-25.9-26.77-24.83-35.58-30.88-73.42-.25-15.74,20.16-13.7,17.84-34.85-3.9-34.51-2.52-64.33,8.61-88.06,1,11.49,12.32,22.4,18.66,31.11,18.6,31.73,27.59,77.38,63.48,92.32-35.6-49.18-33.1-101.48-44-163.18a126.17,126.17,0,0,1,15.09-7c-2.44,11.62-4.57,21.35-6.51,27.91,5.28,13,4.15,27.69,15.3,37.35,12.47,14.36,20.2,30.25,40.75,33.73-12.5-22.35-28.22-47.59-18.49-72.94.29-2.81,1.16-12.24,2.13-22.9,40,6,58.23,7,83,7a145.41,145.41,0,0,1,63.23-1.08C452,808.27,438.48,806.12,553,778.92c9.84-1.06,19.84-1.45,29.66,0,8.9.93,17.51,4.47,26.41,4.79,36.38,12.2,104.26,84.1,144.52,24.84a43.34,43.34,0,0,1,9.68-17.11c1,24.46-13.16,40.08-25.61,60.09,21.81-2.28,30.81-17.69,44.72-31.3,12.26-9,11.89-23.69,18.17-36.4-.48-5.4-1.27-10.79-2.21-16.17,9.46-5.22,18.58-10.64,25.39-17.85v.06a142.1,142.1,0,0,1,17.86.23c4.75,12.86,11,25.3,11.06,39.26a23.32,23.32,0,0,0,3,11.32c17.26,30.73,21,68.09,18,102.45,30.09-39,3.36-92.06,15.6-136.15,23.8,18,36.87,49,45.18,88.49,4.45,20.78,23.07,11.75,27.77,26.69,6.16,37.82-1,77.85-17,112.13,43.07-33.18,46.14-116.67,41.11-171.08C979.42,808.3,973.23,795.31,967.33,783.91ZM521.65,601.39c-2.71,9.2-14.89,7.38-20.18,14.56-4,2.89-8.7-3.48-18,5-16.38,10.19-62.87,4-73.3-17.68a64.29,64.29,0,0,1,20.67-3.93c6.15-.27,12.3,0,18.44.22,5.7.23,11.22.59,16.54,2.83,5,2.11,10,4.91,15.65,4.8a18.37,18.37,0,0,0,8-2.19,21.33,21.33,0,0,1,2.94-1.39c.87-.28,1,.13,2,.64,5.57,2.76,11.28,2.37,16.89-.09,4.68-2.05,8.42-5.47,12.59-8.33A13.51,13.51,0,0,0,521.65,601.39ZM366.54,98.84c-8.75-1.77-20-5.24-12.06-9.85,6.42-3.74,12,0,15.74,4.08C372.83,96,370.17,99.57,366.54,98.84Zm18.52-7.94c-2.83,3.12-7.11,3.75-6.87-.45.35-6,1-15.18,11-15.28C397.32,75.1,391,84.4,385.06,90.9ZM108,718.65c-40.1,30.52-51.3,57.27-59.8,120.18-3-6.59-8.23-33.86-7.74-41.48,11.4-12.12,14.78-3.47,13.68-26.15,1.62-13.05-.76-26-1.26-39,1.07-15.73,8.25.15,19.09-30.75,1-5.93,5.72-11,12.87-9,11,1.28,22.27.56,33.54.54C114.18,701.18,108.89,710.39,108,718.65Zm97.48-21.53c.41-1.7.84-3.4,1.27-5.09,11.46-.85,19.66,1,30.28,8a52.84,52.84,0,0,0,1.34,11.75C227.15,707.71,216.1,702.13,205.44,697.12Zm42.9-25.36c-10-.91-22.38-5.62-33.2-9.26,4.43-14.06,8.22-24.22,9.27-26.12,8.55,11.19,17.42,22.26,25,34.21Zm490.87-30.48c.87,1.7,3.54,9.67,6.75,21-11,4.16-23.87,12-35.17,12C719.48,662.68,729.52,652.05,739.21,641.28ZM691.54,710.1C705.73,706,722,706.45,736.48,701A70.64,70.64,0,0,1,751,696.23c-19.71,13.39-40.65,25.89-63.53,23.48A88.18,88.18,0,0,0,691.54,710.1ZM653.7,756.34c44.58,28.24,65.91.57,105.75-17.38,0,.58,0,1.16.07,1.75C725.14,771.15,688.94,795.63,653.7,756.34ZM874.15,701.2c-1.56-11.21-11.79-24.13-21-35a166.35,166.35,0,0,0,19.34-6.67c6.64-4,12.82-.65,15.61,4.7,19.93,26.23,22.53,8.84,28.2,23.55,3.16,13.35,5.4,26.83,10.58,39.6C913.14,715.63,896.76,707.83,874.15,701.2Zm68.47,42.67a43.19,43.19,0,0,1,5.16,2.37,28,28,0,0,1,1.75,7.08C947.25,750,945,746.83,942.62,743.87Z" transform="translate(-10.45 -4.23)"/><path d="M493.76,608.37c-1.45-.75-2.76.39-4.08.86a43.47,43.47,0,0,1-9.64,2.46c-6.64,1-16-4.73-21.48-6.06-9-1-25.48-2.93-35.77,3.43,2.13,7.68,48.39,16.88,57.49,7.21a39,39,0,0,1,4.76-3.09,62.89,62.89,0,0,1,7.85-1.52c2.14-.11,4.72.88,6.38-1.11C500.26,609.54,494.55,609.09,493.76,608.37Z" transform="translate(-10.45 -4.23)"/></svg>