<svg id="hippochamp" xmlns="http://www.w3.org/2000/svg" viewBox="0 0 983.09 988.43"><path d="M192.37,392.55c-8.24,5.18-15.34,10.56-20.39,18.84-4.08,6.88-11.54,2.49-17.46,6.79C138,432.67,117.2,441.5,98.86,442.72c25.51,11.9,51.28-24.23,64.86-20.44,5.77.49,12.31-8.39,15.81-13.42,16.43-16.29,36.16-28.51,53.57-43.65a625.8,625.8,0,0,1-82,79.68c-18.3,2.93-43.23,6.22-56.4,18.32,19-5.1,37.14-14.68,55.26-13.67,44.74-28,75.16-79.88,120.68-108.12,4.7-2.78,9-6.81,13.48-10.26-.22-.55-.45-1.09-.67-1.63C252.83,349.78,221,369.25,192.37,392.55Z" transform="translate(-9.37 -7.31)"/><path d="M235.75,383.23c-6,9.9-18.38,10.87-25,20.12-7.29,9.67-12.55,19.95-19.66,29.77-5.6-4-7.57-7.37-13,2-6.41,7.56-32.21,68.41-32.3,36.68-9.14,5.34-4.94,25.82,7.47,12.33,12.19-14.52,18.72-33.08,29.38-49,13.15,11.5,19.57-15.62,27.71-24.37,6.44-10.95,20.82-13.61,27.94-23.68,12.27-19.66,32.45-32.95,45.59-51.82C264.91,346.58,249.64,366,235.75,383.23Z" transform="translate(-9.37 -7.31)"/><path d="M183.22,478.3c-14.93-14.85-40.07,89.6-38.47,48.94-4.8,1.86-5.73,12.41-2.27,16.51,18.12-13.75,22.07-40.52,33.79-59.62,7.45,1.53,8.39.86,12.36-6,7-12.53,15-24.6,21.69-37.34C197.92,448.16,191.16,466.26,183.22,478.3Z" transform="translate(-9.37 -7.31)"/><path d="M593.85,192.45c-12.92.76-24,9-32.65,19.13a2.29,2.29,0,0,1,.15.86c6.31,10.6,10.4,22.63,13.26,34.75,12.44-6.54,27.18-4.7,39.75.38C613,226,573.08,217.08,593.55,194.15Z" transform="translate(-9.37 -7.31)"/><path d="M428.09,28.49c-11.21,30.05-10.25,65.17-1.61,95.74,1.6,5.68,26.63,12.61,38.33,19.47,4.73-22.89,12.65-45.29,25.84-64.29-31.84-5.77-61.8,28.09-62.66-30.15C427.72,42.34,428,35.42,428.09,28.49Z" transform="translate(-9.37 -7.31)"/><path d="M607.52,309c-6.9-8.25-17.9-6.19-27.12-5.64,1.78,8.31,1.13,17,1.72,25.47,8.76,6,17.86,11.31,24.69,20.06C607.85,336.85,596.68,317,607.52,309Z" transform="translate(-9.37 -7.31)"/><path d="M515.53,166.84c15.44,7.7,27.72,21.33,38.28,35.29,8.65-13,23.12-20.75,37.39-23.84-10.28-10.27-25-13-37-20.8-11.12-6.17-4.85-17.52,2.08-24.83C539,135.93,524.36,151.29,515.53,166.84Z" transform="translate(-9.37 -7.31)"/><path d="M495.85,234.85c-4.08,3.64-2.43,10.9-3.69,16.19,12.54,5.27,21.66,15.23,26.88,28.09,3-18.26,2.27-36.82,20.89-47.48C525.75,225.06,510.29,229.07,495.85,234.85Z" transform="translate(-9.37 -7.31)"/><path d="M523.31,200.31c-10.82,8.48-18.78,16.4-33.26,16.71,1.44,5.85,2.71,11,4,16.21,14.16-4.86,24.23-10.83,39.26-6.92C529.78,220.65,523.73,204.31,523.31,200.31Z" transform="translate(-9.37 -7.31)"/><path d="M494.19,103.29c.68-5,1.68-10,2.56-15-14.41,15.45-17.35,38.4-23.07,58.33,11,4,22.37,7.48,32.53,13.71,14.17-15.06,25.15-31.59,46-35.93C535.89,106.77,490.88,140.05,494.19,103.29Z" transform="translate(-9.37 -7.31)"/><path d="M612.74,302.56c-1-13.61-24.18-35.12-6.44-43.82.93-.44,1.87-.83,2.93-1.25-9.5-5.44-21.37-2-31.13,1.27a2.62,2.62,0,0,1-1.84,2,101.37,101.37,0,0,1,3.84,30.09C591.32,291.31,604.3,294,612.74,302.56Z" transform="translate(-9.37 -7.31)"/><path d="M608,360.81c-8.94-5.62-17.24-12.73-25.89-18.73l-.1.15c-.18,15.66-2.61,31.38-2.17,46.94.35,9,8.37,14.45,13.64,20.49.13,0,.27,0,.4.06,9.28-5,20.18-5.79,30.52-5.89-7.14-9.63-19.32-13.69-22.5-26.14C600.26,370.46,601.92,363.87,608,360.81Z" transform="translate(-9.37 -7.31)"/><path d="M631.3,411.91s-15.91,0-27.84,7c0,0,22.54,32.25,27.84,43.46,0,0,14.59-8.41,27.84-7C659.14,455.37,623.35,428.74,631.3,411.91Z" transform="translate(-9.37 -7.31)"/><path d="M664.45,461s-25.19,11.22-23.87,14c0,0,18.56,21,41.1,28,0,0,15.91-8.41,34.48-9.81C716.16,493.23,664.45,480.61,664.45,461Z" transform="translate(-9.37 -7.31)"/><path d="M419.31,518.07c-1.14-2.52-2.51-5.44-3.56-7.78-1.57-2.6-3.36-5.12-5.11-7.71-1.43-2.12-3.33-4.2-2.85-6.95.59-3.34,2-3.9,3.52-7.32a11,11,0,0,0,1.13-4.15c.64-6.4-1.35-11.13-5.13-15.85-.18-.23-3.59-4.07-4.62-5.45a3.62,3.62,0,0,1-1.15-1c-.5-.62-1-1.25-1.51-1.87a3.46,3.46,0,0,1,0-4.77,16.64,16.64,0,0,0,4-7.73c-12.4-9.69-27.46-20.32-43-12.16-17.77,9-35.66,17.66-54.85,22.56-10,4.35-20.81,8.7-31.75,5.84-13.61-5.88-22.84,9.32-18.88,22.4,1.51.15,2.72,1.65,3.68.07,5.91-12.28,7.47-12.56,1,1,44,16.85,36.39-20.63,78.18-20.55,11.32-4.76,31.59-10.4,39.41,3.14,7.57,14.76,18.9,27.42,28.21,41.11,2.76,4.07,9.35,7.52,13.79,9.28C419.68,519.42,419.51,518.74,419.31,518.07Z" transform="translate(-9.37 -7.31)"/><path d="M733.15,500.19c-10.48,1-22.77,2.79-30.51,10.92.45.34.8.78,1.27,1.09,17.55,4.31,41.73,9.13,55.63-6.2C750.65,503.89,741.16,511.51,733.15,500.19Z" transform="translate(-9.37 -7.31)"/><path d="M804.32,512.15s-18.56,5.61-30.49-2.8C772.62,518.67,786.15,534.66,804.32,512.15Z" transform="translate(-9.37 -7.31)"/><path d="M823.07,512.56c-5.89,13.19,16.29,14.28,21.12,3.92,8.72-9,2.25-4.61-8.71-3.63a17,17,0,0,1-10.53-2.1A5.4,5.4,0,0,0,823.07,512.56Z" transform="translate(-9.37 -7.31)"/><path d="M880,509.36c-1.31-.52-4.55.31-6.16.43-1.14.08-4.14-1.1-5.65-1.31C865.8,518.8,876.22,513.22,880,509.36Z" transform="translate(-9.37 -7.31)"/><path d="M991.46,585.32c-34-34.75,10.7-10.86-14-31.49h0c-.39-.28-.73-.64-1.11-1-.71-2.34-11.68-6.31-16.64-9-.13-4.27,6.68-2.6,5-6.73.74-10.83-39.08,1.36-29.62-11.71,8.38-6.09-5.8-7.16-9.68-6-5.66,1.83-12.41,2.86-18,2.15-10.43-3.07-1.09-8.16-5.44-12.23-11.12-12.23-40.28,27.3-38.12-2.41-2.74-11.15-19.37,17.55-24.91,18.6-12.49,6.6-31.64-7.94-15.28-18.8-.71-12-25.49,17.46-30.73,18.35-11,6.55-28.58-6.56-20.43-18.9,3.08-12.3-19.83,13.3-30.61,12.68-14,1.91-32.15,1.57-44.51-6.07,5.66-14,24.42-13.73,36.65-16.77-3.88-2.7-42.55,4.52-52.35,12.05-17.85-7.29-35.29-18.27-47.88-34.72,9.53-6.78,21.26-11.81,32.26-15.11,0,0,5.3-1.4,0-1.4-13,.67-26.32,3-36.81,11.37-10.49-16.81-20.63-35.09-33-50.51,11.14-6.6,27-7.94,38.55-8.34-3.1-3.2-31.11-2.57-42.71,3.79-6.86-7.46-17.47-14.4-16.21-26.26a1.5,1.5,0,0,1,.07-2.08c.29-15.58,1.53-30.74,2.34-46.22,14.59,3.62,25.66,17.77,37.27,27.1l.38-.24c-9-13.57-19.92-25.62-34.69-31.95,0,.05,0,.11,0,.16-1.06-.4-2-.59-3.11-.91-.72-6.49,0-13.15-.84-19.62l.09-.11c-.32-2.55-.19-5.25-.6-7.75-.45-1.61-2.69-3.42-1.15-5,17-3.14,27.6-.35,41.33,13.59-8.72-14.76-22.09-20-38.68-18.24a.76.76,0,0,0-.08.11c-.79,0-1.32.32-2.11.28.05-13.6-2.27-26.68-4.57-39.61.54-.22,1.08-.4,1.62-.6a2.59,2.59,0,0,1,.33.17c17.91-7.69,36.86-7.79,50.37,9.05-3.87-6.82-7.82-12.48-14.18-14.89,0,0,0,0,0-.07-12.85-3.3-25.88-3.84-38.13,1.87a214.92,214.92,0,0,0-14.28-38.43,1.91,1.91,0,0,1-.9-1.06c1-1.58,2.77-2.86,2.89-4.84C577.43,185.05,600,188,619.72,190.87c-25.83-11.79-44.82-8.21-67.15,16.85-10.49-16.57-26.77-28.86-41.05-40C523.2,143.69,544.73,129,570,128c-28.87-10.6-47.95,16.1-64.56,36.74-9.93-6.18-21.19-9.27-31.94-13.57-1.29-.57-3.73-1-3.3-2.95,6.12-26.44,12-58.36,35.76-73.7-27.46,7.22-32.29,49.35-40.86,74.45-13.08-7.9-31.27-11.51-41.24-22.31-16-38.28-12.42-83.85,8.15-119.34-20.42,23.23-26.69,53-23.4,85.63-.19,17.93,12.48,38.69,3.76,55.19-7.94-5.1-15.36-11.79-25.08-11.89,10.16,12.86,23.84,27.8,15,45.3-26.89,56.38-67.82,105.56-132.87,112.93l0,.31c-1.79.19-3.5.45-4.9.53-11.32,1.25-11.13,9-2.92,15.45,1,2.63,9.4,10.44,15,12.57,0,.66,0,1.32,0,2-34.56,24.47-75.28,40.78-105.77,70.63-16.73,18.95-41.47,15-60.91,24-51,26.39-87-4.84-99.49,23.39-5.68,15.26,13,18.59,25.33,12.56,16.79-6.73,31.75-6.11,45.59-2.9-16.24,15.46-32.92,8.43-49.73,12.39C20,465.64,2.71,481.7,15,488c14.81,2.76,33.15-4.1,49.63-7.12C78.79,478,137,457.41,99.17,488.68a141,141,0,0,0-34.6,30.83c-12.31,13.09,4.47,12.4,12.91,6.54,14.11-8.51,26.81-24.07,41.81-28.21.88,13-14.51,27.87-10.52,40.21,13.12-5.14,17.27-17.15,26.81-27.49-.11,21.75-17.41,45.82-21.11,68.36,8.4,39.11,37.05-39.95,47.69-46.73,10.75,47.87,36.62-51.15,40.64-61,8-25.52,17.81-10.79,23.23-28.75,7.09-21,23.92-39.81,33.78-60.39,8.65-19.09,24.16-33.71,38.7-48.43,5.86,4.32,26.31,5.16,29.92,3.89,5.37-.48,6.54-8.36,5.19-12.79a17,17,0,0,0-1.42-2.51c13.52-32.1,59.12-74.48,91.09-58.94a255.66,255.66,0,0,0,27.24,14.46c36.37,13.39,51.09-57,23.68-77.34,7.29,2.75,10.13,15.61,18.29,13.56,12.4-2.74,22.69-10.65,32.84-18.43.83-.52,1.66.15,1.57,1.26,1.63,13,6.58,26.75,15.85,35.34L530.9,244.28c61.4,93-68.39,179.25-46.49,264.5l-.35.16a3.13,3.13,0,0,0-.3.2,5,5,0,0,0-2.74,1c-25.83-89,106.88-173.58,47.29-260.82-4.83,9.14-5,26-10.31,34.51l.06-.35a.3.3,0,0,1-.13,0c0,.13.05.25.07.38-5.91-12.91-14.87-24.27-27.38-30.22-19.48,28.57-3.59,24-6.51,51.62-.23,5.92-1.33,11.68-5.42,15.66,5.93,1.29,23.62,13.42,17.62,11.42-6.22-2.07-16.12-4.79-22.66-5.46a26.17,26.17,0,0,1-1.32,5.72,9.79,9.79,0,0,1-1.58,4.33,11.3,11.3,0,0,1-2.65,2.65,14.73,14.73,0,0,1-7,4.83c-.75.31-1.5.58-2.26.87,1.33.37,2.62.82,3.95,1.18,10.54,2.88,23.54,16.88,19.54,14.88-3.53-1.76-19.17-7.72-22.9-8.87-1.45-.44-2.9-.84-4.36-1.24a2.41,2.41,0,0,1-.08.25c-.27,2.85-.54,5.49-2,8.21a28.59,28.59,0,0,1-6,7.72c-3.53,3.14-7.23,5.41-10.49,8.23,2.93.95,5.83,2,8.68,3.25,5.26,2.31,22.06,18,15.16,13.45-4.34-2.86-14.29-5.81-19-7.79-2.12-.89-4.26-1.66-6.42-2.36a31.41,31.41,0,0,1-2.62,15.51,36.89,36.89,0,0,1-6.64,9.73,18.64,18.64,0,0,1-3.38,3c8.18,1.48,30.07,15.95,24.07,13.95-8.09-2.7-19.78-6.55-28.18-7.85.45,12.41-3.47,23.8-8.27,34.87-.23.69-.49,1.37-.77,2,7.45.82,26.22-.05,32.22,6.95,1.25,1.45-23-4-31.7-.16,7.7,8.63,12.83,19,7.7,31.16,7.79-1.19,23.42-2.58,29,3,0,0-21,1-30,4,1,1.36,2.86,4.91,3.51,5.87,4,5.82,6.82,11.72,7.14,18.65.64.27,1.29.52,1.94.77a3.21,3.21,0,0,1,1.13-.82c7.15-3.24,29.91-1.85,26.28.53-.53.35-14.37,2-19.48,3.91.91.44,1.82.88,2.73,1.35l-1.27-.22c18.18,11,18.62,5.87,27.48,2.37,10.54-6.41,25.41-21.2,30.27-25.91,2-2-14.73,22.5-25.27,27.84-5.32,4.29-15.19,10.14-21.23,8-22.63-12.68-47.86-18-72.63-23.93-45.72-16.63-52,21.51-68.9,55.43-.11,1.08-10.72,31.46-18.4,34.74-7.08,2.86-15.56,1.31-20.65,8.32-2.12,7-4.78,15.92-2.67,21.08,2.31,0,2,0,4.06,0,5.38-12.09,5.31-9.17,2.75,0a83.09,83.09,0,0,0,25.64-3.59,10.14,10.14,0,0,1,3.22-3.06c3-6,8.81-8.19,11-14.82,5.05-16,11.9-31.3,18.15-46.68,12.83-52.29,96.15,42,131.21,43.17,23.34-8.33,24.11-17.93,35.32-29.43.59-.84,11.56-11.79,14.51-14.14,1.83-1.45,5.58-4.21,5.54-4.25a5.84,5.84,0,0,0,1.63-1.08,4.11,4.11,0,0,1,1.24-.76c3.06-2.18,13.67-6.18,11.73-4.09a53.93,53.93,0,0,1-8.26,7c26.14,21.28,66.45,42.58,126.3,64,14.27,7.9,30.73,15.32,40.79,29,1,1.9-19.12-12.34-22.71-14.82-71.17-25.91-117.85-51.24-147.21-76.13-2,1.4-4,2.81-5.92,4.33-3,2.39-5.95,5-8.83,7.53a25.9,25.9,0,0,0-3.83,4.07c-1.14,1.59-2.23,3.21-3.52,4.69a2.05,2.05,0,0,1-.85.6c-4.71,8.58-12.93,17.54-21.93,22.54,7.22,4.46,14.85,6.2,20,13,4.9,6.48,4.79,9,6.72,17a3.33,3.33,0,0,1,0,1.33c.08.23.14.47.21.71,16.54-9.53,24.67-19.7,38-33.06,4-4-15.66,27.13-31.89,37.26,3.41.29,25.05,10,29.89,12.74,6.54,3.67,12.72,9.37,15.4,13.1a9.19,9.19,0,0,0,2.38,2.37c1.36-1.54,2.6-3,3.62-4,3.9-3.61,7.74-7.24,11.39-11.12,6.52-6.91,10.78-10.79,14.21-20.36,2-5.68-1.61,16.83-9.44,25.14-3.58,3.8-7.48,7.26-11.24,10.87l2-.52.5-.13c6,.09,23.15,1.38,29.64,2.77,6.49.44,13.28,3,17.53,8.4A99.35,99.35,0,0,0,625.61,675c5.24-6.44,10.57-12.55,13.17-20.59,1.33-4.12-1.7,17.12-7.36,24.08-2.18,2.68-4.44,5.22-6.8,7.65,23.48-4.82,50,12.16,61.6,19.38-15.68-5-42.69-24.53-64.26-12.11l-.09,0c-3.21,41.83,3.84,85.26,26.84,120.47,5.57,11.62,19.67,21.1,19.11,35.54-20.47,36.1-28.28,79.63-51.39,114.28-9.59,5.27-26.81,3.78-29.57,17.91-1.35,13.75,16.23,7.73,24.06,8.31,8.47-.19,18.05,1.2,22.39-8.85,6.06-10,12-18.94,17.18-29.38,15.83-26.42,36.28-45.41,49.47-73.88,7.39-12.65,19.54-25.76,16.52-32.67-8-18.22-31.72-27.16,2.64-80.43,18.14,26.55,38,52.47,64.22,70.89.12,11.55-8.91,21.83-13.2,31-6.62,12.92-13.39,25.78-19.52,39-8.21,17.33-12.87,36-22.62,52.48-5.6,21-29.85,7.53-34.36,28.62-.48,17.4,24.32,4.24,34,5.89,17.89-.35,20.32-39.61,31.67-52.78,16.37-23.34,39.46-40.27,54.42-64.89,7-14.34,23.2-27.33,22.37-39.7-.19-2.81-2.27-5-3.32-7.4-58.61-134.66,57.68-91.84-9.82-229.37,27.19-31.75,73.7-50.84,109.42-29.67v0c14,9.59,20,37.59,15.1,50.15-8,35.24-80.14,39.54-70.77-4.53,2.42-2.06,3.64-22,45.49-21.35.05-.41.1-.82.16-1.23-10.21-4.61-21.14-1.29-31.42-3.51-8.06,3.69-17.22,8.29-26.43,7.78-1.45.07-1.91,1.85-1.66,3.1-2.88,6.75-2.43,12.37-11.32,10.58h0c-2-1-3.73,2.08-2.06,3.57a4.33,4.33,0,0,0,1,2.64c-.71,3.66,6.92,8.59-1.56,12.81-4.29.31-1.39,4.75,1,5.83,4,5.2,9.2,6,3.12,12.34-1.89,8.86,17.76,3.45,10.17,14.5h0c-3.22,7,11.49,1.21,14.81,2.85.85,15.66,22.19-2.71,22.07,9.9,4.1,7,18.78-12.12,26.34-5.2,7.38,1.76,13.48-9.59,19.24-9.23,2.13,1.13,3.37,6.13,6.19,3.4,5-4.49,8.06-17.56,15.11-15.94.69,3.17,4.41,2,4.28-1,5.42-6.56,1.06-22.51,10.85-22.11v0a1.62,1.62,0,0,0,1.19-.27l.19.23.38-.25-.12-.34a2.24,2.24,0,0,0,.56-1.58l.1.15c3.48-12.43-10.37-27.2,5.37-31.26C992.66,591.79,993.24,587,991.46,585.32Zm-706.86-243c-11.87,8.82-19.06,19.8-25.72,31.8-11.61,21.69-27.15,42.55-36.58,64.69-5.1,16.23-9.71,6.09-16.58,16.24-18.87,28.88-14.58,64.9-37.07,87.38-.45-52.76-29.5,33.3-43.64,37.23-13.1-8.38,12.12-45.36,15.8-59.17,3.32-8.38,2.41-13.41-1.74-13.8-8.8-3.4-19.45,24.3-27.64,25.15,43.6-89.88-26.86-2.3-46.51-7.07,3.19-13.08,82.5-59.21,44.55-60-21.66,3-78.79,27.46-94.2,15.59C31,460.21,58.5,473.28,77.44,462.68c23.48-22-23.43-16.82-34.89-12.74-13.39,6.26-32.6,9-27.44-9,12.37-14.88,46,6.78,86.54-13.1,19.81-7.67,40.07-11.29,59.83-19.6,29.69-27.45,66-44.83,99.22-68.78,8.85-6,18.06-11.18,27-17,4.16-2.7,6.58-2.09,9,0C301.81,326.68,288.92,338.1,284.6,342.29ZM309.74,327c-.11,3.17-3.25,2.46-5,1.44,3.2-11.42-9.76-17.84-18.47-13.35a18.12,18.12,0,0,0-2.88.67c-1.82-1-2.94-3-4.25-4.7.69-.6,1.6-.48,2.4-.77l0-.1C293.15,304.07,313.34,310.41,309.74,327Zm116.82-132.3c.13,5.77-13,9.85-13,9.85,8.41-6.43.72-23.13,19.76-22.61C433.35,181.9,426.42,188.71,426.56,194.66Zm274,472.41c-1.9,32,9.58,70.54,9.28,72.91-25.19-68.7-15.26-124.23,4-131.79C697.58,634.47,700.51,667.1,700.57,667.07Z" transform="translate(-9.37 -7.31)"/><path d="M412.54,141.33c.46-1.55.3-5.07-1.33-16.82-.08-6-5.5-17.6-5.3-16.83.12.5,0,11.22-1.33,15.42-2.22,7-8.77,11.07-7.95,11.22C411,136.93,411.79,143.8,412.54,141.33Z" transform="translate(-9.37 -7.31)"/></svg>