<svg id="hypnopet" xmlns="http://www.w3.org/2000/svg" viewBox="0 0 835 985.55"><path d="M407.46,182.52c-.69-3.46-.69-4.85-1.38-7.62-.63-2.5-20.78-15.24-28.4-9,0,0,5.4,6.53,4.85,10.39-.2,1.38-6.46,2.79-6.6,2.91.05.13,10.75,8.17,10.75,8.17C391.53,185.29,402.52,181.89,407.46,182.52Z" transform="translate(-83.31 -8.69)"/><path d="M378.32,251.6a1.19,1.19,0,0,0-.21.5Z" transform="translate(-83.31 -8.69)"/><path d="M478.35,151a26.46,26.46,0,0,1-6.19-10.75C468.9,129.85,463,120.91,455.54,113a4.87,4.87,0,0,1-1.3-2.51,44.84,44.84,0,0,0-13.35-24.29,10.1,10.1,0,0,1-2.61-4.06c-2-5.73-4.62-11.23-8.65-15.85a13.12,13.12,0,0,1-2.8-5.46c-1.65-6-4.21-11.6-9.3-15.61a2.64,2.64,0,0,1-.93-1.57c-.32-1.31-.62-2.64-1-3.94-1.66-5.71-4.19-10.89-9.2-14.46a3.83,3.83,0,0,1-1.14-1.82c-2.49-5.54-5.85-10.32-11.32-13.32-5.11-2.81-8.64-1.3-10.06,4.33a8.34,8.34,0,0,0-.2.83c-1.06,7.38-1.09,14.68,1.93,21.69a7.7,7.7,0,0,1,.54,4.11c-.88,7.31-.1,14.37,3.83,20.79a4.86,4.86,0,0,1,.67,3.95,28.28,28.28,0,0,0,4.29,22.68,6.85,6.85,0,0,1,1.2,4.7A47.81,47.81,0,0,0,401,118.84a8.69,8.69,0,0,1,.9,5.17c-.93,8.38-.1,16.61,3.73,24.16a20,20,0,0,1,2.19,11.44c-.54,6.09.7,16.48,2.45,22.22a4.54,4.54,0,0,1,2.08-.69c-.32-1.14-1.47-7-1.7-8.2a56.54,56.54,0,0,1-.57-17.56,2.17,2.17,0,0,1,1.44-2,91.16,91.16,0,0,0,21.35-12.72A80.16,80.16,0,0,0,453,115.77c.89-1.67.91-1.68,2.2-.23a73.45,73.45,0,0,1,14.59,24,54.75,54.75,0,0,1,1.94,6.16,2.35,2.35,0,0,1-.43,2.2c-1.73,2.25-7.31,9.56-9.13,11.71.75.15,3.4-1.49,4.15-1.38,1.4-1.68,4.67-6.71,6-8.45.83-1.09,1.26-1,2.15-.14a44.33,44.33,0,0,1,7.64,10c1.27.79,2.5,1.66,3.7,2.56A41.63,41.63,0,0,0,478.35,151ZM387.54,36.25c-.25-.69-.52-1.37-.78-2.06a38.66,38.66,0,0,1-1.09-18.77,10.25,10.25,0,0,1,.72-2.26A3.51,3.51,0,0,1,391.2,11a15.07,15.07,0,0,1,6.46,4.25,26.39,26.39,0,0,1,5.57,8.65,2.36,2.36,0,0,1-.21,2.23A25.46,25.46,0,0,1,389.14,37C388.35,37.23,387.83,37.06,387.54,36.25Zm.66,4.08c.14-1.12,1-1.26,1.77-1.55A29.36,29.36,0,0,0,402.68,30c.33-.4.65-.8.94-1.21,1.68-2.32,1.7-2.34,3.78-.23a22.93,22.93,0,0,1,5.24,8.7c.73,2,1.14,3.56,1.66,5.11a4.38,4.38,0,0,1-1.07,4.74,54.54,54.54,0,0,1-19,14.3c-1.33.62-2.09.49-2.84-.86C387.89,54.21,387.31,47.4,388.2,40.33Zm8.53,47.4a27.89,27.89,0,0,1-4.05-22.36,2.19,2.19,0,0,1,1.44-1.68,53.79,53.79,0,0,0,21.21-16.17c.71-.92,1.2-.67,1.89-.05,3.18,2.83,5.13,6.42,6.82,11.14,2.55,3.87,1.15,7.87-1.71,12a47.28,47.28,0,0,1-23.07,17.86A1.79,1.79,0,0,1,396.73,87.73Zm6,30.29A48.26,48.26,0,0,1,398.09,92c.09-1.15.86-1.33,1.65-1.61a47.67,47.67,0,0,0,16.81-10,45.83,45.83,0,0,0,9.68-12.8c.71-1.37,1.13-1.15,1.93-.16a48.92,48.92,0,0,1,7.6,13.71c1.86,2.46,1,5.16-.74,8.18-7.11,12.58-16.63,22.65-29.46,29.47C404.25,119.47,403.53,119.64,402.72,118ZM452,113.45a77.24,77.24,0,0,1-36.78,36c-1.38.66-2.78,1.27-4.15,1.94a1.31,1.31,0,0,1-2-.73c-.33-.71-.79-1.37-1.12-2.09-.58-1.23-1.1-2.48-1.65-3.72a46.28,46.28,0,0,1-2.36-21.73,2.63,2.63,0,0,1,1.79-2.2,70.2,70.2,0,0,0,18.4-13.46,79.46,79.46,0,0,0,13.66-19.13c.69-1.31,1.09-1.51,2.21-.39A44.42,44.42,0,0,1,452.37,111,3.61,3.61,0,0,1,452,113.45Z" transform="translate(-83.31 -8.69)"/><path d="M456.58,481.43c13.3,2.22,27.14,3.06,36.45,15.19-1.78-1.31-3.53-2.67-5.36-3.92-2.83-1.94-3.08-1.85-3.79,1.44a211.6,211.6,0,0,1-14.34,44.09c-6.15,13.34-13.67,25.76-25,35.5-11.45,9.89-24.65,14.28-39.74,12-11.32-1.68-17.73-8.4-18.89-19.75-.58-5.7-.51-11.46-1-17.17-.83-9.9-4.24-19-9.27-27.47a4.86,4.86,0,0,0-4.87-2.64c-8.62.19-16.48-2.23-22.77-8.27-7.64-7.32-8.55-16.75-7.27-26.59a32.54,32.54,0,0,1,5.81-15.16,4.78,4.78,0,0,1,2.6-2.3,42.36,42.36,0,0,0-5.08,10.47c-1.83,6.3-2.73,12.58-1.07,19.12.37,1.49,1.32,2.22,2,3.3,7.68,12.18,20.18,12.51,30.22,8.34a28.76,28.76,0,0,0,11.24-8.87c3.84-4.71,3.29-10,2.17-15.34-.29-1.39-1.53-1.34-2.54-1.68-11-3.6-18.06-11-21-22.15-1.61-6.13.73-10.4,6.48-13.12s12.1-3.3,18.43-3.1c7.6.23,15.08,1.31,22,4.62,7.73,3.66,9.22,8.79,4.33,15.85a45,45,0,0,1-23.39,17.58c-2.18.72-2.6,1.65-2.31,3.72a10.53,10.53,0,0,0,3.29,6.39c5.93,5.75,13.34,8.54,21.13,10.26,19.16,4.23,36.38-.83,52.29-11.57a4,4,0,0,0,.84-.69c.92-1.1,2.49-2.14,2.12-3.59-.32-1.26-2.15-1.08-3.35-1.38-3.36-.82-6.75-1.53-10.12-2.29a3.06,3.06,0,0,1-.49-.22Zm-72.72-32.11a17.55,17.55,0,0,0-7.72,1.47c-1.31.61-2.82,1.2-2.9,2.93s1.39,2.49,2.71,3.06c6.08,2.62,12.23,2.31,18.34.14,1.38-.49,2.63-1.41,2.55-3.17s-1.29-2.34-2.55-2.9C391.32,449.51,388.14,449.36,383.86,449.32Z" transform="translate(-83.31 -8.69)"/><path d="M393.73,372.35c-6.06-67-75.33-85.56-97.68-25.08-8.79,24.14-5.8,58.56,10.94,76.33-5.43-12.38-11.26-30.44-11.23-45,.47-19.33,5.83-36.08,20.22-45.64-49.64,75.24,45.43,154.89,70.93,50.76,1.24,20.68-5.25,32.68-15.13,45C389.92,420.41,395.61,394.48,393.73,372.35Zm-74.88-25.21c1.41-7.17,15.9-20.48,20.69-13.37,3.6,6.29-11.32,18.71-15.72,19.65C320.53,354.45,317.83,351.08,318.85,347.14Zm-6.35,58.78c-1-1.5.32-1.85.89-.41,10.67,16.17,24.33,21.81,41.73,15.48C340,431.65,320.85,424.41,312.5,405.92Z" transform="translate(-83.31 -8.69)"/><path d="M561.12,367.83c-8.39-76.91-103.27-97-133.48-28-11.84,27.42-7.82,66.41,14.76,86.6-7.33-14.07-15.2-34.55-15.15-51.12.62-21.92,7.85-41,27.33-52-66.84,85.52,62,176.75,97.1,57.51,1.71,23.75-7.25,37.52-20.88,51.63C555.84,423.06,563.72,393.26,561.12,367.83ZM458.47,339.5c1.91-8.17,21.61-23.49,28.15-15.43,4.92,7.14-15.42,21.44-21.41,22.54A5.45,5.45,0,0,1,458.47,339.5Zm-8.61,66.87c-1.4-1.7.43-2.1,1.21-.47,14.47,18.43,33.06,24.9,56.85,17.73C487.27,435.75,461.18,427.41,449.86,406.37Z" transform="translate(-83.31 -8.69)"/><path d="M668.21,105.71c-30.73-19.39-112.65,42.62-125.46,71.56C533.14,157,500.93,139,479.21,146.5c0,0,21.72,18,17.23,22.46a25.73,25.73,0,0,1-5.56-1.53c-19.7-11.23-24-5.49-24.55-5.69,5.55,2.77,22.86,14.55,18.93,19.87C483.41,180.18,459,148,429,175.7c1.26.56,39.7,3.75,36.15,29.39-15.37-32.51-71.08-21.61-93.94,7.45-1.48,1.2-11.39,19.77-5.05,15.82,8.63-5.75,18.48-8.88,28.39-11.53-6.05,7.82-14.19,29.82-16.26,34.77,3-4.72,38-24.74,30.85-13.31-10.63,4-27.27,12.58-33.63,22a1.61,1.61,0,0,1-2.93-.33l0,0a74.18,74.18,0,0,1,11.76-34.13c.4-.7,1.29-1.24.74-2.43-8.4,3.53-16.65,7.26-23.55,13.43-1.32,1.86-3.12,1.35-2.56-1.09.06-26.49,23.27-44.53,47.43-49.22-4.73-1.59-16,2.64-17.73,3.41-3.8,1.93-3.39,1.57-3.54,1.51-2.54-1-12-11.43-24.56-20l-.05,0c-24.77-16.29-77-54.85-105.25-33.5-68.72,61.58-109.63,156.23-141,241.6-49.13,125.8,51.92,415.39,109,122.52,23.3-65.73,10.92-339.6,66-352.86-.59.29-1.16.62-1.72.95.23,0,2.53,1.95,2.74,1.8,0,0,44.32,9.69,72,45.71,0,0-25.63,17.32-28.4,32.55,0,0-27.7-49.17-69.26-15.23,0,0-4.45,4.56-5.15,4.62-.46,4.75-.69,8.58-.81,10.92,31.59-43.25,67.86,9.23,62.93,11.83-57.43,43.56-58.57,125-49.7,189.09.71-.27,1.44-.51,2.18-.73.17.88-9.21,22.75-10,40.72,0,0,10.86-11.18,10.48-6-.63,8.86-5.24,41.94,3,56.17,0,0,5.92-14.22,6.74-10.48,6.13,27.92,17.65,49.76,71.15,59.91,0,0,53.17,65.16,123.57,11.24.58,0,4.85.72,9.59,1.41,5.45.79,14.23,2.4,15.63,2.64,9.8,1.69,18.7,3.64,27.76,3.29,34.65-1.35,43.33-9.28,47.92-12,1.78-1.25,4.71-3.65,7.94-6.35,7.21-6,15.87-13.55,16.24-13,3.74,6-1.5,16.48-1.5,16.48,15.14-5.51,28.86-30.49,31-34.51l.29-.54s.13-.17.18-.15c6.45,2.35,5.25,27,5.25,27,21.14-5.49,12.08-70,28.45-35.95,12.74-13.48,7.18-50.72,7.49-51.68.92-2.79,10.49,16.48,10.49,16.48,12.18-6.6-19.58-89.38,11.23-35.2-1.56-66-20.61-168.61-75.4-236.49-4.81-5.42,29.91-38.09,47.22-30.67-.12-1.09-1-5.24-2.22-10.76a1,1,0,0,1-1,.14C642.93,180.46,600,206.76,600,206.76c-13.85-18-41.56-24.24-41.56-24.24,33.25-49.87,81.74-55.41,81.74-55.41,2,1,15.54,13.64,18.41,19.75C711.49,259.51,741.86,674,834.28,612.62,931.37,432.51,807.56,224.17,668.21,105.71ZM590.8,270.07s-34.65.67-29.95,1.5c25.46,4.49,67.4,17.22,89.12,77.14,0,0-25.43-9.87-21.72-4.5C650,375.67,659,390.65,667.94,423.6l-13.48-6.74c11.24,43.44,14.23,104.85,14.23,104.85-1.49-8.24-12-17.22-12-17.22,1.5,24-12,55.42-12,55.42,1.5-15-10.49-39.7-10.49-39.7-6,33.71-25.46,47.94-25.46,47.94,2.25-8.24-2.25-18-2.25-18L602,553.92c-36.7,51.67-124.33,24-124.33,24-91.37,59.92-112.34-20.22-112.34-20.22-68.9,15-80.13-62.16-80.13-62.16-4.5,3.74-6,11.23-6,11.23-3-14.23,3-55.42,0-54.67S271,458.8,271,458.8l8.24-24c0-94.37-1.84-117.38,24-147.54,53.18-62.17,101.86,29.95,101.86,29.95C430.79,250.22,555.6,220.64,590.8,270.07Z" transform="translate(-83.31 -8.69)"/><path d="M529.73,923.13c1-16,2.49-32,4.73-47.77-2.33,6-9.25,12.95-9.25,12.95.69-9-2.37-4.46-3.35-3.89-2,1.17-5,10.13-8.43,9.44,0,0-5.17-8.89-5.39-3.49-.15,3.49-2.92,8.33-2.92,8.33-6.23-1.38-7.32-6.2-9.71-6.56-6.91-1.06-6.22,6.56-6.22,6.56-4.85-2.77-7.59-8.58-9.7-9.3-1.85-.63-4.84-1.09-6.92,2.38-.84,1.39-5.58-8.2-6.93-9,0,0-2.08,2.08-1.38,6.93,0,0-11-12-12.44-13.53,3.87,10.59,7.52,20.55,10.27,27.54,1,2.93,2.39,4.17,5.15,5.46,19.13,8.46,21.87,21.81,27.8,39.69,5.94,1,11.95.25,17.9.09C514.73,938.38,521.09,929.36,529.73,923.13Z" transform="translate(-83.31 -8.69)"/><path d="M420,153.65c-3.77,2.11-6.26,3.24-6.26,3.24-.8,3.51-.67,8.05-.2,12.31C416.52,164.31,419.28,159.08,420,153.65Z" transform="translate(-83.31 -8.69)"/><path d="M426.66,174.35c1.39-5,2.74-10,3.8-15a81.77,81.77,0,0,0,2.11-13.76c-2.59,1.9-5.12,3.58-7.46,5,.16,9.43-5.42,18.11-10.47,26.1.6,3.06,1.13,5.12,1.13,5.12a65,65,0,0,1,6.24-2.08A40.79,40.79,0,0,1,426.66,174.35Z" transform="translate(-83.31 -8.69)"/><path d="M444.94,134.64a74.22,74.22,0,0,1-7.46,7.08c.37,5.46-.63,10.94-1.64,16.34-.68,3.66-1.54,7.28-2.48,10.88a57.07,57.07,0,0,1,11.13-5.7C446.57,154.05,447,143.82,444.94,134.64Z" transform="translate(-83.31 -8.69)"/><path d="M467,145.12a78.92,78.92,0,0,0-5-12.84c.18,2.18.32,4.34.53,6.37a106.58,106.58,0,0,1,.56,12.87C465.18,148.19,467,145.12,467,145.12Z" transform="translate(-83.31 -8.69)"/><path d="M457.58,159.72a92.2,92.2,0,0,0,.1-19.79c-.32-3.46-.81-6.91-1.16-10.37a25.6,25.6,0,0,0-1.72-7.87,11,11,0,0,0-.93-.81,39.55,39.55,0,0,1-5,9c1.87,6.18,2.24,12.76,2.21,19.19A75.67,75.67,0,0,1,450,161.4,57.53,57.53,0,0,1,457.58,159.72Z" transform="translate(-83.31 -8.69)"/><path d="M472.25,156.52l3.67,1.1a.82.82,0,0,0,.92-1.24l-2.2-3.31a.82.82,0,0,0-1.37,0l-1.47,2.21A.82.82,0,0,0,472.25,156.52Z" transform="translate(-83.31 -8.69)"/><path d="M420.48,114.21c-1.73,1.41-3.41,2.68-5,3.77.05,8.51-3.5,16.77-6.79,24.67a43.94,43.94,0,0,0,2.21,5.24c1.88-.68,3.66-1.42,5.37-2.2C418.36,135.13,421.28,124.89,420.48,114.21Z" transform="translate(-83.31 -8.69)"/><path d="M430.48,122.52a37.21,37.21,0,0,0-1.91-16c-1.14,1.26-2.31,2.46-3.48,3.58a54.64,54.64,0,0,1-.14,18.44c-.85,4.74-1.93,9.44-2.92,14.15a67.82,67.82,0,0,0,7.1-4.72C429.58,132.85,430.08,127.68,430.48,122.52Z" transform="translate(-83.31 -8.69)"/><path d="M440.1,107.4c-1-4.17-2.33-8.2-3.37-12.33a55.26,55.26,0,0,1-4.57,7.16c4.66,9.57,3.63,20.55,2.51,31.05a65.37,65.37,0,0,0,8.1-9.32C442.07,118.41,441.35,112.86,440.1,107.4Z" transform="translate(-83.31 -8.69)"/><path d="M441.56,94.1c1.18,4.85,3,9.58,3.94,14.47.58,2.89,1,5.79,1.44,8.71a41.68,41.68,0,0,0,2.77-6.1C447,102.2,443.8,97,441.56,94.1Z" transform="translate(-83.31 -8.69)"/><path d="M407.8,131.38a56.28,56.28,0,0,0,2.5-10c-2.58,1.53-4.22,2.31-4.22,2.31a38,38,0,0,0,.5,11.11C407,133.64,407.43,132.52,407.8,131.38Z" transform="translate(-83.31 -8.69)"/><path d="M402.84,99a42.41,42.41,0,0,0,1.74-7.12c-2.44,1.26-4.05,1.94-4.05,1.94a70.21,70.21,0,0,0,.66,10C401.75,102.28,402.31,100.66,402.84,99Z" transform="translate(-83.31 -8.69)"/><path d="M413.22,100.41c.73-5.19,1.85-10.34,2.63-15.52-2,1.48-4,2.82-5.83,4a40.34,40.34,0,0,1-1.92,10.31c-1.46,4.6-3.2,9.09-4.43,13.74a9,9,0,0,0,1,1.73,43.15,43.15,0,0,0,6.88-3.39Q412.47,105.85,413.22,100.41Z" transform="translate(-83.31 -8.69)"/><path d="M431.27,76c-.49,5.55-1.06,11.09-1.46,16.64a55.74,55.74,0,0,0,4.66-9.16A77.65,77.65,0,0,0,431.27,76Z" transform="translate(-83.31 -8.69)"/><path d="M426.49,73a27.75,27.75,0,0,1-5,6.93v.23c-.64,6.8-2.27,13.47-3.2,20.24q-.48,3.41-1,6.8a54.13,54.13,0,0,0,7.08-7C424.67,91.08,425.73,82.06,426.49,73Z" transform="translate(-83.31 -8.69)"/><path d="M397.4,65.2c-1,.57-2,1.12-3.1,1.65a26.21,26.21,0,0,0,.29,10.45A42.36,42.36,0,0,0,397.4,65.2Z" transform="translate(-83.31 -8.69)"/><path d="M405,80.77c1.63-7.34,4-15,2.81-22.49-1.65,1.26-3.48,2.58-5.47,3.88.6,7.7-2.66,15.18-5.08,22.54l.47.85a28.4,28.4,0,0,0,7.55-2.94A2.45,2.45,0,0,1,405,80.77Z" transform="translate(-83.31 -8.69)"/><path d="M419.44,53.77c0-.05,0-.09,0-.13a7.43,7.43,0,0,0-3-2.72s-1.57,1.56-4.23,3.82c0,0,0,.08,0,.12,2.1,8.18.14,16.33-1.73,24.35a44.5,44.5,0,0,0,7.6-7.38C419,65.84,419.8,59.85,419.44,53.77Z" transform="translate(-83.31 -8.69)"/><path d="M402.17,44a55.82,55.82,0,0,0,1.42-10.32,26.8,26.8,0,0,1-5.31,4.83A55.22,55.22,0,0,1,393,55.94c.17.63.36,1.27.58,1.91a19.67,19.67,0,0,0,5.62-2.16C400.12,51.78,401.22,47.93,402.17,44Z" transform="translate(-83.31 -8.69)"/><path d="M408.65,33.56a58.43,58.43,0,0,1-1.33,10.6c-.54,2.38-1.18,4.74-1.8,7.1a45.61,45.61,0,0,0,6.1-6.57A25.17,25.17,0,0,0,408.65,33.56Z" transform="translate(-83.31 -8.69)"/><path d="M392.76,41.47q-.6.24-1.23.45a36.05,36.05,0,0,0,0,4.35A43.39,43.39,0,0,0,392.76,41.47Z" transform="translate(-83.31 -8.69)"/><path d="M389.23,32.23a80,80,0,0,0,2.91-18.08,2.75,2.75,0,0,0-2.69.06c-2.56,1.71-2.12,12.28-1.38,15.93A7,7,0,0,0,389.23,32.23Z" transform="translate(-83.31 -8.69)"/><path d="M397,18.37a86,86,0,0,1-2.11,12.29A36,36,0,0,0,400.53,26C401.31,25.33,399.48,21.54,397,18.37Z" transform="translate(-83.31 -8.69)"/><path d="M915.79,712.47c-3.73-14.68-12.79-10.29-11.86-16.3,1.59-33.09-39.07-66.87-67.35-40.79-1.35,1.46-2.06,1.51-3.48-.06-47.88-36.26-77.43,90.44-97.91,118.83-.79,1.61-53.38,81.46-54.51,80.09s46.23-83.67,45.11-84.81c-19.3-20.53-43.1-10-36.1-22.43,9.17-35,5.66-62.32-9.76-95-1.27-2.68,6.49,3,6.74,0,.75-9-26.38-35.9-28.46-39.7s12,3.75,12,3.75c-4.49-17.23-25.53-30.85-36-42.34-.94-1-1.16-16.88-2.19-17.58-1.34-.9-11.24,27-36.7,27-.43,0-.37-.84-.64-1.57-.38-1-.11-5.92-.11-5.92-1.89.63-10.69,7.37-14.67,9-3.81,1.52-8,3.12-11.45,4.1-2.75.79-11,2-13.44,2.45-30,5.26-71.28-3.52-71.28-3.52-83.14,50.18-125.82-11.24-125.82-11.24-12.8,5.69-24.21,30.22-24.72,31.46,0,0,12.36-6,11.23-3-1.26,3.36-14.23,18.73-14.23,25.47,0,0,10.31-6,9-3-7.38,16.94-23.82,17.89-26.59,57.37,0,0,9.6-9.81,8.31-5.54-1.41,4.71-17.31,30.48-8.09,72.15.61,2.74-1.21,2.44-2.81,2.65-14.82,1.91-27.32,7.09-37.44,18.36-.41.45,47.54,90.46,47.15,90.93-20.44-25.52-65.38-108.18-78.49-139.07-14.12-29.24-36-97.73-76.76-68.15-24.65-25.51-66.74,3.19-67.56,34.68C24.73,791.2,259,1059.56,360.16,971.54c1.85-7,8.76-5.71,14.09-8.82C376,949,381.34,928,397.58,920.9c-7.18-28.81-65.83-128.1-79-162.25C337.7,794.89,386.05,871,400.09,919.82a63,63,0,0,1,7.12-2.93c-20,10.46-34.3,35.72-22,56.83,7.08,11.75,14,16.61,24.84,15.74,8,6.52,21.19,6.33,28.86-.67.67-.66,1.24-.41,2,.13A18.27,18.27,0,0,0,465,986.31a7.15,7.15,0,0,1,4.26-2.45c31.43-5.76,22.39-47.76,4.77-63.71-5-4.82-13.1-5.39-16.39-11.89-9.45-30-58.44-131.23-77.21-167.48,5.57,10.29,22.36,36.09,28.4,46.41-.05-.73,1.78-20.9,8.31-29.78,2.31-3.15,5.54,11.77,5.54,11.77,5.11-6,10.57-22.15,18-29.09,2.61-2.44,2.39,11.83,2.77,11.78,15.93-2.08,19.06-16.19,28.9-21.91,5-2.93,12.66,15.67,12.66,15.67,10.39-3.46,16.09-23.67,18-23.55,7.57.49,29.79,29.79,29.79,29.79,3.46-11.78-.65-19.15.69-18,6.66,5.67,15.93,23.55,15.93,23.55,8.31-3.47,4-20.23,6.23-16.63,8.32,13.16,12.51,33.51,11.09,38.1,4.14-14.78,18.73-38.34,24.93-52.64-14.56,46.36-57.31,144.25-55.89,193.14l1.44-.71-.74,2.6c-28.08,21.51-23.39,44.29-12.79,59.79,3.44,3.06,9.41,1.64,12.53,5.45,16.54,14.94,21.75-2.47,30.2,5.13,7.08,4.3,18.21,3.05,24.62-2.19,18.7,3.32,27.77-10.16,33-26.29.76-15-12.41-25.52-21.26-35.86-8.24-16.86,25.83-74.32,33.48-88A593.06,593.06,0,0,0,612,901.27c-1.64,7.47-8.75,16.72-3.47,23.86,10.41,10.44,22.3,23.25,21.54,39C732.06,1068.87,943.74,817.8,915.79,712.47ZM114.49,758.3c-7.38.68-14.94-8.49-16.89-20.5s2.43-22.3,9.8-23,14.94,8.5,16.89,20.5S121.86,757.61,114.49,758.3ZM140.74,714c-8.47,2-17.57-6.12-20.33-18s1.87-23.18,10.33-25.15,17.58,6.12,20.34,18S149.21,712,140.74,714Zm34.52-19c-3.86-11.62-.29-23.25,8-26s18.06,4.46,21.91,16.08.3,23.25-8,26S179.11,706.62,175.26,695ZM253,899.59c-11.72,7.39-31.86-3.49-45-24.3s-14.27-43.68-2.55-51.07,31.85,3.49,45,24.31S264.68,892.2,253,899.59Zm543.4-21.3c-14.3,20-35,29.71-46.31,21.65s-8.8-30.81,5.51-50.82,35-29.71,46.31-21.66S810.68,858.28,796.37,878.29ZM830,699c-2.53,12-11.48,20.23-20,18.44s-13.35-13-10.82-24.94,11.48-20.23,20-18.43S832.54,687.05,830,699Zm26.52,13.2c-8.76-3.15-12.27-15.71-7.83-28s15.14-19.79,23.9-16.64,12.27,15.71,7.83,28.05S865.29,715.37,856.53,712.22ZM905.4,742.4c-3.15,11.84-11.47,19.89-18.59,18s-10.36-13-7.21-24.85,11.46-19.89,18.59-18S908.54,730.57,905.4,742.4Z" transform="translate(-83.31 -8.69)"/></svg>