<svg id="kosanos" xmlns="http://www.w3.org/2000/svg" viewBox="0 0 979.42 975.57"><path d="M781.42,864.94c1.65-2.34,7-8.79,8.12-11.32-2.82-29.83,3.53-62.4-14.39-87.4-3.38-5.26-5.67-9-6.61-12.1-3,1.4-6.13,2.61-9.23,3.85-6.6,2.63-12.77,5.29-19.77,6.69-6.45,1.28-13,2.22-19.53,3.13a70.14,70.14,0,0,1-11.3.77c-.86,1.65-1.72,3.3-2.52,5-1.76,3.69-3.44,7.4-5.15,11.11-.7,1.51-1.46,3-2.13,4.44,39.34,39.66,28.89,65,17.23,76.23,0,0,.14.05.44.12,8.85,2.25,35,2,34.79,2.25s-15.54,4.74-33.92,0a15.67,15.67,0,0,0-4,0,19.67,19.67,0,0,1-12,4c-8,0-8,26-2,26h31.93c14,0,18.57.07,30.88-.2,0-2.87.35-5.74.55-8.63.4-5.89,1.49-11.42,5.51-16.53C771.64,868.09,778.36,869.3,781.42,864.94Z" transform="translate(-10.81 -15.74)"/><path d="M604.57,419.21a66.4,66.4,0,0,1,3-11.47c1.74-4.95,1.26-6.32,2-9.09-22.85,7-45.35-16.39-67.45,12.32-4.44,9.81-21.25,25.69-13.69,37.39,2.05,2.21,23.45,34.95,20.94,26.64C508.47,400.41,594.52,476.9,604.57,419.21Zm-65.91,9.12c-1.89-1.51-2.14-2.11-1.69-3.86.68-1.69,2.19-6.48,4.06-7.92a12.86,12.86,0,0,1,1.57-2.42c0-.07.11-.12.16-.18a19.83,19.83,0,0,1,2.37-2.8c.77-.76,1.58-1.55,2.42-2.32.21-.22.41-.44.62-.65A28.42,28.42,0,0,1,560,400.6c4.69-1.63,9.56-1.67,14.46-1.39,3.23.18,6.94-.19,10,1.06,5.13.55,12.92.06,14.23,4.72,2.38,12-2.4,24.57-12.18,31.38C573.7,444.79,552,437.64,538.66,428.33Z" transform="translate(-10.81 -15.74)"/><path d="M982.92,537.56c-26.37,139.32-57.11,77.78-111.5,40.44-69.51-63.46-78.91-100.89-181.91-215.19-56-62.2-121.73-81.82-193.38-33.55-21.06,13-78.8,23-98.8,16.64a215.38,215.38,0,0,1-28.8-14.76c-.11-.07-.83,0-.76.5,2.45,19.19-39.8,60.19-41.45,59.1s39.91-41.9,31-65.3c-.34-.89.42-1.44.27-1.54A183.2,183.2,0,0,1,323.1,292a1.88,1.88,0,0,0-2.27.84c-8.48,12.09-43.5,27.2-44.4,26.06s35.92-18,39.88-32.94c.25-1,1.09-1.13,1-1.24a217.84,217.84,0,0,1-16.41-25.24,2.47,2.47,0,0,0-3.4.32c-7.1,7.22-34.11,13-35,11.21-.59-1.13,27.94-12,31.4-20.38.51-1.23,1.66-1.31,1.57-1.49a245.68,245.68,0,0,1-15.75-39.5,1,1,0,0,0-1.49-.1c-5.75,5.59-25.44,4.51-25.71,3.6s22-4,24.19-9.44c.3-.73,1.11-.6,1.07-.75-3.36-12.12-5.9-24.13-8.53-36.73a1.74,1.74,0,0,0-2.11-.5c-7.23,2.64-17.85,0-18.06-1-.18-.83,12.63,0,17.39-4.59.67-.65,1.41-.52,1.37-.69-1.62-7.74-3.33-15.74-5.34-24.16-2-20-3.59-42.42-6-43.9-41.75-25.74-53.4-13.2-59.87-12-11.21,2.12-52.1,16.37-55.88,22-6.09,9,15,15.21,18,67.85,2,35.92-14.35,98.16,23.95,163.63S271,448.2,308.36,478.55c24.49,19.91,61.16,43.92,97.07,80.75-4.42-.22-44.84-33.3-55.16-44.83C314,678.38,382.2,652.36,386.69,744.56,371.51,800.85,353,828.66,349,884.14c-4.87,23.15-6.08,31.55-9.73,36.94a8.45,8.45,0,0,1,1,.17c25.9,8.29,84.37,3.67,83.77,4.3-.44.47-41.9,8-86.78-.91a1.9,1.9,0,0,0-1.31.1c-4.46,3.92-11.77,7.8-25.65,18.77-9.85,7.79-2.73,32-.13,31.91,48-2.3,163,8.77,133.86-40.16-31.21-65.93,41.81-117,36.52-188.26-20.59-17-22.4-9.72-40.54-23-.51-1.28-27-11.31-25.95-12,19.54,1,43.72,10.42,55.88,22,29.18,22.25,54.09,29.26,109,27,9.08,1.15,18.73-44.94,6.21-89.84-.48-1.71,2.39-1.46,4.22.42,26.94,85-22.87,156.93-52.29,237.47-4.28,11.65-5.6,18.39-10.94,24.26a3.81,3.81,0,0,1,1.94.32c21.69,9.92,88.41,5.19,87.55,5.93s-41.91,12-93.41-1.15a3.18,3.18,0,0,0-2.32.16c-4.86,3.28-11.76,6.69-22,11-12.43,5-7,21.23-9.06,34.85-.28,1.82,3.9,3.72,6,3.92,40.22,3.76,63.27,5.12,103.52-2.39,51.21-2.64,17.51-43.74,25.66-67.71,8.59-66.87,73.83-126.24,79.75-195.87-.81-18.56-7.94-36.14-9.81-54.92-1.71-8.73-15-42-14.06-50.15,17.22,29,46.63,102.3,27.06,142.17a153.49,153.49,0,0,0,65.34-19.75c3.6-8.16,10-39.88,14.16-46.81,3.41-6.45,14.37-17.85,11.31-12.7-6.66,11.21-12.38,48.07-13.43,52.23l.49-.09c-3.45,46,29.06,91.67,11.53,131.06a2.1,2.1,0,0,1,.89.14c10,4.2,38.09,1.82,37.91,2.21s-24,4-38.72-.08a1.41,1.41,0,0,0-1.19.08c-.62,1.22-17.95,8-18,8-12.36,11.5-6.64,12.2-6,27.94,22.19,2.82,48.23-.51,69.84-2,9.1.65,20.34-3.56,27.94-8,4.34-4.46-2.53-18.91-4.17-23-10.92-26.51.58-59.43,1.78-89.9-5.36-21.9,3-67.2,8.71-82,.5-23.45.82-25.07,4.84,1.79C967,717,1008.07,633.35,982.92,537.56ZM433.08,612.72c3.71-7.14,15-6.53,22.16-8.35,1.33,13.55,1.4,27-2.65,40.12C442.37,638,431,625.7,433.08,612.72Zm-23.35-3.58c6.08.08,12.08.46,18.07.37v0l2.27-.24a24,24,0,0,0-.81,2.87v0c-.67,12.21,5,24.2-3.05,35.56C417,636.64,408.65,624.06,409.73,609.14Zm-19.55,45c-8.7-22.62-14.66-31.36-16.67-56.07,0-.07-.51-12.63-.67-14.15,1.21-3.62,12,9.1,12,9.1.32.28,7,7,7.33,7.24-.31.56-1.93,22.73-.42,28.91.26,0,2.42,27,11.91,47.31C398.16,672.12,391.29,657.24,390.18,654.16Zm17.39,5.8c-5.42-1.81-6.43-1.32-7.41-3.81-9.71-14.48-7.37-56.51-5.54-55.29-.2-2.37,4.1-24.43,7-15.35.81,9.48,5.61,23.48,6.52,32.73a63.15,63.15,0,0,0,4,16c1.22,9.88,4,21.95,0,27.94C411.41,661.33,408.58,660.36,407.57,660Zm25.29,7.83-.07-.1a45.1,45.1,0,0,1-20.08-4.31c6.08-6.47,2.14-16.67,2.24-24.6,7.24,8.82,11.46,22.83,17.57,3.93,2.07,10.28,11,16.95,15.53,25.42C443,668.86,437.71,667.09,432.86,667.79Zm27.16.34s-8,0-8,0c-2.43,1.28-4.13-7.2-5.16-8.27C440.21,652.76,434.6,642,435,632.5a63.58,63.58,0,0,0,17.76,17c5.5.55,4.93-14.58,6.6-18.84,2.12,11.21,4.78,24.61,8.67,35.43C465.51,667,462.48,667.33,460,668.13Zm10-2c-5.58-28.17-13.95-62.17-9.46-89.64C476.71,599.43,486,632,492,660.14,483.92,664.2,477.88,663.25,470,666.13ZM519.19,621c-1.88,22.42-4.1,49.72-3.73,69.66l-1,.5c-18.86-20.2-26.16-60.88-29.26-87.07-2.64-6,26.6-6.5,35-8.71A237.53,237.53,0,0,1,519.19,621Zm33.3-178.19c-4.92-1.93-7.86.51-10,3.19-.36,9.67,8.58,20.86,10.32,30.59-.27,6.13-8-1.83-9.52-4.79-6.51-11-22.3-23.64-20.84-35.54,12-28.65,29-49.19,62.3-43a37.17,37.17,0,0,0,25.09.87c2-1,6.33-3.44,6.29.65C604.15,428,608.55,455.3,552.49,442.76Z" transform="translate(-10.81 -15.74)"/><path d="M126.93,43.89C58.54,80.46,10.38,147.32,10.81,284.72c0,0,30.37-114,121.74-173.71,4.62-3,23.7-10.21,28.31-10.72C355.42,78.85,690.32,283.54,690.32,283.54,434.47-8.15,241-7.55,139,38,138.45,38.23,127.38,43.65,126.93,43.89Zm10.71,17C34.52,106.87,14.57,247.72,14.57,247.72,25,140.87,73,82.09,134.07,49c83.54-33.86,240.09-37.14,448.45,142.54C582.52,191.54,312.13-16.84,137.64,60.91Z" transform="translate(-10.81 -15.74)"/><path d="M564.42,417.61a22.6,22.6,0,0,0-9-6.83,24.71,24.71,0,0,0-2.68-1,6.88,6.88,0,0,0-3.24-.57,5.89,5.89,0,0,0-2.37,1.82,22.31,22.31,0,0,0-2,2.33,24.93,24.93,0,0,0-3.68,5.9c-.78,2-2.5,3.41-3.11,5.59a1.55,1.55,0,0,0,1,1.94,2.08,2.08,0,0,0,1.37,1.06l.52.38a15.15,15.15,0,0,0,2.37,2,19.65,19.65,0,0,1,2.1,1.4,23.53,23.53,0,0,0,3.16,1.62c2,.9,3.91,1.89,5.91,2.71a45.83,45.83,0,0,0,6.83,1.82l.11,0c.39.08.78.15,1.18.2a1.94,1.94,0,0,0,1.82-.7C568.43,431.3,568.75,423.41,564.42,417.61Z" transform="translate(-10.81 -15.74)"/><path d="M19,277S52.93,161.25,140.29,115.36l4.43,12.79S86.85,143.29,19,277Z" transform="translate(-10.81 -15.74)"/><path d="M264.46,115.36l4,16s109.75,0,405.1,149.67C673.55,281,464,141.3,264.46,115.36Z" transform="translate(-10.81 -15.74)"/><path d="M499.93,320.9c-10.38-9.46-32.06-17.18-69.84-14-25.85,2.2-53.62,21.39-53.88,21.95,0,0,16,12,33.92,12,6,0,50.45-4.58,61.87-8C473.13,332.53,499.93,320.9,499.93,320.9Z" transform="translate(-10.81 -15.74)"/></svg>