<svg id="luceras" xmlns="http://www.w3.org/2000/svg" viewBox="0 0 985 888.63"><path d="M390.74,240.4c2.08-.4,2.87-1.06,2.66-1.06-13.17-.12-38.61,12.7-62.69,27.23L332,271C345.33,261.51,377.6,242.93,390.74,240.4Z" transform="translate(-7.31 -54.68)"/><path d="M146.44,283.75c-1.43.15-2.12-.4-2-.46,8.28-4.09,28,3.5,47.35,13.51l.46,5.63C181.13,295.17,155.45,282.82,146.44,283.75Z" transform="translate(-7.31 -54.68)"/><path d="M410.39,337.18c2,.72,3,.55,2.83.44-11.34-6.82-39.68-8.69-67.68-8.38l-1.08,4.48C360.69,332.3,397.77,332.68,410.39,337.18Z" transform="translate(-7.31 -54.68)"/><path d="M144.43,311.7c-1.31.69-2.08.4-2,.29,6.91-7.28,27.11-7.18,47.49-4.49l1.65,5.5C179.55,309.94,152.71,307.31,144.43,311.7Z" transform="translate(-7.31 -54.68)"/><path d="M315.06,177.18S335,138,369.53,121.56c42.61-20.3,117.55-1.63,145.47,109.18,6,24,6.35,45.52.32,79.71,0,0,2.74-47.15-11.36-90.29-17.68-54.13-61.15-108.95-122.53-92.9C362.38,132.23,348.21,138.35,315.06,177.18Z" transform="translate(-7.31 -54.68)"/><path d="M265.51,131.85s-17.33-28.36-23.31-25.42S232,141.87,234.39,162c.93,7.76,6.85,31.5,6.85,31.5l-1.68-41.14c-.37-9.14.8-32.62,6-34.19,3.21-1,11.22,15.15,15,24.42Z" transform="translate(-7.31 -54.68)"/><path d="M227.34,332.06a11.78,11.78,0,0,0-3.85-.6c-2.08,0-4.15,0-6.23,0a2.31,2.31,0,0,0-.77.13.57.57,0,0,0-.25,1,3.45,3.45,0,0,0,.56.45,3,3,0,0,0,1.75.34c.75,0,1.5-.09,2.24-.1,1.72,0,3.44,0,5.16,0,1.25,0,2.51.07,3.76.1l.07-.05-.27-.2A8.13,8.13,0,0,0,227.34,332.06Z" transform="translate(-7.31 -54.68)"/><path d="M979.9,403.82c-13.38-33.57-38.18-60-60.08-88.35,4-6.67,15.22-3.65,17.43-12.43-6.48-1.08-15.59,1.15-11.58-7.71l-6.51,1.55c10.41-10.73,13.32-21.24,8.27-28.9-3.59,9.71-8.36,13.76-18.56,16.67l2.17-6.5-6.92,2.08c9-11.48,5.08-27-6-32.24,5.66,10,5.66,14.85-2.32,22.28-3.81.82.56-12.82.08-14.07-5.26.63-10.17,15.85-10.87.76,1.06-12.06-22.44-30.69-31.77-17.11,13.1,1.78,19,8,17.55,18.25-4.72-8.39-8.15-11-6,.7-5.79-1.28-20-21-18.79-16.69,5.34,18.44-6.36,13.5-11,11.27-11.88-4.38-19.05-9-24-18.62-7.94,18,18.89,28,23.93,41.48-11.83-2.1-27.67-8.88-33.79,4.85,19.09-15.25,43.25,25.89,12.23,7.52,1.15,8.39,15.83,15.74,3.07,23.06,14.58-5.16,21.26,10.51,31.29,18.4-6.21.32-11.61-2.09-16.6-6.49-.15,6.32,1.18,7.83,12.65,15.05L838.25,340c10.57,13.67,21.45-.8,33.07-3.37-.15,5.34,6.54,18.81,7.69,7.86,4.58,2.88,3.31,11.67,11.46,10.55-11.62-17.79,9.21-14.62,20.21-21.37,76.5,72.75,79.76,176.27-.62,239.2C876.45,601.67,852.7,622.36,750,594.51c-29-7.87-58.39-14.66-88-19.67a2.15,2.15,0,0,0-2-2.57c-5.67-.26-11.28-1.56-16.84-2.22-8.74,1.17-17.79,3.56-26.69,1.43,2.53-1.37,9.73-6.91,3.17-7.43-9.82,2.55-19.72,8-29.33,2.37,11.57-10.34-25.44-8.87-31-10.22,12.08-6.57-22.71-8.75-26.32-11.22,9.13-5.76-12.87-5.77-15.92-8.05-40.16-22.76-71.2-56-99.85-91.66-32.16-32.53-68.49-67.42-69.92-116.22-17.36-1.67-52.58,4.71-51.63,4.42,19.72-6,23.17-5.89,51-8.23-.25-.89-4-18.64-6-25,16.3-7.64,47.92-17.51,65.2-19.6-12.93-2.52-66.43,15.76-66.41,15.94a339.54,339.54,0,0,0-47.32,19c-2.14,1.05,22.42-14.45,46.43-22.62-2.67-9-4-12.62-7.21-21.45L332,271l-1.29-4.43c-23.9,14.44-46.46,30.55-54.3,37.34-1.81,1.56,28.2-25.29,52.08-41.33-.79-2.13-1.59-4.26-2.41-6.37,10.15-26,9.34-57.87-13.85-76.75l-13,35.34c-1.05-.21-2.09-.45-3.12-.7C359.89-2,567.71,149.57,518.87,317.51c57-69.91,21.84-205.51-70.3-244.27-37.52-12.79-79.36-9.61-116.42,6.39-15.18,6.56-26.68,12.74-35.46,26.23-1.69-2-2.58-2.59-2.79-3.37-4.91-17.9-18-29.95-30.5-41.91-4.14-4-12.13-4.29-18.51-5.17-57.13-10.69-72.28,99.64-55.58,140.48l-7.35-5c-2.9,16.62,3.82,29,9.66,42.83l.58.09c1.71,3.07,3.57,6.09,5.45,9.12-9.4,5.68-8.84,16.81-8.84,26.55,9.06-7.48,15.53-.51,10,10.62,1.2-3.75-2.25-10.74-6.28-9.53-4.91-.42-6.42,11.91-4.39,13.5-1,12.12-2,24.26-3.3,36.33-16.59,2.37-31.23,6.72-36.31,14.11,7.1-4.31,21-8.47,35.44-9.5-8.86,24,36.85,62.32,35.19,23.25-3.31-5.16-12.68-5.69-13.19-12.37.19-9.07,35.21-8.57,25.85,3.49-9.1,8-11.57,6.62-10.26,19.92,1.68,15.27,24,14.68,33.63,10.32,6-2.35,16.92-3.45,23.6-3,3.79.41,10.79-.86,14.75-1.71-4.11,1.12-34.07,7.7-43.76,9.51-8.12.69-16.3-.63-24.14-2.53C209.17,374.72,206,392.09,199,404.36c-8.32,9.58-13.55,32.8-29.74,26.92-33.65-15.78-55.19-73.92-98.47-65.08-15.52,5.24-50.62-14.17-60-5.5-.44,1.71,2.9,6.08,1.54,5.33-2.14-1.18-6.59.81-4.44,8.27,7,14.34,24.32,21.94,36.65,31.49,10.74,8.6,21-1,32.36-2.74,13.75.39,29.82-3.88,38.4,9.72,11.16,16.16,18.17,34.51,25.92,52.55.09-.07-3.73,0-7.45,0,5.59,1.89,15,9.09,18.63,11.35,0,0-1.87,1.9-9.32,1.9,13,3.78,17.67,9.34,26.82,16-5-1.88-13.38-4.28-13.47-4,14.6,6.85,12.73,12.53,23.77,13.92-1.72,2.4-6.79-.81-11,2.4,18.61,1.72,23.41,8.09,31.49,5.88.93-.73,13-2.41,14-1.93-.11-.73,3-14.89,1-13.42-7.46,5.68-6.53,1.9-5.59,0,1.86-3.78,5.08-12.84,3.72-17-1.19-3.69-6.86,3.69-7.45,1.89-1.86-5.68,5.27-16.22,5.59-17,3.73-9.47-9.27,6.5-9.32,1.89,0-3.88,13-17,12.69-29,4.62.64-4.09,20.27-9,25.22,13.12-8.86,5.17,7.64,1.64,16.51,11-11.79,7.68,14.87,3.42,17.89,10.9-7.72,4.8,9.78,4.75,14.26a2.25,2.25,0,0,1,2.6.4l2.91-1.58,1.5,1.28-7,18.66,7.69-7.05c.28.28.56.57.85.85-1.56,3.55-3.12,7.09-4.5,10.21l11.65-2c0,.51.05,1,.07,1.52L221.36,540l11.23,2.73c45.12-20.15,44,12,32.15-44.14-.79-7.07.62-31.58,2-28.37-2.35,72.61,44.21,58.9-34.51,76.79-27.92,8.25-66.42,5.91-78.89,38C152,598.53,98.54,632,120.86,634.38c-2.16,1.16-3,6,4.32,8.34,15.72,2,31.46-8.44,46.1-13.56,7.67-3.39,12.08-9.66,12.52-18.68.23-8.29,6.62-14.46,10.34-21.29,4.39-9.81,11.77-11.81,22.06-12.24,9.63.38,23.05-.64,31.19,3.83-8.65,5.13,6.79.28,11.18,0,1,.81,0,3.78-1.86,5.68,2.79-.54,10-4.56,13-5.68a2.65,2.65,0,0,1,0,3.78c.85-.24,20.49-9.78,20.49-9.46,0,1.89-3.81,4-3.5,4,12.34-1.34,28.35-13.5,20.27-4,6.38,1.15,12.37-2.32,18.45-2.91,9,1.31,33.24-1.27,22.53-17.91,15.58,7.59.65-5-.23-11.11-1.63-4,10,2.61,7.68-.25-2.71-6-9.61-13.77-10.87-20.41-.24-1.58,7.41,3.11,7.15,1.48-.9-5.61-6.19-19.9-8.09-28.14-.93-4,9.29,16.45,13.41,33.68.15.64-5.59-1.15-5.32.14,2.32,4.26,11.74,13.67,8.81,18.61-.74.49-7.06-2.44-6.95-1.57.09.72,6.62,7.77,7.45,9.46,3,6.58-2.83,5.42-5.59,5.68-1,14.66-24.34,14.39-29.8,13.25-1.16.11-18.81,2.76-20.5,1.89a4,4,0,0,0-3.72,0c1.58-1.06-19.42,7-16.77,1.9-4,2.69-16.76,11.35-16.76,5.67,0-1.89-11.18,3.75-11.18,3.79-.94.83,3.83,9.69,3.86,9.83-.09,2.38,3,4.93,5,5.45.72.19,2.35-5.48,3-5.51.25,2.79-.14,11.75,1.61,13.4,1.17,1.1,3.76-5.61,5.05-6.14-.81,3.12.41,10.47,1.6,13.4,1.31,1.52,4-4.66,6.14-5.42.68,18,2.05,7.72,8.28-.89,1.12,2.73,4.5,8.75,3.21,16.08-.35,2,7.07-3.69,8.81-4.95.68-.5,3.22-12.83,3.51-11.46a75.81,75.81,0,0,1,.81,26.36c-.51,3.66,4.41-3.35,6.45-5.43,3.46,15,1.08,18.13,13.87,7.22,5.48,3.06,14.08,26.88,14.76,10.2,6.11-8.55,20.12,17.75,21.25,1.11,1.79-2.2,3.17-4.37,4.62-.35,1.31,2.22,14,5.72,16.46,6.9,5,2-5.32-7.43,9.19-6.1,0,0,28.93,7.6,40,24.38,13.44,20.37,27.07,40.13,31.35,64.78,7.22,33,31.66,70.27,69.49,66.39,14.06-1.25,28.14-2.21,42.19-3.52,45.11-5.74,57.36,72.7,63.31,105.85,1,9.54,4.56,17.45,12.11,22.86,6.76,4.86,2.52,13.53,16.14,9.46,8.38-2.5,3.67-11.8,5.48-8.58,3.66,6.51,4.57,7.89,12.95,5.38,12.57-3.75,3.07-15.69,5-14.21,4.11,3.17,5,5.45,12.32,3.25,10.53-3.15,2.32-10.46,3.51-11.46,6.41-5.38-11.4-23.16-20.91-27.48-10.28-4.67-17.54-12.09-23.24-21.87-11.88-20.39-19.13-42.37-24.11-65.4-4.28-10.74-8.13-51.55-25.6-37-17,10.24-34.76-4.22-50.92-9.68-2.52-1.14-5.79-2.67-6.8-5.22,2.58-1.9,3.07-5.45,2.51-8.48l.27-.53c6.44,7.43,5.85-6.1,5.12-9.92.42-.82.83-1.64,1.24-2.46,7.31,6.09,5.84-5.19,4.42-9.5.21-.49.43-1,.63-1.46,5,5.15,5.13-4.85,4.52-8,9.56,7.19,2.67-9.59,2.17-13.61,22.21,9.16,57.45,9.86,72.69,26.42,11.77,15.24,26.59,25.32,45.42,29.54,4.18.93,9.4,3.7,11.35,7.22,8.19,14.85,21.39,25.08,31.7,37.83,15.93,19.72,29.44,41.46,44.27,62.12,10.2,12.17,7.74,28,13.32,41.86,5.55,12.45,17.24,8.31,24.24-.88,5.51,5.7,7.1,11.6,19.35,7.23,4-1.41,5.34-7.59,9.06-12,18.55,5.77,9.58-13.83,5-22.25-.77-21.2-26.07-26.64-38.89-39.54-29.15-23.9-55.27-50.63-73.57-84.35-4.27-7.86-10.69-13-19.33-14.73-21.85-6.84-35.52-28.59-51.73-43.78a20.4,20.4,0,0,0-4.69-13.62c1.05-5.63-3.1-11-7.69-13.5,8-3.16-.19-10.91-5.64-13.88,5-5.51-5.87-9-9.32-11.66,3.73.32,4.2-3.8.83-4.94a2.42,2.42,0,0,0,1.38-.86c5.29.76,19.11,6.69,18.81-2.68,4.1-.23,9.11,1.5,12.8,1.07,73.87,10.68,156.45,31.91,223.25-14.21C985.46,565.25,1010.24,471,979.9,403.82Zm-724-241c-7.16,15.77-9.44,30.95-14.49,48.61a210.49,210.49,0,0,1-13-51.56c.19-13.79-1.37-77.41,24.81-52.72C276.19,136,269.46,132.17,255.9,162.84Zm32.45,105.77c-20.32-3.76-22,10.45-21.91,14.26C262.17,258.46,288.35,268.61,288.35,268.61Zm-20.21,13.12c4.11-16.11,19.58-10.73,19.58-10.73,5,11.82,3.17,17.51-8.55,18.62,5.42-1.17,9.65-14.55.28-13.9C275,276.57,270.12,277.31,268.14,281.73Z" transform="translate(-7.31 -54.68)"/></svg>