<svg id="Layer_40" data-name="Layer 40" xmlns="http://www.w3.org/2000/svg" viewBox="0 0 965.81 994.45"><path d="M858.5,183.22c-9.41-10.41-8.9-26.5-8.13-39.61-4.1-.49-16,16.85-21,21.15-7.66,6.41-31.07-1.26-28.74.32,29,19.57,27.84,52.51,27.84,52.51C849.53,180.36,885.63,207.62,858.5,183.22Zm-27.3,26c3.17-15.46-6.93-28.79-18-38.41,15.72,6.58,28.42-6.59,33-19.17-5.8,15.76,2.29,30.51,14.52,40.21C849.21,194,836.63,197,831.2,209.23Z" transform="translate(-15.71 -3.38)"/><path d="M558.63,494.16c-12.27-1.9-23.58,5.39-25.27,16.28s6.89,21.26,19.16,23.16,23.57-5.39,25.26-16.28S570.89,496.06,558.63,494.16Zm16.24,22.71c-1.47,9.46-10.39,10-21,8.32s-19-4.84-17.54-14.3,11-13.86,21.65-12.21S576.33,507.4,574.87,516.87Z" transform="translate(-15.71 -3.38)"/><path d="M563.31,518.4c-4.48-2.73-6.45-2.78-3.25,1.7-3.33-4.48-3.46-4.43-1,.57-2.49-4.9-4.22-3.3-5.43,1.7,1.1-5.3.48-7-2.76-2.63,3.2-4.47,3.09-4.56-1-.84,3.91-3.76,1.62-4.79-3.45-4.44,5.34-.52,6.92-1.51,1.78-3.09,5.25,1.51,5.32,1.4.51-1.1,4.8,2.38,5.11.14,3.19-4.69,2.2,5,3.8,6.09,4.6.91-.69,5.26-.55,5.28,1.38.29-1.8,5,.69,4.6,5.16,2-4.58,2.87-5.17,4.52.3,3.94-5.51.7-5.49.82.11,1.09C558,513.66,559.17,515.68,563.31,518.4Z" transform="translate(-15.71 -3.38)"/><path d="M490,485.6c-12.27-1.9-23.58,5.39-25.27,16.28s6.89,21.26,19.16,23.16,23.57-5.39,25.26-16.28S502.22,487.5,490,485.6Zm16.24,22.71c-1.47,9.46-10.39,10-21.05,8.32s-19-4.84-17.54-14.3,11-13.86,21.65-12.21S507.66,498.84,506.2,508.31Z" transform="translate(-15.71 -3.38)"/><path d="M494.16,505c-5.59-.27-5.61-.39-.1-1.09-5.47.58-4.88-1.07-.3-3.94-4.48,2.58-7,2.93-5.16-2-1.93,5-2.07,5-1.38-.29-.8,5.18-2.4,4.11-4.6-.91,1.92,4.83,1.61,7.07-3.19,4.69,4.8,2.5,4.74,2.61-.51,1.1,5.14,1.58,3.56,2.57-1.79,3.1,5.07-.36,7.37.67,3.46,4.43,4-3.72,4.14-3.63,1,.84,3.24-4.35,3.86-2.66,2.76,2.63,1.21-5,2.93-6.6,5.42-1.7-2.41-5-2.28-5.05,1-.57-3.2-4.48-1.23-4.43,3.25-1.69C489.88,506.8,488.66,504.78,494.16,505Z" transform="translate(-15.71 -3.38)"/><path d="M158.84,973.78c-.94-9.6-3.19-21.3-13.07-26.17,9,7.8,12.44,20.51,11,31.5-.14,4.48-6.49,10-8.66,5.78a84.81,84.81,0,0,0-8.17-13.26,43.76,43.76,0,0,0-4.59-5.1c-7.29-7-28-6.22-30.56-11-.52-1-.13-2.23.06-3.34a10,10,0,0,1,.93-3.2,9.46,9.46,0,0,1,4.19-3.67,27.65,27.65,0,0,1,6-2.2,30.75,30.75,0,0,1,7.65-.86.56.56,0,0,0,.23-.05c4.66.23,9.37.79,14,1.4a23.7,23.7,0,0,1,4.53,1.88,34.3,34.3,0,0,0-4.74-2.73c-16.79-6.07-37.75-6.49-53.78,2.33-5.2,3.47-6.06,11.57-3.46,17.35,1.74,2.6,4.34,4.62,6.8,3.6,17.19-3.33,39.15-11.73,51.3,5.43a51,51,0,0,1,4.54,6.32,80.32,80.32,0,0,1,4.14,7.72c1.83,4.45,6.9,2.42,10.2-3C159.42,979.21,158.88,974.15,158.84,973.78Z" transform="translate(-15.71 -3.38)"/><path d="M427.37,38.26q14.94-7,30.71-12.58A271.94,271.94,0,0,0,427.37,38.26Z" transform="translate(-15.71 -3.38)"/><path d="M678.58,960.68c1.75-2.64,2.83-9.39-.2-13.66-4.55-6-10.92-13.33-19.67-12.46,9.07,1.25,23.77,12.86,19.66,22.51,0,0-2.77,6.38-7.07,7.2-1.54.28-5.69,1.74-3.9,1.84C671.49,966,676.8,963.37,678.58,960.68Z" transform="translate(-15.71 -3.38)"/><path d="M661.34,966.82c-7.15-1.18-12,1.49-15,1.49-21,0-17-24,1-31.95,2.49-1.1,2.07-.86-1.4.11-13.63,3.85-28.91,12.45-27,24.21,2.51,15.41,18.83,18.8,26,15.53,4.16-1.9,9.54-9,16.49-7.91C662.28,968.4,662.27,966.93,661.34,966.82Z" transform="translate(-15.71 -3.38)"/><path d="M75.84,952.35a41.29,41.29,0,0,1,1.36-4A16.93,16.93,0,0,0,75.84,952.35Z" transform="translate(-15.71 -3.38)"/><path d="M684.16,961.09c1.4-2.78,1.79-6.22.72-10.52A39.46,39.46,0,0,1,684.16,961.09Z" transform="translate(-15.71 -3.38)"/><path d="M27.54,639.45a19.36,19.36,0,0,0-4.35,16.72c.39,1.86,1.49-11.55,4.75-15.28C29.18,639.47,28.79,638,27.54,639.45Z" transform="translate(-15.71 -3.38)"/><path d="M278.47,731.52c-3.67.21-7.69.12-11.05-1.47-1.66-.93-2.57-.07-.9.86,2.82,1.19,12.37,4.18,13.74.58C280.26,730.73,279.27,731.48,278.47,731.52Z" transform="translate(-15.71 -3.38)"/><path d="M563.48,838.45c-4.56,6.06-11.38,10.46-22.06,9.91-.91-.05-3.6,1.11-2.68,1.15,11.22.5,22.51-2,24.24-8C563.18,840.77,564,837.84,563.48,838.45Z" transform="translate(-15.71 -3.38)"/><path d="M487.14,475.28c-15.25-3.13-32.66,4.08-37.81,19.13-1.57,4.56-1.76,11,.24,15.49.38.86,1.42.92,1.27,0-1.42-9,1.76-15.64,6.9-21.4C466.24,477.38,477.16,477.07,487.14,475.28Z" transform="translate(-15.71 -3.38)"/><path d="M588.56,491.72c-4.29-3.58-20.12-7.27-19.32-7,15,4.68,29,18.29,26,34.1-.74,3.87-4.22,10.54-6.95,14.89,2.55-.31,9.94-11.1,11-14.64C600.41,516,602.83,503.62,588.56,491.72Z" transform="translate(-15.71 -3.38)"/><path d="M466.37,687.31c-.18-.62.25-4.92-.74-3.68C465.35,684.17,465.65,689.11,466.37,687.31Z" transform="translate(-15.71 -3.38)"/><path d="M99.41,708.68s-4.42,5.9.74,14.74C100.15,723.42,97.94,713.84,99.41,708.68Z" transform="translate(-15.71 -3.38)"/><path d="M511.23,652a1.14,1.14,0,0,0-2.16-.43,1.73,1.73,0,0,1,.62,1.06,13.74,13.74,0,0,1-.68,7.27,23.94,23.94,0,0,1-3.74,6.11c-2.29,2.85-5,5.29-6.91,8.26-6.11,11.46-5.74,25.45-10.12,37.63-3.81,13.58-13.46,31-30,28.88-4.72-.54-8.34-3.72-11.25-7.25-1.83-2-4-3.87-6.64-4.53-.51-.13-.93-.17-.95-.79,1.31-3.05,5.36-5.78,8.71-6.21,2.35-.19-.58,2.94.43,4.2,9.56,19.48,27.37,1.23,32.26-12.07a65.79,65.79,0,0,0,2.74-8c.32-1.86,4.42-20.9,4.73-22.78,1-6,5.18-11.68,6.54-13.48s3.15-3.7,4.58-5.68A22.1,22.1,0,0,0,503,657.4a21.36,21.36,0,0,1,1.18-3.4,15.5,15.5,0,0,0,.8-1.89c0-.51.05-1,0-1.58-.06-2,2.4-7.19-.15-7.88-1.28.07-1.08,1.37-1.13,2.3-.2,1.38-.49,2.74-.78,4.09-.66,16-14.32,17.79-17.51,39.08-1.55,6.78-2.68,13.67-4.79,20.3-3.21,11.89-18.2,34.84-29.59,18.1.07-.4-.29-1.58-.21-1.79,3.58-10.38-14.77-2-13.45,4.39.37,1.29,1.39,1.74,2.58,2,4.76,1.44,6.93,6.53,10.95,9.11,15.15,9.46,31.37-5.16,36.41-19.29,6.13-13.83,6.86-29.23,11.69-43.42C503.73,669.27,513.11,662.9,511.23,652Z" transform="translate(-15.71 -3.38)"/><path d="M442.05,727.84a5.09,5.09,0,0,1,3.68-3Z" transform="translate(-15.71 -3.38)"/><path d="M676.23,708.2l-.15,0c-.65.11-1.3.2-2,.29,0,.76,0,1.52,0,2.29-.09,2.37,3.59,2.37,3.68,0,0-.8,0-1.59,0-2.37A9.44,9.44,0,0,1,676.23,708.2Z" transform="translate(-15.71 -3.38)"/><path d="M389.19,844.22a2.68,2.68,0,0,0-.11-.49c-1.79-5.21-6.4-9.19-9.78-9.2,4.32,1.41,8.92,7.73,9.21,9.73.47,3.18-2.62,4.21-3.65,4.21-5,0-9.22-1.94-12.35-2.06a42.93,42.93,0,0,0-5.27.09s-2-1.54-2.49-2a6.3,6.3,0,0,1-1.37-1.72c-.67-1.51.07-3,1.05-4.16a9.63,9.63,0,0,1,3.43-2.74,59.18,59.18,0,0,1,9.39-2.1c-5.16-2.66-37.49.76-28.91,11.58,5.15,7.65,15.32,2.66,22.51,2C376.35,847.05,390.32,854.66,389.19,844.22Z" transform="translate(-15.71 -3.38)"/><path d="M570.23,755.38s-1.44-5.43,1.55-7.79l.72-.13A55.94,55.94,0,0,0,570.23,755.38Z" transform="translate(-15.71 -3.38)"/><path d="M965.21,834s-4.16-5.16-3.42-9.58c.48-2.88.16-6.5,1.7-10.19.83-2,2.46-6,3.2-6,0,0-1.64,12-1.69,16.21C965,826.87,965.31,827.31,965.21,834Z" transform="translate(-15.71 -3.38)"/><path d="M686,526.14s111.57,27.18,148.07-59.06C834.11,467.08,798.23,538.58,686,526.14Z" transform="translate(-15.71 -3.38)"/><path d="M387.52,467s-78.1,11.05-87.68-134.85C299.84,332.15,310.89,456.68,387.52,467Z" transform="translate(-15.71 -3.38)"/><path d="M689.63,483.94s131.16-9.58,117.9-157.68C807.53,326.26,812.68,457.42,689.63,483.94Z" transform="translate(-15.71 -3.38)"/><path d="M397.1,433.1s-77.37-76.63-21.55-200C375.55,233.14,338.15,353.52,397.1,433.1Z" transform="translate(-15.71 -3.38)"/><path d="M961.77,800.94c-11.73,7.71-31.93-4.57-36.37-15.68-7.54-18.85-4.29-28.66,9.73-43.18,11.12-12.68,25.89-22.56,31-39.39,2.78-8.62,8.65-22.75,1.28-47.06-2.26-7.46-22.12-33.82-29.47-37.58-30.4-15.94-65-12.67-97.21-4.6-19,5.28-37.67,11.47-56.45,17.33l-28.38,8.86c-9.25,2.89-18.49,6.13-28,8.12-17.14,3.59-35.21,3.92-51.83-1.55-3.39-1.12-13.54-9.56-15.1-11.79-17.82-25.44-33.55-64.8-15.68-73.11.12.33,8.37,11.86,13,15,31,21,87,15.52,105,12,364.21-71.08,275.59-694.58-289.13-568-5.48,1.23-43.92,14.92-49.81,19.34,11.05-5.16,53-16.94,62.47-18.89,446.47-91.42,689.58,408.41,290.3,555.38-3.86,1.42-70.77,24.74-115.16-3.94A30.39,30.39,0,0,1,650.3,558c-3.54-8.76-5.77-20.06-2.65-25.7a12.66,12.66,0,0,1,3.05-4.22c6-5.37,14.7-6.79,22.78-7.13l0-.13c-4.11-1.37-8.08-3.27-11-6.49a14.34,14.34,0,0,1-3.79-7.75,10.67,10.67,0,0,1-.1-1.42c0-4.37,2.73-8.88,4.9-12.54a41.06,41.06,0,0,1,4.26-5.92c-.1,0-3.27-1-4.67-1.25,1.64-1.22,6-3.95,6.67-12.56a85.81,85.81,0,0,0-1.42-20c-6.07-30.44,34.28-14.65,25.73-67.71,2.43-.79,3-2.86,3.69-5.15,1.47-5.16,0-11.63,0-11.06a34.09,34.09,0,0,1-3,10.32c-.45.84-6.59,3.23-8.11,3.68-22.1,6.64-26.78-12.37-27.17-13-28.83.46-32.17-20.36-32.58-22.29-22.22,8.9-39.06-2.77-48.6-22.42-7.62,4-13.58,8.93-23.92,9.77,0,0-6.23,0-9.34-.35l-.89-.11A29.46,29.46,0,0,1,527,323.5a.41.41,0,0,0,0-.11c-1.65-2.19-2.24-4.61-4.44-6.32-16.06,10.83-39.44,13.07-55.5-2.6-1.47-1.48-3.84-5-4-4.65a11.76,11.76,0,0,1-1.45,2.27,2.73,2.73,0,0,0-.53.33,33.16,33.16,0,0,1-17.47,7.22,20.28,20.28,0,0,1-9.63-1.27l-.47-.2a20,20,0,0,1-4.89-3,16.4,16.4,0,0,1-4.59-7.14,26.34,26.34,0,0,1-1.15-9.94,12.71,12.71,0,0,1,1.22-4.6c.73-1.53,2.62-6.17,3.19-7.78.26-.71-4.11,3.83-6.43,7.3a1.4,1.4,0,0,0-.65.57c-4.75,7.53-2.12,16.59.53,24.35,2.89,8.42,5.36,17,5.42,26,0,2.18-2.18,14.48-2.88,18-4.46,22.19-1.86,32.11,2.73,47.31,5.65,15.65,3.9,38.67,3.45,41.3a22,22,0,0,1-7.29-3.06c-1.28-.82-3.29.57-2.71,2.08.76,2,1.51,3.91,2.07,5.93a73.14,73.14,0,0,1,1.48,7.92c.28,1.78.51,3.58.72,5.37a18.49,18.49,0,0,1,.12,6,1.9,1.9,0,0,0,0,.41c-1.81,6.37-4.94,11.61-14.52,15.2-8,3-20.31-11.06-21-12-.51,5.5.81,26.26-11.84,26.26-10.42,0-23.84-7-25.79-8.3-54.78-44.07-81.83-97.38-86.07-167.75-4.63-77.08,24.56-158.66,73.62-219A305.47,305.47,0,0,1,359,86.67c12.89-12.85,25-24.26,40.58-33.87C270.06,128.39,179.83,355.56,319.8,482.06a227.18,227.18,0,0,0,21.65,16.61c15.13,8.85,25.26,12.29,34.86,12.64,13.1.47,17.06-9.36,18-19,1.7,9.38,8,31,10.9,50.58.64,4.37-6,10.09-6.33,10.31a8.81,8.81,0,0,1-1.78.91c-26.77,15-81.91,15.19-109.93,4C254.83,543.93,194.47,522.26,176,563c-7.36,17-12.91,35.72-23.81,51-28.42,29.72-83.59,41.8-118.61,16.89a7,7,0,0,0-.23-.9,2.51,2.51,0,0,0-.54-.92,1.85,1.85,0,0,0-.32-.25,1.44,1.44,0,0,0-1.73-.84,1.68,1.68,0,0,0-.42.22,1.69,1.69,0,0,0-.52.08,16.6,16.6,0,0,0-6.52,4.69,29.18,29.18,0,0,0-5,6.72,26.38,26.38,0,0,0-2.24,8.64,25.39,25.39,0,0,0,.07,9.24c.77,3.13,3.09,4.93,5.72,6.52a1.34,1.34,0,0,0,.83.21,1.64,1.64,0,0,0,.39.14,3.72,3.72,0,0,0,2.45-.37,2.82,2.82,0,0,0,.65-.43,151.37,151.37,0,0,0,51.23,4.26c50.78.54,101-25.43,119.1-74.22,4.07-13.13,9.7-19.65,17.73-22.14,23-7.15,85.52,38.16,158,13.91-19.93,13.53-35.54,16.6-49.43,18.42-27.66,3.64-48.49-4.22-82.94,9.85-35.32.16-62.52,28.3-73.24,61.24a110.66,110.66,0,0,1-72,26.14c-11.91,6.82-6.37,36.44,9.69,29.85,18.89-9.78,35.39-6,50.2-17.62l.11,0,.35-.15a1.5,1.5,0,0,0,.31-.24,2.36,2.36,0,0,0,.28-.12l.19-.13.29-.22a1.43,1.43,0,0,0,1-.41c1-.91,1.94-1.78,3-2.62l.72-.59.18-.14s.24-.14.08-.06.09-.07.13-.1l.18-.14c.11-.08.22-.14.32-.22-.85,41.89,35.86,56.13,56.59,84.81-5.26,7.65-27.75,28.35-54,53.42l-.23-.18c-31.47,30.43-65.6,65.25-81,90.72-1,1.64-5,5.29-6.86,9.23a27.61,27.61,0,0,0-2,7.73,36.34,36.34,0,0,0,.57,6.7c5.53,25.78,35.85,3.09,47.12,6.93a20.08,20.08,0,0,1,12.43,10.95c7.21,32.62,30.19,19.34,34-4.45.31-1.89,1.29-10.82,1.56-13.2,4-34.86,18.72-57.58,37.36-77.23,1-1,5.74-5.32,7-6.51,14.53-13.29,30-26.38,44.07-42.55,3.34-4.14,13.89-27.32,14.84-29.92,2.32-6.42,2.5-13.72.93-21.8-6-37.23-28.89-40.74-55.06-59.14-13.35-16.08-15.67-32.7-10.34-46.3a19.62,19.62,0,0,1,3.74-3.59A49.72,49.72,0,0,1,220.8,669c3-1.39,6-2.71,8.78-4.39a30.76,30.76,0,0,0,7.5-6.28,73.53,73.53,0,0,0,6.36-9,71.57,71.57,0,0,1,24.19-1.63,54.51,54.51,0,0,0-8.16,6.69c-1,1-1.92,2-2.82,3.07a10.88,10.88,0,0,0-1.88,2.28,20.29,20.29,0,0,0-3.36,5.36,1.61,1.61,0,0,0-.09.5c-.2.36-.41.72-.6,1.07-1.75,3.2-3.67,6.61-3.48,10.37,0,0,0,0,0,0a66.59,66.59,0,0,0-1.32,12.73c.07,5.32,1.3,10.54,2.53,15.69a1.1,1.1,0,0,0,.11.32c1.62,8.12,7.36,14.62,9.54,22.47-5.07,13.12,16.24,13.63,24.64,14.87,5.95,1.39,15.57-5.11,9.93-11.06-7.9-4.59-9.53-15.44-12.18-23.55-6.48-21.3,13.43-40.58,23.76-58.1,31.59,4.76,58.91,7,82.64.93a40.48,40.48,0,0,0-3.4,5A69.13,69.13,0,0,0,376.2,674c-.93,3.54-1.66,7.12-2.38,10.7a7.5,7.5,0,0,1-.51,1.81c-14,17.18-20.59,41.41-10.95,77.57,8.58,35.93-2.2,46.14-18.35,74.06-4.61,7.22,6.54,16.36,14.78,15.67,8.84-.74,12.74-1.56,13.72-1.25,16.47,5.15,19.56-2.06,22.14-7.5,2-4.18,5.86-11.56,6.89-16.7,17.63-43.3-9.81-87.13-.92-122.41l.24,0a2,2,0,0,0,.36,0c2.43,4.35,6.86,7.23,11.55,8.91a72.19,72.19,0,0,0,10,2.5,42.51,42.51,0,0,0,9.73,1.16,30.64,30.64,0,0,0,26.14-16.87,29.72,29.72,0,0,0,1.7-4.37,17.73,17.73,0,0,1,1.66-4.23,3.4,3.4,0,0,1,2.62-1.76c.82-.07,1.8.12,2,1a1.49,1.49,0,0,0,2.47.65,13.78,13.78,0,0,0,2.9-11.24,5.49,5.49,0,0,0-2.92-4.32,2.7,2.7,0,0,0-2.5.1,2.82,2.82,0,0,0-1,1,3.56,3.56,0,0,0-.27.6,1.46,1.46,0,0,0-.68.14,13.49,13.49,0,0,0-12.08,6c-2.67,3.81-3.72,8.46-6.1,12.43a16.27,16.27,0,0,1-11.6,7.5c-5.25.86-10.65-.72-15.21-3.29s-10.45-6.87-10.6-12.72a1.39,1.39,0,0,0-.15-.63c6.25-8.38,15.93-16.07,30.51-22.9,20.8-11.49,48.95-16,57.86-31.07,1,3.72,8.81,12.56,11.74,17a1.86,1.86,0,0,1,.66,1.08,4.56,4.56,0,0,1,.34.73c8.18,22.48,1.71,44.33-1.83,67.1-8.85,27,1.19,56.05,15,79.69,9.42,10.72,9.84,25.73,11.25,39.19-1.25,9.83-5.18,10.77,1.79,20.32a6.34,6.34,0,0,1,2.61,1.5c12.78,2.82,24.54-3.5,32.49-13.2,4.09-4.37,10.43-9,7.93-15.79-1.57-2.92-3.55-6.12-6.38-8.33-10-6.83-16.39-18.07-21-28.82-2.63-7.83-7.31-16.53-10.29-25.53a150.29,150.29,0,0,1-7.23-44.19c5-51.38,13.66-46.58,2-73.07,2.79,2.55,5.9,4.73,8.86,7.06A37.18,37.18,0,0,1,555,670a38.49,38.49,0,0,1,4.41,13.23c1.57,10.4-.75,20.91-3.9,30.79-1.7,5.3-3.77,10.47-5.46,15.77s-2.8,10.86-1.83,16.39a18.19,18.19,0,0,0,7.91,11.94,12.8,12.8,0,0,0,6.7,2.08c1.06,0,5.23-.68,5.07,1v0l.06.14a3.62,3.62,0,0,0,.13.35,7,7,0,0,0,.39.93,2.71,2.71,0,0,0,1.58,1.39,5.65,5.65,0,0,0,1.83.19,5.8,5.8,0,0,0,3.51-1.25,4.59,4.59,0,0,0,1-1.2c.43-.69,2.16-7.66,3-10.27.33-1,.65-2,1-3a10.55,10.55,0,0,0,.76-2.85,3.65,3.65,0,0,0-1.89-3.32c-2.26-1.26-5-.55-7.31-1.56a8.71,8.71,0,0,1-4.42-5.65,13.92,13.92,0,0,1,.39-8.51,67,67,0,0,1,4.58-9.6,49.46,49.46,0,0,0,4-10.15,47.71,47.71,0,0,0-.1-24.57,31.88,31.88,0,0,1-.39-3.56c18.18,25.24,39.5,39.66,63.17,47.87-.29,6.44-.71,13.18-3.52,19.07-3,6.34-8.68,10.46-14.41,14.21-17.92,10.56-37.22,27.87-32.29,50.89-8.28,5.18-1.69,14.33,6.59,13.38,8.31.45,34.32,5.21,26.72-10.51-12.27-25.39,30.33-37.81,40.16-67.48,1-4.31,1.7-8.67,2.28-13.06,2,.36,4,.7,6.09,1l-.06.24a6.9,6.9,0,0,1,3.65.59l.09-.32c31.13,4.08,65.15,2.32,100.64,2.93-102.64,49.38-159,85.55-161.45,210.25-3.37,12.16-1.62,22.93,10.35,29.48,10.16,8.29,22.88,7.72,32-2.15,9.35-4.28,25.55-.63,28-14-4.14,8.23-17.1,10.56-26.68,11.72-14.77,12.32-24.07,11.69-38.93-1.37-21.57-27.24,50.81-66.67,66.33-20.87-41.64-191.81,145.09-129.81,129.9-225-38.23-44.91-87.83-13.52-139.87-17.22-.54.08-1.08.16-1.63.21a1.41,1.41,0,0,1-1.1-.44q-3.64-.35-7.31-.94a31.59,31.59,0,0,0-.77-7l.12,0c-1.41-9.32-6.71-17.42-13-24.58-.18,0-1.12-1.22-1.5-1.67-3.23-3.89-9.43-12-12.39-16.11,1,.79,16.24,12.19,18.68,13.48l-.18-.18c30.51,13.41,70.63,7.75,101.64,2.06,12.73-3.75,25-9.12,37.38-13.92,30.59-12.28,62.15-23.9,95.73-21.94,46,4.47,53.13,39,29.84,66.53-34.58,30-55.4,73.25-22.67,110,27.69,31.12,51.85,18.48,60.85,25.22,23.58,17.69,20.51-4.12,21.42-12.37.19-7.52,1.81-15.43-.66-22.72C976.29,793.84,966,792.68,961.77,800.94ZM688.67,386.09c8.37,48.19-29,32.87-26.13,63.6.93,5.82,5,18.78,1.3,26.88-1.07,2.37-3,6.64-9.58,6.64-5.16,0-6.63-2.95-6.63-2.95,3-8.84,6.71-28.31,3.71-33.21,20.09-21.65,10.32-21.11,12-44.07.34-3.14.37-6.25,1.87-9.05a48.29,48.29,0,0,1,5.4-7.63C677.84,389.63,685.21,388.15,688.67,386.09Zm-28.51-7.52a15.3,15.3,0,0,0,5.18,5.92c-3.13,4.88-5.94,10.12-7.2,15.82a28,28,0,0,0-.49,9.36c3.14,14.86,4.13,22.56-9.07,32.7-4-6.76-7.73-13.52-8.12-20.43C643.46,403.22,660.94,403.51,660.16,378.57Zm-17.49,96.11h0c-.1-.3-.2-.6-.29-.9a49.81,49.81,0,0,1-2.12-12c0-1.56-2.33.42-3.68.73,1.21-1.81,6.36-9.77,8.14-10.75C649.1,457.42,646.5,470.75,642.67,474.68ZM655,374.15c.93,22.93-20.24,24.78-23.66,43.7-1.45,10.19,5.27,19.79,10.86,29.4-2,1.5-11.3,14-13.73,16.8-.6-3.31-9.8-40.58-10.58-47.62,8.51-14.8,26.06-24.79,24.52-45C642.48,371.47,649.68,374.39,655,374.15Zm-33.89,91.44c-7,.29-13.72-6.53-12.53-8.91,3.68-7.37,4.91-20.64,5-22.68C616.68,438.26,619.71,462,621.11,465.59ZM627,359.42c2.06,2.52,10.07,10.55,10.14,11.49,1.09,14.36-10.15,23.21-18.25,32.72C619.73,401.78,631.42,377.1,627,359.42Zm-7.25-7.27c.51,9.86.89,19.78-1.06,29-2,9.46-8.93,16.44-10,26.22-.91,6.58,1.93,13.32,0,19.69-.2,3.58-2.59,18.55-4.48,20.75-1,1.07-10.42,3.58-13.78,4.7,3-4.81,12.67-47.8,8.57-63.35,10-7.93,10.47-22.2,9-35.29A26.56,26.56,0,0,0,619.75,352.15Zm-31,68.63c-1.27,4.4-3.82,17.65-4,18.41a69.29,69.29,0,0,1-4.91,14.54c-8.84-1.47-12.61-9.08-12.53-9.58,1.82-10.41,18.07-43.43,25.06-49.37C594,403.62,590.48,412.75,588.72,420.78Zm-6.67-82.73c3,5.89,11.79,12.52,19.22,14.73,1,10.09,1.85,21.24-4.52,28.59C592.48,366.64,579.15,353.17,582.05,338.05Zm-16.71-1.51a24.1,24.1,0,0,0,7.53-4.2c-4.2,16.9,12.79,37.81,16.79,55.64-12.88,9-28,48.07-29.5,53.89a58.81,58.81,0,0,1-4.79,3.51c-4.33,2-8.84,3.76-13.41,4.13a1.45,1.45,0,0,0,.24-.91,24.78,24.78,0,0,1,.55-5.88,50.84,50.84,0,0,0,.13-6.17,31.27,31.27,0,0,0-.11-6.27c-.09-.52-.21-1-.35-1.54-.18-1.74-.4-3.47-.64-5.2A59.44,59.44,0,0,0,539.42,409l-.21-1a52.55,52.55,0,0,0,7.94-5.82,37.88,37.88,0,0,0,8.09-11.1c5.93-11.85,7.12-26.6,7.29-37.56C562.69,351.33,564.37,340.26,565.34,336.54Zm-18,2.81c2.24.25,11.65-.49,11.25.26-.86,1.64-1.41,15.35-1.52,19.35a61.05,61.05,0,0,1-11.79,35.38,24.34,24.34,0,0,1-4.95,4.74c-1.14.87-2.32,1.68-3.52,2.46-10-10.44,8.32-38.73,9.31-45,1.09-7-1.87-12.79-5.3-18.47A40.44,40.44,0,0,0,547.36,339.35Zm-15.3,107.57c-.52-.37-1-.75-1.53-1.15a20.25,20.25,0,0,1-3.36-3.62,20,20,0,0,1-2.73-4.25c-.7-1.66-1.9-5.28-3.55-6.27-.4-.24-.93.06-1.46.54a15.87,15.87,0,0,1,1.1-5,26,26,0,0,1,3.32-6.19,38.25,38.25,0,0,1,8.28-8.28C533.87,421.13,535,442.51,532.06,446.92ZM526.17,329c.57.52,6.2,7.9,6.52,8.42,4.1,6.73,8.78,12.92,6.16,21.14C536.5,366,523.1,387.42,529.64,406a45.43,45.43,0,0,0-12.33,10.69c-5.26,6.8-5.85,18.23-6.73,23-11.06-28.74-16.69-38.66-19.16-45,7.43-17.64,20.14-24.85,27.51-42.21A101.18,101.18,0,0,0,526.17,329ZM505.86,443.52a17.12,17.12,0,0,1-18.13-.84c-.7-.47-.05-20.75-.73-40.53C488.6,405.94,501,432.34,505.86,443.52Zm-1.92-113.58c7.49,0,13.57-4.48,14-1.47-2.92,18.7-23.37,42-32.5,56.31-4.09-22.59,18.05-30.91,3.27-56.49A57.4,57.4,0,0,0,503.94,329.94Zm-36-10.25c39.06,22.41.09,41,13.25,73.62-2.77,6.92.15,32.27-.59,43.32l-.18-.17c-.36-.35-.9-.82-1.35-1.34a.73.73,0,0,1-.27-.28c-1-1.31-3-4-3.08-4-1.34,2.22-2.62,4.48-4.16,6.56-1.32,1.76-2.66,3.52-4.06,5.22a15.34,15.34,0,0,1-2.14,2.2,13.61,13.61,0,0,1-1.95,1.23c.91-4.57,1.38-10,2-16.1.11-1.11.3-12.59.28-13.76-.3-15.07-6.61-28.15-10.18-44.71C453,351.9,469.13,338.82,468,319.69ZM428.79,377.1c1.64-16.85,7.44-33.74,2-51.31-.29-.94-1.3-4.85-1.67-5.18l1.31.61a25.54,25.54,0,0,0,5.27,2,2.47,2.47,0,0,0,.66,0,29.26,29.26,0,0,0,22.34-4c.17,8.21-3.22,15.34-6.31,22.37-8.13,15.54-6.86,27.44-3.7,39.07,11,20.72,9.36,43.08,9.12,43.7,0,3-4.72,25.65-4.72,25.65-4.52.59-14.73.73-14.73.73C440.58,426.47,427.94,391.65,428.79,377.1Zm-267,325.21a72.24,72.24,0,0,1-8.19,7.93l-.08,0a1.09,1.09,0,0,0-.48.3,1.39,1.39,0,0,0-.21.27c-10.51,8.15-19.27,7.88-35.56,11.72-6.56,1.65-13.07,7.49-20,6-7-5.55-8.21-17.93-2.07-24.5,20.65-.77,41.83-5,59.32-16.89a1.39,1.39,0,0,0,1.58-.81l9.19-6.79A98.71,98.71,0,0,0,161.75,702.31Zm2,280.88c-1.2,7.34-14.59,16.61-21.23,9.43-5-5.37-5.74-15.06-9.15-19.12-6.44-7.69-15.52-10.58-34.67-3.22-4.41,1.7-16.6,3-19.93-3-2.69-4.91-3.65-10-3.14-13.42,1.47-9.68,6.62-13.8,16.48-17.91C120,924.32,172.78,935.34,163.71,983.19ZM235.5,655.68a28.44,28.44,0,0,1-7.41,6.41c-5.05,3-10.73,4.89-15.66,8.11,5.72-8.84,15-15.81,26.73-19.63A51.08,51.08,0,0,1,235.5,655.68Zm40.57,44.55c2,12.27,4.79,27.33,15.3,34.9-1,9.48-17.94,3.52-23.94,2.43-3.29-.74-8.38-2.76-7.29-7,4.22-4.63-8.27-17.42-8.23-24.3A53.94,53.94,0,0,1,256,664.8a45.87,45.87,0,0,1,6-7c1-1,2.13-2,3.22-3l.45-.3a35.17,35.17,0,0,1,14.53-5.6,1.15,1.15,0,0,0,.75-.48c6.49.59,13.57,1.44,19,2C290.77,665.79,274.67,681.68,276.07,700.23Zm111,151.63a10.68,10.68,0,0,1-6,1.11c-4.88-.48-6-2-12-1.34-14,1.47-22.84,0-23.58-10.32-.37-5.14,12.49-9.71,16-10.33C376.75,824.5,404.27,842.87,387.1,851.86Zm27.63-149.69a30.67,30.67,0,0,0,16.06,6.09c5.21.28,10.57-2.08,14.56-5.47s5.41-8.08,7.42-12.55a18.26,18.26,0,0,1,4.21-6.38c2.18-2,3.55-3.65,6.44-3.18a14.34,14.34,0,0,0,2.21.74c.25-.06.51.13.74,0,.67-.4.45-1.52.73-2.21.12.09,2.17,1.42,2.21,1.47.45.5.74,3,.74,3.69,0,2.21-1,3.73-2.21,5.89-1.14-.86-2.57-2.06-4.07-1.81-2.78.46-4.39,2.76-5.37,5.22s-.87,5.23-2.21,7.68-2.13,4.39-4,6.24c-3.78,3.72-9.33,7.82-14.52,8.93-6.15,1.32-13.12-.17-19.12-1.58-6.22-1.47-16.29-9.94-16.62-13.34a48.09,48.09,0,0,1,4.61-9.65C407.72,696.22,411.16,699.6,414.73,702.17Zm159.5,1.73a44.11,44.11,0,0,1-3.36,9.94c-1.49,3.08-3.28,6-4.64,9.16a20.9,20.9,0,0,0-2.09,9.3,14.62,14.62,0,0,0,2.49,7.59,9.71,9.71,0,0,0,6.43,4.21c1.23.17,2.48.18,3.69.44,1,.21,1.66.37,1.45,1.35a30.69,30.69,0,0,1-.57,3.32s-1.28,5.85-1.47,6.63a15.57,15.57,0,0,1-2.73,4.91l-.28.18-.2.1c.28-.16,0,0-.11,0a6,6,0,0,1-.61.15h-.08l-.33,0c-.24,0-1.08-.86-1.16-1.06s-.13-.28-.2-.42a2.1,2.1,0,0,0,0-.5c-.33-2.13-2.72-2.56-4.5-2.38-1,.1-1.9.35-2.88.36a9,9,0,0,1-2.83-.42c-3.86-1.19-6.89-4.68-8.33-8.36-1.9-4.85-1.15-10.31.18-15.21,1.46-5.37,3.61-10.55,5.38-15.82,3.38-10.05,6.08-20.67,5.2-31.35-.79-9.5-4.27-18.75-11.28-25.39-4.16-3.94-9-7-13.28-10.83-11.8-10.56-15.4-42.3-16.08-38.58-.73,4,2.28,21,10,39.47,18.37,36.55-7,36.54,2,100,5.24,25.59,16.35,51.09,33.12,71.21,3.35,4,9,8,9,13.56-.79,5.57-6.05,10.55-10.11,14.37a29.22,29.22,0,0,1-28.28,8l-.33-.4h0a11.47,11.47,0,0,1-3.48-7l.08-.13c1-7.05,3.67-11.51,1.3-19.22l-.24.13c-1.18-12.14-3.08-21.9-9.89-31.31-1.06-1.46-4-6.8-4.53-7.9-26.4-57-4.92-58.36-4.53-114.79h0c1.54-36.2-10.64-27-18.27-50.21-15,27.43-69.39,29.63-94,63.68C377,726,416.17,780.6,401.52,818.47c-2.54,7.43-6.82,19.24-8.1,23.58-14.27-19.36-24.72-18.42-44.21-7.37,36.31-41,8-76.25,14.75-120.58C380,634.5,536.11,652.52,473,596.38c34,39.57-21,39.73-66.33,64.41,7.32-7.71,13.48-10.27,23.25-14.15,5.23-2.08,10.59-3.86,15.76-6.1s10.3-5.14,14.1-9.41c4-4.47,5.34-17.94,4.48-17.94s-2.85,11.45-6.09,15.3c-3.58,4.27-8.48,7.09-13.53,9.31s-10.26,3.92-15.37,6-11.29,4.62-14.69,6.82c-4.58,2.94-7.91,5.06-12.33,12.43-.27.45-8.44,4.81-8.84,5.15-7,6-12.94,10.58-16,13.78a99.89,99.89,0,0,1,3.81-14.13,59.87,59.87,0,0,1,3.86-8.18,45.08,45.08,0,0,1,4.13-6.43,20.16,20.16,0,0,1,3.55-3.48A87.49,87.49,0,0,0,424.5,631.4a1.45,1.45,0,0,0,.78,0c5.54-1.14,11-3.43,15.15-7.38,4.37-4.17,6.33-9.85,7.09-15.72.27-2.08.38-4.18.45-6.28,22.08-25.27,34.35-36.95,58.34-35.75,20,1,27.43,24.66,30.81,30.86,1.27,2.32,13.56,33.58,13.81,34.22,6.91,17.48,22.19,45,22.19,45.54C573.11,678.26,575.44,698.16,574.23,703.9ZM428.6,627.52a123.78,123.78,0,0,0,16.09-20.1,31.89,31.89,0,0,1-1.58,7.14,20.25,20.25,0,0,1-10.27,11.23A29,29,0,0,1,428.6,627.52ZM652.05,758.79c-3.39,3.83-9.51,11.62-13.26,15.47-8.16,8.36-27.27,25.22-19.08,42.65.44.91.95,1.64.11,2.43-7.28,4.63-16.84,1-24.94,1.08-4.3.39-8.74-3.49-3.88-6.62,4.56.49-2.24-12.4,4-23.72,8.2-19.71,32.36-24.26,43.31-41.33,3.48-6.4,4.22-13.75,4.59-20.94a165.89,165.89,0,0,0,18.32,4.64c0,.06,1.2.48,1.19.55C662,735.85,660,749.81,652.05,758.79Zm322,84c-3.73,4.13-12-8.31-17.68-8.11-15-2.07-35.29-1.59-47.16-12.52-39.72-38.64-27.3-80.78,12.95-114.6C970.52,646,903.28,624.2,849,636.65c-32.43,7.78-62.25,23.56-94,33.41-29,6-63.66,8.24-92.31.17-20.58-6.12-31.42-28.25-43.83-44.08-2.29-2.16-14.58-34.6-17.68-36.84-3.46-2.5,8.39,30.83,14.74,39.79a73.42,73.42,0,0,0,4.28,7.12s0,.08,0,.13A226.38,226.38,0,0,0,640.35,668c1.12,1.49,4.75,6.27,6,7.58a10.76,10.76,0,0,0,1.18,1.26,56.62,56.62,0,0,1,10.26,14.85,2.2,2.2,0,0,0,.18,1.37,36.73,36.73,0,0,1,2.52,7.79,28.51,28.51,0,0,1,.75,5.62,93.88,93.88,0,0,1-20.37-6.61,1.65,1.65,0,0,0-.3-1l-6.42-9.76a74.42,74.42,0,0,0-6.3-8.86c-2.3-2.57-5.23-4.45-7.88-6.63-11.55-9.63-20-22.53-27.41-35.45-1.07-3.61-6.08-12.76-10.28-28.78-.2-.77,3,31.94,2.6,36.34-5.71-11.68-9-24.45-12-37.06-6.61-20.65-2.65-30.65,8.86-47.46C529.47,610.89,616,718.17,677.12,712.9a2.33,2.33,0,0,1,0,.38c23.07-.64,46.82-4.47,69.25-7,28-5.84,83.52,15,58.62,50.06-72,48.38-157.18,64.09-125.64,180.79-19.15-19.15-46.42-9.94-60.69,10.12,0-.17-2.67,3.34-2.67,3.15,1.8-71.71,21.36-110,69.92-159.29,19.32-20.18,104-41.22,98.81-64.71a74.92,74.92,0,0,1-4.87,7,26.32,26.32,0,0,0-2.37-1.46c-140.86,5.52-190.78-1.68-241.31-147.29-5.86-11.93-13.65-23.71-28.43-25.1-20-1.88-33.23,9.91-54.6,31.28-.57.14-10.32,10.26-11.48,11.75-9.8,12.67-19.63,25.27-31.87,33.34-43.13,25.3-95.31,8-142.09,6.6-71.8-6.25-93.51,74.69-25.05,101.11,17.21,10.55,29.18,30.41,27,50.32-3.31,29.62-24.25,49.32-44.18,68.18-5.81,5.49-24.79,21.38-32,31.28-14.41,19.68-27.2,40.55-27.63,71-6.94-35.07-48.81-39.9-76.9-28.85.29-.39,9.93-14.5,14.85-20.07,5.56-5.81,20.23-21.39,20.11-21.73,13.64-15.79,27.65-30.65,42.21-45l.2.16c10-9.49,20.22-18.8,30.82-28C209.1,809,229.25,791.35,229.84,775c-5.63,6.7-5.6,9.71-9.25,14.68-.27-.55-13.09-15-19.15-21.74-3-3.16-15.66-13-20.23-18-36.82-38.78-2.15-128.88,53.75-129.84,62.82-13.74,136.44,33.36,188.6-20.47,10.38-7.93,21.49-18.87,28-31.28.35-.89.68-1.8,1-2.74,2.53-8.37,2.9-17.44,2.09-26.11-.42-4.56-2.33-8.37-4.43-12.38-.87-1.64-1.72-3.3-2.63-4.91,3.85,8.37,6.15,17.28,5.22,26.49a42.54,42.54,0,0,1-.8,5,28.41,28.41,0,0,1-1.23,7.34,43.48,43.48,0,0,1-10.89,17.28,90.3,90.3,0,0,1-6.84,6.14c-16.74,12.87-36.22,33.71-63.74,33.87,11.59-7.5,30-10,34.33-30.11-62.65,57.41-85.3,18-155.35,25,82-10.85,82,11.15,149.51-38.77-105.36,46.07-180.62-40.87-201.52,6.35-21,71.53-100.55,97-167.67,80.33l-.15,0a1.49,1.49,0,0,1-.66-.15,1.38,1.38,0,0,1-.76-.59,1.88,1.88,0,0,0-1.14-.22,1.4,1.4,0,0,0-.7-.11,1.41,1.41,0,0,1-.89.83,1.57,1.57,0,0,1-2-.07h0l0,0h0l-.07,0-.1,0h0l0,0h0l-.1-.07-.09-.07-.08-.06a8.15,8.15,0,0,1-1.71-1.5,7.42,7.42,0,0,1-1.35-4.16,34.59,34.59,0,0,1,.92-10c.1-.44.22-.86.35-1.28,1.63-4.26,4.64-7.44,7.93-10.7a3.76,3.76,0,0,1,2.85-1.15c0,.05,0,.1,0,.15.06.54.1,1.08.17,1.61a2.36,2.36,0,0,0,.24.9,1.69,1.69,0,0,0,.52.58h0a1.68,1.68,0,0,1,.4.06,1.52,1.52,0,0,1,.38-.05l.07,0a1.57,1.57,0,0,1,.75-.19,1.9,1.9,0,0,1,.25,0h0l.26,0a2.42,2.42,0,0,1,.25,0l.05,0,.39.17h0l.05,0,.23.17h0c35.78,22.65,86.69,11,117.34-15.62,16.11-17.25,21.06-51.63,35.62-68.57,45.06-29.41,121.87,37.5,188.63,15.46,55.47-12.57,28.74-37.82,24.44-70.15,7.36-.91,37.13-6.73,24.49-40.64-.06-.24-.11-.48-.17-.72-.18-.72-.4-1.43-.63-2.13a24.46,24.46,0,0,0,2.66.9c14.06,6.86,38.7,7.49,49.73-15.53q.5.54,1,1.05c6.48,9.58,17.34,17.95,31.78,8.41,1-.67,9.67-9,10.24-9.75,0,0,2.88,10.34,10.7,13.91a22.7,22.7,0,0,0,11,2.31,24.05,24.05,0,0,0,9.43-2.29,46.1,46.1,0,0,0,10-6.06c1.81,1.69,15.74,22,42,7.86.07,0,.16,0,.24.05,1.41,5.45,6.69,26.49,32.9,13.76l.45.24c-.48,3.53-2.49,24.07,25.63,21.42-3.55,2.79-19.25,20.21.62,30.16-32.48.92-22.72,29.67-21,35-13.66,13.35-21.4,24.93,6.33,68.66,1.74,2.73,5.22,9.2,9.65,14.32,5.12,5.92,11.23,10.39,12.77,11a104.63,104.63,0,0,0,43.34,6.6,117.7,117.7,0,0,0,26.67-5.09c9.64-2.89,19.23-6,28.84-9,19-5.93,37.95-11.94,57-17.76,18.32-5.61,34-10.83,53.13-12.68,17.82-1.72,36.9,3.13,53.81,9.34,8.16,3,24.35,28.41,30.27,41.18,4,8.58,2.16,29,.44,37.63-4.45,17.18-20.53,27.38-31.24,40.63C918.18,754.2,917.05,762.5,920.41,783c1.73,14.48,22.75,26.34,37.37,22.28a18.3,18.3,0,0,0,8.86-5.17c13.07-2.31,11.24,16.29,10.81,24.45C977.31,832.31,978.31,838.31,974.05,842.79Zm-376.14-178q-5-6.21-10-13.55c.14-.26,0-13.58.07-13.29,1.47,3.69,17.38,27.11,26.78,36,2.56,2.31,5.39,4.27,8,6.49,3.09,2.61,5.2,5.95,7.4,9.29l4.68,7.11a116.77,116.77,0,0,1-29.22-23.22c.09-.15-6.13-6.77-7.78-9Z" transform="translate(-15.71 -3.38)"/><path d="M596.05,814.05s5.16-3.68,17.69.74A72.66,72.66,0,0,0,596.05,814.05Z" transform="translate(-15.71 -3.38)"/><path d="M677.84,266.24c11,55.7-.74,74.75-8.84,94.65-2,3.07-8.26,10.51.17,17.91,4.09,3.09,23,2.13,23.57-3.18C723.69,299,677.84,266.24,677.84,266.24Zm1,95.63a1.84,1.84,0,0,1,0,3.68A1.84,1.84,0,0,1,678.87,361.87Zm-3.49-6.25a1.15,1.15,0,0,1,0,2.3A1.15,1.15,0,0,1,675.38,355.62Zm-7.24,16.72c-2.46-1.12-1.26-4.79,1.21-3.68S670.62,373.45,668.14,372.34Zm3.45-7.32a1,1,0,0,1,0-2A1,1,0,0,1,671.59,365Zm3.19,2.26a1.62,1.62,0,0,1,0,3.24A1.62,1.62,0,0,1,674.78,367.28Zm2.14,10.05c-2.34-1.06-1.2-4.56,1.15-3.5S679.28,378.39,676.92,377.33Zm4.07-5.92a1,1,0,0,1,0-2A1,1,0,0,1,681,371.41Zm3.37-16a.72.72,0,0,1-.22.41,1.09,1.09,0,0,1-.89.4,1.22,1.22,0,0,1,0-2.44A1.2,1.2,0,0,1,684.36,355.39Zm2.65,8.16a1.59,1.59,0,0,1,0,3.18A1.59,1.59,0,0,1,687,363.55Zm2.26,9.31-.2.4a1.42,1.42,0,0,1-.66.5l-.18.08a1.26,1.26,0,0,1-.64.08,1.44,1.44,0,0,1-.69-.15,1.56,1.56,0,0,1-.59-.42,1.59,1.59,0,0,1-.43-.57l-.15-.44a1.75,1.75,0,0,1,0-.91l.2-.39a1.38,1.38,0,0,1,.66-.51l.18-.07a1.17,1.17,0,0,1,.64-.09,1.44,1.44,0,0,1,.69.15,1.58,1.58,0,0,1,.59.43,1.44,1.44,0,0,1,.43.57l.15.44A1.71,1.71,0,0,1,689.27,372.86Zm2.63-4.5a1.34,1.34,0,0,1,0-2.68A1.34,1.34,0,0,1,691.9,368.36Zm1-12a1.47,1.47,0,0,1,0-2.94A1.47,1.47,0,0,1,692.85,356.4Z" transform="translate(-15.71 -3.38)"/><path d="M649.1,227.81c20.64,49.82-17.07,106.63-18.51,117.24-1.12,9.13,2.11,14.24,12.62,19.37,4.23,2.31,19.29.1,19.29.1C705.87,272.62,649.1,227.81,649.1,227.81Zm2.54,109.43c2.74,0,2.73,4.24,0,4.24S648.92,337.24,651.64,337.24Zm-6.2-9.23a1.2,1.2,0,0,1,0,2.39A1.2,1.2,0,0,1,645.44,328Zm-10.73,24.65a1.07,1.07,0,0,1,0-2.13A1.07,1.07,0,0,1,634.71,352.66Zm.47-6.27c-3.45-1.56-1.77-6.68,1.67-5.13S638.63,348,635.18,346.39Zm4.12,11.72c-3.55-1.6-1.82-6.89,1.74-5.29S642.86,359.72,639.3,358.11Zm2.75-6.59a1.62,1.62,0,0,1,0-3.24A1.62,1.62,0,0,1,642.05,351.52ZM643,343a1,1,0,0,1,0-2A1,1,0,0,1,643,343Zm1.83-9.36a1.84,1.84,0,0,1,0,3.68A1.84,1.84,0,0,1,644.82,333.65Zm1.37,21.83a1.07,1.07,0,0,1,0-2.13A1.07,1.07,0,0,1,646.19,355.48ZM649.52,345c3.32,0,3.32,5.16,0,5.16S646.2,345,649.52,345Zm3.56,16.16a1.5,1.5,0,0,1-.5.79,1.47,1.47,0,0,1-.73.52l-.61.14a2.68,2.68,0,0,1-1.32-.23l-.61-.37a3.06,3.06,0,0,1-.86-1.07l-.07-.15a2,2,0,0,1-.26-1,1.9,1.9,0,0,1,.08-1,1.66,1.66,0,0,1,.5-.8,1.55,1.55,0,0,1,.74-.51l.61-.14a2.52,2.52,0,0,1,1.31.23l.61.37a3,3,0,0,1,.87,1.07l.07.15a2.09,2.09,0,0,1,.26,1A1.81,1.81,0,0,1,653.08,361.11Zm-.5-5.26a1.63,1.63,0,0,1,0-3.25A1.63,1.63,0,0,1,652.58,355.85Zm4.9-7a1,1,0,0,1,0,2A1,1,0,0,1,657.48,348.89Zm1,10.73c-3-1.35-1.53-5.77,1.45-4.43S661.47,361,658.49,359.62Zm3.63-15.07a1.48,1.48,0,0,1,0,2.95A1.48,1.48,0,0,1,662.12,344.55Zm1.19,8.3a1.07,1.07,0,0,1,0-2.14A1.07,1.07,0,0,1,663.31,352.85Zm2.82-11a1.6,1.6,0,0,1,0-3.19A1.6,1.6,0,0,1,666.13,341.9Z" transform="translate(-15.71 -3.38)"/><path d="M625.6,217.44c-3.59,12.1-39.8,101.92-39.8,101.92s-2.17,18.11,18.54,26.8c2.62,1.1,17.83,1.23,21-3h.11C657.92,286.34,660.75,213.14,625.6,217.44Zm-3.3,98.88a1.6,1.6,0,0,1,0,3.19A1.6,1.6,0,0,1,622.3,316.32Zm-10.92,6.16c-2.73,0-2.72-4.24,0-4.24S614.11,322.48,611.38,322.48Zm-8.33-6.89a1.84,1.84,0,0,1,0,3.68A1.84,1.84,0,0,1,603.05,315.59Zm-5-7.73a1.59,1.59,0,0,1,0,3.18A1.59,1.59,0,0,1,598,307.86Zm-7.32,16.47c-4.29-1.94-2.21-8.34,2.1-6.4S595,326.27,590.71,324.33Zm4.54,11c-3.91-1.76-2-7.57,1.9-5.81S599.16,337.06,595.25,335.29Zm5.6-7.81a1.47,1.47,0,0,1,0-2.94A1.47,1.47,0,0,1,600.85,327.48Zm3,4.45a1.42,1.42,0,0,1,0,2.83A1.42,1.42,0,0,1,603.86,331.93Zm1.13,9.86c-2.89,0-2.88-4.48,0-4.48S607.87,341.79,605,341.79Zm6-13.49c3.35,0,3.35,5.2,0,5.2S607.66,328.3,611,328.3ZM614,344c-3.1-1.4-1.59-6,1.5-4.61S617.14,345.38,614,344Zm2.24-6.41a1.42,1.42,0,0,1,0-2.83A1.42,1.42,0,0,1,616.28,337.58Zm2.44-5.86a1,1,0,0,1,0-2A1,1,0,0,1,618.72,331.72Zm1.26-8.61a1.85,1.85,0,0,1,0,3.69A1.85,1.85,0,0,1,620,323.11Zm2.62,16.7c-3.09-1.39-1.59-6,1.51-4.6S625.7,341.21,622.6,339.81Zm4.21-8.22a1.07,1.07,0,0,1,0-2.13A1.07,1.07,0,0,1,626.81,331.59Zm2.07-6.18a1.47,1.47,0,0,1,0-2.94A1.47,1.47,0,0,1,628.88,325.41Z" transform="translate(-15.71 -3.38)"/><path d="M620.77,215.86c-24.37-25.35-52.67,11.51-67.22,30.84-14,19.18-20.34,41-27.39,64.65l.11.07a10.26,10.26,0,0,0,2.41,8.28.49.49,0,0,1,0,.12c6.16,8.63,23.91,23.38,50.19-.47C578.86,319.36,624,223.56,620.77,215.86ZM573,301.67c2.85,0,2.84,4.42,0,4.42S570.11,301.67,573,301.67Zm-14.49,7.26a1.13,1.13,0,0,1,.57-.12h.19a1.4,1.4,0,0,1,.74.2l.3.23a1.47,1.47,0,0,1,.38.65l.05.39a1,1,0,0,1-.13.57,1.12,1.12,0,0,1-.3.47,1,1,0,0,1-.48.31,1.07,1.07,0,0,1-.56.12H559a1.5,1.5,0,0,1-.75-.2l-.29-.23a1.39,1.39,0,0,1-.38-.65l-.06-.39a1.25,1.25,0,0,1,.13-.57,1.4,1.4,0,0,1,.78-.78Zm-3.89-10.46a1.2,1.2,0,0,1,0,2.39A1.2,1.2,0,0,1,554.57,298.47Zm-5.83,6.7c-2.74,0-2.73-4.23,0-4.23S551.46,305.17,548.74,305.17ZM547.37,296a.79.79,0,0,1,0,1.58A.79.79,0,0,1,547.37,296Zm-6.54,1.55a1.6,1.6,0,0,1,0,3.19A1.6,1.6,0,0,1,540.83,297.51Zm-7.19,16.74a1.93,1.93,0,0,1-.67.45l-.61.14a2.63,2.63,0,0,1-1.31-.23h0a2.79,2.79,0,0,1-.71-.36,2.86,2.86,0,0,1-.41-.37,2.55,2.55,0,0,1-.62-.83,2.08,2.08,0,0,1-.25-1,1.9,1.9,0,0,1,.08-1l.29-.58A2,2,0,0,1,530,310a2.58,2.58,0,0,1,2-.84C534.93,309.15,535.48,312.86,533.64,314.25Zm2.06-11.84a1.48,1.48,0,0,1,0,2.95A1.48,1.48,0,0,1,535.7,302.41Zm4,21.11a3.21,3.21,0,0,1-3.24-2.36l0,0-.22-.64a2.52,2.52,0,0,1,0-1.31l.09-.26a1.64,1.64,0,0,1,.26-.53,3.2,3.2,0,0,1,3.08-1.94C544.27,316.45,544.26,323.52,539.71,323.52ZM547,308.8c3.26,0,3.26,5.06,0,5.06S543.79,308.8,547,308.8Zm2.45,17.84c-2.64,0-2.64-4.09,0-4.09S552.12,326.64,549.49,326.64Zm5.27-7.22c-3.64,0-3.63-5.64,0-5.64S558.39,319.42,554.76,319.42Zm7.06,7.41a2.27,2.27,0,0,1-1.05.46l-.09,0h-.13a4.34,4.34,0,0,1-.53.05,3.07,3.07,0,0,1-3-3.85,2.72,2.72,0,0,1,1.47-2.13A3,3,0,0,1,560,321C563.4,321,564,325.3,561.82,326.83ZM564.54,305a1.59,1.59,0,0,1,0-3.18A1.59,1.59,0,0,1,564.54,305Zm9.31,14.55a2,2,0,0,1-.64,1,2.12,2.12,0,0,1-1,.67l-.78.18a3.4,3.4,0,0,1-1.7-.3l-.8-.48a4.07,4.07,0,0,1-1.12-1.39l-.24-.5a2.6,2.6,0,0,1-.33-1.25,2.38,2.38,0,0,1,.11-1.27,2.08,2.08,0,0,1,.64-1,2,2,0,0,1,1-.66l.78-.19a3.34,3.34,0,0,1,1.71.31l.79.48a4,4,0,0,1,1.12,1.38l.24.5a2.6,2.6,0,0,1,.33,1.25A2.28,2.28,0,0,1,573.85,319.57Zm1.41-6.58a1.47,1.47,0,0,1,0-2.94A1.47,1.47,0,0,1,575.26,313Z" transform="translate(-15.71 -3.38)"/><path d="M578.29,205.72c-48.59,2.65-83.19,18.49-112.16,101.66,1.37.79,10,10.85,16.27,12.82,38.58,9.72,41.89-17.75,50.41-44.07,2.89-8.92,16.3-29.45,19.76-34.06,9.65-12.83,23.95-29.93,31.49-31.46,1.88-1.35,3.82-2.69,5.84-4A57.06,57.06,0,0,0,578.29,205.72Zm-64.36,86a1.59,1.59,0,0,1,0,3.18A1.59,1.59,0,0,1,513.93,291.68Zm-6.58,5.26a1.22,1.22,0,0,1,0,2.44A1.22,1.22,0,0,1,507.35,296.94ZM499.45,311a1.19,1.19,0,0,1,0-2.38A1.19,1.19,0,0,1,499.45,311ZM490,290.74a1.59,1.59,0,0,1,0,3.18A1.59,1.59,0,0,1,490,290.74Zm-17.17,14.47c-2.21-1-1.14-4.31,1.08-3.3S475.09,306.21,472.87,305.21Zm6-17.07c3.8,0,3.8,5.9,0,5.9S475.09,288.14,478.88,288.14Zm2.8,24.87-.08.22a1.26,1.26,0,0,1-.41.66,1.34,1.34,0,0,1-.61.43,1.47,1.47,0,0,1-.78.1,1.51,1.51,0,0,1-.82-.18l-.51-.31a2.49,2.49,0,0,1-.72-.89l-.19-.53a2.11,2.11,0,0,1,0-1.09l.08-.22a1.91,1.91,0,0,1,1-1.09,1.47,1.47,0,0,1,.78-.1,1.72,1.72,0,0,1,.82.18l.51.31a2.49,2.49,0,0,1,.72.89c.06.18.13.35.19.53A2.11,2.11,0,0,1,481.68,313Zm1.72-14.36a1.47,1.47,0,0,1,0,2.94A1.47,1.47,0,0,1,483.4,298.65ZM485,309.58a1.64,1.64,0,0,1,0-3.27A1.64,1.64,0,0,1,485,309.58Zm5.75,8.36-.08.22a1.33,1.33,0,0,1-.4.65,1.25,1.25,0,0,1-.61.42,1.44,1.44,0,0,1-.77.11,1.7,1.7,0,0,1-.81-.18l-.5-.31a2.45,2.45,0,0,1-.72-.88l-.18-.52a2.07,2.07,0,0,1,0-1.08l.07-.21a1.37,1.37,0,0,1,.41-.65,1.34,1.34,0,0,1,.61-.43,1.4,1.4,0,0,1,.76-.1,1.72,1.72,0,0,1,.82.18l.5.3a2.51,2.51,0,0,1,.71.88c.07.18.13.35.19.53A2,2,0,0,1,490.71,317.94Zm3.57-11.63c-.13.18-.27.35-.4.52a2,2,0,0,1-.83.54,2.36,2.36,0,0,1-2,0,1.9,1.9,0,0,1-.83-.54l-.19-.18a2.52,2.52,0,0,1-.66-1.14l-.09-.69a2.59,2.59,0,0,1,.35-1.3l.4-.52a1.94,1.94,0,0,1,.83-.53,2.27,2.27,0,0,1,2,0,1.88,1.88,0,0,1,.83.53l.19.19a2.52,2.52,0,0,1,.66,1.14l.09.68A2.56,2.56,0,0,1,494.28,306.31Zm2.91-10.45c2.73,0,2.72,4.23,0,4.23S494.46,295.86,497.19,295.86Zm1.3,23.28c-3.09-1.4-1.59-6,1.51-4.61S501.59,320.53,498.49,319.14Zm5.6-13a1.48,1.48,0,0,1,0-2.95A1.48,1.48,0,0,1,504.09,306.11Zm3.06,10.62c-3.1-1.4-1.59-6,1.5-4.61S510.25,318.13,507.15,316.73Zm10.3-8.23a2.49,2.49,0,0,1-3.7,1.92c-3.29-1.49-2.12-6.07.85-5.64a2.23,2.23,0,0,1,.27,0A2.77,2.77,0,0,1,517.45,308.5Zm2.5-7.81a1.59,1.59,0,0,1,0-3.17A1.59,1.59,0,0,1,520,300.69Z" transform="translate(-15.71 -3.38)"/><path d="M536.66,210.87s-85.57-9.25-110.45,86.95c0,0-3.64,19.65,17,19,8.39-.27,13.47-3.22,16.55-6.56a.77.77,0,0,1,0-.15C475.21,273.94,492.89,223.1,536.66,210.87ZM444,286.45c2.73,0,2.72,4.24,0,4.24S441.22,286.45,444,286.45Zm-6.78-9.85a1.34,1.34,0,0,1,0,2.68A1.34,1.34,0,0,1,437.17,276.6Zm-6.07,12.89a1.48,1.48,0,0,1,0,2.95A1.48,1.48,0,0,1,431.1,289.49Zm.12,11a1.47,1.47,0,0,1,0-2.94A1.47,1.47,0,0,1,431.22,300.46Zm2.36,8.48-.24.48a1.76,1.76,0,0,1-.8.62l-.15.06a1.46,1.46,0,0,1-.78.1,1.64,1.64,0,0,1-.83-.18,2,2,0,0,1-.73-.52,2.1,2.1,0,0,1-.52-.69l-.18-.54a2,2,0,0,1,0-1.1l.24-.48a1.64,1.64,0,0,1,.8-.62l.15-.06a1.49,1.49,0,0,1,.78-.11,1.72,1.72,0,0,1,.84.19,1.93,1.93,0,0,1,.72.51,2,2,0,0,1,.52.7c.06.18.13.36.19.53A2.08,2.08,0,0,1,433.58,308.94Zm3.54-23.53a1.47,1.47,0,0,1,0-2.94A1.47,1.47,0,0,1,437.12,285.41Zm3.57,10.42a1.85,1.85,0,0,1,0,3.69A1.85,1.85,0,0,1,440.69,295.83Zm2.6,16.79a1.52,1.52,0,0,1-.51.73l-.29.19a1.17,1.17,0,0,1-.59.26,1.3,1.3,0,0,1-.68,0,1.39,1.39,0,0,1-.7-.28,1.58,1.58,0,0,1-.58-.48l-.26-.42a1.92,1.92,0,0,1-.21-.93l.09-.46a1.44,1.44,0,0,1,.5-.73l.29-.19a1.09,1.09,0,0,1,.6-.26,1.29,1.29,0,0,1,.68,0,1.59,1.59,0,0,1,.7.29,1.63,1.63,0,0,1,.57.48l.27.42a2,2,0,0,1,.2.93Zm1.6-4.49c-3.64,0-3.63-5.64,0-5.64S448.52,308.13,444.89,308.13ZM455,309.64l-.22.45a1.6,1.6,0,0,1-.75.58l-.14.05a1.29,1.29,0,0,1-.73.1,1.48,1.48,0,0,1-.78-.17,1.79,1.79,0,0,1-.67-.48,1.72,1.72,0,0,1-.49-.65L451,309a2.1,2.1,0,0,1,0-1c.08-.15.16-.3.23-.45A1.6,1.6,0,0,1,452,307l.14-.06a1.38,1.38,0,0,1,.73-.09,1.48,1.48,0,0,1,.78.17,1.79,1.79,0,0,1,.67.48,1.83,1.83,0,0,1,.49.65l.18.5A2,2,0,0,1,455,309.64Zm-2.05-8.45c-3.8,0-3.79-5.9,0-5.9S456.72,301.19,452.92,301.19Zm1.37-10.47a1.59,1.59,0,0,1,0-3.18A1.59,1.59,0,0,1,454.29,290.72Zm6.78-12.59a1.17,1.17,0,0,1,1.16,1.4v0h0a.88.88,0,0,1-.23.56,1.13,1.13,0,0,1-.92.43A1.22,1.22,0,0,1,461.07,278.13Z" transform="translate(-15.71 -3.38)"/></svg>