<svg id="terragoyle" xmlns="http://www.w3.org/2000/svg" viewBox="0 0 1431.41 1426.74"><path d="M1395.94-838.15c-2.47-4.73-6.11-8.61-9.57-12.63-17.23-32.34-29-67-42.11-101.09-10.65-27.65-18.43-56.4-15.92-86.56.65-7.8-1.23-13.2-6.63-18.23-24-22.29-46.41-48.26-74.57-65.33-25.08-15.19-54.26-22.68-83.57-24.31-24.5-1.36-50.24-2-67.66,17-29.08,31.76-4.08,75.83,5.26,91.86,8.59,14.71,20.76,54.53,30.87,77.64,6.18,14.14,28.83,35.78,41.09,44.88,15.62,11.59,31.28,23.15,46.72,35,16.79,12.86,32.78,26.67,43.83,45.07,3.84,6.38,8,12.78,10,19.94a17.23,17.23,0,0,1-1.1,6.39c-2.1,5.25-7.06,7.51-11.31,10.72a126.59,126.59,0,0,0-19.81,18.69,114.47,114.47,0,0,1-27.58.32c-1.37-.18-2.77-.35-4.17-.47-5.74-.48-15.47-.48-17.91,1.95-5.66,5.66-6.3,17.82,2.44,19.47,2.49.48,16.91,2.65,21.9,2.44,6.35-.28,23,3.72,29.21,2.43,2.08-.43,4.76-.93,7.74-1.4a60,60,0,0,1,5.61-2.82,45.94,45.94,0,0,1,9.12-2.79,40,40,0,0,1,19.63-9,51.05,51.05,0,0,1,12.73,1.72c2.92.85,5.17,3.07,8.16,3.86,3.52.92,7.2.24,10.73-.2,7.22-.89,12.81-3.57,14.84-11.11s-1.78-12.94-6.9-17.92c-6.94-19.69-13.73-28.85-16-35.77-9.54-29.71-19.82-60.16-27.7-90.53-5.86-22.59-18.77-45.26-33.66-63.65-14.4-17.79-33.42-30.66-50.11-46-8-7.39-14.53-15.67-15.3-27.7,7.15.42,8.48,5.86,11,9.57,3.48,5.07,7,10,12.24,13.31,21.71,13.5,38,32.67,54.27,51.81a118.76,118.76,0,0,1,26,52.93c5.45,25.49,14.07,49.9,23.48,74.1,2.29,5.89,38.58,50.38,46.8,50.65,3.8,5,12,6.6,17.88,4.94,7.86-2.22,12.19-10.33,16.52-16.56C1397.58-822.92,1400.4-829.63,1395.94-838.15Z" transform="translate(-773.31 2176.29)"/><path d="M971.23-1310.93l-.8-.17.61.09Z" transform="translate(-773.31 2176.29)"/><polygon points="133.88 817.46 133.33 817.31 133.73 817.47 133.88 817.46"/><polygon points="1185.19 486.39 1185.48 485.88 1184.99 486.2 1185.19 486.39"/><path d="M1774.14-1145.84c-5-24.4-18.82-29.8-43.87-26.93-31.79,3.64-55.37,22.2-82.55,35.89-19.68,9.92-28,35.77-32.56,55.25-.91,3.94-1.09,8-1.84,12-2.24,11.92-3.41,24.09-10.3,34.71-3.16,4.89-2.51,10.35-.47,18.15,19.24-23.22,39-42.38,65.41-52.92-3.54,7.66-10.8,11.41-16.8,16.29-14.91,12.09-25.85,28.07-40.14,40.56-8.88,7.76-19.69,16.16-21.38,27.58-2,13.3-11,25.6-17.06,37.63-17.79,35.53-48.07,59.47-64,95.44-7.58,17.09-14.8,27.48-22.76,42.4a22.06,22.06,0,0,0-2.12,3.24,22.61,22.61,0,0,0,.34,21.36c2.74,6.48,9.7,11.33,16.92,11.91,6.26.51,11.88-1.68,17.63-3.77.65.13,1.29.29,1.93.43,12.91-2.75,30.73,5.49,40.7,9.61l1.84.77,3.94,1.66,4.33,1.83,2.88,1.22c5.17,2.14,11.74,4.55,16.31,5.27,4.88.78,12-.12,17.89,1.2a28.22,28.22,0,0,0,3.9-.18c5-.69,9.46-3,13.9-5.37a10.27,10.27,0,0,0,2.76-4,10.66,10.66,0,0,0,.42-1.56,21.18,21.18,0,0,0,1-2.69,9.54,9.54,0,0,0-2.61-9.67,26.1,26.1,0,0,0-7.36.64c-1.81.42-3.61.83-5.4,1.12-.16-.21-.36-.4-.53-.59a16.89,16.89,0,0,1-4.45.62,17.14,17.14,0,0,1-9-2.62,50.66,50.66,0,0,1-7.35-3.06l-.72-.35-.08,0a19,19,0,0,1-9.42-6.74c-4-3.06-7.86-6.55-11.69-9.54-7.59-5.92-15.92-10.28-25-10.72l-1.8-.72c-2.8-4.13-3.19-6.54-2.7-7.3a86.53,86.53,0,0,1,20.4-22.09c7.77-5.92,56.37-41.58,68.47-51,5.14-3.59,10.12-7.46,15.07-11.09,19.28-14.13,37.88-29.28,53.14-47.81,20.71-25.14,35.5-54.1,46.91-84.4,3.65-4.34,7.29-8.69,10.85-13.12C1781.54-1077.81,1781.13-1112,1774.14-1145.84Z" transform="translate(-773.31 2176.29)"/><polygon points="863.87 1043.25 863.55 1043.76 863.9 1043.41 863.87 1043.25"/><polygon points="496.09 1060.58 496.55 1060.93 496.19 1060.51 496.09 1060.58"/><path d="M1801.5-1739.22c-20.54,1.63-38.3,9.84-61.78,14.63.06,4-.58,7.76.27,11.19,21.76,87.64.24,162-69.15,220.69-10.54,8.92-25,30.37-26.35,42,30.66-4.91,52,7.13,67.91,22.91,28.74,28.48,36.13,79.77,17.52,115.58-4.89,9.41-11.05,15.71-19.77,21.51-5.79,3.86-4.94,7.62-5.37,14-.35,5.38-1.5,10.77-2.25,16.11-1,7.19-2,14.43-4.8,21.18-2.46,6-3.86,8.42-7.53,17.86-.2.51,45.67-4.34,76.32,5.89,16.13-23,26-35.72,43.16-55.52,48.76-56.29,105.48-60.56,162.39-12,11.83,10.09,20.24,24.63,36.93,30.8,33.34-64.65,2.25-307.6,195.71-229.48C2024.75-1837.87,1918.41-1748.5,1801.5-1739.22Zm3.52,35c132.09,101,169.68,240.33,191.74,386.92-10.47-33.47-20.55-67.07-31.5-100.39-20.57-62.62-45.34-123.49-80.67-179.43-22.67-35.89-49-68.47-93.94-90,43.47,128.64,23.71,252.72-3.13,376.73,5-111.44,29.57-223.23-4.66-334.66-12.43,50.77-25.11,100.52-68.83,135.85,44.67-63.29,55.36-132.49,36.37-205.85,225.38-45.84,296-28.58,396,184.47C2017.11-1693.9,2025.4-1717.61,1805-1704.18Z" transform="translate(-773.31 2176.29)"/><path d="M1234.93-1192s-7.77-23.1-14.6-34.31c-19-31.21-25.45-77.09-7.58-110.19,15.82-29.3,46.65-50.77,78.08-62.07,3-1.08,28.65-8.06,49.5-6.84,0,0-32.34-34.18-39.59-41.46-64.12-64.45-79.22-140.32-50.06-225.78,1.14-3.35.83-7.19,1.23-11.12-18.43-13-40.36-12-60.69-15.37-131.6-21.48-213.72-89.27-417.91,214.74,170.44-59.94,142.3,180.79,170,248,17.15-4.71,26.76-18.48,39.41-27.53,60.85-43.51,117-34.41,160.78,25.84,15.4,21.19,12.63,25.2,26.74,49.48C1191.71-1193.72,1234.93-1192,1234.93-1192Zm-66-83.16c-16.16-125.85-25.25-251.16,29-375.62-46.56,17.65-75.63,47.86-101.28,81.69-40,52.71-69.85,111.24-95.69,171.88-13.75,32.26-26.66,64.88-40,97.34,34.49-144.17,83.84-279.84,224.07-369.14-183.38-21-226.2-.29-369,151.41,136.51-192.4,200.24-211.81,424.34-157.58-25.19,71.47-20.43,141.34,18.67,208.2-40.55-38.93-48.94-89.57-57-141.21C1158.51-1500.07,1173.47-1386.59,1168.93-1275.13Z" transform="translate(-773.31 2176.29)"/><path d="M2011.89-1795.22c.29-147.36-95.1-159.43-249.39-65.49-23.1,13.84-85.48,59.84-122.34,74.58-70.76,29.58-194.81,32.61-192.75-60,3.91.09,32.88,8.56,40.49,17,5.66,5.14,21,15.32,20,13.41-8-14.7-15.51-33.58-30.73-42.62,7.32-3.53,27.83-9.14,30.9-10,8.89-2.6,28.89,22.25,28.89,22.25s1.62-18.18-7.63-26.43c18.81-.47,56.08,21.16,56.08,21.16s-14.86-18.22-17.59-19.62c-12.53-10.2-25.86-18.92-42.69-20.35,8.42-4,12.6-7,22.14-8.19,15.21-1.65,37.08,19.72,37.08,19.72s-30.6-58.67-63.21-36.82c-99,66.31-154.82,9.44-183.42-4-19.87-9.35-37.21,13.08-48.56,29.4-1.39,1.88,14.6-11,22.79-12.71,14.86-1.5,32.33,1.52,43.87,11.37-30.22,5.36-60.19,24.3-60,57.6-.12,2.07,10.5-13,15.24-18.74,12.78-12.21,32.6-14.8,49.54-16.85-11.34,6-12.2,19.16-18.53,29-1.41,2.48,22.91-14.74,35.68-17.6,7.19-1.33,16.5-5.3,22.5.35a77.38,77.38,0,0,0-12.93,8.27c-11.55,9.1-17.42,24.17-22.56,37.49-1.64,4.23,27.77-29.64,49-31.55,5.94,11.56,5.38,24.82,6,33.26,5.58,73.71,125.58,90.71,217.38,66.4,120.77-32,246.2-120.69,277.55-104.09,0,0-12.4-18.69-7.07-14.94,35.91,25.24,18,99,18,99C2016.44-1771.43,2020.22-1704.3,2011.89-1795.22Z" transform="translate(-773.31 2176.29)"/><path d="M1393.58-1836.35v0Z" transform="translate(-773.31 2176.29)"/><path d="M1517.1-1598.63c-16.17-.38-29.5,6.51-41.54,16.56-10.14,8.45-12.73,20-13.23,32.37-.71,17.64,2.39,34.83,5.78,52a18.07,18.07,0,0,0,.91,3.15c.46,5.82,7,11.65,11.85,13.28,4.26,1.43,8.78,1.23,13.16.6s15.14-6.14,15.6-6.58a27.79,27.79,0,0,0,5.53-7.81c1.33-2.94-.11-5.44-2.05-7.65a2.47,2.47,0,0,0-1.73-.92,1,1,0,0,0-.44-.36,8.27,8.27,0,0,0-5.51.08c-5.81,2.33-11.34,5.44-17.23,7.49-4.49,1.56-7.52.61-9.58-.94,6.36-2.75,13.23-5.46,19.84-8.67,3.83-1.86,7-5.19,11.77-3a6.24,6.24,0,0,0,.24-1.35c-.42-2.91-.86-5.81-1.3-8.72-.72-4.9-2.2-5.27-6.63-3.15a92.82,92.82,0,0,1-16.37,6.14c-3.11.81-6.66-.12-10-.27,0-.44,0-.88,0-1.31a47.09,47.09,0,0,0,4.76-1.13c6-2.12,12.09-4.26,18.07-6.54,2.91-1.1,5.68-2.55,9-4.06-.26-3.15-.6-7.27-1-12.13-11,3.4-21.32,8.12-32.6,6-.15-.57-.29-1.13-.43-1.7l33.07-8.1c0-2.22.07-3.75.1-5.28.13-6.22-1.42-7.65-7.6-6.66-4.42.7-8.81,1.65-13.2,2.51-1.79.35-3.56.79-5.34,1.17s-3.53.72-5.29,1.08l-.18-1.11c9.85-5.74,20.12-9.75,32.25-7.49.42-2.58.86-5.28,1.5-9.19l-29.09-.76c8.65-4.34,17.23-5,25.89-3.34,4.12.77,5.63-.54,6.08-4.74l-14.52-8a54.64,54.64,0,0,1,14.33,3.3c2.88,1.11,4.38.58,5.68-2.41l-8.15-5.78c.18-.33.35-.66.52-1l13.87,4.86-2.33-4.46,15.13,4.72.33-1.08a43.71,43.71,0,0,1-4-3A23,23,0,0,0,1517.1-1598.63Z" transform="translate(-773.31 2176.29)"/><path d="M1524.41-1549.12c4.5-13.29,15.59-17.85,28-10.76,8,4.59,15.39,10.28,23.5,14.65,10.62,5.73,22,2.13,27.45-8.65a38.62,38.62,0,0,0,3.79-14.84c.39-6.66-.63-13.39-1-20.1-.1-2,.06-4,.11-6.39,5,2.81,9.71,14.5,10.54,25.3l-5-1.35c2.09,2.24,4.18,3.76,5.21,5.81s.88,4.51,1.37,7.55l-5.11-2.22c4,4.44,6.22,9.25,3.52,15.51l-7.07-3.87c1.9,4,5.22,7.88,5.25,11.81s-3.17,8.06-5.72,12.08c.41-7.33-1.25-13.62-6.21-18.3.48,5.87,1,11.93,1.48,18s-2.78,9.26-8.92,10.91c1.24-8.22,2.79-16.38-3.06-24.45.14,3.69.42,6.53.3,9.35a80.7,80.7,0,0,1-1,10.43c-1.3,7.66-1.41,7.65-9.94,7.62,2.32-8.61,5.52-17.07,3.61-26.45-2.43,7.18-4.63,14.09-7.12,20.89-2.33,6.39-2.47,6.35-9,4.22a32,32,0,0,1-3-1.38c3.79-8,8.54-15.47,8.58-24.67l-12.54,22.9c-1.37-.74-2.4-1.36-3.47-1.89-2.93-1.45-3.46-3.21-1.81-6.3,3.39-6.35,6.32-13,9.44-19.45l-1.2-.76q-6.73,10.11-13.47,20.24c-5.43-3-5.88-3.82-3.19-9.36,2.57-5.25,5.58-10.29,8.8-16.18-7.54,3.86-10.51,10.6-14.25,17.31a66.84,66.84,0,0,1-5.32-6.2c-.49-.71-.2-2.45.37-3.3,3.6-5.38,7.38-10.65,10.8-15.51-4.46-.06-5.94,1.29-14.76,14.24Z" transform="translate(-773.31 2176.29)"/><path d="M1573.42-1550.76c-6.39-4.59-12.83-9.11-19.11-13.83-.78-.58-.71-2.26-1.1-3.4-.77-2.24-1.59-4.46-2.39-6.69l-1,.28.09,6.92c-4-1.89-8.06-2.28-8-7.9,0-2.11-2.27-4.24-4.25-6.09.2,3.07.4,6.14.62,9.41l-6.1,1-5.34-9.06c-1,5.76,2.66,12.15-4.38,16.32L1520-1569c-1.38,7-2.84,14.31-4.3,21.66l-1.81-.17a35.25,35.25,0,0,1,0-6.16c1.11-6.86,1.58-14,3.92-20.43,3.71-10.26,12.63-13.57,22.44-8.6a65.73,65.73,0,0,1,15.61,11.1c6.48,6.24,12.08,13.4,18.07,20.17Z" transform="translate(-773.31 2176.29)"/><path d="M1423.17-1483.95a2.9,2.9,0,0,0,.46-.79,15,15,0,0,0,1.57-3.42,15.05,15.05,0,0,0,3.12-7.09c3.75-19.45,7.28-38.82,5.11-58.76-1.25-11.51-6-21.2-15.72-27.51a114.78,114.78,0,0,0-23.35-12c-12.85-4.62-25.07-3.08-35.6,9l16.3-5.25-2,3.83c2.75-.21,4.79-1.3,7-2s4.54-1.16,6.82-1.72l.19.8-8.21,5.68c1.59,3.16,3.18,3.36,5.81,2.38,4.54-1.7,9.32-2.76,14-4.09l.42,1.2-14.69,8c.55,4.24,2.47,4.9,6.17,4.28,8.64-1.46,17.2-1,25.14,3.54-4.69.17-9.37-.26-14-.13s-9.34.84-14.31,1.32c.57,3.39,1,6.07,1.48,8.76,10.92-2.09,27.21,2.22,32,8.38-8-1.6-16-3.29-23.94-4.71-5.83-1-7.66.66-7.5,6.33,0,1.66.08,3.32.12,5l33,8.88-.27,1.62c-1.75.18-3.58.78-5.22.45-7.51-1.52-15-3.31-22.45-5l-5.21-1.23c-.35,4.85-.65,8.87-.86,11.83,3.24,1.46,6,2.67,8.71,3.94,2.54,1.19,5,2.59,7.56,3.64,4.91,2,9.91,3.81,14.55,5.57-2.56.08-6.18,1-9.31.1-5.73-1.58-11.21-4.1-16.7-6.44-2.37-1-4.78-2.05-5.65,1.2-1,3.83-1.27,7.87-1.85,11.77,2.59.14,5.26-.51,6.84.51,8.07,5.2,16.54,9.3,26.68,11.29a15.08,15.08,0,0,1-13.49.91c-4.94-1.88-9.52-4.72-14.44-6.66-1.93-.76-5.16-1.11-6.41,0a3.16,3.16,0,0,0-1,1.61,3.38,3.38,0,0,0-.55,1c-3.2,8.58,7.58,17.37,14.46,20.13a27,27,0,0,0,13,1.76C1416.92-1476.82,1419.46-1479.34,1423.17-1483.95Z" transform="translate(-773.31 2176.29)"/><path d="M1372.41-1546.46l-10.63,6.71c-3.93-6.08-7-13.37-15.25-14.79,3.48,4.7,6.83,9.41,10.39,14,2.47,3.16,2,5.72-.92,8.19-1,.87-1.9,2-3.32,3.45-1.94-3.57-3.36-6.93-5.46-9.8s-4.84-5.17-7.31-7.73l-.85.71c2.8,5.15,5.81,10.2,8.36,15.46,2.77,5.72,2.48,6.14-3.13,9.53q-6.7-10.17-13.43-20.34l-1.2.73,11,23.22-6.45,4.6-12.69-23.25c-.34,9.29,4.52,16.72,8.38,25.17l-10.07,2.82-9-26.76c-2,9.12,1.14,17.6,3.58,26.18-8.21.5-8.87.28-9.85-7.26-.85-6.58-.85-13.26-1.66-20.25-1.14,4-2.87,8-3.27,12.05s.55,8.21.91,12.38c-6.93-2-8.51-3.37-8.55-10,0-6.22.8-12.44,1.22-18.06-3.57,2.3-4.5,4.75-6.82,17.68-1.81-4.08-5-8.17-5-12.25,0-3.87,3.4-7.73,5.21-11.41l-6.91,3.77c-2.73-6.19-.83-11.1,3.67-15.67l-4.3,1.83c-1.43-5.43-.83-6.86,5.82-12.89l-5.45,1.28c1.62-9.17,3.61-17.92,9.3-25.27l1.26.05a37.14,37.14,0,0,1,.46,5.34c-.36,6.42-1.13,12.84-1.27,19.26-.17,7.89,1.49,15.33,7.16,21.32,6.53,6.9,14.85,8.8,23.31,4.48,6.21-3.16,11.91-7.31,17.86-11a90.57,90.57,0,0,1,9.41-5.5c8.35-3.87,14.68-2.42,20.58,4.62A84,84,0,0,1,1372.41-1546.46Z" transform="translate(-773.31 2176.29)"/><path d="M1364.24-1568.12l-6-1c.2-3.22.39-6.32.59-9.42l-.64-.35c-1.26,2.07-3.6,4.16-3.57,6.21.07,5.58-3.9,6.23-8,8,0-2.57,0-4.7,0-6.83l-.91-.36c-.83,2.06-2.18,4.08-2.36,6.19a7,7,0,0,1-3.45,5.73c-5.71,3.88-11.3,7.93-16.94,11.92-.29-.35-.58-.69-.86-1,8.24-8.46,16.21-17.21,24.85-25.24,3.35-3.11,8-5.15,12.45-6.65,8-2.71,14.37.08,18.35,7.5,4.86,9.07,4.92,19,4.78,29.57-4.92-7.33-5.65-14.82-5.86-22.76l-2.59,5.68c-4.24-3.07-4.24-3.07-4.29-16.31C1368.05-1574.36,1366.29-1571.47,1364.24-1568.12Z" transform="translate(-773.31 2176.29)"/><path d="M1492.41-1499.81c-4.41,1.15-10.69,6.43-19.41,11.42-.87.5-5.58-1.27-6.44-4.19-1-3.39-1.06-7-1.25-7.05-3.88-.32-14.74,4.21-19,4.21-5.45,0-10.53-4.21-15.8-2.11a9,9,0,0,1-.89,5.53c-1.27,2.34-3.93,3.78-5.1,3.38-39.5-13.33-48.65-2.05-52.34-.15-7.17,3.68-17.83,13.35-20.48,24.1-5,16.3-4.19,34.63,6.86,48.29,4.93,6.1,10.68,10.34,12.52,18.32,1.74,7.57,1,15.55,1.6,23.25a99,99,0,0,0,9.83,35.89,2.8,2.8,0,0,1,.34-.21c2.33,6.13,7.73,9.85,12.08,14.41s7.42,9.57,12.66,13.36c13.47,8.45,24.92,15.57,36.54,25.25a33.42,33.42,0,0,0,20.71,7.92c4.31.07,8.31-.76,10.36-3.32,0,0,7.7,2.58,14.71-4.9,12.22-13,9-35,16.6-49.87,1.58-3.57,3.21-7.11,5-10.6,4.55-9,10.21-17.52,14-26.91a65.31,65.31,0,0,0,2.93-9.2,81,81,0,0,0,4.28-24.11c.38-16-.32-31.48,4.32-46.93a38,38,0,0,0,1.89-11.65C1542.51-1477.41,1539.45-1512.13,1492.41-1499.81Zm-53.76,102.3c-.79-1.29-1.34-2.23-1.92-3.15-3.93-6.22-9.62-8.57-16.8-7.64a55.41,55.41,0,0,0-12,3.39c-2,.74-4,1.62-6.23,1.6a54.09,54.09,0,0,1,9.26-5.46,7.24,7.24,0,0,0,1.22-.59,1.25,1.25,0,0,0,.46-1.23c-.08-.57-.53-.68-1-.73-1.08-.1-2.17-.13-3.23-.29-1.77-.27-2.11-1.11-1.08-2.57a4.89,4.89,0,0,1,1.19-1.21,24.32,24.32,0,0,1,11.67-4.44,10,10,0,0,1,8.06,3,19,19,0,0,1,2.74,3.26c2.42,3.66,4.46,7.54,6.56,11.39A7.58,7.58,0,0,1,1438.65-1397.51Zm13.52,71.69c3.55-1.57,22.62-5.29,36-1.29,0,0-15.48-.84-37.53,6.34C1450.64-1320.77,1448.62-1324.25,1452.17-1325.82Zm27.89-24.25c-7.37,6.32,1.21-3.68-7.37,0s-12.17-.12-12.17-.12v-3.68s4.91,4.91,13.49-1.22c0,0,3.68,2.45-8.58-28.21C1465.43-1383.3,1486-1355.18,1480.06-1350.07Zm26.37-56.76c-.78.61-1.55,1-2.23-.19a6.58,6.58,0,0,0-4.08-2.88,23.37,23.37,0,0,0-12-.47c-3.09.66-4.88,2.93-6.26,5.61-.8,1.56-1.37,3.26-2.63,4.55-.36.37-.79.72-1.35.42s-.56-.69-.6-1.45a12.52,12.52,0,0,1,.54-1.68c1.91-4.31,3.79-8.64,5.8-12.9,4.52-9.55,14.48-7.28,19.12-2.37,1.53,1.63,1.26,2.34-1,3-1,.28-2.67,0-2.79,1.16s1.61.76,2.44,1.27a30.85,30.85,0,0,1,5.26,3.75C1507.71-1408.11,1507.23-1407.46,1506.43-1406.83Z" transform="translate(-773.31 2176.29)"/><path d="M1680.09-1438.41c-50.32-19.7-142.56,14.67-141.42,21.89a91.26,91.26,0,0,1,.82,24.2c-.19,1.81-.28,3.67-.34,5.54-3.08,10-8,19.82-11.19,29.18-2.07,4.94-5.67,9.68-4.54,16,20.19-2.88,23.42-5.65,41.74-10.64,13.16-3.59,17.79-4,10.65-.4-34.74,17.58-58.68,15.36-63.1,28.7a88.88,88.88,0,0,1-7.43,21.53c-.22.92-.43,1.84-.65,2.76-2.19,9.18-4.06,18.53-12,24.62-2.68,2.06-5.38,3.38-8.77,2.94-2.54-.34-4.74-1.06-7.35-.8a46.18,46.18,0,0,0-6.72,1.59c-8.1,2.08-14.75,1.65-21.72-3.23l-.74-.23c-12.61-6.27-23.22-16.85-35.56-24a27.22,27.22,0,0,1-2.75-2.54c-1.89-1.11-3.75-2.25-5.59-3.46a75.6,75.6,0,0,1-22.4-23,26,26,0,0,0-11.28-1.91c-36.34-.06-40.13-2.21-76.23-7,0,0,41.44,3.55,81.11.43-13.49-27.42-6.13-40.91-7.36-58.08-6.38-5.78-57.64,1.23-75.46,5.35-73.65,27-106.13,94.21-60.36,162.25,7.56,10.2,11.59,11,9.68,25,1.77,17.79,16,46.57,26.95,64.76,18.19,35.79,56.77,59.25,72.09,96.9l.19-.17c-1.21,57.65,23.85,143.26,61.54,188.37.42-.25.85-.48,1.27-.71l-.77.49c2.65,8.35,5.48,25.33,4.13,33.7a3.84,3.84,0,0,0-1.17,0c-2.81,9-11.33,14.66-17.48,22-11.16,11.62-9.33,25.75-7.11,39.84a7,7,0,0,0,7,5.75c10.15.31,10.17-8.55,9.85-13.88,2,9.43.3,14.19,10.11,14.19,7.36,0,10.55-2.17,11.31-12,5.05,4.23-1.5,13.23,12.28,12.89,12-.89,5.77-10.76,8.45-17,2.78,10.6,2.22,16.16,10.89,16.16,11,0,9.1-7.51,8-19.1-1.06-3.81.71-14.32,0-19.72-.57-4.1,0-6.47,3.11-2.88.21.25-1.58,17.8,0,19.63,3.44,4,10.09,4.07,12.48-.62,4.27-4.76,13.91-43.54-16.9-41.17-2.62-8.5-5.12-17.45-8.23-19.85-1.25-81.69,20.22-171.34-80.29-210.34,15.22-.46,25,6.81,46.85,21.41-14.6-26.77-24.8-70.57-35.49-105.68-14-54.84-39.38-75.45-50.07-141.49,8,10.49,32.77,68.74,39.36,88.73,1.23,3.71,6,10.6,10.54,13.69,30.54,0,73.74-20.92,71.76-59.93,0-6.6-1.54-13.4.5-19.8,4.4-.22,4.45,2.66,5.21,4.81,20,48-43.77,78.08-65.89,78.08-8.72,0-6,18.85-3.27,27.9,2.9,9.67,3.77,19.93,6.68,29.64,12.23,40.86,18.22,57.61,27.79,91.12,0,0,28.2,20.3,35.31,76.25.22,1.67.82,1.92,1.4,1.55a4.08,4.08,0,0,0,2-2.72c6.17-38.26,36-96.08,58.85-123.53,3.49-4.45,13.84-56.25,18.56-69.26,5.78-15.92,7.1-22.5,9.61-33.62,2.19-9.76,6.16-14.64,6.35-26-16.85,4.39-34.74,5.08-49.83,7.43-17.75,4.61-47.1-8.58-34.52-34.52,6.26,13.72,10.09,30.39,26.43,28,16.84-2.5,34.75-2.81,49.55-7.42,13.08-4.08,15.26-22.92,18.78-32.4,6.82-29.21,35.69-77.42,62.58-89.52-.39,8.33-10.54,14-15,19.81-43.87,44.27-73.87,202.26-82.58,228.81,18.33-20.72,17.65-18.6,39.71-35-39.25,47.56-55,47.86-83.76,119.65-8.11,20.27-16.75,56.23-26.32,70.59,0,3.55-2.18,56.45-1.44,69.88.45,7.76-3.22,19.21,4.57,24,3.57,1.73,15.91,4.18,16,3.94,45.45-90.66,113.65-132.54,115-233.39,0-2.8,3.18,3.76,6.43,2.65,3.44-13,5.37-26.37,7.71-39.65,17.28-48.94,44.5-80.48,70.1-126.68,13.54-24.43,17.28-44.93,19.49-68.91,1.36-3.32,2.94-5.93,5-7.28,13.2-8.65,18.53-22.47,24-42.15C1739.85-1383.2,1717.11-1423.92,1680.09-1438.41Zm-254.8,336.92s31.6-22.12,85.31-15.8A54.07,54.07,0,0,1,1518-1111S1485.33-1116.24,1425.29-1101.49ZM1523.7-1167c5.89.15,8.12,4.11,9.87,11.3-43-3.29-84.73-7.89-120,22.33C1437.59-1170.08,1485-1168.55,1523.7-1167Z" transform="translate(-773.31 2176.29)"/><path d="M1410.15-1908.91a2.14,2.14,0,0,0,2.55-.14c2.59-2.38,5.47-.37,8-.27,2.11.09,4,.3,5.79-.79a5.52,5.52,0,0,1,6.27-.23,2.47,2.47,0,0,0,1.48.49,61.42,61.42,0,0,0,9.26-2.53c1.84-.77,2.74-3.91,5.58-1.93.09.06.33-.08.5-.14,3-1.06,6-2.3,9.31-2.42a4.1,4.1,0,0,0,2.63-1.21c2.56-2.37,4.06-2.5,6.92-.34,3.7,2.78,7.76,3.27,12.21,2.49,3.84-.67,6.81-3,10-4.86,2.08-1.22,4.09-3.07,6.46-2.91s3.68-.83,5.15-2.12a42,42,0,0,1,3.64-2.72,55.47,55.47,0,0,0,8.12-6.86c3.09-3.18,6.45-6.38,8.2-10.7a2.28,2.28,0,0,1,1.09-1.14c2.64-1.13,4.06-3.33,5.45-5.69,1.68-2.89,3-6,5.27-8.54s3.68-5.58,6.86-7c2-.87,2.9-2.4,3.68-4.29,1.5-3.63,3-7.29,7.31-8.66,1.35-.42,2-1.71,2.63-3.13,1.31-3,1.15-6.74,3.09-9.3,2.66-3.49,3.29-7.54,4.58-11.44.24-.72.5-1.52,1.27-1.56,1.87-.12,1.24-1.52,1.45-2.5.32-1.45-1-1.56-1.74-2-.94-.48-2-.67-2.75-1.55-1-1.21-1.62-2.18.74-2.6,1.87-.32,3.72-1,3.4-3.61-.06-.41.49-.91.78-1.35,2.07-3.21,2.58-6.56.91-10.1a6.81,6.81,0,0,1-1-2.47,34.5,34.5,0,0,0-1.37-9.13,2,2,0,0,1,.25-1.25c2-4.6-.44-8.71-1.57-12.9-.65-2.45-2.15-4.63-1.47-7.4a18.53,18.53,0,0,0,.81-6.35c-.49-4.05,1.18-8.7-2.84-12-.3-.24-.14-1-.22-1.54-.71-4.52,1.18-9.53-2.54-13.5-.14-.15-.08-.52-.07-.78a13.26,13.26,0,0,0-4.95-11.55c-3.55-3-6.53-6.78-11.23-8.11-2.51-.71-4.26-2.44-6.28-3.88a31.1,31.1,0,0,1-3.93-3.94c-.59,2.54.49,4.42,1.09,6.23-.77.72-2.61.2-2.24,1.08.87,2-.81,1.68-1.48,1.87-1.29.37-3,1.47-4-.06-1.65-2.72-4.43-2.17-6.82-2.95a12.27,12.27,0,0,1,2.91-3.49c1.85-1.69,4.84-2.6,4.06-6.16a1.56,1.56,0,0,1,2-1.5,1,1,0,0,0,1.34-.93c.15-.86-.49-1.15-1.15-1.1-1.17.1-1.25-1.29-2.15-1.67-.23,1.38-3.12,6.64-4,7.22-.56.35-1.12,1-1.92.61a1.44,1.44,0,0,1-.61-1.41,1.45,1.45,0,0,1,1.18-1.57c2.67-.55,2.45-2.32,1.5-4-.86-1.53-.57-2.12,1.07-2.25,1.12-.09,2.07-.48,1.64-1.8s-.93-3-2.43-3.7a7.77,7.77,0,0,1-4.24-5.19c-1.13-3.75-2.51-4.46-6.48-4-4.17.52-6.84-1.43-7.73-5.64-.22-1.06-.31-2.48-1.18-2.92-2.56-1.3-4-3.7-6-5.45-3.64-3.15-11.51-3.44-16-1-1.58.87-2.9,1.19-4.44.11-.7-.49-1.49-1.23-2.41-.49-3,2.44-7.2-.53-10.13,2.21-2.14-1.09-1.37,2.16-2.94,2.09.52-2.43.52-2.43-1.25-6.32-2.18-4.81-2.28-4.91-6.92-3-1.36.57-2.15.32-2.34-1-.32-2.2-1.67-2.77-3.61-2.64-.55,0-1.25.17-1.49-.33-1.37-2.89-3.33-1.89-5.36-.95a4,4,0,0,1-2.89-.13,5.74,5.74,0,0,0-2.91-.21,2.2,2.2,0,0,0-1.84,1.73c-.23.94.42,1.54,1.09,2a6.45,6.45,0,0,0,4,1.31c.92-.08,1.55.1,1,1.11-.41.75-.66,1.29.26,1.72a2.08,2.08,0,0,0,2.65-.29c2.61-2.36,5.15-2,7.26.82,1.17,1.57,2.49,2.79,4.67,2,.63-.23,1,.8,1.84.33-.44-1-.67-1.46.94-2.25,2.65-1.28,2.06,1.44,3.22,1.9,2.17.86,1.4,2.54,0,3.79-1.88,1.69-4.39,1.37-6.64,1.89a1.17,1.17,0,0,1-1.25-.85c-.36-2.21-2.41-3-3.62-4.45-1.49-1.83-2.76-1.28-4.25.11s-.84,3.47-1.27,5.24c-.91-.16-1.18-1.37-2-1-3.56,1.55-4.77-1.33-6.39-3.36a4.27,4.27,0,0,0-3-2,22.18,22.18,0,0,1-3.4-.74c-.88-.23-1.93-.62-2.06-1.5-.17-1.12,1.22-1.06,1.86-1.6,1.38-1.19,1.45.47,2.12.88s1,1.37,1.79.65.23-1.52-.43-2.08a5.26,5.26,0,0,1-2-2.42c-.75-2.34-2.14-2.76-4.2-1.36-.81.55-1.45,1.28-2.59,1.13a15.87,15.87,0,0,0-11.57,2.59c-3.58,2.43-13,2-17,.12-4.39-2.15-8-.59-8.67,3.76-.87,5.55-3,7.26-9,7.22-.23-.79,1.16-.64.83-1.44-.07-.17-.43-.29-.67-.31-2.63-.22-8.47,3.36-9.66,5.84a11.11,11.11,0,0,1-5.5,5.13c-4.1,2.08-8.83,3.73-10.69,8.65-.76,2-3.3,3.12-3.63,4.57-.78,3.37-3.09,3.9-5.58,4.81-1.59.58-3.71,1.13-4.43,2.37a17.91,17.91,0,0,1-6.9,6.52c-.78.46-1.75.88-1.93,1.76-.71,3.5-3.47,6.17-3.67,9.92-.12,2.17-.77,4.47-3.94,4.14-1.21-.13-1.78,1-2.56,1.7-1.52,1.45-.69,4-1.7,5-1.83,1.75-1.49,2.76-.31,4.48.65.94,1.63,2.67-1,2.67-1,0-1.32.56-1.53,1.48-1.07,4.53-.33,6.06,4,8.09.57.26,1.15.68,1.7.06.42-.47.13-1-.09-1.5a9.12,9.12,0,0,1-.94-4.34c1.29.45,1.32,1.46,1.61,2.26,1,2.58,4.92,4,7.19,2.61,1.46-.91,1.53-.92,1.61.68.07,1.34.79,1.58,1.94,1.61s1.45-.54,1.56-1.62a4,4,0,0,0-1.4-3.6c-3.23-2.82-3.73-7.5-7.65-10.1a13.12,13.12,0,0,0,2.29-.72c1.22-.71,2.37-2.32,3.39.32.24.61,1.86.15,1.61-.3-1.11-2,.72-1.55,1.46-2,1-.56,1.9-.93,2.09.72.12,1.1.26,2.32-1.41,2.22a6.4,6.4,0,0,0-2.62.44c-.86.3-2.27.39-1.83,1.74.5,1.52,1.61.77,2.64.34,2.88-1.2,4.38-.87,6.59,1.58-2-1.15-4.13-.81-4.46.63s1.54,2.69,3.17,3.11c1.43.38,3.22,1.63,3.89-1.15.24-1,1.17-.69,1.73-.11,1.65,1.72,2.92.82,3.92-.65,1.13-1.67,2.73-2.24,4.53-3a15.22,15.22,0,0,0,7.48-6.5c.27-.47.88-1.4.17-1.68-2-.79-.78-2.15-.69-3.22a13.54,13.54,0,0,0,.29-2.08c-.17-3.13.82-4.42,4-4.61,2.16-.12,4.31.47,6.18-1.29.68-.65,1.26,0,1.29.94,0,.68-.84,1.16-.46,1.86,3.17-.6,4.84-3,6.58-5.27a28.77,28.77,0,0,1,13.85-9.58c1.91-.65,4.16-.77,5.15-3.72,1-3.12,3.16-3.4,5-1.54.29-3.19,2.46-2.25,4.61-1.95-.76-1.15.83-3.78-1.78-2.86-1.73.61-2.16,0-2.89-.93s-1.61-2-2.87-1.45a15.47,15.47,0,0,0-5.06,2.83c-1.68,1.67-3.54,1.88-5.61,1.94-1.17,0-1.86-.36-1.75-1.88a22.8,22.8,0,0,0,2.41.74c1,.19,2.17.53,2.7-.5.62-1.19-.77-1.33-1.4-1.84s-1.5-1.3-.48-1.45c2.42-.37,4.56-1.91,7-1.68.87.07,1.51-.46,1.23-.77-.9-1,.24-3.52-1.19-3.11-2.14.63-2.2-1.19-3.46-1.49,3-2,6.77-2.83,7.56-7.36,2.9,4.61-.64,9.32,1.8,13.77.58-1.41.83-2.68,2.31-2.75,2.67-.13,5.3-.67,8-.38s5.21.26,7.21-2.25a6.55,6.55,0,0,1,4-2.47.14.14,0,0,0,0-.07l0,.06,0-.06,0,0a5.51,5.51,0,0,0-.92-3.48,2.25,2.25,0,0,1,.21-2.52,1.2,1.2,0,0,1,1.49-.22c1.29.58.22,1.32.07,2a.77.77,0,0,0,.41.89c.67.38.67-.2.84-.59a24,24,0,0,1,1.06-2.16,1,1,0,0,1,1.11-.53c1.86.51,2.49,0,1.73-2-.88-2.36.55-2.71,2.07-2.75s3.69,0,4.33,1.66-.85,2.73-2.38,3.35c-.53.21-1.39.17-1.07,1.13.38,1.14.08,2.74,1.56,3.19a3.22,3.22,0,0,1,2.49,2.13c.23.73.75,1.35,1.6,1s.76-1.12.59-1.88c-.21-1-1.4-2.28-.2-2.87s1.51,1.31,2.33,2a2.75,2.75,0,0,1,.49,4c-.77,1.17-1.08,2.46,1.2,2.57-.37.39-.63.88-.85.87-3.48-.21-6.09,1.74-8.92,3.29a3.37,3.37,0,0,1-4.36-.82c.86-.94,1.7-.45,2.55-.27s1-.33,1-.93-.19-1.38-.74-1.18c-3.44,1.21-7.28.07-10.6,1.85a1.86,1.86,0,0,1-1.07.32c3.29-2.17,5.22-5.75,8.49-7.94.46-.31,1.38-.51,1-1.33s-1.21-.37-1.89-.3c-1.38.15-2.39,1.09-3.62,1.57v.08h-.06a5.75,5.75,0,0,1-2,3.24,32.3,32.3,0,0,0-5.57,6.08c-.82,1.25-.07,3.21-1.09,3.61-3.21,1.28-5.15,4.86-9.07,4.78a4.43,4.43,0,0,0-3.91,1.89c-.72,1.36-1.4,1.26-2.5,1.07-2.06-.35-3.42.27-3.23,2.82a4,4,0,0,0-4.45-.92c-5.91,2.36-10.22,6.38-12.15,12.7,1-.48,2.27-1,3.34-.19.5.38.93.65,1.38.38,1.07-.64-.1-.93-.3-1.38-.35-.79.38-.85.76-1.12,1.4-.95,3.06-.89,4.63-1.15,3.83-.66,7.5,1.07,11.34.68a8.69,8.69,0,0,1,4.74.45c4.3,1.89,8.91,2.39,13.34-.08a2.91,2.91,0,0,1,.91-.1c-.16,1.6-.86,2.41-2.41,2.26a6.46,6.46,0,0,0-4.38.82,1.4,1.4,0,0,1-1.53.15c-3.26-2.05-6.4-1.54-9.49.37a1.12,1.12,0,0,1-1.62-.29,6.58,6.58,0,0,0-2-1.24c-5.94-2.81-10.48.93-15.24,3.39-5.18,2.68-7.81,8.37-12.9,11.23-.68.38-1.76,1.15-1.08,2.12s1.78.24,2.34-.31c2.94-2.94,6.54-4,10.55-4.86a18.26,18.26,0,0,0,7.43-3.76,27.2,27.2,0,0,1,4.36-2.45c1.2,2.41,2.6.5,3.91.16.5-.13,1-.6,1.44,0s-.08.81-.41,1.11a1.41,1.41,0,0,0-.11,2.14c.62.61,1-.27,1.54-.57,2.41-1.49,3.62-.83,3.6,2.13A3.32,3.32,0,0,0,1400-2099c2.22,1.36,1.34,2.4-.41,3.12-1.91.77-1.65,1.76-.57,3h0c-2.41-.64-4.13.44-6,1.88-2,1.58-4.63,2.21-7.63,3.24l2.08-2.44c-1-.26-1.39.55-1.94.57-2.09.08-3,1-4.09,2.95-.82,1.49-2.24,3.69-4.53,3.67a5.65,5.65,0,0,0-3.4,1.19c-5.06,3.4-7.79,9.1-12.58,12.78a1.53,1.53,0,0,0-.31.43c-2.6,4.42-6.78,7.06-11.11,9.31a7.88,7.88,0,0,0-4.07,3.92c-.7,1.62-1.76,3.13-1.68,5,0,.47-.11.92-.67,1s-.81-.29-.92-.78a3.06,3.06,0,0,0-2.93-2.43c1.16-2,4,.47,4.4-1.78.38-2-2.24-1.48-3.46-2.68a16.4,16.4,0,0,0,2.27-.14c2.12-.42,2.71-2,1.43-3.71-.35-.47-1.26-.7-.93-1.45.41-.93,1.42.24,2-.35-.32-.27-.55-.6-.86-.7-1.39-.47-2.76-2.36-4.23-.36-.29.4-.24,1-.91.76s-.33-.82-.17-1.18c.57-1.29.82-3.11,3-1.9.57.31,1.77.37,1.62-.64a5.67,5.67,0,0,0-2.15-3.79c-.94-.66-2,.21-2.61,1.21s-2,.41-1.85,0a5,5,0,0,0,.3-3.59c0-.12.68-.28.9,0,1.57,2.26,3.67-.11,5.42.63.25.1.88-.16.68-.56-.68-1.37.17-2.79-.25-4.17-.22-.74-.54-1.09-1.3-1-.52.07-1.29-.37-1.31.76,0,2.17-1.5,2-3,1.75-1.67-.29-2.9-.32-4,1.67a4.23,4.23,0,0,1-4.57,2.54c-3.82-.45-7.29-2.08-11.18-2.38-3.61-.28-7.89-1.1-8.18-6.41a2.44,2.44,0,0,0-2.29-2.15c-.17.95.45,1.32.72,1.86.36.75.54,1.16-.61,1.5-4.28,1.3-5.78,4.18-4.5,8.52a4.28,4.28,0,0,1,0,2.89c-1.55,3.38-.54,7.07-1.43,10.55-.41,1.61-.61,3.85,2,4.42l.06,0h0c-1.69-2.36-1.25-4.7.51-6.69,1.13-1.29.69-2.58.44-3.92,2.26-.13,3.14,2,4.94,2.2v-.07h0s0,0,0,0c.06-2.41,1.84-3.3,4.06-1.58,2,1.56,4.86,2,6.31,4.36.33.56,1,.51,1.68.27,2.39-.83,5.11-.86,6.91-3.08.21-.27.81-.35,1.53.24-2.8,1.8-5.49,3.54-8.2,5.25-.16.1-.54,0-.74-.14-3.61-2.3-8.13-2.62-11.55-5.32v.05h0c-.13,2.82,4.11,6.42,7.46,6.07,2.12-.21,3.42,1,3.32,2.57a11.84,11.84,0,0,0,2.4,7.69c.75,1.11,1.13,2.21-1,2.52-.62.1-2.35,0-1.61,2,.37,1-.85.34-1.35.39a1.16,1.16,0,0,0-1.18.89c-.11.44-.13,1,.36,1.17,1.1.42,2,.94,1.47,2.32s-1.83.55-3,.58c.44,2.26,2.05,3.58,3.49,4.89s3.33,2.39,5,3.65c2.12,1.65,3.94-.11,5.37-.92s1.57-.5,1.56.54c0,1.85,1.09,2.94,2,4.33s.86,3,1.49,4.54c.26.64-3.77,3.08-4.57,2.86-.31-.08-.87,0-.65-.54.67-1.63-1.23-1.85-1.53-1.84a47.08,47.08,0,0,0-5.88.86c-.42.08-.07,1.61-1.12.73-.51-.42-1.09-.72-1.25-1.6-1.22-7-3.24-13.59-9.88-17.56a10.25,10.25,0,0,1-1.63-1.39,6.63,6.63,0,0,1-.64-.86,5.09,5.09,0,0,1,3.76-.29c2.52.5,4.28-.42,5.18-2.61s-.62-4.06-2-5.7c-2.48-2.91-6-4.52-8.72-7.21-.89-.9-1.81.06-2.7.36a.21.21,0,0,1,0,.06l-.1,0a11,11,0,0,1-1.41.62c-1.82.57-3.08,1.26-1.27,3.29.47.53.92,1.43-.23,2a1,1,0,0,0-.58,1.36c1.32,2.8.73,6.31,3.27,8.7.45.42,1.24,1,.76,2a5.23,5.23,0,0,0,1.76,6.64c1.24.89,2.15,1.23,2.07-.88,0-.64.33-1.7.82-1.26a10.69,10.69,0,0,1,2.37,3.48,1.62,1.62,0,0,1-1.14,2.34c-.46-.88.48-2.25-1.21-2.71.09,1.64-1.38,2.22-2.07,3.34-.16.26-.56.37-.86.55-.52-1.76-3.81-1-3.37-3.68.1-.6.19-1.66-.94-1.51-.87.11-.9,1-1,1.71a2.58,2.58,0,0,0,.72,2.23,3.26,3.26,0,0,1,1,3.41,2.42,2.42,0,0,0,.5,2c2.48,3.4,1.87,8.07,4.69,11.36,1,1.19.67,4.15,2.39,3.8,1.29-.27.37-2.8-.17-4.31a1.21,1.21,0,0,1,.49-1.64c.74-.38,1.12.24,1.57.66s1.22,1.09,1,1.79c-.58,2.21.62,3.31,2.28,4.27a3.07,3.07,0,0,1,1.52,2.12,6.94,6.94,0,0,0,2.68,3.86,26.62,26.62,0,0,1,5.44,5.87c.34.53,1,1.61-.1,1.66-2.07.1-4.22,0-4.64-2.94-.2-1.35-.43-3.23-2.08-3.41s-1.67-1.2-2.11-2.27a6.19,6.19,0,0,0-1.59,3.75,4.84,4.84,0,0,1,4.82,5.11c-1.26-.91-1.59-1-2.25-.68a1.67,1.67,0,0,0-1,1.73c.14,1.14,1.12,1.36,2,1.49,4.21.63,5.4,4.52,7.79,7.12.06.06-.08.3-.13.46-3.79-1.43-4.09-1.27-4.91,2.93a5,5,0,0,1-.53,1.48c-1,1.77.53,5.33,2.43,5.85.42.12.74.13.7-.39s-.15-1.16.7-1.08,1,.63,1.16,1.28a5.61,5.61,0,0,1-2.67,5.54c-2,1-3,3.16-1.86,4.79,1.67,2.42,3.59,4.69,6.88,5a13,13,0,0,1,4.14,1,20.22,20.22,0,0,0,8.19,2.27c2.14,0,4.31,1.78,4.5,3.26.46,3.67,3.31,5.06,5.34,7.27,1,1,1.92,1.57,3.18.45a1.42,1.42,0,0,1,1.94-.25c.8.55.42,1.19.33,1.9-.39,2.88.44,4.12,3.29,4.66,2.45.46,5,.88,7.3,1.51,3.72,1,8.27-1.85,11.23,2.38,0,.06.17.08.25.08,4.77.08,6,4,7.84,7.25.35.63.62,1.64,1.24,1.64,3,0,3.66,3.07,5.8,4.13.84.42.69,1.94,1.74,1.86,2.9-.21,4.51,2.14,6.78,3.15a8,8,0,0,0,2,.55C1405.43-1910,1408-1910.9,1410.15-1908.91Zm-39-227.75a1.6,1.6,0,0,1,.32,2c-.53,1.22-1.22,1.62-2.82,1.61-1.91,0-3.82,1.23-6.05,2,1.81,1.06,3.64.51,5.24,1,.34.79-.29,1.15-.67,1.6-2,2.37-4.48,4.23-6.45,6.67a9.66,9.66,0,0,1-6.54,3.19c-4,.49-7.47,2.36-9.29,6.34-1.62,3.54-4,5.95-8.16,6.42-3.29.37-5.77,3-9,3.72a6.1,6.1,0,0,1-2.53.33c.13-1.68.28-2.73,2.47-2.24s3.26-2,4.93-2.91c.6-.34.07-.95-.26-1.36-1.29-1.62-.65-2.16,1.15-2.19.68,0,1.71-.08,1.45-1.09s1-2.22-.64-3.06-3.47-.71-5.23-2.12c2.28-.27,4-1.4,6.18-.52,1.2.48,2.21-1.31,3.39-2s2-1.66,3.4-1.93c1.62-.3,2-1.91,2.49-3.25.86-2.61,2.61-4.2,5.3-4.1,3.39.13,5.81-1.66,8.32-3.43a5.83,5.83,0,0,1,3.46-1.23c2.63,0,4.07-2.43,6.37-3.17C1369-2136.65,1370-2137.61,1371.16-2136.66Zm7.52-6.89a6.47,6.47,0,0,1-1.68,3.32c-.37-2.08-1.75-2.22-3.11-1.39a8.78,8.78,0,0,1-8.38.62,2.62,2.62,0,0,0-2.56,0c-.53.33-1.11.83-1.6,0a1.27,1.27,0,0,1,.57-1.84,28.2,28.2,0,0,1,6.49-2.37c.32-.08.73-.11.81.41.45,3,1.8,2.47,3.75,1.16,1.37-.92,3.29-.34,4.87-1.12C1378.67-2145.08,1378.86-2144.25,1378.68-2143.55Zm78.63,2.19c-1,.26-1.57-.46-1.64-1.57s-1.63.37-1.83-.83c-.88.16-1.94.41-1.86-1s.46-2.71,1.9-2.84c1.1-.1,2.43-1,3.48.28.59.72,1.08-.38,1.88,0-.59,1.14-1.3,2-.77,3.34A1.9,1.9,0,0,1,1457.31-2141.36Zm26.5-15.22c.26-.58,1-1.51,1.93-.69a3.38,3.38,0,0,1,1.13,3.84c-.41,1-.82,1.74,0,2.9,1.32,2,2.66,2.75,4.79,1-.08,1.43-.15,2.62-.21,3.72.88.44,1-.82,1.73-.5a31.1,31.1,0,0,0-1.59,3.69,2.7,2.7,0,0,0,2.64,3.69,7.79,7.79,0,0,1,3.52,1.06c.54.27,1.29.53,1.08,1.3a1.92,1.92,0,0,1-1.59,1.3c-1.11.17-.69-.69-.71-1.26s-.43-1-.84-.76c-1.82,1-3.61-.82-5.43,0a1.34,1.34,0,0,1-1.67-.56c-1.38-2.41-3.43-4.3-5.08-6.5a5.66,5.66,0,0,1-.87-3.56c0-1.3.27-3-1.81-3.7-.63,2.22.52,4.11.41,6.14s-1.78.85-2.46,1.71c-.46.56-1-.48-1.09-1.05-.37-1.49-.71-3.11.74-4.19,1.88-1.4.92-2.11-.5-2.81-.87-.43-1.87-.62-1.41-2.07s1.5-.92,2.41-1C1480.7-2154.89,1482.74-2154.2,1483.81-2156.58Zm-20.1-1.66c1.5-1.34,6.06-.15,6.61,1.77.41,1.41-1.38,1.79-1.93,2.83l0,0,0,0c2.2-.3,4-2.3,6.88-1.34-2.74,1.62-2.8,4.47-3.88,6.76-.89,1.88,1.12.84,2.08,1.73-3.12.13-3.3,2.74-4.52,4.5-.32.46-.58,1.34-1.39.84-.61-.39-.46-1.13-.21-1.71.38-.9.87-1.76,1.28-2.64a8.25,8.25,0,0,0,.68-6.45c-1.74,1.59-3.75,2.71-4.28,5.18a4.93,4.93,0,0,1-.89,1.63c-.43.65-.8,1.48-1.82,1.26s-1.09-1.08-1.42-1.79c-1.23-2.62.51-4.82,1-7.18a.61.61,0,0,1,1.07-.25c2,1.95,3.71.76,5.38-.54h0l.06,0-.06,0a.21.21,0,0,1,0-.06c-.59-1.09-1.46-1.39-2.3-.42-1.17,1.35-2.14.75-2.79-.28A3,3,0,0,1,1463.71-2158.24Zm-21.81,9.32c.31-1.74-1.34-3-1.37-4.8,0-1.46.25-2.31,1.9-2,.62.1,1.18.6.69,1-.92.82-1.18,1.27,0,2.09a3.41,3.41,0,0,0,4.2.06c.94-.74,2.45-1.39,2.1-3.36-.22-1.32,2.86-2.6,4-1.82.78.53.43,1.16-.08,1.54-2,1.5-2,4.13-3.4,6-1,1.23-.46,2.83.52,4.22-1.23-.66-2.36-1.23-2.88-2.39s-1.18-.74-1.87-.23-.67,1.38.09,1.68c1.37.53.67,3.55,3.18,2.56a2.07,2.07,0,0,1,.08.73,1.34,1.34,0,0,1-1.13,1C1443.43-2141.76,1441.06-2144.26,1441.9-2148.92Zm-138.48,105.53c.14-.08.29-.24.42-.22,1.11.15,2.94.86,3.06-.38.18-1.71-1.83-.39-2.72-.93-.22-.14-.46-.25-.92-.5,1.11-1,2.58,0,3.63-1-.77-1.86-4.14-1-4.25-4.24a7.18,7.18,0,0,0,6.68,2.29c1.3-.2,2.42,0,2.53,1.58a3.69,3.69,0,0,0,2.2,3.57c-1.37.66-3.75.39-2,2.66.3.39-.18.76-.6,1C1308.2-2037.73,1304.34-2039.54,1303.42-2043.39Zm105.86,90.72c2.23,1.69,4.2,3.81,7,4.93-1.2.91-1.78-.07-2.44-.49s-1.51-1.23-2.3-1.78c-2.9-2-4.12-1.51-4.79,2a5.12,5.12,0,0,1-.33,1.81c-.52.79-1.22,1.67-2.33,1.46-1.32-.25-1.34-1.4-1.55-2.48-.25-1.33.38-1.34,1.41-1.49,1.4-.21,1.88-1.51,2.3-2.7C1406.79-1953,1406.88-1954.48,1409.28-1952.67Zm111.09,2.66a11,11,0,0,0-4.49,8.43c-.21,2.78-2.1,4.28-3.85,6,.26-3-1-5.82-.14-8.74.38-1.31.67-2.08,2.08-2.2a4.82,4.82,0,0,0,4-2.69c1.36-2.61,4.25-3.28,6.23-5.12A14.18,14.18,0,0,1,1520.37-1950Zm-113.87-40.26c-.25,1.49-1.88,1.83-2.5,3,.35.66.75.14,1.13.09a1.5,1.5,0,0,1,1.79.84c.33,1-.75,1-1.23,1.43a1.12,1.12,0,0,1-.24.13c-3.63,1.82-3.63,1.82-1.5,5.6-2.58-.87-3.72-2.87-4.92-4.75-.43-.67-.08-1.18.57-1.76a30.35,30.35,0,0,0,5.73-6C1405.21-1989.85,1405.21-1989.85,1406.5-1990.27Zm92.92,30.5c-.16,2.45-2.29,3.7-4.34,2.46a42.59,42.59,0,0,1-7.23-5c-.39-.36-.92-.68-.66-1.32.42-1,1-.18,1.55-.09a7.67,7.67,0,0,1,4,1.88c2.56,2.24,3.26,2,7.43-1.56A12.07,12.07,0,0,0,1499.42-1959.77Zm-11-12.83c-2.17,2.49-5.9,3.71-6.46,7.76-.14,1-2.21,1.91-3.7,2.37a24.29,24.29,0,0,0-5,1.8c-1.7,1-2.63-.84-3-2.1-.33-1,.11-2.22,1.8-1.8.33.08.8-.34,1.18-.55a1.23,1.23,0,0,1,1.69.29c.78,1.07-1.05.69-.86,1.66,1.85.19,1.85.19,3.63-.77-1.06-1.81-4.33-1.7-4-4.64,6.14,2.08,8.4-3,11.6-6.32-.39-.51-1.28.1-1.59-.78.92-1,2.43.09,3.35-.87.26-1.39-2.23,0-1.63-1.62a2.71,2.71,0,0,1,2.31-1.62c1.35-.19,1.54.94,1.93,1.82C1490.54-1975.87,1490.06-1974.49,1488.41-1972.6Zm-24.5.69c-.57.68-1.17,1.34-1.75,2s-1,.87-1.51.12c-.31-.45-.76-.78-.25-1.6a34.29,34.29,0,0,1,5.95-7.15,1.79,1.79,0,0,1,1.82-.55c4.67,1.3,9.47.79,14.37,1.27-.56,2.36-5.24,4.25-7.82,3.16C1470.32-1976.51,1467.05-1975.68,1463.91-1971.91Zm51-10.1c-.24.58.05,1.06.75,1.45,1.71.94,2.46,2.16.75,3.93a9.87,9.87,0,0,0-1.32,2.59,3.56,3.56,0,0,1-4.86,2c-.84-.4-2-.43-2.06-1.77,0-.37-.45-.73-.73-1.05-.78-.91-3.33-.27-2.42-2.65,1.6-4.2,3.63-6,6.29-5.89a7.76,7.76,0,0,0,1.86-.12C1514.41-1983.8,1515.84-1984.34,1514.87-1982Zm40-17.82c-3.24,1.84-6.4,2.07-10.17,1.75,2.12-1.25,1.36-4.7,4.51-4.58C1551.5-2002.57,1552.79-2000.84,1554.9-1999.83Zm-.21-9.54c.25,1.5-1.61.75-1.94,1.75a4.59,4.59,0,0,0,2.62,1.11c1.76.46,1.27,3,3.2,3.17-.1,1-.85,1.34-1.51,1-4.66-2.36-10-2.25-14.74-4.37-1.32-.6-2.75-.44-4.06-.82,1.77-1,3.49-2.88,5.11-2.79,3.39.17,6.74.67,10.14,0A1.13,1.13,0,0,1,1554.69-2009.37Zm-57.51-43.25c1.58-3.34,2-7,3.48-10.35,1.17-2.76,3.42-3.4,6.25-3.73-.74,1.51-2.11,1.72-3.1,2.31-1.33.79-2.84,1-1.27,3,.39.48-.24,1.17-.61,1.67a7.18,7.18,0,0,0-1.84,4.58C1500.15-2053.47,1498.48-2053.24,1497.18-2052.62Zm51.65-13.57c1.65,2.84,3.76,5,7.28,5.17.6,0,1.34.33,1.4,1,.08.86-.8.83-1.34,1-1.27.39-2.36,1.19-3.94.8-1.42-.35-2.65.33-2.07,2.28a2.4,2.4,0,0,1,0,1.58c-2.28,4,0,6.28,3.06,8.29.48.32,1.29.78.67,1.44s-1-.44-1.47-.6c-1.91-.59-4-.42-5.72-1.82-.33-.27-.89,0-1.09.5-.48,1.09.4,1.36,1.12,1.58-2.52,2.38-5.57.91-8.12,2-1,.43-.91-.65-.84-1.19.47-3.56-1.07-7.54,2.4-10.5a3.39,3.39,0,0,0,.82-3.46,1.88,1.88,0,0,1,2-2.47c2,0,3.69-1.2,5.75-.89-.23-1.57-1.22-1.52-2-1.72s-1.84-.17-1.7-1.27c.17-1.33,1.32-2.12,2.33-2.8S1548.53-2066.71,1548.83-2066.19Zm-56-26.74c.42,1.64.45,3.86,3.27,2.87.47-.16.84.28.92.75.12.67-.37.95-.89,1.14-.74.27-1.38-.2-2.06-.33-1.76-.32-3.25,0-3.68,2-.3,1.34-1,2.24-2.93,2.62,2.61-2,2.24-4.53,2.23-7-.93-.53-1.41,1.47-2.1.28a1.59,1.59,0,0,1,.91-2.2,9.35,9.35,0,0,0,1.76-1.15C1491.76-2095.12,1492.43-2094.56,1492.85-2092.93Zm46.34.49c.07,0,.21.08.21.14.33,3.73,3.76,2.4,5.72,3.45a3,3,0,0,1,1.78,3.56c-1.15-3.53-3.53-3.51-6.59-3.1a23.24,23.24,0,0,0-8.39,2.41l6.25-.06c0,.13,0,.27.07.41a54.11,54.11,0,0,1-5.73,1.78c-2.08.41-2.39-1.45-2.79-2.85s-.07-2.68-1-3.58l8.43-4.47C1537.38-2094,1537.38-2092.37,1539.19-2092.44ZM1517.75-2116c1.28.73,3.34.6,3.8,2.19.71,2.44,2.44,3,4.55,3.44,1.45.3,3,.48,4.11,1.74.29.34.62.71.32,1.18s-.61.22-1,.16c-1.82-.33-3.72-.3-5.13-1.88a5.64,5.64,0,0,0-3.84-1.65c-1.34-.14-2.51-.29-2.63,1.61,0,.37-.69.71-1.08,1.06v.05a25.75,25.75,0,0,1,8.06,8.64c1,1.65,3,1.81,4.81,1.79,1.59,0,3.21-.3,4.78.21.62.2,1.24.56,1,1.32a1,1,0,0,1-1.36.51c-2-1.49-3.34.37-4.84,1-1.22.53-2,.9-3.35-.06-1.8-1.32-4,.43-6-.18-.89-.26-2,.08-2.88-.82,1.78-1.42,3.86-.88,5.81-1.23-3.84-1.21-7.93,0-11.79-1.07,1.74-4,.7-5.72-3.59-6.14a21.29,21.29,0,0,0-2.39-.26c-1.18,0-2.38-.19-2.84,1.64-.25,1-1.35,3-2.81.22-1.18-2.19-2.73-.35-3.59.61a16.41,16.41,0,0,1-3.48,3.46c1.18-2.25,2.87-3.59,2.7-5.74-.14-1.86-1.17-2.5-2.87-1.7-.65.31-.74.71-.44,1.26,1,1.89.94,3.15-1.42,4-1.72.65-2,2.73-2.72,4.28-.42.93-1.07,1.8-1.89,1.24-1.92-1.31-2-.19-1.8,1.2.23,1.56-.4,2.16-1.86,2.21s-2.41-.12-2.69-1.84c-.6-3.84.12-7.25,2.87-10.14.6.4-.3,1.34.5,1.55s.91-.66,1.2-1.14a3.39,3.39,0,0,1,4.32-1.67c2,.6,2.53-.16,2-2-.14-.52-.95-1.08,0-1.53.82-.38,2-.74,1.83-1.67a18.13,18.13,0,0,0-1.58-3.94.87.87,0,0,0-.34-.34c-2.09,1.71-5.34-.92-7.5,1.83.4-2.63-.1-6.4,1.43-7.63,2.09-1.69,4.84-3.83,8.44-3.64-4.32,3.62-4.86,5.55-2.18,7.22.94-.64-.57-1.42.12-2.09a3.93,3.93,0,0,1,1.63,2.27c1.32,3.44,3.51,4.09,6.68,2.14,1.1-.68,1.71-.2,2,.87a12.36,12.36,0,0,0,1.13,3c1.67,3.25,8,5.28,11.35,3.57,1.05-.54,1.05-.54.37-2.44a6.34,6.34,0,0,1,3.18,1.25l0,0,0,0c0-.86.08-1.84-.64-2.43-1.84-1.51-1.89-2.78.26-4C1517.09-2114.93,1517-2116.43,1517.75-2116Zm-45.36-6.94c-.49,0-.83-.23-.93-.86,2.5-1,5,.53,7.49.07.7-.13.83.56.56,1.13-2,4.43-5.1,8.26-7.47,12.5-.59,1.07-1,.36-1.45-.36-1.28-2.24.94-3.78,1.2-5.73a7.78,7.78,0,0,1,1.74-4.11C1475-2121.92,1475.11-2123.08,1472.39-2123ZM1407-2081.54c1.9-.41,3.37-.72,2.76-3.44-.56-2.49-1.84-2.77-3.55-2.11a4.7,4.7,0,0,1-4.78-.62c-1.56-1.12-3.67-.85-5.06-2.15-.25-2,4,0,2.56-3h0c.94-.81,1.91-1.58,2.79-2.44.6-.58,1-.27,1.28.21.51.85,1.4.6,2.09.78-.63,2.28-2,3.79-4.56,4l.12.72a63.48,63.48,0,0,0,7.75.74c1.45,0,.89-1.41.55-2.33-.48-1.27-1.89-2.12-1.84-3.75,1.7.15,1.68,1.86,2.95,2.69,1.07-2.09,1.5-5,.71-6.26-1-1.68-3-3.85-5.73-3.57a2.74,2.74,0,0,1-2.82-1.63c-.52-.92.55-1.13,1-1.63.78-1,1.29-1,2.57-.35,3.74,1.79,7.46.35,11.09-.87,1.31-.45.11-1.62.63-2.35a5.36,5.36,0,0,1,2.91,1.17c2.07,1.26,3.55-.16,4.77-1.26s-1.34-1.39-.94-2.7a9.07,9.07,0,0,1,4.1,2.25c4.5,4.26,13.79,1.33,14.83-4.45a1,1,0,0,1,.16-.5c.74-.88,2-2.6,1.83-2.7-1.67-.76-2.41-2.77-4.14-3.18-4.09-1-7.13-4.17-11.33-5.07-3.31-.71-6.41-1.41-9.65.05-1.45.66-3,.49-4.92-.27,1.18-.32,1.95-.57,2.73-.73,1.58-.3,2.63-.92,2.42-2.83a1.91,1.91,0,0,1,2-2.31,18.84,18.84,0,0,0,3.24-1c-2.74-1.86-4.78-.11-6.87.75s-2.19,1-4.34-.38c.27-1,1.07-.72,1.72-.73s1.49.19,2.08-.29c4.4-3.58,9.68-2.66,14.68-2.69,3.08,0,5.79-.1,8.12-2.48a5.54,5.54,0,0,1,6.12-1.54,20,20,0,0,0,4,.58c1.68.2,2,1.71,2.51,2.85s-.91,1-1.39,1.47-.85.9-1.25,1.38-.7,1.68-1.64,1.57c-1.13-.14-.11-1.49-1.07-2.14-1.54,3.57-5.72,4.24-8.06,7.38,2-.22,2.91-2.24,4.69-2.39.33.68-.09.94-.38,1.26-.9,1-2.07,2.37-1.24,3.49s2.7,1,4,.41,2.08-.68,2.73.75c.44,1,1.23.93,2.25.74,4.52-.85,6.22-4.67,8.8-7.88.83,1.86,2.16,2.7,4.31,1.64.83-.4,1.6.51,2.51.89-2.86,3.71-7.56,4.24-11,6.77l-.55,1.78a19.57,19.57,0,0,0,9.94-2.59,3.7,3.7,0,0,1-.55,2.71c-.36.58-.94,1.23-.25,1.92a1.49,1.49,0,0,0,1.53.17c.77-.24,1.54-.49,1.59-1.54,0-.67-.42-1.41.23-2a3.45,3.45,0,0,1-1.12,4.64c-3.08,2.24-5.7,5-9,7.07-1.44.91-3.1,1.5-4.06,3.22-.4.7-1.46-.44-2.13-.94a1.07,1.07,0,0,1-.18-1.81c1.12-1.16,2.28-2.2,4.12-2.09,3.57.22,4.76-2.91,6.59-5a2,2,0,0,0-.64-2.64,3.29,3.29,0,0,0-3.8,0,13.59,13.59,0,0,0-4.8,4.6c-2.13,3.66-6.32,4.6-8.93,7.51-4.11,4.55-10.52,5.78-14.71,10.17-2.25,2.37-5.28,2.92-8.11,4-2.17.83-4.72,1.42-4.55,4.63,0,.39-.34.63-.76.56s-.53-.44-.4-.81c.6-1.72.25-3.5.36-5.24.08-1.3,1.34-1.75,2.36-2.33a3.25,3.25,0,0,0,.92-5c-1.5-1.68-2.68-1.45-3.61.62a5.3,5.3,0,0,1-1.42,1.89,5.91,5.91,0,0,0-2.15,5.22c0,1.49,0,1.49,2,1.79-1,.8-1.24,2.27-3.05,1.42-.48-.23-1.55.88-.63,1.94,1.24,1.42.78,5.45-.75,6.52C1409.18-2079.92,1409.18-2079.92,1407-2081.54Zm6.81,35.59c2.7-2,5.08-1.23,8.16.13-6.81,2-11.52,7.73-18.75,7.12C1407.5-2040.11,1410.41-2043.43,1413.85-2045.95Zm17.31,12a13,13,0,0,1,3.4-4,1.55,1.55,0,0,0,.48-1.93c-.46-.74-1.12-.06-1.66.11-1.18.38-2.35.8-3.63,1.24-.92-2.5,2.12-2.49,2.66-4.06.13-.4.85-.59,1.29-.9a3,3,0,0,0,1.53-2.68c-.14-1.28-1.68,0-2.33-1.23,1.9-1.18,3.38-3.06,5.58-3.95,1.63-.65,1.38-1.27.23-2.17-2.45-1.92-4.85-3.89-7.27-5.84l-.25-.13-.06-.07c-1.69-.48-3.27-1.59-5.15-.14a40.17,40.17,0,0,1-5.23,2.85c1.22-1.77,2.87-2,3.81-3.15s.68-1.48-.53-1.75c-4-.89-8.27-2.17-12.14-1.23-2.73.66-6,0-8.41,2.21-.63.57-2.06.31-3.13.36-2.63.12-5.28-.37-8,.2a16.66,16.66,0,0,1,7-2.51c1.85-.16,4,.08,2.23-2.9-.49-.85.29-1.55,1.1-1.8s1.65-.69,1.72.75a1.1,1.1,0,0,0,1,1.11c1.06.2,5.76-3.44,6.31-4.37,1.14-2,.72-4,.78-6-.57-.85-1.59,1.65-2-.32-.27-1.34.64-1.09,1.46-1.18,2.15-.24,2.57-1.27,1.31-3a.55.55,0,0,0-.2-.17c-1-.63-.85-1.49-.33-2.3.33-.5.87-1.05,1.57-.67,1.1.59-.24,1.61.42,2.6,1.27-2.23,2.85-1.21,4.59-.82,2.69.6,5.41,1.65,8.28.79,1.06-.32,2.28.66,2.15,1-1,2.69,1.48,2.72,2.58,2.91,3.14.56,6.39.78,9.34-1-1.5-.2-3,1.25-4.62-.32.62-.24,1.75.43,1.73-1,0-1-.53-1.2-1.25-1.35-1.44-.3-2.84-1.07-4.45-.44.46,1.06,1.59.48,2.21,1.36-.84.37-.89,1.78-2.28,1.5s-1.82-1.11-2.23-2.31,0-1.29,1.06-1.74c5.85-2.5,11.69-5.06,16.59-9.27.68-.58,1.3-1.6,2.16-1.45,4.15.69,6.36-1.85,8.48-4.72.53-.72,1.49-.46,2.25-.67,1-.26,1.74-.59,1.36-1.81-.8-2.66.89-3.27,2.87-3.12s2.64,2.12,2.42,3.59c-.33,2.14-1,4.41-3,5.8-.7.48-1.7.66-1.14,2,.47,1.07.19,2.61,2,2.59a1.46,1.46,0,0,1,1.48.94c.25.63-.73,2.55,1.25,1.45,1.24-.69,3.4-1.3,1.69-3.51-.48-.62-1.5-1.19-.8-2,.85-.95,1.82,0,2.65.41a2.74,2.74,0,0,1,1.24,3,4.38,4.38,0,0,1-3.52,3.28c2.23.35,3.69,2.1,5.78,2.64,2.35.62,3.12.15,2.5-1.94-.54-1.82.07-3.7,1.16-4.34,1.32-.79,3.35-.44,5.08-.44a.87.87,0,0,1,.74,1.21c-1,2.23.28,3.84,1.31,5.59a29.93,29.93,0,0,1,2.44,4.91c.72,2-1.28,2.56-2.39,3.31-1.44,1-1.18-.62-1.42-1.32-1-2.84-2.34-3.29-5.06-1.67-.5.3-1.08.09-.94-.37.6-2.11-.13-2.13-2.13-2.4-2.45-.33-4.78-1.88-7.06-4,.07,1.13.82,2.15-.92,2.31-4.57.44-7.73,3.74-11,6.4s-5.22,4.13-9.21,4.6c-3,.34-5.8.66-7.71,3.37a1.91,1.91,0,0,1-1.86.76c.15-1.39,1.57-1.6,2.11-2.48.36-.59.83-1.28.18-1.95a1,1,0,0,0-1.79.26c-2.56,5-7.36,5.62-12.12,6.39a5.25,5.25,0,0,0-1,.31c-.07,0-.11.12-.12.14,1.56,1.68,3.11,3.36,4.67,5l.11,0,0,0,0,0,.2.16c2,1.05,4.11,1.75,6,3.24,1.55,1.22,4.09.14,6-.53,2.59-.91,4.93-2.93,7.55-3.33,6.61-1,11.73-5.43,18-7.24,4.12-1.19,5.48-.77,8.81,3.53-3.89-.81-5.57,2.59-8.32,3.9a26.34,26.34,0,0,1-2.8,1.45c-7,2.38-13.85,5.23-20.64,8.18-.41.18-.8.56-1.22.33-2.88-1.63-3.7.5-4.67,2.47a19,19,0,0,1-1.56,2.5c-1.58,2.22-1.26,3.55,1.3,4.6,1.28.53,2.65.85,4.33,1.37-1.93,1.57-3.56,2.71-5.84,2.09-.18.9,2.12,1.25.16,2.16-2.5,1.17-4.85,2.65-7.33,3.86-1.55.76-3-.29-5.26-.48C1428-2032.44,1430.06-2032.08,1431.16-2033.92Zm93.74,5c-2.17.52-4.36-.21-6.47-1.07-1.59-.65-1.71-.47-2.14,1a.49.49,0,0,1-.51.44c-.18,0-.36,0-.54,0-1.88,0-5.34-1.8-5-2.77.77-2.26,3.24-1.87,4.59-1.72,6,.65,12,1.36,17.38,4.5a4.21,4.21,0,0,1,.86.92C1530.4-2028.71,1527.89-2029.62,1524.9-2028.9Zm-32.77-7.18c-.58.63-1.05,1.32-1.75.06-1.26-2.26-3.13-.08-3.14.29,0,2.65-2.21,1.77-3.44,2.37-.72.35-1.48.62-2.22.92,1.74.36,3.52,0,5.27,1,1.3.73,2.55-.76,3.74-1.52,1.9-1.22,3.79-3,6.26-.83-.82,1-2.06.63-2.93,1.16-.67.41-2.45-.32-1.81,1.47.5,1.4.85,3.46,3.08,2.81,3-.89,6-.49,9,.15-.6,2.51-.77,2.28-3.13,2.2-3.33-.12-6.5-1.12-9.85-1.29-2.49-.12-5.06.14-7.58-.16-1.46-.18-3.27-.08-3.81,2.09a1.48,1.48,0,0,1-2,.79c-.93-.48-.49-1.31,0-2,.31-.41.64-1,.13-1.43s-1.16,0-1.64.41a8.8,8.8,0,0,1-9.39,1.57c-1.26-.56-1.43-1.37-1-2.31.9-1.85,1.55-3.74,4.21-4.24,2.11-.4,4.21-1.19,6.38-1.61,1.51-.29,3-.57,4.29.56,3.29-.93,5.28-4.06,8.62-5,1.64-.47,1.2-3.1,3.16-4C1492.84-2040.32,1494-2038.15,1492.13-2036.08Zm-46.44-1.78c2.82-.63,5.28-1,7.26-2.7,2.28-2,5.2-2.3,8-2.08,2,.16,3-1.2,4.58-1.68.66-.2,1.3-.84,1.89,0,.75,1-.25,1.51-.83,1.9a12,12,0,0,1-5.89,2.32,16.38,16.38,0,0,0-8.61,3.07C1449.81-2035.5,1447.93-2036,1445.69-2037.86Zm-49.53,24.71c1.12-1.09,2.37-1.83,3.81-1.34s1.71,1.84,1.61,3.3c-.19,3.14,2.87,4,4.38,5.87,2.13,2.7,2.11,2.46,4.82.24a48,48,0,0,1,5.47-3.62,77.94,77.94,0,0,0,12.79-9c.72-.67.23-1-.38-1.42-1.24-.8-1.15-2.16-.92-3.28s1.52-1,2.49-1a2.36,2.36,0,0,0,1.29-.32c2.51-2,5.14-3.22,8.53-2.35,1.34.35,1.79-1.52,2.68-2.29,2.06-1.77,4.8-1.15,7.35-2.85-1.32,2-.23,2.37,1.08,2.45a27.93,27.93,0,0,1,5.29.72,2.47,2.47,0,0,0,3.12-1.42,8.36,8.36,0,0,1,1.57-1.72,10.34,10.34,0,0,0,1.78,4.08c-3.18,0-6.29-.72-8.29,2.49-.58.93-1.82,2.22-2.6,2.12-2.59-.32-4.17.58-6,2.37s-4.87,1.47-7.4,2a6.77,6.77,0,0,0-.77.22c-.84.3-2,.49-2.17,1.38-.22,1.16,1.33.92,1.83,1.58.74,1,3.07.14,2.72,2.29a3.53,3.53,0,0,1-3.41,3.18,3.71,3.71,0,0,0-2.4,1.6,3.17,3.17,0,0,1-2.2,1.4c-5.41.72-9.27,4.66-14,6.74a18.27,18.27,0,0,0-4.46,2.93c3.73-2,8.12-1.34,11.86-3.2a6.62,6.62,0,0,1,4-.4c2.89.39,5.76.81,8.53-.58a1.32,1.32,0,0,1,.79,0c4.89.78,8.86-1.32,12.69-3.94a8.54,8.54,0,0,0,1.48-1.09c1.49-1.57,2.24-3.93,5.53-3.13,1.75.43,3.13-2.18,4.32-3.68.72-.91.82-2.32,2.35-2.76-2-.48-3.53-1.21-4.82,1.24-1.09,2.06-3.87,2.25-5.86,3.42,2.87-1.56,2.86-4.59,3.81-7.26,1.88,1.48,2.93,1.28,2.85-1.28,0-.77.16-1.82,1.08-1.94a1.65,1.65,0,0,1,1.77,1.37c.62,2.94,2.9,2.47,4.73,2a3.32,3.32,0,0,1,3.55.77c2.26,2,4.86,1.48,7.6-1.61,1.35-1.51,3.62-1.11,4.74-2.79a.25.25,0,0,1,.25,0c3.26,2.62,6.32-.17,9.47-.33,1.1-.05,2.67-.13,1.69,1.87-.41.82-.17,1.3.61,1.72,1.58.84,5.86.57,7.22-.5.66-.51,1.28-2.17,2.2-.7.71,1.13-1.08,1.26-1.62,2-.12.16-.45.16-.73.25,1.8,1.39,2.78,1.19,3.55-.8a15.21,15.21,0,0,0,1.35-6.51c-.1-1.5.67-1.84,2-1.82,2.07,0,3.85,2.1,6.09.83,0,0,.35.17.36.29.4,3.32,3.77,3.52,5.69,5.14,3.23,2.73,10.32.61,12.83-3.35.24-.37.31-1.06.6-1.15,3.13-.95,3.43-3.85,4.25-6.26,1.5-4.39,3.26-4.51,7.12-2.61,1.57.77,2.52,1,3.57-.86-1.25,2.06.16,3.14,1.15,4.26-.64.9-1.66.22-2.26.82,1.74,2.76,1.54,3.35-1.53,5a3.42,3.42,0,0,0-1.56,1.41c-1.08,2.63-3.28,3.37-5.75,3.59-4,.35-7.32,2.62-11.69,3.57,3.8,1.31,7.26.58,10.51,1.37.89.21,2.64-.43,2.44,1s-1.64.33-2.52.29c-2.52-.11-5-.31-7.93-.5,1.25,2.14,3.2.86,4.63,2.12-2,.91-3.61,2-5.59.22-.77-.7-1.5-1.52-2.89-.28-.84.75-.91-1.31-2-1.82-.76,2.31-4,.73-5,3.16-2.5-1.52-2.19,1.48-3.36,2.06-2.7,1.35-5.22,3.5-8.63,2.25a8,8,0,0,0-4.18-.65,2.41,2.41,0,0,1-2.82-1.9c-.41-1.47,1.12-1.59,2-2a7.94,7.94,0,0,0,3.09-2c-1-.82-1.17-2.34-2.7-2.88s-1.44-.81-4.76.31c0,1.23,1.26.68,1.73,1.31s1.29,1,.79,2a1.64,1.64,0,0,1-1.93,1c-1.23-.22-2.44-.52-3.68-.73a3,3,0,0,0-2.85,1.13c-1,1.14.84,1.28.81,2.19s2.06,1.34,1.2,2.62a5.91,5.91,0,0,1-3.73,2.17c-2.14.42-4.48.35-6.24,1.7a27.07,27.07,0,0,1-7.74,3.85c-5.77,2-11,6-17.48,5.51a12.11,12.11,0,0,0-4.68,1,24.06,24.06,0,0,1-9.46,1.24c-2.7-.2-5.09.18-7.3,2.33a30.29,30.29,0,0,1-11.42,6.79c-.71.25-1.2.58-1.79-.29-.92-1.35-1.6-3.75-3.22-3.51a13.85,13.85,0,0,0-7.53,3.16,16.14,16.14,0,0,1-3,2.24c-1,.57-1.68.43-1.36-1.1a5.25,5.25,0,0,1,2.26-3.73c1.52-1,1.49-1.15.39-2.88-.45-.7-.45-.7,1.64-2.31-.29,1.37-.78,2.71,1,3.67,0-2.11.91-3.75,1.65-5.5s2.23-2.63,3.65-2.42c2.82.43,5.54-.35,8.78-.27a8.15,8.15,0,0,1-7.15,1.6c-1.4-.3-2.58-.37-3.12,1.11s.41,2.95,1.44,3c1.39.13,1.11,2.5,3.25,1.65a9.11,9.11,0,0,0,3.55-2.47,6.48,6.48,0,0,1,3.55-2.3,4.84,4.84,0,0,0,3.41-2.63c-.39-.62-.85-.23-1.24-.16-1,.17-1.36-.27-1.33-1.16s.78-.65,1.37-.67c3-.1,6,.93,9.22,0a2.48,2.48,0,0,0-2.3-1.53c-5.57.07-11,.09-16.44,2.3-2.39,1-5.53.35-8.24,1.34-.78.28-1.48-.51-2.13-1-1.16-.8-2.21-2-3.52-.13-.47.65-1,.27-1.5-.28s-.68-.45-.26-1.16c1.07-1.79-.05-2.81-1.59-2.13-2.06.9-4.14.55-6.18,1-.21-.63.24-.8.68-.86a5.51,5.51,0,0,1,1,.14,3.85,3.85,0,0,0,3.07-1c1.43-1.23,1-1.81,0-2.72-.26-.24-.52-.63-.81-.66-2.25-.27-3.08-1.5-2.87-3.72a2.2,2.2,0,0,0-1.26-2.21c-1-.29-.85,1.19-1.46,1.59-1.4.9-2.83,2.27-4.33,2.4-3,.27-5.68,2.54-8.82,1a1,1,0,0,0-1.38.47c-.37,1.06.61.89,1.12.93,1,.09,1.19.74,1.14,1.49-.08,1.07-1,1.47-1.83,1.69s-.84-.68-1-1.21c-.57-1.66-1-3.44-3.35-3.29-.39,0-.39-.31-.22-.55,1.51-2.08-.59-2.43-1.56-2.53-1.64-.16-4-.51-4.23,2-.14,1.46-.85,1.7-1.81,2.1-1.73.71-3.44,1.44-5.17,2.17-.58-3.66,1.37-6.07,3.94-8.15.47-.38,1.21-.94,1.61-.8,1.91.64,2.59-.34,3.07-1.9s1.15-.24,1.92,0c-.48-1.79-1-2.71,1.91-2.3,2.64.37,5.31-.22,7.76,1.53C1391.26-2009.67,1393.89-2010.93,1396.16-2013.15Zm-36.6,4.76c-.94.05-1.87.53-2.83.06,2.86-2.76,4.4-3,5.93-.82.15.22.5.47.46.62-.75,2.84,1.2,2.23,2.83,2-2.5,3.36-5,3.41-7.4.3C1360.47-2007.4,1360.87-2008.45,1359.56-2008.39Zm-22.19,3.17c-.7-1.14-.64-1.47.48-1.87,1.52-.53,3-1.06,4.54-1.61.85-.32,2.24,0,2.22-1.43a2.76,2.76,0,0,0-2.06-2.54,22.4,22.4,0,0,1-4.13-1.85c-1.55-1-1.48-2-.38-3,1.32-1.22,3.21-1.86,3.38-4.11,0-.63,1-.47,1.65-.55a16.06,16.06,0,0,1-.92,2.17c-.44.76-.72,1.47-.05,2.18a2,2,0,0,0,2.46.37c2.09-1.3,4.81-2.19,4.41-5.51,1,.09,1.4-1,2.15-1.25,1.62,2.65-.12,5.06-.6,8.09.78-.55,1.26-.92,1.77-1.24s.9-.74,1.43-.22a1.08,1.08,0,0,1,.23,1.47c-.83,1,.3,3.67-2.57,3-.25-.06-.7.95-1.13,1.39-.6.61-.87,1.69-2.28.72-1.12-.76-2.68,1.59-2.57,4a12.07,12.07,0,0,0,2.51,7.39C1345-2002.67,1339.84-2001.17,1337.37-2005.22Zm6.18,24.22c-2.42-1.11-4.14-3.51-7.27-3.41-1.89.06-.28-1.35-.38-2.1a9.13,9.13,0,0,0,1-2.19c.23-1.64,1-1.35,2.25-1.12,2.25.43,4.3,2.66,6.91.67.76-.58,1.48.75,1.42,1.42-.15,1.51.59,3.15-.58,4.54a2.64,2.64,0,0,0-.35,1c-.22.79.82,2-.42,2.36C1345.08-1979.5,1344.4-1980.61,1343.55-1981Zm9.07,14.44c.5-1,.88-1.81-.69-2.79s.33-1.56,1.07-2.09c.91-.65,1.91.18,2.88-.1s2.11-.16,1.89-1.37-1.3-.19-2-.26a1.79,1.79,0,0,1-.87-.28c4.53-.31,5.67-4.38,8.12-7.21-1.93-.34-1.83-1.17-.45-2.36a6.56,6.56,0,0,0,2.3-3.24c.19-.7.58-1.14,1.31-1.07,3.71.36,4.82-3.24,7.31-4.74-.8-4,4.5-5.35,3.91-9.27-.1-.66,1-.87,1.13-.67.72,1.93,2.77,1,4,1.81-.25,1.24-2.16.86-2,2.36.13,1,3.11,2.54,4,2.07,2.83-1.46,5.92-2.08,8.66-.34,1.13.72,4.12.53,3.28,2.28-.92,1.94-3.67,2.62-6,2.84-.76.08-1.56-.36-2.34.12-.5.31-1.37.41-1.12,1.23.33,1.06-.06,1.5-1,1.72-1.15.27-1.08-.54-1.17-1.26,0-.23-.22-.58-.4-.62-1.61-.39-2.92,2.43-5.11,0-.93-1.05-3.2,1.23-3.57,3.37a.92.92,0,0,1-.26.44c-3-1.17-3.46,3-6.08,2.94a3.26,3.26,0,0,0-3.17,2.41,8.91,8.91,0,0,1-1.7,3,20.8,20.8,0,0,0-2,3c4.67-1.35,1.8,2.54,2.77,3.75,1.34-.28.75-1.79,1.65-2.25.32,2.56-.43,3.52-2.81,3.49a2.1,2.1,0,0,0-1.89.74c-.28.35-.64,1-.88,1-1.43-.24-3-.74-3.3,1.34-.18,1.38-1,2.72-.4,4.19.21.48.53,1.09-.21,1.33s-.78-.51-1-1c-.8-1.4.11-2.58.5-3.81.22-.72.47-1.36-.13-2-.26-.27-.6-.49-.94-.27-.78.49-.27,1.21-.34,1.85-.28,2.3-2.06,3.82-3.38,5.57a.76.76,0,0,1-.7,0,.77.77,0,0,1-.12-.72C1352.65-1963,1351.76-1964.94,1352.62-1966.56Zm-20.8,4.53c.14-.6-.14-.72-.67-.85-1.68-.4-2.12-2.72-.8-4.11,1.14-1.19,6.42-2.36,8-1.75,2.18.86,3.16,5.3,1.8,8.32-2.26-1.69-.6-4.38-1.49-6.4a1.42,1.42,0,0,0-1.32,1.58c0,2.61-2,3.33-3.8,4.25C1332.76-1960.6,1331.36-1960.09,1331.82-1962Zm29,9.84c2.31-1,4.54-4.08,7.71-2.59-1.3,4.68-4.71,7.53-7,11.12-1.07-.69.19-1.73-.69-2.24-1-.13-1.25.82-2.22,1.7C1358.62-1947.46,1358.91-1951.34,1360.84-1952.19Z" transform="translate(-773.31 2176.29)"/><path d="M1863.45-1299.51c-37.92,75.84-91.63,123.23-91.63,123.23,20,11.59,34.76,103.22-10,136.59-4.24,3.16-8.2,12.3-7.94,12.2,67.43-26.61,146.28-146.37,166.84-182.73a517.54,517.54,0,0,0,31.68-66.12c.59-1.51,3.73-7.37,3.73-7.37C1904.53-1326.9,1863.45-1299.51,1863.45-1299.51Z" transform="translate(-773.31 2176.29)"/></svg>