<svg id="thirstaserp" xmlns="http://www.w3.org/2000/svg" viewBox="0 0 990.39 982.89"><path d="M288.66,916.34c5.46-1,17.28-3.64,22.67-5.06a144.91,144.91,0,0,0,20.53,21.56c-8.44,1.3-16.87,2.69-25.31,4C301.84,929.82,293.31,924.52,288.66,916.34Z" transform="translate(-7.37 -11.39)"/><path d="M247.07,923.14c11.43-1.81,30.18-4.85,41.59-6.8,5.44,7.65,6.63,14.54,11.13,21.63-11.54,1.8-27.45,4-39.06,5.15C256.18,936.39,249.49,930.78,247.07,923.14Z" transform="translate(-7.37 -11.39)"/><path d="M203.32,927c12.18-.42,31.7-1.85,43.75-3.84,2.27,7.47,2.44,14,6.63,20.63-13.32,1.1-27.74,1.59-41.09,1.88C209.55,939.85,204.36,933.56,203.32,927Z" transform="translate(-7.37 -11.39)"/><path d="M159.35,924.81c14.24,1.58,29.5,2.67,44,2.17,1,6.46-.36,12.93,2.35,18.78-15.79.29-26.06-1.51-41.52-4.34C163.45,937.2,159.48,925.86,159.35,924.81Z" transform="translate(-7.37 -11.39)"/><path d="M116.56,927.69c-.79-4.31-3.73-9.56-3.23-14,15.07,6.43,30.17,8.93,46,11.14.7,5.21-2.32,10.31-1.66,15.38C141.15,936.82,132,934.51,116.56,927.69Z" transform="translate(-7.37 -11.39)"/><path d="M73.61,903.51c-5.72-6.58-13-17.47-14-22.82,4.49,4,11.64,12.23,17,15.66C75.71,898.79,74.49,901.08,73.61,903.51Z" transform="translate(-7.37 -11.39)"/><path d="M76.62,896.35c8,4.57,28.4,13.44,36.71,17.32-.59,4.27-3.76,6.72-3.39,11-11.38-3.33-23.54-8.84-31.68-16.26C79.16,905.3,75.42,899.35,76.62,896.35Z" transform="translate(-7.37 -11.39)"/><path d="M509.17,810.44c13.28,7.39,26.1,15.56,39.73,22.28-30.35,12.89-60.76,25.68-90.93,39-8.94,3.94-16.57,4.27-24.47-2-12.91-10-25.44-18-37.94-29,32.44-9.48,60.72-24.52,89.4-42.59C493.41,801.31,501.66,806.33,509.17,810.44Z" transform="translate(-7.37 -11.39)"/><path d="M662.13,841.81a241.45,241.45,0,0,0,44.49,2.12c-15.17,8.66-29.79,13.46-44.29,15.16C663.82,853.63,661.66,847.49,662.13,841.81Z" transform="translate(-7.37 -11.39)"/><path d="M610.38,852.45c2.75-8,2-16.85,2.81-25,14.77,5.65,34.27,11.69,48.94,14.35-.49,6.24-4.61,11.91-6.46,17.84-15,.77-30-1.73-45.46-6.71Z" transform="translate(-7.37 -11.39)"/><path d="M462.19,764.53c14.89,4.62,36.05,12.93,50.94,19.47-.27.36-5.06,11.84-6.54,17.94a391.63,391.63,0,0,0-44.9-20C462.76,776.41,460.83,770,462.19,764.53Z" transform="translate(-7.37 -11.39)"/><path d="M414.79,769.21c-11.13.56-22.63,3.7-33.21,6.51,7.12-10.47,20.81-16.1,33.37-17.83C416.38,761.52,414.15,765.49,414.79,769.21Z" transform="translate(-7.37 -11.39)"/><path d="M415,757.89c12.36-.52,32.58,2.49,47.24,6.64-1.35,5.31-5.38,9.8-6.41,15.17-11.8-3.75-22.49-9.77-34.66-10.5C420.52,765.29,416.33,761.7,415,757.89Z" transform="translate(-7.37 -11.39)"/><path d="M513.13,784c15.21,6.83,35.4,16.4,48.14,22.27-1.8,7.13-6.36,13.8-9.1,21.2-13.55-7.16-26.8-14.93-40.09-22.5C513.85,798.37,512,790.22,513.13,784Z" transform="translate(-7.37 -11.39)"/><path d="M561.27,806.27c18.23,8.26,35.17,14.3,51.92,21.19-.5,8.46-6.27,15.21-8.85,23.48a509.47,509.47,0,0,1-46.78-20.67C560.39,822.91,559.39,813.72,561.27,806.27Z" transform="translate(-7.37 -11.39)"/><path d="M503.13,857.79c8.28-3.91,22.16-9.63,30.25-13.81,2.13,3.71,3.46,8.25,7,10.75-7.1,4.56-14.27,9-21.72,12.94C514,865,506.2,861.87,503.13,857.79Z" transform="translate(-7.37 -11.39)"/><path d="M475.06,869.07c7.71-3.17,20.6-7.84,28.07-11.28,3,4.18,4.94,10.16,9.2,13.18-7.58,3.86-15.29,7.47-23,11.08C484.52,878.94,477.81,873.71,475.06,869.07Z" transform="translate(-7.37 -11.39)"/><path d="M475.06,869.07c2.76,4.74,3.55,12.5,7.85,16-3.21,1.15-6.61,4.16-10.12,3.45-6.62-2.32-13.14-4.92-21.44-8.1C458.68,877.88,468,871.88,475.06,869.07Z" transform="translate(-7.37 -11.39)"/><path d="M533.38,844c5-2.63,13.83-6.84,18.8-9.55,3.63,1.89,7.28,3.78,11,5.6-5.72,3.57-11.36,7.28-17,11C542.49,848.91,535.49,847.53,533.38,844Z" transform="translate(-7.37 -11.39)"/><path d="M986.45,310.93c-6.65,2.74-7.77,2-12.42-.76-7.53-4.52-10.67-9.79-19.59-12.14-13.51-3.57-21.52,5.27-32.06,14.46-63.06,42.26-73.51-103.08-134.76-103.63,2.73,38.11,30.09,2,57.93,87.46-13.21-24.95-33.64-64-49.68-62.49-.52.4,4,9.62,3.49,10,26.72,58.83,75.27,178.47,149.51,92.71,2-1.69,4-4,6.18-5.59l-.29-.25-.82-.64,0,0-.06,0-.46-.3a12.24,12.24,0,0,0-1.89-1c-1.29-.55-4.26-1.56-4.26-1.56,2.13-2.27,9.89,1.72,13.07,3.2,8.72,4,12.6,8.82,24,2.93,5-2.59,12-7.92,13.22-13.87C998.93,312.74,992.34,308.58,986.45,310.93Z" transform="translate(-7.37 -11.39)"/><path d="M791.19,202.5c-1.51-.31-3-.58-4.62-.79-.79-8.76-1-23.08-1-23.08,3.31-1.84,14.74-4.18,15.81-4.5,11-3.35,21.87-.95,32.48,1.86,13.65,3.61,76.93,22.11,77.65,21.39,2.21.73,22.86,1.05,23.33,11.8.67,15.54-1.4,29.86,1.17,43.37a118,118,0,0,0,3.31-53.19c7.24-3.49,14-6.19,20.09-9.85,5.13-3.06,9.54-7.38,17-3.59,7.64,6.69,3.4,31.05,5.12,46.68.19-.61.55-1.54.75-2.46,4.44-20.12,3.46-31.06,1.92-44.39-.27-2.39-.85-4-.24-6.37.61.17,3.37-4.95,4-4.77,3.29,27.52,2,58.95-11.91,84.53.17-12.47.82-24.47.32-36.42a76.65,76.65,0,0,0-4-20.27c-1.53-4.71-5-8.8-7.67-13.4-6.09,5-6.84,7-19.44,11.91-.78,14-.88,28.41-2.55,42.59s-7.14,27.61-13.21,40.61c-.7-9-.36-17.86-1.36-26.61a270,270,0,0,0-5.73-33c-1.26-5.19-12-21.13-17-18.45-7,3.69-54.42-13.34-64.11-19.08a40.47,40.47,0,0,0-19.17-5.36c8.85,10.26,11.72,27.51,14.1,33.2,22.81,54.6,44.79,93.05,44.79,93.05-30.69-32.19-39.62-94.83-89.63-105.38l-.2.33Z" transform="translate(-7.37 -11.39)"/><path d="M707.13,158.1c1.65,20.66,11.89,40.42,23.16,54.6,36.85,43.07,72,87.55,103.87,134.37,15.64,20.63,35.27,49.27,64.9,45,16.5-2.46,31.09-10.91,28.51-31.08.1-.34-10.57,5.55-14.83,6.86-10.22,3.12-18,5.46-38.87-5.2-11.87-6.87-25.68-21.33-37.14-40.35-20.29-29-34.89-62-50.78-93.3l-.18-.28a72.78,72.78,0,0,1-2.58-8A119.47,119.47,0,0,1,781,207.51c-.41-8.94-.86-18.82-1.3-28.45l-15.81,1.41c-9.22.28-19.45-1.43-28.39-4C726.57,172.34,714.75,166.12,707.13,158.1Z" transform="translate(-7.37 -11.39)"/><path d="M838.73,145.38c6.6-2.79,8.28-7.09,5.5-13.18C836.38,134.41,835.31,138.68,838.73,145.38Z" transform="translate(-7.37 -11.39)"/><path d="M978.33,146.33c-14.87-7.05-28.15-17.47-45.56-16,7.41-7.19,3.39-13.17-1.49-19.29-32.47-42.23-63.22-34.66-109.69-34.9,6.54-.86,18.49-3.22,18.55-3.64a82.25,82.25,0,0,0-25.27-7.69c2.77-.92,17.22-2.08,31.86,7.69a83.39,83.39,0,0,1,9.89,0c-1.07-.13-2.18-1.86-3.18-2.72-9.6-8.3-19.24-33.78-18.29-46.27.91-8.66-12.58-17.82-17.83-7.5-10,19.91-29.25,32.9-65.16,48.73,7.39-.2,25.46.47,25.47,1-31.82,2.72-58.51,10.65-87.26,23.3,10.09,21.66,27,10.46,46.82,14.71-.06,1.37,0,1-.1,2.38-24.52,3-37,.47-38.77-1.39C678.15,92.45,648.52,63,640.47,48.59c-2-3.5-7.48-4.71-9.52-1.26-16.87,28.57-34.49,53.33-88.81,66.73-3.2.79-5.38,5.9-3.06,8.25,13.08,13.23,15.82,68.14-4.8,97.79-2.26,3.25-1.57,7.73.81,10.89,6.51,8.68,32.25,55.59,22.93,77-4.45,20.83,31,28.71,35.9,83,.47,4,10.94,11.07,15,11.2,32.45,1.07,42.1,16.77,61.85,22.69,3.83,1.15,10.19.41,13.16-2.29,12.11-11,37.32-26.52,54.3-28.68,5.95-.76,8-9,6.92-14.92-3.57-20.41.65-65.7,2.54-81.28,3.18,14.94.91,38.45.58,54.94,6,70.35-3.46,25.12-67.16,76.82-1.67,26.09,8.86,51.19,15.18,76.09C738,676.6,902.49,831.9,607.58,900c-81.51,20.1-239.09-7.39-236.23-113.73,48.33-99.15,228.3,57.4,311.28,51.19C861,819.72,707.37,617.88,576.69,742.51c19.73,10.68,38.94,21.77,58.66,32.28a9.09,9.09,0,0,0,6.65,0c15.42-6.25,24-.65,33.91,12.8,14.63,6.63,29.59-8.82,28-20.54,3.93,6.24-1.67,16.73-6.8,21.05-9.89,8.34-22.18,6.25-34.05,3.42-112.26-40-271.73-171.08-370.59-40.82-42,70.13,2.74,145,58.52,187.29,69.1,53.57,161.29,63.9,245.64,51.68,15.42-.83,35.85-5.15,50.76-8.56,54.18-32.9,139.5-96.25,154.36-176.89,10-54.51-37.49-136.78-41.24-141.79,31.13,33.63,54.43,103.6,47.69,139.21C796.63,862.73,769.53,889,733,924.08c.07.65-56,43.86-59.16,45.61s-12.4,7-15.75,8.7q-1.17.6-2.31,1.26a481.42,481.42,0,0,0,54.12-18.71,554.2,554.2,0,0,0,79.37-32.23c-1.57-.55-10.91-9.92-10.91-10,5.33,1.55,13,5.49,16.75,6.47,15.73-9.42,35-24.37,47.59-37.06-6.14-1.34-28.39-12.51-35.35-16.23,12.06,6.63,27.09,8.42,40.85,10.28,14-16.3,26.78-30,32.89-52.05-17.45-2-31.12-7.6-46.55-12.48v0c15.73,4.5,33.17,4.78,50,5.21,4.42-17.69,6.75-33.44,6-51.71-16.78-3.45-40.19-6.59-55.79-12.19,0-.13,0-.27-.06-.41,18.23.64,53,3.42,56.27,3.25-.14,0-3.07-36.57-7.45-51.18-12.19-.28-46.6-2-57.84-2.55a7.25,7.25,0,0,0-2,.25c18.59-4.35,39-5,57.95-5.46-4.13-12.81-8.3-27.55-12.2-39.68-11.61.43-41.27.43-61.05-2.87,23.07-2.2,39.55-3.3,58.3-3.91-5.46-12-19.31-35.64-24.53-47.13-18.39.5-37.07-.6-65.14-6.15,31.37-1,51.15.06,62.07-2-8.4-15.49-15.8-27-23.35-42.41-13.94.54-40.31-1.66-60.09-6.06,25.27,0,53.84-1.1,57.39-1.84-6.13-14.75-13.26-30.53-18.39-46.41-13.6-.86-41.2-6.68-47.84-9.65a2.75,2.75,0,0,0-1.07-.28c10.27,0,28.63,1.7,45,1.23-5.81-15.44-11.36-29.21-13.35-49.24-11.87.71-35.13-6.56-40.7-12.11-.49-.49,29.93,4,39.29,2.75-2.54-40.92,22.63-102,22.33-130.49-27.94-46.15-116.71-118.34-92.31-164.67,11.64,23.38,34.87,34.6,58.41,32.52,26.39-7.3,52.4-5.53,78.38,1.44,47.77,9.84,91.9,42.85,125-11l-5.89,14.34c9.39,2.09,19.94-1.3,22.74-6.72C988.52,164.94,988.57,152,978.33,146.33Zm-367.41-6.16c24.43,14.29,27.5,33.6,56.86,43.42-38.22-8.05-42.52-41.4-90.11-52C588.72,130.29,603.42,135.78,610.92,140.17ZM566.83,219c14.4-21.67,65.5-2.22,96.95-6.33C629.13,223.91,600.56,203.74,566.83,219ZM586,302.71c36.24-23.73,29.16-64.35,79.15-62.62C624.48,243.8,622.67,285.08,586,302.71Zm45.1,52.65c-2.32,3.71-7.89,8.49-5.54,4.74C643.3,332,631,290.59,662.18,270.32,636,299.46,649.25,326.17,631.1,355.36Zm59-56.91c-19,47.8-22.51,38.46-16.11,91.51-14.95-50.27-6.17-51,16.17-94.51C691,296,690.1,297.59,690.14,298.45ZM633.66,67.56a1.25,1.25,0,0,1,.58.17c-2.46,35.39,23.66,65.45,49.17,87.17C651.83,141.15,623.87,102.67,633.66,67.56ZM723.4,286.69c3.61,39.52-13,36.19,5.3,84.43C702.3,332.81,718.36,325.1,723.4,286.69ZM846.67,151.8l-.15-1.27,15.12-4.22-13.72-12.68-.42.58c2.53,2,4.73,6.37,5.47,10.42-16.06,8.11-34.08-2.79-23.35-19.37l-14,2.15-.72,2,13,16-17.12,11.8-.49-.58c5.63-7.79,16.86-11.79,5.84-20.14-6.63-9.86-18.81-12.2-29.16-16.45l.63-2.18c10.34,5.94,21,4.81,31.91,2.72,37-8.29,53,48.81,82.32,28.5l.84,1.35C880.25,168.37,877.4,142.72,846.67,151.8Z" transform="translate(-7.37 -11.39)"/><path d="M318.88,491.41c-6.95-2.7-16.84-4-12.06-4.24,25-2.81,51.63,14.8,74.84,1.6,10.23-8.93-11.58-7.37-16.55-9.32-31.84-8.66-64.81-19.65-97.87-19.86-3.58.32-7.16.46-10.69,1,3.72,5.63,6.61,13.49,12.15,17.2,16.3,40.27,69.64,36.39,90.35,36.56C375.39,501,327.71,497.68,318.88,491.41Zm-40.63-3.75c-2.16-1.53-2.77-4.65-5.17-6.47,32.53,24.65,44.79,17.79,76.56,30.87C316.67,503.66,306.24,508,278.25,487.66Z" transform="translate(-7.37 -11.39)"/><path d="M133.82,428.37c15.52,5.93,11.34,5.45,27.62,7.4,15.45,1.67,30.85,3.17,46.25.09a31.48,31.48,0,0,0-6.21-.61c-13.37,2.54-26.29-2.18-39.61-3-24.28-1.09-26.63-5-49-14.94C132,407,177.42,419.61,197.41,429.4c-27.35-22.07-52.44-51.77-62.35-85.93,5.32-18.08,93,89.55,97.77,100.2-9.28-.71-18.86-2.69-28.35-1.25-9.23,3-19.45,3.2-28.65,2.2-29.18-4.48-39.93-5.6-63.54-25.29C119.42,422.64,126.35,425.94,133.82,428.37Z" transform="translate(-7.37 -11.39)"/><path d="M249.59,388.16c3.51,21.56,5.62,43.85-3.57,64-6.63-4.07-9.25-3.59-11-12.47-8.88-12.05-8.41-21.37-8.94-35.67-5.4-26.74,1.76-52.93,10.1-78.47C247.56,349.66,247.9,362,249.59,388.16Z" transform="translate(-7.37 -11.39)"/><path d="M276.23,419.82c18.34-12.36,41.57-7.07,59.49-21.44-10.25,19.41-12.91,28.66-30.58,41.44-2.54,1.84-13.67,13.35-16.27,15-4.35,1.63-11.9-.75-16.52.46-7.1-.73-20.16,4.74-24.59-1.63C249.22,439.88,269.24,423.27,276.23,419.82Z" transform="translate(-7.37 -11.39)"/><path d="M253.84,436.06c6.93-8.44,15.92-14.45,24.6-20.84,15.71-21,9.77-48.35,4.83-71.84-12.16,11.71-21.4,26-29.71,40.64-1.77,2.07-1.57,4-1.17,5.91C254.82,405.32,257.5,420.26,253.84,436.06Z" transform="translate(-7.37 -11.39)"/><path d="M282,413c16.93-7.11,17.56.91,30.92-16.19a126.71,126.71,0,0,0,22.9-34c3.46-8.08,11.76-16.33,10.58-25.41-18.57.57-44.26,25.11-55.32,40.45C291.51,390.33,290.2,402.53,282,413Z" transform="translate(-7.37 -11.39)"/><path d="M182.72,303c14.69,16.21,16.79,39.56,26.78,58.57,5.3,11.48,9.46,16.33,10.93,23.62,1.06,13.77,4.31,26.34,3.56,40.36-10.92-13.61-17.31-30.34-28.12-44-8.24-16.9-9.28-36.52-13.16-54.88C183.12,323.05,173.82,294.84,182.72,303Z" transform="translate(-7.37 -11.39)"/><path d="M323.45,463.78c-3.23-.42-35.69-4.89-25.64-10.22,23.67-4.58,47.82-10.48,71.47-11.64,15.49-1.11,30.65,1.67,46.06,2.88a2.32,2.32,0,0,1,.68,4.47C387.11,458.94,353.77,466.32,323.45,463.78Z" transform="translate(-7.37 -11.39)"/><path d="M332.79,397.48c3.06-1,5.92-3.59,8.81-2.39-11.24,20.43-8.64,17.66-13.77,26.25,0,0,12.85-6.89,16.21-7.95,25.27-8,39.61-19.66,56-40.6,3.87-9.37-27.78,7.24-32,7.38-13,5.7-28.66,8.28-39.67,18.22C327.38,399.3,331.22,398.6,332.79,397.48Z" transform="translate(-7.37 -11.39)"/><path d="M405.65,401.44c-22.48,1.93-44,11.09-65.37,18.23-18.93,9.43-25.22,21-44.93,28.84l0,.39c11.85-2.5,28.08-2.39,39.46-8,23.27-14.23,47.43-24.57,70.71-38.94Z" transform="translate(-7.37 -11.39)"/><path d="M253.42,377.62c7.23-15.57,19.11-28,30.54-40.5,4.32-6.1,3,7.48,4.56,9.77,1.56-5.42,5.45-9.88,6.92-15-1.55-11.55.38-25.15-5.83-35.24-4-2-7.73,12.34-9.9,15.33-10.19,21.27-21,42.54-26.41,65.61Z" transform="translate(-7.37 -11.39)"/><path d="M290.52,374.33c6.89-9.51,16.79-18.39,24.91-26.06.62-7.77,7.68-21.31-.19-26.3-11.38-.24-23.61,20.27-26.87,30.3C287.18,359.64,290.13,366.8,290.52,374.33Z" transform="translate(-7.37 -11.39)"/><path d="M230.09,300.33c-2.83,17.65-5.43,35.37-6.67,53.2,3.39-12.1,7.81-24,12.28-36.18,6.14,15.58,12.49,33,15.46,42.17,2.38-13.16-3.12-77.62-16.45-80.62C230.14,284.29,232.11,293.61,230.09,300.33Z" transform="translate(-7.37 -11.39)"/><path d="M305.71,407.77c19-3.08,31.35-25.37,42-40,8.38-13.36,33.68-35.68.09-18.38C335.72,370,324.13,391.64,305.71,407.77Z" transform="translate(-7.37 -11.39)"/><path d="M221.88,376.68c-3.36-17.23,1.17-35.59-2.94-52.6-.57-5.79-13.13-40.43-18.31-23.32C200,327.37,209.17,353.84,221.88,376.68Z" transform="translate(-7.37 -11.39)"/><path d="M343.63,439.91c5.18-3,17.23-8,17.43-8.52,22.51-1,35.1,1.41,57.09,5.77a1,1,0,0,1,.69,1.52c-2.64,6.82-39.76-1-44.42.44a231.71,231.71,0,0,0-37,4.39C339.58,442.43,341.56,441.09,343.63,439.91Z" transform="translate(-7.37 -11.39)"/><path d="M337,388.94c31.18-12.2,29.34-10,47.3-39.2,2-3.81-3.45-1.59-5.06-.7C356.44,355.6,350.84,373.86,337,388.94Z" transform="translate(-7.37 -11.39)"/><path d="M188.36,373.54c-6.36-19.79-7.33-41.17-13-61.18-12,.83,6.16,55,12.76,61.33Z" transform="translate(-7.37 -11.39)"/><path d="M252.47,368.81c5.44-25.29,19.32-46.58,27.64-70.55-9.55-15.42-29,64.3-28,70.55Z" transform="translate(-7.37 -11.39)"/><path d="M318.13,347.36c2.29-1.65,5.34-2.27,6.8-4.51,1.38-6.16,2.78-13.4-1.9-17,0,.26-2.42-2.27-2.47-2C324,330.47,321.32,339,318.13,347.36Z" transform="translate(-7.37 -11.39)"/><path d="M281.1,866.76c-46.37,6.69-98,14.38-132.07,3.39-17.3-5.53-29.54-19.44-8.79-31.86,21.46-10.24,69.22-1.1,96.69-3.3,55.9-4.47,17-27,42.35-74.92-56.64-29.46-78.61-56.93-87.4-117.36-8.88-61,28.1-139.47,46.67-163.65,3.36-4.36,15.36-7.21,12.07-14.9-.87-2-9.48-5.64-18.68-9.89-14.29-6.59-11.3,9.55-14,14.58-29.71,54.51-69.71,133.23-62,197.94,4.68,39.31,23,76.49,49.12,106.67,11.07,14,47.06,27.24,53.39-.92-6.14,27.29-22.62,18.5-45.69,16.3-46.82-4.45-117.93-1.63-149.22,38.92-37.71,54.8,48.75,84.78,90.73,90.86,51.16,8.6,102.47-2.38,152.36-13.33A327.07,327.07,0,0,1,281.1,866.76Z" transform="translate(-7.37 -11.39)"/><path d="M214.79,137C318,111.34,442.66,158.42,495,250.77,432.12,163.53,320.74,122,215.66,138.53Z" transform="translate(-7.37 -11.39)"/><path d="M454.54,229.85C397.32,180.9,322,153.83,246.68,153,306.74,142.81,401.65,171.25,454.54,229.85Z" transform="translate(-7.37 -11.39)"/><path d="M400.76,308.41C357.35,257.27,303.31,236.58,237,247.6,273.29,218.88,391.82,263,400.76,308.41Z" transform="translate(-7.37 -11.39)"/><path d="M136.21,627.89C80.62,613.33,45.64,581,20.73,526.18,47.69,572.1,84.77,606.07,136.21,627.89Z" transform="translate(-7.37 -11.39)"/><path d="M269.48,171.47c60.1-.47,112.89,18.91,158.52,57.71C379.84,197.25,326.66,178.93,269.48,171.47Z" transform="translate(-7.37 -11.39)"/><path d="M248.64,221.94c46.07-12.86,108.2,9.78,132.41,39.57C341.25,233.79,297.37,219.73,248.64,221.94Z" transform="translate(-7.37 -11.39)"/><path d="M258.42,276.18c32.37-10.55,84.63,5.35,108.91,39C337.39,288.41,298.07,276.55,258.42,276.18Z" transform="translate(-7.37 -11.39)"/><path d="M273.08,258.91c32.6-6.74,79.42,13.2,93.4,34.18C338.15,274,307.26,262,273.08,258.91Z" transform="translate(-7.37 -11.39)"/><path d="M153.16,299.84c17.14-26.67,61.12-43.14,84.07-37C206,267.64,177.75,279.34,153.16,299.84Z" transform="translate(-7.37 -11.39)"/><path d="M375.93,303.56c28.39,17.39,48.89,64,44.72,88.83C413.07,359.08,398.77,329.17,375.93,303.56Z" transform="translate(-7.37 -11.39)"/><path d="M241.37,200.92c29.76-12.58,62.39-12.6,90.55,1.91C300.23,195.81,274.93,195.43,241.37,200.92Z" transform="translate(-7.37 -11.39)"/><path d="M411.78,302.55c24.58,24.27,39,56.52,38.12,90.3C442.35,358.65,431.56,333.47,411.78,302.55Z" transform="translate(-7.37 -11.39)"/><path d="M168.82,262.1c18.49-22.36,44.45-34.32,72.87-31.43C213.57,235.88,193.27,244.8,168.82,262.1Z" transform="translate(-7.37 -11.39)"/><path d="M510.43,430.54c7.37-66.11-13.22-132.16-55-183.41C497.54,281.92,528.07,361.92,510.43,430.54Z" transform="translate(-7.37 -11.39)"/><path d="M442.61,260.66c36.7,47.6,53.18,101.36,49.85,161.16C488.78,364.16,471.23,310.72,442.61,260.66Z" transform="translate(-7.37 -11.39)"/><path d="M432.74,303.79c23.25,22.44,36.05,52.45,33.75,84C460.52,355.94,451,332.51,432.74,303.79Z" transform="translate(-7.37 -11.39)"/><path d="M252.58,164.66c-66,4.08-127,35.65-169.82,85.55C109.39,202.8,182.3,159.07,252.58,164.66Z" transform="translate(-7.37 -11.39)"/><path d="M120,232c47.67-36.6,101.47-53,161.26-49.49C223.57,186.07,170.1,203.5,120,232Z" transform="translate(-7.37 -11.39)"/><path d="M132.18,255.62c26.57-27.26,61.92-44.85,99-47.07C193.66,219.35,166.06,232.64,132.18,255.62Z" transform="translate(-7.37 -11.39)"/><path d="M134.56,532.13C103,510.78,79.5,479.08,70.78,443,88,478,106,502.82,134.56,532.13Z" transform="translate(-7.37 -11.39)"/><path d="M388.72,237.61c-18.41-13.27-57.47-27.44-85.63-30.14,60.58,13.64,114.73,49,146.69,103.23C446.67,282.51,408.29,251.71,388.72,237.61Z" transform="translate(-7.37 -11.39)"/><path d="M539.61,314.86c62.66,130-13.72,297.82-149,342.88-6.51,2.44-13.38,3.9-20.05,5.92-1.82.55-2.9-.38-4.59-1.21C511.42,625.65,595.61,453,538,315.31Z" transform="translate(-7.37 -11.39)"/><path d="M214.47,586c103.8,32.25,227.22-36.41,250.87-142.91C449.91,553.76,318,628,214.47,586Z" transform="translate(-7.37 -11.39)"/><path d="M437.7,594.26c50.95-45.59,81.39-110.34,86.1-178.3C530.68,471.54,497.9,553.79,437.7,594.26Z" transform="translate(-7.37 -11.39)"/><path d="M357.12,542.87c55-38.43,80.63-90.29,75.86-157.36C458.17,424.34,403.13,538.22,357.12,542.87Z" transform="translate(-7.37 -11.39)"/><path d="M498.5,429c1.05,54.46-17.56,101.12-55.42,140.15C474.13,527.41,491.7,480.33,498.5,429Z" transform="translate(-7.37 -11.39)"/><path d="M437.54,566c-34.74,42-79.29,65.17-133.45,70C354.85,624.67,398.88,600.46,437.54,566Z" transform="translate(-7.37 -11.39)"/><path d="M119.35,569.22c-45.17-30.44-72.66-72.49-82.84-125.91C52.81,492.71,81.24,534.14,119.35,569.22Z" transform="translate(-7.37 -11.39)"/><path d="M452.62,401.63c8.52,47.07-19.81,106.82-51.72,128.16C432.2,492.73,450.28,450.35,452.62,401.63Z" transform="translate(-7.37 -11.39)"/><path d="M354,547.59c-38.95,27.76-105.08,27.59-138,7.81C262.89,567.93,308.93,566.23,354,547.59Z" transform="translate(-7.37 -11.39)"/><path d="M339.77,523.05c-25.13,23-79.29,30.08-115.31,9.44C262.8,544.53,303.5,539.1,339.77,523.05Z" transform="translate(-7.37 -11.39)"/><path d="M392,578.37c-18.86,22.56-45.32,34.78-74.26,32.16C346.4,605,367.09,595.91,392,578.37Z" transform="translate(-7.37 -11.39)"/><path d="M292.54,621.44c-27.62,10.12-56.64,7.49-80.4-9.24C239.7,621.76,262.18,624.19,292.54,621.44Z" transform="translate(-7.37 -11.39)"/><path d="M160,568.81c-28.71-6.37-51.73-24.24-62.71-51.14C115.33,540.58,133,554.75,160,568.81Z" transform="translate(-7.37 -11.39)"/><path d="M243.66,518.86a124.9,124.9,0,0,0,52.39.48C279,529.89,260.86,529.79,243.66,518.86Z" transform="translate(-7.37 -11.39)"/><path d="M468.41,493.12c9.9-20.42,17.14-61.33,14.94-89.55-3,62-28.53,121.46-76.43,162.28C434.15,557.93,457.88,514.82,468.41,493.12Z" transform="translate(-7.37 -11.39)"/><path d="M541.85,367.75c-6.63-33.48-14.1-60-35.44-89.1.46,1,11.88,23.57,11.61,23.75h0c32.89,81.83,26.69,160.89-15.52,237.81C538.86,491.57,551.52,427.35,541.85,367.75Z" transform="translate(-7.37 -11.39)"/><path d="M405,633.17c29.75-16.72,52.64-32.07,73.65-61.4-.82.75-18.7,18.62-19,18.42h0c-67.53,56.72-144.6,75.43-230.83,59.25C286.43,668.86,351.4,660.9,405,633.17Z" transform="translate(-7.37 -11.39)"/><path d="M169.71,254.29c-87.73,55-106.84,170-35.87,246.92C54.62,427.67,74.35,303.59,169.71,254.29Z" transform="translate(-7.37 -11.39)"/><path d="M79,259.5c-40.41,55.15-56.8,124.79-47.34,192.26C13.39,398.8,28.44,311.55,79,259.5Z" transform="translate(-7.37 -11.39)"/><path d="M37.2,254c30.27-52.78,88.38-93.1,152.65-105.76C122.78,170,76.56,205,37.2,254Z" transform="translate(-7.37 -11.39)"/><path d="M56.18,458.24C39.43,406.41,43.75,356.36,68.71,308.05,51.05,357,47.85,407.12,56.18,458.24Z" transform="translate(-7.37 -11.39)"/><path d="M107.92,437.81c-15.83-45.14,2.71-108.61,30.86-134.71C113.72,344.62,102.54,389.32,107.92,437.81Z" transform="translate(-7.37 -11.39)"/><path d="M181.23,512.5c-24.46-4.89-49.24-33.7-49-63.8C138.51,476.45,157.2,498.07,181.23,512.5Z" transform="translate(-7.37 -11.39)"/><path d="M72.58,303.87c6.75-28.62,24.93-51.41,52-62C101.4,259.59,87,277,72.58,303.87Z" transform="translate(-7.37 -11.39)"/><path d="M154.41,452.37a124.88,124.88,0,0,0,32.69,40.94C168.13,486.7,156.79,472.61,154.41,452.37Z" transform="translate(-7.37 -11.39)"/><path d="M76.56,337.45c-8.4,21.09-12.64,62.42-8.4,90.39-1.51-62.08,19.63-123.2,64.44-167.39C106,270.33,85.48,315,76.56,337.45Z" transform="translate(-7.37 -11.39)"/><path d="M7.45,383.77c-.51,34.12,1.25,61.64,16,94.54-.23-1.08-6.69-25.53-6.38-25.65h0C2,365.76,24.63,289.74,82,223.34,36.24,263.31,10.45,323.47,7.45,383.77Z" transform="translate(-7.37 -11.39)"/><path d="M138.47,612Q51.56,572.64,17,483.91C46.23,537.2,87.54,579.12,138.47,612Z" transform="translate(-7.37 -11.39)"/></svg>