<svg id="Venemist" xmlns="http://www.w3.org/2000/svg" viewBox="0 0 986.77 985"><path d="M875.15,325c-49.06,23.76,10.19,10.5,25.22,1C920.47,315.13,879.7,322.75,875.15,325Z" transform="translate(-7.46 -6.31)"/><path d="M889.77,257.8c-21.2,24.1,31.73-7.88,28.43-16.1C908.24,245.06,898.45,252.31,889.77,257.8Z" transform="translate(-7.46 -6.31)"/><path d="M860.21,198c5.12,2.65,41.26-39.33,22.52-32.82C877.17,170,849.78,194.25,860.21,198Z" transform="translate(-7.46 -6.31)"/><path d="M922.52,290.44c-15.58,12.5,34.9-4.91,37.52-7C960.49,276.64,927.62,288.46,922.52,290.44Z" transform="translate(-7.46 -6.31)"/><path d="M819.9,171.51c-12.44,30.21,14.08-5.58,17.38-13-1.15-15.44-15.17,7.87-17.51,12.73Z" transform="translate(-7.46 -6.31)"/><path d="M717.89,142.76c1.29,7.83.22,27,7.66,26.62C734,159.28,720.9,96.71,717.89,142.76Z" transform="translate(-7.46 -6.31)"/><path d="M865.92,236.42c-3.19,3.71-11.08,13.47-2.13,14.42C872.36,249,880.91,224.87,865.92,236.42Z" transform="translate(-7.46 -6.31)"/><path d="M964.61,256.32c-50.23,16.5,13.34,16.11,23.23-.36C985.63,248.6,970.26,256.47,964.61,256.32Z" transform="translate(-7.46 -6.31)"/><path d="M904.58,114.59c1.32-3,12.87-17.48,3.84-14.64C899.83,102.41,881.35,133.89,904.58,114.59Z" transform="translate(-7.46 -6.31)"/><path d="M922.54,206.58c-4.46-5-33.25,16.53-27.49,21.71C902.5,234.36,928.18,211.2,922.54,206.58Z" transform="translate(-7.46 -6.31)"/><path d="M818.18,136.11c5.23,3.64,14.06-11.29,14.34-17.45C831.78,104.85,813.46,133.13,818.18,136.11Z" transform="translate(-7.46 -6.31)"/><path d="M935.63,248.75c-10.14,7.41.65,8.22,6.87,3.88C951.84,244.91,942.73,243.08,935.63,248.75Z" transform="translate(-7.46 -6.31)"/><path d="M953.92,199.82c-10.37,7.85-4.28,13.74,4.48,5.3C968.46,197.32,969.48,186.82,953.92,199.82Z" transform="translate(-7.46 -6.31)"/><path d="M839.37,74.39c6.32,4.53,19.12-32.78,14.52-33.47C848.47,39,832.43,71.44,839.37,74.39Z" transform="translate(-7.46 -6.31)"/><path d="M726.55,79.55c-3.23-20.71-8.15-14.9-5.92,1.93C723.13,100.69,730,98.86,726.55,79.55Z" transform="translate(-7.46 -6.31)"/><polygon points="793.54 230.47 793.54 230.47 793.54 230.47 793.54 230.47"/><polygon points="740.47 287.16 740.42 287.11 740.73 286.84 740.47 287.16"/><path d="M739.43,35c.93,7.57,3.56,13.09,4.85,19.79,1,5.32,3.29,10-.57,17.11-1.28,2.38-.82,5.58-.41,8.13a125.27,125.27,0,0,1,.21,36.57c-.43,3.25-2.29,5.77-2.87,8.85-.25,1.33-.9,3,0,3.68,1.13.87,1.83-1.07,2.71-2.13,5.55-6.63,7.52-14.44,7.35-23.36-.08-4.47,1.58-9.09,3.62-13.41,1.5-3.15,2.59-6.78,1.75-9.36-2.8-8.58-1.11-19.34-1.92-28.92a151.68,151.68,0,0,0-2-16.42c-1.08-5.48-3.57-9.29-5.9-13.2-1.12-1.87-2.72-3.3-5-1.17s-2,5-2,7.64C739.27,31.08,739.38,33.3,739.43,35Z" transform="translate(-7.46 -6.31)"/><path d="M854,100.74c-.29.42-.57.85-.86,1.28-.11,2.26-2,3.25-3,4.91-.45.79-1.18,1.63-.36,2.47s2,.43,2.66-.41c1.52-1.92,2.91-4,4.43-6,3.06-4,5.84-8.44,10.16-11.5l1.21-1.09c1.73-2.6,4.36-3.92,7-5.28,2.93-1.51,5.95-3,8.8-4.78,1.53-1,3.66-2.71,1.53-4.7-3.89-3.62-1.17-5.39,1.86-7,2.55-1.38,5.28-2.43,8-3.61,3.44-1.49,7-2.58,9.68-6,1.72-2.24,3.47-4.37,2.26-7.18s-3.65-3.67-6.54-3.29a32.72,32.72,0,0,0-14.73,6.18A81.24,81.24,0,0,0,860.23,85.9C857.85,90.83,857.5,96.58,854,100.74Z" transform="translate(-7.46 -6.31)"/><path d="M961.22,169.55a185.27,185.27,0,0,1-17.58,12.31l-2.54,2.3c-1.79,1.94-3.52,4-5.83,4.8l-5.06,4.88c1.78,1.53,5.35-1.09,8.6-3.33,11.16-7.73,22.42-15,33.58-19.49a128.74,128.74,0,0,0,12-5.88c3.89-2.08,8.11-5.64,9.5-8.8,1.51-3.42-1.7-3.14-4.85-2.63s-7.62,3.69-10.76,4.17l-2.38,1.61a35.2,35.2,0,0,1-8.34,5.56A25.64,25.64,0,0,1,961.22,169.55Z" transform="translate(-7.46 -6.31)"/><path d="M938.44,113.05c-4.63,4.61-9.28,9.2-13.47,14-1.59,1.8-4.87,4.85-3,6.18,1.61,1.17,4.63-1.44,6.7-3.18a327.54,327.54,0,0,0,29.94-29.17c7.61-8.31,13.24-22.22,22.54-26.51,12.16-5.61,1.18-21.13-9.74-5.48C965.34,77.5,945.86,105.66,938.44,113.05Z" transform="translate(-7.46 -6.31)"/><path d="M846.85,269.38c8-1.77,16.39-3.92,24.18-4.81.34-.26.68-.5,1-.73,2-3.79-1.78-2.88-2.57-4.42l-2.11.15c-6.25,2.8-12,3.44-18.49,8.12Z" transform="translate(-7.46 -6.31)"/><path d="M824.78,333c.4,2-2.44,2.49,0,5.2s4.79,2.23,6.62,1.88c2.83-.54,5.87-.94,6.58-4.68-4.72-1.79-7.59.07-12.18-2.75Z" transform="translate(-7.46 -6.31)"/><path d="M831.28,197.39c5.61-8.08,12-16.35,14.29-24.52-2.55,1-4.3,3.64-6.31,5.7-3.93,5.46-5.5,10.64-8.86,15.92.39.46.36,1.14-.31,2.18Z" transform="translate(-7.46 -6.31)"/><path d="M879,256.7c-2.89,1.38-5.25,3-3.18,4.4,1.49,1,1.56,4.19,6.6.51.09-.65.17-1.29.25-1.93-1-1-2-2-2.93-3.05A1,1,0,0,1,879,256.7Z" transform="translate(-7.46 -6.31)"/><path d="M862.54,159.26c-3.43,2.39-6.49,5-8.43,8.85-1.17,2.34-1.34,3.66.92,3.1,1.06-1.1,2.12-2.22,3.18-3.33q2.56-3.85,5.17-7.74a.77.77,0,0,1-.13-.64l-.49,0-.23-.28Z" transform="translate(-7.46 -6.31)"/><path d="M967.58,131.5c-2.25,2.48-6,5.51-4.49,6.82,1.23,1.09,4.27-2.08,6.57-4a6,6,0,0,0,.69-.64c2.49-2.78,8.16-6.67,7-8.06C975.8,123.77,971,128.55,967.58,131.5Z" transform="translate(-7.46 -6.31)"/><path d="M901.33,148.66c-1.63,2.16-4.38,4.59-3.31,6,.61.76,2.4-.08,4-1.67,2.1-2.15,3.81-4.52,3.12-5.94C904.56,146,902.9,147.11,901.33,148.66Z" transform="translate(-7.46 -6.31)"/><path d="M880.43,300.27c-1.77-.33-1-4.92-6.27.67-2,2.19-3,4.39-2.42,5.94.28.73,1,1.24,2.36.56,3.92-1.9,4.66-4.72,6.36-7.27Z" transform="translate(-7.46 -6.31)"/><path d="M630.46,238.89c.2-.31.39-.63.59-.93,13.46,4,48.24,17.86,56.7,56.35,0,0-.7-58.1-48.85-78.07a2.2,2.2,0,0,0-.15-.31C634,222.89,629.25,230.16,630.46,238.89Zm6.06-13.38c36.08,17.88,46.92,52.24,46.92,52.24-11-24.11-32.4-39-47.25-46.62C637.06,230.13,637.33,226.4,636.52,225.51Z" transform="translate(-7.46 -6.31)"/><path d="M599.69,274.5c15.69,5.11,59,23.4,68,71.48,0,0,7.38-66.52-55.83-89.83l.34-.47C603.14,257.58,593.88,266.47,599.69,274.5Zm3.28-5.14a8,8,0,0,1,.81-1.54c.54-.81,1.1-1.61,1.65-2.42,50.11,21.1,57.65,60.21,57.65,60.21C647.64,288.88,617,275,602.31,270.34,602.53,270,602.74,269.68,603,269.36Z" transform="translate(-7.46 -6.31)"/><path d="M693.48,353.63s-.81,13.9,15.06,14.55C708.54,368.18,703.46,354.76,693.48,353.63Z" transform="translate(-7.46 -6.31)"/><path d="M699.77,884.36c-35.41-4.38-57.08-20.46-71.28-43.53-8.58-14-34.86-195.44-89.12-247.93-1,3-20.55,49.39-35.61,69.17-.12.1,40.33-112.13,62.19-123.09a.51.51,0,0,0,.3-.65c-3.22-.76-66.43-29-63.89-28.61,7.22,1,32.22,9,40.19,12.36,10.76,4.54,16.5,9.6,36.56,14.48,25.35,6.18,36.26,6.69,64.88,6.94,16.91.15,32.43-3.08,49.39-9.7,1.5-.58,22.7-11.54,29.07-21.47,3.1-4.84,13.84-36.9-10.41-42.54-14.79-3.44-40.59-5.12-56.6-6.57-17.15-1.56-36.85-21.72-44.68-33.35-.71-1.05-31.69,23.84-32.52,22.64,1-.39,8-6.75,30.44-25,1.84-1.5,10.1-7.26,14.46-11.61-13.08,1.16-33.43-6.54-33.43-6.54,11,.76,27.48,4.93,35.3,2.44a23.7,23.7,0,0,1,4.23-2.53c16.57-6.86,35.58-5.2,57-23.18,5-4.18,17.88-11.45,23.23-15.48a35.22,35.22,0,0,1-7.19,0c-13,.32-10.91-11.27-12.57-16.17-.38-.54.2-3,0-3.59-1.84,4-13.67,18.68-18.43,21.12-10.94,5.59-40.2,12.49-44.09,12.65-15,.6-24.7-4-39.5.41-25.16,7.49-37,23.81-47.72,46.06a7,7,0,0,0-.73,4.36c-3.09-9.11,10.94-28.65,13.71-31.65,4.16-4.53,8.4-9,13.61-12.57a44.67,44.67,0,0,1,11.57-5.66c-9.87-12.89-10.44-16.27-14.36-17.72a99.24,99.24,0,0,1-10.69,16.05c-36.65,44.36-55.55,52.24-74.14,60-5.18,2.16,23.26,3.94,19.6,4.33,17.83-1.91,41.79,7.74,95.12,50-5.5-1.05-50.2-30.62-53.1-32.4-11.77-7.17-23.78-10.39-39-12.64a216.22,216.22,0,0,0-22.36-1.82c-9.48-.5-7.13-10.56-9.69-19.47.48,0,1-.15,1.23,0,5.3,4.07,11.75,6.83,18.31,3.48,20-10.23,34.83-26,48-43.65,21-28.23,45-49.41,58.7-81.93,1.8-4.26,3.6-8.55,5.52-13.13a20.68,20.68,0,0,1,1.43-6,60.38,60.38,0,0,1,5.36-10.2l.07,0c6.28-2.87,10.73-18.06,16-22.55a36.11,36.11,0,0,0,7.07-9.31c2.87-6.28,3.73-17.63,9.6-25.91a4.27,4.27,0,0,0-.21-5.7c-.47-.45-1-.93-1.58-1.45-7.34-6.45-24-22.33-31.87-28.06-6.33-4.63-14.56-3.66-22.07,3.21-11.72,10.72-22.84,21.83-33.33,33.08-12,12.86-22.89,26.27-34.45,38.77a62,62,0,0,1-14.39,11.57c-6.07,3.44-14.91,12.61-21.22,21.77-32.08-18.89-78.41-38-108.55-14.46,0,0-19.65,38.33,90.49,43.22-.28.39-.54.79-.78,1.19-40.75-.44-108.08,8.84-137.07,52.9-3.62,5.5,3.31,8.45,9,11.35,24,12.2,56.05-4.74,118-15.93-.63,1.63-4.3,21.69-25.73,25.58,0,0,8.09,6.56,12.71,5.54-1.54,5-17.47,23.65-36.59,13.9a1.6,1.6,0,0,0-2.07,2.33c4.5,6,12.71,15.08,23.27,18.58-3.26,3.62-39.92,24.37-61.16,22.19a2.28,2.28,0,0,0-1.41,4.21c7.41,4.79,19.3,10.85,31.9,10.8-3.34,4.82-24.36,8.73-48.38,2.17a2.21,2.21,0,0,0-2.25,3.49c1.71,2.19,13.79,18,12.85,17.81-5.45,5-22,3.92-39.34-6.35-1.17-.69-1.85,1.43-.87,2.7,5.52,7.16,12.28,18.61,23.75,18.3-23.35.63-43.63,20.38-43.1,20.38,22.61.12,19.9,12.21,14.6,13.07-20.31,3.29-30.36,25.73-30.36,25.73,18.26-8.5,17.57-2.41,17.56-1.19C298,587.2,271,594.86,271,594.86c4.32,6.91,13.77,1.85,10.9,4.1-14.93,11.72-39.62,12.92-80.4-1.43-42.77-15-88.38-6.32-107.78,2.58C37.51,625.92,22.7,686.39,16,737,0,858.18,3.9,918.54,50.3,939.92c13.61,7.76,55.44,12.93,55.67,12.58,4.06-6.09-12.26-25-10.77-23.35,25.14,28.73,69.7,43.59,70,43.1,4.24-6-4.67-17.33-1.79-16.16,13.92,5.64,21.46,17.9,32.33,25.14s30.37,5.46,35.92,7.19-11.2-23.41-7.19-21.56c23.35,10.78,28.74,19.76,52.09,19.76.5,0,10.78,0,7.18-1.8-4.74-2.37,2.76-15.57,25.15-7.18,14.37,5.39,35.65,14.79,37.71,9,11.12-31.25-17-117.88-64.28-124.11-13.74-1.8-26.37-6.63-43.81-8.59-17.15-1.94-38.78-1.09-61.24-5.2C97.74,834.2,66.65,758.31,84.49,697.55c-1.9,70.32,19,139.2,114.83,149.92,11.05,1.24,21.56,3.25,26.92.66,24.87-12.06,36.25-25.41,38.47-44.66-2.48,21.51,3.84,23.79-24.24,41.41.52-.33,23.74,17,84.32,15-.73-2.31-31-97.72-34.24-109-1.2-4.22-3-22.88-3.5-29.64,6.31,14.9,10.53,30.47,14.54,46.15.45,2.33.91,4.66,1.47,7,.63,2.6,1.43,5.18,2.28,7.75a356.14,356.14,0,0,0,10.9,36c5,13.26,9.49,26.74,14.3,40.2a63.35,63.35,0,0,0,2.25,6.46c.14.33.29.66.44,1q2.26,6.19,4.69,12.34c.08.26.17.54.27.83h.06c1.9,4.83,3.87,9.66,6,14.44,9.63,21.82,22.29,43.11,35,64.49,3.73,6.28,11,11.73,17.53,15.91,7.39,4.73,15.75,7.68,23.85,11.24,11,4.83,22.29,7.19,31.31,1.69,1.31-.79,2.91-.91,3.78-1.83,12.51-13.28-6.92-42.14-6-42.27s21.19,20,13.56,40.47c-.61,1.64,2.5,2,4.86,2.92,14.15,5.54,28.63,9.44,38.36-2.67a.41.41,0,0,1-.06-.3c5.05-28.32-16-53.78-15.82-53.85s24.5,19.69,19.28,53.72c-.23,1.49,1.91.61,3.82,1,19.15,3.44,28-16.45,28.18-18.87,2.3-24.69-21.07-60.63-47.53-66-22-4.5-40.35-11.86-53.41-30.79-.62-.9-1.94-1.43-2.48-2.34-3.81-6.48-9.65-12.92-10.83-19.49-4.57-25.34-7.4-50.73-11.38-76-1-6-2.19-12-3.48-18-.49-6.88-.89-13.91-1.85-20.76l1-.16c4.57,14.7,10.64,34.39,11.59,39.44,1.7,9,3.76,17.92,4.46,26.94s.92,17.81,2.14,26.76a86.05,86.05,0,0,0,1.71,10.34c.13.48.27,1,.42,1.47,4.91-3.42,9.58-7.08,14.54-10.54l.12-.13a87.31,87.31,0,0,1,9.76-13c4.09-4.7,25.92-25.15,30.95-29.34,14.14,13.38,53.38,65.91,58.6,78.55,6.42,18.4,22.14,30.91,37.08,44.27,26.85,28.27,40.57,62,90,65.72,4-1,44.18,7.42,69.24,6,10.15-1,15.1-4.79,15.16-4.94,10.48-28-2.36-48.78-1.52-49.48s16.25,24.13,8.6,47.36c0,.16.26-.22.39-.34,11.5-10.23,18.93-22.25,11.56-38.47C762,899.52,741.76,890.91,699.77,884.36Zm2.47-380c-31.31,29.7-83.57,11.42-83.57,11.42C677.05,523.5,702.24,504.35,702.24,504.35Zm-120-270.47c5.8,1.5,8,5.85,8,13.58-6.47-5.69-11.51-11.78-21.21-7.26C572.46,235,576.89,232.51,582.2,233.88Zm-84.07,75.58c.88-1,9.55-8.59,11.68-10.28,10.16-8.07,20.56-16.07,31.8-24.83a19.64,19.64,0,0,1-1.15,3,24.24,24.24,0,0,0-3.87,13.88c0,10.26-5.74,18.33-14.93,24.06-6.89,4.3-10.84,3.66-18.61-2.36-5.74,4.61-4.29,10.76-4.68,16.74A15.21,15.21,0,0,1,498.13,309.46ZM362.72,385.94c-13,2.59-25.75-4.69-25.75-4.69,20.29-24.78,83.52-35.92,114-34.45a50.25,50.25,0,0,1,10.21,2c-1,3.7,4,5.37,4.75,7.42a10.21,10.21,0,0,1,.49,4C451.07,366.71,408.2,376.9,362.72,385.94Z" transform="translate(-7.46 -6.31)"/><path d="M737.79,216.23a185.6,185.6,0,0,1,1.9,21.37c.25,1.12.49,2.24.73,3.35.79,2.52,1.7,5,1.25,7.45l1.71,6.82c2.21-.78,1.72-5.18,1.4-9.11-1.13-13.53-1.8-26.9-.14-38.82a130.13,130.13,0,0,0,.87-13.31c.14-4.41-.85-9.84-2.9-12.62-2.21-3-3.56-.1-4.69,2.89s-.6,8.45-1.76,11.41l.21,2.86a35.08,35.08,0,0,1,.67,10A26,26,0,0,1,737.79,216.23Z" transform="translate(-7.46 -6.31)"/><path d="M756.72,144.9c-3.39,52.76,19.92-6.39,8.32-21.7C757.38,122.51,759,139.71,756.72,144.9Z" transform="translate(-7.46 -6.31)"/><path d="M788.51,129.6c5.76,31.57,13.5-29.78,5-32.29C790,107.21,789.59,119.38,788.51,129.6Z" transform="translate(-7.46 -6.31)"/><path d="M792,211.75c2.56-9.49,5.82-19.43,5.21-27.9-2.05,1.84-2.83,4.88-4,7.5-1.87,6.46-1.61,11.87-3,18,.52.29.73.94.44,2.15Z" transform="translate(-7.46 -6.31)"/><path d="M770.72,94.08c-.07,3.36-.89,8.06,1.07,8.09,1.65,0,1.86-4.36,2.32-7.35a7.7,7.7,0,0,0,.1-.94c.06-3.73,1.8-10.38,0-10.66C771.87,82.86,771.35,89.63,770.72,94.08Z" transform="translate(-7.46 -6.31)"/><path d="M809,85.54c4.53.66,13.08-73,2.76-54.53C809.76,40.24,800.36,86.34,809,85.54Z" transform="translate(-7.46 -6.31)"/><path d="M896.49,6.48C890.36,3.72,873,35.2,880.34,37.56,889.63,40,903.54,8.38,896.49,6.48Z" transform="translate(-7.46 -6.31)"/><path d="M920.18,81c9-13,19.29-26.26,23-39.39-4.1,1.67-6.91,5.85-10.13,9.17-6.32,8.76-8.85,17.09-14.25,25.58.62.73.59,1.83-.5,3.49Z" transform="translate(-7.46 -6.31)"/><path d="M955.18,145a1,1,0,0,0-.55-.42c-14.06-4.74-33.87,20.25-46.28,30.1a1.44,1.44,0,0,0-.27.28c-12.59,16.18-29.69,21-42.68,35.94-7.64,9-14.24,19-22.61,27.31-40,44.47-51.83,28.51-6.69-8.77a1.86,1.86,0,0,0,.55-.81,9.08,9.08,0,0,1,2.51-3.14c.18-.85.36-1.71.53-2.56-3.55-3.21-22.08,21.47-16.59,7.68,20.59-24.27,12.55-34.43-3.93-3.94a1.4,1.4,0,0,0-.17.47c-1.65,10.11-24.49,34.08-18,9.68.86-6.11,4.58-13,8.2-20a1.53,1.53,0,0,0,.16-.58c.13-2.1,1.4-4.46,3.26-7h0c13.24-28.09,31.51-53,54.47-79.93,6.69-8.46,19.75-21.72,19.15-31.28a1,1,0,0,0-1.25-.89c-12.73,2.65-25.19,23-33.85,33.13a1.34,1.34,0,0,0-.11.14c-2.68,3.83-5,8.06-9,9-17.74,9.47-23.81,33.79-30,50.36.37.8-.41,2-1,3.17a435.93,435.93,0,0,1-17.36,42.4c-8.77,18.61-29.77,15.49-25.24-3,2.2-9.25,3.23-18.13,7.09-28.36a1.36,1.36,0,0,0,.07-.25c1.34-9,7.61-18.45,10.89-27.65,6.94-22.34-11.85-13.48-17.77,3.43,0,.05,0,.1,0,.16-13.6,49.49-17.73,99.07-47.14,145a.56.56,0,0,1-.05.08,54.43,54.43,0,0,1-7.06,10.63S696.71,349,696.71,349c16.42,5.05,15.95,19.25,15.95,19.25.25-.68.47-1.33.65-2a.87.87,0,0,0,1.1.12,7.17,7.17,0,0,0,1.23-1.1,5.7,5.7,0,0,0,.64-.56c1.68-.43,6.59-3.4,7.89-4.21,7.77-4.85,33.25-13.08,37.82-14.72l.16-.07c5.92-2.88,12.49-6.57,18.47-7.56l0,.23,0-.24c9.48-4.36,19.72-7,28.62-6.47,16.91,2.79,15-16.07,28.28-3.09a1.16,1.16,0,0,0,1.32.16c3.85-1.87,7-6.09,5.36-9.53-8.45-15.54-36.23.48-52.18,6.17a1.2,1.2,0,0,0-.32.16c-6.82,4.59-33.08,16.68-21.58,0a2.09,2.09,0,0,1,.24-.28c14.7-15,35.64-25.06,53.81-32.47,13.8-6.25,22.59-4.32,34.64-4.4,6.2.16,16.28-11.89,8.91-14.83-8.75-3.4-22.18,2.08-32.17,5.88-.51.62-.91.71-1.28.57-43.89,26.14-28.51-3-1.63-22.49l.08-.06c36.59-31,77.84-58.12,112-94.36a2.26,2.26,0,0,0,.26-.37C947.76,157.64,957.53,149,955.18,145ZM726.1,335.3c-.06-7.46,17.07-30.9,18.86-33.72-.83,6.81-8.38,27.37-16.91,34.32C727.22,336.57,726.1,336.26,726.1,335.3Zm27.18,2.15c-3.53,3.07-24.34,12.56-25,11.34s9-9.25,12.93-11.89S765.9,326.48,753.28,337.45ZM786.11,288a1.57,1.57,0,0,1-.08.29c-3.65,8.93-9.87,16.63-18,24.05-1.16,1.06-2.59,0-1.82-1.35,2.84-4.91,5.54-10.23-.26-6.78-1.55.94-2.06.12-2.07-1-2.08-8.09-12.23,15.77-17.23,15.67,0-.41,0-.67.11-.91,9.72-14.93,19.84-31.09,22.64-46.57,1.31-3.77,1.62-9.58,4.89-12.91.61-.61,1.54-.75,1.93-.17,1.27,1.86,0,7.28.83,9.44.52,7,7.63-4.94,8.51,1.5-5.37,2.12-14.12,9.66-14,14.54.12,4.36-.06,6.12.2,7.27.16.74-5.9,4-6.16,5.45-.53,3.09,4.59,4.73,6.39,3.29s5.45-9.38,5.51-11.81C777.59,286.09,786.79,284.52,786.11,288Z" transform="translate(-7.46 -6.31)"/></svg>