<svg id="voltish" xmlns="http://www.w3.org/2000/svg" viewBox="0 0 977 993.29">
    <defs>
        <style>
            .cls-1 {
                stroke: #000;
                stroke-miterlimit: 10;
            }
        </style>
    </defs>
    <path id="voltish-bolt-3"
        d="M981.2,221.07c-.21-1.16-38.49-12.07-38.77-13.54-3.66-19.31-13.28-62.81-12.22-63,2.21-.34,5.35-.49,6.44-2.23,7.51-12.09,14.6-24.58,21.83-36.94L957,104.11c-4.91,8.08-10.46,15.72-14.57,24.34-5.17,10.85-11.75,13.33-21.28,13.62-13.51.41-27.41.27-40.5,5.52,1.93-24.78,3.84-46.92,5.19-69.15.46-7.54,2.69-10.88,7.92-12.72,23.33-8.2,46.21-17.9,66.94-34.21.13-.1.28-.18.42-.27l.25-.41.17-.29c0-.08.09-.17.1-.2.18-.4.33-1,.14-.24a4.39,4.39,0,0,1,1-1.86c.27-.84.54-1.67.79-2.51.83-2.79,1.56-5.57,2.38-8.34A112,112,0,0,1,957.21,26c-20.29,17.81-44,26.51-67.45,35.28-5.33,2-7.23,5.44-7.51,13-.77,20.63-2,41.18-3.6,61.65-.3,3.92-2,9.28-3.87,14.47a53.11,53.11,0,0,0-8,5.35c-11.74,9.5-23.46,14.49-36.75,11.41-.49-.12-1,0-1.53-.11-4.57-1-7.73,1.22-10.55,6.19-5.83,10.26-12,20.25-18.28,30.08-1.44,2.25-4.53,5.23-6,4.74-12.66-4-26.22-6.51-37.43-13.9-18.73-12.34-35.92-28-54.47-42.79-6.24,13.55-12.83,26.33-18.08,39.81-3.58,9.19-7.37,10.21-13.76,6.31-12.86-7.85-25.73-12.59-40.73-1.92-8.61,6.13-11.34,3.66-15.49-5.25,10.06-17.51,19.44-34,29.07-50.39a19.2,19.2,0,0,1,6.55-6.72c15.6-8.89,31.25-17.69,47.08-25.81,2.85-1.47,7.18-.84,9.9.88,10,6.35,19.64,13.7,29.57,20.33,1.93,1.29,5.26,2.46,6.79,1.26,9.27-7.31,18.2-15.33,27.25-23.12-8.68,4.18-16.31,10.6-24.37,15.87-2.62,1.72-7.06,1.93-9.52.34-10-6.47-19.38-14.24-29.34-20.79-2.68-1.76-7-2.36-9.88-1-16.05,7.31-31.86,15.59-47.87,23.11-6.56,3.08-11.19,8.06-14.58,15.71-7.24,16.36-16.85,30.23-28.94,39.84-4.48-2.39-9-7.3-12.21-6.05-11.68,4.5-31.11,19-43,25.09,1.2,4.37,6.41,13.06,7.58,17.38,5-2.66,13.57-17.45,17.45-20.58,13.35-10.79,24.07-8.34,33,6,6.34,10.15,14.13,12.44,23.88,4.81,2.09-1.64,4.72-2.16,8.19-3.66.13,21.91,2.21,41.93,11.9,58.59,2.8,4.82,6,10.13,10.15,12.66,10,6.1,17.93,14.19,22.75,26.88,2,5.18,5,9.7,7.46,14.52C686.9,298.54,683.26,280,668.1,272c-3.36-1.78-7-4.6-8.78-8.33-8.85-18.87-13.28-39.38-9.25-63.57,5.87,2.46,11.56,4.74,17.19,7.21,13.77,6,13.76,6.07,23.12-10,4.71,20.16,8.78,38.93,13.64,57.32,1.07,4,4.44,8.57,7.63,9.64a71,71,0,0,1,31.87,21.73c7.22,8.41,15.19,15.83,23.28,24.17l24.76-36.93c2.15,4.64,4,7.63,5.05,11,4.62,14.74,12.26,24.08,26.21,24a38.64,38.64,0,0,1,14.29,2.94c4.29,1.7,68.37,7.83,71.68,6.14,2.27-1.16-24.78-3.7-39.25-6.9,0,0-14.17-1.16-14.25-1-14.86,1.22-13,.33-21.36-2-5.7-1.6-11.35-3.66-17.17-4.35-7.21-.84-11.15-5.42-14-13.18-2.89-8-6.77-15.43-10.64-24.05l-25.48,36.85C765,300.94,764,300,763,299.05c-15.42-15.82-28.27-36-49.58-41.87-1.91-.52-3.49-4.91-4.17-8-4.1-18.13-7.31-36.67-12-54.52-3.22-12.29,1.82-20.48,7.41-30.14,5.36,4.19,10.23,7.89,15,11.75,21.8,17.55,43.16,36,70.94,38.78,5.41.54,8.8.31,12.37-6.12,10.2-18.38,10.07-16.85,26.36-10.44,19.94,7.85,34.68,22,42.25,46,2.83,8.95,39.93,46.83,45.53,51.08,2.22,1.69-24.21-27.75-21.77-26.41,0,0-8.55-8.68-11.19-12.1-1.3-1.68,2.88-1.69,2.88-1.69s48.37,22.09,48.39,22.06c-3-2.37-42.12-23.37-44.89-26-10.46-9.77-20.65-19.79-28-33.28a45.23,45.23,0,0,0-13.51-14.9c-10-7-20.64-12.5-32.78-19.66,4.34-4.33,7.62-10.11,10.48-10,5.4.13,10.84.29,16.25.67a60.1,60.1,0,0,0,6.27-1.74c3.35-1.15,9.25-4.54,9-4.7,10.56-8.2,19.44-16.3,31-17.41,11.09-1.08,22.17-2.89,33.24-4.65,1.2-.19,14.14,66,15.34,65.77.15,0,26.21,10.75,37.23,12.07,1.81.21,11.3,43.74,14,47.33C990.65,272.9,981.31,221.73,981.2,221.07Z"
        transform="translate(-12.31 -4.78)" />
    <path id="voltish-bolt-1"
        d="M388.56,232.93c-15-2.05-26.05-12.46-36.15-25.81-2.16-2.86-6.6-5.88-9.21-5.49a264.76,264.76,0,0,0-35.61,7.56c-6.28,1.83-15.71-4.61-20.42-16.42-3.13-7.84-4.81-16.44-8.67-23.78-6.86-13-14.89-25.39-22.06-37.41L283,101.38C262.67,83.92,252.87,62,243.8,39c-4.31-10.93-12.59-20.3-20.17-29.57l27.08,55c-24.75,0-46.65,0-62.48-28.58,9.29,19.87,23.15,30.59,39.7,32,19.53,1.67,30.13,9.45,45,34-4.92,5.32-9.5,11.8-15.37,16.18-5.65,4.21-12.64,6.26-20,9.72,3.06,3.54,4.88,6.4,7.21,8.23,16.13,12.7,23.57,30.93,29.74,50.8,3.49,11.24,9.72,21.75,15.15,33.54-8.76,13.1-23.34,17.07-38.4,7.47-10.3-6.57-18.69-19.88-26.39-31.46C211,175.64,198.38,154,184.26,131.05l-20,28.6c-.19-.15-7.5,6.25-7.46,6.29l-.81,2.82c-6.45-1.48-13-2.27-19.31-4.62-7.29-2.7-11.5-.5-13.78,6.85a8.49,8.49,0,0,1-1.5,3c-5.81,6.88-4.28,23.86-18.78,18.69-9.49-3.38-19.74-6.32-27.91-12.86-9.23-7.41-16.86-11.38-26.22-6.46a29.26,29.26,0,0,1-7.11,2.36c.17.33.31.66.48,1-.1.68-.19,1.35-.27,2.08l-6.65-3.15a37.83,37.83,0,0,1-6.16.38c-1.91-.05,1.18,7.14-.72,6.87,2.58,1.27-18,23.39-15.4,24.68,2.21,1.09,22.61-26,24.85-24.94L49,188.29c.19-2.64.28-5.24.38-7.79,1.52-.37,3-.69,4.58-.93,4.13-.64,10.46,0,13.27,3.14,13,14.66,28.38,15.88,43.41,19.23,2.23.5,4.88-1.42,6.78-3.05,1.48-1.28,2.37-3.68,3-5.85,5.33-17.49,15.15-23.78,32.59-16,3.94,1.77,10.36-1.62,13.74-5.08,6.25-6.42,11.1-14.65,17.77-23.83l30.79,49.25c-1.66,2.29-2,3.36-2.49,3.36-17.5-.07-27.7,10.38-36.76,25.95-3.24,5.56-18.17,5.91-25.62,1.71-17.76-10-26-4.38-35,11.24-9.59,16.64-30.27,39.77-35.71,43.68C77.41,285,50.09,265.8,50.09,265.8S25.28,248.51,12.31,247c1.47.38,5.07,5.56,6.5,5.86,4.09.85,11.82,6.32,15.53,8.14,3.08.26,6.53,5.25,10.84,7.59a36,36,0,0,1,6,3.95l.33.15a2.12,2.12,0,0,1,.88.9c.57.53,1.1,1.1,1.63,1.68,1.1.44,1.67.75,1.55.91,0,0,22,14,23.83,14.36,3.22.67,4.87-3.82,6.89-6.24,14.09-16.92,27.94-34.11,42.25-50.75,1.78-2.07,5.77-2.11,8.83-1.91,2.29.16,4.73,2.25,7.11,3.43,22,10.91,34,7.93,46-11.38,9.15-14.71,30.16-15.37,40.79.81,12,18.31,27.42,19.1,42.66,22.26,3.06.64,6.5-1.69,9.29-3.5,10.35-6.76,20-15,30.91-20.47,7.64-3.82,16.8-5.15,25.6-5.48,7.93-.3,11.21,7.29,7.15,15.05-7.64,14.54-16.87,26.74-30.09,34.55.42.94.86,1.87,1.26,2.82a45.37,45.37,0,0,1,4.63,10.94,21.07,21.07,0,0,1,5-7c9.05-9.23,18.77-17.63,27.41-27.34,3.9-4.39,6.62-6.92,13.06-3.67,6.63,3.35,13.84,4.5,21.77,6.92.54-5.44,13.37-9.53,13.8-13.79C402.62,234.65,389.37,233,388.56,232.93Z"
        transform="translate(-12.31 -4.78)" />
    <path id="voltish-bolt-2"
        d="M508.27,38.73l-44.59-9L470.2,9.31l-13,23.1,47.59,10.22-3.32,19.09-4.75,21.61-16,45.63-12.91-16.42L452,85.74l-31.41-9.59-4.93-36.24a26.22,26.22,0,0,1-4-1.24,3.3,3.3,0,0,1-1.13-.83l-32.31-8-10.51-.7L411,41.29l3.13,31.34-25.9-6.89L422,81l27.39,11,12.73,24.38,13.76,21.87-6.57,27.27,11.32,3.33,10.44-47,13.38-34.43,5.31-39.3Z"
        transform="translate(-12.31 -4.78)" />
    <path id="voltish-body"
        d="M841.35,653.2c45.13-16.29,87.16,4,128.76,31.73-13.91-39.11-44.34-68-70.52-94.42,7.29-3.91,16.75,5.37,25-.9-9.77-7.34-18.16-16.3-29-20.36-68.92-46.93-113.29-2-136,2.78l-.08,0a14.15,14.15,0,0,1-1.78-.9,18.6,18.6,0,0,1-8.23-11.38,1.32,1.32,0,0,0-2.48-.51,77.5,77.5,0,0,1-15.18,21.61c-1.3,1-2.62,1.95-3.94,2.88a39.88,39.88,0,0,0-5.58,4.55c-.55.56-1.07,1.15-1.59,1.74-29.67,18.71-60.43,55.48-71.53,96.79a28,28,0,0,0-1.62-2.92,47.84,47.84,0,0,0-8-9.2,1.18,1.18,0,0,0-.42-.38c-1.41-1.29-2.84-2.55-4.27-3.78a1.1,1.1,0,0,0-1.91.85,1.12,1.12,0,0,0-.05,1.17,37.15,37.15,0,0,1,3.72,14.19,34.82,34.82,0,0,1-1.22,8.07.88.88,0,0,0-.63.73c-.21,1-.48,1.89-.73,2.83a63.46,63.46,0,0,0-4.22,8.69c-1.21,2-2.49,3.86-3.82,5.74q-1.47,1.8-3,3.57a1,1,0,0,0-.2.88c-1.47,2-2.92,4.12-4.27,6.24a1.34,1.34,0,0,0,0,1.29,101.12,101.12,0,0,0-7.77,10.94c-.67,1.15-1.36,2.47-2.07,3.92a93.74,93.74,0,0,1,1.13-9.65,1.39,1.39,0,0,0-1-1.48,1.22,1.22,0,0,0-1.65.18,48,48,0,0,0-4.73,7.93,46.09,46.09,0,0,0-6.77,14.94c-1.46,5.74-2.4,11.72-3.41,17.62-.16,1-.3,1.94-.43,2.91l-.47-.45c-23.87-14.88-45.2-33.84-71.55-44.61-6-2.45-9.53-8-12-13.83-4.51-10.45-9.11-20.85-13.89-31.16a6.88,6.88,0,0,0,2.12.39,2.82,2.82,0,0,0,1.91-4.79l-8.31-7.42c-.19-.17-.59-.48-1.07-.87l-.5-.56a2.29,2.29,0,0,0-.66-.48l-.46-.93a26.65,26.65,0,0,0,3.22,1,2.82,2.82,0,0,0,3.1-4.13c-.8-1.64-2.3-2.25-3.66-3.29-1.64-1.25-2.88-3.27-4.17-4.85s-2.89-3.28-4.18-5.08a3.56,3.56,0,0,0-.41-.7l-.33-.4c-.25-.41-.48-.82-.69-1.25l.5.23a2.8,2.8,0,0,0,3.58-.76,2.74,2.74,0,0,0-.26-3.65c-4.28-3.39-8.7-6.66-12.79-10.29-.91-.81-1.81-1.65-2.65-2.53a2.71,2.71,0,0,0,2-2.64c0-4.71-4-7.37-7.74-9.34-.9-.47-1.76-1-2.6-1.49l1.77.54c3,.9,4.9-3.66,2.09-5.12a33.37,33.37,0,0,1-11.11-10.1c-1.08-1.45-2.1-2.94-3.11-4.44a12.57,12.57,0,0,1,1-7c.33-.24.67-.48,1-.7,4.1-2.54,9-3.27,13.73-3.38,3-.07,3.85-4.86.68-5.48a25.22,25.22,0,0,0-5.86-.4c1.11-.75,2.2-1.51,3.28-2.3,3.17-.51,6.48-.59,9.63-.81,2.14-.15,4.29-.33,6.44-.35a9.68,9.68,0,0,1,2.39.16c.7.39,1.39.79,2.08,1.21,3.35,2.07,7.09-2.85,4.16-5.52a9.74,9.74,0,0,0-2.93-1.83,59.65,59.65,0,0,0-8.43-3.91,60.8,60.8,0,0,1,6.59-2.37c7.06-1.95,14.55-1.28,21.74-.58,2.26.22,3.93-2.47,3.3-4.45-1.79-5.71-8.56-8.8-14-9.91-.77-.16-1.54-.28-2.31-.37,1.49-2.06,2.91-4.16,4.29-6.31,9.33,0,18.29,4.27,25.59,9.93a3.47,3.47,0,0,0,5.72-3.36,3.26,3.26,0,0,0-.13-.86,12.31,12.31,0,0,0-1.25-2.84c-2.05-4.5-4.38-8.84-8.05-12.29a108.76,108.76,0,0,0-11.16-9l0,0c2.15.69,4.29,1.43,6.35,2.27a82.2,82.2,0,0,1,14.18,10.59,3.39,3.39,0,0,0,3,.78,3.71,3.71,0,0,0,6-.24,15.74,15.74,0,0,1,2.71-2.7,9.3,9.3,0,0,0,2.84-4.74c0-.24.08-.47.1-.71.52-.57,1-1.18,1.48-1.81A31.28,31.28,0,0,0,543,533c-.34,2.08-.38,4.18,1.26,5.76,1.8,1.74,4.59,1.35,6.54.15,3.16-2,4.38-5.86,5.67-9.11a129,129,0,0,0,4.15-12.26,8.45,8.45,0,0,0,7.45-3,60.64,60.64,0,0,1,25.82-1.52,3.61,3.61,0,0,0,3.91-1.65,3.49,3.49,0,0,0-.59-4.21c-6.45-5-14-7.2-21.74-7.67.12-.16.23-.32.35-.47a62.68,62.68,0,0,1,8.16-2.13c10.31-1.95,20.69-.32,30.9,1.41,3.6.61,5.5-3.13,3.32-5.86-5.56-7-15.33-8.1-23.62-8.47-2-.09-3.93-.1-5.9-.07l.39-.42a103.59,103.59,0,0,1,10.82-3.39,74,74,0,0,1,17.58-2.35,55.69,55.69,0,0,1,8.85.59c3.17.5,6.17,1.25,9.35.4a3.53,3.53,0,0,0,.76-6.38,39.81,39.81,0,0,0-12.69-4.79q4.83-.8,9.68-1.47a3.57,3.57,0,0,0,3.15-2.18,3.44,3.44,0,0,0-.76-3.8c-3.22-2.55-7-3.21-10.85-3.22a18.75,18.75,0,0,0,2.63-2.64c2.08-2.57.12-6.83-3.46-5.78a66.54,66.54,0,0,1-7.18,1.65c.41-.2.83-.38,1.24-.6,2.5-1.32,2.07-5.91-.9-6.36l-15.2-2.28c-1.83-.27-3.65-.54-5.48-.83a59.57,59.57,0,0,0,13.34-1.79c3.26-.82,3.3-6-.08-6.71a39.42,39.42,0,0,1-11.48-4.43,15.53,15.53,0,0,0,4.47,1c3.49.22,4.63-4.94,1.68-6.51-4.55-2.43-9.11-4.91-12.8-8.46a49.77,49.77,0,0,1-4.83-6.34,56.89,56.89,0,0,1-2.87-5,17,17,0,0,0-2.38-4.18c-.19-1.45-.34-2.91-.47-4.37-3.35-.09-6.44-3.26-9.58-9.57-17.26-34.71-25.66-69.16,2.57-103.1,6.76-8.12,12.88-26.71,12.88-26.71.14,2.14,5.39-25.64-18.54-34.62,0,0,10,19.39.39,32.05l-2.79,0h0c-.05,0,0,0,0,0,0,1.3-3.1,10.25-6.73,15.13a12.72,12.72,0,0,1-2,2.6,1.89,1.89,0,0,1-1.9.48,11.55,11.55,0,0,1-.75-8.35c.16-.59-.46-1.3-1.08-1a2.19,2.19,0,0,0-.48.26c.13-1,.3-2,.49-3,0-.16.06-.3.07-.4a.91.91,0,0,0-.11-.55s0-.05.06-.09a6.19,6.19,0,0,0,0-3.28.91.91,0,0,0-1.2-.55,26.43,26.43,0,0,0,.15-6.22.89.89,0,0,0-1.16-.77v-.92a.75.75,0,0,0-.1-.36c0-2.34,0-4.69,0-7a.87.87,0,0,0-1.71-.21c-.1.41-.17.83-.27,1.25-.07-1-.15-2-.2-3,0-.61-.07-1.22-.1-1.84l.27-3.11c.06-.62-.47-.87-1-.8.06-1,.12-2,.15-3.07a.8.8,0,0,0-.73-.81,37.18,37.18,0,0,0-1.43-8.21c-.24-.79-.49-1.57-.7-2.36,0,.54,0,1.09,0,1.64a17.71,17.71,0,0,1-.48-2.3c0-.23,0-.46,0-.69-6.86-20.48-19.81-47.62-39.39-43.45,0,0,16.5,16.25,20,56.73-1.52.15-3,.35-4.55.57-10.68-19.22-38.7-64.29-60.89-52.28,0,0,22.86,14.88,39.63,62.62-.8.63-1.61,1.26-2.4,1.9-10.19-10.66-54-53.79-76.89-32.32,0,0,27.69,6.16,55.54,51.4-.08.1-.16.21-.25.31-11.72-7.78-57.94-35.45-81.78-5.08,0,0,36.61-.63,68.34,33.92a78.05,78.05,0,0,0-.74,8.07c.86,1,1.68,2,2.47,2.93,4.07,5.1,8.77,9.18,12.94,14.12.13.14.24.3.37.45a3.45,3.45,0,0,0-2.07,4.16c1.68,5.05,6.15,8.34,9.59,12.18,1,1.15,2,2.34,3,3.54q2.12,4.62,3.82,9.44c-2.75-1.69-6.66,1.78-4.72,4.85a116.9,116.9,0,0,1,10.78,21.87c.12,1,.23,1.95.34,2.93a32.2,32.2,0,0,0-6-4.38c-3.46-1.93-7,2.71-4.16,5.52A42.92,42.92,0,0,1,499,392.21c-.74-.59-1.49-1.18-2.29-1.73a2.9,2.9,0,0,0-2.75-.29,25.74,25.74,0,0,0-2.86-2.19c-2.86-1.88-6.71,2-4.71,4.82a131.58,131.58,0,0,1,11.51,19.4c.07.44.14.89.2,1.33-.49-1-1-2.1-1.49-3.13-1.76-3.46-7.92-.88-6.33,2.76a71.49,71.49,0,0,1,5.87,23.52c-.71,3.1-1.58,6.21-2.58,9.32l0,0a1.43,1.43,0,0,0-1.66.6l-.66.88a2.93,2.93,0,0,0-1.27-1c.12-1.7-2.21-1.66-2.74-.33-.1.24-.19.49-.29.74l-.11.09a42,42,0,0,1-4.89,4.47,1.41,1.41,0,0,0-1.83.1l-.26.22a2.62,2.62,0,0,0-.76-.6,1.42,1.42,0,0,0-2.38-1.18,89.34,89.34,0,0,1-6.45,6.46l-.61.18a1.38,1.38,0,0,0-1.71-1.48.67.67,0,0,0-.14-.09,2.77,2.77,0,0,0-4.53-3c-2.29,2.94-5.08,3.91-8.61,4.58-7.81-1.49-10.94-5.56-20.24,1.3,1.24-11.35-85.74,11.83-96.15,32.37.79-1.55-2.3-2.61-3.38-4l-2.82-7.55c-6.9-18.57-14.2-37-17.74-56.62A46.79,46.79,0,0,0,310,409.66a4.63,4.63,0,0,1,.11-4.64,43,43,0,0,1,13.47-15.08c10.81-7.6,20.91-15.84,28.08-27.23,5.38-8.55,9.58-17.47,10.56-27.65a38.79,38.79,0,0,0,.17-4.57c-.17-7.26-1.42-8.16-8.18-5.83-6.34,2.18-12.24,5.38-18.31,8.17-9.06,4.16-18.63,7.07-27.59,11.49-10.22,5.05-18.09,12.09-21,23.62a15.52,15.52,0,0,1-3.56,6.41c-2.26,2.55-4.69,3.43-8.37,2.73-20.21-3.87-40.3-4-60,3.05-3.64,1.3-7.41,2.26-11.05,3.54-2.76,1-4.72.42-6.2-2.2-6.92-12.2-17.09-19.69-31.23-21.38-2.32-.28-4.61-.83-6.92-1.24a143.53,143.53,0,0,1-38-12.46c-.84-.41-1.67-.85-2.54-1.22-3.71-1.58-5.8-.28-5.63,3.7A37.19,37.19,0,0,0,121,369.48c9.7,13.33,23.32,21.1,38.39,26.72a87.94,87.94,0,0,0,23.89,5.62c2.57.2,3,1.68,2.86,3.84-.56,7.36-3.64,13.77-7.42,19.91-5.71,9.26-13.48,16.75-21.27,24.18-6.86,6.55-13.52,13.32-20.86,19.38-6.77,5.59-7.73,10.19-3.91,18.67,2.17,4.81,5.43,9.17,7.16,14.09,2,5.57,5.16,7.89,11,8.23,5,.29,9.66,2.71,14.7,3.37a16.77,16.77,0,0,0,10.54-1.77,97.81,97.81,0,0,0,8.76-5.23c6.37-4.42,15.65-7.11,21.09-8.08,3.89-.69,12.08,2.11,15.54,1.47,9.89-1.82,18.53-3.23,27.71-7a192.13,192.13,0,0,0,30.3-16.75c8.69-5.89,10.07-19.15,13.47-28.54,2.68-7.39,3.43,20.14-5.08,27.81-7.5,6.77-21.39,17.25-30.76,20.52-11.39,4-17,7-28.53,10.42-2.36.71-4.91.8-7.27,1.35,1.07,11.3,3.63,23.28,6.08,34.66-.7-.48-1.39-1-2.09-1.42-1.6-.19-3.19-.32-4.77-.41-27.33,2.24-65.19,13.18-80.34,35.3a53.4,53.4,0,0,0-14.8,13.64c-3.38,4.42-7.78,10.25-8.34,16.07l-.62,1a20.13,20.13,0,0,0-2.18,4.32c-.52,1.55-.34,3.1-.57,4.64a6.53,6.53,0,0,0,.37,3.36l-.66,1.18c-6.47,8.17,5.16,10.51-3.27,16.87l-1.81,5.29c-1.13,3.3,3.28,5.49,5.59,3.6a3.16,3.16,0,0,0,2.59-1.07c0,.11,0,.23,0,.34a111.1,111.1,0,0,0-6,12.06,3.6,3.6,0,0,0,1.3,4.76,3.54,3.54,0,0,0,4.76-1.31c.3-.56.63-1.09.94-1.64a4,4,0,0,0,1.61,1.45,8.78,8.78,0,0,0,.29,1.23A34.31,34.31,0,0,0,116.75,674a3.5,3.5,0,0,0,4.49,3.25,23.49,23.49,0,0,0-1.07,12,3.08,3.08,0,0,0,2.39,2.35c-.06,1.05-.08,2.1,0,3.13a4.32,4.32,0,0,1,.93-.16c-.65,3.9-1.27,7.8-1.79,11.73a3.63,3.63,0,0,0,1.64,3.91,3.51,3.51,0,0,0,4.22-.59c.25-.32.49-.66.73-1a127.65,127.65,0,0,1-2.09,16.5,3.43,3.43,0,0,0,1,3.26,62.69,62.69,0,0,0-2.8,16.06c-.12,2.79,2.58,3.83,4.67,3.08l-.42,2.06-6.69,33.51c-.76,3.77,4.37,6.16,6.4,2.61a78.19,78.19,0,0,0,5.7-12.6c.39,1.72.76,3.45,1.12,5.17a237.52,237.52,0,0,1-4.93,35.18c-.95,4.37,5.58,6.12,6.75,1.77.48-1.81.92-3.63,1.35-5.45-.47,11.5-2.09,23-3.71,34.33a3.6,3.6,0,0,0,2.48,4.26,3.53,3.53,0,0,0,4.26-2.49l2-8.31.06.49c-.12.58-.21,1.16-.34,1.74-1.1,5-2.94,9.7-4.48,14.56-1.61,5.09-2.53,10.53-.84,15.73a3.72,3.72,0,0,0,3.85,2.45q-2.52,11.15-5,22.28a3.51,3.51,0,0,0,5.86,3.32,36.31,36.31,0,0,0,5-5.64,117,117,0,0,1-4.61,21.81c-1,3.26,3.59,5.94,5.86,3.32.78-.9,1.5-1.84,2.19-2.8-6.95,18.32-6.94,33-27.14,34.88-17.54,1.6-20.75,16.76-22.5,29.77-1.05,7.78,14,19.79,31.86,14.78,6.4-1.79,13.91-23,17.06-22.74,1.43.1-10.23,14,.25,20.8,3.79,2.47,19.79,1.5,26,1.42,5.2-.06,13.27-4.11,15.45-12.32.83-3.1,5.06-12.19,5.06-12.19s-.86,9.13.14,12.13c6.77,20.2,25.53,11.22,40.33,11.73,6.09.21,6.18-3.91,6.37-7.82.56-11.64-3.94-21.38-13.48-27.74-6.85-4.57-12.63-10-16.25-17A36.7,36.7,0,0,1,211.38,916c-5-4.18-6.41-7.68-10.17-13.19-5.65-8.3-12.52-16.83-17.9-25.3-3.34-5.26-6.52-10.92-8.31-16.93l-.11-.12a1.92,1.92,0,0,1-.48-2.07,32.94,32.94,0,0,1-.91-7c-.15-9.18,2.52-14.86,7.5-22.34,5.18-7.76,9.38-15.45,15.1-22.83,6.35-8.2,16.26-17.64,24.16-24.76,0,0-2.73-1.39-2.69-1.41a6.92,6.92,0,0,0,2.13-2.21c.09-.16.17-.34.25-.52,2.26-.76,3.53-3.44,1.56-5.59a3.51,3.51,0,0,0,3.81-3.49,12.91,12.91,0,0,0-2.2-6.7,2.88,2.88,0,0,0,.59-.28,3.54,3.54,0,0,0,1.2-4.78,24.57,24.57,0,0,0-2.82-4c-.83-1.32-1.61-2.67-2.32-4a3.43,3.43,0,0,0,.79-.34,3.52,3.52,0,0,0,1.56-4,108.77,108.77,0,0,0-5.21-12,3.44,3.44,0,0,0,1.07-3.59q-1.11-2.88-2.07-5.8c2-.26,3.7-1.91,2.87-4.25l-1.46-4.1a3.15,3.15,0,0,0,.76-4.35,26.13,26.13,0,0,1-1.51-2.31,3.61,3.61,0,0,0,1.17-4.72l-1.18-2a2.85,2.85,0,0,0-.6-2c-.13-.18-.26-.37-.4-.55a7.32,7.32,0,0,0,.94-.29,3.94,3.94,0,0,0,1.89-1.48,2.82,2.82,0,0,0,1.14,1.55c7.64,5.24,15.55,10.8,19.8,19.31a2.76,2.76,0,0,0,3.49,1.1,2.85,2.85,0,0,0,1.58-3.31c-.09-.56-.21-1.11-.33-1.66l1.14.55a26.22,26.22,0,0,1,1.8,2.21l5.28,7.19c1.28,1.74,4.63,1.86,5.09-.72,0-.24.05-.48.08-.72a57.93,57.93,0,0,1,7.38,8.26,2.8,2.8,0,0,0,5.07-2.21c-.15-.9-.29-1.8-.44-2.69,1.13,1.09,2.23,2.22,3.28,3.4,1.71,1.93,4.64.21,4.73-2a28.38,28.38,0,0,0-.08-3.69l.69.08a35,35,0,0,1,2.29,3.6c2.31,4.06,4.3,8.25,7.57,11.66,1.15,1.2,3.66,1,4.37-.61a16.15,16.15,0,0,0,1.38-6.64,51.25,51.25,0,0,0,8.83,5.49,3,3,0,0,0,3.8-1.15,54,54,0,0,0,7.86,4.48,2.86,2.86,0,0,0,2.71-.06c.45.48.85,1,1.28,1.5a6.11,6.11,0,0,1,2.52,1.85c.09,0,.18.07.27.13a28.87,28.87,0,0,1,4.38,3.3s0,.09.09.14a5.32,5.32,0,0,1,2.88.57,2.1,2.1,0,0,1-1,3.89,9.17,9.17,0,0,1-2.28-.24c-.54.11-1.13.27-1.49.38-1.46.42-2.87,1-4.29,1.54-3.24,1.26-6.64,2-9.92,3.21-7.85,2.77-15.26,6.58-23.09,9.39s-15.78,5.12-23.57,8c-3.85,1.42-7.58,3.07-11.37,4.64s-7.57,3-11.29,4.6c-3.28,1.45-6.42,3.15-9.72,4.56l-.5.21c-3.08,1.85-6.22,3.61-9.1,5.75-3.15,3.09-6.09,6.37-9,9.75-4.41,5.17-8.77,10.4-13,15.72-1.79,2.24-3.46,4.54-5.16,6.85a21.53,21.53,0,0,1-4,4.5,3.31,3.31,0,0,0-.19.61,47,47,0,0,0-7,13.66c-2.27,8,.12,15.69,4.12,23,.45,1.33.95,2.63,1.45,3.93,1.42,2.53,3,5,4.48,7.45.41,0,10.08,14.1,12.37,17.77a43.7,43.7,0,0,0,5.12,7.1c2,2.13,4.22,4.13,6.22,6.31,2.33,2.53,8.07,6.13,15.43,6.92,1.55,1.37,3.45,2.88,5.54,2.94a4.72,4.72,0,0,0,4.63-3.73,5.23,5.23,0,0,0,.11-.78l1.11.66c2.15,1.26,5.12,3.44,7.75,2.68a3.57,3.57,0,0,0,2.17-1.67l1.61.73c3.31,1.55,6.92,3.78,10.71,2.74a1.9,1.9,0,0,0,.9-.58,9.15,9.15,0,0,0,6.2-.77,29.89,29.89,0,0,0,9,1.75,2.19,2.19,0,0,0,2.07-2c3.86,1.14,7.78,1.75,11.89.52a2.07,2.07,0,0,0,1-3.34c3.23-.47,6.45-1.09,9.65-1.37a2.17,2.17,0,0,0,1.79-3.08c3.35-.4,6.69-1,10-1.55a2,2,0,0,0,1.16-3.09l1.23-.55c1.25,0,2.5,0,3.74.07-10.19,15.82-19.82,31.32-41,33.27-17,1.56-35.31,34.78-25,48.63,3.87,5.2,15.66,9.54,24.95,4.67,2.82-1.48,5.13-2.52,7.49-2.77-.74-2.92-4.39-19.66,4.94-30.82,0,0-6.46,25.45-1.54,31a19.81,19.81,0,0,1,6.78,3.24c8.73,5.94,22.06,1.72,30.2-3.64,5.88-3.86,10-5.66,13.38-5.51-1.05-5.09-3-19.45,5.27-29.38,0,0-5.88,23.2-2.14,30.14,2.64,1.22,5,3.86,7.8,7.93,1,1.47,7.31,3.45,9,3.42,12-.14,28.88-24.73,22.84-36a53.37,53.37,0,0,1-5.95-18.68c-.27-.61-.51-1.22-.72-1.82a25.29,25.29,0,0,1-1.25-9.06c.06-3.36.17-6.68.56-10a29.76,29.76,0,0,1,2-8.84c.44-1,1-1.89,1.48-2.8.84-2.57,1.81-5.11,2.81-7.65a1.81,1.81,0,0,0,2.89-.63,54,54,0,0,0,3.88-12,2.13,2.13,0,0,0,1.76-1.41,9.12,9.12,0,0,0,.4-1.42c.13-.5.26-1,.37-1.51,1.12.84,2.91.77,3.19-1,0-.19,0-.37.07-.56h0a53.07,53.07,0,0,0,.5-5.62c1.12.78,2.78.67,3.1-1.07a29.77,29.77,0,0,0,.55-6.66,28.11,28.11,0,0,0-.31-3.17c0-.36-.13-.73-.22-1.11,4.13,4.34,9.21,9.13,15.22,8.55a4.09,4.09,0,0,0,3.32-2.69c1.93,1,3.84,2.13,5.84,3,3.69,1.64,7.61,2.48,11.12.87,2.2-.34,3.94-2.29,3.24-4.46a3.8,3.8,0,0,0-.24-.85,3.46,3.46,0,0,0-.76-1c-.35-.6-.69-1.19-1-1.8A33,33,0,0,0,454,874.19c4.38.7,6.12-5.36,1.77-6.74a13.45,13.45,0,0,1-6.84-5.16,31.85,31.85,0,0,0,6.35,3.35l.48.4a2.25,2.25,0,0,0,1.94.4,26.19,26.19,0,0,0,4.32.82,3.45,3.45,0,0,0,3.16-2.18,3.5,3.5,0,0,0-.52-3.47,51.76,51.76,0,0,0,5.6,3.47,3.39,3.39,0,0,0,2.81.24l.35.36L478,876.05l3.38,7.64a29.71,29.71,0,0,0,3.76,6.86,2.1,2.1,0,0,0,2.53.29,5.49,5.49,0,0,0,2.5-2.85,42.6,42.6,0,0,0,18.48,10.22c2.29.61,4.55-1.65,4.46-3.76a61.62,61.62,0,0,1,10.12,11.39c1.9,2.78,4,8.31,8.3,6.83,3-1,2.6-3.86,1.48-6.51,1.35.91,2.71,1.81,4.1,2.66,2.82,1.75,5.9,3.79,9.35,2.67a3.42,3.42,0,0,0,1.87-1.4,42.63,42.63,0,0,0,3.67,2.46,43.67,43.67,0,0,1,9.44,8.14,9.83,9.83,0,0,0,2.06,2.11,2.55,2.55,0,0,0,3.08-.64c1.46-1.72.24-3.44-.91-4.9,1.49,1,3.12,2,4.94,1.86a4.71,4.71,0,0,0,3.33-1.67l.53-.05c1.26.33,2.53.66,3.8.92,2.16.45,5,0,5.64-2.42,2.64.64,5.29,1.21,8,1.68a2.16,2.16,0,0,0,2.54-2.46,7.71,7.71,0,0,0,3.31.22c2-.31,1.76-2.94.45-3.83-.74-.51-1.5-1-2.26-1.5l8.64.84a1.75,1.75,0,0,0,2-1.71,17.08,17.08,0,0,0,5.4-1l.7-.26c12.16,2.57,22.44,12.27,27.17,27,2.58,8,5,16.58,5,24.88,0,9.58,2,16.66,7,21.91a17.2,17.2,0,0,0,2.72,4.24A61.6,61.6,0,0,0,666,995.8c4.61,3,10.49,2.69,15.56,1.06s9.07-5.75,9-11.34a10.26,10.26,0,0,0-1.59-5.45,4,4,0,0,1,.59,0C686.32,971.8,677,963.45,677,963.45c11.71,2.62,13.29,13.13,13.43,17.51a31.65,31.65,0,0,0,2.59,2.59c5.11,4.39,11.1,8.57,17.82,9.86,5.47,1.06,11.68.08,14.27-5.49a11.39,11.39,0,0,0,1-6.63,1,1,0,0,1,.23-.21c-2.21-9-13.25-18.85-13.25-18.85,13,2.91,13.52,15.6,13.44,18.75l.13-.07c1.93,1.65,4,3.19,6,4.69,6.49,4.76,12.83,10.23,21,9,6.92-1,8.57-7.95,7.68-12.71-3.75-20-18.47-29.13-39.1-33.11-27.29-5.25-30.07-40.65-47.54-61.21-1.64-1.94-2.14-3.65-1.94-5.22-5.1-7.64-9.72-15.63-14.65-23.42-2.26-3.57-4.48-7.17-6.7-10.78.84-1.76,1.64-3.53,2.38-5.31,1-2.3,1.86-4.6,2.71-6.91,1.57-3.44,3-7,4.23-10.53,1.71-4.91,3.07-9.93,4.88-14.79,1.64-2.87,3.31-5.71,5-8.52,1.32-2.13,2.7-4.22,4.07-6.32q4-3.51,8.18-6.85c8.14-6.54,16.78-13.7,26.83-17.22,10.72-3.75,22.84-2.82,34.47-2,2.86.21,2.4-3.82.37-5a58,58,0,0,0-36.3-8.3c28-19.16,55.55-39.7,89.22-47.22,5.84-.08,4-7.9-1.38-8.89-33.64-5.16,6-6.84,13.57-16.07,24.81-6.56,47.83-8.85,76-3.64C872.44,666.57,859.59,656.82,841.35,653.2Zm-266.48-425c15.48,12.36-3.73,37.68-3.73,37.68C580.61,242.11,574.87,228.24,574.87,228.24Zm-23.65,34h0ZM518.29,178.1c31.57,28.73,16.49,83.76,16.49,83.76C535.67,219.43,518.29,178.1,518.29,178.1ZM474.86,182c39.89,19.26,43.53,84.25,43.53,84.25C505.24,220.17,474.86,182,474.86,182Zm-54.27,70.51C469.79,240.78,488,298,488,298,470,266,420.59,252.54,420.59,252.54Zm20-42.95c47.36,4.82,61.7,70,61.7,70C484.22,237.5,440.61,209.59,440.61,209.59ZM136.05,377.05a88.6,88.6,0,0,1,15.62,1.55L120.16,353s41.93,27.24,50.64,30.6c0,0-17.35-1.53-15.6.19a158,158,0,0,0,27.86,10.07S157,392.4,136.05,377.05Zm98.28,49s1.41-19.52,22.72-11.38C257.05,414.65,251.12,427.1,234.33,426Zm58.16-34.36c24.86-18.17,32.35-29,32.35-29-12.16-1.59-15.71-8.48-15.71-8.48,34.48-16,40.15-18.29,41.68-19.52l.22-.18-.22.18-24.74,20.49A115,115,0,0,0,349,350.24C322.88,384,292.49,391.67,292.49,391.67Z"
        transform="translate(-12.31 -4.78)" />
</svg>