<svg id="xylum" xmlns="http://www.w3.org/2000/svg" viewBox="0 0 915.96 984.93"><path d="M589.33,404c4,9.21,8.25,17.93,11,27.7,5.2,18.27,12.2,35.48,14.83,54.44,1.15,8.31,2,16.71,2.51,25.17a110.77,110.77,0,0,1,5.44-18.85c1.16-3,2.36-6,3.57-9,14.62-23.79,39.25-49,80.69-63.83,95.58-34.23,117.48,29.84,211.06-49.5,38-32.21,42-70.84,31.34-107.29.32-1.09.65-2.19,1-3.28l.09,0,4-8.94-8.51-3.7a3.13,3.13,0,0,0-.56-1.23l3.3-9.07-10-3.48,3.21-8.79-10.24-3.59a7,7,0,0,0,.12-.8c0-.1,0-.17,0-.26l.27-.16L936,210.4l-10.14-3.7a2.52,2.52,0,0,0-.9-.59l2.3-8.68-8.12-2,1.54-9-10.22-1.61c0-.1-.05-.2-.07-.3l.43-.44.94-9.75-10.24-.85.1-.1.93-9.75-10-.83a2.3,2.3,0,0,0-.71-1.6l1-9.49-9.81-.94-1.68-8.85-10.72,2.18c0,.31-.1.61-.16.91-5.22-5-8.43-7.83-8.43-7.83s2.34,4.3,6,11.48l-.82.41-4,8.95,6.71,2.88a2.8,2.8,0,0,0,0,.57,4.13,4.13,0,0,0,.39,1.26l-3.21,8.95,10,3.45c.15.28.3.57.47.85s.28.43.42.64l-2.86,8,9,3.09c.18.19.35.38.52.58a1.93,1.93,0,0,0,0,.63,4,4,0,0,0,.25.79l-3.3,8.85,10.29,3.69.07-.08c.11.27.21.54.32.82-.37.22-.74.44-1.12.64l-3.43,9.18,9.35,3.36c.11.32.21.64.32,1l-.16.05-5.34,8.22,9,5.65a3.81,3.81,0,0,0,.66.74,4.22,4.22,0,0,0,.54.36c.08.26.15.52.22.77l-6.33,6.4,6.75,6.51L896.58,251l7.2,8.22h.05l.15.52a3.36,3.36,0,0,1,.14.61l-6.7,4.25,5.81,8.92a3.46,3.46,0,0,0,0,.46c0,.21.06.41.08.61l-7,3.75,5.25,9.52a2.57,2.57,0,0,0,.48,1.41l.14.19a13.37,13.37,0,0,0-.12,1.42c0,.36,0,.71,0,1.07-35.24,82.41-109.49,45.23-150.6,44.76C704.77,336.18,637.25,350.38,589.33,404Z" transform="translate(-38.94 -10.38)" style="fill-rule:evenodd"/><path d="M73.26,365.34c91.21,82,115,18.64,209.51,55.66,46.83,18.34,71.33,49.54,84.14,76.36,2.19-13.54,4.22-27.12,7.27-40.49,4.38-19.14,14.43-35.59,22.82-52.92-46.1-51.13-110.56-66.37-155.82-67.18-41.47-.74-117.74,34.84-150.07-51.41.11-.61.22-1.22.34-1.83l5.44-9.21-8.15-4.67c0-.14,0-.27-.07-.41.42.09.83.17,1.25.29l6.23-9-6.37-4.3a1,1,0,0,1,.13-.16,14.9,14.9,0,0,0,1.15-1.77c.23-.4.44-.81.66-1.22L97.39,247l-5.23-4.73,7.93-7.22-6.24-6.69.07-.1c.38-.49.75-1,1.15-1.5l.07.06,9.42-5.56-5.1-8.37-.6-.21c.07-.21.15-.41.22-.61l10-3.27-3.16-9.28-.09,0c0-.17,0-.34,0-.51a5.5,5.5,0,0,1,.14-1.07l9.67-3.16-3-8.77a2.39,2.39,0,0,0,0-.8l-.18-.69-.17-.3,10.2-3.18-2.76-8.46.15,0a.75.75,0,0,0,.15-.09l.09.07,9.61-5.21-4-7.15a6.15,6.15,0,0,0,.49-.53l.13-.16,9.29-5.67-5.21-8.3-.28-.09c3.84-7.08,6.31-11.31,6.31-11.31s-2.54,2.08-6.79,5.88l-.09-.1c-.11-.54-.24-1.06-.32-1.6l-10.76-2-1.59,9.37c-.07.1-.18.16-.23.27a2,2,0,0,0-.36,1s0,0,0,.05l-10.54.7.77,9.6a2.55,2.55,0,0,0-.39,1c0,.05,0,.1,0,.16l-.31.3-10.09.54L96.4,169l-.12.15-10,.53.65,9.78.44.46c-.08.1-.17.2-.24.3L77,181.48l1.27,9.05-8.18,1.8,2.13,9.07-.44.69c-.14-.17-.29-.33-.42-.5L61,205l3.21,9.26.23.15c-.11.2-.23.39-.35.59a2.16,2.16,0,0,0-.22.71l-9.67,3.07,3,8.88-10.05,3.19,3,9.15c-.5.51-1,1-1.43,1.55l-7.78,3.12,3.76,9.05,0,0s0,.06,0,.09c.11.38.24.76.36,1.13.11.53.16,1.06.22,1.59C33.32,292.87,36,331.84,73.26,365.34Z" transform="translate(-38.94 -10.38)" style="fill-rule:evenodd"/><path d="M322.9,149.33l9.82.22.1-7.78c.54-.55,1.07-1.11,1.6-1.69l8.07-.71-1-7.93,0-.06,10.16-.77-.93-8.4-.26-.23a2.55,2.55,0,0,0,.3-.26l9.75-2.83-2.87-7.5a2.4,2.4,0,0,0,.69-.32l10-3-3.17-8-.08,0,.18-.18c.12.14.24.27.35.41l10.18-2.59-2.74-8.09-.17-.1,10.16-1.74-1.92-8.27-.78-.56.14-.15,9.65-.72-.82-7.45c.51-.41,1-.79,1.53-1.17l7.62,2.29,2.91-8v0c0-.06.06-.11.08-.17a2,2,0,0,0,.15-.41,1.94,1.94,0,0,0,.77.25l9.18,4.22L415.84,60c0-.13-.07-.27-.1-.41q21.7-1.08,44.15,23.54c27.73,30.51,45.79,68.11,52.78,111.2,2.78,17.15,3.57,38.24-2.75,53C499,272.88,507.7,289.05,521,306.24c9.61,12.46,19.21,24.92,30.07,39,3.56-4.75,5.37-6.51,6.5-8.75,68-135.14-16.39-280.16-109.27-314.36-24.47-9-47.88-6-67.49,9.63l0-.05H370.17l.11,8.17a2.09,2.09,0,0,0-.29.23l0-.06L359.5,41.57l1.62,8.09-9.24,2.62,3,8,.82.46-9.32,2.94,3,7.13-.19.29-.22-.2-9.77,3.64L342.81,82l-.68,1.25-9,2.9,3.34,7.9h0c-.16.31-.31.62-.46.93l-8.21,2.65,3.24,7.65c-.14.28-.27.56-.41.83l-9.07,2.21,2.64,8.12.56.34-.19.32-9.89,2.62,2.48,7.1c-.29.31-.58.62-.88.91l-7.67-1.5-1.91,8.27,0,.07c-7.89,3.72-17.63,4.08-30.32-.44C292.85,152,308.68,156.91,322.9,149.33Z" transform="translate(-38.94 -10.38)" style="fill-rule:evenodd"/><path d="M576.7,58.46l3.8,6.76,9.41-4.32c0-.12,0-.25,0-.37.34.12.68.23,1,.36-.07.15-.13.31-.2.47l2.91,8L602,66.86l.79.59-.91,8.27,8.7.65a3.22,3.22,0,0,0,.35.75l0,0L609,85.42l10.16,1.74-.17.1-2.74,8.09,10.18,2.59.08-.09c0,.12.11.25.18.38l-3,7.48,10,3,.06-.07a2,2,0,0,0,.66.31l-2.9,7.58,10,2.9.09.14-.31.28-.93,8.4,7.74.58.9,1.22a1.07,1.07,0,0,1-.16.14l-1,8.39,8.91.78c.66.7,1.33,1.38,2,2l.11,8.27,10.5-.24c14.87,7.79,31,2.58,42.14-14.37-17.62,6.51-29.42,1.16-38.61-9.79l2.76-7.89-6.82-1.8a3.92,3.92,0,0,0-.71-2.16l2.42-7.43-10.18-2.49.6-.31,3.34-7.9-9.6-3.1.94-.48,3.34-7.9-10-3.2,0,0-.25-.54.41-.19L653,72.22l-9.62-3.58,4.35-6.53-9.18-4.7c-.27.21-.56.4-.85.59l-.35-.65.05,0,3.89-7.7-8.91-3.43,2.52-7.9-10.22-2.46c-.25.33-.53.64-.81,1a3.25,3.25,0,0,0-.23-.29c.23-.2.46-.41.69-.6l1.07-8.39-9.11-.81-1.91-8.25-9,1.76C573.28-.29,523,13,497.31,44.31c14,8,25.63,20.62,36,34C548.54,66.33,564.09,58.63,576.7,58.46Z" transform="translate(-38.94 -10.38)" style="fill-rule:evenodd"/><path d="M857.93,500.7a39.74,39.74,0,0,0-2.89-4l-2.49-8.3-7.8,2.45a2.23,2.23,0,0,0-.61-.57h0l-2.38-8.51-9,2.64L831,477.34l-9.18,2.38-2.17-7.57L810.35,475l-2.73-6.39-9,4h0l-.18-.06-3.56-8L787,468.22a2.24,2.24,0,0,0-.94-.29c0-.11,0-.21,0-.32L781.49,460l-8.38,5.21.06.3-.38.08-4.18-7.29-8.27,4.88c0-.34,0-.69,0-1l-5.3-7.08-7.33,5.64-.14,0c0-.17,0-.33,0-.49l-5.3-7.08-7.07,5.44c-9.36-1.32-16.86-1.56-20.47.07-1,.45,6.63,5.7,16.38,11.85l-.12.19,1,8.78,9.34-1.15a2.35,2.35,0,0,0,.5.67l-.14.3,2,8.59,9.56-2.41c0-.15,0-.31,0-.46l.55.32,1.37,8.09,9.69-1.78h0a1.88,1.88,0,0,0,.36.27h0l-.06.19,3.39,8.16,8-3.44,0,.09,2.79,8.38,6.89-2.39a2.51,2.51,0,0,0,.77.85l1.49,8.44,8.8-1.67a13.63,13.63,0,0,0,1.2,1v0l1.92,8.62,9.07-2.14-.05,8.74,9.73-.06.19.26a3,3,0,0,0,.52.54v7.7s9.82.19,9.69.35l0,8.83,9.78-.16a1,1,0,0,0,.3.08,1.44,1.44,0,0,0,.46,0c12.94,16.16,16.73,33-2.9,46-54.09,35.85-91.69,32-190.15,22.86a117.09,117.09,0,0,0-39.65,3.45c-.12.41-.24.81-.35,1.21-6.89,25.47-25.89,52.47-38.27,63.43-1.63,1.46,28.38-37,33.78-63.3,1.14-10.7,43.5-139.73-62.13-268.3-13.05-15.88-32.71-43.87-46.64-67.69-18-30.73-20.64-64.7-9.94-100.1,1.92-6.37,8.31-34.57,8.31-34.57-7-14-19-37-34-53C405.42,162.36,393.05,249.93,430.4,329c13.92,29.45,76,87.34,90.16,136.89,7.42,26,18,95.77,10.26,123.7-5.18,18.66-15.59,31.44-34,32.42-16.12.85-30.26-10.07-35.25-30-3-11.93-5.26-25.72-2.95-37.39,4.49-22.61,11-45.45,19.7-65.95,10.21-24.07,19-49.35,19-49.35-.34-4.47-35-49-56-73-7.08,5.31-19.4,18.09-26.93,27-19.46,23-39.3,97.65-39,99.22a269.28,269.28,0,0,0-3.85,90.26c1.7,7.68,3.07,15.47,4.25,23.3.59,1.76,1.12,3.54,1.55,5.36.94,4,1.58,8,2.69,12a122.15,122.15,0,0,0,3.91,11.63c3.06,7.8,16.15,36.47,25.76,50,1.26,1.79-19.5-22.94-25.34-38.82-1.44-3.9-7.35-20.78-8.36-24.81-.51-2-.91-4.13-1.32-6.21a115.45,115.45,0,0,0-33.8-2.11c-98.46,9.16-136.06,13-190.15-22.86-19.61-13-15.85-29.82-2.94-46a2.93,2.93,0,0,0,.83-.08l.13,0,.27-.11,0,.05,9.86.16,0-8.83-.33-.41.15-.11,0,0,9.86.13v-8.24a4,4,0,0,0,.59-.27h0l9.85.07,0-8.59.13-.11,8.94,2.1,1.91-8.62c0-.07-.07-.15-.11-.22a14.58,14.58,0,0,1,1.83-.66L200,512.2l1.54-8.7c-.06-.09-.1-.19-.16-.28l.64-.4,7.14,2.48,2.79-8.38s0-.06,0-.09l8,3.44,3.4-8.16,0-.09.55-.33,9.49,1.74,1.34-7.92a2.62,2.62,0,0,0,.62-.07s0,0,0,0l9.56,2.41,2.05-8.59v0c.19-.16.38-.31.56-.48s.23-.27.35-.41l8.8,1.09,1-8.78-.27-.43c9.57-6,17-11.16,16-11.61-3.55-1.6-10.86-1.4-20-.14l-7-5.37-5.29,7.08v.1a1.87,1.87,0,0,0-.4.2l-7.05-5.42-5.3,7.07a2.33,2.33,0,0,0-1,.33l-.08.06L220,458.34l-3.75,6.54a2.84,2.84,0,0,0-1.36,0L207.08,460l-4.56,7.57c0,.13,0,.27,0,.4l-.73.31-8.14-3.76-3.35,7.52a2.74,2.74,0,0,0-1,.11l-.14.05L181,468.57,178.22,475l-9.32-2.81-2.17,7.57-9.18-2.38-1.73,7.05-9-2.64-2.37,8.5a2.37,2.37,0,0,0-.7.55L136,488.38l-2.53,8.47a1,1,0,0,1,0,.1,5.71,5.71,0,0,0-1.19,2,4.76,4.76,0,0,1-.34.57C86,528.29,41.1,577.09,88.16,619.22,172.44,694.68,248,661,325.88,691.78q4.8,1.89,9.17,3.91l-.74.36a51.72,51.72,0,0,1,5.85,2.09q4.27,2.13,8.12,4.35c17.69,11.82,25,34,24.24,57.58h0s1.38,31-11,60.6-27,31.85-27,31.85,19-20.57,22.78-34.06c3.23-11.58,9.79-48.82,11.6-59.21-22.61-4-48.2,16.06-59.07,47.41-6.64,19.15-6.35,38.38-.52,52.94C287.41,889.06,319,923.78,332,952.05a33.37,33.37,0,0,1,2.5,13.22A56.74,56.74,0,0,0,355,956.49c2.41-1.65,6.4,1.17,5.2,4a7.62,7.62,0,0,0,.49,7.13,6.73,6.73,0,0,0,2.71,2.76,3.31,3.31,0,0,0,.55.22c-1.21-3,2.2-5.67,5.1-4.3,6.7,3.18,14.87,7.19,22.5,5.4,5-1.16,11.13-5.74,10.23-11.57a3.58,3.58,0,0,1,5.92-3.44c3.51,2.81,7.71,6.17,12.52,5.51a44.53,44.53,0,0,0,6.87-2,54.75,54.75,0,0,1,7.27-1.69,60.17,60.17,0,0,1,30.49,2.89c1.68.63,3.15,2.44,2.47,4.36a14.4,14.4,0,0,1-2.48,4.44c4.06.93,9.19-1.37,12.72-2.7,6.25-2.35,13.58-4,19.37.35,1.35,1,2.48,2.31,3.89,3.21a10.65,10.65,0,0,0,4.5,1.45,73.48,73.48,0,0,0,9.73.19c11.72-.13,24.91-1.11,33.77-9.72,2.33-2.27,7.33,0,5.92,3.44-1.6,3.9,4.4,4.12,6.68,3.54,4.73-1.22,9-3.86,14-3.85s8.19,2.86,12,5.53a7.37,7.37,0,0,0,3.91,1.67c.52,0,1.72,0,1.9-.53a3.63,3.63,0,0,1,3.41-2.6h25.22c1.13,0,2.26,0,3.38,0,0-2.44,2.44-4.83,5.22-3.24,3.19,2.08,6.54,4.11,10.29,5a8.6,8.6,0,0,0,5-.17c1.63-.65,2.85-2,4.45-2.75a7.45,7.45,0,0,1,3.48-.69c-.32-5.89.39-11.83,2.42-16.25,13-28.27,44.58-63,22.65-92.46,5.83-14.53,6.14-33.72-.45-52.84-9.38-27.23-29.87-46-49.9-47.87,1.71,9.85,8.39,47.87,11.66,59.58,3.76,13.49,22.78,34.06,22.78,34.06s-14.6-1.77-27-31.41-11.44-61.5-11.44-61.5-.15-1.77-.22-1.77c1.43-25.56,10.82-50.6,26.52-61.07,3.62-1.72,7.44-3.39,11.5-5C740,661,815.59,694.68,899.88,619.22,946.29,577.67,903.27,529.62,857.93,500.7ZM327.18,818.27c-3.22,8.77-12.52,25.58-12.52,25.58s-.6-17.93,2-28.22,16.05-31.52,16.05-31.52S330.39,809.51,327.18,818.27Zm334.47,0c-3.22-8.76-5.51-34.16-5.51-34.16s13.47,21.23,16.05,31.52,2,28.22,2,28.22S664.86,827,661.65,818.27Z" transform="translate(-38.94 -10.38)" style="fill-rule:evenodd"/><path d="M735.5,983.32c-6.24,1.73-13.14-1.57-19.6,1-20.92-3.65-5.77-16.36-34.5-5.16-14.67,4.44-24.92-14-36.87-4.18-1.56.61-1.55.53-3.16.17-4.61-.54-12-10.39-13.7-1.68-6.8,1.26-31.38-2.94-33.68,2.55-.18.53-3.15.55-3.67.52-5.85-1.27-9.29-7.41-15.86-7-5.58-.72-21.29,9.52-22.42.31,1.42-3.37-1.8-5.59-4.12-3.37-10.56,9.75-40.56,14.5-51.73,4.77-11-7.8-23.59,4.3-35.54,2.3,12.8-16.59-33.64-12.05-40.94-7.86-4.89,2.74-15.08-13-14.84-3.79.9,5.7-8.76,12-13.74,13.1-6.76,4.51-27.2-12.86-24-1.08-6.41,1.4-10.26-7.42-9.4-12.48,1.2-2.77-.66-3-3.05-1.33-13.22,10.45-30.35,9.16-45.47,9.71-11,6.88-6.79,13.31-25.55,11.4-4.84-2.72-9.64-1.06-14.18,1.5-3.71,2.56-21.59,12.31-15.82,12.32,10.28,0,484.65,1.5,489.86-1.74C747.46,990.9,739.44,981,735.5,983.32Z" transform="translate(-38.94 -10.38)" style="fill-rule:evenodd"/><path d="M516.53,472.33c-.15-.78-8.17,16.33-14.32,23.27-2.3-5.78-10.23-23.27-10.23-23.27-3.53-.73-27.9,73.79-28.65,91.12.06,16.75,1.55,25,8.19,40.71,5.18,12.24,34.36,18.82,45,2.91C533.66,579.24,527.79,530.49,516.53,472.33Z" transform="translate(-38.94 -10.38)" style="fill-rule:evenodd"/></svg>