<svg id="yetimoth" xmlns="http://www.w3.org/2000/svg" viewBox="0 0 657.23 980.5"><path d="M561.44,313.31l-.13.1Z" transform="translate(-171.39 -9.75)"/><path d="M561.31,313.41l2.09.87L562,315.43l-.54-2.12Z" transform="translate(-171.39 -9.75)"/><path d="M681.94,224c-1,.92-2,1.83-3,2.74-4.42,3.91-9.12,7.72-12.7,12.2-6.9,8.66-5.54,14.25,3.92,19.47,10.09,5.57,21.19,8.19,33.12,8.86,5.59.31,13.37,2.07,17.71-.19-1.53-6-7.08-14.62-10.68-20-2.13-5.59-10-12.5-12.2-14A91.62,91.62,0,0,0,681.94,224Z" transform="translate(-171.39 -9.75)"/><path d="M294.51,242.66c-6.9,5.74-12.19,16.27-16.63,23,5.73,4.38,12.45,2.15,20.84,1.47a87.43,87.43,0,0,0,35-10.2c7.21-3.87,7.53-8.73,4.73-15s-8.94-10.46-13.94-15.35c-1.79-1.75-3.72-3.48-5.66-5.22C308.19,225.16,298.75,230.57,294.51,242.66Z" transform="translate(-171.39 -9.75)"/><path d="M792.4,459.29c-.21-1-.41-2-.62-3,33.31,15.16-4.6-35.17-14.75-38.79-7.83-5.44-12-12.23-12.57-21.25-1.35-20.68-5.84-36.36-15.34-55.17-26.88,11.91-59.84,14.52-92.43,4-21.41-6.93-40.29-16.3-57.08-30.09-2.88-2.36-4.89-7.13-10.32-5.84-10.08,2.39-22.6,18.58-23.76,28.33a507.26,507.26,0,0,1-14,71.7c6.62-4.21,11-10.76,16.3-16.24,6.65-6.88,15.32-11.73,25.89-11a36.2,36.2,0,0,1,15.63,4.68c4.82,2.8,8.21,7,13,9.72,4.54,2.59,8.17,5.68,13.08,7.8,3.74,1.61,8.57,3.91,9.28,7.91a2.67,2.67,0,0,1-.91,2.73c-5.07,3.58-13,4.64-18.91,6.7a53.46,53.46,0,0,0-10.22,4.74c-2.49,1.51-4.85,2.84-8,2.54-2.25-.22-3.35-1.6-3-3.53.68-3.71-6.81-1.92-8.63-1.38a33.53,33.53,0,0,0-7.28,3.08c-3.77,2.21-4.82,5.47-6.64,9-.32,2.53-1.42,5.13-1.86,7.67a101.62,101.62,0,0,1-2.88,11.46c-2.18,7.32-4.69,14.82-8.55,21.59-6.75,11.83-20.75,20.47-35.62,22.92-14.6,2.4-29.1-2-40.8-9.5a23.52,23.52,0,0,1-10.65-6.77c-2.13-2.39-4.86-5.81-7.52-9.5a52,52,0,0,1-3.88-5.69,50,50,0,0,1-5.06-9.67c-13.42-38.92-23.14-77.88-28.29-119.69-1.3-10.6-11.07-25.1-22.08-28.26-5.64-1.62-7.44,2-10.27,4.28-24.25,19.58-51.54,33.46-84.4,37.48-29.29,3.59-53.33-5.51-75.06-18.87-1.08,4.66-4,6.6-4.94,11.29-.94,8.94-14.49,65.69-39.46,93.56-13.77,17-24.53,52.35-13.56,70.68,10.34-3.69,7.08,4.24,8.19,6.89,3.46,8.32,5.84,16.88,8.73,25.28.64,1.86,1.72,6.39,2.91,5.06,12-13.42,9.59,6.08,11.5,10.37,6.73,15.17,8.27,31.45,17.86,45.83.7-.56,2.83-10.36,3.54-10.88,7.15,6.44,6.37,42.83,15.33,42.87,4.19.63,9.15,21.85,13.25,21.39,3.2-1,.38-4.38,3.25-6.11,11,13.38,11.22,33.63,30.88,40.38,4.29,1.28,7.94,4.2,11.8,6.46,16.9,9.89,13-8,22.79-5.33,24.45,7.42,11-17.51,11.92-28.13.22-8.65-11-26.78-21.45-28.49-4.11-.68-4.69-10.68-3.59-19,.68-5.24,3.42,2.87,8.57,4,8.89,3.44,7.34,2,10.1-.38,9.39-8.08-2.16-16.45-8.05-25.18-3.64-3.54-14-11.68-19-9.67-5.87,3.69-19.14-9.07-20.24-14.59l.57-.19a5.09,5.09,0,0,1-1.37-6c3.78-9.31-6.15-18.83-4.23-28.24,1.1-5.37-1.48-23.74,6.6-14.91,3.66,4,2.11-18.53,3.5-20,2.29-2.49,3.23,4.31,13.59,10,1.25-.59,2.47-10.78,3.35-12.27,4.64-7.86-.81-40.7-.16-55.12.2-15,24.25-22.53,31.27-22.22,5.43.24,3.5,5.44,4.89,8.45,2.23,4.85-2.3,14.13,10.47,12.37,39.33,49,9.31,51.25,4.17,101-1.28,9.24-5,18.41,1.86,27.77,3.54,5.28-7.91,18.11,2.92,21,3.13.82,1.53,3.23.89,4.94-4.25,9.24-6.12,20.42-11.72,28.62-.86,2.27-1.86,4.53-1,7.09,1,11.76-1.08,23.51-2,35.25,3.91,15.19-.39,31.39,9.89,45.41,4.18,5.7,4.52,10.21.43,16-16.39,20.35,13.14,31.45.85,49.48-14.43,19.62.46,28.87,2.31,47.69,2.37,7,6.63,38.56,13.72,40.17,5.9.28,5.66,3.66,7,6.41,10.05,21.31,5.28,44,13.63,65.18,3.9,9.89-3,19.89-3.75,29.87-.57,7.46.32,18.06,9.35,19,1.58.16,3.52.41,5.63.7.61.09,1-2.26,1.65-2.17s1.56,2.64,2.24,2.75c4.93.75,10.12,1.64,13.51,2.24,1.49.27,1-4.21,2.55-4s1,3.86,2.66,4c5.84.45,10.75.9,17.48-1.06,18.16-5.25,11.75-5.83,25.56-.93,18.45,4.15,21.79-12.74,10.43-22.09-9.44-9.84-25-25.92-29.16-37.71-1.64-4.64,7.62,2.58,5.29-2.06-12.44-26.62-5.82-59.41,7-85.26,4.16,1.06,2.37,5.66,8.37,6.58-4.26-35.21,8.42-30.26-2.7-56.06-1-2.39-3.16-4.31-4.41-6.53-1.46-2.6,6.82,2.19,5.91-.51-2.36-7.05-12.53-22-12.32-29.73.17-6.6,8.16-9,8.73-14.58,1-10.28,3-20.48,7.58-29.8.69-1.4,5.68-5.92,5.58-5.72-4.18,8,7.08-2.83,9.8-5.74,4-4.77,4.19-18.2,15.11-10.36,4.38,2.88,16,17.87,23.93,24.1.72.57.59-5.74,1.26-5.21a92.09,92.09,0,0,1,7.39,6.19c1.61,2,1.2,16.06,2.25,18.34.66,1.44,2.87-8.91,3.48-7.43s1.17,2.83,1.82,4.21c19.4,39.49-20.84,39.65-16.49,63,7.07,16-2.36,30.54-3.75,45.56-.16,1.67-2.55,3.54-4.48,4.74-6.9,5.36-21.24,6.77-17.68,16.66,6.13,20.15,31.69,33.74,25.31,55.9-3.38,11,8.44,19.49,9,30.12-.42,12.08,19.36,11.41,22.18.33,1.34-3.29-.81-7.16,2.64-10,6.83.16,4.77,13.36,19.19,5.61,2.07-1.24.56-5,2.32-6.2,2.1-1.44,2.22,3.43,3.91,2,1.23-1,5.16-4,7.67-6.09.91-.74,1.59-5.89,1.94-6.24,1-1.05,2,2.46,2.82,1.44,9.29-11.48,5.6-21.32-.41-31.26-.45-.74,4.28-.61,3.82-1.35-.58-.92-6.2-3.7-7.87-5.24-11.61-10.68-21.4-31.55,9.33-57.06,7-4.87,11.31-16.6,26-11.15,2.26.84,3.26-2.13,3.19-3.78-.63-14.32,3.88-28.3,6.69-42.55,1.46-30.82,13-26.72,17.3-48.75a66.15,66.15,0,0,0-6.21-38.76c-2.64-5.4-6.5-11.49-3.41-17,6-12-7.12-31.37-13.29-42.23-11.39-14.67-11.24-33.2-22.37-48.09a10.2,10.2,0,0,1-1.09-10.49c6.36-12,.61-27.47,15.75-37.14,4.53-2.37-3.33-25.54,3-22.76,10.22,4.7,5.55-3.28,5.49-4.93-.61-15.29-3.59-30.37-10.3-44.63-4.49-9.55,5.17-14.64,8.75-21.49,2.67-5.14,6.14,2.56,9.9,1.09,4.06-17.25,10.06-6.7,21.26-1,15.08,8.31,15,8.28,9.49,23.53-2,5.58-4.78,12.41-6.06,16.6-.81,2.63-1,13.46-.81,14.47.17.74,4.6-9.64,4.78-8.86,2.68,11.55,3.72,27.14,8.66,36.48,1,1.84,3.51-6.74,4.6-5,2.15,3.44,4.92,17.27,6.65,13.71,4.85-10,5.74,4.65,5.87,7.76a23,23,0,0,1-4.74,14.61l.43.14C697.6,556.08,687,562,674.91,563.12a7,7,0,0,0-6.16,3.89c-2.82,11.87-26.43,19-21.89,30.15,2.47,4.86,12.24,9.81,18.47,9.43,14-.33,19-15.49,26.06-11.25,12.4,4.51,16.44,15.45,11.67,26.17C700.7,633.94,680,633,677.43,646c-1.83,4.94-1.84,9.46,2.89,13.07,2.59,2,1.74,4,.49,6.19-6.9,9.57,3.85,25.3,17,15.9,6.38-4.29,6.38-4.29,11,.66,15.92,14.58,20-11.77,30.16-18.38,5.83-8,5.13-17,9.9-25.41,1.77-2.89,1.59-6.56,2.29-9.88,2.11-.13,1.59,2.59,4.45,1.88,1.07-11.71,4.68-23.35,9.24-34.89,2.51-.51,2.07,3,4.2,2.06s1.65-3.11,1.73-4.76a118.16,118.16,0,0,1,3.33-23.8l.27.13c3.26-14.54,11.26-29.47,19.19-42.48,9.38,1.2,7.58-5.28,8.51-9.06C807.18,496.68,802.09,477.64,792.4,459.29Z" transform="translate(-171.39 -9.75)"/><path d="M636.07,408.86c-.71-.38-1.44-.73-2.18-1.08a28.4,28.4,0,0,0-6.52.69c-.37.12-.73.25-1.11.34l-.4.07a40.92,40.92,0,0,1-5,1.37,17.76,17.76,0,0,0-8.16,4.32,30.81,30.81,0,0,0-3.11,3.37c-.16.21-.41.49-.68.8a3.89,3.89,0,0,0-.55,1.31,4.43,4.43,0,0,1-.45,1.36c.7,1.71,1.57,2.92,6.79-.54,5.46-3.61,14.42-6.08,21.12-7.83C637.21,412.68,637.27,409.5,636.07,408.86Z" transform="translate(-171.39 -9.75)"/><path d="M827.72,175.18c-1.6-52.15-36.89-110.49-104-98.4,99.94,33.45,56.57,248.11-58.77,185.73-44.29-24,57.74-51.77,41.94-114.31,6.59-23.43,1.77-45.09-10.32-65.65-1.66-2.82-3.88-4.87-1.56-8.7,9-15.34-32.41-25.51-43.92-25.8-14.77-.62-25.65,5.91-34.75,19.68-.75-12.38-5.9-20.05-9.19-28.34l13.52-4.32c-32.87-22.69-67.34-31.7-106-20.26-9.29,2.75-17.64,2.41-26.88-.2C451,4.2,414.76,10.31,386.44,35l9.8,4.86c-5.24,7.69-8.2,15.94-10.86,24.9-20.27-22.07-65-21.85-78.62,3.4,5.93,11.64-4.47,18.57-7.64,27.4-10.68,29.82-5.35,60.05.15,89.35,2.74,14.61,17.54,24.67,28.57,35.47,11.77,9.93,32.87,29.5,12.32,40.77-23.75,12-62.28,24.21-82.22-.79-48.12-54.94-54.65-149,22.47-183.47-208.77-11.14-91.86,391.82,133,223.28,60,23.21,23.88,156.35,89.38,188.79,79.74,27,49.21-73.07,100.66-71.21,3,.8,3.57-1.27,5.32-2.66.33-.38.67-.74,1-1.1,2.22-7,19.24-6.89,17-9.14-13.56-4-20.71-18.73-36.73-17.22-17.77,1.5-22.68,20-36.5,27.18-7.87,3.92-1.2,19.6-19.54,32,6.3-5.86,15.42-50.82,23.58-114.13,1.39-10.82,29.39-44.17,41.83-28C714.52,398.91,840.45,305.17,827.72,175.18ZM332.77,101c5.66-9.76,12.7-9.45,20.71-1.9,38.43,35.32,3.24,59.63,4.83,97-15.8-10.8,10.73-46.24,6.73-64.51-.7-11.53-4.88-19.33-12.33-28.12C347.68,97.49,339,101.84,332.77,101ZM435.66,241.26c-19.33,64.57-104.5,115.61-172,82,0,.1-.39-.07-.4,0C178.07,284.78,144,105,252.61,83.46,178.72,134.25,216,281,301.28,293.55c-1.67-5.95-9.83-4.62-12.58-10.11,38.74-3.36,71.19-18.46,87.1-53,3.51-7.12,7.46-13.83,14.27-18.82C411.32,192.9,444.84,217.38,435.66,241.26Zm4.92-60.52s-8.15-23.22-30.21-21.76a18.56,18.56,0,0,0-1.94-20.5S457.54,141.42,440.58,180.74ZM591.43,394.66c1.43-.91,10.34-1,9,0-4.32,3.29-9,1.31-10.71,10.52-.12.63.39,7.49-.25,7.64s-2.87-.24-3.14-.83C585,409.14,585.23,398.59,591.43,394.66ZM571.72,407.8c.53,1.84,1.11.74,2.95,2.62.41.42,3.54,4.73,2.89,5.23-1.72,1.32-3.43.26-4.46-1.3-1.23-1.89-5.29-1.8-5.91-3.93C566.77,408.94,571.3,406.33,571.72,407.8Zm73-306.59c9.25-9.34,15.27-8.06,24.54,3.72-19.42-2.82-31,4.17-33.11,24.93-4.31,16.89,18,49.59,8.9,59.64C635.46,159.42,614.56,127.8,644.74,101.21Zm-99.3,4.71s-30.38,22.25-82.9,0C462.54,105.92,496,116.32,545.44,105.92ZM540,238.59a277.59,277.59,0,0,0-73.34-1.2C485.11,226.53,517.77,223.69,540,238.59ZM513.21,457.08c-5.38,3-7.2,8.16-13.32,10.23-4.57,1.56-6-1.83-2.95-5.11,5.92-6.41,7.4-6.41,12.62-6.51C514.5,455.59,517.34,454.77,513.21,457.08ZM479.1,430c14.95-5.58,30.08-12.15,43.19-6.5C521.4,424.6,489.52,432.57,479.1,430ZM476,399.92c22.9-6.72,30.47-10.54,51.86-3.95C506.45,398.61,492.9,402.42,476,399.92Zm53.32,78.86c-.07,4.22-3,2.54-4.8-1.63a7.89,7.89,0,0,1,.3-6.93c3.13-5.46,6.1-4.6,6-.35C530.82,472.18,529.35,476.47,529.32,478.78ZM472.84,365.47c23.07-7.22,36.75-12.05,62.38-2.49C511.06,364.13,492.89,366.27,472.84,365.47Zm-4.71-42.55c24.8-8.76,43.1-7.4,72,1.16C512.72,325.05,492.93,325.05,468.13,322.92Zm-4.85-41.16c20.38-11.7,55.82-14.49,81.87,1.17C519.09,279.24,486.57,279.05,463.28,281.76Zm95.58-101c-16.88-39.32,32.23-42.26,32.23-42.26a18.57,18.57,0,0,0-2,20.5C567.05,157.52,558.86,180.74,558.86,180.74ZM783.42,296.07c-58.11,72.24-186.8,27.16-212.85-48.85-14.22-27.58,22.86-56,46.22-32.5,25,39.07,42.76,67.15,98.33,68.4-3.65,6.14-11.83,6-15.87,10.77,83.12-9.09,131.2-167.31,46.6-210.43C846.84,103.1,832.54,235,783.42,296.07Z" transform="translate(-171.39 -9.75)"/><polygon points="564.92 288.56 580.92 291.56 601.92 273.56 605.92 258.56 622.92 255.56 600.92 254.56 597.92 270.56 580.92 286.56 564.92 288.56"/><polygon points="449.69 224.56 443.35 235.41 452.03 238.66 459.63 245.18 455.28 249.52 455.28 264.71 461.63 275.56 461.54 269.05 460.37 264.71 459.45 256.94 467.14 262.37 473.56 262.37 483.33 260.2 490.02 258.88 490.92 254.94 488.75 256.03 483.33 256.03 473.56 258.2 468.14 258.2 460.45 252.77 460.45 249.52 465.88 244.09 457.2 237.58 449.6 234.32 449.69 224.56"/><polygon points="245.92 249.56 238.92 254.56 224.92 251.56 206.92 262.56 198.92 271.56 184.92 291.56 194.92 267.56 201.92 260.56 185.92 265.56 170.92 274.56 152.92 271.56 141.92 268.56 143.92 267.56 152.92 267.56 170.92 270.56 185.92 261.56 194.92 259.56 182.92 258.56 173.92 261.56 182.92 254.56 196.92 255.56 206.92 255.56 224.92 247.56 238.92 250.56 253.92 245.56 245.92 249.56"/><polygon points="28.92 198.56 19.92 187.56 22.92 179.56 17.92 169.56 18.92 161.56 21.92 169.56 27.92 180.56 24.92 187.56 28.92 198.56"/></svg>